<svg xmlns="http://www.w3.org/2000/svg" width="831.716" height="452.714" viewBox="0 0 831.716 452.714"><defs><style>.a{fill:#7f5448;}.b{fill:#232627;}.c{fill:#000001;}.ba,.d,.e{fill:#fff;}.e{opacity:0.3;}.bb,.bc,.f{fill:#fe6824;}.g{fill:#4059a4;}.h{fill:#5eb6b6;}.i{fill:#ffe76a;}.j{opacity:0.7;}.k{fill:#304b9b;}.l{fill:#5368ae;}.m{fill:#eb4946;}.n{fill:#bbbcbc;}.n,.o{opacity:0.6;}.p{fill:#aaa;}.q{fill:#a61820;}.r{fill:#f7e539;}.s{fill:#f6a014;}.t{fill:#c92a29;}.u{fill:#650810;}.v{fill:#f5721b;}.w{fill:#e8ce31;}.x{fill:#c4bfbd;}.y{fill:#424040;}.z{fill:#002983;}.aa{fill:#10388e;}.ab{fill:#efe6d8;}.ac{fill:#616bb0;}.ad{fill:#e8b6a5;}.ae{fill:#9086bf;}.af{fill:#9d81ba;}.ag{fill:#78569f;}.ah{fill:#fff9f0;}.ai{fill:#040505;}.aj{fill:#d2d6cd;}.ak{fill:#f19371;}.al{fill:#ede726;}.am{fill:#a6a7a7;}.an{fill:#ee509c;}.ao{fill:#0065ac;}.ap{fill:#ad5127;}.aq{fill:#cc531c;}.ar{fill:#fdbd9a;}.as{fill:#59a1d2;}.at{fill:#e1a58f;}.au{fill:#54473e;}.av{fill:#b3927d;}.aw{fill:#cca88b;}.ax{fill:#e9e9e8;}.ay{fill:#105881;}.az{fill:#141414;}.ba{font-size:22px;font-family:OCRAStd, OCR A Std;}.bb{opacity:0.235;}.bc{opacity:0.156;}</style></defs><g transform="translate(-515.797 -457.084)"><g transform="translate(515.797 457.084)"><g transform="translate(0 157.396)"><path class="a" d="M63.922,189.238a13.79,13.79,0,0,1-4.986-.955,11.3,11.3,0,0,1-6.339-6.3c-5.258-12.184,5.061-38.172,6.256-41.1l8.192,3.344c-3.966,9.722-9.187,27.615-6.325,34.246a2.464,2.464,0,0,0,1.4,1.548,4.464,4.464,0,0,0,3.9-.175c5.668-2.863,10.026-14.8,11.107-18.751l8.535,2.332c-.532,1.948-5.494,19.181-15.652,24.315A13.42,13.42,0,0,1,63.922,189.238Zm3.123-45-4.1-1.672,4.1,1.672Z" transform="translate(-10.91 -43.891)"/><g transform="translate(61.131 83.53)"><path class="b" d="M121.9,160.859l9.732-10.012c-6.806-12.5-26.432-22.083-46.89-13-16.69,7.41-23.8,22.745-23.306,35.433l15.408,7.584s11.3,14.549,16.235,25.719c6.573,14.86,10.536,34.58,10.536,34.58l45.055-20Z" transform="translate(-61.414 -134.26)"/></g><g transform="translate(0)"><path class="b" d="M128.17,126.044A49.913,49.913,0,1,1,64.224,96.156,49.911,49.911,0,0,1,128.17,126.044Z" transform="translate(-31.325 -93.147)"/><g transform="translate(33.68 22.58)"><path class="a" d="M104.2,129.2A26.688,26.688,0,0,1,90.663,164.43h0A26.685,26.685,0,0,1,55.435,150.89L51.392,141.8a26.683,26.683,0,0,1,13.539-35.226h0a26.683,26.683,0,0,1,35.226,13.537Z" transform="translate(-46.686 -104.261)"/><path class="a" d="M61.611,128.161a7.161,7.161,0,1,1-9.46-3.649A7.167,7.167,0,0,1,61.611,128.161Z" transform="translate(-47.903 -84.006)"/></g><g transform="translate(34.861 21.538)"><path class="b" d="M51.987,110.638l10.78,7.493a43.524,43.524,0,0,1,3.647-3.18l-9.527-8.529A34.757,34.757,0,0,0,51.987,110.638Z" transform="translate(-44.87 -100.99)"/><path class="b" d="M49.653,114.69,61,120.233c.776-1.107,2.479-3.3,3.4-4.319L52.93,109.347A33.046,33.046,0,0,0,49.653,114.69Z" transform="translate(-47.278 -97.972)"/><path class="b" d="M55.315,106.869l8.558,9.039c.943-.675,2.278-1.434,3.3-2.02-1.556-1.971-5.079-5.853-7.6-9.029A29.411,29.411,0,0,0,55.315,106.869Z" transform="translate(-41.436 -102.601)"/><path class="b" d="M58.357,105.23l6.518,9.181c.1-.055.2-.112.3-.165a27.217,27.217,0,0,1,2.629-1.184c-.912-2.306-1.786-6.042-3.048-9.22A55.3,55.3,0,0,0,58.357,105.23Z" transform="translate(-38.298 -103.652)"/><path class="b" d="M48.534,119.066l11.331,1.258a30.216,30.216,0,0,1,1.839-3.409l-11.932-3.667A29.533,29.533,0,0,0,48.534,119.066Z" transform="translate(-48.432 -93.948)"/><path class="b" d="M49.211,122.169A24.391,24.391,0,0,0,59.064,134.4c-.337-.709-.648-1.436-.922-2.186a25.829,25.829,0,0,1-1.17-11.829l-7.8,1.68C49.188,122.1,49.2,122.134,49.211,122.169Z" transform="translate(-47.77 -86.582)"/><path class="b" d="M49.215,123.312l8.671-.618a34.979,34.979,0,0,1,1.56-5.2l-10.963-.471A27.486,27.486,0,0,0,49.215,123.312Z" transform="translate(-48.484 -90.05)"/><path class="b" d="M69.534,110.561a39.808,39.808,0,0,1,7.164,3.62,26.924,26.924,0,0,0-6.528-8.275Z" transform="translate(-26.766 -101.522)"/><path class="b" d="M66.34,104.173l.138,7.141a21.882,21.882,0,0,1,5.223.695c.093-1.623.2-3.49.3-5.327A24.289,24.289,0,0,0,66.34,104.173Z" transform="translate(-30.062 -103.31)"/><path class="b" d="M62.544,103.774l1.875,9.041a24.063,24.063,0,0,1,4.813-1.012c-.3-2.156-.695-5.008-1.069-7.674A25.679,25.679,0,0,0,62.544,103.774Z" transform="translate(-33.978 -103.748)"/><path class="a" d="M57.79,105.057c-.128.047-.252.1-.38.148,2.519,3.176,6.042,7.058,7.6,9.029.392-.226.439-.317.843-.528l-6.518-9.181C58.568,104.751,58.564,104.775,57.79,105.057Z" transform="translate(-39.275 -102.947)"/><path class="a" d="M61.507,103.926c1.262,3.178,2.135,6.914,3.048,9.22.469-.183.475-.2.935-.343l-1.875-9.041A18.391,18.391,0,0,0,61.507,103.926Z" transform="translate(-35.048 -103.735)"/><path class="a" d="M65.31,103.936c.374,2.666.77,5.518,1.069,7.674a9.385,9.385,0,0,1,1.162-.051l-.138-7.141A15.292,15.292,0,0,0,65.31,103.936Z" transform="translate(-31.124 -103.555)"/><path class="a" d="M69.282,105.408c-.1,1.837-.209,3.7-.3,5.327a9.706,9.706,0,0,1,1.128.339l.636-4.655A9.013,9.013,0,0,0,69.282,105.408Z" transform="translate(-27.339 -102.036)"/><path class="a" d="M54.4,107.013l9.527,8.529c.421-.329.453-.343.892-.654l-8.558-9.039A17.818,17.818,0,0,0,54.4,107.013Z" transform="translate(-42.381 -101.581)"/><path class="a" d="M51.266,110.224l11.473,6.566c.37-.41.378-.4.772-.8L52.731,108.5A17.754,17.754,0,0,0,51.266,110.224Z" transform="translate(-45.613 -98.849)"/><path class="a" d="M49.143,114.557l11.932,3.667c.3-.477.282-.484.605-.947l-11.5-5.3A26.09,26.09,0,0,0,49.143,114.557Z" transform="translate(-47.804 -95.259)"/><path class="a" d="M48.484,117.97l10.963.471c.217-.563.215-.52.469-1.073l-11.331-1.258A11.349,11.349,0,0,0,48.484,117.97Z" transform="translate(-48.484 -90.994)"/><path class="a" d="M49.519,122.656l7.8-1.68c.069-.53.1-.636.2-1.16l-8.671.618Q49.124,121.549,49.519,122.656Z" transform="translate(-48.112 -87.171)"/></g><g transform="translate(60.411 45.547)"><path class="c" d="M72.741,120.784a3.025,3.025,0,1,0-.065-4.4A3.111,3.111,0,0,0,72.741,120.784Z" transform="translate(-49.981 -115.566)"/><path class="c" d="M62,126.687a3.025,3.025,0,1,0-.065-4.4A3.109,3.109,0,0,0,62,126.687Z" transform="translate(-61.06 -109.474)"/></g><path class="d" d="M84.868,120.941,65.437,131.516c2.857,2.607,8.9,4.443,13.787,1.528C84.612,129.826,86.3,124.236,84.868,120.941Z" transform="translate(3.868 -64.472)"/></g><path class="a" d="M85.543,137.99a32.462,32.462,0,0,0-3.488.874l-4.2-7.44-8.387,3.365,3.228,8.121a27.262,27.262,0,0,0-3.675,2.4,10.119,10.119,0,0,0,.544,1.182c2.456,4.986,8.058,7.2,12.511,4.957s6.071-8.111,3.616-13.1C85.654,138.273,85.585,138.07,85.543,137.99Z" transform="translate(7.567 -53.657)"/><g transform="translate(43.308 46.628)"><g transform="translate(1.763 1.588)"><path class="a" d="M54.988,138.49c2.513,2.05,4.606,5.91,7.42,7.211,2.905,1.341,6.54.1,9.608.648a14.958,14.958,0,1,0-18.476-16.343c-.083.67.033,3.913.033,3.913A14.878,14.878,0,0,0,54.988,138.49Z" transform="translate(-53.509 -116.879)"/><path class="c" d="M62.438,121.445a4.216,4.216,0,1,1-.943,5.715A4.1,4.1,0,0,1,62.438,121.445Z" transform="translate(-46.049 -112.838)"/></g><path class="e" d="M53.582,130.006a14.959,14.959,0,0,0,13.013,16.678h0a14.959,14.959,0,0,0,16.678-13.015h0a14.956,14.956,0,0,0-13.015-16.676h0a14.957,14.957,0,0,0-16.676,13.013Z" transform="translate(-51.789 -115.291)"/><path class="f" d="M52.767,130.568a16.488,16.488,0,1,1,14.346,18.383A16.508,16.508,0,0,1,52.767,130.568Zm3.06.378a13.405,13.405,0,1,0,14.945-11.662A13.42,13.42,0,0,0,55.826,130.946Z" transform="translate(-52.641 -116.097)"/><path class="f" d="M59.417,131.43l-3.3,26.729a4.242,4.242,0,0,0,3.728,4.71l.083.01a4.242,4.242,0,0,0,4.76-3.663l3.3-26.729Z" transform="translate(-49.086 -100.279)"/><path class="d" d="M55.61,130.013a7.987,7.987,0,0,1,.486-7.141l4.336,1.518a8,8,0,0,0,1.749,10.5A7.994,7.994,0,0,1,55.61,130.013Z" transform="translate(-50.219 -109.108)"/><path class="a" d="M56.051,148.472a6.225,6.225,0,1,0-.679-8.777A6.225,6.225,0,0,0,56.051,148.472Z" transform="translate(-51.369 -93.997)"/></g></g><g transform="translate(96.22 0)"><path class="d" d="M672.453,49.22H78.685V24.99A9.315,9.315,0,0,1,88,15.677H663.14a9.314,9.314,0,0,1,9.313,9.313Z" transform="translate(-78.685 -15.677)"/><rect class="d" width="593.768" height="412.756" transform="translate(0.001 22.821)"/><path class="g" d="M94.423,24.214a5.937,5.937,0,1,1-5.937-5.937A5.936,5.936,0,0,1,94.423,24.214Z" transform="translate(-74.697 -12.995)"/><path class="h" d="M103.877,24.214a5.937,5.937,0,1,1-5.937-5.937A5.936,5.936,0,0,1,103.877,24.214Z" transform="translate(-64.944 -12.995)"/><path class="i" d="M113.331,24.214a5.937,5.937,0,1,1-5.937-5.937A5.936,5.936,0,0,1,113.331,24.214Z" transform="translate(-55.19 -12.995)"/><g class="j" transform="translate(0.001 22.824)"><rect class="f" width="593.768" height="32.133"/><g transform="translate(19.056 8.948)"><rect class="d" width="135.04" height="14.901"/><rect class="k" width="14.901" height="14.901" transform="translate(135.04)"/></g><g transform="translate(506.596 4.99)"><path class="k" d="M342.932,46.216h-14.9l7.45-14.9Z" transform="translate(-328.031 -27.357)"/><rect class="k" width="14.901" height="14.901" transform="translate(44.254 3.958)"/><circle class="k" cx="7.45" cy="7.45" r="7.45" transform="translate(22.127 3.958)"/><circle class="i" cx="4.074" cy="4.074" r="4.074" transform="translate(33.061)"/><circle class="i" cx="4.074" cy="4.074" r="4.074" transform="translate(55.081)"/></g></g><g transform="translate(368.679 354.205)"><g class="j" transform="translate(0 0)"><rect class="l" width="93.93" height="8.213"/><rect class="m" width="62.748" height="4.62" transform="translate(0 14.296)"/><rect class="m" width="31.951" height="4.62" transform="translate(0 23.408)"/><rect class="m" width="62.748" height="4.62" transform="translate(0 32.521)"/><rect class="n" width="55.05" height="4.619" transform="translate(0 41.633)"/><rect class="n" width="62.748" height="4.619" transform="translate(0 51.037)"/></g></g><g class="o" transform="translate(42.575 83.319)"><g class="j" transform="translate(0 0)"><path class="p" d="M159.927,114.508c-2.03,1.363-6.308,3.287-6.835,5.126s1.839,10.386-.92,12.883a14.866,14.866,0,0,0-2.367,18.271c4.734,8.545,14.2,15.642,17.221,20.506s1.577,32.6,4.076,39.567,6.046,23.793,17.089,28.263,7.755,1.445,7.755.788-5.652-3.547-6.967-9.99-4.338-16.694,2.761-19.191,10.646-13.671,13.933-19.982.788-9.2,4.206-9.99,10.122-4.074,10.254-8.545-2.1-10.514.92-13.013,7.229-11.436,0-15.772-8.545-4.6-13.409-5.522-5.914-10.516-13.145-12.883-10.91-4.338-11.963-7.887-4.468-1.577-9.2-1.709S166.221,110.288,159.927,114.508Z" transform="translate(-62.851 12.857)"/><path class="p" d="M189.342,164.2c1.753,1.664-1.577,7.623,0,10.122s5.652,4.732,3.944,5.652-7.887-2.367-9.332-6.046-5-4.208-8.151-6.7-7.887-2.5-11.961-4.47-10.254-5.52-10.518-9.334-4.994-14.854-6.308-14.59,1.577,8.675,0,10.252-6.178-8.807-6.178-12.357-.132-8.149-1.841-8.675-2.235-3.417-2.891-9.069,9.728-13.8,9.2-16.562-1.579-3.287-1.709-4.6,5.256-11.042-.79-15.774-14.59-1.182-19.98.658S106.66,90.324,106,88.353s3.944-3.549,3.287-6.837,10.648-6.44,9.858-8.019a3.284,3.284,0,0,1,2.5-4.6c2.5-.394,3.417-2.367,8.281-3.944a63.887,63.887,0,0,1,35.1-.788,34.6,34.6,0,0,1,16.562-1.182c8.545,1.709,12.751,2.5,19.454,2.5,3.257,0,8.82,1.764,12.16.459,3.537-1.38,4.888-5.951,7.954-4.929,1.39.463,1.916,3.61,3.155,3.681,1.063.061,1.1-3.241,2.891-5.128,2.08-2.19,10.924-3.178,15.839-1.774.6.173,1.542,2.271,3.025,3.155,1.225.729,2.962.144,3.944,1.247.859.969.916,2.928,1.445,4.011,1.264,2.59,3.119,2.716,1.841,4.206a21.947,21.947,0,0,1-2.328,2.29c-.486.414-3.052-2.751-3.588-2.355s.957,4.35.392,4.7c-3.281,2.036-6.875,3.115-8.606.754a3.24,3.24,0,0,0-2.17-2.564c-2.068-.664-5.457-.368-5.39-1.182.132-1.577,8.216-.132,8.348-3.287s-2.629-6.308-7.887-2.5-4.338,6.967-6.573,7.887S218.393,74.682,213,76s-11.436,4.732-6.835,8.545,14.722,6.308,17.221,2.365S225.886,76,229.566,76s6.7.394,7.625,1.973-.132,4.732,1.447,4.732,4.6-2.5,7.229.394,3.549,8.675,3.814,11.7,4.338,8.545,1.709,9.334-8.545,1.052-9.334-1.052-2.1-6.7-5.522-3.811,2.237,7.361.92,8.281-7.361,4.076-9.464,2.629-5.52,1.182-7.231,3.287-8.675,4.862-10.384,9.2-8.149,5.916-10.778,8.939.394,14.2-3.814,14.065-.524-7.1-2.627-8.413-4.864-2.629-7.625-.526-10.384.132-13.277,3.287-7.1,16.43-.524,17.221,5.382-3.155,7.751-4.208,5-1.577,5.394.264-6.31,8.411-2.761,9.464S186.713,161.7,189.342,164.2Z" transform="translate(-105.937 -44.591)"/><path class="p" d="M179.6,57.567c-1.56,1.249,3.243,4.118,6.924,3.769s6.66,1.928,5.872,4.293-1.587,2.718.126,4.734-.565,1.489-2.755,3.066-.439,10.693,1.4,11.568,2.365-.351,3.243.439.439,1.928,2.629,1.4,6.046-9.289,8.324-9.289a22.575,22.575,0,0,0,9.2-2.454c3.332-1.666,3.243-1.928,4.557-1.841s10.605-1.4,11.394-3.769-.965-2.8,0-3.767,4.38-2.192,5.959-5.522.7-2.454,1.577-3.33,8.239-2.278,7.974-3.592-3.066.087-7.1-1.052a43.569,43.569,0,0,0-18.054-.614c-7.361,1.227-13.232,0-18.49,1.14s-12.357,1.489-13.32,2.454-1.4.876-2.981,1.227S181.791,55.814,179.6,57.567Z" transform="translate(-30.251 -50.962)"/><path class="p" d="M201.984,64.734c-.607.632,1.138,2.192,1.928,2.981s2.19,1.14,5.695,0,7.8-1.315,6.136-2.981-2.611-1.841-6.694-1.4S204.174,62.457,201.984,64.734Z" transform="translate(-6.976 -38.412)"/><path class="p" d="M216.338,74.042c-.861-1.863-3.155-1.489-4.3-.612s-3.641.876-3.135,1.839-.156,2.367,0,3.068.331,1.664,2.259,1.14,3.767-.087,3.944-.7-.512-2.893.445-3.33S216.862,75.182,216.338,74.042Z" transform="translate(0.228 -28.528)"/><path class="p" d="M216.7,69.864c-1.627-.65-4.718.79-4.549,3.068s3.06,3.769,3.586,4.732.349,1.093-.7,1.6-1.7,4.317-1.859,5.15-.156,1.314,1.245.831,4.907-.92,6.308-1.357a3.084,3.084,0,0,0,2.28-3.155c-.175-1.4-1.753-1.491-2.367-2.716s-1.839-2.28-2.365-3.856S218.889,70.741,216.7,69.864Z" transform="translate(3.635 -31.623)"/><path class="p" d="M252.491,65.163c-2.566.6-7.887,5.776-12.005,8.931s-9.2,4.557-8.939,6.835.965,6.048,3.066,5.7,4.382-1.577,5.609-.7,2.981,2.891,2.367,3.594-2.716,1.577-1.315,2.278,3.592-1.489,4.732-1.489a2.583,2.583,0,0,0,2.454-2.542c.087-1.577-.788-1.928,0-2.1a3.669,3.669,0,0,0,2.454-2.367c.175-1.14-2.017-2.015-2.017-3.592,0,0,2.192-2.015,3.594-3.068s2.367-3.33,3.679-3.155,2.454.526.616,2.015-3.769,2.629-3.068,5.433,4.376,2.4,4.029,4.313-3.066,1.648-3.328,3.05.614,2.993-1.753,3.643-3.33.555-5.52,1.172-2.893-.61-4.208-.435-2.19,1.394-3.066.61.876-5.077-.788-5.429-3.507.92-3.33,3.482-2.28,3.178-3.332,3.879-5.959,4.031-6.4,5.083a2.641,2.641,0,0,1-2.718,1.4,1.864,1.864,0,0,0-2.452.526c-.7,1.052-5.508.614-4.813,1.314s.87,1.489,2.007,1.753,4.559,2.978,4.12,4.907,0,2.981-1.491,3.068-5.937-.351-7.481-.439-3.917-.175-3.87,1.315.477,3.5,0,4.909-1.268,2.627-.829,3.592.351,3.417,2.454,3.155,2.542,1.138,4.118,1.138a14.022,14.022,0,0,0,3.33,0c1.4-.262,3.769-1.312,3.943-2.365s1.05-1.4,1.05-1.928-.349-.965-.087-1.753.614-2.452,1.666-2.542,3.594-.349,3.769-1.664-.352-2.19,1.577-3.068,3.155,1.314,3.856.614.7-1.14,1.489-1.14,1.666-1.926,2.8-.876.264,2.367,3.245,4.208,6.571,3.854,6.046,5.695-2.015,1.4-3.243,1.314-1.928.175-1.841.614,1.577.788,2.629,1.4,1.666.351,2.28-.876,1.751-.876,2.278-2.19-.087-3.33.349-3.068,1.753,1.489,2.192.7-2.367-3.33-4.033-4.031-3.153-.878-3.5-1.928-2.629-3.417-1.489-3.944,3.155.439,3.856,1.664,2.015,1.317,3.5,2.454,2.28,3.33,2.716,4.734,2.28,3.241,2.893,4.819.963,2.629,2.542,2.8,2.19-1.489,2.19-2.8-.614-3.155,0-4.208a1.608,1.608,0,0,1,2.8,0c.614,1.14-.437,3.769.79,5.171a9.6,9.6,0,0,0,2.714,1.4c1.317.351,2.1,1.2,3.2.906a5.425,5.425,0,0,1,3.2.061c.963.347.965-.349,2.192,0s4.118-1.491,4.206.524-2.015,5.959-2.015,8.149,1.928,7.974,4.909,12.357a164.967,164.967,0,0,1,8.938,14.547c1.753,3.5,2.542,10.341,5.433,9.376s11.306-6.485,13.584-7.1,7.887-5.26,9.289-9.378-.614-5.171-1.664-5.171-1.579.614-2.1-.175-1.489-2.8-3.33-2.278-2.8,2.19-4.206,1.751l-1.4-.437s.439-2.454-.876-3.419-6.66-4.38-5.522-6.221,2.981,0,5,2.978,4.732,3.419,6.485,3.068,2.8-1.4,3.243-.614-.79,1.841,5.52,2.716,9.553-1.314,10.516.526,3.155,4.118,4.382,5.7a10.749,10.749,0,0,0,2.8,2.891c.614.264,2.454-1.489,3.417.351s4.338,12.532,5.609,16.65,2.629,7.1,5.083,5.74,3.241-8.281,3.5-12.487,6.4-7.8,7.273-8.326a7.454,7.454,0,0,0,2.716-2.978c.351-1.052,3.856-2.806,7.8.437a11.862,11.862,0,0,1,4.382,8.413,1.756,1.756,0,0,0,2.278,1.666c1.227-.264,2.718-1.753,4.12.349s1.315,8.326,1.751,10.254-1.14,3.417,0,4.293,2.015,2.367,3.33,4.47,4.645,8.763,6.573,7.887.177-3.679,0-5.52a7.745,7.745,0,0,0-3.068-5.345,14.635,14.635,0,0,1-3.592-4.208,1.821,1.821,0,0,0-1.315-.876s-.175-5.784,2.716-5.522,4.821,6.443,5.784,7.164.526,1.863,1.753.723,3.767-3.5,4.819-4.555a5.677,5.677,0,0,0,1.315-4.557c-.262-1.491-2.28-6.662-5.171-8.5s-.876-4.47-.087-5.959,2.716-.526,3.681.175,3.767-.264,5.258-1.14,6.57-2.8,8.85-7.011,3.243-9.728,2.1-11.217-6.747-7.8-6.485-8.763a3.489,3.489,0,0,1,2.1-1.928c.7-.262,1.4-.876.878-1.579s-2.8-.876-3.243-.876a13.307,13.307,0,0,0-1.841.089c-.524.087-3.243-4.295-1.05-4.734s1.4,2.015,2.629,2.454,3.417-2.367,4.907-.878.876,1.753,1.666,2.631,4.38,4.47,4.38,6.747,4.909-.351,4.382-1.666a25.116,25.116,0,0,0-6.134-8.324c2.452-.264,2.015-1.4,2.1-2.28s.7-3.068,1.928-3.155,3.592-.876,3.944-3.33,1.227-8.763,2.365-8.324,2.98,5.169,4.557,5.345,2.1-.264,1.579-1.489-1.491-4.734-2.98-5.7-1.751-.7-2.542-2.28-3.33-3.33-3.769-3.854-1.489-2.28-2.365-2.192-5.083-.262-5.872,0-5.345-.7-4.47-2.891,1.14-5.784,4.557-5.872,5.171-.351,7.186-.264,1.928.878,3.679.965,3.332-.087,3.594-.965-3.155-3.679.087-3.856,1.621.878,3.09,1.491,3.133-.177,3.22.876-2.367,3.068,0,7.273,7.887,9.2,9.9,9.289,1.928-5.433,1.14-7.8-5.258-6.136-4.12-7.186a4.129,4.129,0,0,1,3.507-1.227c.876.262,2.8-.614,4.206-2.367s1.841-1.577,2.806-1.489,2.978-.7,0-2.015-2.806-2.893-.965-2.981,5.607,1.577,7.536,1.577,2.718-1.928,0-3.328-6.66-.526-7.974-1.666-11.217-4.118-15.861-4.47a59.323,59.323,0,0,0-11.743.175,22.754,22.754,0,0,1-9.9-1.306c-3.066-1.323-9.464-.27-11.3-.622s-5.784-2.19-9.464-2.365-7.011-.614-8.588,0-2.981,1.841-4.909,1.489-4.118-2.278-6.749-2.716a95.538,95.538,0,0,0-12.968-.788c-2.28.175-6.4.544-7.712-.035s-2.716-2.946-4.907-3.647S345.207,55.6,343.63,54.9s-3.417.175-5.959,1.05-6.223.351-8.765,1.579-4.994,2.716-6.483,2.8a3.525,3.525,0,0,0-2.806,1.227c-.439.614-3.769.788-4.994.788s-3.681-1.664-5.171-1.227-.7,2.1-1.577,2.718-1.4,1.926-3.068,2.278-1.666-.963-5.959,1.4-5.083-.349-6.4,0-6.485,1.928-7.186,1.841-1.841-1.314-2.891-1.227-1.227,1.841-2.806,1.753-4.118-1.753-6.089-2.28-6.091-2.278-9.947-2.716S257.749,63.944,252.491,65.163Z" transform="translate(-0.258 -47.159)"/><path class="p" d="M306.01,158.246s6.048-4.9,7.011-8.405,4.732-11.217,2.542-12.531-9.64,4.734-11.568,2.28-1.4-3.155-2.278-4.033a38.325,38.325,0,0,0-3.944-3.417c-1.841-1.4-1.4-3.592-2.542-5.345s-2.629-2.365-2.891-4.819-1.491-4.206-2.718-6.046-4.031-6.485-4.031-7.712a10.457,10.457,0,0,0-3.068-7.536c-2.8-2.542-5.169.876-5.169.876l-4.12-1.816s-3.944.15-4.819-1.077-4.118-1.489-5.258,0,.175,2.806-1.227,3.332-1.751-.79-3.681-1.227a8.679,8.679,0,0,1-2.452-.788,2.512,2.512,0,0,0-1.666-2.336c-1.751-.731-4.206.5-5.345-.906s0-2.981,0-4.3.916-3.33-.506-3.417-3.35,1.05-5.453.963a15.724,15.724,0,0,0-3.681.264,11.187,11.187,0,0,0-3.33,0c-2.015.262-3.066-.351-4.206.614a11.488,11.488,0,0,1-3.856,1.664c-1.227.439-3.417,1.052-3.943.7a3.4,3.4,0,0,0-2.278-.524c-.7.175-1.841,2.1-2.192,2.891s-1.833,1.227-3.019,2.015a5.391,5.391,0,0,0-1.975,3.944c-.087,1.4-2.629,4.206-4.557,4.907s-2.015,2.28-2.192,3.332-1.664.612-1.841,2.452-3.241,4.819-3.417,6.924.614,4.819.79,6.308a11.392,11.392,0,0,1-.815,4.47c-.238.439-2.515,2.98-1.29,5.607s5.435,4.646,5.784,6.575,2.98,5.083,5,7.009,2.629,3.155,5.083,3.332,4.468-1.579,5.872-1.491a8.749,8.749,0,0,0,4.118.439c2.1-.351,7.625-3.769,9.99-2.629s2.015,3.068,3.243,3.592,4.819-.963,5.784,1.052.614,6.837-.439,7.887.264,3.417,2.716,6.573,3.068,4.557,3.417,6.134,1.753,7.186,1.491,8.852-2.718,4.644-3.243,7.974.963,5.171,1.489,7.45,2.629,4.555,2.716,6.483.352,8.413,1.928,9.9,1.717,1.4,2.479,3.328a15.523,15.523,0,0,1,.939,5.039c0,.833.439,3.726,2.893,3.814s5.258-.788,8.149-.878,6.134-2.978,8.106-5.169,4.425-3.944,4.951-5.61,1.4-3.5,1.841-4.732,3.767-1.928,4.031-5.258-1.05-5.258,0-7.186,2.629-3.33,3.417-3.5,5.083-2.629,5.61-5.522-.087-3.33-.087-4.293a24.367,24.367,0,0,0,.087-3.769c-.175-1.664-1.841-2.19-1.753-4.031s-.788-5-.439-6.485S301.365,161.918,306.01,158.246Z" transform="translate(-8.208 -11.698)"/><path class="p" d="M261.763,135.606c-1.083-.047-3.33,5.433-4.909,6.485s-5.258.788-4.907,4.644.087,4.819-.614,6.223-1.841,3.066-.613,5.959,5.784,4.031,6.573,1.577,3.5-9.114,3.856-11.042a18.209,18.209,0,0,1,1.4-4.732,3.791,3.791,0,0,0,1.052-3.243C263.427,139.375,263.778,135.694,261.763,135.606Z" transform="translate(42.875 36.365)"/><path class="p" d="M151.637,102.233c-2.586.219-5.872,2.542-5.083,3.5s3.769-1.05,5.083-.614,3.33,0,4.208.878,1.839,2.714,2.452,3.241,1.577-.262,2.28,0,2.978.788,3.241-.437-3.241-1.227-4.031-2.28S155.755,101.882,151.637,102.233Z" transform="translate(-64.157 1.909)"/><path class="p" d="M156.635,105.791c-.439.439.526,1.666.439,2.015s-2.981.177-2.629.788,2.19,1.315,5.081,1.14,4.295-.349,4.821-1.14-1.579-1.225-2.454-2.015-1.436-1.138-2.471-.788S157.511,104.916,156.635,105.791Z" transform="translate(-55.923 5.273)"/><path class="p" d="M324.643,81.856c-.605.469-.262,1.906,0,2.826s-.524,1.512.4,2.694,2.1,2.17,2.562,3.748,1.776,3.285.92,4.47-2.562.985-2.891,1.774-.2,2.038-1.774,2.564-4.275.065-5.193,2.233-1.512,3.352-.394,4.667,1.839,3.023,3.22,2.1.329-2.694,2.168-3.22,2.564-.065,3.878-.788.658-1.447,1.776-2.1,3.417-.132,4.009-1.841.262-5.388-.79-6.9-3.153-4.994-2.365-5.323,3.805-1.512,3.448-2.826a3.108,3.108,0,0,0-1.674-2.17c-.459-.13-1.906.461-2.956-.262S326.09,80.738,324.643,81.856Z" transform="translate(112.497 -19.428)"/><path class="p" d="M314.861,106.861c-1.635.311-2.156,4.393-1.382,6.243,1.512,3.614,4.009,3.155,4.931,3.614s3.679,2.235,3.811,1.25,1.182-1.774,0-2.3-2.7-.067-3.811-1.052-1.644-2.1-.922-2.891,1.067-3.22.4-4.141S316.241,106.6,314.861,106.861Z" transform="translate(107.821 6.57)"/><path class="p" d="M318.776,117.548c-.518-.423-2.716,3.769-4.031,4.382s-1.489,1.753-2.454,2.54a18.287,18.287,0,0,1-4.557,2.192c-1.489.526-2.891,1.666-2.365,2.891a7.756,7.756,0,0,1,.7,2.806,15.657,15.657,0,0,0,1.841,4.732c.524.7,2.19.439,2.8.876s1.577.262,2.978.7,3.33,1.052,4.47,0,.175-3.592.614-4.47,1.052-.612,1.666-1.4.788-2.19,2.1-3.33-.439-1.753-.7-2.542-1.625-1.577-.593-3.066,1.91-2.015,1.778-3.243S321.25,119.564,318.776,117.548Z" transform="translate(99.699 17.704)"/><path class="p" d="M317.853,123.255a7.254,7.254,0,0,0-1.579,1.258,6.353,6.353,0,0,0-1.314,2.806c-.087.788-.5,1.928-.465,2.542s-1.111,1.577-.937,2.365.469.79.937,2.192-.585,2.716.378,2.8,2.367-2.1,3.856-1.491,1.14,1.14,2.19.79-1.4-5.7-.788-6.837,1.989-1.225,2.223-2.015-.12-1.315,1.02-2.19,1.666-2.19,1.314-2.8-.278.455-2.334,1.042a9.33,9.33,0,0,1-2.223,0C319.342,123.724,318.967,122.426,317.853,123.255Z" transform="translate(108.246 22.832)"/><path class="p" d="M328.293,124.665a4.313,4.313,0,0,0-2.981.614c-.612.526-2.016,0-2.016.614s2.454,1.052,2.5,2.1-.352,1.577,0,1.973.963,2.322,1.8,2.41,1.14-.965,1.971-.614,3.113.876,4.338,1.8,2.192,3.155,1.753,4.12-1.447,2.41-.349,2.584,2.8-.746,3.724-.175,2.147,2.41,4.25,1.621,1.841-3.155,3.5-2.761,3.549,3.681,4.909,4.338,1.664,0,2.365.307,1.973,1.359,2.674.744-1.4-2.759-2.015-3.5-1.534.045-1.8-1.227.089-3.767-.963-4.425-1.8-.569-2.148-1.357-2.5-3.419-6.879-4.951-6.441-2.674-7.623-2.28-1.8,1.753-2.806,1.841c0,0-.524.656-1.05.394s-1.534-.965-1.447-2.015-.087-.833-.526-1.1S328.779,124.714,328.293,124.665Z" transform="translate(118.312 25.046)"/><path class="p" d="M294.19,119.191c-.579.786.721,2.562,2.1,3.746a7.5,7.5,0,0,1,2.1,2.826c.2.459.591-.132.985.721a20.849,20.849,0,0,0,2.1,4.045c1.249,1.806,1.906,3.645,2.631,4.368s2.1,3.023,2.891,3.549a9.468,9.468,0,0,1,1.971,2.03c.92,1.061,1.709,2.373,2.761,2.834a15.258,15.258,0,0,0,3.878,1.447c1.249.132,2.17-.2,3.023.329a9.826,9.826,0,0,0,4.271,1.115c1.711.067,2.641-.2,2.8,0s.947-.045,1.733.012.922-.6.855-1.128-.526-.79-1.642-.987-1.052-1.774-2.1-1.709c0,0-1.446.459-1.971.1a4.608,4.608,0,0,0-2.826-.494,5.148,5.148,0,0,1-1.808.461c-.3-.1-.981-.2-1.132-.3a2.02,2.02,0,0,0-1.168-.591c-.79-.132-.855.262-1.644-.264a4.66,4.66,0,0,1-1.741-3.155,7.884,7.884,0,0,1,.362-2.233,4.535,4.535,0,0,0-.559-1.711c-.264-.427-.888-.061-1.085-.67s-.92-3.239-2.168-4.258-5.061-4.009-5.061-4.009-2.467-2.5-3.517-3.549a17.57,17.57,0,0,0-2.267-2.235c-.79-.526-1.973-.1-2.432-.295S294.551,118.7,294.19,119.191Z" transform="translate(88.137 19.151)"/><path class="p" d="M337.659,141.514c-1.522.414-2.152-2.629-4.888-1.709s-6.286,4.732-6.81,5.52-1.593,3.419-3.49,4.864-6.16,2.1-8.893,3.681-4.049.92-4.181,2.365a18.737,18.737,0,0,1-1.577,5.128c-.788,1.841.132,1.445,0,4.6s.526,7.231.526,8.545-2.893,3.153-2.5,4.732,3.287,2.761,5.126,1.841,6.178-2.5,8.019-2.367,4.208-3.155,6.046-3.155,7.757-1.577,9.072-.92,3.155,1.973,3.549,3.155.262,2.091,1.709,3.608,2.759.467,3.285,2.044-.788,2.5,3.155,4.076,9.728.132,14.33-3.811a51.836,51.836,0,0,0,8.543-9.334c2.5-3.155,6.046-9.069,4.732-12.355s-6.573-10.256-7.887-12.357-1.05-7.359-2.629-10.055-1.577-5.957-2.891-5.051-3.023,8.007-3.155,9.321c0,0,.394,2.759-1.447,2.891s-6.573-3.155-6.178-4.732,2.235-3.287,1.579-4.864-2.761-.79-4.206-1.052-1.843-2.6-3.946-1.564S339.106,141.12,337.659,141.514Z" transform="translate(100.271 35.014)"/><path class="p" d="M363.7,156.576a2.282,2.282,0,0,0-.656,1.906c0,1.447.327,2.761,0,3.813s-.853,2.568-2.1,2.928-1.579.819-1.644,1.278-.658.79-1.709,1.182-.855-.262-2.17.593-.591,1.577-1.841,1.774-1.38.065-2.038,1.117-.721,1.382-2.562,1.971a21.622,21.622,0,0,0-3.352,1.249,20.93,20.93,0,0,0-3.417,1.579c-1.052.723-1.865,1.774-2.674,2.235s-.835,1.05,0,1.38a7.148,7.148,0,0,0,3.527,0c.855-.262,6.31-4.076,6.837-4.009a11.412,11.412,0,0,0,4.009-1.447c.591-.526,3.22-3.614,3.878-3.549a11.217,11.217,0,0,0,5.52-2.387c1.776-1.558,1.644-1.95,2.17-2.148s3.549-2.1,3.484-3.09-2.038,0-2.828-.853-.394-2.761-.591-3.746S364.952,156.249,363.7,156.576Z" transform="translate(134.431 57.94)"/></g></g></g><g transform="translate(291.986 332.196)"><g transform="translate(0 41.578)"><circle class="f" cx="12.789" cy="12.789" r="12.789" transform="translate(67.295 18.086) rotate(-45)"/><circle class="f" cx="12.789" cy="12.789" r="12.789" transform="translate(0 18.086) rotate(-45)"/><rect class="q" width="3.125" height="25.577" transform="translate(82.247 5.297)"/><rect class="q" width="3.125" height="25.577" transform="translate(18.097 5.297)"/></g><path class="r" d="M3.277,0H14.734a3.277,3.277,0,0,1,3.277,3.277v26.6a0,0,0,0,1,0,0H0a0,0,0,0,1,0,0V3.277A3.277,3.277,0,0,1,3.277,0Z" transform="translate(42.728)"/><rect class="f" width="24.082" height="8.398" transform="translate(39.692 22.7)"/><path class="f" d="M7.094,0H53.927a7.094,7.094,0,0,1,7.094,7.094v49.53a0,0,0,0,1,0,0H0a0,0,0,0,1,0,0V7.094A7.094,7.094,0,0,1,7.094,0Z" transform="translate(21.223 29.933)"/><path class="f" d="M256.041,235.653H187.31a7.329,7.329,0,0,1-7.328-7.328h0A7.329,7.329,0,0,1,187.31,221h68.73a7.329,7.329,0,0,1,7.328,7.328h0A7.329,7.329,0,0,1,256.041,235.653Z" transform="translate(-169.942 -136.046)"/><path class="s" d="M207.446,187.988a4.6,4.6,0,1,1-4.6-4.6A4.6,4.6,0,0,1,207.446,187.988Z" transform="translate(-151.108 -174.85)"/><circle class="t" cx="17.326" cy="17.326" r="17.326" transform="translate(34.407 42.324)"/><circle class="d" cx="12.773" cy="12.773" r="12.773" transform="translate(33.669 59.651) rotate(-45)"/><path class="u" d="M206.031,210.406a3.666,3.666,0,1,1-3.665-3.667A3.666,3.666,0,0,1,206.031,210.406Z" transform="translate(-150.632 -150.755)"/><rect class="v" width="61.123" height="4.372" transform="translate(21.172 80.579)"/><rect class="q" width="24.082" height="2.376" transform="translate(39.692 27.557)"/><rect class="w" width="18.011" height="2.496" transform="translate(42.728 20.204)"/><g transform="translate(14.006 97.028)"><g transform="translate(0 1.314)"><circle class="w" cx="6.223" cy="6.223" r="6.223" transform="translate(0 12.112) rotate(-76.717)"/><circle class="t" cx="3.086" cy="3.086" r="3.086" transform="translate(4.4 4.4)"/></g><g transform="translate(28.927 0)"><circle class="w" cx="6.223" cy="6.223" r="6.223" transform="translate(0 8.8) rotate(-45)"/><path class="t" d="M205.155,232.838a3.085,3.085,0,1,1-3.084-3.084A3.086,3.086,0,0,1,205.155,232.838Z" transform="translate(-193.27 -224.039)"/></g><g transform="translate(59.838 0.67)"><ellipse class="w" cx="6.223" cy="6.223" rx="6.223" ry="6.223" transform="translate(0 4.763) rotate(-22.5)"/><circle class="t" cx="3.086" cy="3.086" r="3.086" transform="translate(5.044 5.044)"/></g></g></g><g transform="translate(658.226 179.458)"><g transform="translate(0.948)"><g transform="translate(18.021 72.656)"><rect class="x" width="8.133" height="32.884" transform="translate(73.548 122.708)"/><path class="y" d="M389.18,201.687a8.311,8.311,0,0,0,8.31,8.31h39.248a8.311,8.311,0,0,0,8.31-8.31h0a8.309,8.309,0,0,0-8.31-8.31H397.49a8.309,8.309,0,0,0-8.31,8.31Z" transform="translate(-339.322 -84.459)"/><rect class="y" width="13.015" height="31.116" transform="translate(70.93 149.581)"/><path class="x" d="M405.894,221.9l40.479,8.963v4.915l-40.479-5.2Z" transform="translate(-322.079 -55.028)"/><rect class="x" width="5.279" height="13.878" transform="translate(74.911 166.875)"/><path class="y" d="M422.544,235.079a5.349,5.349,0,1,0,5.349-5.349A5.348,5.348,0,0,0,422.544,235.079Z" transform="translate(-304.901 -46.953)"/><path class="x" d="M420.171,221.9l-40.479,8.963v4.915l40.479-5.2Z" transform="translate(-349.111 -55.028)"/><path class="y" d="M388.4,235.079a5.348,5.348,0,1,1-5.349-5.349A5.348,5.348,0,0,1,388.4,235.079Z" transform="translate(-351.166 -46.953)"/><path class="y" d="M400.177,235.079a5.349,5.349,0,1,0,5.349-5.349A5.348,5.348,0,0,0,400.177,235.079Z" transform="translate(-327.977 -46.953)"/><path class="f" d="M369.945,257.341h82.387c6.132,0-12.438-16.806-12.377-22.932.343-34.825,14.183-87.274,14.322-87.8a5.3,5.3,0,0,0-10.256-2.708c-.035.136-3.618,13.4-7.188,31.229-4.815,24.053-7.334,43.962-7.485,59.177a12.5,12.5,0,0,1-12.375,12.43H369.945a5.3,5.3,0,1,0,0,10.607Z" transform="translate(-364.64 -139.583)"/><path class="f" d="M483.369,139.955l-66.339-.187L395.5,248.685l69.3-2.24Z" transform="translate(-332.799 -139.767)"/><path class="f" d="M401.794,257.521h47.028a22.747,22.747,0,0,0,16.223-6.739,23.135,23.135,0,0,0,6.759-16.193c.343-34.825,14.183-87.627,14.321-88.157a5.3,5.3,0,0,0-10.256-2.708c-.034.136-3.618,13.755-7.188,31.583-4.817,24.053-7.334,43.962-7.485,59.177a12.505,12.505,0,0,1-12.375,12.43H401.794a5.3,5.3,0,1,0,0,10.607Z" transform="translate(-331.781 -139.762)"/><rect class="y" width="10.2" height="2.652" transform="translate(72.554 124.476)"/></g><g transform="translate(0 64.134)"><path class="z" d="M427.743,180.526v3.279c0,4.108-2.976,6.268-6.816,6.975H379.994c-8.167,0-14.13,6.759-14.13,14.929v54.728h14.852V205.709c0-.545-.134-.786.41-.786h82.251a12.244,12.244,0,0,0,12.1-12.056V180.526Z" transform="translate(-345.356 -89.195)"/><path class="aa" d="M444.126,180.526v3.279c0,4.108-2.548,6.418-6.394,7.125l-33.586-.061c-10.215-.408-15.644,3.458-17.33,11.451L382.2,252.483l14.256,3.283,5.914-50.161c.114-.534.138-.62.67-.508l43.535-.022a12.328,12.328,0,0,0,12.044-12.208V180.526Z" transform="translate(-328.5 -89.195)"/><g transform="translate(51.524 158.031)"><path class="ab" d="M392.788,232.629l-11.27-3.023,2.774-14.039,11.27,3.023Z" transform="translate(-380.73 -211.074)"/><path class="ac" d="M398.555,224.412,381.13,219.83l1.792-6.474,17.423,4.581Z" transform="translate(-381.13 -213.355)"/></g><g transform="translate(0 165.231)"><rect class="ab" width="12.022" height="13.437" transform="translate(21.57 4.95)"/><g transform="translate(0 12.772)"><rect class="d" width="38.542" height="4.243" transform="translate(0 18.344)"/><path class="y" d="M375.571,228.3v-5.114a5.008,5.008,0,0,1,4.663,5.262h8.826l4.927,13.082H355.77v-2.95C360.368,234.661,375.571,228.3,375.571,228.3Z" transform="translate(-355.77 -223.186)"/></g><g transform="translate(27.082 5.301)"><rect class="d" width="4.243" height="38.542" transform="translate(0 16.835) rotate(-74.987)"/><path class="y" d="M392.232,224.45l1.327-4.941a5.246,5.246,0,0,1,3.208,6.467l8.525,2.286,1.369,13.913-37.02-9.929.8-3C375.9,226.654,392.232,224.45,392.232,224.45Z" transform="translate(-368.541 -219.509)"/></g><rect class="ac" width="17.326" height="6.718" transform="translate(19.094)"/></g><g transform="translate(69.275 8.521)"><path class="y" d="M450.714,176.051l15.238-1.589c-.073-.89-.847-5.433-1.02-6.337-2.584-13.588-16.321-28.359-37.408-28.359-22.491,0-36.5,16.8-37.657,31.055l13.113,5.23v50.061h47.735Z" transform="translate(-389.867 -139.767)"/></g><path class="ad" d="M422.093,145.049a32.479,32.479,0,0,0-3.568-.648l-.815-8.5-9.076-.329-.343,8.722a27.452,27.452,0,0,0-4.356.758,10.839,10.839,0,0,0,.016,1.308c.223,5.581,4.462,9.9,9.468,9.653s8.885-4.974,8.661-10.553C422.077,145.37,422.1,145.14,422.093,145.049Z" transform="translate(-306.093 -135.573)"/></g><g transform="translate(71.94)"><g transform="translate(1.852)"><path class="ae" d="M392.1,128.764a6.971,6.971,0,1,0,6.648-7.294A6.979,6.979,0,0,0,392.1,128.764Z" transform="translate(-392.09 -85.997)"/><path class="ad" d="M394.806,144.706a25.978,25.978,0,0,0,27.125,24.777h0a25.979,25.979,0,0,0,24.779-27.125l-.439-9.679c-.262-5.778.018-13.948-3.371-18.115-5.016-6.17-15.2-7.048-23.755-6.662h0a25.978,25.978,0,0,0-24.777,27.125Z" transform="translate(-389.768 -100.068)"/><path class="ad" d="M416.974,128.456a6.971,6.971,0,1,0,6.648-7.3A6.978,6.978,0,0,0,416.974,128.456Z" transform="translate(-366.426 -86.315)"/><path class="af" d="M421.894,135.677a27.563,27.563,0,0,0,2.444-1.879s3.316-7.985,1.755-13.639a27.742,27.742,0,0,0-4.352-8.757l-6.505,5.87C417.914,121.022,420.543,126.558,421.894,135.677Z" transform="translate(-368.211 -96.376)"/><path class="af" d="M402.128,114.251l-5.12-1.93s-4.909,7.02-2.489,19.139l.605.207S395.389,119.532,402.128,114.251Z" transform="translate(-390.276 -95.428)"/><path class="ag" d="M445.009,118.788l-6.546,5.833s-25.569,2.635-37.308-2.052c-5.672-2.263-7.192-3.519-8.641-16.382C400.381,117.964,445.08,87.171,445.009,118.788Z" transform="translate(-391.653 -104.006)"/></g><g transform="translate(18.014 44.88)"><path class="ah" d="M406.165,127.82a.608.608,0,1,0,.551-.648A.6.6,0,0,0,406.165,127.82Z" transform="translate(-393.733 -124.988)"/><path class="ah" d="M404.737,126.767a.446.446,0,1,0,.4-.475A.445.445,0,0,0,404.737,126.767Z" transform="translate(-395.206 -125.896)"/><path class="ah" d="M403.52,128.063a.608.608,0,1,0,.551-.648A.6.6,0,0,0,403.52,128.063Z" transform="translate(-396.462 -124.737)"/><path class="ah" d="M402.872,126.661a.53.53,0,1,0,.479-.563A.522.522,0,0,0,402.872,126.661Z" transform="translate(-397.13 -126.096)"/><path class="ah" d="M401.515,127.678a.626.626,0,1,0,.569-.666A.618.618,0,0,0,401.515,127.678Z" transform="translate(-398.531 -125.154)"/><path class="ah" d="M400.047,128.265a.5.5,0,1,0,.449-.526A.492.492,0,0,0,400.047,128.265Z" transform="translate(-400.045 -124.403)"/><path class="ah" d="M407.755,128.75a.538.538,0,1,0,.488-.573A.53.53,0,0,0,407.755,128.75Z" transform="translate(-392.093 -123.951)"/><path class="ah" d="M407.624,127.327a.538.538,0,1,0,.488-.571A.533.533,0,0,0,407.624,127.327Z" transform="translate(-392.228 -125.417)"/><path class="ah" d="M409.432,128.6a.538.538,0,1,0,.488-.573A.531.531,0,0,0,409.432,128.6Z" transform="translate(-390.363 -124.11)"/></g><g transform="translate(0 33.423)"><path class="ai" d="M391.181,125.713l0,.087.018.085c.049.217,1.2,6.4,1.861,8.111.532,1.39,2.113,4.023,4.281,4.037l11.516.079c4.006.028,5.376-9.779,5.63-11.818a2.051,2.051,0,0,1,1.879-1.274,2.276,2.276,0,0,1,2.015,1.41c.435,2.259,2.446,11.764,6.386,11.792l11.518.079c2.166.014,3.576-2.6,4.017-3.982a70.94,70.94,0,0,0,1.313-8.088l0-.085,0-.089a4.307,4.307,0,0,0-4-4.35l-15.443-.106-.122,0-11.552-.079-15.565-.106A3.938,3.938,0,0,0,391.181,125.713Zm29.133-.183a2.4,2.4,0,0,1,1.914-.977l14.988.156c1.264.008,1.709,1.132,1.794,2.525a60.1,60.1,0,0,1-.957,6.621c-.386,1.2-.817,2.905-2.4,2.765l-10.941-.13c-2.3-.014-4.165-6.349-4.75-9.5A1.859,1.859,0,0,1,420.314,125.53Zm-26.784,1.392c-.006-1.392.632-2.56,1.9-2.552l14.986.156a2.619,2.619,0,0,1,1.981,1,1.974,1.974,0,0,1,.445,1.463c-.378,3.147-1.731,9.407-4.033,9.39l-10.941-.128c-1.774-.079-2.3-1.936-2.763-3.147C394.542,131.648,393.684,127.625,393.53,126.922Z" transform="translate(-391.179 -119.47)"/><path class="ad" d="M415.964,126.95l9.656-6.493-.22,1.423L415.242,132.4Z" transform="translate(-366.353 -120.457)"/></g><path class="d" d="M419.906,130.756l-21.485-.264s2.964,6.8,9.1,7.507C414.835,138.844,419.581,132.442,419.906,130.756Z" transform="translate(-383.707 -76.681)"/><g transform="translate(9.802 42.543)"><path class="ai" d="M408.106,127.36a2.941,2.941,0,1,0,5.628-1.68c-.006-.026-.018-.051-.026-.075-1.467-.085-3.913-.351-5.437-.524A3.193,3.193,0,0,0,408.106,127.36Z" transform="translate(-383.657 -124.808)"/><path class="ai" d="M396.141,127.148a2.939,2.939,0,1,0,5.636-1.646c-1.713-.124-4.244-.41-5.508-.557A3.185,3.185,0,0,0,396.141,127.148Z" transform="translate(-396.003 -124.946)"/></g></g><path class="ad" d="M394.753,202.107c.094,0,.189,0,.287,0a10.766,10.766,0,0,0,7.8-3.726,28.438,28.438,0,0,0,4.7-6.981,101.737,101.737,0,0,0,6.6-18.206c.4-1.457.79-2.909,1.154-4.342l-9.752-3.97c-.293,1.184-.6,2.385-.924,3.59-4.7,17.6-8.456,21.733-9.521,22.6a11.709,11.709,0,0,1-2.432-3.564,43.841,43.841,0,0,1-3.306-10.124c-1.77-8.423-1.717-13.62.126-19.34a7.57,7.57,0,0,1,3.076-.445,32.279,32.279,0,0,1,5.073.542c.461.077.827.138,1.15.177l1.189-10.807c-.094-.01-.4-.063-.656-.106a35.964,35.964,0,0,0-8.667-.61,15.053,15.053,0,0,0-5.88,1.571,10.232,10.232,0,0,0-5.029,5.884c-2.168,6.467-2.664,11.5-1.4,20.6,1.191,8.545,3.755,16.221,7.032,21.063C387.252,198.677,390.386,201.965,394.753,202.107Z" transform="translate(-333.188 -59.931)"/></g><path class="ad" d="M374.859,194.619v-10.61c.435,0,43.651,0,61.843-.352,3.318-.065,10.54-2.41,21.623-17.4l6.286-7.83,12.245-1.357a156,156,0,0,1-9.915,15.376c-10.544,14.3-20.65,21.631-30.039,21.812C418.614,194.613,375.294,194.619,374.859,194.619Z" transform="translate(-335.128 -49.255)"/><g transform="translate(0 94.541)"><rect class="aj" width="40.621" height="1.887" transform="translate(73.229 48.523)"/><path class="aj" d="M367.384,201.33h69.589l-12.08-50.791H355.3Z" transform="translate(-355.303 -150.539)"/><path class="d" d="M377.394,158.685l-1.553,5.84-5.548,1.039,4.906,4.429.12,6.384,4.586-3.105,5.623,2.909-2.071-6.347,3.354-4.588-5.867-.819Z" transform="translate(-339.839 -142.135)"/></g></g><rect class="d" width="540.347" height="7.78" transform="translate(231.728 324.409)"/><path class="a" d="M84.728,100.223a5.294,5.294,0,0,0-6.221,8.568l8.265,6L93,106.231Z" transform="translate(15.1 70.507)"/><g transform="translate(524.092 163.657)"><path class="ak" d="M325.336,174.182c-7.59,0-14.97-4.445-21.932-13.21a70.74,70.74,0,0,1-7.822-12.355L304,144.633l-4.21,1.993,4.206-2c2.682,5.63,11.739,20.24,21.339,20.24,3.653,0,5.987-6.739,6.822-9.634a62.017,62.017,0,0,0,2.058-11.973l9.3.516C343.343,146.891,341.364,174.182,325.336,174.182Z" transform="translate(-282.784 -47.705)"/><g transform="translate(41.767 3.398)"><path class="al" d="M317.751,121.058c1.936-10.843,9.488-21.776,27.649-23.06v-.065c0-.006-.093-.012.059-.018.605-.016,1-.016,1.587-.008.585-.008,1.359-.008,1.965.008.154.006.579.012.579.018V98c19.559,1.367,26.394,10.685,27.948,22.905,1.747,13.748,1.668,66.82,1.577,72.739-1.8,9.218-6.087,10.315-11.814,16.02-5.679,5.652-12.889,9.025-20.685,9.025a29.115,29.115,0,0,1-20.244-8.616,43.132,43.132,0,0,1-11.4-20.63C314.86,182.013,315.112,135.861,317.751,121.058Z" transform="translate(-304.569 -97.901)"/><g transform="translate(0 161.959)"><rect class="ak" width="9.313" height="74.039" transform="translate(49.213 37.097)"/><rect class="ak" width="9.313" height="74.039" transform="translate(23.136 37.097)"/><g transform="translate(9.633 98.776)"><path class="am" d="M0,0H24.68V3.26H0Z" transform="translate(0 20.741)"/><path class="an" d="M326.224,229.73v-3.495a3.48,3.48,0,0,1,3.261,3.495l7.914.043v8.785l1.715,8.419H314.582v-1.918c2.794-2.3,9.86-5.987,11.684-6.926Z" transform="translate(-314.581 -226.235)"/><path class="d" d="M322.437,231.354a2.064,2.064,0,1,0,2.064-2.064A2.065,2.065,0,0,0,322.437,231.354Z" transform="translate(-306.477 -223.083)"/></g><g transform="translate(45.805 98.5)"><path class="am" d="M0,0H15.367V3.26H0Z" transform="translate(0.148 21.018)"/><path class="an" d="M335.793,229.563l1.132.028a3.283,3.283,0,0,1,3.151-3.492,3.579,3.579,0,0,1,3.442,3.492l1.589-.014v9.12l2.645,8.419H332.386l3.407-8.419Z" transform="translate(-332.386 -226.099)"/></g><path class="ao" d="M45.281.312C50.014,2.379,59.409,14.83,59.409,14.83S68.82,47.717,75.442,52.778s-94.27,5.072-82.817,0S7.381,14.83,7.381,14.83,40.547-1.755,45.281.312Z" transform="translate(8.282 -0.134)"/></g><path class="b" d="M325.64,170.35l-13.2-5.264c1.164-14.348,15.327-31.268,37.972-31.268s37.156,16.92,38.32,31.268l-12.8,5.264v66.735H325.64Z" transform="translate(-307.161 -60.846)"/><path class="ak" d="M326.605,139.152a33.648,33.648,0,0,1,3.586-.624l.825-8.6,9.139-.331.347,8.834a27.9,27.9,0,0,1,4.384.711,10.618,10.618,0,0,1-.018,1.319c-.223,5.618-4.492,9.968-9.533,9.718s-8.944-5.006-8.72-10.624C326.62,139.459,326.6,139.244,326.605,139.152Z" transform="translate(-292.545 -65.203)"/></g><g transform="translate(56.805 0)"><g transform="translate(0 7.623)"><path class="ak" d="M317.246,135.976a26.536,26.536,0,0,0,26.1,26.971h0a26.537,26.537,0,0,0,26.971-26.1l.162-9.894a26.537,26.537,0,0,0-26.1-26.971h0a26.537,26.537,0,0,0-26.969,26.1Z" transform="translate(-317.242 -99.981)"/><path class="ak" d="M340.3,121.419a7.121,7.121,0,1,0,7.237-7.017A7.128,7.128,0,0,0,340.3,121.419Z" transform="translate(-293.458 -85.105)"/></g><path class="al" d="M338.287,109.144a289.91,289.91,0,0,1,7.139,43.6l4.112-.65s1.94-28.48-.772-42.95Z" transform="translate(-295.53 -82.905)"/><g transform="translate(1.266)"><path class="al" d="M319.128,119.533c-.033-14.606,8.419-23.255,23.024-23.287l7.011-.016c14.606-.035,32.639,19.808,22.769,35.834Z" transform="translate(-319.128 -96.229)"/></g></g><g transform="translate(63.193 40.777)"><path class="c" d="M326.3,120.265a3.008,3.008,0,1,1-2.05-3.862A3.1,3.1,0,0,1,326.3,120.265Z" transform="translate(-320.386 -116.299)"/><path class="c" d="M338.484,120.265a3.008,3.008,0,1,1-2.05-3.862A3.093,3.093,0,0,1,338.484,120.265Z" transform="translate(-307.814 -116.299)"/><path class="d" d="M344.048,121.923l-20.9.933s2.716,7.759,9.986,7.759C341.966,130.615,344.048,121.923,344.048,121.923Z" transform="translate(-317.541 -110.497)"/></g><g transform="translate(0 72.66)"><g transform="translate(14.764 16.312)"><path class="f" d="M296.571,170.86a38.35,38.35,0,0,0,6.991,21.122l4.523,6.384a38.377,38.377,0,0,1-6.989-21.124,42.512,42.512,0,0,1,2.221-14.882l-4.523-6.384A42.516,42.516,0,0,0,296.571,170.86Z" transform="translate(-296.55 -123.56)"/><g transform="translate(2.243 32.415)"><path class="f" d="M302.177,162.359l-4.523-6.384,41.476,10.045,4.524,6.384Z" transform="translate(-297.654 -155.976)"/></g><g transform="translate(35.09)"><path class="ap" d="M359.158,156.514q2.264,3.191,4.525,6.384c-8.045-11.353-22.19-17.968-38.05-16.213a46.88,46.88,0,0,0-7.29,1.406l-4.523-6.382a46.834,46.834,0,0,1,7.29-1.408C336.97,138.546,351.113,145.161,359.158,156.514Z" transform="translate(-313.821 -140.021)"/></g><g transform="translate(4.525 6.384)"><path class="f" d="M298.8,190.461a42.511,42.511,0,0,1,2.221-14.882L342.5,185.624l-8.631-40.774a46.88,46.88,0,0,1,7.29-1.406c24.134-2.672,44.3,14.045,45.039,37.341s-18.222,44.342-42.357,47.016S299.537,213.754,298.8,190.461Z" transform="translate(-298.777 -143.163)"/></g><g transform="translate(35.09 1.687)"><path class="f" d="M326.974,188.008l-4.524-6.384-8.629-40.773,4.523,6.382Z" transform="translate(-313.821 -140.852)"/></g></g><g transform="translate(4.12 6.652)"><path class="f" d="M291.311,163.907a48.41,48.41,0,0,1,34.681-28.641l6.1,41.223Z" transform="translate(-291.311 -135.266)"/></g><path class="aq" d="M293.4,167.285l-4.12-6.652a48.414,48.414,0,0,1,34.681-28.641l4.12,6.652A48.41,48.41,0,0,0,293.4,167.285Z" transform="translate(-289.283 -131.992)"/></g><g transform="translate(2.926 83.249)"><path class="ak" d="M359.826,185.581l.38,0c6.317-.071,10.819-1.776,13.389-5.071,2.938-3.769,1.818-10.811-.766-20.224-1.117-4.069-2.369-7.913-3.212-10.388l-9.061,3.688c3.106,9.143,5.28,18.259,5.012,21.17-.658.412-2.294,1.012-5.469,1.046h-.3c-9.206,0-22.255-4.626-26.89-9.443l-5.508,8.214C335.159,181.217,349.718,185.581,359.826,185.581Z" transform="translate(-252.879 -124.11)"/><path class="ak" d="M298.6,151.46,304.823,143l-7.877-5.794-6.223,8.462C290.833,148.11,296.184,151.83,298.6,151.46Z" transform="translate(-290.723 -137.204)"/></g></g><g transform="translate(383.56 155.275)"><g transform="translate(0 13.29)"><path class="ar" d="M236.151,221.187c-8.631-10.323-13.659-21.4-15.372-33.848-1.447-10.52-.23-20.175.75-27.934.624-4.949,1.164-9.222.874-12.4l9.994-.908c.388,4.265-.213,9.039-.91,14.567-1.92,15.213-4.309,34.151,12.363,54.088Z" transform="translate(-220.113 -49.691)"/><g transform="translate(0.741)"><g transform="translate(13.194 156.56)"><rect class="ar" width="7.916" height="10.244" transform="translate(35.855 104.307)"/><rect class="ar" width="7.916" height="10.244" transform="translate(7.45 104.307)"/><g transform="translate(32.129 109.901)"><rect class="d" width="26.542" height="3.725" transform="translate(0 13.964)"/><path class="b" d="M255.986,233.62V229.8a3.715,3.715,0,0,0-3.582,3.675l-6.014.132-3.31,10.156h25.943v-2.452Z" transform="translate(-242.482 -229.796)"/></g><g transform="translate(3.724 113.62)"><rect class="d" width="14.435" height="3.725" transform="translate(0 10.244)"/><g transform="translate(0.236)"><path class="b" d="M232.6,231.627h8.028l3.011,10.244H228.921Z" transform="translate(-228.921 -231.627)"/></g></g><path class="ao" d="M226.972,175.7v16.081a17.966,17.966,0,0,0,5.364,7.806l.455,80.421h11.4l-.177-79.529,17.515.138.065,79.391h10.545V175.7Z" transform="translate(-226.972 -175.703)"/><rect class="as" width="13.504" height="5.122" transform="translate(33.061 99.185)"/><rect class="as" width="13.504" height="5.122" transform="translate(4.656 99.185)"/></g><g transform="translate(0 57.998)"><path class="b" d="M282.1,169.016l13.354-5.4c-1.195-14.726-15.827-32.089-39.068-32.089s-34.716,18.6-35.908,33.328l10.4,4.163V237.58H282.1Z" transform="translate(-220.478 -122.72)"/><path class="ar" d="M246.309,136.358l-.847-8.828-9.376-.339-.358,9.063C235.527,138.172,246.437,137.725,246.309,136.358Z" transform="translate(-204.747 -127.191)"/></g><g transform="translate(3.152)"><path class="at" d="M262.6,121.291a7.5,7.5,0,1,1-7.168-7.824A7.5,7.5,0,0,1,262.6,121.291Z" transform="translate(-195.633 -83.359)"/><path class="ar" d="M237.014,120.672a7.5,7.5,0,1,1-7.17-7.824A7.508,7.508,0,0,1,237.014,120.672Z" transform="translate(-222.03 -83.998)"/><path class="ar" d="M280.444,132.935c-.662,15.412-13.984,28.832-29.4,28.172h0c-15.414-.66-27.083-15.148-26.422-30.563l.447-5.158a27.934,27.934,0,0,1,29.1-26.715h0a27.937,27.937,0,0,1,26.715,29.106Z" transform="translate(-219.38 -98.644)"/><path class="au" d="M275.148,134.8c-2.629,12.08-11.089,21.213-26.5,20.553h0c-15.413-.66-24.677-9.4-24.017-24.813l.447-5.158a27.934,27.934,0,0,1,29.1-26.715h0c15.415.662,28.143,11.638,26.741,30.362C280.918,129.032,276.467,128.743,275.148,134.8Z" transform="translate(-219.383 -98.644)"/></g></g></g><path class="b" d="M229.239,115.09S242.75,123.7,272.647,117c6.249-1.4,7.255-4.709,10.079-17.1-13.887,6.038-14.638,7.174-14.638,7.174s6.554-7.779,12.568-10.914c-7.186-2.818-19.644-1.3-26.52,3.608.331-1.595,1.991-3.805,10.963-7.662-8.147.169-28.7,2.211-30.725,13.771,0,0-2.885-.951-.565-5.089C229.455,102.623,223.894,107.392,229.239,115.09Z" transform="translate(-212.962 -92.103)"/><g transform="translate(63.421 79.616)"><path class="ar" d="M276.026,187.831c-6.038,0-13.659-3.348-20.341-16.465a79.012,79.012,0,0,1-4.356-10.522l9.923-4.013c2.985,9.183,9.023,21.491,15.955,20.173,4.078-.778,7.615-7.521,9.707-18.5a118.147,118.147,0,0,0,1.879-19.464l10.709-.012a127.511,127.511,0,0,1-2.068,21.479c-3.088,16.209-9.22,25.3-18.222,27.016A16.915,16.915,0,0,1,276.026,187.831Z" transform="translate(-251.329 -123.305)"/><g transform="translate(33.593)"><path class="ar" d="M283.452,143.379a7.194,7.194,0,1,1-6.467-7.855A7.194,7.194,0,0,1,283.452,143.379Z" transform="translate(-266.592 -126.957)"/><path class="ar" d="M273.454,142.938a1.689,1.689,0,0,1-1.843,1.518h0a1.692,1.692,0,0,1-1.52-1.845l.951-9.795a1.687,1.687,0,0,1,1.843-1.518h0a1.687,1.687,0,0,1,1.518,1.843Z" transform="translate(-265.572 -131.29)"/><path class="ar" d="M275.086,140.341a1.689,1.689,0,0,1-1.843,1.52h0a1.691,1.691,0,0,1-1.518-1.845l.382-3.95a1.69,1.69,0,0,1,1.845-1.518h0a1.687,1.687,0,0,1,1.518,1.843Z" transform="translate(-263.887 -127.936)"/><path class="ar" d="M276.533,140.92a1.688,1.688,0,0,1-1.845,1.518h0a1.688,1.688,0,0,1-1.518-1.843l.384-3.95a1.687,1.687,0,0,1,1.843-1.518h0a1.687,1.687,0,0,1,1.518,1.843Z" transform="translate(-262.397 -127.339)"/><path class="ar" d="M277.261,140.961a1.39,1.39,0,0,1-1.518,1.249h0a1.392,1.392,0,0,1-1.249-1.518l.315-3.253a1.392,1.392,0,0,1,1.518-1.25h0a1.39,1.39,0,0,1,1.25,1.518Z" transform="translate(-261.029 -126.241)"/><path class="ar" d="M273.8,143.8a1.587,1.587,0,0,1-1.148,1.916h0a1.588,1.588,0,0,1-2.06-.861l-2.659-8.092a1.587,1.587,0,0,1,1.148-1.916h0a1.589,1.589,0,0,1,2.062.861Z" transform="translate(-267.863 -127.717)"/></g></g></g><g transform="translate(112.738 163.333)"><g transform="translate(0 90.45)"><g transform="translate(74.903 114.263)"><path class="av" d="M138.477,197.06l-14.795,71.586h3.165l19.454-71.7Z" transform="translate(-123.682 -196.708)"/><path class="av" d="M166.138,197.5,181.1,269.908h-3.165L158.11,196.829Z" transform="translate(-88.163 -196.829)"/></g><g transform="translate(10.513 111.593)"><path class="aw" d="M109.224,195.515,91.99,278.9h3.165l22.409-82.593Z" transform="translate(-91.99 -195.515)"/><path class="aw" d="M133.713,196.683,150.8,279.339h-3.165L125.074,196.2Z" transform="translate(-57.857 -194.808)"/></g><path class="ax" d="M205.518,260.709H121.471c-6.256,0,12.688-17.143,12.627-23.393-.351-35.526-14.47-89.393-14.612-89.933a5.411,5.411,0,1,1,10.463-2.763c.037.138,3.692,14.031,7.334,32.221,4.913,24.535,7.481,44.846,7.635,60.368a12.755,12.755,0,0,0,12.625,12.68h47.974a5.41,5.41,0,0,1,0,10.821Z" transform="translate(-53.295 -140.589)"/><path class="ax" d="M89.436,140.59l65.737.179,22.6,110.921-70.7-2.285Z" transform="translate(-84.111 -140.588)"/><path class="d" d="M173.028,260.709H125.052a23.207,23.207,0,0,1-16.55-6.875,23.594,23.594,0,0,1-6.9-16.518c-.349-35.526-14.468-89.393-14.61-89.933a5.41,5.41,0,1,1,10.461-2.763c.037.138,3.692,14.031,7.334,32.221,4.913,24.535,7.483,44.846,7.635,60.368a12.758,12.758,0,0,0,12.625,12.68h47.977a5.41,5.41,0,1,1,0,10.821Z" transform="translate(-86.815 -140.589)"/></g><g transform="translate(34.635 0)"><path class="ar" d="M144.712,225.593l.962,11.548H157l-1.95-13.948Z" transform="translate(-61.718 35.084)"/><path class="ar" d="M155.926,222.784l.962,11.547h11.329l-1.95-13.947Z" transform="translate(-50.148 32.187)"/><path class="ay" d="M158.362,182.3v3.686c0,4.08,2.885,6.268,6.7,6.56h28.3c8.115,0,13.34,7.324,14.161,15.394,1.077,10.626,3.913,32.647,6.247,50.3.189,1.43-13.139,2.345-13.139,2.345l-6.644-52.5c-.057-.547-.083-1.2-.626-1.2H122.905a11.8,11.8,0,0,1-11.672-11.906V182.3Z" transform="translate(-96.258 -7.1)"/><g transform="translate(102.836 259.545)"><rect class="d" width="34.542" height="4.684" transform="translate(0.252 17.53)"/><path class="b" d="M170.295,223.817c-2.434.2-4.019,2.314-4.019,4.947l-9.23.62-2.568,11.963h34.793v-3.011s-15.313-8.555-17.9-9.886Z" transform="translate(-154.478 -223.817)"/></g><path class="ar" d="M147.773,208.21c-1.4-1.343-4.328-4.135-10.028-28.621C135.058,168.056,133,157,132.98,156.89l9.21-1.709c4.707,25.352,9.953,43.783,12.117,46.321,0,0-.024-.026-.063-.065Z" transform="translate(-73.822 -35.084)"/><path class="ao" d="M139.628,182.3v3.686c0,4.08,2.989,6.268,6.808,6.56h23.358c8.111,0,13.549,7.324,14.37,15.394,1.26,12.424,4.923,40.425,7.379,58.82l-13.226,2.206-7.779-60.914c0-.542-.2-1.162-.744-1.162h-46.89a11.8,11.8,0,0,1-11.672-11.906V182.3Z" transform="translate(-96.258 -7.1)"/><g transform="translate(80.473 266.038)"><rect class="d" width="34.542" height="4.684" transform="translate(0.074 17.477)"/><path class="b" d="M159.645,227.013c-2.434.2-4.017,2.314-4.017,4.947l-9.592.593-2.566,11.936h34.616v-2.958s-15.226-8.557-17.81-9.886Z" transform="translate(-143.471 -227.013)"/></g><g transform="translate(0.29 93.394)"><path class="b" d="M118.69,178.072,104,172.879c1.148-14.153,15.1-30.841,37.44-30.841s36.252,16.688,37.4,30.841l-13.023,5.193v49.582H118.69Z" transform="translate(-104.005 -142.038)"/></g><g transform="translate(0 21.407)"><path class="b" d="M176.434,148.581c-1.684-10.9-7.247-39.978-33.885-41.879v-.063c0-.006-.2-.014-.349-.018-.6-.018-1.142-.016-1.725-.008-.583-.008-1.1-.01-1.7.008a2.817,2.817,0,0,0-.321.018v.061c-26.932,1.865-32.229,30.975-33.915,41.881-1.552,12.1.063,27.318.063,27.318,46.621,5.849,71.855,0,71.855,0S177.986,160.682,176.434,148.581Z" transform="translate(-103.862 -106.606)"/></g><g transform="translate(0.188)"><g transform="translate(3.453 24.225)"><path class="ar" d="M161.888,144.561a26.453,26.453,0,0,1-26.014,26.885h0a26.452,26.452,0,0,1-26.885-26.014l-.163-9.864a26.456,26.456,0,0,1,26.014-26.885h0A26.452,26.452,0,0,1,161.725,134.7Z" transform="translate(-102.386 -107.285)"/><path class="ar" d="M119.849,130.049a7.1,7.1,0,1,1-7.213-7A7.106,7.106,0,0,1,119.849,130.049Z" transform="translate(-105.655 -92.456)"/><path class="b" d="M117.193,171.122l-8.616,1.908s-1.034-27.3.471-42.166c0,0,3.163-15.055,6.885-18.18,4.809-4.037,24.669-4.691,24.669-4.691S118.892,116.809,117.193,171.122Z" transform="translate(-102.997 -107.993)"/><path class="b" d="M123.145,110.972l30.5,46.331s2.276-20.173-6.239-32.1C134.646,107.311,123.145,110.972,123.145,110.972Z" transform="translate(-87.61 -105.238)"/></g><path class="f" d="M105.933,147.162c-1.772-8.409,6.721-32.237,6.993-41.111.2-6.426,5.648-8.751,9.581-9.563,5-1.032,11.6-.339,13.992,4.214,2.954,5.632,10.069,10.794,12.135,12.336,6.31,4.707,15.583,14.929,17.334,23.241Z" transform="translate(-102.165 -96.069)"/><path class="f" d="M173.11,124.034a1.053,1.053,0,0,1-.994,1.075l-66.9,10.727a1.056,1.056,0,0,1-1.262-.744l.492-12.365a1.054,1.054,0,0,1,.991-1.075l61.711-9.707a1.055,1.055,0,0,1,1.262.742Z" transform="translate(-103.955 -79.705)"/></g><g transform="translate(24.143 61.266)"><path class="c" d="M128.015,130.177a3,3,0,1,0,2.042-3.85A3.083,3.083,0,0,0,128.015,130.177Z" transform="translate(-103.212 -126.225)"/><path class="c" d="M115.867,130.177a3,3,0,1,0,2.044-3.85A3.083,3.083,0,0,0,115.867,130.177Z" transform="translate(-115.745 -126.225)"/><path class="d" d="M118.976,132.724,136.912,132s-2.572,5.618-7.026,6.434C123.834,139.543,119.285,134.124,118.976,132.724Z" transform="translate(-112.412 -120.267)"/></g><g transform="translate(28.653 84.932)"><path class="ar" d="M117.967,147.284a32.1,32.1,0,0,1,3.541-.642l.809-8.442,9.013-.327.341,8.663a27.077,27.077,0,0,1,4.326.752,9.952,9.952,0,0,1-.016,1.3c-.219,5.54-4.431,9.831-9.4,9.586s-8.824-4.939-8.6-10.48C117.981,147.6,117.96,147.373,117.967,147.284Z" transform="translate(-117.965 -137.873)"/></g><path class="as" d="M143.469,224.3l.962,4.809,14.5-2.405-.647-5.17Z" transform="translate(-63 33.375)"/><path class="as" d="M154.6,221.372l.962,4.809,14.5-2.405-.648-5.17Z" transform="translate(-51.521 30.352)"/></g><g transform="translate(68.184 182.084)"><path class="am" d="M120.375,188.446l18.749-2.755h15.739l-2.879,2.926Z" transform="translate(-120.375 -185.691)"/><path class="am" d="M154,188.994H120.375v-1.562l34.488-.758Z" transform="translate(-120.375 -184.677)"/></g><path class="ar" d="M168.908,217a24.27,24.27,0,0,0-15.232-.368l-.969.311-1.012-.12a134.85,134.85,0,0,1-24.974-6.278c-16.839-5.967-20.232-11.2-21.319-14.614-.435-1.369-1.164-3.659,1.323-23.9.64-5.2,1.335-10.282,1.837-13.848l9,3.184c-1.979,14.234-3.594,28.858-3.2,31.827.5,1.1,4.053,4.474,15.479,8.521a130.764,130.764,0,0,0,22.015,5.681A33.491,33.491,0,0,1,172.63,208.4Z" transform="translate(-68.097 -31.988)"/><g transform="translate(133.269 28.353)"><path class="f" d="M251.066,106.351a11.128,11.128,0,0,1-11.128,11.128h-57.7a11.128,11.128,0,0,1-11.128-11.128h0a11.127,11.127,0,0,1,11.128-11.127h57.7a11.127,11.127,0,0,1,11.128,11.127Z" transform="translate(-140.542 -95.224)"/><path class="f" d="M227.654,123.6a11.128,11.128,0,0,1-11.128,11.127H163.537A11.127,11.127,0,0,1,152.41,123.6h0a11.127,11.127,0,0,1,11.127-11.128h52.989A11.128,11.128,0,0,1,227.654,123.6Z" transform="translate(-152.41 -84.281)"/><path class="f" d="M244.867,140.84a11.128,11.128,0,0,1-11.128,11.128H190.171a11.128,11.128,0,0,1-11.128-11.128h0a11.128,11.128,0,0,1,11.128-11.128h43.567a11.128,11.128,0,0,1,11.128,11.128Z" transform="translate(-135.509 -73.338)"/><path class="f" d="M229.722,158.084A11.128,11.128,0,0,1,218.6,169.212H165.606a11.128,11.128,0,0,1-11.128-11.128h0a11.128,11.128,0,0,1,11.128-11.127H218.6a11.128,11.128,0,0,1,11.127,11.127Z" transform="translate(-151.098 -62.394)"/><path class="f" d="M190.161,180.374,188.249,179,206.4,153.778l-33.315-25.964,15.136-22.994,1.967,1.295-13.941,21.178,33.388,26.021Z" transform="translate(-139.289 -89.135)"/><path class="f" d="M153.432,181.444h0l15.727-27.034,3.043,3.9Z" transform="translate(-151.762 -57.664)"/></g><g transform="translate(99.463 144.353)"><path class="am" d="M193.382,209.168H135.77l10-42.048h57.611Z" transform="translate(-135.77 -167.12)"/><path class="d" d="M157.7,174.007l1.286,4.835,4.593.86-4.062,3.666-.1,5.286-3.8-2.571-4.656,2.408,1.715-5.254-2.776-3.8,4.858-.678Z" transform="translate(-121.184 -160.013)"/></g></g></g><g transform="translate(868.434 525.488)"><rect class="az" width="29.255" height="43.151" transform="translate(30.956)"/><rect class="az" width="29.255" height="43.151"/><rect class="az" width="29.255" height="43.151" transform="translate(108.815)"/><rect class="az" width="29.255" height="43.151" transform="translate(186.673)"/><rect class="az" width="29.255" height="43.151" transform="translate(263.594)"/><rect class="az" width="29.255" height="43.151" transform="translate(61.673)"/><rect class="az" width="29.255" height="43.151" transform="translate(139.532)"/><rect class="az" width="29.255" height="43.151" transform="translate(217.391)"/><rect class="az" width="29.255" height="43.151" transform="translate(294.311)"/><text class="ba" transform="translate(37.522 28.257)"><tspan x="0" y="0">4</tspan></text><text class="ba" transform="translate(115.381 28.257)"><tspan x="0" y="0">2</tspan></text><text class="ba" transform="translate(193.24 28.257)"><tspan x="0" y="0">0</tspan></text><text class="ba" transform="translate(270.16 28.257)"><tspan x="0" y="0">5</tspan></text><text class="ba" transform="translate(67.54 28.257)"><tspan x="0" y="0">1</tspan></text><text class="ba" transform="translate(145.399 28.257)"><tspan x="0" y="0">1</tspan></text><text class="ba" transform="translate(223.258 28.257)"><tspan x="0" y="0">1</tspan></text><text class="ba" transform="translate(300.178 28.257)"><tspan x="0" y="0">4</tspan></text><text class="ba" transform="translate(7.504 28.257)"><tspan x="0" y="0">1</tspan></text><g transform="translate(97.558 10.319)"><rect width="5.628" height="5.628"/><rect width="5.628" height="5.628" transform="translate(0 18.761)"/></g><g transform="translate(173.541 10.319)"><rect width="5.628" height="5.628" transform="translate(0)"/><rect width="5.628" height="5.628" transform="translate(0 18.761)"/></g><g transform="translate(252.337 10.319)"><rect width="5.628" height="5.628"/><rect width="5.628" height="5.628" transform="translate(0 18.761)"/></g></g><g transform="translate(887.043 582.595)"><circle class="f" cx="1.5" cy="1.5" r="1.5" transform="translate(7.254 7.137)"/><circle class="bb" cx="5.5" cy="5.5" r="5.5" transform="translate(3.254 3.137)"/><circle class="bc" cx="8.5" cy="8.5" r="8.5" transform="translate(0.254 0.137)"/></g></g></svg>