<svg xmlns="http://www.w3.org/2000/svg" width="531" height="754.988" viewBox="0 0 531 754.988">
  <defs>
    <style>
      .cls-1 {
        fill: #efefef;
      }

      .cls-2 {
        fill: #ddd322;
      }

      .cls-3 {
        fill: #f4ac89;
      }

      .cls-4 {
        fill: #ff6b24;
      }

      .cls-5 {
        fill: #ff6a24;
      }

      .cls-6 {
        fill: #fff;
      }

      .cls-7 {
        fill: #232323;
      }

      .cls-8 {
        fill: #2b72b6;
      }

      .cls-9 {
        fill: #80b3dd;
      }

      .cls-10 {
        fill: #373737;
      }

      .cls-11 {
        fill: #f15a24;
      }

      .cls-12 {
        fill: #f2c5ad;
      }

      .cls-13 {
        fill: #eabda9;
      }

      .cls-14 {
        fill: #ba6338;
      }

      .cls-15 {
        fill: #a55532;
      }

      .cls-16 {
        fill: #9b4b10;
      }

      .cls-17 {
        fill: #936658;
      }

      .cls-18 {
        fill: #9b6d5c;
      }

      .cls-19 {
        fill: #e8baa0;
      }

      .cls-20 {
        fill: #4f3934;
      }

      .cls-21 {
        fill: #1040ff;
      }
    </style>
  </defs>
  <g id="Groupe_1079" data-name="Groupe 1079" transform="translate(153.453 -96.012)">
    <rect id="Rectangle_122" data-name="Rectangle 122" class="cls-1" width="531" height="750" transform="translate(-153.453 101)"/>
    <g id="Groupe_1078" data-name="Groupe 1078" transform="translate(-129.547 96.012)">
      <g id="Groupe_915" data-name="Groupe 915" transform="translate(337.802 61.923)">
        <g id="Groupe_749" data-name="Groupe 749" transform="translate(0)">
          <g id="Groupe_737" data-name="Groupe 737">
            <path id="Tracé_3824" data-name="Tracé 3824" class="cls-2" d="M1111.765,844.039s-5.837,14.175,1.071,24.972c9.837,15.376,22.862,10.38,22.862,10.38l-2.021-31.22Z" transform="translate(-1109.461 -836.953)"/>
            <g id="Groupe_735" data-name="Groupe 735" transform="translate(1.349 3.113)">
              <path id="Tracé_3825" data-name="Tracé 3825" class="cls-3" d="M1120.225,825.88a10.111,10.111,0,0,0,9.746,10.464h0a10.111,10.111,0,0,0,10.463-9.746l.134-3.769a10.111,10.111,0,0,0-9.746-10.464h0a10.111,10.111,0,0,0-10.464,9.746Z" transform="translate(-1120.218 -812.359)"/>
              <path id="Tracé_3826" data-name="Tracé 3826" class="cls-2" d="M1248.944,873.869l-3.54-2.07,1.77-15.992,4.483,1.471Z" transform="translate(-1229.702 -850.358)"/>
              <path id="Tracé_3827" data-name="Tracé 3827" class="cls-3" d="M1253,913.756a2.713,2.713,0,1,0,2.808-2.621A2.716,2.716,0,0,0,1253,913.756Z" transform="translate(-1236.345 -898.744)"/>
            </g>
            <path id="Tracé_3828" data-name="Tracé 3828" class="cls-2" d="M1226.333,862.616s2.275,9.809,1.121,18.417l2.224-.06s2.943-11.609,3.089-17.216Z" transform="translate(-1211.674 -853.2)"/>
            <g id="Groupe_736" data-name="Groupe 736" transform="translate(1.457)">
              <path id="Tracé_3829" data-name="Tracé 3829" class="cls-4" d="M1287.907,855.215a1.308,1.308,0,0,1-1.281,1.307l-9.54-.857a1.308,1.308,0,0,1-1.028-1.515h0a1.308,1.308,0,0,1,1.282-1.307l9.539.857a1.307,1.307,0,0,1,1.028,1.515Z" transform="translate(-1256.613 -844.649)"/>
              <path id="Tracé_3830" data-name="Tracé 3830" class="cls-5" d="M1143.838,798.763l-22.758-2.046a10.1,10.1,0,0,1,10.963-9.131l2.66.239a10.077,10.077,0,0,1,9.135,10.938Z" transform="translate(-1121.08 -787.544)"/>
              <path id="Tracé_3831" data-name="Tracé 3831" class="cls-3" d="M1150.163,831.785l-5.95-.611h0a2.6,2.6,0,0,1,2.837-2.449l.7.071a2.767,2.767,0,0,1,2.416,2.988Z" transform="translate(-1141.311 -823.548)"/>
            </g>
          </g>
          <g id="Groupe_748" data-name="Groupe 748" transform="translate(0.782 15.13)">
            <g id="Groupe_747" data-name="Groupe 747">
              <g id="Character" transform="translate(0 10.219)">
                <g id="Body">
                  <g id="Body-2" data-name="Body" transform="translate(0 3.302)">
                    <g id="Groupe_739" data-name="Groupe 739" transform="translate(0 42.343)">
                      <path id="Tracé_3832" data-name="Tracé 3832" class="cls-3" d="M1158.915,1594.7h-3.01l-.5-3.888h3.01Z" transform="translate(-1150.422 -1561.049)"/>
                      <g id="Groupe_738" data-name="Groupe 738" transform="translate(0 31.892)">
                        <rect id="Rectangle_391" data-name="Rectangle 391" class="cls-6" width="9.783" height="1.38" transform="translate(0 5.141)"/>
                        <path id="Tracé_3833" data-name="Tracé 3833" class="cls-7" d="M1120.584,1609.252v-1.435a1.367,1.367,0,0,1,1.318,1.379l2.3,0,1.249,3.761h-9.763v-.824Z" transform="translate(-1115.692 -1607.817)"/>
                      </g>
                      <path id="Tracé_3834" data-name="Tracé 3834" class="cls-8" d="M1148.547,1353.554s-1.138,11.814-1.141,15.752c0,3.5,1.118,14.006,1.118,14.006h-3.991s-1.129-10.536-1.129-14.048c0-3.917,1.129-15.668,1.129-15.668Z" transform="translate(-1139.927 -1353.554)"/>
                      <rect id="Rectangle_392" data-name="Rectangle 392" class="cls-9" width="5.017" height="1.881" transform="translate(4.139 28.128)"/>
                    </g>
                    <g id="Groupe_741" data-name="Groupe 741" transform="translate(8.153 42.343)">
                      <rect id="Rectangle_393" data-name="Rectangle 393" class="cls-3" width="3.01" height="3.888" transform="translate(5.519 29.758)"/>
                      <g id="Groupe_740" data-name="Groupe 740" transform="translate(0 31.892)">
                        <rect id="Rectangle_394" data-name="Rectangle 394" class="cls-6" width="9.783" height="1.38" transform="translate(0 5.141)"/>
                        <path id="Tracé_3835" data-name="Tracé 3835" class="cls-10" d="M1185.584,1609.252v-1.435a1.367,1.367,0,0,1,1.318,1.379l2.3,0,1.249,3.761h-9.763v-.824Z" transform="translate(-1180.692 -1607.817)"/>
                      </g>
                      <path id="Tracé_3836" data-name="Tracé 3836" class="cls-8" d="M1225.689,1353.554l-.042,29.758h-3.955V1353.6Z" transform="translate(-1216.55 -1353.554)"/>
                      <rect id="Rectangle_395" data-name="Rectangle 395" class="cls-9" width="5.017" height="1.881" transform="translate(4.641 28.128)"/>
                    </g>
                    <path id="Tracé_3837" data-name="Tracé 3837" class="cls-8" d="M1166.54,1271.807v8.153a3.763,3.763,0,0,1-3.763,3.763h-11.289v-11.916Z" transform="translate(-1146.999 -1239.718)"/>
                    <path id="Tracé_3838" data-name="Tracé 3838" class="cls-10" d="M1145.692,1037.273s-.017-18.04,8.442-21.3c8.826.233,8.616,14.058,8.616,14.058v25.683h-17.058Z" transform="translate(-1141.929 -1015.971)"/>
                  </g>
                  <g id="Head" transform="translate(10.062)">
                    <g id="Groupe_742" data-name="Groupe 742">
                      <path id="Tracé_3839" data-name="Tracé 3839" class="cls-3" d="M1195.913,993.836l.318-4.061,3.516-.128.374,3.535Z" transform="translate(-1195.913 -989.647)"/>
                    </g>
                  </g>
                </g>
              </g>
              <path id="Tracé_3841" data-name="Tracé 3841" class="cls-3" d="M1191.487,1017.829s-2.355,3.043-5.445,2.216l1.739-2.216Z" transform="translate(-1177.218 -1004.075)"/>
              <g id="Groupe_746" data-name="Groupe 746" transform="translate(2.541)">
                <g id="Groupe_744" data-name="Groupe 744">
                  <path id="Tracé_3842" data-name="Tracé 3842" d="M1137.163,908.222a.878.878,0,0,0-.2-.046.989.989,0,0,0-1.015,1.089,1.324,1.324,0,0,0,.793,1.268.908.908,0,0,0,.2.046.987.987,0,0,0,1.013-1.087A1.325,1.325,0,0,0,1137.163,908.222Z" transform="translate(-1135.953 -908.171)"/>
                </g>
                <g id="Groupe_745" data-name="Groupe 745" transform="translate(9.016 1.13)">
                  <path id="Tracé_3843" data-name="Tracé 3843" d="M1209.045,917.231a.888.888,0,0,0-.2-.046.989.989,0,0,0-1.015,1.089,1.324,1.324,0,0,0,.793,1.268.9.9,0,0,0,.2.046.986.986,0,0,0,1.013-1.087A1.325,1.325,0,0,0,1209.045,917.231Z" transform="translate(-1207.835 -917.18)"/>
                </g>
                <path id="Tracé_3844" data-name="Tracé 3844" class="cls-6" d="M1153.311,951.626l-7.47-.7s.948,2.4,2.788,2.843A4.5,4.5,0,0,0,1153.311,951.626Z" transform="translate(-1144.601 -945.56)"/>
              </g>
            </g>
            <path id="Tracé_3996" data-name="Tracé 3996" class="cls-11" d="M229.85-113.617l-6.891-9.465-2.574,2.669v6.8h-4.891v-22.235h4.891v9.719l9.022-9.719h5.906l-9.052,9.433,9.465,12.8Z" transform="translate(-215.345 158.185)"/>
            <g id="Groupe_847" data-name="Groupe 847" transform="translate(10.372 27.416)">
              <path id="Tracé_3840" data-name="Tracé 3840" class="cls-3" d="M1194.876,1156.419l-3.576-1.171a141.281,141.281,0,0,0,3.771-14.212,105.288,105.288,0,0,0,1.256-13.567c.041-1.064,3.8-.887,3.761.167a107.523,107.523,0,0,1-1.323,14.119A142.117,142.117,0,0,1,1194.876,1156.419Z" transform="translate(-1191.3 -1126.752)"/>
            </g>
          </g>
        </g>
      </g>
      <g id="Groupe_916" data-name="Groupe 916" transform="translate(390.874 191.465)">
        <g id="Groupe_733" data-name="Groupe 733" transform="translate(0)">
          <g id="Groupe_732" data-name="Groupe 732">
            <g id="Character-2" data-name="Character" transform="translate(2.872)">
              <g id="Body-3" data-name="Body" transform="translate(0.965 12.814)">
                <g id="Body-4" data-name="Body" transform="translate(0 15.339)">
                  <g id="Groupe_720" data-name="Groupe 720" transform="translate(11.023 42.343)">
                    <path id="Tracé_3792" data-name="Tracé 3792" class="cls-12" d="M1483.778,745.11h3.01l.5-3.888h-3.01Z" transform="translate(-1482.508 -711.464)"/>
                    <g id="Groupe_719" data-name="Groupe 719" transform="translate(0 31.892)">
                      <rect id="Rectangle_386" data-name="Rectangle 386" class="cls-6" width="9.783" height="1.38" transform="translate(0.015 5.141)"/>
                      <path id="Tracé_3793" data-name="Tracé 3793" class="cls-7" d="M1478.562,759.667v-1.435a1.383,1.383,0,0,0-1.336,1.379l-2.313,0-1.258,3.761h9.8v-.825Z" transform="translate(-1473.655 -758.232)"/>
                    </g>
                    <path id="Tracé_3794" data-name="Tracé 3794" class="cls-8" d="M1482.768,503.969s1.138,11.814,1.142,15.752c0,3.5-1.118,14.006-1.118,14.006h3.991s1.129-10.536,1.129-14.048c0-3.917-1.129-15.668-1.129-15.668Z" transform="translate(-1481.625 -503.969)"/>
                    <rect id="Rectangle_387" data-name="Rectangle 387" class="cls-9" width="5.017" height="1.881" transform="translate(0.643 28.128)"/>
                  </g>
                  <g id="Groupe_722" data-name="Groupe 722" transform="translate(2.87 42.343)">
                    <rect id="Rectangle_388" data-name="Rectangle 388" class="cls-12" width="3.01" height="3.888" transform="translate(1.27 29.758)"/>
                    <g id="Groupe_721" data-name="Groupe 721" transform="translate(0 31.892)">
                      <rect id="Rectangle_389" data-name="Rectangle 389" class="cls-6" width="9.783" height="1.38" transform="translate(0.015 5.141)"/>
                      <path id="Tracé_3795" data-name="Tracé 3795" class="cls-10" d="M1413.562,759.667v-1.435a1.383,1.383,0,0,0-1.336,1.379l-2.313,0-1.258,3.761h9.8v-.825Z" transform="translate(-1408.655 -758.232)"/>
                    </g>
                    <path id="Tracé_3796" data-name="Tracé 3796" class="cls-8" d="M1413.768,503.969l.024,29.758h3.991V504.012Z" transform="translate(-1413.127 -503.969)"/>
                    <rect id="Rectangle_390" data-name="Rectangle 390" class="cls-9" width="5.017" height="1.881" transform="translate(0.141 28.128)"/>
                  </g>
                  <path id="Tracé_3797" data-name="Tracé 3797" class="cls-8" d="M1395.692,422.222v8.153a3.763,3.763,0,0,0,3.763,3.763h11.288V422.222Z" transform="translate(-1394.448 -390.133)"/>
                  <path id="Tracé_3798" data-name="Tracé 3798" class="cls-10" d="M1402.833,187.688s.017-18.04-8.442-21.3c-8.826.233-8.616,14.058-8.616,14.058v25.683h17.058Z" transform="translate(-1385.775 -166.386)"/>
                </g>
                <path id="Tracé_3799" data-name="Tracé 3799" class="cls-13" d="M1512.134,46.779a2.685,2.685,0,1,1-2.685-2.685A2.685,2.685,0,0,1,1512.134,46.779Z" transform="translate(-1491.588 -44.094)"/>
                <g id="Head-2" data-name="Head" transform="translate(6.516 12.037)">
                  <g id="Groupe_723" data-name="Groupe 723">
                    <path id="Tracé_3800" data-name="Tracé 3800" class="cls-12" d="M1441.932,144.251l-.318-4.061-3.516-.128-.374,3.535Z" transform="translate(-1437.725 -140.062)"/>
                  </g>
                </g>
              </g>
              <path id="Tracé_3802" data-name="Tracé 3802" class="cls-14" d="M1511.953-10.123s.675-3.619-1.332-5.793-2.843,1.742-2.843,1.742Z" transform="translate(-1491.51 21.778)"/>
              <g id="Groupe_725" data-name="Groupe 725">
                <path id="Tracé_3803" data-name="Tracé 3803" class="cls-12" d="M1398.753-21.734a10.211,10.211,0,0,1-9.818,10.59h0a10.211,10.211,0,0,1-10.59-9.819l-.144-3.806c-.086-2.272-.462-5.463.73-7.207,1.764-2.58,5.725-3.256,9.088-3.383h0a10.212,10.212,0,0,1,10.59,9.819Z" transform="translate(-1378.077 38.213)"/>
                <path id="Tracé_3804" data-name="Tracé 3804" class="cls-15" d="M1384.51-52.316l4.8,3.567s8.508-.324,13.212-1.923c2.273-.773,2.692-2.19,2.692-5.442C1401.672-52.4,1386.075-64.866,1384.51-52.316Z" transform="translate(-1383.703 58.066)"/>
              </g>
            </g>
            <path id="Tracé_3805" data-name="Tracé 3805" class="cls-14" d="M1373.106-7.785s-4.031,4.692-3.638,9.067l-.752-.249s-5.812-7.322-.488-12.368Z" transform="translate(-1364.627 17.196)"/>
            <g id="Head-3" data-name="Head" transform="translate(1.572 12.253)">
              <g id="Groupe_726" data-name="Groupe 726" transform="translate(11.26 4.382)">
                <path id="Tracé_3806" data-name="Tracé 3806" class="cls-16" d="M1477.891,83.147a.239.239,0,1,1-.234-.238A.236.236,0,0,1,1477.891,83.147Z" transform="translate(-1474.913 -81.861)"/>
                <path id="Tracé_3807" data-name="Tracé 3807" class="cls-16" d="M1487.411,76.807a.175.175,0,1,1-.172-.174A.173.173,0,0,1,1487.411,76.807Z" transform="translate(-1483.351 -76.372)"/>
                <path id="Tracé_3808" data-name="Tracé 3808" class="cls-16" d="M1494.8,83.477a.239.239,0,1,1-.234-.238A.237.237,0,0,1,1494.8,83.477Z" transform="translate(-1489.7 -82.15)"/>
                <path id="Tracé_3809" data-name="Tracé 3809" class="cls-16" d="M1498.728,74.765a.208.208,0,1,1-.2-.207A.206.206,0,0,1,1498.728,74.765Z" transform="translate(-1493.191 -74.558)"/>
                <path id="Tracé_3810" data-name="Tracé 3810" class="cls-16" d="M1507.256,80a.246.246,0,1,1-.241-.245A.243.243,0,0,1,1507.256,80Z" transform="translate(-1500.583 -79.104)"/>
                <path id="Tracé_3811" data-name="Tracé 3811" class="cls-16" d="M1517.594,83.871a.195.195,0,1,1-.19-.194A.192.192,0,0,1,1517.594,83.871Z" transform="translate(-1509.714 -82.534)"/>
                <path id="Tracé_3812" data-name="Tracé 3812" class="cls-16" d="M1468.627,90.214a.211.211,0,1,1-.208-.211A.209.209,0,0,1,1468.627,90.214Z" transform="translate(-1466.86 -88.066)"/>
                <path id="Tracé_3813" data-name="Tracé 3813" class="cls-16" d="M1468.8,81.127a.211.211,0,1,1-.208-.21A.209.209,0,0,1,1468.8,81.127Z" transform="translate(-1467.013 -80.119)"/>
                <path id="Tracé_3814" data-name="Tracé 3814" class="cls-16" d="M1457.9,90.006a.211.211,0,1,1-.207-.211A.209.209,0,0,1,1457.9,90.006Z" transform="translate(-1457.482 -87.884)"/>
              </g>
              <g id="Groupe_728" data-name="Groupe 728" transform="translate(3.079 0)">
                <g id="Groupe_727" data-name="Groupe 727" transform="translate(3.098)">
                  <path id="Tracé_3815" data-name="Tracé 3815" d="M1434.169,41.171c-.008.156-.166,2.615-.325,3.309-.129.564-.568,1.651-1.308,1.736l-3.932.453a.745.745,0,0,1-.085,0c-1.318,0-2.13-3.651-2.291-4.422a.725.725,0,0,0-.622-.434.592.592,0,0,0-.07,0,.8.8,0,0,0-.635.625c-.062.9-.385,4.692-1.73,4.847l-3.932.452a.775.775,0,0,1-.094.005c-.693,0-1.235-.914-1.43-1.415a31.346,31.346,0,0,1-.759-3.116,1.661,1.661,0,0,1,1.2-1.917l5.271-.607.042,0,3.943-.454,5.315-.611a1.029,1.029,0,0,1,.125-.007A1.513,1.513,0,0,1,1434.169,41.171Zm-1.055,3.037c.135-.592.274-2.2.3-2.478-.048-.516-.286-.931-.678-.933a.629.629,0,0,0-.068,0l-5.114.609a.881.881,0,0,0-.639.466.857.857,0,0,0-.1.589c.245,1.194.925,3.4,1.693,3.4l.045,0,3.733-.45c.6-.1.711-.716.823-1.206Zm-8.73-1.484a.829.829,0,0,0-.791-.874.677.677,0,0,0-.077,0l-5.114.61c-.431.049-.54.5-.516,1.053.064.27.366,2,.581,2.555.164.421.356.879.8.88a.584.584,0,0,0,.122-.013l3.733-.45c.786-.09,1.179-2.51,1.258-3.766Z" transform="translate(-1416.951 -39.62)"/>
                </g>
                <path id="Tracé_3816" data-name="Tracé 3816" d="M1395.408,56.845l-3.153-.863.34.95,3.059,1.982Z" transform="translate(-1392.255 -53.93)"/>
              </g>
              <path id="Tracé_3817" data-name="Tracé 3817" d="M1368.463,57.952h-.752a2.518,2.518,0,0,1,2.5-2.532,2.465,2.465,0,0,1,1.325.385l-.4.635a1.715,1.715,0,0,0-.921-.268A1.764,1.764,0,0,0,1368.463,57.952Z" transform="translate(-1367.711 -53.438)"/>
            </g>
            <path id="Tracé_3818" data-name="Tracé 3818" class="cls-12" d="M1360.546,65.548a2.685,2.685,0,1,1-2.685-2.685A2.685,2.685,0,0,1,1360.546,65.548Z" transform="translate(-1355.177 -47.695)"/>
            <g id="Groupe_731" data-name="Groupe 731" transform="translate(11.061 14.632)">
              <g id="Groupe_729" data-name="Groupe 729" transform="translate(9.016)">
                <path id="Tracé_3819" data-name="Tracé 3819" d="M1516.04,58.637a.893.893,0,0,1,.2-.045.989.989,0,0,1,1.015,1.089,1.324,1.324,0,0,1-.794,1.268.9.9,0,0,1-.2.046.987.987,0,0,1-1.013-1.087A1.326,1.326,0,0,1,1516.04,58.637Z" transform="translate(-1515.245 -58.586)"/>
              </g>
              <g id="Groupe_730" data-name="Groupe 730" transform="translate(0 1.13)">
                <path id="Tracé_3820" data-name="Tracé 3820" d="M1444.158,67.647a.883.883,0,0,1,.2-.045.989.989,0,0,1,1.015,1.089,1.324,1.324,0,0,1-.794,1.268.9.9,0,0,1-.2.046.987.987,0,0,1-1.013-1.087A1.326,1.326,0,0,1,1444.158,67.647Z" transform="translate(-1443.363 -67.596)"/>
              </g>
              <path id="Tracé_3821" data-name="Tracé 3821" class="cls-6" d="M1461.788,102.042l7.469-.7s-.947,2.4-2.788,2.843A4.5,4.5,0,0,1,1461.788,102.042Z" transform="translate(-1459.477 -95.976)"/>
            </g>
            <path id="Tracé_3822" data-name="Tracé 3822" class="cls-12" d="M1437.725,168.243s2.355,3.043,5.445,2.216l-1.739-2.216Z" transform="translate(-1427.371 -139.857)"/>
            <path id="Tracé_3998" data-name="Tracé 3998" class="cls-11" d="M216.409-112.338l-2.141-5.25h-9.9l-2.138,5.25H196.98l10.034-23.574h4.748l10.031,23.574Zm-7.09-17.385-3.108,7.589h6.217Z" transform="translate(-191.813 174.306)"/>
            <g id="Groupe_848" data-name="Groupe 848" transform="translate(6.352 42.048)">
              <path id="Tracé_3801" data-name="Tracé 3801" class="cls-12" d="M1411.028,306.834l3.576-1.171a141.218,141.218,0,0,1-3.771-14.212,105.334,105.334,0,0,1-1.256-13.567c-.041-1.064-3.8-.887-3.761.167a107.571,107.571,0,0,0,1.323,14.119A142.13,142.13,0,0,0,1411.028,306.834Z" transform="translate(-1405.815 -277.168)"/>
            </g>
          </g>
        </g>
      </g>
      <g id="Groupe_912" data-name="Groupe 912" transform="translate(54.093 123.172)">
        <g id="Groupe_880" data-name="Groupe 880" transform="translate(0 0)">
          <g id="Groupe_717" data-name="Groupe 717" transform="translate(0 0)">
            <g id="Groupe_716" data-name="Groupe 716" transform="translate(0)">
              <g id="Black_girl" data-name="Black girl" transform="translate(0)">
                <g id="Groupe_709" data-name="Groupe 709">
                  <g id="Groupe_707" data-name="Groupe 707">
                    <g id="Character-3" data-name="Character">
                      <ellipse id="Ellipse_79" data-name="Ellipse 79" class="cls-10" cx="19.099" cy="19.099" rx="19.099" ry="19.099" transform="matrix(0.954, -0.299, 0.299, 0.954, 0, 11.431)"/>
                    </g>
                    <g id="Chatacter" transform="translate(15.138 15.117)">
                      <g id="Groupe_705" data-name="Groupe 705" transform="translate(0 0.231)">
                        <path id="Tracé_3760" data-name="Tracé 3760" class="cls-17" d="M302.842,302.495a2.74,2.74,0,1,1-2.827-2.657A2.743,2.743,0,0,1,302.842,302.495Z" transform="translate(-277.684 -288.775)"/>
                        <path id="Tracé_3761" data-name="Tracé 3761" class="cls-18" d="M186.811,225.34a10.211,10.211,0,0,1-9.878,10.535h0A10.212,10.212,0,0,1,166.4,226l-.122-3.807a10.211,10.211,0,0,1,9.878-10.534h0a10.211,10.211,0,0,1,10.535,9.878Z" transform="translate(-163.034 -211.65)"/>
                        <path id="Tracé_3762" data-name="Tracé 3762" class="cls-18" d="M145.947,306.2a2.74,2.74,0,1,1-2.827-2.657A2.743,2.743,0,0,1,145.947,306.2Z" transform="translate(-140.468 -292.012)"/>
                      </g>
                      <g id="Groupe_706" data-name="Groupe 706" transform="translate(2.927)">
                        <path id="Tracé_3763" data-name="Tracé 3763" class="cls-10" d="M209.717,212.564l2.741,4.21a16.726,16.726,0,0,1,1.751-.6l-2.147-4.4A13.232,13.232,0,0,0,209.717,212.564Z" transform="translate(-203.959 -211.529)"/>
                        <path id="Tracé_3764" data-name="Tracé 3764" class="cls-10" d="M188.193,222.673l3.223,3.6c.435-.281,1.354-.811,1.829-1.041l-3.12-3.982A12.6,12.6,0,0,0,188.193,222.673Z" transform="translate(-185.134 -219.816)"/>
                        <path id="Tracé_3765" data-name="Tracé 3765" class="cls-10" d="M235.011,209.909l1.73,4.437c.431-.1,1.014-.179,1.46-.24-.267-.923-.957-2.807-1.392-4.3A11.282,11.282,0,0,0,235.011,209.909Z" transform="translate(-226.08 -209.807)"/>
                        <path id="Tracé_3766" data-name="Tracé 3766" class="cls-10" d="M255.568,210.127l.987,4.193.13-.014a10.41,10.41,0,0,1,1.1-.041c.009-.949.238-2.4.249-3.707A21.041,21.041,0,0,0,255.568,210.127Z" transform="translate(-244.059 -210.087)"/>
                        <path id="Tracé_3767" data-name="Tracé 3767" class="cls-10" d="M172.115,240.568l3.835,2.079a11.636,11.636,0,0,1,1.143-.944l-3.7-3.02A11.317,11.317,0,0,0,172.115,240.568Z" transform="translate(-171.073 -235.061)"/>
                        <path id="Tracé_3768" data-name="Tracé 3768" class="cls-10" d="M163.815,284.546a9.329,9.329,0,0,0,1.73,5.756c-.018-.3-.024-.6-.012-.908a9.884,9.884,0,0,1,1.29-4.362l-3.005-.528C163.817,284.519,163.815,284.532,163.815,284.546Z" transform="translate(-163.808 -275.136)"/>
                        <path id="Tracé_3769" data-name="Tracé 3769" class="cls-10" d="M164.527,261.174l3.163,1.031a13.392,13.392,0,0,1,1.3-1.617l-3.818-1.748A10.546,10.546,0,0,0,164.527,261.174Z" transform="translate(-164.437 -252.69)"/>
                        <path id="Tracé_3770" data-name="Tracé 3770" class="cls-10" d="M311.166,246.444a15.238,15.238,0,0,1,2.017,2.317,10.309,10.309,0,0,0-1.121-3.875Z" transform="translate(-292.683 -240.486)"/>
                        <path id="Tracé_3771" data-name="Tracé 3771" class="cls-10" d="M295.39,226.746l-.981,2.551a8.386,8.386,0,0,1,1.751,1l.875-1.845A9.3,9.3,0,0,0,295.39,226.746Z" transform="translate(-278.028 -224.621)"/>
                        <path id="Tracé_3772" data-name="Tracé 3772" class="cls-10" d="M276.939,215.517l-.639,3.474a9.246,9.246,0,0,1,1.852.336c.2-.807.476-1.876.728-2.874A9.8,9.8,0,0,0,276.939,215.517Z" transform="translate(-262.19 -214.801)"/>
                        <path id="Tracé_3773" data-name="Tracé 3773" class="cls-18" d="M249.5,209.836c-.052,0-.1,0-.156,0,.435,1.489,1.124,3.373,1.392,4.3.172-.024.2-.049.375-.066l-.986-4.193C249.825,209.84,249.819,209.848,249.5,209.836Z" transform="translate(-238.619 -209.831)"/>
                        <path id="Tracé_3774" data-name="Tracé 3774" class="cls-18" d="M273.513,213.562c-.011,1.308-.24,2.758-.249,3.707.193,0,.2,0,.381.013l.639-3.475A6.975,6.975,0,0,0,273.513,213.562Z" transform="translate(-259.535 -213.091)"/>
                        <path id="Tracé_3775" data-name="Tracé 3775" class="cls-18" d="M291.793,222.986c-.252,1-.523,2.067-.728,2.874a3.6,3.6,0,0,1,.419.149l.981-2.551A5.783,5.783,0,0,0,291.793,222.986Z" transform="translate(-275.103 -221.333)"/>
                        <path id="Tracé_3776" data-name="Tracé 3776" class="cls-18" d="M309.244,240.349l-.875,1.845a3.757,3.757,0,0,1,.351.282l.9-1.558A3.471,3.471,0,0,0,309.244,240.349Z" transform="translate(-290.237 -236.518)"/>
                        <path id="Tracé_3777" data-name="Tracé 3777" class="cls-18" d="M228.412,210.768l2.147,4.4c.2-.056.21-.056.411-.1l-1.73-4.437A6.774,6.774,0,0,0,228.412,210.768Z" transform="translate(-220.309 -210.521)"/>
                        <path id="Tracé_3778" data-name="Tracé 3778" class="cls-18" d="M203.592,218.458l3.12,3.982c.191-.092.193-.089.389-.173l-2.741-4.21A6.767,6.767,0,0,0,203.592,218.458Z" transform="translate(-198.602 -217.022)"/>
                        <path id="Tracé_3779" data-name="Tracé 3779" class="cls-18" d="M182.295,233.349l3.7,3.02c.174-.126.17-.13.351-.248l-3.313-3.537A10.056,10.056,0,0,0,182.295,233.349Z" transform="translate(-179.976 -229.727)"/>
                        <path id="Tracé_3780" data-name="Tracé 3780" class="cls-18" d="M169.689,254.352l3.818,1.748c.158-.168.151-.153.321-.312l-3.835-2.079A4.276,4.276,0,0,0,169.689,254.352Z" transform="translate(-168.951 -248.202)"/>
                        <path id="Tracé_3781" data-name="Tracé 3781" class="cls-18" d="M163.882,278.331l3.005.528c.1-.178.127-.211.239-.382l-3.163-1.031C163.923,277.737,163.895,278.032,163.882,278.331Z" transform="translate(-163.873 -268.962)"/>
                      </g>
                    </g>
                  </g>
                  <g id="Groupe_708" data-name="Groupe 708" transform="translate(25.331 27.675)">
                    <path id="Tracé_3782" data-name="Tracé 3782" class="cls-6" d="M242.835,349.941l-8.855.079s1.59,3.116,4.453,3.037A4.88,4.88,0,0,0,242.835,349.941Z" transform="translate(-232.443 -344.922)"/>
                    <path id="Tracé_3783" data-name="Tracé 3783" d="M297.713,311.485a1.158,1.158,0,1,0,.747-1.508A1.19,1.19,0,0,0,297.713,311.485Z" transform="translate(-288.133 -309.93)"/>
                    <path id="Tracé_3784" data-name="Tracé 3784" d="M221.786,313.58a1.157,1.157,0,1,0,.748-1.507A1.19,1.19,0,0,0,221.786,313.58Z" transform="translate(-221.73 -311.762)"/>
                  </g>
                </g>
              </g>
              <g id="Groupe_715" data-name="Groupe 715" transform="translate(12.774 38.158)">
                <g id="Character-4" data-name="Character">
                  <path id="Tracé_3785" data-name="Tracé 3785" class="cls-18" d="M122.245,538.746l3.745-.363a141.152,141.152,0,0,1-.581-14.693c.156-5.691,2.04-15.14,2.059-15.235l-3.689-.74a120.287,120.287,0,0,0-2.131,15.872A142.169,142.169,0,0,0,122.245,538.746Z" transform="translate(-121.616 -493.39)"/>
                  <path id="Tracé_3786" data-name="Tracé 3786" class="cls-18" d="M333.839,538.746l-3.745-.363a141.15,141.15,0,0,0,.582-14.693c-.156-5.691-2.04-15.14-2.059-15.235l3.689-.74a120.3,120.3,0,0,1,2.131,15.872A142.182,142.182,0,0,1,333.839,538.746Z" transform="translate(-302.652 -493.39)"/>
                  <g id="Body-5" data-name="Body" transform="translate(1.211)">
                    <g id="Body-6" data-name="Body" transform="translate(0 3.302)">
                      <rect id="Rectangle_380" data-name="Rectangle 380" class="cls-18" width="3.01" height="3.888" transform="translate(19.714 72.853)"/>
                      <rect id="Rectangle_381" data-name="Rectangle 381" class="cls-18" width="3.01" height="3.888" transform="translate(8.927 72.853)"/>
                      <g id="Groupe_710" data-name="Groupe 710" transform="translate(18.444 74.987)">
                        <rect id="Rectangle_382" data-name="Rectangle 382" class="cls-6" width="9.783" height="1.38" transform="translate(0.015 5.141)"/>
                        <path id="Tracé_3787" data-name="Tracé 3787" class="cls-10" d="M283.228,1019.111v-1.435a1.383,1.383,0,0,0-1.336,1.379l-2.313,0-1.258,3.761h9.8v-.825Z" transform="translate(-278.321 -1017.676)"/>
                      </g>
                      <g id="Groupe_712" data-name="Groupe 712" transform="translate(7.532 74.931)">
                        <rect id="Rectangle_383" data-name="Rectangle 383" class="cls-6" width="5.519" height="1.38" transform="translate(0.015 5.197)"/>
                        <g id="Groupe_711" data-name="Groupe 711">
                          <path id="Tracé_3788" data-name="Tracé 3788" class="cls-10" d="M192.7,1018.664h.258a1.32,1.32,0,1,1,2.63,0h.123l1.129,3.763h-5.519Z" transform="translate(-191.321 -1017.229)"/>
                        </g>
                      </g>
                      <g id="Groupe_713" data-name="Groupe 713">
                        <path id="Tracé_3789" data-name="Tracé 3789" class="cls-8" d="M181.444,689.667v5.964a5.807,5.807,0,0,0,1.929,2.909l.088,30.135h4.274l-.066-29.8,6.567.043.024,29.758h3.991V689.667Z" transform="translate(-175.151 -655.822)"/>
                        <rect id="Rectangle_384" data-name="Rectangle 384" class="cls-9" width="5.017" height="1.881" transform="translate(18.585 71.223)"/>
                        <rect id="Rectangle_385" data-name="Rectangle 385" class="cls-9" width="5.017" height="1.881" transform="translate(7.924 71.223)"/>
                        <path id="Tracé_3790" data-name="Tracé 3790" class="cls-10" d="M155.5,433.889l5.036-2.026c-.448-5.521-5.92-12.032-14.634-12.032s-14.184,6.51-14.632,12.032l5.039,2.026v25.683H155.5Z" transform="translate(-131.271 -419.831)"/>
                      </g>
                    </g>
                    <g id="Head-4" data-name="Head" transform="translate(11.105)">
                      <g id="Groupe_714" data-name="Groupe 714">
                        <path id="Tracé_3791" data-name="Tracé 3791" class="cls-18" d="M226.845,397.184a12.716,12.716,0,0,0-1.38-.24l-.318-3.31-3.516-.128-.134,3.4a10.72,10.72,0,0,0-1.687.274,3.993,3.993,0,0,0,.007.507,3.69,3.69,0,0,0,3.668,3.74,3.777,3.777,0,0,0,3.356-4.089C226.84,397.3,226.847,397.219,226.845,397.184Z" transform="translate(-219.805 -393.506)"/>
                      </g>
                    </g>
                  </g>
                </g>
              </g>
            </g>
          </g>
        </g>
        <path id="Tracé_4034" data-name="Tracé 4034" class="cls-11" d="M203.712-111.666v-9.708H193.9v9.708H188.58v-24.186H193.9v9.572h9.811v-9.572h5.32v24.186Z" transform="translate(-167.44 190.229)"/>
      </g>
      <g id="Groupe_913" data-name="Groupe 913" transform="translate(151.593 50.758)">
        <g id="Groupe_672" data-name="Groupe 672" transform="translate(0)">
          <g id="Character-5" data-name="Character" transform="translate(2.872)">
            <g id="Body-7" data-name="Body" transform="translate(0.965 12.814)">
              <g id="Body-8" data-name="Body" transform="translate(0 15.339)">
                <g id="Groupe_663" data-name="Groupe 663" transform="translate(11.023 42.343)">
                  <path id="Tracé_3678" data-name="Tracé 3678" class="cls-12" d="M559.389,1484.2h3.01l.5-3.888h-3.01Z" transform="translate(-558.119 -1450.554)"/>
                  <g id="Groupe_662" data-name="Groupe 662" transform="translate(0 31.892)">
                    <rect id="Rectangle_358" data-name="Rectangle 358" class="cls-6" width="9.783" height="1.38" transform="translate(0.015 5.141)"/>
                    <path id="Tracé_3679" data-name="Tracé 3679" class="cls-7" d="M554.173,1498.757v-1.435a1.383,1.383,0,0,0-1.336,1.378l-2.313,0-1.258,3.761h9.8v-.825Z" transform="translate(-549.266 -1497.322)"/>
                  </g>
                  <path id="Tracé_3680" data-name="Tracé 3680" class="cls-8" d="M558.379,1243.059s1.138,11.814,1.142,15.752c0,3.5-1.118,14.006-1.118,14.006h3.991s1.129-10.536,1.129-14.048c0-3.917-1.129-15.668-1.129-15.668Z" transform="translate(-557.236 -1243.059)"/>
                  <rect id="Rectangle_359" data-name="Rectangle 359" class="cls-9" width="5.017" height="1.881" transform="translate(0.643 28.128)"/>
                </g>
                <g id="Groupe_665" data-name="Groupe 665" transform="translate(2.87 42.343)">
                  <rect id="Rectangle_360" data-name="Rectangle 360" class="cls-12" width="3.01" height="3.888" transform="translate(1.27 29.758)"/>
                  <g id="Groupe_664" data-name="Groupe 664" transform="translate(0 31.892)">
                    <rect id="Rectangle_361" data-name="Rectangle 361" class="cls-6" width="9.783" height="1.38" transform="translate(0.015 5.141)"/>
                    <path id="Tracé_3681" data-name="Tracé 3681" class="cls-10" d="M489.173,1498.757v-1.435a1.383,1.383,0,0,0-1.336,1.378l-2.313,0-1.258,3.761h9.8v-.825Z" transform="translate(-484.266 -1497.322)"/>
                  </g>
                  <path id="Tracé_3682" data-name="Tracé 3682" class="cls-8" d="M489.379,1243.059l.024,29.758h3.991V1243.1Z" transform="translate(-488.738 -1243.059)"/>
                  <rect id="Rectangle_362" data-name="Rectangle 362" class="cls-9" width="5.017" height="1.881" transform="translate(0.141 28.128)"/>
                </g>
                <path id="Tracé_3683" data-name="Tracé 3683" class="cls-8" d="M471.3,1161.312v8.153a3.763,3.763,0,0,0,3.763,3.763h11.289v-11.916Z" transform="translate(-470.059 -1129.223)"/>
                <path id="Tracé_3684" data-name="Tracé 3684" class="cls-10" d="M478.444,926.778s.017-18.04-8.442-21.3c-8.826.233-8.617,14.058-8.617,14.058v25.683h17.058Z" transform="translate(-461.386 -905.476)"/>
              </g>
              <path id="Tracé_3685" data-name="Tracé 3685" class="cls-13" d="M587.745,785.869a2.685,2.685,0,1,1-2.685-2.685A2.685,2.685,0,0,1,587.745,785.869Z" transform="translate(-567.199 -783.184)"/>
              <g id="Head-5" data-name="Head" transform="translate(6.516 12.037)">
                <g id="Groupe_666" data-name="Groupe 666">
                  <path id="Tracé_3686" data-name="Tracé 3686" class="cls-12" d="M517.543,883.341l-.317-4.061-3.516-.128-.374,3.535Z" transform="translate(-513.336 -879.152)"/>
                </g>
              </g>
            </g>
            <path id="Tracé_3688" data-name="Tracé 3688" class="cls-2" d="M587.564,728.967s.675-3.619-1.332-5.793-2.843,1.742-2.843,1.742Z" transform="translate(-567.121 -717.312)"/>
            <g id="Groupe_668" data-name="Groupe 668">
              <path id="Tracé_3689" data-name="Tracé 3689" class="cls-12" d="M474.364,717.356a10.211,10.211,0,0,1-9.818,10.59h0a10.212,10.212,0,0,1-10.59-9.819l-.144-3.805c-.086-2.272-.462-5.463.73-7.207,1.764-2.58,5.725-3.256,9.088-3.383h0a10.212,10.212,0,0,1,10.59,9.819Z" transform="translate(-453.688 -700.878)"/>
              <path id="Tracé_3690" data-name="Tracé 3690" class="cls-2" d="M460.121,686.774l4.8,3.568s8.508-.324,13.212-1.923c2.273-.773,2.692-2.19,2.692-5.442C477.283,686.693,461.686,674.224,460.121,686.774Z" transform="translate(-459.314 -681.024)"/>
            </g>
            <path id="Tracé_3993" data-name="Tracé 3993" class="cls-11" d="M216.409-112.338l-2.141-5.25h-9.9l-2.138,5.25H196.98l10.034-23.574h4.748l10.031,23.574Zm-7.09-17.385-3.108,7.589h6.217Z" transform="translate(-195.606 175.362)"/>
            <g id="Groupe_846" data-name="Groupe 846" transform="translate(3.479 42.048)">
              <path id="Tracé_3687" data-name="Tracé 3687" class="cls-12" d="M486.639,1045.924l3.576-1.171a141.245,141.245,0,0,1-3.771-14.212,105.311,105.311,0,0,1-1.256-13.567c-.041-1.064-3.8-.887-3.761.167a107.559,107.559,0,0,0,1.323,14.119A142.069,142.069,0,0,0,486.639,1045.924Z" transform="translate(-481.426 -1016.258)"/>
            </g>
          </g>
          <path id="Tracé_3691" data-name="Tracé 3691" class="cls-2" d="M448.717,731.305s-4.031,4.692-3.638,9.067l-.752-.249s-5.811-7.322-.488-12.367Z" transform="translate(-440.238 -721.894)"/>
          <path id="Tracé_3692" data-name="Tracé 3692" class="cls-12" d="M436.157,804.638a2.685,2.685,0,1,1-2.685-2.685A2.685,2.685,0,0,1,436.157,804.638Z" transform="translate(-430.788 -786.785)"/>
          <path id="Tracé_3693" data-name="Tracé 3693" class="cls-12" d="M513.336,907.333s2.355,3.044,5.445,2.216l-1.739-2.216Z" transform="translate(-502.982 -878.947)"/>
          <g id="Groupe_671" data-name="Groupe 671" transform="translate(11.061 14.632)">
            <g id="Groupe_669" data-name="Groupe 669" transform="translate(9.016)">
              <path id="Tracé_3694" data-name="Tracé 3694" d="M591.651,797.727a.9.9,0,0,1,.2-.045.989.989,0,0,1,1.015,1.089,1.324,1.324,0,0,1-.794,1.268.9.9,0,0,1-.2.046A.987.987,0,0,1,590.857,799,1.326,1.326,0,0,1,591.651,797.727Z" transform="translate(-590.857 -797.676)"/>
            </g>
            <g id="Groupe_670" data-name="Groupe 670" transform="translate(0 1.13)">
              <path id="Tracé_3695" data-name="Tracé 3695" d="M519.769,806.737a.884.884,0,0,1,.2-.045.989.989,0,0,1,1.015,1.089,1.324,1.324,0,0,1-.794,1.268.9.9,0,0,1-.2.046.987.987,0,0,1-1.013-1.087A1.326,1.326,0,0,1,519.769,806.737Z" transform="translate(-518.974 -806.686)"/>
            </g>
            <path id="Tracé_3696" data-name="Tracé 3696" class="cls-6" d="M537.4,841.132l7.469-.7s-.947,2.4-2.788,2.843A4.5,4.5,0,0,1,537.4,841.132Z" transform="translate(-535.089 -835.066)"/>
          </g>
        </g>
      </g>
      <g id="Groupe_914" data-name="Groupe 914" transform="translate(241.847 35.212)">
        <g id="Blonde_girl" data-name="Blonde girl" transform="translate(3.683 0)">
          <g id="Groupe_651" data-name="Groupe 651">
            <path id="Tracé_3662" data-name="Tracé 3662" class="cls-10" d="M795.473,322.664a12.131,12.131,0,0,0-7.846-2.886h0a12.122,12.122,0,0,0-6.085,1.646c-3.635,2.1-5.7,6.059-6.081,10.546-.359,4.259-2.317,14.364-3.515,22.456-.478,3.227,9.526,5.028,14.3,5.028,4.945,0,17.2-1.42,16.675-5.094-1.189-8.313-3.128-18.543-3.128-22.388A12.16,12.16,0,0,0,795.473,322.664Z" transform="translate(-771.928 -319.778)"/>
          </g>
          <g id="Groupe_655" data-name="Groupe 655" transform="translate(3.505 0.052)">
            <g id="Groupe_653" data-name="Groupe 653" transform="translate(2.014 0.92)">
              <path id="Tracé_3663" data-name="Tracé 3663" class="cls-12" d="M836.421,341.383a10.211,10.211,0,0,1-10.042,10.378h0A10.211,10.211,0,0,1,816,341.719l-.063-3.808a10.211,10.211,0,0,1,10.042-10.378h0a10.212,10.212,0,0,1,10.378,10.042Z" transform="translate(-815.937 -327.532)"/>
              <g id="Groupe_652" data-name="Groupe 652" transform="translate(6.606 17.656)">
                <path id="Tracé_3664" data-name="Tracé 3664" class="cls-6" d="M877.455,468.461,868.6,468.3s1.5,3.158,4.368,3.158A4.88,4.88,0,0,0,877.455,468.461Z" transform="translate(-868.601 -468.296)"/>
              </g>
            </g>
            <g id="Groupe_654" data-name="Groupe 654" transform="translate(1.371)">
              <path id="Tracé_3665" data-name="Tracé 3665" class="cls-10" d="M859.589,324.232s4.237,10.372,14.076,8.405c1.059-2.886.119-5.143-1.449-7.485-1.105-1.65-8.017-7.7-13.813-3.5C857.729,322.143,859.181,324.034,859.589,324.232Z" transform="translate(-852.279 -320.194)"/>
              <path id="Tracé_3666" data-name="Tracé 3666" class="cls-10" d="M819,336.412s-8.947,4.85-6.355,18.77l-1.256-1.8s-3.427-16.306,6.424-19.552Z" transform="translate(-810.809 -332.124)"/>
            </g>
            <path id="Tracé_3667" data-name="Tracé 3667" class="cls-12" d="M805.355,428.1a2.74,2.74,0,1,1-2.785-2.7A2.743,2.743,0,0,1,805.355,428.1Z" transform="translate(-799.876 -412.207)"/>
          </g>
        </g>
        <g id="Girl" transform="translate(0 23.838)">
          <g id="Body-9" data-name="Body" transform="translate(0 3.302)">
            <rect id="Rectangle_352" data-name="Rectangle 352" class="cls-12" width="3.01" height="3.888" transform="translate(24.694 72.827)"/>
            <rect id="Rectangle_353" data-name="Rectangle 353" class="cls-12" width="3.01" height="3.888" transform="translate(13.907 72.827)"/>
            <g id="Groupe_656" data-name="Groupe 656" transform="translate(23.395 74.987)">
              <rect id="Rectangle_354" data-name="Rectangle 354" class="cls-6" width="9.783" height="1.38" transform="translate(0.045 5.115)"/>
              <path id="Tracé_3668" data-name="Tracé 3668" class="cls-10" d="M934.023,1135.432V1134a1.4,1.4,0,0,0-1.351,1.379l-2.321-.011-1.265,3.748h9.828v-.8Z" transform="translate(-929.086 -1133.998)"/>
            </g>
            <g id="Groupe_658" data-name="Groupe 658" transform="translate(12.483 74.904)">
              <rect id="Rectangle_355" data-name="Rectangle 355" class="cls-6" width="5.519" height="1.38" transform="translate(0.045 5.197)"/>
              <g id="Groupe_657" data-name="Groupe 657">
                <path id="Tracé_3669" data-name="Tracé 3669" class="cls-10" d="M843.466,1134.775h.257a1.32,1.32,0,1,1,2.63,0h.123l1.129,3.763h-5.519Z" transform="translate(-842.086 -1133.34)"/>
              </g>
            </g>
            <g id="Groupe_659" data-name="Groupe 659">
              <path id="Tracé_3670" data-name="Tracé 3670" class="cls-8" d="M831.444,805.778v5.99a5.744,5.744,0,0,0,1.914,2.9l.074,30.122h4.274L837.64,815l6.567.036.024,29.752h4.02V805.778Z" transform="translate(-820.296 -771.959)"/>
              <rect id="Rectangle_356" data-name="Rectangle 356" class="cls-9" width="5.017" height="1.881" transform="translate(23.565 70.946)"/>
              <rect id="Rectangle_357" data-name="Rectangle 357" class="cls-9" width="5.017" height="1.881" transform="translate(12.904 70.946)"/>
              <path id="Tracé_3671" data-name="Tracé 3671" class="cls-12" d="M977.6,651.069l-3.745-.363a141.185,141.185,0,0,0,.582-14.693c-.156-5.691-2.04-15.14-2.059-15.235l3.689-.74A120.309,120.309,0,0,1,978.2,635.91,142.183,142.183,0,0,1,977.6,651.069Z" transform="translate(-943.554 -609.516)"/>
              <path id="Tracé_3673" data-name="Tracé 3673" class="cls-10" d="M805.423,550.21l5.021-2.026c-.448-5.521-5.927-12.032-14.641-12.032s-14.173,6.511-14.621,12.032l5.05,2.026v25.656h19.191Z" transform="translate(-776.339 -536.152)"/>
              <path id="Tracé_3994" data-name="Tracé 3994" class="cls-11" d="M11.974,24.151A11.787,11.787,0,0,1,0,12.141v-.067A11.864,11.864,0,0,1,12.174,0a12.04,12.04,0,0,1,9.207,3.6L18.113,7.371a8.613,8.613,0,0,0-5.972-2.634C8.205,4.737,5.368,8,5.368,12.007v.067c0,4.005,2.77,7.34,6.773,7.34,2.67,0,4.3-1.068,6.139-2.737l3.268,3.3A11.931,11.931,0,0,1,11.974,24.151Z" transform="translate(6.657 12.429) rotate(16)"/>
              <path id="Tracé_3995" data-name="Tracé 3995" class="cls-12" d="M775.007,651.069l3.745-.363a141.082,141.082,0,0,1-.582-14.693c.156-5.691,2.04-15.14,2.059-15.235l-3.689-.74a120.28,120.28,0,0,0-2.131,15.872A142.2,142.2,0,0,0,775.007,651.069Z" transform="translate(-770.389 -609.516)"/>
            </g>
          </g>
          <g id="Head-6" data-name="Head" transform="translate(15.93)">
            <g id="Groupe_660" data-name="Groupe 660">
              <path id="Tracé_3674" data-name="Tracé 3674" class="cls-12" d="M876.609,513.506a12.8,12.8,0,0,0-1.38-.24l-.318-3.31-3.516-.128-.134,3.4a10.719,10.719,0,0,0-1.687.274,4,4,0,0,0,.007.507,3.69,3.69,0,0,0,3.668,3.74,3.778,3.778,0,0,0,3.356-4.089C876.6,513.624,876.611,513.541,876.609,513.506Z" transform="translate(-869.569 -509.828)"/>
            </g>
          </g>
        </g>
        <path id="Tracé_3675" data-name="Tracé 3675" d="M854.834,435.889a.5.5,0,0,1-.5.5h-2.258a.5.5,0,0,1-.5-.5h0a.5.5,0,0,1,.5-.5h2.258a.5.5,0,0,1,.5.5Z" transform="translate(-837.9 -420.887)"/>
        <path id="Tracé_3676" data-name="Tracé 3676" d="M930.812,435.889a.5.5,0,0,1-.5.5h-2.258a.5.5,0,0,1-.5-.5h0a.5.5,0,0,1,.5-.5h2.258a.5.5,0,0,1,.5.5Z" transform="translate(-904.349 -420.887)"/>
      </g>
      <g id="Groupe_917" data-name="Groupe 917" transform="translate(348.972 305.508)">
        <g id="Groupe_882" data-name="Groupe 882" transform="translate(0 0)">
          <g id="Character-6" data-name="Character" transform="translate(0)">
            <path id="Tracé_3720" data-name="Tracé 3720" class="cls-12" d="M1815.172,1192.191l-3.745-.363a141.148,141.148,0,0,0,.582-14.693c-.156-5.691-2.04-15.14-2.059-15.235l3.689-.74a120.3,120.3,0,0,1,2.131,15.872A142.112,142.112,0,0,1,1815.172,1192.191Z" transform="translate(-1783.986 -1121.308)"/>
            <path id="Tracé_3721" data-name="Tracé 3721" class="cls-12" d="M1603.578,1192.191l3.745-.363a141.072,141.072,0,0,1-.582-14.693c.156-5.691,2.04-15.14,2.059-15.235l-3.689-.74a120.269,120.269,0,0,0-2.131,15.872A142.179,142.179,0,0,0,1603.578,1192.191Z" transform="translate(-1602.95 -1121.308)"/>
            <g id="Body-10" data-name="Body" transform="translate(1.339 25.527)">
              <g id="Body-11" data-name="Body" transform="translate(0 3.302)">
                <rect id="Rectangle_368" data-name="Rectangle 368" class="cls-12" width="3.01" height="3.888" transform="translate(6.542 72.853)"/>
                <rect id="Rectangle_369" data-name="Rectangle 369" class="cls-12" width="3.01" height="3.888" transform="translate(17.329 72.853)"/>
                <g id="Groupe_687" data-name="Groupe 687" transform="translate(1.023 74.987)">
                  <rect id="Rectangle_370" data-name="Rectangle 370" class="cls-6" width="9.783" height="1.38" transform="translate(0 5.141)"/>
                  <path id="Tracé_3722" data-name="Tracé 3722" class="cls-10" d="M1626.67,1672.555v-1.434A1.383,1.383,0,0,1,1628,1672.5l2.313,0,1.258,3.761h-9.8v-.824Z" transform="translate(-1621.778 -1671.121)"/>
                </g>
                <g id="Groupe_689" data-name="Groupe 689" transform="translate(16.2 74.931)">
                  <rect id="Rectangle_371" data-name="Rectangle 371" class="cls-6" width="5.519" height="1.38" transform="translate(0 5.197)"/>
                  <g id="Groupe_688" data-name="Groupe 688" transform="translate(0.014)">
                    <path id="Tracé_3723" data-name="Tracé 3723" class="cls-10" d="M1747.031,1672.108h-.258a1.32,1.32,0,1,0-2.63,0h-.123l-1.129,3.763h5.519Z" transform="translate(-1742.892 -1670.674)"/>
                  </g>
                </g>
                <g id="Groupe_690" data-name="Groupe 690">
                  <path id="Tracé_3724" data-name="Tracé 3724" class="cls-8" d="M1679.585,1343.111v5.964a5.807,5.807,0,0,1-1.93,2.909l-.089,30.135h-4.274l.066-29.8-6.567.043-.024,29.758h-3.99v-39.008Z" transform="translate(-1656.613 -1309.266)"/>
                  <rect id="Rectangle_372" data-name="Rectangle 372" class="cls-9" width="5.017" height="1.881" transform="translate(5.664 71.223)"/>
                  <rect id="Rectangle_373" data-name="Rectangle 373" class="cls-9" width="5.017" height="1.881" transform="translate(16.325 71.223)"/>
                  <path id="Tracé_3725" data-name="Tracé 3725" class="cls-10" d="M1618.66,1087.333l-5.036-2.026c.448-5.521,5.92-12.032,14.634-12.032s14.184,6.51,14.632,12.032l-5.038,2.026v25.683H1618.66Z" transform="translate(-1613.623 -1073.275)"/>
                </g>
              </g>
              <g id="Head-7" data-name="Head" transform="translate(11.12)">
                <g id="Groupe_691" data-name="Groupe 691">
                  <path id="Tracé_3726" data-name="Tracé 3726" class="cls-12" d="M1702.276,1050.629a12.819,12.819,0,0,1,1.38-.24l.318-3.31,3.516-.128.134,3.4a10.692,10.692,0,0,1,1.687.274,4.009,4.009,0,0,1-.007.507,3.69,3.69,0,0,1-3.668,3.74,3.777,3.777,0,0,1-3.356-4.089C1702.281,1050.747,1702.274,1050.664,1702.276,1050.629Z" transform="translate(-1702.276 -1046.951)"/>
                </g>
              </g>
            </g>
            <g id="Groupe_694" data-name="Groupe 694" transform="translate(3.378)">
              <g id="Groupe_693" data-name="Groupe 693">
                <path id="Tracé_3727" data-name="Tracé 3727" class="cls-13" d="M1629.881,959.051a2.74,2.74,0,1,0,2.608-2.872A2.743,2.743,0,0,0,1629.881,959.051Z" transform="translate(-1629.878 -942.035)"/>
                <path id="Tracé_3728" data-name="Tracé 3728" class="cls-12" d="M1647.5,882.527a10.212,10.212,0,0,0,10.68,9.72h0a10.212,10.212,0,0,0,9.72-10.681l-.179-3.8c-.107-2.271,0-5.483-1.338-7.119-1.976-2.422-5.98-2.759-9.342-2.6h0a10.212,10.212,0,0,0-9.72,10.681Z" transform="translate(-1645.124 -864.927)"/>
                <path id="Tracé_3729" data-name="Tracé 3729" class="cls-12" d="M1790.513,959.77a2.74,2.74,0,1,0,2.608-2.872A2.743,2.743,0,0,0,1790.513,959.77Z" transform="translate(-1770.363 -942.663)"/>
                <g id="Groupe_692" data-name="Groupe 692" transform="translate(6.592 20.964)">
                  <path id="Tracé_3730" data-name="Tracé 3730" class="cls-6" d="M1689.937,1010.79l-7.5-.217s1.1,2.335,2.967,2.655A4.5,4.5,0,0,0,1689.937,1010.79Z" transform="translate(-1682.437 -1010.573)"/>
                </g>
                <path id="Tracé_3731" data-name="Tracé 3731" class="cls-10" d="M1782.906,899.833a10.907,10.907,0,0,0,.959-.74s1.3-3.142.681-5.363a10.843,10.843,0,0,0-1.656-3.494l-2.614,2.367A16.07,16.07,0,0,1,1782.906,899.833Z" transform="translate(-1761.412 -884.366)"/>
                <path id="Tracé_3732" data-name="Tracé 3732" class="cls-10" d="M1647.4,897.546l-2.013-.755s-1.925,2.764-.965,7.525l.238.081S1644.75,899.627,1647.4,897.546Z" transform="translate(-1642.359 -890.099)"/>
                <path id="Tracé_3733" data-name="Tracé 3733" class="cls-10" d="M1656.184,849.223l-2.615,2.339s-10.049,1.054-14.667-.78c-2.232-.886-2.83-1.378-3.408-6.433C1638.594,848.972,1656.188,836.795,1656.184,849.223Z" transform="translate(-1634.789 -843.435)"/>
              </g>
            </g>
          </g>
          <path id="Tracé_3734" data-name="Tracé 3734" d="M1663.679,976.058a.5.5,0,0,1-.5.5h-2.258a.5.5,0,0,1-.5-.5h0a.5.5,0,0,1,.5-.5h2.258a.5.5,0,0,1,.5.5Z" transform="translate(-1653.21 -958.985)"/>
          <path id="Tracé_3735" data-name="Tracé 3735" d="M1739.658,976.058a.5.5,0,0,1-.5.5H1736.9a.5.5,0,0,1-.5-.5h0a.5.5,0,0,1,.5-.5h2.258a.5.5,0,0,1,.5.5Z" transform="translate(-1719.659 -958.985)"/>
        </g>
        <path id="Tracé_4036" data-name="Tracé 4036" class="cls-11" d="M243.917-131.166v18.4h-5.079v-18.4h-7.026v-4.686H250.94v4.686Z" transform="translate(-224.841 173.165)"/>
      </g>
      <g id="Groupe_918" data-name="Groupe 918" transform="translate(276.057 341.256)">
        <g id="Girl-2" data-name="Girl" transform="translate(0)">
          <g id="Body-12" data-name="Body" transform="translate(0 28.796)">
            <rect id="Rectangle_374" data-name="Rectangle 374" class="cls-12" width="3.01" height="3.888" transform="translate(20.704 72.827)"/>
            <rect id="Rectangle_375" data-name="Rectangle 375" class="cls-12" width="3.01" height="3.888" transform="translate(9.917 72.827)"/>
            <g id="Groupe_696" data-name="Groupe 696" transform="translate(19.405 74.987)">
              <rect id="Rectangle_376" data-name="Rectangle 376" class="cls-6" width="9.783" height="1.38" transform="translate(0.045 5.115)"/>
              <path id="Tracé_3737" data-name="Tracé 3737" class="cls-10" d="M2071.8,1060.544v-1.434a1.4,1.4,0,0,0-1.351,1.379l-2.321-.011-1.266,3.748h9.828v-.8Z" transform="translate(-2066.863 -1059.11)"/>
            </g>
            <g id="Groupe_698" data-name="Groupe 698" transform="translate(8.492 74.904)">
              <rect id="Rectangle_377" data-name="Rectangle 377" class="cls-6" width="5.519" height="1.38" transform="translate(0.045 5.197)"/>
              <g id="Groupe_697" data-name="Groupe 697">
                <path id="Tracé_3738" data-name="Tracé 3738" class="cls-10" d="M1981.243,1059.886h.258a1.32,1.32,0,1,1,2.629,0h.123l1.129,3.763h-5.519Z" transform="translate(-1979.863 -1058.451)"/>
              </g>
            </g>
            <g id="Groupe_699" data-name="Groupe 699">
              <path id="Tracé_3739" data-name="Tracé 3739" class="cls-8" d="M1969.222,730.889v5.99a5.747,5.747,0,0,0,1.914,2.9l.073,30.122h4.274l-.065-29.788,6.567.036.024,29.752h4.021V730.889Z" transform="translate(-1962.064 -697.07)"/>
              <rect id="Rectangle_378" data-name="Rectangle 378" class="cls-9" width="5.017" height="1.881" transform="translate(19.575 70.946)"/>
              <rect id="Rectangle_379" data-name="Rectangle 379" class="cls-9" width="5.017" height="1.881" transform="translate(8.914 70.946)"/>
              <path id="Tracé_3741" data-name="Tracé 3741" class="cls-12" d="M1912.785,576.18l3.745-.363a141.15,141.15,0,0,1-.582-14.693c.156-5.691,2.04-15.14,2.059-15.235l-3.689-.74a120.2,120.2,0,0,0-2.131,15.872A142.072,142.072,0,0,0,1912.785,576.18Z" transform="translate(-1912.157 -534.627)"/>
              <path id="Tracé_3742" data-name="Tracé 3742" class="cls-10" d="M1943.2,475.322l5.021-2.026c-.448-5.521-5.927-12.032-14.641-12.032s-14.173,6.51-14.62,12.032l5.05,2.026v25.656H1943.2Z" transform="translate(-1918.108 -461.264)"/>
            </g>
            <path id="Tracé_3999" data-name="Tracé 3999" class="cls-11" d="M14.247,22.767V13.629H5.011v9.138H0V0H5.011V9.011h9.236V0h5.008V22.767Z" transform="translate(11.485 13.043) rotate(17)"/>
            <path id="Tracé_4000" data-name="Tracé 4000" class="cls-12" d="M5.222,31.031l-3.745-.363a141.067,141.067,0,0,0,.582-14.693C1.9,10.284.019.835,0,.74L3.689,0A120.227,120.227,0,0,1,5.82,15.872,142.2,142.2,0,0,1,5.222,31.031Z" transform="matrix(0.996, -0.087, 0.087, 0.996, 25.716, 12.613)"/>
          </g>
          <g id="Head-8" data-name="Head" transform="translate(0.125)">
            <g id="Groupe_700" data-name="Groupe 700">
              <path id="Tracé_3743" data-name="Tracé 3743" class="cls-12" d="M2014.386,438.618a12.728,12.728,0,0,0-1.38-.24l-.318-3.31-3.516-.128-.134,3.4a10.727,10.727,0,0,0-1.687.274,3.92,3.92,0,0,0,.007.507,3.689,3.689,0,0,0,3.668,3.74,3.777,3.777,0,0,0,3.356-4.088C2014.382,438.736,2014.389,438.653,2014.386,438.618Z" transform="translate(-1995.532 -409.446)"/>
              <path id="Tracé_3744" data-name="Tracé 3744" class="cls-12" d="M1973.189,257.916a10.211,10.211,0,0,1-10.042,10.378h0a10.211,10.211,0,0,1-10.378-10.042l-.063-3.808a10.212,10.212,0,0,1,10.042-10.378h0a10.211,10.211,0,0,1,10.378,10.042Z" transform="translate(-1947.744 -242.512)"/>
              <path id="Tracé_3745" data-name="Tracé 3745" class="cls-15" d="M1924.519,237.957s15.636.62,10.739,18.55l7.75-4.356c1.023-9.7-5.2-24.22-18.516-19.576-7.609-.255-11.87,8.581-11.281,20.3l8.689,3.278A42.264,42.264,0,0,1,1924.519,237.957Z" transform="translate(-1913.157 -231.682)"/>
              <path id="Tracé_3746" data-name="Tracé 3746" class="cls-19" d="M1935.68,339.432a2.746,2.746,0,0,1-.09-5.492Z" transform="translate(-1930.419 -321.114)"/>
            </g>
            <g id="Groupe_701" data-name="Groupe 701" transform="translate(9.717 14.562)">
              <path id="Tracé_3747" data-name="Tracé 3747" class="cls-6" d="M2013.233,389.571l-8.854-.165s1.5,3.159,4.367,3.159A4.88,4.88,0,0,0,2013.233,389.571Z" transform="translate(-2002.655 -384.185)"/>
              <path id="Tracé_3748" data-name="Tracé 3748" d="M2066.634,349.307a1.158,1.158,0,1,0,.789-1.486A1.191,1.191,0,0,0,2066.634,349.307Z" transform="translate(-2057.06 -347.781)"/>
              <path id="Tracé_3749" data-name="Tracé 3749" d="M1990.678,349.307a1.157,1.157,0,1,0,.789-1.486A1.19,1.19,0,0,0,1990.678,349.307Z" transform="translate(-1990.631 -347.781)"/>
            </g>
            <g id="Groupe_702" data-name="Groupe 702" transform="translate(11.764 16.204)">
              <path id="Tracé_3750" data-name="Tracé 3750" class="cls-16" d="M2045.813,366.663a.241.241,0,1,0,.2-.269A.238.238,0,0,0,2045.813,366.663Z" transform="translate(-2040.936 -365.699)"/>
              <path id="Tracé_3751" data-name="Tracé 3751" class="cls-16" d="M2036.312,361.582a.176.176,0,1,0,.147-.2A.174.174,0,0,0,2036.312,361.582Z" transform="translate(-2032.628 -361.32)"/>
              <path id="Tracé_3752" data-name="Tracé 3752" class="cls-16" d="M2029.019,369.281a.24.24,0,1,0,.2-.269A.237.237,0,0,0,2029.019,369.281Z" transform="translate(-2026.249 -367.989)"/>
              <path id="Tracé_3753" data-name="Tracé 3753" class="cls-16" d="M2024.337,361.111a.209.209,0,1,0,.175-.234A.207.207,0,0,0,2024.337,361.111Z" transform="translate(-2022.154 -360.874)"/>
              <path id="Tracé_3754" data-name="Tracé 3754" class="cls-16" d="M2016.054,367.512a.247.247,0,1,0,.207-.276A.244.244,0,0,0,2016.054,367.512Z" transform="translate(-2014.91 -366.435)"/>
              <path id="Tracé_3755" data-name="Tracé 3755" class="cls-16" d="M2006.952,372.722a.2.2,0,1,0,.164-.219A.193.193,0,0,0,2006.952,372.722Z" transform="translate(-2006.95 -371.043)"/>
              <path id="Tracé_3756" data-name="Tracé 3756" class="cls-16" d="M2056.362,372.423a.213.213,0,1,0,.178-.238A.21.21,0,0,0,2056.362,372.423Z" transform="translate(-2050.162 -370.764)"/>
              <path id="Tracé_3757" data-name="Tracé 3757" class="cls-16" d="M2054.955,363.4a.213.213,0,1,0,.178-.238A.21.21,0,0,0,2054.955,363.4Z" transform="translate(-2048.932 -362.869)"/>
              <path id="Tracé_3758" data-name="Tracé 3758" class="cls-16" d="M2067.012,370.763a.213.213,0,1,0,.178-.238A.21.21,0,0,0,2067.012,370.763Z" transform="translate(-2059.477 -369.312)"/>
            </g>
          </g>
        </g>
      </g>
      <g id="Groupe_919" data-name="Groupe 919" transform="translate(180.458 336.405)">
        <g id="Girl-3" data-name="Girl" transform="translate(2.842)">
          <g id="Body-13" data-name="Body" transform="translate(0 7.859)">
            <path id="Tracé_3698" data-name="Tracé 3698" class="cls-10" d="M2335.366,651.707c1.977-4.222,5.6-8.414,11.979-8.385l0-.025s.091,0,.149,0c.232.011.447.028.672.048s.436.03.668.054c.059.006.137.015.136.018l0,.024c8.479,1.237,10.78,9.117,11.514,14.248a38.06,38.06,0,0,1,.9,12.722c-18.117.887-27.819-2.01-27.819-2.01S2332.14,662.5,2335.366,651.707Z" transform="translate(-2333.25 -643.297)"/>
          </g>
          <g id="Head-9" data-name="Head" transform="translate(1.649)">
            <g id="Groupe_674" data-name="Groupe 674" transform="translate(0.517 9.328)">
              <path id="Tracé_3699" data-name="Tracé 3699" class="cls-12" d="M2361.168,669.474a10.211,10.211,0,0,0,9.227,11.109h0c5.615.52,10.271-4.988,10.791-10.6l.669-2.415a10.212,10.212,0,0,0-9.227-11.109h0a10.212,10.212,0,0,0-11.11,9.227Z" transform="translate(-2359.793 -656.236)"/>
              <path id="Tracé_3700" data-name="Tracé 3700" class="cls-10" d="M2495.6,749.695s-5.452,4.549-4.934,1.048.587-12.69.587-12.69l4.593-.017Z" transform="translate(-2473.057 -727.622)"/>
              <path id="Tracé_3701" data-name="Tracé 3701" class="cls-12" d="M2490.573,758.055a2.74,2.74,0,1,0,2.981-2.482A2.743,2.743,0,0,0,2490.573,758.055Z" transform="translate(-2472.995 -742.949)"/>
              <path id="Tracé_3702" data-name="Tracé 3702" class="cls-10" d="M2423.2,679.55s3.662-.43,3.975-3.015a93.688,93.688,0,0,0,.834-11.767s-1.152-5.916-2.494-7.228c-1.733-1.694-9.358-2.527-9.358-2.527S2425.5,660.352,2423.2,679.55Z" transform="translate(-2407.928 -655.013)"/>
              <path id="Tracé_3703" data-name="Tracé 3703" class="cls-10" d="M2362.036,667.869l-10.961,10.373s-1.078-2.216-.246-3.588a16,16,0,0,1,1.451-2.019C2357.716,666.123,2362.036,667.869,2362.036,667.869Z" transform="translate(-2350.514 -666.07)"/>
            </g>
            <g id="Groupe_675" data-name="Groupe 675">
              <path id="Tracé_3704" data-name="Tracé 3704" class="cls-5" d="M2386.62,600.935c.928-3.185-1.644-12.6-1.489-16.029.113-2.479-1.918-3.533-3.408-3.961-1.894-.544-4.457-.47-5.509,1.213-1.3,2.081-4.191,3.86-5.032,4.393-2.566,1.628-6.434,5.29-7.352,8.439Z" transform="translate(-2361.642 -580.644)"/>
              <path id="Tracé_3705" data-name="Tracé 3705" class="cls-5" d="M2346.4,675.093a.407.407,0,0,0,.351.443l25.437,6.086a.408.408,0,0,0,.507-.249l.173-4.774a.407.407,0,0,0-.351-.443l-23.469-5.542a.407.407,0,0,0-.508.249Z" transform="translate(-2346.394 -659.318)"/>
            </g>
          </g>
        </g>
        <g id="Groupe_685" data-name="Groupe 685" transform="translate(0 21.222)">
          <g id="Character-7" data-name="Character" transform="translate(0 10.219)">
            <g id="Body-14" data-name="Body">
              <g id="Body-15" data-name="Body" transform="translate(4.753 3.302)">
                <g id="Groupe_677" data-name="Groupe 677" transform="translate(0 42.343)">
                  <path id="Tracé_3706" data-name="Tracé 3706" class="cls-12" d="M2392.249,1436.362h-3.01l-.5-3.888h3.01Z" transform="translate(-2383.688 -1402.715)"/>
                  <g id="Groupe_676" data-name="Groupe 676" transform="translate(0 31.892)">
                    <rect id="Rectangle_363" data-name="Rectangle 363" class="cls-6" width="9.783" height="1.38" transform="translate(0 5.141)"/>
                    <path id="Tracé_3707" data-name="Tracé 3707" class="cls-7" d="M2353.377,1450.918v-1.434a1.4,1.4,0,0,1,1.351,1.378l2.322,0,1.266,3.761h-9.831v-.825Z" transform="translate(-2348.485 -1449.484)"/>
                  </g>
                  <path id="Tracé_3708" data-name="Tracé 3708" class="cls-8" d="M2381.88,1195.221s-1.138,11.814-1.141,15.752c0,3.5,1.117,14.006,1.117,14.006h-3.991s-1.129-10.536-1.129-14.048c0-3.917,1.129-15.668,1.129-15.668Z" transform="translate(-2373.193 -1195.221)"/>
                  <rect id="Rectangle_364" data-name="Rectangle 364" class="cls-9" width="5.017" height="1.881" transform="translate(4.139 28.128)"/>
                </g>
                <g id="Groupe_679" data-name="Groupe 679" transform="translate(8.153 42.343)">
                  <rect id="Rectangle_365" data-name="Rectangle 365" class="cls-12" width="3.01" height="3.888" transform="translate(5.519 29.758)"/>
                  <g id="Groupe_678" data-name="Groupe 678" transform="translate(0 31.892)">
                    <rect id="Rectangle_366" data-name="Rectangle 366" class="cls-6" width="9.783" height="1.38" transform="translate(0 5.141)"/>
                    <path id="Tracé_3709" data-name="Tracé 3709" class="cls-10" d="M2418.377,1450.918v-1.434a1.4,1.4,0,0,1,1.352,1.378l2.321,0,1.266,3.761h-9.83v-.825Z" transform="translate(-2413.485 -1449.484)"/>
                  </g>
                  <path id="Tracé_3710" data-name="Tracé 3710" class="cls-8" d="M2458.516,1195.221l-.008,29.758h-4.022v-29.716Z" transform="translate(-2449.342 -1195.221)"/>
                  <rect id="Rectangle_367" data-name="Rectangle 367" class="cls-9" width="5.017" height="1.881" transform="translate(4.641 28.128)"/>
                </g>
                <path id="Tracé_3711" data-name="Tracé 3711" class="cls-8" d="M2399.875,1113.474v8.153a3.763,3.763,0,0,1-3.763,3.763h-11.289v-11.916Z" transform="translate(-2380.265 -1081.385)"/>
                <path id="Tracé_3712" data-name="Tracé 3712" class="cls-10" d="M2378.485,878.94s-.017-18.04,8.442-21.3c8.826.233,8.617,14.058,8.617,14.058v25.683h-17.058Z" transform="translate(-2374.722 -857.638)"/>
              </g>
              <g id="Head-10" data-name="Head" transform="translate(14.883)">
                <g id="Groupe_680" data-name="Groupe 680">
                  <path id="Tracé_3713" data-name="Tracé 3713" class="cls-12" d="M2429.247,835.5l.317-4.061,3.516-.128.374,3.535Z" transform="translate(-2429.247 -831.314)"/>
                </g>
              </g>
              <path id="Tracé_4001" data-name="Tracé 4001" class="cls-11" d="M260.773-112.9a11.442,11.442,0,0,1-11.836-11.485v-.064A11.546,11.546,0,0,1,260.837-136a11.44,11.44,0,0,1,11.834,11.483v.064A11.547,11.547,0,0,1,260.773-112.9Zm6.761-11.549a6.782,6.782,0,0,0-6.761-7.017,6.677,6.677,0,0,0-6.7,6.953v.064a6.784,6.784,0,0,0,6.764,7.019,6.679,6.679,0,0,0,6.7-6.956Z" transform="translate(-248.937 152.286)"/>
            </g>
            <g id="Groupe_681" data-name="Groupe 681" transform="translate(14.304 17.197)">
              <path id="Tracé_3714" data-name="Tracé 3714" class="cls-12" d="M2428.208,998.086l-3.576-1.171A141.088,141.088,0,0,0,2428.4,982.7a105.284,105.284,0,0,0,1.256-13.567c.041-1.064,3.8-.887,3.761.167a107.544,107.544,0,0,1-1.323,14.119A141.991,141.991,0,0,1,2428.208,998.086Z" transform="translate(-2424.633 -968.419)"/>
            </g>
          </g>
          <path id="Tracé_3715" data-name="Tracé 3715" class="cls-12" d="M2424.82,859.495s-2.355,3.043-5.445,2.216l1.739-2.216Z" transform="translate(-2405.73 -845.741)"/>
          <g id="Groupe_684" data-name="Groupe 684" transform="translate(7.362)">
            <g id="Groupe_682" data-name="Groupe 682">
              <path id="Tracé_3716" data-name="Tracé 3716" d="M2370.5,749.889a.881.881,0,0,0-.2-.045.989.989,0,0,0-1.015,1.089,1.323,1.323,0,0,0,.793,1.268.9.9,0,0,0,.2.046.986.986,0,0,0,1.013-1.087A1.325,1.325,0,0,0,2370.5,749.889Z" transform="translate(-2369.287 -749.838)"/>
            </g>
            <g id="Groupe_683" data-name="Groupe 683" transform="translate(9.016 1.13)">
              <path id="Tracé_3717" data-name="Tracé 3717" d="M2442.378,758.9a.89.89,0,0,0-.2-.046.989.989,0,0,0-1.015,1.089,1.324,1.324,0,0,0,.794,1.268.9.9,0,0,0,.2.046.987.987,0,0,0,1.013-1.087A1.326,1.326,0,0,0,2442.378,758.9Z" transform="translate(-2441.168 -758.847)"/>
            </g>
            <path id="Tracé_3718" data-name="Tracé 3718" class="cls-6" d="M2386.644,793.294l-7.469-.7s.947,2.4,2.788,2.843A4.5,4.5,0,0,0,2386.644,793.294Z" transform="translate(-2377.934 -787.228)"/>
          </g>
        </g>
      </g>
      <g id="Groupe_920" data-name="Groupe 920" transform="translate(90.013 300.192)">
        <g id="Groupe_765" data-name="Groupe 765" transform="translate(0 0)">
          <g id="Character-8" data-name="Character">
            <g id="Body-16" data-name="Body" transform="translate(0 28.486)">
              <g id="Groupe_760" data-name="Groupe 760" transform="translate(6.662 34.146)">
                <rect id="Rectangle_397" data-name="Rectangle 397" class="cls-18" width="3.859" height="34.862" transform="translate(15.387 12.136)"/>
                <rect id="Rectangle_398" data-name="Rectangle 398" class="cls-18" width="3.859" height="34.862" transform="translate(2.927 12.108)"/>
                <g id="Groupe_757" data-name="Groupe 757" transform="translate(14.189 45.212)">
                  <rect id="Rectangle_399" data-name="Rectangle 399" class="cls-6" width="11.709" height="1.331" transform="translate(0.048 5.75)"/>
                  <path id="Tracé_3914" data-name="Tracé 3914" class="cls-10" d="M377.1,2514.265v-1.589a1.708,1.708,0,0,0-1.723,1.625h-2.982l-1.2,4.125h11.757v-.968Z" transform="translate(-371.196 -2512.676)"/>
                </g>
                <g id="Groupe_758" data-name="Groupe 758" transform="translate(1.416 45.248)">
                  <rect id="Rectangle_400" data-name="Rectangle 400" class="cls-6" width="7.052" height="1.331" transform="translate(0.048 5.714)"/>
                  <path id="Tracé_3915" data-name="Tracé 3915" class="cls-10" d="M280.518,2514.534h-.275a1.672,1.672,0,0,0-3.339,0h-.245l-1.464,4.125h7.052Z" transform="translate(-275.196 -2512.945)"/>
                </g>
                <g id="Groupe_759" data-name="Groupe 759">
                  <path id="Tracé_3916" data-name="Tracé 3916" class="cls-8" d="M264.556,2172.889v6.346a5.874,5.874,0,0,0,2.262,3.029l.107,4.995h5.343l-.077-4.64,7.01.017.028,4.623h5.019v-14.37Z" transform="translate(-264.556 -2172.889)"/>
                  <rect id="Rectangle_401" data-name="Rectangle 401" class="cls-9" width="6.254" height="1.996" transform="translate(1.863 13.705)"/>
                  <rect id="Rectangle_402" data-name="Rectangle 402" class="cls-9" width="6.121" height="1.996" transform="translate(14.104 13.705)"/>
                </g>
              </g>
              <g id="Groupe_761" data-name="Groupe 761">
                <path id="Tracé_3917" data-name="Tracé 3917" class="cls-18" d="M419.029,2033.067l-3.973-.386a149.664,149.664,0,0,0,.617-15.587c-.166-6.037-2.164-16.061-2.184-16.162l3.914-.785c.085.424,2.086,10.457,2.26,16.837A150.756,150.756,0,0,1,419.029,2033.067Z" transform="translate(-387.01 -1988.986)"/>
                <path id="Tracé_3918" data-name="Tracé 3918" class="cls-18" d="M215.157,2033.067l3.973-.386a149.683,149.683,0,0,1-.617-15.587c.166-6.037,2.164-16.061,2.184-16.162l-3.914-.785c-.085.424-2.085,10.457-2.26,16.837A150.837,150.837,0,0,0,215.157,2033.067Z" transform="translate(-214.49 -1988.986)"/>
                <path id="Tracé_3919" data-name="Tracé 3919" class="cls-10" d="M248.009,1931.176l5.327-2.149c-.475-5.857-6.288-12.764-15.532-12.764s-15.035,6.907-15.51,12.764l5.357,2.149v24.556h20.358Z" transform="translate(-221.256 -1916.263)"/>
              </g>
            </g>
            <g id="Groupe_764" data-name="Groupe 764" transform="translate(2.839)">
              <path id="Tracé_3920" data-name="Tracé 3920" class="cls-18" d="M318.148,1893.84a13.548,13.548,0,0,0-1.464-.255l-.337-3.511-3.73-.136-.142,3.606a11.4,11.4,0,0,0-1.79.291,4.233,4.233,0,0,0,.007.538,3.914,3.914,0,0,0,3.891,3.968,4.007,4.007,0,0,0,3.56-4.337C318.143,1893.966,318.15,1893.878,318.148,1893.84Z" transform="translate(-300.719 -1864.955)"/>
              <g id="Groupe_762" data-name="Groupe 762">
                <path id="Tracé_3921" data-name="Tracé 3921" class="cls-18" d="M403.173,1796.77a2.907,2.907,0,1,1-2.893-2.927A2.91,2.91,0,0,1,403.173,1796.77Z" transform="translate(-375.866 -1781.646)"/>
                <path id="Tracé_3922" data-name="Tracé 3922" class="cls-18" d="M278.444,1720.5a11.217,11.217,0,0,1-11.02,11.367h0a11.217,11.217,0,0,1-11.035-11.353l.131-3.093a11.107,11.107,0,0,1,10.887-11.367h0a11.107,11.107,0,0,1,10.9,11.352Z" transform="translate(-253.653 -1705.541)"/>
                <path id="Tracé_3923" data-name="Tracé 3923" class="cls-18" d="M241.637,1800.191a2.907,2.907,0,1,1-2.893-2.926A2.91,2.91,0,0,1,241.637,1800.191Z" transform="translate(-235.824 -1784.612)"/>
                <path id="Tracé_3924" data-name="Tracé 3924" class="cls-20" d="M256.45,1711.977c.22-3.464,3.04-9.454,10.756-9.8,7.688.266,10.871,6.057,11.128,9.518.082,1.115.088,4.428.088,4.428l-1.2.092s.453-10.2-5.686-8.439a18.441,18.441,0,0,1-4.263.812,15.459,15.459,0,0,1-4.071-.6c-6.158-1.7-5.611,8.5-5.612,8.5l-1.207-.079S256.379,1713.093,256.45,1711.977Z" transform="translate(-253.649 -1702.175)"/>
              </g>
              <g id="Groupe_763" data-name="Groupe 763" transform="translate(7.736 15.116)">
                <path id="Tracé_3925" data-name="Tracé 3925" class="cls-6" d="M317.1,1854.582l-9.392-.175s1.595,3.351,4.633,3.351A5.177,5.177,0,0,0,317.1,1854.582Z" transform="translate(-305.883 -1849.267)"/>
                <path id="Tracé_3926" data-name="Tracé 3926" d="M369.97,1817.4a1.228,1.228,0,1,0,.837-1.576A1.263,1.263,0,0,0,369.97,1817.4Z" transform="translate(-359.814 -1815.781)"/>
                <path id="Tracé_3927" data-name="Tracé 3927" d="M294.013,1817.4a1.228,1.228,0,1,0,.837-1.576A1.263,1.263,0,0,0,294.013,1817.4Z" transform="translate(-293.964 -1815.781)"/>
              </g>
            </g>
          </g>
        </g>
        <path id="Tracé_4002" data-name="Tracé 4002" class="cls-11" d="M274.525-114.443l-10.366-13.609v13.609h-4.651v-21.409h4.343l10.034,13.183v-13.183h4.646v21.409Z" transform="translate(-252.398 172.916)"/>
      </g>
      <g id="Groupe_921" data-name="Groupe 921" transform="translate(68.253 39.723)">
        <g id="Groupe_766" data-name="Groupe 766">
          <path id="Tracé_3928" data-name="Tracé 3928" class="cls-21" d="M383.078-167.08a6.231,6.231,0,0,1-3.253-.879c-3.907-2.354-4.351-8.806-.991-14.384s9.273-8.2,13.179-5.845a7.272,7.272,0,0,1,3.246,6.117A14.756,14.756,0,0,1,393-173.8a14.762,14.762,0,0,1-6.254,5.857A8.839,8.839,0,0,1,383.078-167.08Zm5.663-20.526c-2.941,0-6.4,2.282-8.654,6.019-2.943,4.885-2.722,10.437.493,12.373a5.864,5.864,0,0,0,5.558-.065,13.292,13.292,0,0,0,5.612-5.282,13.276,13.276,0,0,0,2.047-7.43,5.86,5.86,0,0,0-2.54-4.944A4.81,4.81,0,0,0,388.741-187.606Z" transform="translate(-376.577 189.052)"/>
        </g>
        <g id="Groupe_767" data-name="Groupe 767" transform="translate(5.953 2.475)">
          <path id="Tracé_3929" data-name="Tracé 3929" class="cls-21" d="M386.517-165.2a6.234,6.234,0,0,1-3.253-.879.733.733,0,0,1-.249-1.005.732.732,0,0,1,1.005-.249,5.858,5.858,0,0,0,5.558-.065,13.292,13.292,0,0,0,5.612-5.282,13.292,13.292,0,0,0,2.047-7.43,5.863,5.863,0,0,0-2.54-4.945.732.732,0,0,1-.249-1,.731.731,0,0,1,1.005-.25A7.274,7.274,0,0,1,398.7-180.2a14.772,14.772,0,0,1-2.255,8.267,14.77,14.77,0,0,1-6.255,5.857A8.84,8.84,0,0,1,386.517-165.2Z" transform="translate(-382.909 186.419)"/>
        </g>
        <g id="Groupe_768" data-name="Groupe 768" transform="translate(2.584 2.838)">
          <path id="Tracé_3930" data-name="Tracé 3930" class="cls-21" d="M382.664-170.562a3.151,3.151,0,0,1-1.648-.442c-1.187-.716-1.784-2.181-1.678-4.127a12.722,12.722,0,0,1,1.909-5.676,12.712,12.712,0,0,1,4.127-4.339c1.671-1,3.245-1.16,4.433-.445s1.784,2.181,1.677,4.127a12.708,12.708,0,0,1-1.908,5.676,12.713,12.713,0,0,1-4.127,4.339A5.506,5.506,0,0,1,382.664-170.562Zm5.494-14a4.1,4.1,0,0,0-2.031.673,11.234,11.234,0,0,0-3.626,3.84,11.235,11.235,0,0,0-1.7,5c-.074,1.358.279,2.376.971,2.792s1.757.256,2.924-.446a11.26,11.26,0,0,0,3.627-3.84,11.263,11.263,0,0,0,1.7-5c.074-1.359-.28-2.377-.972-2.792A1.7,1.7,0,0,0,388.158-184.564Z" transform="translate(-379.325 186.033)"/>
        </g>
        <g id="Groupe_769" data-name="Groupe 769" transform="translate(3.195 19.902)">
          <path id="Tracé_3931" data-name="Tracé 3931" class="cls-21" d="M383.466-164.871a.724.724,0,0,1-.358-.094l-2.759-1.549a.732.732,0,0,1-.28-1,.732.732,0,0,1,1-.28l2.759,1.55a.733.733,0,0,1,.28,1A.732.732,0,0,1,383.466-164.871Z" transform="translate(-379.975 167.885)"/>
        </g>
        <g id="Groupe_770" data-name="Groupe 770" transform="translate(14.326 0.758)">
          <path id="Tracé_3932" data-name="Tracé 3932" class="cls-21" d="M395.606-185.063a.723.723,0,0,1-.357-.094l-3.061-1.718a.73.73,0,0,1-.279-1,.73.73,0,0,1,1-.28l3.061,1.718a.73.73,0,0,1,.279,1A.73.73,0,0,1,395.606-185.063Z" transform="translate(-391.814 188.245)"/>
        </g>
      </g>
      <g id="Groupe_922" data-name="Groupe 922" transform="translate(379.837 111.493)">
        <g id="Groupe_833" data-name="Groupe 833" transform="translate(0 14.257)">
          <path id="Tracé_3983" data-name="Tracé 3983" class="cls-21" d="M367.233-119.878H362.52a3.648,3.648,0,0,1-3.643-3.645v-4.712a3.648,3.648,0,0,1,3.643-3.644h4.713a3.648,3.648,0,0,1,3.644,3.644v4.712A3.649,3.649,0,0,1,367.233-119.878Zm-4.713-10.369a2.014,2.014,0,0,0-2.011,2.012v4.712a2.013,2.013,0,0,0,2.011,2.012h4.713a2.014,2.014,0,0,0,2.011-2.012v-4.712a2.014,2.014,0,0,0-2.011-2.012Z" transform="translate(-358.877 131.88)"/>
        </g>
        <g id="Groupe_834" data-name="Groupe 834" transform="translate(14.256 14.257)">
          <path id="Tracé_3984" data-name="Tracé 3984" class="cls-21" d="M380.824-119.878H376.11a3.648,3.648,0,0,1-3.643-3.645v-4.712a3.648,3.648,0,0,1,3.643-3.644h4.714a3.648,3.648,0,0,1,3.643,3.644v4.712A3.648,3.648,0,0,1,380.824-119.878Zm-4.714-10.369a2.014,2.014,0,0,0-2.011,2.012v4.712a2.013,2.013,0,0,0,2.011,2.012h4.714a2.013,2.013,0,0,0,2.011-2.012v-4.712a2.014,2.014,0,0,0-2.011-2.012Z" transform="translate(-372.467 131.88)"/>
        </g>
        <g id="Groupe_835" data-name="Groupe 835">
          <rect id="Rectangle_403" data-name="Rectangle 403" class="cls-21" width="10.368" height="10.368" rx="2.695" transform="translate(0.816 0.817)"/>
          <path id="Tracé_3985" data-name="Tracé 3985" class="cls-21" d="M367.233-133.469H362.52a3.648,3.648,0,0,1-3.643-3.644v-4.713a3.648,3.648,0,0,1,3.643-3.644h4.713a3.648,3.648,0,0,1,3.644,3.644v4.713A3.648,3.648,0,0,1,367.233-133.469Zm-4.713-10.368a2.013,2.013,0,0,0-2.011,2.011v4.713a2.014,2.014,0,0,0,2.011,2.012h4.713a2.014,2.014,0,0,0,2.011-2.012v-4.713a2.013,2.013,0,0,0-2.011-2.011Z" transform="translate(-358.877 145.471)"/>
        </g>
        <g id="Groupe_836" data-name="Groupe 836" transform="translate(14.256)">
          <path id="Tracé_3986" data-name="Tracé 3986" class="cls-21" d="M380.824-133.469H376.11a3.648,3.648,0,0,1-3.643-3.644v-4.713a3.648,3.648,0,0,1,3.643-3.644h4.714a3.648,3.648,0,0,1,3.643,3.644v4.713A3.648,3.648,0,0,1,380.824-133.469Zm-4.714-10.368a2.013,2.013,0,0,0-2.011,2.011v4.713a2.014,2.014,0,0,0,2.011,2.012h4.714a2.014,2.014,0,0,0,2.011-2.012v-4.713a2.013,2.013,0,0,0-2.011-2.011Z" transform="translate(-372.467 145.471)"/>
        </g>
      </g>
      <g id="Groupe_923" data-name="Groupe 923" transform="translate(206.549 154.89)">
        <g id="Groupe_772" data-name="Groupe 772" transform="translate(1.677)">
          <path id="Tracé_3933" data-name="Tracé 3933" class="cls-21" d="M275.182-247.124a.912.912,0,0,1-.907-.927,13.491,13.491,0,0,0-13.161-13.785,13.473,13.473,0,0,0-6.619,1.561.906.906,0,0,1-1.226-.376.906.906,0,0,1,.376-1.225,15.236,15.236,0,0,1,7.511-1.772,15.191,15.191,0,0,1,10.705,4.727,15.187,15.187,0,0,1,4.226,10.911A.906.906,0,0,1,275.182-247.124Z" transform="translate(-253.164 263.652)"/>
        </g>
        <g id="Groupe_773" data-name="Groupe 773" transform="translate(4.647 8.27)">
          <path id="Tracé_3934" data-name="Tracé 3934" class="cls-21" d="M267.7-247.012a.912.912,0,0,1-.907-.928,6.59,6.59,0,0,0-1.836-4.74,6.593,6.593,0,0,0-4.65-2.054,6.6,6.6,0,0,0-3.262.768.9.9,0,0,1-1.226-.375.907.907,0,0,1,.375-1.226,8.374,8.374,0,0,1,4.155-.98,8.394,8.394,0,0,1,5.919,2.615,8.4,8.4,0,0,1,2.338,6.033A.907.907,0,0,1,267.7-247.012Z" transform="translate(-255.715 256.549)"/>
        </g>
        <g id="Groupe_774" data-name="Groupe 774" transform="translate(15.719 12.52)">
          <path id="Tracé_3935" data-name="Tracé 3935" class="cls-21" d="M268.793-244.91a3.8,3.8,0,0,1-2.469-.835,3.082,3.082,0,0,1-1.1-2.478,5.235,5.235,0,0,1,4.333-4.578,4.082,4.082,0,0,1,3.45.736,3.076,3.076,0,0,1,1.1,2.479,5.23,5.23,0,0,1-4.333,4.577A5,5,0,0,1,268.793-244.91Zm1.753-6.176a3.284,3.284,0,0,0-.633.064,3.478,3.478,0,0,0-2.875,2.842,1.264,1.264,0,0,0,.452,1.048,2.294,2.294,0,0,0,1.93.346,3.476,3.476,0,0,0,2.875-2.841,1.26,1.26,0,0,0-.453-1.048A1.992,1.992,0,0,0,270.547-251.086Z" transform="translate(-265.225 252.899)"/>
        </g>
        <g id="Groupe_775" data-name="Groupe 775" transform="translate(0 1.556)">
          <path id="Tracé_3936" data-name="Tracé 3936" class="cls-21" d="M256.107-252.522q-.117,0-.238-.01a4.209,4.209,0,0,1-3.047-2.012c-1.4-2.1-1.472-5.01-.157-6.633a2.893,2.893,0,0,1,2.481-1.133,4.23,4.23,0,0,1,3.2,2.174c1.375,2.195,1.337,5.118-.09,6.655A2.9,2.9,0,0,1,256.107-252.522Zm-1.14-7.98a1.124,1.124,0,0,0-.893.466c-.815,1.006-.7,3.06.255,4.484a2.479,2.479,0,0,0,1.685,1.213,1.085,1.085,0,0,0,.91-.375c.772-.831.909-2.822-.118-4.459a2.516,2.516,0,0,0-1.77-1.327Z" transform="translate(-251.724 262.316)"/>
        </g>
      </g>
      <g id="Groupe_924" data-name="Groupe 924" transform="translate(208.7 455.7)">
        <g id="Groupe_840" data-name="Groupe 840" transform="translate(0 4.218)">
          <g id="Groupe_838" data-name="Groupe 838">
            <path id="Tracé_3987" data-name="Tracé 3987" class="cls-21" d="M445.774-127.723a1.137,1.137,0,0,1-.806-.334l-6.373-6.373a1.141,1.141,0,0,1-.334-.807,1.142,1.142,0,0,1,.334-.808l6.373-6.371a1.139,1.139,0,0,1,1.614,0,1.14,1.14,0,0,1,0,1.613l-5.566,5.566,5.566,5.566a1.14,1.14,0,0,1,0,1.613A1.14,1.14,0,0,1,445.774-127.723Z" transform="translate(-438.26 142.752)"/>
          </g>
          <g id="Groupe_839" data-name="Groupe 839" transform="translate(24.726)">
            <path id="Tracé_3988" data-name="Tracé 3988" class="cls-21" d="M456.264-127.723a1.134,1.134,0,0,1-.806-.334,1.137,1.137,0,0,1,0-1.613l5.563-5.566-5.563-5.566a1.137,1.137,0,0,1,0-1.613,1.137,1.137,0,0,1,1.613,0l6.373,6.371a1.142,1.142,0,0,1,0,1.614l-6.373,6.373A1.137,1.137,0,0,1,456.264-127.723Z" transform="translate(-455.122 142.752)"/>
          </g>
        </g>
        <g id="Groupe_841" data-name="Groupe 841" transform="translate(11.818)">
          <path id="Tracé_3989" data-name="Tracé 3989" class="cls-21" d="M447.461-122.163a1.151,1.151,0,0,1-.38-.066,1.141,1.141,0,0,1-.7-1.456l7.462-21.18a1.14,1.14,0,0,1,1.456-.7,1.141,1.141,0,0,1,.7,1.456l-7.461,21.18A1.146,1.146,0,0,1,447.461-122.163Z" transform="translate(-446.32 145.628)"/>
        </g>
      </g>
      <g id="Groupe_925" data-name="Groupe 925" transform="translate(337.84 444.572)">
        <g id="Groupe_843" data-name="Groupe 843" transform="translate(14.382 14.846)">
          <path id="Tracé_3990" data-name="Tracé 3990" class="cls-21" d="M254.073-179.382a2.828,2.828,0,0,1-1.6-.494,2.809,2.809,0,0,1-1.191-1.821l-.279-1.494a12.583,12.583,0,0,1-2.682-.562l-.864,1.255a2.793,2.793,0,0,1-1.808,1.186,2.811,2.811,0,0,1-2.142-.448l-.855-.587a2.829,2.829,0,0,1-1.188-1.822,2.824,2.824,0,0,1,.45-2.13l.85-1.244a12.041,12.041,0,0,1-1.515-2.3l-1.473.276a2.836,2.836,0,0,1-2.127-.445,2.81,2.81,0,0,1-1.191-1.821l-.192-1.023a2.868,2.868,0,0,1,2.27-3.327l1.45-.268a12.087,12.087,0,0,1,.569-2.715L239.346-200a2.847,2.847,0,0,1-.748-3.951l.585-.862A2.83,2.83,0,0,1,241.008-206a2.824,2.824,0,0,1,2.128.45l1.213.828a11.949,11.949,0,0,1,2.324-1.528l-.267-1.429a2.826,2.826,0,0,1,.452-2.133A2.815,2.815,0,0,1,248.684-211l1.021-.191a2.841,2.841,0,0,1,3.318,2.265l.267,1.428a12.087,12.087,0,0,1,2.726.582l.82-1.2a2.829,2.829,0,0,1,1.83-1.191,2.832,2.832,0,0,1,2.133.45l.854.588a2.823,2.823,0,0,1,1.188,1.822,2.819,2.819,0,0,1-.45,2.128l-.831,1.21a12.027,12.027,0,0,1,1.514,2.326l1.456-.275a2.854,2.854,0,0,1,3.318,2.275l.192,1.022a2.8,2.8,0,0,1-.438,2.123,2.815,2.815,0,0,1-1.827,1.2l-1.478.276a12.052,12.052,0,0,1-.577,2.695l1.241.853a2.859,2.859,0,0,1,.752,3.946l-.6.873a2.8,2.8,0,0,1-1.808,1.184,2.826,2.826,0,0,1-2.141-.448l-1.251-.86a11.922,11.922,0,0,1-2.293,1.5l.284,1.489a2.829,2.829,0,0,1-.453,2.137,2.818,2.818,0,0,1-1.825,1.185l-1.022.191A2.863,2.863,0,0,1,254.073-179.382Zm-6.07-6.2a.83.83,0,0,1,.3.058,10.932,10.932,0,0,0,3.443.724.828.828,0,0,1,.775.678l.395,2.123a1.163,1.163,0,0,0,.493.75,1.18,1.18,0,0,0,.886.187l1.025-.192a1.171,1.171,0,0,0,.759-.491,1.181,1.181,0,0,0,.189-.888l-.4-2.121a.829.829,0,0,1,.486-.918,10.29,10.29,0,0,0,2.934-1.917.829.829,0,0,1,1.036-.076l1.783,1.227a1.18,1.18,0,0,0,.889.186,1.15,1.15,0,0,0,.746-.49l.6-.872a1.194,1.194,0,0,0-.32-1.639l-1.773-1.216a.832.832,0,0,1-.3-.988,10.377,10.377,0,0,0,.733-3.439.831.831,0,0,1,.678-.789l2.113-.395a1.168,1.168,0,0,0,.758-.5,1.151,1.151,0,0,0,.18-.874l-.193-1.032a1.183,1.183,0,0,0-1.381-.947l-2.087.394a.833.833,0,0,1-.918-.489,10.479,10.479,0,0,0-1.93-2.966.833.833,0,0,1-.074-1.034l1.2-1.74a1.167,1.167,0,0,0,.188-.883,1.176,1.176,0,0,0-.5-.758l-.854-.588a1.178,1.178,0,0,0-.888-.186,1.178,1.178,0,0,0-.763.5l-1.184,1.737a.832.832,0,0,1-.995.3,10.469,10.469,0,0,0-3.472-.742.83.83,0,0,1-.782-.678l-.384-2.061a1.184,1.184,0,0,0-1.379-.936l-1.023.192a1.168,1.168,0,0,0-.76.492,1.177,1.177,0,0,0-.189.887l.384,2.06a.83.83,0,0,1-.483.914,10.329,10.329,0,0,0-2.954,1.947.831.831,0,0,1-1.038.081l-1.75-1.2a1.178,1.178,0,0,0-.885-.189,1.183,1.183,0,0,0-.758.5l-.585.862a1.161,1.161,0,0,0-.186.882,1.2,1.2,0,0,0,.5.762l1.741,1.2a.832.832,0,0,1,.3.988,10.4,10.4,0,0,0-.721,3.459.834.834,0,0,1-.681.791l-2.081.384a1.185,1.185,0,0,0-.944,1.39l.191,1.023a1.161,1.161,0,0,0,.492.75,1.2,1.2,0,0,0,.887.187l2.1-.395a.83.83,0,0,1,.914.481,10.363,10.363,0,0,0,1.937,2.935.832.832,0,0,1,.081,1.038l-1.217,1.782a1.169,1.169,0,0,0-.188.885,1.173,1.173,0,0,0,.494.758l.855.588a1.185,1.185,0,0,0,.891.186,1.153,1.153,0,0,0,.745-.489l1.233-1.789A.83.83,0,0,1,248-185.583Zm4.127-2.352a7.34,7.34,0,0,1-4.16-1.293,7.368,7.368,0,0,1-3.1-4.75,7.413,7.413,0,0,1,5.913-8.643,7.368,7.368,0,0,1,5.56,1.168,7.328,7.328,0,0,1,3.084,4.737,7.421,7.421,0,0,1-5.915,8.652A7.429,7.429,0,0,1,252.129-187.935Zm.041-13.155a5.866,5.866,0,0,0-1.079.1,5.719,5.719,0,0,0-3.682,2.406,5.684,5.684,0,0,0-.906,4.3,5.713,5.713,0,0,0,2.4,3.686,5.7,5.7,0,0,0,4.3.9,5.756,5.756,0,0,0,4.588-6.714,5.681,5.681,0,0,0-2.39-3.672A5.7,5.7,0,0,0,252.17-201.09Z" transform="translate(-236.22 211.241)"/>
        </g>
        <path id="Tracé_3991" data-name="Tracé 3991" class="cls-21" d="M243.37-216.4l-.131-.7a1.374,1.374,0,0,0-1.605-1.1l-1.432.269a7.67,7.67,0,0,0-1.425-2.188l.819-1.193a1.375,1.375,0,0,0-.358-1.912l-.586-.4a1.375,1.375,0,0,0-1.912.36l-.81,1.188a7.9,7.9,0,0,0-2.563-.545l-.264-1.408a1.376,1.376,0,0,0-1.606-1.1l-.7.131a1.377,1.377,0,0,0-1.1,1.606l.265,1.408a7.793,7.793,0,0,0-2.186,1.436l-1.192-.815a1.375,1.375,0,0,0-1.911.359l-.4.587a1.376,1.376,0,0,0,.361,1.914l1.194.814a7.682,7.682,0,0,0-.535,2.555l-1.426.268a1.376,1.376,0,0,0-1.1,1.605l.132.7a1.374,1.374,0,0,0,1.605,1.1l1.438-.269a7.726,7.726,0,0,0,1.428,2.169l-.833,1.213a1.376,1.376,0,0,0,.357,1.914l.588.4a1.375,1.375,0,0,0,1.911-.359l.835-1.221a7.884,7.884,0,0,0,2.53.534l.271,1.449a1.376,1.376,0,0,0,1.606,1.1l.7-.131a1.375,1.375,0,0,0,1.1-1.605l-.272-1.45a7.819,7.819,0,0,0,2.164-1.414l1.221.835a1.375,1.375,0,0,0,1.911-.359l.4-.589a1.375,1.375,0,0,0-.359-1.911l-1.213-.829a7.748,7.748,0,0,0,.539-2.538l1.443-.271A1.374,1.374,0,0,0,243.37-216.4Zm-9.682,4.885a3.393,3.393,0,0,1-3.958-2.712,3.393,3.393,0,0,1,2.708-3.958,3.392,3.392,0,0,1,3.962,2.706A3.393,3.393,0,0,1,233.688-211.516Z" transform="translate(-222.744 225.152)"/>
      </g>
      <g id="Groupe_926" data-name="Groupe 926" transform="translate(117.381 519.742) rotate(155)">
        <path id="Tracé_3945" data-name="Tracé 3945" class="cls-21" d="M38.343,91.519A24.93,24.93,0,0,1,33.3,91a.866.866,0,1,1,.352-1.7,31.137,31.137,0,0,0,9.006.294.866.866,0,1,1,.153,1.725C41.343,91.453,39.838,91.519,38.343,91.519Zm13.531-1.878a.866.866,0,0,1-.237-1.7,48.792,48.792,0,0,0,8.5-3.317.867.867,0,1,1,.777,1.549,50.59,50.59,0,0,1-8.8,3.434A.878.878,0,0,1,51.873,89.641Zm-26.99-2.054a.862.862,0,0,1-.444-.124A38.733,38.733,0,0,1,17,81.565a.867.867,0,1,1,1.228-1.223,36.994,36.994,0,0,0,7.106,5.636.867.867,0,0,1-.447,1.61Zm43.54-6.223A.867.867,0,0,1,67.9,79.8a55.206,55.206,0,0,0,6.833-6.091.866.866,0,0,1,1.256,1.194,56.954,56.954,0,0,1-7.048,6.282A.857.857,0,0,1,68.424,81.364ZM11.7,74.642a.866.866,0,0,1-.716-.376A62.99,62.99,0,0,1,6.265,66.1a.866.866,0,0,1,1.559-.755,61.164,61.164,0,0,0,4.591,7.942.866.866,0,0,1-.714,1.357Zm69.531-6.68a.866.866,0,0,1-.711-1.36A64.333,64.333,0,0,0,85.2,58.7a.866.866,0,1,1,1.549.775,65.993,65.993,0,0,1-4.8,8.113A.867.867,0,0,1,81.233,67.962ZM3.592,57.946a.865.865,0,0,1-.825-.6A61.235,61.235,0,0,1,.579,48.162.867.867,0,0,1,2.292,47.9a59.531,59.531,0,0,0,2.126,8.92.867.867,0,0,1-.826,1.13ZM.868,39.617A.872.872,0,0,1,0,38.722a50.263,50.263,0,0,1,1.163-9.383.867.867,0,0,1,1.691.382,48.392,48.392,0,0,0-1.121,9.058A.868.868,0,0,1,.868,39.617ZM5.076,21.638A.866.866,0,0,1,4.3,20.386,34.037,34.037,0,0,1,9.662,12.53a.867.867,0,0,1,1.279,1.17,32.327,32.327,0,0,0-5.088,7.458A.866.866,0,0,1,5.076,21.638ZM17.466,8.1a.867.867,0,0,1-.453-1.606,40.086,40.086,0,0,1,8.635-3.919.866.866,0,0,1,.531,1.648,38.457,38.457,0,0,0-8.262,3.749A.856.856,0,0,1,17.466,8.1Zm56.4-2.4a.878.878,0,0,1-.191-.021q-.957-.215-1.937-.427A.867.867,0,0,1,72.1,3.554q.987.214,1.951.43A.867.867,0,0,1,73.862,5.7ZM62.78,3.5a.916.916,0,0,1-.145-.012c-3.2-.536-6.282-.953-9.166-1.24a.868.868,0,0,1-.777-.948.877.877,0,0,1,.948-.777c2.923.292,6.045.713,9.281,1.257A.866.866,0,0,1,62.78,3.5Zm-27.8-1.227A.866.866,0,0,1,34.872.548,68.569,68.569,0,0,1,43.7,0l.568,0a.866.866,0,0,1,.862.872.888.888,0,0,1-.872.86H43.7a66.877,66.877,0,0,0-8.605.533A.985.985,0,0,1,34.983,2.273Z"/>
      </g>
      <g id="Groupe_927" data-name="Groupe 927" transform="translate(289.722 61.848) rotate(-21)">
        <path id="Tracé_3946" data-name="Tracé 3946" class="cls-21" d="M136.188,119.425a1.364,1.364,0,0,1-1.056-.467.98.98,0,0,1,.323-1.506,88.688,88.688,0,0,0,10.55-7.216,1.458,1.458,0,0,1,1.815.042.966.966,0,0,1-.049,1.531,91.206,91.206,0,0,1-10.852,7.423A1.458,1.458,0,0,1,136.188,119.425Zm19.937-15.94a1.449,1.449,0,0,1-.782-.222.974.974,0,0,1-.236-1.518,66.472,66.472,0,0,0,7.318-9.614,1.411,1.411,0,0,1,1.734-.456,1,1,0,0,1,.541,1.461,68.558,68.558,0,0,1-7.555,9.927A1.379,1.379,0,0,1,156.125,103.486Zm12.656-20.508a1.513,1.513,0,0,1-.368-.046,1.067,1.067,0,0,1-.865-1.347,45.407,45.407,0,0,0,2.469-11.173,1.231,1.231,0,0,1,1.376-1,1.16,1.16,0,0,1,1.186,1.159,47.424,47.424,0,0,1-2.568,11.631A1.279,1.279,0,0,1,168.781,82.978ZM170.7,59.995a1.243,1.243,0,0,1-1.266-.908,46.329,46.329,0,0,0-3.64-10.941,1.034,1.034,0,0,1,.718-1.405,1.371,1.371,0,0,1,1.668.6,48.107,48.107,0,0,1,3.788,11.391,1.118,1.118,0,0,1-1.059,1.243A1.535,1.535,0,0,1,170.7,59.995ZM160.675,38.514a1.357,1.357,0,0,1-1.084-.5,71.4,71.4,0,0,0-8.249-9.075.967.967,0,0,1,.091-1.528,1.458,1.458,0,0,1,1.813.075,73.843,73.843,0,0,1,8.511,9.363.986.986,0,0,1-.393,1.494A1.449,1.449,0,0,1,160.675,38.514ZM1.285,23.7a1.365,1.365,0,0,1-1.049-.457.979.979,0,0,1,.307-1.508c3.873-2.306,7.8-4.45,11.661-6.371a1.425,1.425,0,0,1,1.759.382.992.992,0,0,1-.454,1.482c-3.8,1.891-7.668,4-11.483,6.275A1.461,1.461,0,0,1,1.285,23.7Zm141-2.386a1.446,1.446,0,0,1-.81-.243,97.743,97.743,0,0,0-11.138-6.578A.992.992,0,0,1,129.9,13a1.427,1.427,0,0,1,1.762-.371A100.862,100.862,0,0,1,143.1,19.39a.971.971,0,0,1,.185,1.522A1.389,1.389,0,0,1,142.285,21.311ZM25.047,11.946a1.318,1.318,0,0,1-1.163-.624A1.016,1.016,0,0,1,24.5,9.883c4.26-1.679,8.6-3.161,12.9-4.4a1.354,1.354,0,0,1,1.632.673,1.051,1.051,0,0,1-.8,1.375c-4.216,1.218-8.473,2.671-12.649,4.316A1.485,1.485,0,0,1,25.047,11.946Zm93.675-2.588a1.485,1.485,0,0,1-.5-.089,117.172,117.172,0,0,0-12.844-3.809,1.072,1.072,0,0,1-.891-1.333,1.329,1.329,0,0,1,1.582-.751,119.661,119.661,0,0,1,13.164,3.9A1.027,1.027,0,0,1,119.9,8.7,1.313,1.313,0,0,1,118.723,9.357ZM51.1,4.446a1.256,1.256,0,0,1-1.252-.851,1.1,1.1,0,0,1,.98-1.289C55.348,1.472,59.98.854,64.592.471a1.244,1.244,0,0,1,1.4.972,1.149,1.149,0,0,1-1.153,1.183C60.331,3,55.8,3.6,51.375,4.421A1.572,1.572,0,0,1,51.1,4.446ZM92.235,3.1a1.405,1.405,0,0,1-.186-.011A129.347,129.347,0,0,0,78.47,2.164a1.189,1.189,0,0,1-1.262-1.1A1.209,1.209,0,0,1,78.516,0a132.433,132.433,0,0,1,13.9.948A1.128,1.128,0,0,1,93.5,2.174,1.235,1.235,0,0,1,92.235,3.1Z"/>
      </g>
      <g id="Groupe_928" data-name="Groupe 928" transform="translate(416.369 543.516) rotate(92)">
        <path id="Tracé_3946-2" data-name="Tracé 3946" class="cls-21" d="M136.188,119.425a1.364,1.364,0,0,1-1.056-.467.98.98,0,0,1,.323-1.506,88.688,88.688,0,0,0,10.55-7.216,1.458,1.458,0,0,1,1.815.042.966.966,0,0,1-.049,1.531,91.206,91.206,0,0,1-10.852,7.423A1.458,1.458,0,0,1,136.188,119.425Zm19.937-15.94a1.449,1.449,0,0,1-.782-.222.974.974,0,0,1-.236-1.518,66.472,66.472,0,0,0,7.318-9.614,1.411,1.411,0,0,1,1.734-.456,1,1,0,0,1,.541,1.461,68.558,68.558,0,0,1-7.555,9.927A1.379,1.379,0,0,1,156.125,103.486Zm12.656-20.508a1.513,1.513,0,0,1-.368-.046,1.067,1.067,0,0,1-.865-1.347,45.407,45.407,0,0,0,2.469-11.173,1.231,1.231,0,0,1,1.376-1,1.16,1.16,0,0,1,1.186,1.159,47.424,47.424,0,0,1-2.568,11.631A1.279,1.279,0,0,1,168.781,82.978ZM170.7,59.995a1.243,1.243,0,0,1-1.266-.908,46.329,46.329,0,0,0-3.64-10.941,1.034,1.034,0,0,1,.718-1.405,1.371,1.371,0,0,1,1.668.6,48.107,48.107,0,0,1,3.788,11.391,1.118,1.118,0,0,1-1.059,1.243A1.535,1.535,0,0,1,170.7,59.995ZM160.675,38.514a1.357,1.357,0,0,1-1.084-.5,71.4,71.4,0,0,0-8.249-9.075.967.967,0,0,1,.091-1.528,1.458,1.458,0,0,1,1.813.075,73.843,73.843,0,0,1,8.511,9.363.986.986,0,0,1-.393,1.494A1.449,1.449,0,0,1,160.675,38.514ZM1.285,23.7a1.365,1.365,0,0,1-1.049-.457.979.979,0,0,1,.307-1.508c3.873-2.306,7.8-4.45,11.661-6.371a1.425,1.425,0,0,1,1.759.382.992.992,0,0,1-.454,1.482c-3.8,1.891-7.668,4-11.483,6.275A1.461,1.461,0,0,1,1.285,23.7Zm141-2.386a1.446,1.446,0,0,1-.81-.243,97.743,97.743,0,0,0-11.138-6.578A.992.992,0,0,1,129.9,13a1.427,1.427,0,0,1,1.762-.371A100.862,100.862,0,0,1,143.1,19.39a.971.971,0,0,1,.185,1.522A1.389,1.389,0,0,1,142.285,21.311ZM25.047,11.946a1.318,1.318,0,0,1-1.163-.624A1.016,1.016,0,0,1,24.5,9.883c4.26-1.679,8.6-3.161,12.9-4.4a1.354,1.354,0,0,1,1.632.673,1.051,1.051,0,0,1-.8,1.375c-4.216,1.218-8.473,2.671-12.649,4.316A1.485,1.485,0,0,1,25.047,11.946Zm93.675-2.588a1.485,1.485,0,0,1-.5-.089,117.172,117.172,0,0,0-12.844-3.809,1.072,1.072,0,0,1-.891-1.333,1.329,1.329,0,0,1,1.582-.751,119.661,119.661,0,0,1,13.164,3.9A1.027,1.027,0,0,1,119.9,8.7,1.313,1.313,0,0,1,118.723,9.357ZM51.1,4.446a1.256,1.256,0,0,1-1.252-.851,1.1,1.1,0,0,1,.98-1.289C55.348,1.472,59.98.854,64.592.471a1.244,1.244,0,0,1,1.4.972,1.149,1.149,0,0,1-1.153,1.183C60.331,3,55.8,3.6,51.375,4.421A1.572,1.572,0,0,1,51.1,4.446ZM92.235,3.1a1.405,1.405,0,0,1-.186-.011A129.347,129.347,0,0,0,78.47,2.164a1.189,1.189,0,0,1-1.262-1.1A1.209,1.209,0,0,1,78.516,0a132.433,132.433,0,0,1,13.9.948A1.128,1.128,0,0,1,93.5,2.174,1.235,1.235,0,0,1,92.235,3.1Z" transform="translate(0 0)"/>
      </g>
    </g>
  </g>
</svg>
