<svg xmlns="http://www.w3.org/2000/svg" width="636.751" height="306.225" viewBox="0 0 636.751 306.225"><defs><style>.a{fill:#2b72b6;}.b{fill:#fccfb2;}.c,.u,.v{fill:#fff;}.d{fill:#373737;}.e{fill:#80b3dd;}.f{fill:#6363ce;}.g{fill:#706053;}.h{fill:#78c2c5;}.i{fill:#3d3d8e;}.j{fill:#3f3f3d;}.k{fill:#b2b2b2;}.l{fill:#5454b5;}.m{fill:#8c6053;}.n{fill:#9b6d5c;}.o{fill:#246591;}.p{fill:#bfbebe;}.q{fill:#d6b4b4;}.q,.v{opacity:0.2;}.r{fill:#cecccc;}.s{fill:#a0a0a0;}.t{fill:#141313;}.u{opacity:0.3;}.w{fill:#edbea4;}.x{fill:#ba6338;}.y{fill:#a55532;}.z{fill:#9b4b10;}.aa{fill:#cecece;}.ab{fill:#212121;opacity:0.1;}.ac{fill:#ddd322;}.ad{fill:#f4f4f4;}.ae{fill:#c6468f;}.af{fill:#d84c96;}.ag{fill:#f4ac89;}.ah{fill:#dd4595;}.ai{fill:#ee509c;}.aj{fill:#f7a388;}</style></defs><g transform="translate(-169.442 -100.845)"><g transform="translate(359.585 148.373)"><g transform="translate(60.069 139.159)"><rect class="a" width="15.818" height="54.486" transform="translate(0 13.763) rotate(-60.465)"/><path class="b" d="M1042.914,721l-5.719,10.093-9.762-5.59,5.718-10.093Z" transform="translate(-978.549 -686.059)"/><g transform="translate(58.293 34.761)"><rect class="c" width="20.74" height="4.218" transform="translate(9.113 20.483) rotate(-60.47)"/><path class="d" d="M1059.966,730.809,1054.2,740.99l9.035,10.437,10.315-18.206Z" transform="translate(-1054.198 -730.809)"/></g><rect class="e" width="16.522" height="6.679" transform="translate(43.389 39.155) rotate(-60.466)"/></g><g transform="translate(66.918 149.99)"><rect class="a" width="54.487" height="15.819" transform="matrix(0.137, -0.991, 0.991, 0.137, 6.324, 53.974)"/><rect class="b" width="13.358" height="11.6" transform="translate(6.836 68.239) rotate(-82.132)"/><g transform="translate(0 67.891)"><rect class="c" width="4.218" height="20.74" transform="translate(0 16.437) rotate(-82.132)"/><g transform="translate(0.548)"><path class="d" d="M915.743,855.863l11.592,1.6,2.8,13.517-20.728-2.864Z" transform="translate(-909.409 -855.863)"/></g></g><rect class="e" width="6.679" height="16.522" transform="translate(5.987 56.411) rotate(-82.132)"/></g><g transform="translate(15.252 0)"><path class="f" d="M781.846,293.035a32.146,32.146,0,1,1,60.205-1.156l-2.32-.82a29.686,29.686,0,1,0-55.6,1.067Z" transform="translate(-773.008 -244.463)"/><g transform="translate(5.261)"><path class="b" d="M867.6,446.888,866.8,439h-9.862l-.181,7.913C858.573,448.488,866.958,447.937,867.6,446.888Z" transform="translate(-828.312 -367.658)"/><path class="b" d="M937.764,363.123a7.24,7.24,0,1,1-7.285-7.213A7.248,7.248,0,0,1,937.764,363.123Z" transform="translate(-871.454 -313.777)"/><path class="b" d="M790.324,366.86a7.241,7.241,0,1,1-7.285-7.212A7.25,7.25,0,0,1,790.324,366.86Z" transform="translate(-775.843 -316.2)"/><path class="b" d="M848.225,305.926c.089,14.9-12.132,28.477-27.035,28.566h0c-14.9.089-26.844-13.341-26.933-28.244l.187-5c-.089-14.9,11.851-28.462,26.753-28.552h0c14.9-.089,27.126,13.327,27.214,28.23Z" transform="translate(-787.784 -259.815)"/><path class="g" d="M848.037,285.21c-.715-8.616-8.839-22.645-28-22.372-19.156,1.8-25.446,17.05-25.572,25.695-.013.888-.21,11.319-.21,11.319.089,14.9,11.81,23.83,26.713,23.742s27.625-9.175,27.536-24.078C848.506,299.516,848.589,291.858,848.037,285.21Z" transform="translate(-787.784 -253.419)"/><path class="d" d="M803.481,257.246c8.022,8.208,28.067,8.316,40.577,4.333,6.046-1.925,8.626-4.525,12.231-16.6-14.125,5.06-14.942,6.133-14.942,6.133s6.988-7.263,13.141-9.966c-6.92-3.258-19.336-2.571-26.454,1.827.431-1.554,2.216-3.632,11.338-6.855-8.065-.367-28.515.3-31.279,11.6,0,0-2.79-1.13-.225-5.07C803.444,244.185,797.857,251.491,803.481,257.246Z" transform="translate(-792.229 -236.05)"/></g><g transform="translate(0 40.349)"><path class="c" d="M765.647,383a1.768,1.768,0,0,1-1.339,2.113l-.112.025a1.769,1.769,0,0,1-2.113-1.339l-1.164-5.191a1.77,1.77,0,0,1,1.34-2.113l.112-.025a1.769,1.769,0,0,1,2.113,1.339Z" transform="translate(-760.876 -367.432)"/><path class="h" d="M774.735,376.473a1.768,1.768,0,0,1-1.339,2.113l-3.838.86a1.768,1.768,0,0,1-2.112-1.34l-2.655-11.844a1.769,1.769,0,0,1,1.339-2.114l3.837-.859a1.769,1.769,0,0,1,2.113,1.339Z" transform="translate(-763.387 -358.883)"/><path class="i" d="M783.743,371.213a1.769,1.769,0,0,1-1.339,2.114l-4,.9a1.769,1.769,0,0,1-2.113-1.339l-4.258-19a1.768,1.768,0,0,1,1.339-2.113l4-.9a1.769,1.769,0,0,1,2.113,1.339Z" transform="translate(-768.084 -350.834)"/></g><g transform="translate(61.751 40.349)"><path class="c" d="M967.559,383a1.769,1.769,0,0,0,1.339,2.113l.112.025a1.769,1.769,0,0,0,2.113-1.339l1.164-5.191a1.77,1.77,0,0,0-1.34-2.113l-.112-.025a1.769,1.769,0,0,0-2.113,1.339Z" transform="translate(-956.627 -367.432)"/><path class="h" d="M948.85,376.473a1.768,1.768,0,0,0,1.339,2.113l3.837.86a1.768,1.768,0,0,0,2.113-1.34l2.655-11.844a1.769,1.769,0,0,0-1.34-2.114l-3.837-.859a1.769,1.769,0,0,0-2.113,1.339Z" transform="translate(-944.495 -358.883)"/><path class="i" d="M936.584,371.213a1.768,1.768,0,0,0,1.339,2.114l4,.9a1.77,1.77,0,0,0,2.114-1.339l4.258-19a1.768,1.768,0,0,0-1.339-2.113l-4-.9a1.769,1.769,0,0,0-2.113,1.339Z" transform="translate(-936.541 -350.834)"/></g></g><path class="b" d="M730.326,525.871s-17.339,17.539-11.715,21.7,16.536.877,16.536.877Z" transform="translate(-717.488 -423.991)"/><g transform="translate(15.865 75.164)"><path class="j" d="M850.71,499.29H762.621l2.812-49.418h88.089Z" transform="translate(-762.621 -449.873)"/><path class="c" d="M853.28,501.9h-82l2.812-43.238h82Z" transform="translate(-768.233 -455.573)"/></g></g><g transform="translate(169.442 113.302)"><g transform="translate(0 87.724)"><rect class="k" width="8.085" height="32.692" transform="translate(72.416 121.981)"/><path class="d" d="M370.125,702.1a8.261,8.261,0,0,1-8.261,8.261H322.845a8.261,8.261,0,0,1-8.261-8.261h0a8.261,8.261,0,0,1,8.261-8.261h39.019a8.261,8.261,0,0,1,8.261,8.261Z" transform="translate(-266.072 -585.568)"/><rect class="d" width="12.939" height="30.934" transform="translate(70.164 148.697)"/><path class="k" d="M302.311,857.748l-40.242,8.91v4.886l40.242-5.174Z" transform="translate(-232.018 -691.858)"/><rect class="k" width="5.248" height="13.797" transform="translate(73.898 165.89)"/><path class="d" d="M261.257,908.039a5.318,5.318,0,1,1-5.318-5.318A5.317,5.317,0,0,1,261.257,908.039Z" transform="translate(-224.594 -721.022)"/><path class="k" d="M412.621,857.748l40.242,8.91v4.886l-40.242-5.174Z" transform="translate(-329.647 -691.858)"/><path class="d" d="M389.775,908.039a5.318,5.318,0,1,1-5.318-5.318A5.317,5.317,0,0,1,389.775,908.039Z" transform="translate(-307.934 -721.022)"/><path class="l" d="M443.6,502.895H361.691c-6.1,0,12.364-16.707,12.3-22.8-.341-34.621-14.1-87.115-14.238-87.642a5.273,5.273,0,0,1,10.2-2.692c.035.135,3.6,13.673,7.147,31.4,4.788,23.911,7.292,43.7,7.441,58.831a12.431,12.431,0,0,0,12.3,12.356H443.6a5.273,5.273,0,0,1,0,10.546Z" transform="translate(-295.251 -385.835)"/><path class="l" d="M191.344,385.84l64.062.174,22.029,108.1-68.9-2.227Z" transform="translate(-186.154 -385.838)"/><path class="f" d="M260.6,502.895H213.844a22.614,22.614,0,0,1-16.128-6.7,23,23,0,0,1-6.721-16.1c-.341-34.621-14.1-87.115-14.238-87.642a5.273,5.273,0,1,1,10.2-2.692c.036.135,3.6,13.673,7.147,31.4,4.788,23.911,7.292,43.7,7.441,58.831a12.431,12.431,0,0,0,12.3,12.356H260.6a5.273,5.273,0,1,1,0,10.546Z" transform="translate(-176.581 -385.835)"/><rect class="d" width="10.141" height="2.636" transform="translate(71.348 123.739)"/></g><g transform="translate(8.628)"><path class="m" d="M478.506,507.321c-.994,0-2-.02-3.016-.06-13.389-.538-24.117-8.14-31.024-21.985a68.33,68.33,0,0,1-6.234-20.041l9.552-1.166-4.776.583,4.776-.591a59.381,59.381,0,0,0,5.4,17.131c5.317,10.526,12.952,16.062,22.692,16.453,25.914,1.043,42.417-13.79,42.581-13.94l6.5,7.1C524.2,491.5,506.588,507.321,478.506,507.321Z" transform="translate(-354.882 -348.838)"/><path class="d" d="M297.03,184.092a47.953,47.953,0,1,1-48.1-47.809A47.951,47.951,0,0,1,297.03,184.092Z" transform="translate(-201.124 -136.282)"/><g transform="translate(26.454 25.31)"><g transform="translate(0 0.587)"><path class="n" d="M350.142,243.25A25.638,25.638,0,0,1,326.451,270.7h0A25.638,25.638,0,0,1,299,247.006l-.7-9.536A25.637,25.637,0,0,1,322,210.023h0a25.637,25.637,0,0,1,27.446,23.691Z" transform="translate(-290.551 -209.953)"/><path class="n" d="M290.119,301.784a6.879,6.879,0,1,1-7.366-6.373A6.887,6.887,0,0,1,290.119,301.784Z" transform="translate(-276.378 -265.358)"/></g><g transform="translate(6.841)"><path class="d" d="M334.423,213.058l7.31,10.278a41.994,41.994,0,0,1,4.331-1.689l-5.84-10.807A33.2,33.2,0,0,0,334.423,213.058Z" transform="translate(-320.86 -209.941)"/><path class="d" d="M315.694,224l8.456,8.7c1.062-.75,3.312-2.174,4.481-2.8l-8.238-9.666A31.649,31.649,0,0,0,315.694,224Z" transform="translate(-308.715 -216.034)"/><path class="d" d="M356.79,208.765l4.8,10.952c1.072-.3,2.525-.554,3.638-.753-.766-2.287-2.69-6.942-3.935-10.633A28.333,28.333,0,0,0,356.79,208.765Z" transform="translate(-335.364 -208.314)"/><path class="d" d="M375.173,208.364l2.907,10.417c.109-.015.216-.035.326-.049a26.151,26.151,0,0,1,2.762-.217c-.075-2.381.35-6.043.243-9.325A52.719,52.719,0,0,0,375.173,208.364Z" transform="translate(-347.285 -208.335)"/><path class="d" d="M302.081,241.482l9.834,4.821a29.276,29.276,0,0,1,2.771-2.486l-9.6-7.194A28.419,28.419,0,0,0,302.081,241.482Z" transform="translate(-299.887 -226.66)"/><path class="d" d="M295.84,278.419a23.423,23.423,0,0,0,4.933,14.262c-.076-.75-.121-1.508-.124-2.277a24.819,24.819,0,0,1,2.786-11.074l-7.593-1.015C295.842,278.35,295.84,278.384,295.84,278.419Z" transform="translate(-295.84 -253.697)"/><path class="d" d="M296.163,261.051l8.041,2.26a33.629,33.629,0,0,1,3.1-4.191l-9.759-3.99A26.517,26.517,0,0,0,296.163,261.051Z" transform="translate(-296.049 -238.662)"/><path class="d" d="M426.674,241.166a38.229,38.229,0,0,1,5.3,5.6,25.87,25.87,0,0,0-3.212-9.6Z" transform="translate(-380.682 -227.012)"/><path class="d" d="M413.5,221.52l-2.2,6.5a21.031,21.031,0,0,1,4.5,2.326c.612-1.437,1.315-3.09,2.005-4.717A23.325,23.325,0,0,0,413.5,221.52Z" transform="translate(-370.713 -216.866)"/><path class="d" d="M396.191,212.237l-1.244,8.782a23.2,23.2,0,0,1,4.681.651c.431-2.046,1-4.755,1.529-7.284A24.592,24.592,0,0,0,396.191,212.237Z" transform="translate(-360.108 -210.847)"/><path class="n" d="M369.986,208.289c-.131,0-.261.008-.392.01,1.245,3.691,3.168,8.346,3.935,10.633.428-.077.5-.144.934-.2l-2.907-10.417C370.79,208.265,370.778,208.287,369.986,208.289Z" transform="translate(-343.668 -208.282)"/><path class="n" d="M392.453,210.713c.107,3.283-.317,6.945-.243,9.325.484-.012.494-.026.956-.007l1.244-8.782A17.608,17.608,0,0,0,392.453,210.713Z" transform="translate(-358.328 -209.858)"/><path class="n" d="M409.791,218.352c-.529,2.529-1.1,5.238-1.529,7.284a9.117,9.117,0,0,1,1.068.331l2.2-6.5A14.528,14.528,0,0,0,409.791,218.352Z" transform="translate(-368.743 -214.812)"/><path class="n" d="M426.093,233.213c-.69,1.627-1.393,3.28-2.005,4.717a9.242,9.242,0,0,1,.909.672l2.088-4A8.644,8.644,0,0,0,426.093,233.213Z" transform="translate(-379.005 -224.449)"/><path class="n" d="M350.926,210.014l5.84,10.807c.487-.161.522-.163,1.019-.3l-4.8-10.952A17.037,17.037,0,0,0,350.926,210.014Z" transform="translate(-331.562 -209.115)"/><path class="n" d="M329.06,218.235,337.3,227.9c.469-.251.474-.244.958-.473l-7.31-10.278A16.9,16.9,0,0,0,329.06,218.235Z" transform="translate(-317.382 -214.033)"/><path class="n" d="M310.639,232.942l9.6,7.194c.424-.334.412-.345.856-.658l-8.675-8.532A25.078,25.078,0,0,0,310.639,232.942Z" transform="translate(-305.437 -222.979)"/><path class="n" d="M300.1,252.093l9.759,3.99c.378-.438.363-.4.772-.816l-9.834-4.821A10.8,10.8,0,0,0,300.1,252.093Z" transform="translate(-298.601 -235.624)"/><path class="n" d="M295.846,274.2l7.593,1.015c.234-.456.3-.542.559-.984l-8.041-2.26C295.886,272.709,295.847,273.451,295.846,274.2Z" transform="translate(-295.844 -249.585)"/></g></g><g transform="translate(51.974 56.077)"><path class="c" d="M383.227,331.7l-22.2,1.113s4.31,7.652,11.484,7.158C379.594,339.486,383.021,333.313,383.227,331.7Z" transform="translate(-356.788 -319.085)"/><path d="M417.045,299.823a2.906,2.906,0,1,0,1.719-3.858A2.988,2.988,0,0,0,417.045,299.823Z" transform="translate(-392.997 -295.808)"/><path d="M349.16,304.494a2.906,2.906,0,1,0,1.72-3.858A2.988,2.988,0,0,0,349.16,304.494Z" transform="translate(-348.976 -298.837)"/></g><g transform="translate(25.854 83.058)"><path class="n" d="M502.22,851.673l.93,11.166H514.1l-1.886-13.486Z" transform="translate(-422.231 -681.748)"/><path class="n" d="M564.886,835.977l.93,11.166H576.77l-1.886-13.486Z" transform="translate(-462.868 -671.57)"/><path class="o" d="M360.7,621v3.513c0,3.945,2.706,5.978,6.393,6.33h27.366c7.845,0,12.9,7.089,13.69,14.892,1.043,10.273,3.785,31.568,6.041,48.638.183,1.383-12.7,2.269-12.7,2.269l-6.424-50.668c-.055-.528-.08-1.07-.6-1.07H326.33A11.607,11.607,0,0,1,315,633.213V621Z" transform="translate(-300.823 -533.667)"/><g transform="translate(99.175 168.831)"><rect class="c" width="33.395" height="4.57" transform="translate(0.423 16.929)"/><path class="d" d="M572.089,852.84c-2.353.189-3.885,2.236-3.885,4.782l-8.925.589L556.8,869.769h33.818v-2.892s-14.9-8.273-17.394-9.559Z" transform="translate(-556.797 -852.84)"/></g><path class="a" d="M342.771,621v3.513c0,3.945,2.62,5.978,6.313,6.33h22.584c7.843,0,13.1,7.089,13.894,14.892,1.22,12.012,4.762,39.089,7.135,56.874l-12.788,2.135-7.522-58.807c0-.523-.2-1.033-.719-1.033H326.33A11.607,11.607,0,0,1,315,633.213V621Z" transform="translate(-300.823 -533.667)"/><g transform="translate(77.451 175.108)"><rect class="c" width="33.395" height="4.218" transform="translate(0 16.98)"/><path class="d" d="M510.923,870.7c-2.353.19-3.884,2.237-3.884,4.783l-9.274.613-2.482,11.583h33.3v-2.942s-14.635-8.274-17.133-9.558Z" transform="translate(-495.184 -870.697)"/></g><g transform="translate(0 8.183)"><path class="d" d="M288.848,430.677l-14.177-5.021c1.11-13.683,14.616-29.819,36.212-29.819s35.1,16.135,36.207,29.819l-12.544,5.021V478.5h-45.7Z" transform="translate(-274.671 -395.838)"/></g><g transform="translate(27.447)"><path class="n" d="M352.752,381.66a31.073,31.073,0,0,1,3.426-.622l.782-8.161,8.714-.316.33,8.376a26.215,26.215,0,0,1,4.182.727,9.91,9.91,0,0,1-.017,1.257c-.213,5.358-4.283,9.507-9.09,9.268s-8.531-4.775-8.316-10.133C352.765,381.968,352.746,381.746,352.752,381.66Z" transform="translate(-352.751 -372.56)"/></g></g><path class="e" d="M495.276,842.767l.93,4.65,14.02-2.325-.625-5Z" transform="translate(-391.874 -592.685)"/><path class="e" d="M557.451,826.4l.93,4.651L572.4,828.72l-.626-5Z" transform="translate(-432.193 -582.069)"/><g transform="translate(28.884 103.073)"><g transform="translate(56.945)"><g transform="translate(0 52.408)"><path class="p" d="M450.518,586.638h85.43a4.185,4.185,0,0,0,3.624-2.094H446.894A4.184,4.184,0,0,0,450.518,586.638Z" transform="translate(-446.329 -582.45)"/><path class="q" d="M445.286,578.586a4.162,4.162,0,0,0,.565,2.094h92.678a4.162,4.162,0,0,0,.565-2.094Z" transform="translate(-445.286 -578.586)"/><path class="r" d="M498.718,578.586a1.785,1.785,0,0,1-1.476.78h-10.1a1.784,1.784,0,0,1-1.476-.78H445.286a4.162,4.162,0,0,0,.565,2.094h92.678a4.162,4.162,0,0,0,.565-2.094Z" transform="translate(-445.286 -578.586)"/><path class="s" d="M561.623,579.366h10.1a1.785,1.785,0,0,0,1.476-.78H560.147A1.784,1.784,0,0,0,561.623,579.366Z" transform="translate(-519.77 -578.586)"/></g><g transform="translate(7.557)"><path class="t" d="M4.908,0H73.787a4.907,4.907,0,0,1,4.907,4.907V47.5a4.908,4.908,0,0,1-4.908,4.908H4.907A4.907,4.907,0,0,1,0,47.5V4.908A4.908,4.908,0,0,1,4.908,0Z"/><g transform="translate(22.144)"><path class="u" d="M529.778,429.5l28.366,52.408H572.7L535.2,429.5Z" transform="translate(-529.778 -429.498)"/><path class="v" d="M605.178,480.181V464.23L586.655,429.5H558.846l37.223,52.408h7.384A1.725,1.725,0,0,0,605.178,480.181Z" transform="translate(-548.628 -429.498)"/></g><g transform="translate(38.792 1.314)"><path d="M578.248,433.791a.554.554,0,1,1-.554-.554A.555.555,0,0,1,578.248,433.791Z" transform="translate(-577.139 -433.237)"/><path class="v" d="M578.6,434.56a.138.138,0,1,1-.138-.138A.138.138,0,0,1,578.6,434.56Z" transform="translate(-577.907 -434.005)"/></g><rect class="d" width="69.367" height="44.012" transform="translate(4.664 4.198)"/></g><g transform="translate(20.88 15.125)"><path class="c" d="M566.572,472.525l-9.847,23.614h4.391l9.581-23.614Z" transform="translate(-538.431 -472.525)"/><path class="c" d="M517.8,496.052l-13.114-10.674,14.971-9.865,2.123,3.222-10.578,6.97,9.034,7.354Z" transform="translate(-504.683 -474.463)"/><path class="c" d="M606.2,496.052l-2.436-2.993,9.035-7.354-10.578-6.97,2.123-3.222,14.97,9.865Z" transform="translate(-567.93 -474.463)"/></g></g><path class="n" d="M322.905,522.007c-.994,0-2-.019-3.016-.06-13.389-.537-24.117-8.14-31.024-21.985a69.062,69.062,0,0,1-5.575-16.273l11.193,3.957a51.913,51.913,0,0,0,3.1,8.232c5.317,10.526,12.952,16.062,22.692,16.453,25.913,1.044,42.417-13.79,42.58-13.94l6.5,7.1C368.6,506.184,350.987,522.007,322.905,522.007Z" transform="translate(-283.291 -464.639)"/></g></g></g><g transform="translate(633.715 128.785)"><g transform="translate(0.943 0)"><g transform="translate(17.916 72.231)"><rect class="k" width="8.085" height="32.692" transform="translate(73.117 121.991)"/><path class="d" d="M1691.967,702.1a8.261,8.261,0,0,0,8.261,8.261h39.02a8.261,8.261,0,0,0,8.261-8.261h0a8.261,8.261,0,0,0-8.261-8.261h-39.02a8.261,8.261,0,0,0-8.261,8.261Z" transform="translate(-1642.402 -585.558)"/><rect class="d" width="12.939" height="30.934" transform="translate(70.515 148.707)"/><path class="k" d="M1788,857.748l40.242,8.91v4.886L1788,866.371Z" transform="translate(-1704.679 -691.848)"/><rect class="k" width="5.248" height="13.797" transform="translate(74.472 165.9)"/><path class="d" d="M1883.674,908.039a5.318,5.318,0,1,0,5.318-5.318A5.317,5.317,0,0,0,1883.674,908.039Z" transform="translate(-1766.719 -721.012)"/><path class="k" d="M1677.693,857.748l-40.242,8.91v4.886l40.242-5.174Z" transform="translate(-1607.05 -691.848)"/><path class="d" d="M1636.64,908.039a5.318,5.318,0,1,1-5.318-5.318A5.317,5.317,0,0,1,1636.64,908.039Z" transform="translate(-1599.627 -721.012)"/><path class="d" d="M1755.156,908.039a5.318,5.318,0,1,0,5.318-5.318A5.317,5.317,0,0,0,1755.156,908.039Z" transform="translate(-1683.378 -721.012)"/><path class="l" d="M1556.24,503.543h81.906c6.1,0-12.364-16.707-12.3-22.8.341-34.621,14.1-86.764,14.238-87.29a5.273,5.273,0,1,0-10.2-2.692c-.036.135-3.6,13.322-7.147,31.047-4.788,23.911-7.291,43.7-7.441,58.831a12.431,12.431,0,0,1-12.3,12.356H1556.24a5.273,5.273,0,1,0,0,10.546Z" transform="translate(-1550.967 -386.473)"/><path class="l" d="M1815.653,385.993l-65.951-.186-21.4,108.282,68.9-2.227Z" transform="translate(-1665.963 -385.807)"/><path class="f" d="M1739.24,502.895h46.753a22.614,22.614,0,0,0,16.128-6.7,23,23,0,0,0,6.721-16.1c.341-34.621,14.1-87.115,14.238-87.642a5.273,5.273,0,1,0-10.2-2.692c-.035.135-3.6,13.673-7.147,31.4-4.788,23.911-7.291,43.7-7.441,58.831a12.431,12.431,0,0,1-12.3,12.356H1739.24a5.273,5.273,0,0,0,0,10.546Z" transform="translate(-1669.638 -385.825)"/><rect class="d" width="10.141" height="2.636" transform="translate(72.129 123.749)"/></g><g transform="translate(0 63.759)"><path class="o" d="M1619.517,620v3.26c0,4.084-2.959,6.231-6.776,6.934h-40.693c-8.122,0-14.048,6.721-14.048,14.842v54.408h14.764V645.037c0-.541-.134-.781.407-.781h81.771a12.174,12.174,0,0,0,12.031-11.988V620Z" transform="translate(-1537.612 -529.203)"/><path class="a" d="M1713.436,620v3.26c0,4.084-2.532,6.381-6.356,7.084l-33.388-.061c-10.156-.407-15.554,3.438-17.229,11.384l-4.587,49.869,14.172,3.264,5.881-49.869c.112-.53.138-.616.666-.5l43.28-.023a12.257,12.257,0,0,0,11.975-12.138V620Z" transform="translate(-1598.487 -529.203)"/><g transform="translate(51.223 157.107)"><path class="b" d="M1659.147,838.3l-11.2-3.006,2.757-13.957,11.2,3.006Z" transform="translate(-1647.16 -816.874)"/><path class="e" d="M1663.038,819.627l-17.323-4.555,1.781-6.437,17.322,4.555Z" transform="translate(-1645.716 -808.635)"/></g><g transform="translate(0 164.266)"><rect class="b" width="11.952" height="13.358" transform="translate(21.443 4.921)"/><g transform="translate(0 12.696)"><rect class="c" width="38.316" height="4.218" transform="translate(0 18.238)"/><path class="d" d="M1519.685,870.2v-5.086a4.982,4.982,0,0,1,4.636,5.232h8.773l4.9,13.006H1500v-2.934C1504.57,876.525,1519.685,870.2,1519.685,870.2Z" transform="translate(-1500 -865.117)"/></g><g transform="translate(26.923 5.271)"><rect class="c" width="4.218" height="38.316" transform="translate(0 16.736) rotate(-74.987)"/><path class="d" d="M1602.158,848.906l1.317-4.912a5.214,5.214,0,0,1,3.191,6.428l8.474,2.273,1.362,13.832-36.8-9.872.8-2.978C1585.92,851.1,1602.158,848.906,1602.158,848.906Z" transform="translate(-1578.605 -843.994)"/></g><rect class="e" width="17.225" height="6.679" transform="translate(18.982)"/></g><g transform="translate(68.87 8.472)"><path class="d" d="M1756.409,421.877l15.148-1.578c-.072-.885-.842-5.4-1.013-6.3-2.57-13.508-16.226-28.191-37.188-28.191-22.36,0-36.289,16.705-37.437,30.872l13.035,5.2v49.77h47.456Z" transform="translate(-1695.918 -385.807)"/></g><path class="b" d="M1794.731,371.126a32.322,32.322,0,0,0-3.547-.643l-.81-8.449-9.022-.328-.342,8.671a27.22,27.22,0,0,0-4.33.753,10.372,10.372,0,0,0,.016,1.3c.222,5.547,4.436,9.843,9.412,9.6s8.831-4.944,8.61-10.49C1794.716,371.446,1794.736,371.217,1794.731,371.126Z" transform="translate(-1679.409 -361.706)"/></g><g transform="translate(71.519)"><g transform="translate(1.842)"><path class="w" d="M1708.7,287.885a6.929,6.929,0,1,0,6.608-7.251A6.937,6.937,0,0,0,1708.7,287.885Z" transform="translate(-1708.693 -245.369)"/><path class="b" d="M1722.088,238.93a25.826,25.826,0,0,0,26.967,24.632h0a25.826,25.826,0,0,0,24.633-26.966l-.435-9.623c-.261-5.745.017-13.867-3.351-18.01-4.987-6.134-15.112-7.006-23.616-6.622h0a25.825,25.825,0,0,0-24.633,26.966Z" transform="translate(-1717.079 -194.553)"/><path class="b" d="M1851.636,286.114a6.93,6.93,0,1,0,6.608-7.251A6.937,6.937,0,0,0,1851.636,286.114Z" transform="translate(-1801.383 -244.221)"/><path class="x" d="M1848.3,246.957a27.6,27.6,0,0,0,2.43-1.868s3.3-7.939,1.746-13.559a27.618,27.618,0,0,0-4.327-8.7l-6.467,5.834C1844.346,232.388,1846.96,237.891,1848.3,246.957Z" transform="translate(-1794.935 -207.886)"/><path class="x" d="M1727.026,230.021l-5.089-1.919s-4.879,6.98-2.474,19.027l.6.205S1720.327,235.271,1727.026,230.021Z" transform="translate(-1715.245 -211.308)"/><path class="y" d="M1763.315,195.024l-6.508,5.8s-25.421,2.619-37.09-2.041c-5.64-2.251-7.151-3.5-8.59-16.285C1718.947,194.2,1763.385,163.591,1763.315,195.024Z" transform="translate(-1710.271 -180.328)"/></g><g transform="translate(17.909 44.616)"><path class="z" d="M1789.551,314.07a.605.605,0,1,0,.548-.644A.6.6,0,0,0,1789.551,314.07Z" transform="translate(-1777.193 -311.253)"/><path class="z" d="M1781.351,308.842a.442.442,0,1,0,.4-.471A.436.436,0,0,0,1781.351,308.842Z" transform="translate(-1771.876 -307.976)"/><path class="z" d="M1774.354,315.466a.605.605,0,1,0,.548-.644A.6.6,0,0,0,1774.354,315.466Z" transform="translate(-1767.338 -312.159)"/><path class="z" d="M1770.633,307.812a.526.526,0,1,0,.476-.56A.519.519,0,0,0,1770.633,307.812Z" transform="translate(-1764.925 -307.25)"/><path class="z" d="M1762.832,313.16a.623.623,0,1,0,.565-.662A.617.617,0,0,0,1762.832,313.16Z" transform="translate(-1759.866 -310.651)"/><path class="z" d="M1754.4,317.206a.493.493,0,1,0,.447-.523A.488.488,0,0,0,1754.4,317.206Z" transform="translate(-1754.4 -313.366)"/><path class="z" d="M1798.689,319.77a.535.535,0,1,0,.485-.568A.529.529,0,0,0,1798.689,319.77Z" transform="translate(-1783.119 -314.999)"/><path class="z" d="M1797.938,311.6a.535.535,0,1,0,.484-.568A.529.529,0,0,0,1797.938,311.6Z" transform="translate(-1782.631 -309.701)"/><path class="z" d="M1808.326,318.885a.535.535,0,1,0,.484-.569A.528.528,0,0,0,1808.326,318.885Z" transform="translate(-1789.368 -314.424)"/></g><g transform="translate(0 33.228)"><path d="M1703.456,284.623l0,.086.019.086c.048.217,1.194,6.358,1.849,8.063.531,1.382,2.1,4,4.256,4.015l11.45.078c3.983.027,5.343-9.722,5.6-11.749a2.04,2.04,0,0,1,1.868-1.268,2.269,2.269,0,0,1,2.005,1.4c.432,2.246,2.431,11.7,6.347,11.723l11.451.078c2.152.015,3.555-2.582,3.994-3.957a71.066,71.066,0,0,0,1.305-8.042l0-.085,0-.088a4.281,4.281,0,0,0-3.977-4.326l-15.351-.105h-.122l-11.484-.079-15.474-.105A3.914,3.914,0,0,0,1703.456,284.623Zm28.961-.181a2.387,2.387,0,0,1,1.9-.971l14.9.155c1.256.008,1.7,1.124,1.783,2.509a59.871,59.871,0,0,1-.951,6.584c-.384,1.2-.812,2.887-2.387,2.748l-10.877-.128c-2.289-.015-4.14-6.312-4.722-9.449A1.85,1.85,0,0,1,1732.417,284.443Zm-26.626,1.384c-.007-1.385.629-2.546,1.884-2.539l14.9.156a2.6,2.6,0,0,1,1.967,1,1.953,1.953,0,0,1,.444,1.453c-.376,3.13-1.721,9.352-4.01,9.335L1710.1,295.1c-1.762-.078-2.283-1.924-2.746-3.129C1706.8,290.524,1705.944,286.525,1705.791,285.827Z" transform="translate(-1703.453 -278.417)"/><path d="M1842.434,281.307l9.6-6.455-.218,1.414-10.1,10.46Z" transform="translate(-1793.113 -274.852)"/></g><path class="c" d="M1766.425,332.774l-21.36-.264s2.948,6.757,9.045,7.463C1761.383,340.814,1766.1,334.449,1766.425,332.774Z" transform="translate(-1730.437 -279.014)"/><g transform="translate(9.745 42.294)"><path d="M1800.069,303.68a2.924,2.924,0,1,0,5.6-1.67c-.007-.026-.018-.05-.026-.075-1.458-.084-3.89-.348-5.406-.521A3.174,3.174,0,0,0,1800.069,303.68Z" transform="translate(-1775.763 -301.143)"/><path d="M1731.31,302.835a2.922,2.922,0,1,0,5.6-1.636c-1.7-.124-4.219-.408-5.474-.554A3.176,3.176,0,0,0,1731.31,302.835Z" transform="translate(-1731.175 -300.644)"/></g></g><g transform="translate(51.649 61.493)"><g transform="translate(15.124)"><path class="c" d="M1730.135,356.524l-.264,1.867c-.025,0-1.582-.221-3.565-.4l1.206-1.78C1728.988,356.363,1730.047,356.51,1730.135,356.524Z" transform="translate(-1713.527 -355.876)"/><path class="c" d="M1705.746,355.259h.094c.192,0,.386.006.583.01l-.905,1.882a3.708,3.708,0,0,0-3.335,1.755l-1.135-1.625A5.633,5.633,0,0,1,1705.746,355.259Z" transform="translate(-1697.147 -355.259)"/><path class="c" d="M1689.954,376.537c.58-1.475,1.156-2.86,1.709-4.085l1.4,1.485c-.388.89-.787,1.855-1.19,2.871Z" transform="translate(-1689.954 -366.408)"/><path class="l" d="M1695.584,363.408l.1-.2a11.133,11.133,0,0,1,1.321-2.191l1.135,1.625a13.386,13.386,0,0,0-.767,1.4l-.1.206c-.338.676-.69,1.441-1.052,2.27l-1.4-1.485C1695.078,364.454,1695.335,363.908,1695.584,363.408Z" transform="translate(-1693.106 -358.991)"/><path class="l" d="M1719.38,355.615l-1.206,1.78c-1.289-.116-2.758-.215-4.105-.228h-.077c-.079,0-.151,0-.227.008l.905-1.882C1716.3,355.333,1718.019,355.476,1719.38,355.615Z" transform="translate(-1705.395 -355.28)"/></g><path class="h" d="M1672.643,391.557l-1.92,28.64c0,.588-3.643,1.063-8.138,1.063s-8.138-.476-8.138-1.063l-1.913-28.64Z" transform="translate(-1650.563 -378.797)"/><path class="c" d="M1647.941,384.677h2.035a2.71,2.71,0,0,1,2.376-1.4h13.125a2.713,2.713,0,0,1,2.377,1.4h2.034s1.012,5.058,1.012,5.075c0,.472-5.366.857-11.987.857s-11.986-.384-11.986-.857C1646.929,389.735,1647.941,384.677,1647.941,384.677Z" transform="translate(-1646.929 -373.426)"/></g><path class="b" d="M1642.761,480.854c.094,0,.189,0,.284,0a10.7,10.7,0,0,0,7.757-3.7,28.307,28.307,0,0,0,4.674-6.94,101.282,101.282,0,0,0,6.56-18.1c.4-1.448.784-2.893,1.147-4.317l-9.694-3.946c-.292,1.178-.6,2.371-.919,3.569-4.677,17.5-8.406,21.606-9.467,22.465a11.671,11.671,0,0,1-2.416-3.543,43.6,43.6,0,0,1-3.287-10.065c-1.758-8.374-1.707-13.54.125-19.227a7.5,7.5,0,0,1,3.058-.442,32.186,32.186,0,0,1,5.045.539c.459.077.821.138,1.144.176l1.182-10.743c-.093-.012-.4-.064-.653-.106a35.751,35.751,0,0,0-8.616-.606,14.973,14.973,0,0,0-5.845,1.561,10.174,10.174,0,0,0-5,5.851c-2.155,6.429-2.647,11.433-1.389,20.474,1.183,8.5,3.731,16.127,6.991,20.94C1635.3,477.443,1638.421,480.713,1642.761,480.854Z" transform="translate(-1581.557 -339.508)"/></g><path class="b" d="M1609.682,522.579V512.033c.432,0,43.4,0,61.48-.351,3.3-.063,10.479-2.394,21.5-17.293l6.252-7.784,12.172-1.35a155.322,155.322,0,0,1-9.857,15.286c-10.483,14.209-20.529,21.5-29.861,21.684C1653.181,522.574,1610.115,522.579,1609.682,522.579Z" transform="translate(-1570.183 -378.066)"/><g transform="translate(0 93.988)"><rect class="aa" width="40.384" height="1.876" transform="translate(72.801 48.239)"/><path class="aa" d="M1509.329,498.194h69.182L1566.5,447.7h-69.182Z" transform="translate(-1497.318 -447.7)"/><path class="c" d="M1590.507,494.5l-1.544,5.806-5.515,1.033,4.877,4.4.119,6.347,4.559-3.087,5.59,2.892-2.059-6.31,3.334-4.561-5.833-.814Z" transform="translate(-1553.171 -478.051)"/></g></g><rect class="c" width="537.19" height="7.734" transform="translate(209.71 272.888)"/><g transform="translate(364.201 214.364)"><g transform="translate(0 108.644)"><rect class="k" width="8.085" height="32.692" transform="translate(46.388 13.709)"/><path class="d" d="M850.125,741.1a8.261,8.261,0,0,1-8.261,8.261H802.845a8.261,8.261,0,0,1-8.261-8.261h0a8.261,8.261,0,0,1,8.261-8.261h39.019a8.261,8.261,0,0,1,8.261,8.261Z" transform="translate(-772.099 -732.84)"/><rect class="d" width="12.939" height="30.934" transform="translate(44.137 40.425)"/><path class="k" d="M782.311,896.748l-40.242,8.91v4.886l40.242-5.174Z" transform="translate(-738.045 -839.13)"/><rect class="k" width="5.248" height="13.797" transform="translate(47.871 57.618)"/><path class="d" d="M741.257,947.039a5.318,5.318,0,1,1-5.318-5.318A5.317,5.317,0,0,1,741.257,947.039Z" transform="translate(-730.621 -868.294)"/><path class="k" d="M892.621,896.748l40.242,8.91v4.886l-40.242-5.174Z" transform="translate(-835.674 -839.13)"/><path class="d" d="M988.292,947.039a5.318,5.318,0,1,0,5.318-5.318A5.317,5.317,0,0,0,988.292,947.039Z" transform="translate(-897.714 -868.294)"/><path class="d" d="M869.774,947.039a5.318,5.318,0,1,1-5.318-5.318A5.316,5.316,0,0,1,869.774,947.039Z" transform="translate(-813.961 -868.294)"/><rect class="d" width="10.14" height="2.636" transform="translate(45.321 15.467)"/></g><g transform="translate(5.913 0)"><path class="f" d="M835.071,533.693c0,3.883-3.426,7.031-7.653,7.031H755.1c-4.227,0-7.653-3.148-7.653-7.031,0-25.705,3.564-102.821,3.564-102.821a7.03,7.03,0,0,1,7.031-7.031h66.439a7.03,7.03,0,0,1,7.031,7.031S835.071,507.988,835.071,533.693Z" transform="translate(-747.443 -423.819)"/><path class="ab" d="M835.071,533.651c0,3.883-3.426,7.031-7.653,7.031H755.1c-4.227,0-7.653-3.148-7.653-7.031,0-25.705,3.564-102.821,3.564-102.821a7.03,7.03,0,0,1,7.031-7.031c.258-1.629-14.674,83.773,5.543,103,10.062,9.568,45.487,10.632,55.541,1.055,19.941-18.994,5.355-104.052,5.355-104.052a7.03,7.03,0,0,1,7.031,7.031S835.071,507.945,835.071,533.651Z" transform="translate(-747.443 -423.777)"/></g></g><g transform="translate(498.266 100.845)"><path class="ac" d="M1287.018,131.636c1.814-10.172,8.618-20.427,25.491-21.632v-.06c0-.006.357-.013.5-.017.567-.016,1.16-.016,1.709-.008.549-.008,1.262-.008,1.828.008.145,0,.531.011.531.017V110c18.631,1.283,24.882,10.023,26.34,21.487,1.64,12.9,1.627,62.681,1.542,68.233-1.686,8.648-5.679,9.678-11.052,15.027-5.326,5.3-12.076,8.468-19.387,8.468a27.294,27.294,0,0,1-18.982-8.084,40.764,40.764,0,0,1-10.91-19.351C1284.523,188.815,1284.542,145.521,1287.018,131.636Z" transform="translate(-1223.925 -106.726)"/><path class="o" d="M1212.565,526v2.823c0,3.88-2.362,5.965-5.988,6.317h-26.918c-7.716,0-13.5,6.656-13.5,14.372L1163,618.451h12.655l3.164-68.94a.934.934,0,0,1,.84-1.014h67.012c6.182,0,11.593-4.934,11.593-11.117V526Z" transform="translate(-1145.072 -376.547)"/><path class="a" d="M1277.183,526v2.823c0,3.88-2.571,5.965-6.2,6.317h-22.215c-7.715,0-13.765,6.656-13.765,14.372v72.1h13.006v-72.1c0-.514.245-1.014.759-1.014h44.6c6.182,0,11.593-4.934,11.593-11.117V526Z" transform="translate(-1191.762 -376.547)"/><g transform="translate(0 219.302)"><rect class="ad" width="33.395" height="4.57" transform="translate(0 28.227)"/><path class="ae" d="M1129.225,729.87V724.7a4.782,4.782,0,0,1,4.14,4.705l10.025.314-.192,12.3,2.111,10.9H1112v-2.411c3.867-3.1,13.7-8.065,16.16-9.329Z" transform="translate(-1112 -724.702)"/><path class="c" d="M1175.837,752.579a2.781,2.781,0,1,0,2.782-2.781A2.782,2.782,0,0,0,1175.837,752.579Z" transform="translate(-1153.397 -740.976)"/></g><g transform="translate(25.31 219.302)"><rect class="c" width="33.395" height="4.57" transform="translate(0 28.227)"/><path class="af" d="M1201.225,729.87V724.7a4.782,4.782,0,0,1,4.14,4.705l10.025.314-.192,12.3,2.111,10.9H1184v-2.411c3.867-3.1,13.7-8.065,16.16-9.329Z" transform="translate(-1184 -724.702)"/><path class="c" d="M1247.837,752.579a2.781,2.781,0,1,0,2.782-2.781A2.782,2.782,0,0,0,1247.837,752.579Z" transform="translate(-1225.397 -740.976)"/></g><path class="ag" d="M1463.5,461.742c-.048-.036-4.868-3.534-9.8-2.125-2.733.78-6.589,1.174-9.444-1.382a8.694,8.694,0,0,1-2.585-7.315l-3.049-62.718,9.088-.417,3.071,63.2q.192-.045.421-.11c9.357-2.674,17.437,3.353,17.775,3.612l-5.5,7.241Z" transform="translate(-1323.809 -286.917)"/><path class="ag" d="M1171.88,380.011c-8.268,0-15.894-5.07-21.473-13.767-5.177-8.072-8.028-18.293-8.028-30.245h9.1c0,18.982,9.344,34.635,20.4,34.635,8.2,0,15.811-8.6,18.944-21.6l8.843,2.2c-1.945,8.074-5.425,15.072-10.062,20.169C1184.5,377.012,1178.374,380.011,1171.88,380.011Z" transform="translate(-1131.7 -253.337)"/><g transform="translate(55.36 70.965)"><path class="c" d="M1327.316,336.99l13.721-4.938c-1.091-13.46-14.489-29.331-35.731-29.331s-34.729,15.871-35.82,29.331l12.133,4.938v44.22h45.7Z" transform="translate(-1269.485 -302.721)"/></g><g transform="translate(65.132 7.152)"><path class="ag" d="M1363.927,288.773a30.776,30.776,0,0,0-3.37-.611l-.769-8.027-8.571-.311-.325,8.239a25.734,25.734,0,0,0-4.114.715,9.625,9.625,0,0,0,.016,1.237c.21,5.27,4.213,9.351,8.942,9.117s8.391-4.7,8.18-9.967C1363.913,289.077,1363.932,288.859,1363.927,288.773Z" transform="translate(-1329.369 -224.059)"/><path class="ag" d="M1297.287,154.956a24.894,24.894,0,0,0,24.481,25.3h0a24.893,24.893,0,0,0,25.3-24.481l.153-9.282a24.893,24.893,0,0,0-24.48-25.3h0a24.893,24.893,0,0,0-25.3,24.481Z" transform="translate(-1297.283 -121.189)"/><path class="ag" d="M1422.273,205.947a6.68,6.68,0,1,0,6.788-6.584A6.687,6.687,0,0,0,1422.273,205.947Z" transform="translate(-1378.336 -171.882)"/><g transform="translate(7.756 31.243)"><path d="M1385.8,213.879a2.818,2.818,0,1,0,1.786-3.687A2.9,2.9,0,0,0,1385.8,213.879Z" transform="translate(-1362.342 -210.068)"/><path d="M1319.495,215.019a2.818,2.818,0,1,0,1.784-3.687A2.9,2.9,0,0,0,1319.495,215.019Z" transform="translate(-1319.347 -210.806)"/><path class="c" d="M1351.887,247.027l-18.289.067s2.869,5.6,7.44,6.234C1347.248,254.187,1351.635,248.465,1351.887,247.027Z" transform="translate(-1328.589 -234.035)"/></g></g><path class="ac" d="M1399.887,171.369s9.067,19.406,10.739,40.724l3.857-.611s1.936-26.54-.61-40.113Z" transform="translate(-1298.687 -146.578)"/><g transform="translate(63.105)"><path class="ah" d="M1456.665,154.664c.005,1.927-1.27,3.492-2.846,3.5l-23.58.054c-1.577,0-2.859-1.555-2.863-3.482h0c-.005-1.926,1.27-3.491,2.847-3.495l23.58-.053c1.577,0,2.86,1.555,2.863,3.481Z" transform="translate(-1379.617 -133.488)"/><path class="ai" d="M1347.773,125.6l-56.257.124a24.859,24.859,0,0,1,24.815-24.862l6.576-.015a24.809,24.809,0,0,1,24.866,24.753Z" transform="translate(-1291.516 -100.845)"/><path class="aj" d="M1338.767,147.914l-14.725-.06h0a6.414,6.414,0,0,1,6.36-6.686l1.724.007a6.812,6.812,0,0,1,6.641,6.739Z" transform="translate(-1312.607 -126.994)"/></g><path class="d" d="M1137.206,331.921a1.841,1.841,0,0,1-2.555.5h0a1.84,1.84,0,0,1-.5-2.555l20.6-30.635a1.84,1.84,0,0,1,2.555-.5h0a1.84,1.84,0,0,1,.5,2.555Z" transform="translate(-1126.161 -228.966)"/><circle class="ag" cx="7.463" cy="7.463" r="7.463" transform="translate(7.867 79.148)"/></g></g></svg>