<?xml version="1.0" encoding="UTF-8" standalone="no"?>
<svg
   xmlns:dc="http://purl.org/dc/elements/1.1/"
   xmlns:cc="http://creativecommons.org/ns#"
   xmlns:rdf="http://www.w3.org/1999/02/22-rdf-syntax-ns#"
   xmlns:svg="http://www.w3.org/2000/svg"
   xmlns="http://www.w3.org/2000/svg"
   xmlns:sodipodi="http://sodipodi.sourceforge.net/DTD/sodipodi-0.dtd"
   xmlns:inkscape="http://www.inkscape.org/namespaces/inkscape"
   width="1280"
   height="834.14221"
   viewBox="0 0 1279.9999 834.14219"
   version="1.1"
   id="svg210"
   sodipodi:docname="Group 888.svg"
   inkscape:version="0.92.4 (5da689c313, 2019-01-14)">
  <metadata
     id="metadata214">
    <rdf:RDF>
      <cc:Work
         rdf:about="">
        <dc:format>image/svg+xml</dc:format>
        <dc:type
           rdf:resource="http://purl.org/dc/dcmitype/StillImage" />
        <dc:title></dc:title>
      </cc:Work>
    </rdf:RDF>
  </metadata>
  <sodipodi:namedview
     pagecolor="#ffffff"
     bordercolor="#666666"
     borderopacity="1"
     objecttolerance="10"
     gridtolerance="10"
     guidetolerance="10"
     inkscape:pageopacity="0"
     inkscape:pageshadow="2"
     inkscape:window-width="2560"
     inkscape:window-height="1418"
     id="namedview212"
     showgrid="false"
     fit-margin-top="0"
     fit-margin-left="0"
     fit-margin-right="0"
     fit-margin-bottom="0"
     inkscape:zoom="1.1872696"
     inkscape:cx="681.97033"
     inkscape:cy="364.03706"
     inkscape:window-x="2552"
     inkscape:window-y="-8"
     inkscape:window-maximized="1"
     inkscape:current-layer="svg210" />
  <defs
     id="defs4">
    <style
       id="style2">.a{fill:#1040ff;}</style>
  </defs>
  <g
     transform="translate(-32.079546,345.49621)"
     id="g208">
    <g
       transform="translate(399.086,-199.682)"
       id="g22">
      <g
         transform="translate(2.72)"
         id="g8">
        <path
           class="a"
           d="m 288.867,-236.852 a 1.479,1.479 0 0 1 -1.471,-1.5 21.876,21.876 0 0 0 -21.34,-22.352 21.846,21.846 0 0 0 -10.732,2.532 1.47,1.47 0 0 1 -1.988,-0.61 1.469,1.469 0 0 1 0.61,-1.986 24.706,24.706 0 0 1 12.178,-2.873 24.633,24.633 0 0 1 17.359,7.665 24.627,24.627 0 0 1 6.853,17.693 1.468,1.468 0 0 1 -1.469,1.431 z"
           transform="translate(-253.164,263.652)"
           id="path6"
           inkscape:connector-curvature="0"
           style="fill:#1040ff" />
      </g>
      <g
         transform="translate(7.534,13.411)"
         id="g12">
        <path
           class="a"
           d="m 275.152,-241.084 a 1.479,1.479 0 0 1 -1.471,-1.5 10.686,10.686 0 0 0 -2.977,-7.685 10.691,10.691 0 0 0 -7.54,-3.33 10.7,10.7 0 0 0 -5.29,1.246 1.465,1.465 0 0 1 -1.988,-0.608 1.471,1.471 0 0 1 0.608,-1.988 13.579,13.579 0 0 1 6.738,-1.59 13.611,13.611 0 0 1 9.6,4.24 13.612,13.612 0 0 1 3.791,9.783 1.47,1.47 0 0 1 -1.471,1.432 z"
           transform="translate(-255.715,256.549)"
           id="path10"
           inkscape:connector-curvature="0"
           style="fill:#1040ff" />
      </g>
      <g
         transform="translate(25.489,20.301)"
         id="g16">
        <path
           class="a"
           d="m 271.011,-239.945 a 6.164,6.164 0 0 1 -4,-1.354 5,5 0 0 1 -1.78,-4.017 c 0.079,-3.394 3.166,-6.655 7.026,-7.423 a 6.618,6.618 0 0 1 5.594,1.193 4.988,4.988 0 0 1 1.78,4.019 c -0.077,3.394 -3.164,6.655 -7.027,7.421 a 8.108,8.108 0 0 1 -1.593,0.161 z m 2.843,-10.015 a 5.322,5.322 0 0 0 -1.027,0.1 c -2.481,0.495 -4.614,2.6 -4.661,4.608 a 2.05,2.05 0 0 0 0.732,1.7 3.72,3.72 0 0 0 3.13,0.561 c 2.481,-0.493 4.614,-2.6 4.661,-4.606 a 2.044,2.044 0 0 0 -0.734,-1.7 3.231,3.231 0 0 0 -2.101,-0.663 z"
           transform="translate(-265.225,252.899)"
           id="path14"
           inkscape:connector-curvature="0"
           style="fill:#1040ff" />
      </g>
      <g
         transform="translate(0,2.522)"
         id="g20">
        <path
           class="a"
           d="m 258.832,-246.435 q -0.19,0 -0.385,-0.017 a 6.826,6.826 0 0 1 -4.94,-3.262 c -2.275,-3.4 -2.386,-8.123 -0.255,-10.755 a 4.69,4.69 0 0 1 4.023,-1.837 6.859,6.859 0 0 1 5.184,3.525 c 2.23,3.559 2.167,8.3 -0.145,10.791 a 4.7,4.7 0 0 1 -3.482,1.555 z m -1.848,-12.939 a 1.822,1.822 0 0 0 -1.448,0.755 c -1.321,1.631 -1.131,4.961 0.413,7.27 a 4.02,4.02 0 0 0 2.732,1.967 1.759,1.759 0 0 0 1.476,-0.608 c 1.252,-1.348 1.474,-4.576 -0.191,-7.23 a 4.08,4.08 0 0 0 -2.87,-2.152 c -0.037,-0.003 -0.074,-0.003 -0.112,-0.003 z"
           transform="translate(-251.724,262.316)"
           id="path18"
           inkscape:connector-curvature="0"
           style="fill:#1040ff" />
      </g>
    </g>
    <g
       transform="translate(165.446,435.49)"
       id="g40">
      <g
         transform="translate(3.888)"
         id="g26">
        <path
           class="a"
           d="m 510.642,-171.015 c -7.559,0 -19.3,-6.49 -28.931,-14.572 -12.839,-10.77 -23.551,-25.714 -18.114,-32.2 5.437,-6.486 22.022,1.465 34.861,12.235 12.839,10.77 23.551,25.714 18.114,32.2 a 7.359,7.359 0 0 1 -5.93,2.337 z m -41.127,-46.15 a 4.618,4.618 0 0 0 -3.666,1.269 c -3.066,3.657 3.47,16.079 17.751,28.057 14.281,11.978 27.649,16.254 30.719,12.6 3.07,-3.654 -3.47,-16.079 -17.751,-28.057 -10.977,-9.211 -21.417,-13.869 -27.052,-13.869 z"
           transform="translate(-462.149,220.125)"
           id="path24"
           inkscape:connector-curvature="0"
           style="fill:#1040ff" />
      </g>
      <g
         transform="translate(0,5.911)"
         id="g30">
        <path
           class="a"
           d="m 508.529,-169.749 a 24.411,24.411 0 0 1 -8.393,-1.824 c -6.343,-2.4 -13.636,-6.911 -20.532,-12.7 -6.896,-5.789 -12.604,-12.177 -16.075,-18.007 -3.73,-6.268 -4.453,-11.306 -2.037,-14.189 a 1.467,1.467 0 0 1 2.071,-0.179 1.467,1.467 0 0 1 0.179,2.069 c -1.5,1.8 -0.642,5.833 2.313,10.8 3.3,5.552 8.788,11.682 15.439,17.26 6.651,5.578 13.64,9.913 19.683,12.2 5.4,2.046 9.526,2.2 11.034,0.4 a 1.471,1.471 0 0 1 2.071,-0.181 1.472,1.472 0 0 1 0.181,2.071 c -1.279,1.517 -3.302,2.28 -5.934,2.28 z"
           transform="translate(-460.089,216.994)"
           id="path28"
           inkscape:connector-curvature="0"
           style="fill:#1040ff" />
      </g>
      <g
         transform="translate(1.058,1.33)"
         id="g34">
        <path
           class="a"
           d="m 462.119,-211.9 a 1.459,1.459 0 0 1 -1.019,-0.412 1.468,1.468 0 0 1 -0.038,-2.078 l 4.421,-4.58 a 1.466,1.466 0 0 1 2.077,-0.038 1.47,1.47 0 0 1 0.038,2.079 l -4.421,4.58 a 1.467,1.467 0 0 1 -1.058,0.449 z"
           transform="translate(-460.65,219.421)"
           id="path32"
           inkscape:connector-curvature="0"
           style="fill:#1040ff" />
      </g>
      <g
         transform="translate(51.777,44.36)"
         id="g38">
        <path
           class="a"
           d="m 488.985,-189.593 a 1.464,1.464 0 0 1 -1.018,-0.41 1.47,1.47 0 0 1 -0.042,-2.079 l 3.936,-4.1 a 1.474,1.474 0 0 1 2.078,-0.042 1.47,1.47 0 0 1 0.042,2.078 l -3.936,4.1 a 1.47,1.47 0 0 1 -1.06,0.453 z"
           transform="translate(-487.516,196.627)"
           id="path36"
           inkscape:connector-curvature="0"
           style="fill:#1040ff" />
      </g>
    </g>
    <g
       transform="translate(1117.446,-4.472)"
       id="g54">
      <g
         id="g44">
        <path
           class="a"
           d="m 477.926,-217.731 a 3.874,3.874 0 0 1 -1.17,-0.185 3.748,3.748 0 0 1 -2.55,-2.824 l -5.029,-23.825 a 3.776,3.776 0 0 1 0.74,-3.136 3.779,3.779 0 0 1 2.888,-1.431 l 31.618,-0.634 a 3.721,3.721 0 0 1 3.591,2.373 3.756,3.756 0 0 1 -0.952,4.2 l -26.588,24.461 a 3.744,3.744 0 0 1 -2.548,1.001 z m 26.577,-29.1 -31.64,0.634 a 0.842,0.842 0 0 0 -0.646,0.319 0.836,0.836 0 0 0 -0.164,0.7 l 5.029,23.825 a 0.827,0.827 0 0 0 0.57,0.631 0.831,0.831 0 0 0 0.831,-0.183 l 26.588,-24.461 a 0.814,0.814 0 0 0 0.213,-0.936 0.815,0.815 0 0 0 -0.784,-0.524 z"
           transform="translate(-469.094,249.769)"
           id="path42"
           inkscape:connector-curvature="0"
           style="fill:#1040ff" />
      </g>
      <g
         transform="translate(6.185,3.155)"
         id="g48">
        <path
           class="a"
           d="m 478.827,-216.424 a 3.674,3.674 0 0 1 -2.165,-0.7 l -3.685,-2.669 a 1.472,1.472 0 0 1 -0.327,-2.054 1.468,1.468 0 0 1 2.052,-0.327 l 3.685,2.671 a 0.83,0.83 0 0 0 1.031,-0.094 l 26.59,-24.459 a 0.8,0.8 0 0 0 0.274,-0.674 0.888,0.888 0 0 0 -0.387,-0.666 1.472,1.472 0 0 1 -0.43,-2.035 1.474,1.474 0 0 1 2.033,-0.43 3.836,3.836 0 0 1 1.712,2.885 3.745,3.745 0 0 1 -1.21,3.085 l -26.59,24.459 a 3.81,3.81 0 0 1 -2.583,1.008 z"
           transform="translate(-472.37,248.097)"
           id="path46"
           inkscape:connector-curvature="0"
           style="fill:#1040ff" />
      </g>
      <g
         transform="translate(35.649,0.688)"
         id="g52">
        <path
           class="a"
           d="m 492.934,-243.929 a 1.452,1.452 0 0 1 -0.861,-0.281 l -3.491,-2.533 a 1.468,1.468 0 0 1 -0.325,-2.052 1.466,1.466 0 0 1 2.052,-0.327 l 3.489,2.534 a 1.472,1.472 0 0 1 0.327,2.054 1.472,1.472 0 0 1 -1.191,0.605 z"
           transform="translate(-487.977,249.404)"
           id="path50"
           inkscape:connector-curvature="0"
           style="fill:#1040ff" />
      </g>
    </g>
    <g
       transform="translate(723.762,-345.491)"
       id="g58">
      <path
         class="a"
         d="m 554.626,-147.985 a 1.465,1.465 0 0 1 -1.208,-0.634 1.469,1.469 0 0 1 0.37,-2.045 102.75,102.75 0 0 0 12.071,-9.8 1.468,1.468 0 0 1 2.077,0.057 1.469,1.469 0 0 1 -0.057,2.079 105.672,105.672 0 0 1 -12.416,10.081 1.47,1.47 0 0 1 -0.837,0.262 z m 22.811,-21.646 a 1.47,1.47 0 0 1 -0.895,-0.3 1.47,1.47 0 0 1 -0.27,-2.062 90.493,90.493 0 0 0 8.373,-13.056 1.469,1.469 0 0 1 1.984,-0.619 1.469,1.469 0 0 1 0.619,1.984 93.339,93.339 0 0 1 -8.648,13.484 1.465,1.465 0 0 1 -1.163,0.569 z m 14.48,-27.849 a 1.476,1.476 0 0 1 -0.421,-0.062 1.47,1.47 0 0 1 -0.989,-1.829 71.642,71.642 0 0 0 2.824,-15.173 1.466,1.466 0 0 1 1.574,-1.355 1.468,1.468 0 0 1 1.357,1.574 74.825,74.825 0 0 1 -2.937,15.8 1.471,1.471 0 0 1 -1.408,1.045 z m 2.192,-31.212 a 1.473,1.473 0 0 1 -1.448,-1.233 71.4,71.4 0 0 0 -4.165,-14.857 1.469,1.469 0 0 1 0.821,-1.909 1.467,1.467 0 0 1 1.909,0.821 74.144,74.144 0 0 1 4.334,15.47 1.468,1.468 0 0 1 -1.212,1.688 1.483,1.483 0 0 1 -0.239,0.02 z m -11.467,-29.171 a 1.469,1.469 0 0 1 -1.24,-0.68 93.193,93.193 0 0 0 -9.437,-12.324 1.469,1.469 0 0 1 0.1,-2.075 1.469,1.469 0 0 1 2.075,0.1 96.38,96.38 0 0 1 9.737,12.715 1.47,1.47 0 0 1 -0.449,2.029 1.454,1.454 0 0 1 -0.786,0.236 z m -182.361,-20.122 a 1.463,1.463 0 0 1 -1.2,-0.621 1.47,1.47 0 0 1 0.351,-2.048 c 4.431,-3.132 8.92,-6.043 13.341,-8.652 a 1.469,1.469 0 0 1 2.012,0.519 1.467,1.467 0 0 1 -0.519,2.012 c -4.352,2.567 -8.773,5.435 -13.138,8.522 a 1.474,1.474 0 0 1 -0.847,0.268 z m 161.321,-3.24 a 1.475,1.475 0 0 1 -0.927,-0.33 109.582,109.582 0 0 0 -12.743,-8.933 1.471,1.471 0 0 1 -0.5,-2.016 1.469,1.469 0 0 1 2.016,-0.5 113.077,113.077 0 0 1 13.086,9.175 1.47,1.47 0 0 1 0.211,2.067 1.468,1.468 0 0 1 -1.145,0.538 z m -134.135,-12.718 a 1.467,1.467 0 0 1 -1.331,-0.848 1.468,1.468 0 0 1 0.708,-1.954 149.069,149.069 0 0 1 14.765,-5.981 1.469,1.469 0 0 1 1.867,0.914 1.469,1.469 0 0 1 -0.914,1.867 146.286,146.286 0 0 0 -14.472,5.862 1.467,1.467 0 0 1 -0.623,0.14 z m 107.176,-3.515 a 1.462,1.462 0 0 1 -0.578,-0.121 118.628,118.628 0 0 0 -14.695,-5.173 1.468,1.468 0 0 1 -1.019,-1.81 1.469,1.469 0 0 1 1.81,-1.019 121.154,121.154 0 0 1 15.061,5.3 1.47,1.47 0 0 1 0.772,1.929 1.472,1.472 0 0 1 -1.35,0.894 z m -77.371,-6.67 a 1.47,1.47 0 0 1 -1.433,-1.155 1.47,1.47 0 0 1 1.121,-1.75 136.405,136.405 0 0 1 15.75,-2.492 1.469,1.469 0 0 1 1.607,1.32 1.47,1.47 0 0 1 -1.317,1.605 133.074,133.074 0 0 0 -15.409,2.437 1.524,1.524 0 0 1 -0.318,0.035 z m 47.066,-1.826 a 1.356,1.356 0 0 1 -0.213,-0.015 125.071,125.071 0 0 0 -15.535,-1.257 1.471,1.471 0 0 1 -1.444,-1.5 1.475,1.475 0 0 1 1.5,-1.444 128.053,128.053 0 0 1 15.9,1.288 1.469,1.469 0 0 1 1.244,1.665 1.469,1.469 0 0 1 -1.452,1.264 z"
         transform="translate(-398.81,310.165)"
         id="path56"
         inkscape:connector-curvature="0"
         style="fill:#1040ff" />
    </g>
    <g
       transform="translate(893.225,235.022)"
       id="g110">
      <g
         transform="translate(41.389,1.391)"
         id="g62">
        <path
           class="a"
           d="m 557,-145.433 a 1.468,1.468 0 0 1 -1.471,-1.469 v -11.406 a 1.469,1.469 0 0 1 1.471,-1.471 1.468,1.468 0 0 1 1.469,1.471 v 11.408 a 1.468,1.468 0 0 1 -1.469,1.467 z"
           transform="translate(-555.525,159.779)"
           id="path60"
           inkscape:connector-curvature="0"
           style="fill:#1040ff" />
      </g>
      <g
         transform="translate(59.51,1.391)"
         id="g66">
        <path
           class="a"
           d="m 566.593,-145.433 a 1.468,1.468 0 0 1 -1.469,-1.469 v -11.406 a 1.468,1.468 0 0 1 1.469,-1.471 1.469,1.469 0 0 1 1.471,1.471 v 11.408 a 1.468,1.468 0 0 1 -1.471,1.467 z"
           transform="translate(-565.124,159.779)"
           id="path64"
           inkscape:connector-curvature="0"
           style="fill:#1040ff" />
      </g>
      <g
         transform="translate(5.146,27.815)"
         id="g70">
        <path
           class="a"
           d="m 537.8,-131.436 a 1.468,1.468 0 0 1 -1.469,-1.469 v -11.406 a 1.468,1.468 0 0 1 1.469,-1.471 1.469,1.469 0 0 1 1.471,1.471 v 11.406 a 1.468,1.468 0 0 1 -1.471,1.469 z"
           transform="translate(-536.327,145.782)"
           id="path68"
           inkscape:connector-curvature="0"
           style="fill:#1040ff" />
      </g>
      <g
         transform="translate(23.268,54.24)"
         id="g74">
        <path
           class="a"
           d="m 547.395,-117.443 a 1.469,1.469 0 0 1 -1.469,-1.471 v -11.4 a 1.468,1.468 0 0 1 1.469,-1.469 1.468,1.468 0 0 1 1.469,1.469 v 11.4 a 1.47,1.47 0 0 1 -1.469,1.471 z"
           transform="translate(-545.926,131.785)"
           id="path72"
           inkscape:connector-curvature="0"
           style="fill:#1040ff" />
      </g>
      <g
         transform="translate(41.389,54.24)"
         id="g78">
        <path
           class="a"
           d="m 557,-117.443 a 1.47,1.47 0 0 1 -1.471,-1.471 v -11.4 a 1.468,1.468 0 0 1 1.471,-1.471 1.468,1.468 0 0 1 1.469,1.469 v 11.4 a 1.47,1.47 0 0 1 -1.469,1.473 z"
           transform="translate(-555.525,131.785)"
           id="path76"
           inkscape:connector-curvature="0"
           style="fill:#1040ff" />
      </g>
      <g
         transform="translate(36.245,26.333)"
         id="g82">
        <path
           class="a"
           d="m 559.415,-129.171 c -3.647,0 -6.615,-2.6 -6.615,-5.8 v -5.8 c 0,-3.194 2.968,-5.8 6.615,-5.8 3.647,0 6.611,2.6 6.611,5.8 v 5.8 c 0,3.199 -2.966,5.8 -6.611,5.8 z m 0,-14.457 c -2.028,0 -3.676,1.282 -3.676,2.856 v 5.8 c 0,1.576 1.648,2.86 3.676,2.86 2.028,0 3.672,-1.284 3.672,-2.86 v -5.8 c 0,-1.574 -1.646,-2.856 -3.672,-2.856 z"
           transform="translate(-552.8,146.567)"
           id="path80"
           inkscape:connector-curvature="0"
           style="fill:#1040ff" />
      </g>
      <g
         transform="translate(18.125)"
         id="g86">
        <path
           class="a"
           d="m 549.813,-143.123 c -3.645,0 -6.611,-2.6 -6.611,-5.8 v -5.8 c 0,-3.194 2.966,-5.792 6.611,-5.792 3.645,0 6.615,2.6 6.615,5.792 v 5.8 c 0,3.196 -2.968,5.8 -6.615,5.8 z m 0,-14.453 c -2.026,0 -3.674,1.28 -3.674,2.853 v 5.8 c 0,1.578 1.648,2.862 3.674,2.862 2.026,0 3.676,-1.284 3.676,-2.862 v -5.8 c 0,-1.577 -1.65,-2.854 -3.676,-2.854 z"
           transform="translate(-543.202,160.516)"
           id="path84"
           inkscape:connector-curvature="0"
           style="fill:#1040ff" />
      </g>
      <g
         transform="translate(72.302)"
         id="g90">
        <path
           class="a"
           d="m 578.515,-143.123 c -3.647,0 -6.615,-2.6 -6.615,-5.8 v -5.8 c 0,-3.194 2.968,-5.792 6.615,-5.792 3.647,0 6.613,2.6 6.613,5.792 v 5.8 c 0,3.196 -2.966,5.8 -6.613,5.8 z m 0,-14.453 c -2.026,0 -3.676,1.28 -3.676,2.853 v 5.8 c 0,1.578 1.65,2.862 3.676,2.862 2.026,0 3.676,-1.284 3.676,-2.862 v -5.8 c 0,-1.577 -1.65,-2.854 -3.676,-2.854 z"
           transform="translate(-571.9,160.516)"
           id="path88"
           inkscape:connector-curvature="0"
           style="fill:#1040ff" />
      </g>
      <path
         class="a"
         d="m 540.216,-143.123 c -3.647,0 -6.615,-2.6 -6.615,-5.8 v -5.8 c 0,-3.194 2.968,-5.792 6.615,-5.792 3.647,0 6.613,2.6 6.613,5.792 v 5.8 c 0,3.196 -2.966,5.8 -6.613,5.8 z m 0,-14.453 c -2.026,0 -3.676,1.28 -3.676,2.853 v 5.8 c 0,1.578 1.65,2.862 3.676,2.862 2.026,0 3.674,-1.284 3.674,-2.862 v -5.8 c 0,-1.577 -1.648,-2.854 -3.674,-2.854 z"
         transform="translate(-533.601,160.516)"
         id="path92"
         inkscape:connector-curvature="0"
         style="fill:#1040ff" />
      <g
         transform="translate(59.96,26.547)"
         id="g96">
        <path
           class="a"
           d="m 566.833,-137.047 a 1.468,1.468 0 0 1 -1.471,-1.469 v -6.468 a 1.47,1.47 0 0 1 1.471,-1.471 1.47,1.47 0 0 1 1.469,1.471 v 6.468 a 1.468,1.468 0 0 1 -1.469,1.469 z"
           transform="translate(-565.362,146.454)"
           id="path94"
           inkscape:connector-curvature="0"
           style="fill:#1040ff" />
      </g>
      <g
         transform="translate(77.632,44.71)"
         id="g100">
        <path
           class="a"
           d="m 576.192,-127.432 a 1.468,1.468 0 0 1 -1.469,-1.469 v -6.464 a 1.468,1.468 0 0 1 1.469,-1.469 1.468,1.468 0 0 1 1.469,1.469 v 6.464 a 1.468,1.468 0 0 1 -1.469,1.469 z"
           transform="translate(-574.723,136.833)"
           id="path98"
           inkscape:connector-curvature="0"
           style="fill:#1040ff" />
      </g>
      <g
         transform="translate(77.632,25.886)"
         id="g104">
        <path
           class="a"
           d="m 576.192,-137.4 a 1.468,1.468 0 0 1 -1.469,-1.469 v -6.462 a 1.468,1.468 0 0 1 1.469,-1.471 1.468,1.468 0 0 1 1.469,1.471 v 6.462 a 1.468,1.468 0 0 1 -1.469,1.469 z"
           transform="translate(-574.723,146.804)"
           id="path102"
           inkscape:connector-curvature="0"
           style="fill:#1040ff" />
      </g>
      <g
         transform="translate(23.268,26.056)"
         id="g108">
        <path
           class="a"
           d="m 547.395,-140.252 a 1.469,1.469 0 0 1 -1.469,-1.471 v -3.523 a 1.468,1.468 0 0 1 1.469,-1.469 1.468,1.468 0 0 1 1.469,1.469 v 3.523 a 1.47,1.47 0 0 1 -1.469,1.471 z"
           transform="translate(-545.926,146.714)"
           id="path106"
           inkscape:connector-curvature="0"
           style="fill:#1040ff" />
      </g>
    </g>
    <g
       transform="translate(1001.322,-300.491)"
       id="g172">
      <g
         transform="translate(23.572)"
         id="g114">
        <path
           class="a"
           d="m 342.7,-284.093 h -79.69 a 5.263,5.263 0 0 1 -5.258,-5.258 v -52.358 a 5.264,5.264 0 0 1 5.258,-5.258 h 79.69 a 5.264,5.264 0 0 1 5.258,5.258 v 52.358 a 5.263,5.263 0 0 1 -5.258,5.258 z m -79.69,-60.365 a 2.751,2.751 0 0 0 -2.747,2.749 v 52.358 a 2.751,2.751 0 0 0 2.747,2.749 h 79.69 a 2.753,2.753 0 0 0 2.749,-2.749 v -52.358 a 2.753,2.753 0 0 0 -2.749,-2.749 z"
           transform="translate(-257.748,346.967)"
           id="path112"
           inkscape:connector-curvature="0"
           style="fill:#1040ff" />
      </g>
      <g
         transform="translate(0,64.888)"
         id="g118">
        <path
           class="a"
           d="M 377.834,-281.016 H 245.782 a 2.619,2.619 0 0 1 -2.4,-1.872 3.734,3.734 0 0 1 0.879,-4.07 l 20.639,-17.555 a 8.7,8.7 0 0 1 5.666,-2.211 h 82.489 a 8.686,8.686 0 0 1 5.655,2.212 l 20.642,17.553 a 3.792,3.792 0 0 1 0.884,4.079 2.613,2.613 0 0 1 -2.402,1.864 z m -107.27,-23.2 a 6.228,6.228 0 0 0 -4.037,1.611 l -20.644,17.557 a 1.056,1.056 0 0 0 -0.243,0.79 1.186,1.186 0 0 0 0.242,0.758 l 131.88,-0.027 a 1.319,1.319 0 0 0 0.206,-0.729 1.05,1.05 0 0 0 -0.247,-0.793 l -20.64,-17.551 a 6.214,6.214 0 0 0 -4.028,-1.614 z"
           transform="translate(-243.129,306.724)"
           id="path116"
           inkscape:connector-curvature="0"
           style="fill:#1040ff" />
      </g>
      <g
         transform="translate(29.093,10.858)"
         id="g122">
        <path
           class="a"
           d="m 268.342,-331.813 h -5.916 a 1.254,1.254 0 0 1 -1.254,-1.254 v -5.911 a 1.254,1.254 0 0 1 1.254,-1.254 h 5.916 a 1.255,1.255 0 0 1 1.256,1.254 v 5.911 a 1.255,1.255 0 0 1 -1.256,1.254 z m -4.66,-2.509 h 3.405 v -3.4 h -3.405 z"
           transform="translate(-261.172,340.233)"
           id="path120"
           inkscape:connector-curvature="0"
           style="fill:#1040ff" />
      </g>
      <g
         transform="translate(40.335,10.858)"
         id="g126">
        <path
           class="a"
           d="M 275.314,-331.813 H 269.4 a 1.254,1.254 0 0 1 -1.254,-1.254 v -5.911 a 1.254,1.254 0 0 1 1.254,-1.254 h 5.916 a 1.254,1.254 0 0 1 1.254,1.254 v 5.911 a 1.254,1.254 0 0 1 -1.256,1.254 z m -4.661,-2.509 h 3.407 v -3.4 h -3.407 z"
           transform="translate(-268.144,340.233)"
           id="path124"
           inkscape:connector-curvature="0"
           style="fill:#1040ff" />
      </g>
      <g
         transform="translate(29.093,21.645)"
         id="g130">
        <path
           class="a"
           d="m 268.342,-325.117 h -5.916 a 1.254,1.254 0 0 1 -1.254,-1.256 v -5.916 a 1.254,1.254 0 0 1 1.254,-1.254 h 5.916 a 1.255,1.255 0 0 1 1.256,1.254 v 5.916 a 1.256,1.256 0 0 1 -1.256,1.256 z m -4.66,-2.511 h 3.405 v -3.405 h -3.405 z"
           transform="translate(-261.172,333.543)"
           id="path128"
           inkscape:connector-curvature="0"
           style="fill:#1040ff" />
      </g>
      <g
         transform="translate(51.575,10.858)"
         id="g134">
        <path
           class="a"
           d="m 282.284,-331.813 h -5.914 a 1.254,1.254 0 0 1 -1.255,-1.254 v -5.911 a 1.254,1.254 0 0 1 1.255,-1.254 h 5.914 a 1.254,1.254 0 0 1 1.254,1.254 v 5.911 a 1.254,1.254 0 0 1 -1.254,1.254 z m -4.66,-2.509 h 3.405 v -3.4 h -3.405 z"
           transform="translate(-275.115,340.233)"
           id="path132"
           inkscape:connector-curvature="0"
           style="fill:#1040ff" />
      </g>
      <g
         transform="translate(62.81,10.858)"
         id="g138">
        <path
           class="a"
           d="m 289.26,-331.813 h -5.921 a 1.255,1.255 0 0 1 -1.256,-1.254 v -5.911 a 1.255,1.255 0 0 1 1.256,-1.254 h 5.921 a 1.255,1.255 0 0 1 1.256,1.254 v 5.911 a 1.255,1.255 0 0 1 -1.256,1.254 z m -4.666,-2.509 h 3.412 v -3.4 h -3.412 z"
           transform="translate(-282.083,340.233)"
           id="path136"
           inkscape:connector-curvature="0"
           style="fill:#1040ff" />
      </g>
      <g
         transform="translate(42.105,24.396)"
         id="g142">
        <path
           class="a"
           d="M 286.416,-329.328 H 270.5 a 1.254,1.254 0 0 1 -1.254,-1.254 1.254,1.254 0 0 1 1.254,-1.254 h 15.919 a 1.254,1.254 0 0 1 1.254,1.254 1.254,1.254 0 0 1 -1.257,1.254 z"
           transform="translate(-269.242,331.837)"
           id="path140"
           inkscape:connector-curvature="0"
           style="fill:#1040ff" />
      </g>
      <g
         transform="translate(42.105,30.155)"
         id="g146">
        <path
           class="a"
           d="M 286.416,-325.755 H 270.5 a 1.254,1.254 0 0 1 -1.254,-1.254 1.255,1.255 0 0 1 1.254,-1.256 h 15.919 a 1.255,1.255 0 0 1 1.254,1.256 1.254,1.254 0 0 1 -1.257,1.254 z"
           transform="translate(-269.242,328.265)"
           id="path144"
           inkscape:connector-curvature="0"
           style="fill:#1040ff" />
      </g>
      <g
         transform="translate(42.105,35.918)"
         id="g150">
        <path
           class="a"
           d="M 277.912,-322.18 H 270.5 a 1.254,1.254 0 0 1 -1.254,-1.256 1.254,1.254 0 0 1 1.254,-1.254 h 7.415 a 1.255,1.255 0 0 1 1.256,1.254 1.255,1.255 0 0 1 -1.259,1.256 z"
           transform="translate(-269.242,324.691)"
           id="path148"
           inkscape:connector-curvature="0"
           style="fill:#1040ff" />
      </g>
      <g
         transform="translate(84.947,10.713)"
         id="g154">
        <path
           class="a"
           d="m 314.943,-312.607 h -13.9 a 5.232,5.232 0 0 1 -5.227,-5.226 V -335.1 a 5.233,5.233 0 0 1 5.227,-5.227 h 13.9 a 5.232,5.232 0 0 1 5.226,5.227 v 17.262 a 5.232,5.232 0 0 1 -5.226,5.231 z m -13.9,-25.205 a 2.719,2.719 0 0 0 -2.717,2.717 v 17.262 a 2.719,2.719 0 0 0 2.717,2.715 h 13.9 a 2.72,2.72 0 0 0 2.717,-2.715 V -335.1 a 2.72,2.72 0 0 0 -2.717,-2.717 z"
           transform="translate(-295.812,340.323)"
           id="path152"
           inkscape:connector-curvature="0"
           style="fill:#1040ff" />
      </g>
      <g
         transform="translate(67.425,27.561)"
         id="g158">
        <path
           class="a"
           d="m 312.88,-302.158 h -23.1 a 4.838,4.838 0 0 1 -4.832,-4.832 v -18.051 a 4.837,4.837 0 0 1 4.832,-4.832 h 23.1 a 4.837,4.837 0 0 1 4.831,4.832 v 18.051 a 4.838,4.838 0 0 1 -4.831,4.832 z m -23.1,-25.205 a 2.324,2.324 0 0 0 -2.322,2.322 v 18.051 a 2.324,2.324 0 0 0 2.322,2.322 h 23.1 a 2.323,2.323 0 0 0 2.32,-2.322 v -18.051 a 2.323,2.323 0 0 0 -2.32,-2.322 z"
           transform="translate(-284.945,329.874)"
           id="path156"
           inkscape:connector-curvature="0"
           style="fill:#1040ff" />
      </g>
      <g
         transform="translate(17.54,75.122)"
         id="g162">
        <path
           class="a"
           d="m 331.306,-297.867 h -76.043 a 1.254,1.254 0 0 1 -1.256,-1.256 1.254,1.254 0 0 1 1.256,-1.255 h 76.042 a 1.255,1.255 0 0 1 1.256,1.255 1.255,1.255 0 0 1 -1.255,1.256 z"
           transform="translate(-254.007,300.377)"
           id="path160"
           inkscape:connector-curvature="0"
           style="fill:#1040ff" />
      </g>
      <g
         transform="translate(24.112,70.194)"
         id="g166">
        <path
           class="a"
           d="m 287.6,-300.923 h -28.261 a 1.257,1.257 0 0 1 -1.256,-1.256 1.255,1.255 0 0 1 1.256,-1.254 H 287.6 a 1.255,1.255 0 0 1 1.256,1.254 1.257,1.257 0 0 1 -1.256,1.256 z"
           transform="translate(-258.083,303.433)"
           id="path164"
           inkscape:connector-curvature="0"
           style="fill:#1040ff" />
      </g>
      <g
         transform="translate(44.662,80.044)"
         id="g170">
        <path
           class="a"
           d="m 317.607,-286.772 h -45.524 a 1.256,1.256 0 0 1 -1.108,-0.663 1.26,1.26 0 0 1 0.065,-1.292 l 4.5,-6.717 a 3.581,3.581 0 0 1 2.964,-1.88 h 32.666 a 3.558,3.558 0 0 1 2.968,1.885 l 4.508,6.712 a 1.25,1.25 0 0 1 0.066,1.29 1.253,1.253 0 0 1 -1.105,0.665 z m -43.172,-2.509 h 40.816 l -3.2,-4.763 c -0.377,-0.569 -0.709,-0.769 -0.882,-0.769 h -32.662 c -0.166,0 -0.5,0.2 -0.882,0.771 z"
           transform="translate(-270.827,297.324)"
           id="path168"
           inkscape:connector-curvature="0"
           style="fill:#1040ff" />
      </g>
    </g>
    <g
       transform="translate(1207.172,318.184)"
       id="g176">
      <path
         class="a"
         d="m 464.777,-238.354 a 7.565,7.565 0 0 1 -4.172,-1.276 1.47,1.47 0 0 1 -0.419,-2.035 1.467,1.467 0 0 1 2.037,-0.419 4.57,4.57 0 0 0 5.18,-0.051 4.571,4.571 0 0 0 1.9,-4.816 7.459,7.459 0 0 1 3.115,-7.867 7.459,7.459 0 0 1 8.459,-0.081 4.592,4.592 0 0 0 5.2,-0.045 4.571,4.571 0 0 0 1.907,-4.81 7.5,7.5 0 0 1 3.119,-7.912 7.441,7.441 0 0 1 8.441,-0.083 1.468,1.468 0 0 1 0.421,2.035 1.47,1.47 0 0 1 -2.035,0.421 4.56,4.56 0 0 0 -5.161,0.049 4.613,4.613 0 0 0 -1.912,4.865 7.453,7.453 0 0 1 -3.115,7.859 7.473,7.473 0 0 1 -8.475,0.076 4.581,4.581 0 0 0 -5.18,0.051 4.572,4.572 0 0 0 -1.9,4.816 7.455,7.455 0 0 1 -3.115,7.865 7.553,7.553 0 0 1 -4.295,1.358 z"
         transform="translate(-459.944,269.02)"
         id="path174"
         inkscape:connector-curvature="0"
         style="fill:#1040ff" />
    </g>
    <g
       transform="translate(152.237,-264.871)"
       id="g190">
      <g
         transform="translate(0,5.43)"
         id="g184">
        <path
           class="a"
           d="m 447.933,-123.4 a 1.464,1.464 0 0 1 -1.038,-0.43 l -8.2,-8.2 a 1.469,1.469 0 0 1 -0.43,-1.038 1.47,1.47 0 0 1 0.43,-1.04 l 8.2,-8.2 a 1.466,1.466 0 0 1 2.078,0 1.468,1.468 0 0 1 0,2.077 l -7.166,7.166 7.166,7.166 a 1.468,1.468 0 0 1 0,2.077 1.468,1.468 0 0 1 -1.04,0.422 z"
           transform="translate(-438.26,142.752)"
           id="path178"
           inkscape:connector-curvature="0"
           style="fill:#1040ff" />
        <g
           transform="translate(31.833)"
           id="g182">
          <path
             class="a"
             d="m 456.592,-123.4 a 1.46,1.46 0 0 1 -1.038,-0.43 1.464,1.464 0 0 1 0,-2.077 l 7.162,-7.166 -7.162,-7.166 a 1.464,1.464 0 0 1 0,-2.077 1.464,1.464 0 0 1 2.077,0 l 8.2,8.2 a 1.47,1.47 0 0 1 0,2.079 l -8.2,8.2 a 1.464,1.464 0 0 1 -1.039,0.437 z"
             transform="translate(-455.122,142.752)"
             id="path180"
             inkscape:connector-curvature="0"
             style="fill:#1040ff" />
        </g>
      </g>
      <g
         transform="translate(15.215)"
         id="g188">
        <path
           class="a"
           d="m 447.789,-115.419 a 1.482,1.482 0 0 1 -0.489,-0.085 1.47,1.47 0 0 1 -0.9,-1.875 l 9.607,-27.268 a 1.468,1.468 0 0 1 1.875,-0.9 1.469,1.469 0 0 1 0.9,1.875 l -9.605,27.272 a 1.475,1.475 0 0 1 -1.388,0.981 z"
           transform="translate(-446.32,145.628)"
           id="path186"
           inkscape:connector-curvature="0"
           style="fill:#1040ff" />
      </g>
    </g>
    <g
       transform="translate(74.377,131)"
       id="g198">
      <g
         transform="translate(25.441,26.262)"
         id="g194">
        <path
           class="a"
           d="m 267.8,-154.885 a 5,5 0 0 1 -2.826,-0.874 4.97,4.97 0 0 1 -2.107,-3.221 l -0.493,-2.643 a 22.258,22.258 0 0 1 -4.744,-0.995 l -1.53,2.218 a 4.941,4.941 0 0 1 -3.2,2.1 4.973,4.973 0 0 1 -3.789,-0.793 l -1.512,-1.038 a 5,5 0 0 1 -2.1,-3.223 5,5 0 0 1 0.8,-3.768 l 1.5,-2.2 a 21.3,21.3 0 0 1 -2.681,-4.072 l -2.605,0.489 a 5.016,5.016 0 0 1 -3.762,-0.787 4.97,4.97 0 0 1 -2.107,-3.221 l -0.34,-1.81 a 5.073,5.073 0 0 1 4.015,-5.884 l 2.566,-0.474 a 21.381,21.381 0 0 1 1.006,-4.8 l -2.143,-1.471 a 5.037,5.037 0 0 1 -1.323,-6.989 l 1.035,-1.525 a 5.007,5.007 0 0 1 3.228,-2.107 5,5 0 0 1 3.764,0.8 l 2.147,1.465 a 21.137,21.137 0 0 1 4.112,-2.7 l -0.472,-2.528 a 5,5 0 0 1 0.8,-3.774 4.98,4.98 0 0 1 3.228,-2.1 l 1.807,-0.338 a 5.025,5.025 0 0 1 5.869,4.006 l 0.472,2.526 a 21.378,21.378 0 0 1 4.822,1.029 l 1.45,-2.129 a 5,5 0 0 1 3.238,-2.107 5.009,5.009 0 0 1 3.774,0.8 l 1.51,1.04 a 4.994,4.994 0 0 1 2.1,3.223 4.986,4.986 0 0 1 -0.8,3.764 l -1.471,2.141 a 21.274,21.274 0 0 1 2.679,4.114 l 2.575,-0.487 a 5.048,5.048 0 0 1 5.869,4.025 l 0.34,1.809 a 4.962,4.962 0 0 1 -0.774,3.755 4.979,4.979 0 0 1 -3.232,2.116 l -2.615,0.489 a 21.315,21.315 0 0 1 -1.021,4.767 l 2.2,1.508 a 5.058,5.058 0 0 1 1.331,6.979 l -1.067,1.544 a 4.948,4.948 0 0 1 -3.2,2.094 5,5 0 0 1 -3.787,-0.793 l -2.213,-1.522 a 21.089,21.089 0 0 1 -4.057,2.649 l 0.5,2.634 a 5,5 0 0 1 -0.8,3.779 4.984,4.984 0 0 1 -3.228,2.1 l -1.809,0.338 a 5.064,5.064 0 0 1 -0.929,0.072 z m -10.738,-10.968 a 1.467,1.467 0 0 1 0.534,0.1 19.337,19.337 0 0 0 6.09,1.28 1.465,1.465 0 0 1 1.371,1.2 l 0.7,3.755 a 2.057,2.057 0 0 0 0.872,1.327 2.088,2.088 0 0 0 1.567,0.33 l 1.812,-0.34 a 2.072,2.072 0 0 0 1.342,-0.868 2.089,2.089 0 0 0 0.334,-1.571 l -0.715,-3.751 a 1.467,1.467 0 0 1 0.859,-1.624 18.2,18.2 0 0 0 5.19,-3.391 1.467,1.467 0 0 1 1.833,-0.134 l 3.149,2.173 a 2.087,2.087 0 0 0 1.573,0.328 2.034,2.034 0 0 0 1.32,-0.867 l 1.068,-1.542 a 2.111,2.111 0 0 0 -0.566,-2.9 l -3.136,-2.15 a 1.471,1.471 0 0 1 -0.536,-1.748 18.357,18.357 0 0 0 1.3,-6.083 1.47,1.47 0 0 1 1.2,-1.4 l 3.738,-0.7 a 2.067,2.067 0 0 0 1.34,-0.88 2.036,2.036 0 0 0 0.319,-1.546 c 0,-0.011 -0.342,-1.826 -0.342,-1.826 a 2.093,2.093 0 0 0 -2.443,-1.674 l -3.693,0.7 a 1.473,1.473 0 0 1 -1.624,-0.865 18.536,18.536 0 0 0 -3.413,-5.246 1.473,1.473 0 0 1 -0.13,-1.829 l 2.114,-3.077 a 2.065,2.065 0 0 0 0.332,-1.561 2.08,2.08 0 0 0 -0.878,-1.34 l -1.51,-1.04 a 2.083,2.083 0 0 0 -1.571,-0.328 2.084,2.084 0 0 0 -1.35,0.876 l -2.094,3.073 a 1.471,1.471 0 0 1 -1.759,0.536 18.519,18.519 0 0 0 -6.141,-1.312 1.469,1.469 0 0 1 -1.384,-1.2 l -0.68,-3.645 a 2.1,2.1 0 0 0 -2.439,-1.656 l -1.81,0.34 a 2.067,2.067 0 0 0 -1.344,0.87 2.082,2.082 0 0 0 -0.334,1.569 l 0.68,3.644 a 1.468,1.468 0 0 1 -0.855,1.616 18.271,18.271 0 0 0 -5.226,3.443 1.47,1.47 0 0 1 -1.837,0.143 l -3.1,-2.114 a 2.083,2.083 0 0 0 -1.565,-0.334 2.092,2.092 0 0 0 -1.34,0.876 l -1.035,1.525 a 2.053,2.053 0 0 0 -0.328,1.559 2.124,2.124 0 0 0 0.887,1.348 l 3.079,2.114 a 1.472,1.472 0 0 1 0.536,1.748 18.389,18.389 0 0 0 -1.276,6.118 1.476,1.476 0 0 1 -1.2,1.4 l -3.681,0.68 a 2.1,2.1 0 0 0 -1.671,2.458 l 0.338,1.81 a 2.054,2.054 0 0 0 0.87,1.327 2.119,2.119 0 0 0 1.569,0.33 l 3.717,-0.7 a 1.468,1.468 0 0 1 1.616,0.851 18.331,18.331 0 0 0 3.426,5.192 1.472,1.472 0 0 1 0.143,1.837 l -2.152,3.153 a 2.067,2.067 0 0 0 -0.332,1.565 2.075,2.075 0 0 0 0.874,1.34 l 1.512,1.04 a 2.1,2.1 0 0 0 1.576,0.328 2.039,2.039 0 0 0 1.318,-0.865 l 2.18,-3.164 a 1.469,1.469 0 0 1 1.212,-0.631 z m 7.3,-4.161 A 12.984,12.984 0 0 1 257,-172.3 a 13.033,13.033 0 0 1 -5.482,-8.4 13.113,13.113 0 0 1 10.461,-15.29 13.032,13.032 0 0 1 9.836,2.065 12.963,12.963 0 0 1 5.456,8.38 13.127,13.127 0 0 1 -10.462,15.3 13.141,13.141 0 0 1 -2.447,0.231 z m 0.072,-23.27 a 10.38,10.38 0 0 0 -1.909,0.177 10.116,10.116 0 0 0 -6.513,4.255 10.055,10.055 0 0 0 -1.6,7.6 10.106,10.106 0 0 0 4.253,6.521 10.074,10.074 0 0 0 7.6,1.6 10.182,10.182 0 0 0 8.116,-11.876 10.049,10.049 0 0 0 -4.227,-6.5 10.09,10.09 0 0 0 -5.72,-1.777 z"
           transform="translate(-236.22,211.241)"
           id="path192"
           inkscape:connector-curvature="0"
           style="fill:#1040ff" />
      </g>
      <path
         class="a"
         d="m 259.23,-209.671 -0.232,-1.24 a 2.431,2.431 0 0 0 -2.839,-1.943 l -2.533,0.476 a 13.567,13.567 0 0 0 -2.52,-3.87 l 1.448,-2.111 a 2.431,2.431 0 0 0 -0.632,-3.383 l -1.036,-0.708 a 2.432,2.432 0 0 0 -3.383,0.636 l -1.433,2.1 a 13.973,13.973 0 0 0 -4.535,-0.965 l -0.466,-2.49 a 2.434,2.434 0 0 0 -2.841,-1.943 l -1.24,0.232 a 2.436,2.436 0 0 0 -1.943,2.841 l 0.468,2.49 a 13.787,13.787 0 0 0 -3.866,2.541 l -2.109,-1.442 a 2.433,2.433 0 0 0 -3.381,0.634 l -0.71,1.038 a 2.435,2.435 0 0 0 0.638,3.385 l 2.112,1.44 a 13.588,13.588 0 0 0 -0.946,4.519 l -2.522,0.474 a 2.434,2.434 0 0 0 -1.943,2.839 l 0.234,1.242 a 2.431,2.431 0 0 0 2.839,1.941 l 2.543,-0.476 a 13.668,13.668 0 0 0 2.526,3.836 l -1.474,2.146 a 2.434,2.434 0 0 0 0.632,3.385 l 1.04,0.71 a 2.433,2.433 0 0 0 3.381,-0.634 l 1.476,-2.16 a 13.946,13.946 0 0 0 4.476,0.944 l 0.479,2.564 a 2.434,2.434 0 0 0 2.841,1.943 l 1.24,-0.232 a 2.432,2.432 0 0 0 1.943,-2.839 l -0.481,-2.566 a 13.831,13.831 0 0 0 3.829,-2.5 l 2.16,1.476 a 2.433,2.433 0 0 0 3.381,-0.634 l 0.712,-1.042 a 2.433,2.433 0 0 0 -0.634,-3.381 l -2.146,-1.467 a 13.706,13.706 0 0 0 0.953,-4.489 l 2.552,-0.48 a 2.431,2.431 0 0 0 1.942,-2.837 z m -17.13,8.64 a 6,6 0 0 1 -7,-4.8 6,6 0 0 1 4.789,-7 6,6 0 0 1 7.008,4.788 6,6 0 0 1 -4.797,7.012 z"
         transform="translate(-222.744,225.152)"
         id="path196"
         inkscape:connector-curvature="0"
         style="fill:#1040ff" />
    </g>
    <g
       transform="rotate(166,27.414585,226.8838)"
       id="g202">
      <path
         class="a"
         d="m 400.281,-277.985 c -0.47736,0.001 -0.92527,-0.23062 -1.2,-0.621 -0.46819,-0.66256 -0.3111,-1.57915 0.351,-2.048 4.431,-3.132 8.92,-6.043 13.341,-8.652 0.69889,-0.41244 1.59982,-0.18005 2.012,0.519 0.41363,0.69873 0.181,1.60054 -0.519,2.012 -4.352,2.567 -8.773,5.435 -13.138,8.522 -0.24805,0.17431 -0.54382,0.2679 -0.847,0.268 z m 27.186,-15.958 c -0.57087,3.8e-4 -1.09012,-0.33044 -1.331,-0.848 -0.34502,-0.73505 -0.0278,-1.61057 0.708,-1.954 4.81155,-2.25541 9.74025,-4.25193 14.765,-5.981 0.76798,-0.26369 1.60423,0.1457 1.867,0.914 0.26369,0.76798 -0.1457,1.60423 -0.914,1.867 -4.92492,1.69497 -9.7558,3.65176 -14.472,5.862 -0.19487,0.0918 -0.40757,0.13964 -0.623,0.14 z m 29.805,-10.185 c -0.68941,-0.001 -1.28527,-0.4816 -1.433,-1.155 -0.17343,-0.79276 0.32835,-1.57608 1.121,-1.75 5.19691,-1.13708 10.4559,-1.96917 15.75,-2.492 0.80853,-0.0801 1.52855,0.5113 1.607,1.32 0.0784,0.80656 -0.51065,1.52446 -1.317,1.605 -5.17957,0.5103 -10.32474,1.32404 -15.409,2.437 -0.10448,0.0228 -0.21107,0.0345 -0.318,0.035 z"
         transform="translate(-398.81,310.165)"
         id="path200"
         inkscape:connector-curvature="0"
         style="fill:#1040ff"
         sodipodi:nodetypes="ccccccccccccccccccccccccc" />
    </g>
    <g
       transform="rotate(144,126.67785,-64.879783)"
       id="g206">
      <path
         class="a"
         d="m 400.281,-277.985 c -0.47736,0.001 -0.92527,-0.23062 -1.2,-0.621 -0.46819,-0.66256 -0.3111,-1.57915 0.351,-2.048 4.431,-3.132 8.92,-6.043 13.341,-8.652 0.69889,-0.41244 1.59982,-0.18005 2.012,0.519 0.41363,0.69873 0.181,1.60054 -0.519,2.012 -4.352,2.567 -8.773,5.435 -13.138,8.522 -0.24805,0.17431 -0.54382,0.2679 -0.847,0.268 z m 161.321,-3.24 c -0.33766,-6.5e-4 -0.66488,-0.11714 -0.927,-0.33 -4.0306,-3.2759 -8.289,-6.26109 -12.743,-8.933 -0.69368,-0.41944 -0.91729,-1.32102 -0.5,-2.016 0.41873,-0.69464 1.3212,-0.91846 2.016,-0.5 4.57294,2.74586 8.94586,5.81185 13.086,9.175 0.62862,0.51275 0.72305,1.43781 0.211,2.067 -0.28085,0.34303 -0.70168,0.54076 -1.145,0.538 z m -134.135,-12.718 c -0.57087,3.8e-4 -1.09012,-0.33044 -1.331,-0.848 -0.34502,-0.73505 -0.0278,-1.61057 0.708,-1.954 4.81155,-2.25541 9.74025,-4.25193 14.765,-5.981 0.76798,-0.26369 1.60423,0.1457 1.867,0.914 0.26369,0.76798 -0.1457,1.60423 -0.914,1.867 -4.92492,1.69497 -9.7558,3.65176 -14.472,5.862 -0.19487,0.0918 -0.40757,0.13964 -0.623,0.14 z m 107.176,-3.515 c -0.19889,-6e-4 -0.39557,-0.0418 -0.578,-0.121 -4.77969,-2.04446 -9.68861,-3.77252 -14.695,-5.173 -0.78148,-0.21807 -1.23787,-1.02874 -1.019,-1.81 0.21855,-0.78112 1.02881,-1.23728 1.81,-1.019 5.13141,1.43358 10.16267,3.20409 15.061,5.3 0.74551,0.31984 1.09101,1.18313 0.772,1.929 -0.23096,0.54096 -0.7618,0.89249 -1.35,0.894 z m -77.371,-6.67 c -0.68941,-0.001 -1.28527,-0.4816 -1.433,-1.155 -0.17343,-0.79276 0.32835,-1.57608 1.121,-1.75 5.19691,-1.13708 10.4559,-1.96917 15.75,-2.492 0.80853,-0.0801 1.52855,0.5113 1.607,1.32 0.0784,0.80656 -0.51065,1.52446 -1.317,1.605 -5.17957,0.5103 -10.32474,1.32404 -15.409,2.437 -0.10448,0.0228 -0.21107,0.0345 -0.318,0.035 z m 47.066,-1.826 c -0.0713,6.1e-4 -0.1425,-0.004 -0.213,-0.015 -5.14717,-0.74156 -10.33557,-1.16137 -15.535,-1.257 -0.81327,-0.0148 -1.46017,-0.68676 -1.444,-1.5 0.017,-0.81231 0.68763,-1.45795 1.5,-1.444 5.32162,0.0985 10.63192,0.52864 15.9,1.288 0.8035,0.11592 1.36063,0.86161 1.244,1.665 -0.10203,0.72395 -0.7209,1.26269 -1.452,1.264 z"
         transform="translate(-398.81,310.165)"
         id="path204"
         inkscape:connector-curvature="0"
         style="fill:#1040ff"
         sodipodi:nodetypes="cccccccccccccccccccccccccccccccccccccccccccccccccccc" />
    </g>
  </g>
</svg>
