<svg xmlns="http://www.w3.org/2000/svg" width="486.407" height="379.737" viewBox="0 0 486.407 379.737"><defs><style>.a,.e{fill:#373737;}.a{opacity:0.1;}.b,.d{fill:#fff;}.b{opacity:0.3;}.c{fill:#fccfb2;}.f{fill:#2b72b6;}.g{fill:#80b3dd;}.h{fill:#ba6338;}.i{fill:#a55532;}.j{fill:#9b4b10;}.k{fill:#b22f65;}.l{fill:#e25d90;}.m{fill:#e22dbc;}.m,.n,.o{opacity:0.7;}.n{fill:#f7fc1a;}.o{fill:#57e82e;}.p{fill:#5454b5;}.q{fill:#353535;}.r{fill:#9b6d5c;}.s{fill:#ddd;}.t{fill:#246591;}.u{fill:#ee509c;}.v{fill:#d84c96;}.w{fill:#e6eded;}.x{fill:#3f3f3f;}.y{fill:#00fff8;}</style></defs><g transform="translate(-143.159 -179.167)"><path class="a" d="M143.159,1049.912c0,9.126,144.557,20.223,278.8,20.223s212.982-9.466,207.324-20.223c-5.936-11.281-117.688-17.6-251.926-17.6S143.159,1038.631,143.159,1049.912Z" transform="translate(0 -511.231)"/><path class="b" d="M1290.046,587.092c-.677,1.363-2.028,2.07-3.02,1.577s-1.246-2-.57-3.359,2.028-2.07,3.019-1.577S1290.722,585.729,1290.046,587.092Z" transform="translate(-684.871 -242.334)"/><g transform="translate(278.68 179.167)"><g transform="translate(34.342 199.917)"><g transform="translate(37.672 124.639)"><rect class="c" width="10.821" height="12.424" transform="translate(4.008)"/><rect class="d" width="32.462" height="4.408" transform="translate(0 23.245)"/><path class="e" d="M677.832,1010.593v-4.583a4.4,4.4,0,0,0-4.244,4.4l-8.581.006L661,1022.438h32.462V1019.8Z" transform="translate(-661 -999.193)"/></g><g transform="translate(4.408 124.639)"><rect class="c" width="10.821" height="12.424" transform="translate(4.408)"/><rect class="d" width="18.836" height="4.408" transform="translate(0 23.245)"/><path class="e" d="M582.409,1010.146h1.223a4.217,4.217,0,1,1,8.4,0h1.2l3.607,12.023H578Z" transform="translate(-578 -998.925)"/></g><path class="f" d="M567,678v19.056a18.6,18.6,0,0,0,6.188,9.295l.307,96.289h14.858l-.209-95.221,18.577.138.077,95.084h13.9V678Z" transform="translate(-567 -678)"/><rect class="g" width="17.233" height="6.012" transform="translate(38.474 119.429)"/><rect class="g" width="17.233" height="6.012" transform="translate(5.611 119.429)"/></g><path class="d" d="M594.273,453.081l16.115-6.472c-1.43-17.642-18.9-38.444-46.745-38.444s-45.34,20.8-46.77,38.444l16.082,6.472v82.062h61.318Z" transform="translate(-502.621 -316.389)"/><path class="c" d="M627.978,393.591a40.761,40.761,0,0,0-4.409-.767l-1.014-10.576-11.234-.408-.429,10.861a34.258,34.258,0,0,0-5.39.875,12.763,12.763,0,0,0,.022,1.621c.275,6.907,5.523,12.257,11.72,11.949s11-6.157,10.723-13.063C627.963,393.969,627.986,393.7,627.978,393.591Z" transform="translate(-555.719 -300.615)"/><g transform="translate(18.362)"><path class="c" d="M707.909,296.778a8.8,8.8,0,1,1-8.741-8.877A8.809,8.809,0,0,1,707.909,296.778Z" transform="translate(-624.912 -244.323)"/><path class="c" d="M615.63,247.911a32.8,32.8,0,0,1-33.01,32.578h0a32.794,32.794,0,0,1-32.577-33.011l.082-12.23c.047-7.3-.7-17.595,3.368-23.018,6.027-8.027,18.831-9.629,29.641-9.558h0a32.793,32.793,0,0,1,32.577,33.009Z" transform="translate(-540.859 -193.25)"/><path class="c" d="M544.727,298.965a8.8,8.8,0,1,1-8.742-8.878A8.811,8.811,0,0,1,544.727,298.965Z" transform="translate(-527.128 -245.633)"/><path class="h" d="M548.95,257.968a13.017,13.017,0,0,1-1.8-1.341s-4.572-9.913-2.881-17.12c.593-3.19,2.516-7.252,5.063-11.258l8.493,7.086C554.631,240.2,550.209,246.4,548.95,257.968Z" transform="translate(-537.174 -208.578)"/><path class="h" d="M689.119,231.116l6.361-2.684s6.535,8.618,4.073,24.023l-.755.29S697.875,237.451,689.119,231.116Z" transform="translate(-624.198 -208.688)"/><path class="i" d="M557.934,198.52l8.542,7.04s32.383,2.077,46.962-4.406c7.047-3.133,8.9-4.789,10.1-21.085C614.191,195.307,556.3,158.64,557.934,198.52Z" transform="translate(-545.567 -179.167)"/><g transform="translate(31.996 57.138)"><path class="j" d="M645.605,327.366a.769.769,0,1,0,.612-.882A.758.758,0,0,0,645.605,327.366Z" transform="translate(-630.111 -324.573)"/><path class="j" d="M635.91,322.482a.562.562,0,1,0,.448-.645A.555.555,0,0,0,635.91,322.482Z" transform="translate(-624.304 -321.791)"/><path class="j" d="M628.917,330.587a.768.768,0,1,0,.612-.882A.759.759,0,0,0,628.917,330.587Z" transform="translate(-620.111 -326.503)"/><path class="j" d="M623.935,322.517a.667.667,0,1,0,.532-.766A.66.66,0,0,0,623.935,322.517Z" transform="translate(-617.127 -321.738)"/><path class="j" d="M615.9,329.3a.79.79,0,1,0,.63-.906A.781.781,0,0,0,615.9,329.3Z" transform="translate(-612.309 -325.717)"/><path class="j" d="M606.976,334.716a.625.625,0,1,0,.5-.717A.618.618,0,0,0,606.976,334.716Z" transform="translate(-606.965 -329.078)"/><path class="j" d="M656.349,332.68a.679.679,0,1,0,.539-.78A.668.668,0,0,0,656.349,332.68Z" transform="translate(-636.55 -327.82)"/><path class="j" d="M654.617,323.707a.679.679,0,1,0,.54-.78A.668.668,0,0,0,654.617,323.707Z" transform="translate(-635.512 -322.443)"/><path class="j" d="M666.931,330.638a.679.679,0,1,0,.541-.78A.671.671,0,0,0,666.931,330.638Z" transform="translate(-642.891 -326.596)"/></g><g transform="translate(28.264 67.739)"><path class="k" d="M629.877,348.317l-3.835-.015c-2.354,1.71-7.1,2.845-12.557,2.783-5.265-.062-9.844-1.219-12.254-2.882l-3.579-.014a32.559,32.559,0,0,0,6.763,7.243,25.872,25.872,0,0,1,19.464-.661A30.085,30.085,0,0,0,629.877,348.317Z" transform="translate(-597.651 -348.188)"/><path class="l" d="M614.525,362.9c7.8,5.881,14.789,3.035,19.464-.661a25.872,25.872,0,0,0-19.464.661Z" transform="translate(-607.762 -355.653)"/><path class="d" d="M631.393,348.323l-24.812-.1c2.411,1.663,6.989,2.82,12.254,2.882C624.3,351.168,629.039,350.033,631.393,348.323Z" transform="translate(-603.002 -348.21)"/></g><g transform="translate(25.675 51.042)"><path d="M667.292,311.524a3.7,3.7,0,1,0,2.347-4.836A3.8,3.8,0,0,0,667.292,311.524Z" transform="translate(-636.678 -306.526)"/><path d="M591.383,314.256a3.7,3.7,0,1,0,2.348-4.836A3.8,3.8,0,0,0,591.383,314.256Z" transform="translate(-591.192 -308.163)"/></g><g transform="translate(11.571 42.366)"><path d="M614.806,284.881l-19.657.656-14.584.488-.16,0-19.486.653c-2.707.09-4.891,2.612-4.911,5.625l-.008.111v.108a90.714,90.714,0,0,0,1.935,10.163c.6,1.731,2.475,4.981,5.206,4.889l14.534-.486c4.97-.167,7.188-12.231,7.662-15.1a2.887,2.887,0,0,1,2.5-1.848,2.592,2.592,0,0,1,2.416,1.547c.389,2.564,2.445,14.893,7.5,14.725l14.532-.487c2.733-.091,4.64-3.467,5.265-5.239.772-2.186,2.062-10.02,2.115-10.3l.061-.11v-.11A5.013,5.013,0,0,0,614.806,284.881Zm-31.441,7.874c-.633,4-2.77,12.057-5.674,12.153l-13.8.53c-1.994.23-2.595-1.9-3.122-3.408-.637-1.818-1.27-7.442-1.43-8.324.06-1.762.584-3.193,2.179-3.245l18.908-.7a3.025,3.025,0,0,1,2.45,1.169A2.35,2.35,0,0,1,583.365,292.756Zm31.581,6.889c-.548,1.544-1.147,3.905-3.381,4.063l-13.8.529c-2.905.1-4.822-7.754-5.406-11.714a2.489,2.489,0,0,1,.513-1.86,3.306,3.306,0,0,1,2.465-1.334l18.908-.7c1.594-.053,2.439,1.4,2.478,3.158C616.549,292.679,615.6,297.783,614.945,299.645Z" transform="translate(-556 -284.879)"/></g></g><g transform="translate(39.525 130.905)"><g transform="translate(0 0)"><g transform="translate(2.375)"><rect class="m" width="3.96" height="7.92" transform="translate(8.034 3.574) rotate(-12.37)"/><rect class="n" width="3.959" height="7.919" transform="matrix(0.977, -0.214, 0.214, 0.977, 11.324, 4.204)"/><rect class="o" width="3.959" height="7.919" transform="translate(22.514 0.849) rotate(-12.379)"/><g transform="translate(0 2.781)"><path class="p" d="M638.482,566.566a1.07,1.07,0,0,1-.809,1.28L598.3,576.738c-.223-.893-12.254-54.206-12.437-55.08l39.373-8.891a1.072,1.072,0,0,1,1.283.808Z" transform="translate(-585.861 -512.74)"/><rect class="q" width="1.547" height="56.794" transform="translate(32.253 1.454) rotate(-12.711)"/></g></g><path class="q" d="M586.855,541.9a.928.928,0,0,1-.695,1.114l-5.088,1.177a.928.928,0,0,1-1.114-.7h0a.928.928,0,0,1,.695-1.114l5.089-1.177a.928.928,0,0,1,1.113.7Z" transform="translate(-579.934 -527.002)"/><path class="q" d="M589.176,551.932a.929.929,0,0,1-.7,1.115l-5.088,1.177a.929.929,0,0,1-1.114-.7h0a.928.928,0,0,1,.7-1.113l5.088-1.177a.928.928,0,0,1,1.114.695Z" transform="translate(-581.325 -533.014)"/><path class="q" d="M591.5,561.967a.929.929,0,0,1-.7,1.115l-5.088,1.177a.929.929,0,0,1-1.114-.7h0a.927.927,0,0,1,.7-1.112l5.088-1.177a.928.928,0,0,1,1.114.695Z" transform="translate(-582.716 -539.026)"/><path class="q" d="M593.818,572a.929.929,0,0,1-.7,1.114l-5.088,1.177a.928.928,0,0,1-1.113-.695h0a.927.927,0,0,1,.695-1.114L592.7,571.3a.93.93,0,0,1,1.114.7Z" transform="translate(-584.107 -545.038)"/><path class="q" d="M596.139,582.033a.929.929,0,0,1-.7,1.114l-5.088,1.176a.928.928,0,0,1-1.113-.695h0a.928.928,0,0,1,.7-1.114l5.088-1.177a.928.928,0,0,1,1.114.7Z" transform="translate(-585.497 -551.05)"/><path class="q" d="M598.461,592.065a.928.928,0,0,1-.7,1.114l-5.088,1.177a.928.928,0,0,1-1.113-.7h0a.926.926,0,0,1,.695-1.112l5.088-1.178a.93.93,0,0,1,1.114.7Z" transform="translate(-586.888 -557.062)"/><path class="q" d="M600.781,602.1a.929.929,0,0,1-.7,1.115L595,604.392a.929.929,0,0,1-1.113-.7h0a.929.929,0,0,1,.7-1.113l5.088-1.177a.928.928,0,0,1,1.113.695Z" transform="translate(-588.279 -563.076)"/><path class="q" d="M603.1,612.134a.928.928,0,0,1-.7,1.114l-5.088,1.177a.929.929,0,0,1-1.113-.695h0a.928.928,0,0,1,.7-1.113l5.088-1.177a.928.928,0,0,1,1.114.695Z" transform="translate(-589.67 -569.088)"/><path class="q" d="M605.423,622.167a.929.929,0,0,1-.695,1.114l-5.089,1.176a.928.928,0,0,1-1.113-.695h0a.928.928,0,0,1,.7-1.113l5.088-1.177a.927.927,0,0,1,1.114.695Z" transform="translate(-591.06 -575.1)"/><path class="q" d="M607.745,632.2a.928.928,0,0,1-.7,1.113l-5.088,1.177a.927.927,0,0,1-1.113-.695h0a.927.927,0,0,1,.695-1.113l5.088-1.178a.929.929,0,0,1,1.115.7Z" transform="translate(-592.452 -581.111)"/><path class="q" d="M610.065,642.233a.929.929,0,0,1-.695,1.114l-5.089,1.177a.927.927,0,0,1-1.113-.7h0a.929.929,0,0,1,.695-1.114l5.089-1.177a.927.927,0,0,1,1.114.7Z" transform="translate(-593.842 -587.124)"/><path class="q" d="M612.386,652.267a.928.928,0,0,1-.695,1.114l-5.089,1.177a.929.929,0,0,1-1.113-.7h0a.928.928,0,0,1,.7-1.113l5.088-1.177a.928.928,0,0,1,1.114.7Z" transform="translate(-595.233 -593.136)"/><path class="q" d="M614.707,662.3a.927.927,0,0,1-.7,1.113l-5.088,1.177a.928.928,0,0,1-1.113-.7h0a.93.93,0,0,1,.695-1.114l5.088-1.176a.927.927,0,0,1,1.114.695Z" transform="translate(-596.624 -599.149)"/></g></g><g transform="translate(0 130.587)"><path class="c" d="M711.105,556.13a72.559,72.559,0,0,1-9.088-.687,158.06,158.06,0,0,1-17.786-3.4l3.021-11.637c.062.016,6.468,1.666,13.632,2.745,8.968,1.351,13.1.913,14.762.531-.385-2.152-2.042-7.764-8.985-20.247-3.089-5.553-6.242-10.7-8.235-13.873l11.333-4.552c2.144,3.463,5.045,8.285,7.889,13.448,10.48,19.021,10.8,25.521,9.736,29.372C725.5,554.639,717.877,556.13,711.105,556.13Z" transform="translate(-602.907 -505.008)"/><path class="c" d="M502.716,555.421c-11.957,0-16.235-3.052-18.437-5.567-5.237-5.978-3.594-16.137,5.325-32.939,2.316-4.362,4.78-8.505,6.891-11.889l11.34,4.564c-2.005,3.147-4.516,7.258-6.889,11.618-8.153,14.984-7.694,19.937-7.511,20.8.649.409,4.372,2.25,17.561.926,8.417-.846,25.718-4.956,25.795-4.974l2.629,11.732c-.351.079-18.32,4.342-27.66,5.247C508.335,555.274,505.341,555.421,502.716,555.421Z" transform="translate(-481.311 -505.019)"/></g></g><g transform="translate(157.716 180.106)"><g transform="translate(0)"><path class="e" d="M297.982,247.521a59.43,59.43,0,1,1-52.49-65.64A59.429,59.429,0,0,1,297.982,247.521Z" transform="translate(-179.482 -181.511)"/><g transform="translate(30.813 32.995)"><g transform="translate(0 0.742)"><path class="r" d="M345.886,310.6a31.774,31.774,0,0,1-33.036,30.459h0a31.776,31.776,0,0,1-30.461-33.036l.482-11.841a31.772,31.772,0,0,1,33.036-30.459h0a31.773,31.773,0,0,1,30.459,33.036Z" transform="translate(-271.945 -265.693)"/><path class="r" d="M273.412,357.941a8.526,8.526,0,1,1-8.172-8.884A8.535,8.535,0,0,1,273.412,357.941Z" transform="translate(-256.367 -315.643)"/></g><g transform="translate(10.103)"><path class="e" d="M331.281,266.575l7.554,13.685a52.011,52.011,0,0,1,5.571-1.47l-5.669-14.13A41.184,41.184,0,0,0,331.281,266.575Z" transform="translate(-311.361 -264.331)"/><path class="e" d="M309.349,276.081l9.186,11.9c1.414-.775,4.386-2.211,5.911-2.816l-8.782-13.063A39.314,39.314,0,0,0,309.349,276.081Z" transform="translate(-298.219 -268.794)"/><path class="e" d="M356.373,263.908l4.366,14.161c1.362-.22,3.186-.327,4.584-.415-.621-2.924-2.334-8.927-3.347-13.647A35.153,35.153,0,0,0,356.373,263.908Z" transform="translate(-326.397 -263.84)"/><path class="e" d="M376.375,264.981l2.112,13.237c.137,0,.271-.013.408-.015a32.286,32.286,0,0,1,3.431.121c.243-2.942,1.282-7.391,1.612-11.448A65.488,65.488,0,0,0,376.375,264.981Z" transform="translate(-338.383 -264.524)"/><path class="e" d="M292.238,293.09l11.43,7.32a36.265,36.265,0,0,1,3.762-2.671l-10.8-10.21A35.244,35.244,0,0,0,292.238,293.09Z" transform="translate(-287.965 -278.036)"/><path class="e" d="M281.754,330.859a29.028,29.028,0,0,0,4.066,18.255c.012-.935.063-1.875.168-2.821a30.754,30.754,0,0,1,4.989-13.243l-9.206-2.32C281.766,330.774,281.758,330.816,281.754,330.859Z" transform="translate(-281.577 -303.923)"/><path class="e" d="M283.188,313.313l9.582,3.915a41.69,41.69,0,0,1,4.408-4.723l-11.454-6.288A32.794,32.794,0,0,0,283.188,313.313Z" transform="translate(-282.542 -289.234)"/><path class="e" d="M427.035,307.814a47.392,47.392,0,0,1,5.737,7.646,32.061,32.061,0,0,0-2.6-12.278Z" transform="translate(-368.74 -287.415)"/><path class="e" d="M415.1,284.424l-3.621,7.7a26.051,26.051,0,0,1,5.208,3.5c.955-1.684,2.054-3.62,3.134-5.527A28.947,28.947,0,0,0,415.1,284.424Z" transform="translate(-359.421 -276.175)"/><path class="e" d="M396.937,272.044l-2.768,10.638a28.772,28.772,0,0,1,5.671,1.461c.818-2.459,1.9-5.714,2.908-8.754A30.476,30.476,0,0,0,396.937,272.044Z" transform="translate(-349.045 -268.756)"/><path class="r" d="M370.839,264.3c-.161-.018-.322-.026-.484-.043,1.014,4.72,2.726,10.723,3.347,13.647.538-.035.636-.107,1.178-.12l-2.112-13.237C371.831,264.383,371.814,264.408,370.839,264.3Z" transform="translate(-334.775 -264.089)"/><path class="r" d="M392.839,269.71c-.33,4.057-1.369,8.506-1.612,11.448.6.054.613.038,1.179.126l2.768-10.638A21.781,21.781,0,0,0,392.839,269.71Z" transform="translate(-347.283 -267.358)"/><path class="r" d="M411.228,280.393c-1.008,3.039-2.09,6.295-2.908,8.754a11.187,11.187,0,0,1,1.268.559l3.621-7.7A18.055,18.055,0,0,0,411.228,280.393Z" transform="translate(-357.525 -273.759)"/><path class="r" d="M427.612,298.565c-1.08,1.906-2.179,3.843-3.134,5.527a11.515,11.515,0,0,1,1.025.955l3.134-4.632A10.723,10.723,0,0,0,427.612,298.565Z" transform="translate(-367.208 -284.648)"/><path class="r" d="M349.884,264.27l5.669,14.13c.621-.129.666-.127,1.3-.229l-4.366-14.161A21.181,21.181,0,0,0,349.884,264.27Z" transform="translate(-322.509 -263.942)"/><path class="r" d="M325.106,270.508l8.782,13.063c.613-.243.618-.234,1.247-.447l-7.554-13.685A20.964,20.964,0,0,0,325.106,270.508Z" transform="translate(-307.661 -267.195)"/><path class="r" d="M303.187,284.231l10.8,10.21c.568-.351.555-.366,1.145-.69l-9.479-11.726A31.479,31.479,0,0,0,303.187,284.231Z" transform="translate(-294.526 -274.736)"/><path class="r" d="M289.518,303.332l11.454,6.288c.528-.487.5-.441,1.066-.9l-11.43-7.32A13.222,13.222,0,0,0,289.518,303.332Z" transform="translate(-286.335 -286.349)"/><path class="r" d="M282.062,326.651l9.206,2.32c.353-.529.442-.626.828-1.133l-9.582-3.916C282.322,324.817,282.169,325.726,282.062,326.651Z" transform="translate(-281.868 -299.843)"/></g></g><g transform="translate(62.57 72.401)"><path class="d" d="M372.966,401.616l-27.5-1.757s4.229,10.029,13.132,10.432C367.4,410.688,372.486,403.569,372.966,401.616Z" transform="translate(-341.516 -384.753)"/><path d="M409.6,370.1a3.6,3.6,0,1,0,2.66-4.509A3.7,3.7,0,0,0,409.6,370.1Z" transform="translate(-379.886 -364.168)"/><path d="M335.708,366.761a3.6,3.6,0,1,0,2.661-4.509A3.7,3.7,0,0,0,335.708,366.761Z" transform="translate(-335.607 -362.166)"/></g><g transform="translate(25.03 102.897)"><g transform="translate(0 10.274)"><rect class="r" width="9.366" height="12.099" transform="translate(61.334 226.689)"/><rect class="r" width="9.367" height="12.099" transform="translate(27.77 226.689)"/><g transform="translate(57.598 233.328)"><rect class="d" width="30.058" height="4.408" transform="translate(0.137 15.994)"/><path class="e" d="M400.623,1050.556v-4.463a4.5,4.5,0,0,0-4.089,4.288l-7.393-.055-3.484,11.76h30.2v-2.562Z" transform="translate(-385.657 -1046.093)"/></g><g transform="translate(23.537 233.235)"><rect class="d" width="17.233" height="4.408" transform="translate(0.133 16.086)"/><path class="e" d="M304.9,1050.327h.8a4.107,4.107,0,1,1,8.182,0h.681l3.354,11.622H300.667Z" transform="translate(-300.667 -1045.863)"/></g><path class="r" d="M485.875,631.794c-19.947-8.519-35.873-24.412-46.056-45.961a109.582,109.582,0,0,1-9.441-30.279l11.93-1.492a99.571,99.571,0,0,0,8.547,26.98c9.037,18.936,22.408,32.292,39.742,39.694Z" transform="translate(-354.857 -517.926)"/><path class="f" d="M291,726v18.825a18.438,18.438,0,0,0,5.982,9.146l.254,93.863h13.3l-.2-92.824,20.433.182.075,92.642H343.1V726Z" transform="translate(-271.337 -620.956)"/><rect class="g" width="16.031" height="6.412" transform="translate(58.137 221.267)"/><rect class="g" width="16.031" height="6.412" transform="translate(24.873 221.267)"/><path class="d" d="M317.308,507.636l15.7-6.3c-1.393-17.18-18.4-37.438-45.518-37.438s-44.159,20.258-45.552,37.438l15.655,6.3v80.139h59.715Z" transform="translate(-241.938 -463.895)"/></g><g transform="translate(34.593)"><path class="r" d="M350.161,449.7a39.493,39.493,0,0,0-4.293-.747l-.988-10.3-10.94-.4-.417,10.576a33.381,33.381,0,0,0-5.248.852,12.311,12.311,0,0,0,.021,1.579c.268,6.727,5.378,11.936,11.413,11.637s10.71-6,10.442-12.722C350.146,450.071,350.168,449.813,350.161,449.7Z" transform="translate(-328.255 -438.26)"/></g></g></g><g transform="translate(18.18 152.601)"><path class="s" d="M261.762,649.936a1.637,1.637,0,0,0,2.3-.259l44.5-55.788a1.636,1.636,0,0,0-.259-2.3L272,562.638a1.636,1.636,0,0,0-2.3.259l-44.5,55.788a1.635,1.635,0,0,0,.259,2.3Z" transform="translate(-224.846 -562.281)"/><path class="d" d="M315.911,658.03l2.116,4.506-2.511,4.3,4.939-.619,3.312,3.717.936-4.889,4.558-2-4.36-2.4-.493-4.954-3.632,3.406Z" transform="translate(-279.178 -618.252)"/></g><path class="r" d="M287.678,636.384l4.7-12.41c-.234-.089-25.772-10.289-37.225-17.273-3.717-2.266-7.929-4.835-6.558-17.794.776-7.331,2.292-18.407,3.234-25.1l-12.678-5.115-.105.739c-.291,2.037-.691,4.873-1.129,8.066-1.166,8.5-2.013,15.235-2.519,20.013-2.255,21.311,7.944,27.531,12.845,30.52C260.755,625.659,286.675,636,287.678,636.384Z" transform="translate(-212.798 -407.53)"/></g><g transform="translate(443.013 303.616)"><g transform="translate(0 121.736)"><path class="c" d="M920.8,869.738q-2.22,0-4.5-.156a74.608,74.608,0,0,1-24.948-6.221l5.269-10.95a63.27,63.27,0,0,0,20.879,5.073c14.809.923,26.747-4.214,35.473-15.259l9.535,7.533C952.136,862.886,937.785,869.738,920.8,869.738Z" transform="translate(-891.353 -822.676)"/><path class="d" d="M1049,820.633l-15.7-5.239s7.031-16.876,16.751-21.837c2.236-1.142,5.818,7.027,5.818,7.027Z" transform="translate(-976.413 -793.448)"/></g><g transform="translate(49.153 25.402)"><path class="e" d="M1020.46,602.139c3-13.348,11.981-48.9,45.547-48.979l.005-.081a2.814,2.814,0,0,1,.353,0c.748.029,1.373.073,2.095.132.723.039,1.354.081,2.1.153a3.736,3.736,0,0,1,.388.049l-.005.076c33.249,4.58,37.273,41.053,38.442,54.7.9,15.108-2.383,33.808-2.383,33.808-58.2,3.316-88.9-6.044-88.9-6.044S1017.521,616.986,1020.46,602.139Z" transform="translate(-1016.429 -553.075)"/><path class="d" d="M1126.653,785.817a52.9,52.9,0,0,0-29.2-8.375,54.173,54.173,0,0,0-26.557,6.794c-.759.416-1.977,4.94-1.977,4.94l6.176,80.7,56.291-5.741Z" transform="translate(-1046.909 -687.522)"/><g transform="translate(22.383 115.478)"><path class="t" d="M1137.291,997l-58.583,1.135,2.614,22.816s32.436.28,42.791.009C1138.971,1020.571,1137.291,997,1137.291,997Z" transform="translate(-1075.158 -934.564)"/><path class="t" d="M1076.394,927.222l23.932-15.391-30.475-70.616Z" transform="translate(-1069.851 -841.215)"/><path class="t" d="M1165.664,927.222l19.812-23.574-26.356-62.433Z" transform="translate(-1123.344 -841.215)"/></g><g transform="translate(0 183.924)"><path class="c" d="M1056.727,1012h11.226l1.852,11.222h-11.225Z" transform="translate(-1039.603 -1012)"/><g transform="translate(0 6.535)"><rect class="d" width="33.264" height="4.408" transform="translate(0 17.912)"/><path class="e" d="M1031.233,1033.318v-5.012c2.4.2,4.694,2.282,4.694,4.687h8.273l3.071,13.225H1014v-2.829Z" transform="translate(-1014 -1028.306)"/></g></g><g transform="translate(36.069 183.924)"><path class="c" d="M1146.591,1012h11.225l1.851,11.222h-11.225Z" transform="translate(-1129.522 -1012)"/><g transform="translate(0 6.535)"><rect class="d" width="32.863" height="4.408" transform="translate(0 17.912)"/><path class="e" d="M1120.832,1033.318v-5.012c3.206.2,5.039,2.282,5.039,4.687h8.274l2.859,13.225H1104v-2.829Z" transform="translate(-1104 -1028.306)"/></g></g><g transform="translate(7.111 111.249)"><path class="f" d="M1047.925,837.742c-1.675-10.306-17.212-8.532-16.127-.01l7.391,65.808,15.739-.157C1052.576,884.811,1047.952,837.91,1047.925,837.742Z" transform="translate(-1031.744 -830.661)"/><path class="f" d="M1137.2,837.742c-1.674-10.306-17.211-8.532-16.127-.01l7.267,65.9,15.873-.175C1141.861,884.931,1137.224,837.91,1137.2,837.742Z" transform="translate(-1085.238 -830.661)"/><path class="g" d="M1065.608,1011.21h-18.14l-.477-5.21h18.14Z" transform="translate(-1040.88 -935.73)"/><path class="g" d="M1154.944,1011.21H1136.8l-.478-5.21h18.141Z" transform="translate(-1094.412 -935.73)"/></g><g transform="translate(51.565 97.379)"><path class="c" d="M1190.307,847.474c-5.814-10.3-19.37-6.005-15.278-.119a81.322,81.322,0,0,1,4.783,7.776c5.64,10.475,5.527,15.906,5.132,17.088a3.629,3.629,0,0,1-.753.094c-7.493.3-40.995,3.125-41.526,3.176l1.238,12.829c.136-.013,33.905-2.849,40.8-3.125,6.33-.253,10.927-3.667,12.609-9.368C1198.467,871.917,1199.09,863.036,1190.307,847.474Z" transform="translate(-1142.664 -823.134)"/><path class="d" d="M1198.094,833.084c-4.354-6.615-2.336-23.489-6.888-26.7l7.279-10.333c7.459,4.438,15.1,14.037,20.91,24.34Z" transform="translate(-1171.752 -796.054)"/></g><path class="c" d="M1114.185,762.563l.532-9.408,10.932-.885.83,10.265a51.03,51.03,0,0,1,6.585,1.073,8.382,8.382,0,0,1,.079,1.37,12.219,12.219,0,0,1-12.227,12.213c-6.753,0-12.536-6.642-12.536-13.387C1108.38,763.693,1112.308,762.913,1114.185,762.563Z" transform="translate(-1070.555 -672.438)"/></g><g transform="translate(55.817 0)"><g transform="translate(0 30.685)"><path class="c" d="M1053.324,608.508a32.82,32.82,0,0,0,29.937,35.467h0a32.818,32.818,0,0,0,35.467-29.938l1.032-12.2a32.819,32.819,0,0,0-29.937-35.466h0a32.819,32.819,0,0,0-35.468,29.938Z" transform="translate(-1044.157 -566.256)"/><path class="c" d="M1193.318,670.089a8.806,8.806,0,1,0,9.518-8.053A8.819,8.819,0,0,0,1193.318,670.089Z" transform="translate(-1128.097 -623.631)"/><path class="e" d="M1142.755,647.229l8.174,2.572s3.576-33.706,2.963-52.23c0,0-2.647-18.9-6.991-23.083-5.614-5.4-38.3-4.1-38.3-4.1S1140.635,583.458,1142.755,647.229Z" transform="translate(-1077.353 -568.65)"/><path class="e" d="M1072.063,578.3l-41.383,51.44s-1.391-21.821,10.15-35.874C1058.135,572.8,1072.063,578.3,1072.063,578.3Z" transform="translate(-1030.627 -573.087)"/></g><g transform="translate(2.864)"><path class="u" d="M1128.743,554.725c2.9-10.26-5.606-40.468-5.2-51.475.3-7.969-6.254-11.307-11.054-12.642-6.1-1.7-14.335-1.4-17.676,4.037-4.129,6.721-13.372,12.513-16.059,14.247-8.208,5.3-20.543,17.169-23.411,27.31Z" transform="translate(-1048.305 -489.692)"/><path class="v" d="M1037.8,595.635a1.31,1.31,0,0,0,1.14,1.415l81.9,18.908a1.311,1.311,0,0,0,1.624-.814l.433-15.345a1.309,1.309,0,0,0-1.138-1.416l-75.565-17.21a1.311,1.311,0,0,0-1.626.814Z" transform="translate(-1037.774 -544.487)"/></g></g><g transform="translate(73.022 73.999)"><path class="d" d="M1114.649,711.557l-26.893-.5s4.566,9.594,13.267,9.594C1109.618,720.65,1114.267,713.484,1114.649,711.557Z" transform="translate(-1082.066 -696.339)"/><path d="M1148.166,678.969a3.516,3.516,0,1,0,2.4-4.514A3.615,3.615,0,0,0,1148.166,678.969Z" transform="translate(-1118.18 -674.334)"/><path d="M1073.7,678.969a3.516,3.516,0,1,0,2.4-4.514A3.615,3.615,0,0,0,1073.7,678.969Z" transform="translate(-1073.558 -674.334)"/></g></g><g transform="translate(361.543 371.164)"><path class="w" d="M719.658,839.234c4.781,1.9,7.355,6.713,5.451,11.494s-7.078,6.505-11.857,4.6C710,854.035,695.993,846.238,691,842.074c-1.309-1.091-3.682-3.79-2.7-6.263s4.562-2.822,6.262-2.7C701.03,833.591,716.432,837.949,719.658,839.234Z" transform="translate(-688.07 -763.016)"/><g transform="translate(20.638)"><path class="d" d="M772.167,1054.181c0,6.859-32.6,6.859-32.6,0s7.3-12.419,16.3-12.419S772.167,1047.324,772.167,1054.181Z" transform="translate(-739.566 -888.057)"/><path class="d" d="M886.6,1056.182c0,6.858-32.6,6.858-32.6,0s7.3-12.419,16.3-12.419S886.6,1049.324,886.6,1056.182Z" transform="translate(-808.137 -889.256)"/><g transform="translate(11.548 146.476)"><path class="w" d="M777.19,1023.724l-8.811,7.767a36.362,36.362,0,0,0,6.627,2.887,30.868,30.868,0,0,0,11.138,1.5l1.674-9.744Z" transform="translate(-768.379 -1023.724)"/></g><path class="w" d="M922.137,907.362c-3-4.177-2.584-9.615,1.591-12.621s9.467-1.672,12.473,2.5c2.042,2.839,9.651,16.952,11.619,23.149.517,1.625,1.064,5.175-1.1,6.729s-5.364-.078-6.73-1.1C934.8,922.146,924.166,910.182,922.137,907.362Z" transform="translate(-847.8 -798.981)"/><g transform="translate(47.659 147.278)"><path class="w" d="M869.112,1025.724l8.754,7.8a35.817,35.817,0,0,1-6.571,2.857,32.141,32.141,0,0,1-11.358,1.551l-1.453-9.8Z" transform="translate(-858.484 -1025.724)"/></g><path class="d" d="M907.892,659.285c-9.2,7.7-17.287,21.757-19.535,28.314,0,0,3.271.906,3.62.869,8.134-16.6,20.709-22.224,21.83-24.025a3.94,3.94,0,0,0-5.915-5.158Z" transform="translate(-828.726 -658.238)"/><path class="d" d="M834.483,757.177a41.152,41.152,0,0,0-30.3-49.615l-.187-.045c-22.036-5.321-44.684,8.19-50,30.225-3.324,13.769-13.3,55.074-13.3,55.074-5.32,22.034,8.713,44.2,30.749,49.525l.186.045a40.989,40.989,0,0,0,49.557-30.135Z" transform="translate(-739.566 -687.073)"/><path class="x" d="M858.341,771.153c-2.043,8.462-17.221,12.059-33.9,8.031s-28.543-14.153-26.5-22.615,17.221-12.061,33.9-8.034S860.385,762.688,858.341,771.153Z" transform="translate(-774.41 -711.358)"/><g transform="translate(31.328 44.323)"><path class="y" d="M839.3,772.412a1.189,1.189,0,0,0-.876-1.435l-.373-.091a1.189,1.189,0,0,0-1.434.878l-.089.371a1.189,1.189,0,0,0,.876,1.435l.372.089a1.188,1.188,0,0,0,1.434-.877Z" transform="translate(-828.976 -770.043)"/><path class="y" d="M830.931,770.392a1.189,1.189,0,0,0-.876-1.436l-.372-.09a1.19,1.19,0,0,0-1.435.877l-.089.371a1.189,1.189,0,0,0,.876,1.435l.373.09a1.189,1.189,0,0,0,1.434-.877Z" transform="translate(-823.961 -768.833)"/><path class="y" d="M845.648,782.8a1.189,1.189,0,0,0-.876-1.435l-.373-.09a1.189,1.189,0,0,0-1.434.878l-.089.37a1.19,1.19,0,0,0,.876,1.435l.373.089a1.188,1.188,0,0,0,1.434-.877Z" transform="translate(-832.78 -776.269)"/><path class="y" d="M820.542,776.74a1.189,1.189,0,0,0-.876-1.435l-.373-.09a1.188,1.188,0,0,0-1.434.877l-.09.371a1.189,1.189,0,0,0,.876,1.435l.372.09a1.189,1.189,0,0,0,1.434-.878Z" transform="translate(-817.736 -772.637)"/></g><g transform="translate(62.519 51.855)"><path class="y" d="M1.381,0h0A1.38,1.38,0,0,1,2.76,1.38v0A1.379,1.379,0,0,1,1.381,2.76h0A1.38,1.38,0,0,1,0,1.381v0A1.381,1.381,0,0,1,1.381,0Z" transform="matrix(0.234, -0.972, 0.972, 0.234, 7.272, 3.248)"/><path class="y" d="M908.757,789.183a1.189,1.189,0,0,0-.876-1.435l-.373-.09a1.19,1.19,0,0,0-1.435.877l-.089.371a1.188,1.188,0,0,0,.876,1.435l.373.09a1.189,1.189,0,0,0,1.434-.876Z" transform="translate(-901.788 -787.625)"/><path class="y" d="M923.474,801.593a1.189,1.189,0,0,0-.876-1.435l-.373-.09a1.189,1.189,0,0,0-1.434.878l-.089.371a1.189,1.189,0,0,0,.875,1.435l.374.09a1.189,1.189,0,0,0,1.434-.877Z" transform="translate(-910.607 -795.061)"/><path class="y" d="M898.369,795.531a1.188,1.188,0,0,0-.876-1.435l-.373-.09a1.189,1.189,0,0,0-1.435.877l-.089.371a1.189,1.189,0,0,0,.876,1.435l.373.09a1.189,1.189,0,0,0,1.434-.877Z" transform="translate(-895.563 -791.429)"/></g></g></g></g></svg>