<svg width="144" height="211" viewBox="0 0 144 211" fill="none" xmlns="http://www.w3.org/2000/svg">
<path fill-rule="evenodd" clip-rule="evenodd" d="M138.803 11.6825C152.672 19.4612 163.675 30.0448 171.811 43.3756V43.4045C179.947 56.7353 184 71.5987 184 88.0525C184 104.506 179.918 119.312 171.811 132.556C166.454 141.289 159.708 148.721 151.833 155.082L124.24 114.888C125.543 113.239 126.817 111.591 127.888 109.682C131.507 103.176 133.331 96.1782 133.331 88.0814C133.331 79.9846 131.507 72.6686 127.888 66.1623C124.24 59.6559 119.289 54.4798 112.977 50.6338C106.665 46.7878 99.6582 44.8793 91.9855 44.8793C84.3128 44.8793 77.3061 46.7878 70.9942 50.6338C64.6823 54.4798 59.7023 59.6559 56.0831 66.1623C52.4639 72.6686 50.6398 80.1871 50.6398 88.0814C50.6398 95.9758 52.4639 103.176 56.0831 109.682C59.7312 116.189 64.6823 121.365 70.9942 125.211C74.1501 127.119 77.5377 128.421 81.0411 129.375V175.035C68.0699 173.734 56.0541 170.206 45.1965 164.104C31.2988 156.297 20.2965 145.8 12.1895 132.556C4.0535 119.312 0 104.506 0 88.0525C0 71.5987 4.0535 56.7353 12.1895 43.3756C20.2965 30.0448 31.2988 19.4612 45.1965 11.6825C59.0653 3.90381 74.6713 0 91.9855 0C109.3 0 124.906 3.90381 138.803 11.6825ZM134.286 206.439C134.605 207.451 133.273 209.504 130.465 210.372C127.685 211.21 125.398 210.256 125.05 209.157L114.859 178.621L90.6823 197.07V83.4258L155.075 177.262L123.631 176.076L134.286 206.439Z" fill="#F95C22"/>
<path fill-rule="evenodd" clip-rule="evenodd" d="M138.803 11.6825C152.672 19.4612 163.675 30.0448 171.811 43.3756V43.4045C179.947 56.7353 184 71.5987 184 88.0525C184 104.506 179.918 119.312 171.811 132.556C166.454 141.289 159.708 148.721 151.833 155.082L124.24 114.888C125.543 113.239 126.817 111.591 127.888 109.682C131.507 103.176 133.331 96.1782 133.331 88.0814C133.331 79.9846 131.507 72.6686 127.888 66.1623C124.24 59.6559 119.289 54.4798 112.977 50.6338C106.665 46.7878 99.6582 44.8793 91.9855 44.8793C84.3128 44.8793 77.3061 46.7878 70.9942 50.6338C64.6823 54.4798 59.7023 59.6559 56.0831 66.1623C52.4639 72.6686 50.6398 80.1871 50.6398 88.0814C50.6398 95.9758 52.4639 103.176 56.0831 109.682C59.7312 116.189 64.6823 121.365 70.9942 125.211C74.1501 127.119 77.5377 128.421 81.0411 129.375V175.035C68.0699 173.734 56.0541 170.206 45.1965 164.104C31.2988 156.297 20.2965 145.8 12.1895 132.556C4.0535 119.312 0 104.506 0 88.0525C0 71.5987 4.0535 56.7353 12.1895 43.3756C20.2965 30.0448 31.2988 19.4612 45.1965 11.6825C59.0653 3.90381 74.6713 0 91.9855 0C109.3 0 124.906 3.90381 138.803 11.6825ZM134.286 206.439C134.605 207.451 133.273 209.504 130.465 210.372C127.685 211.21 125.398 210.256 125.05 209.157L114.859 178.621L90.6823 197.07V83.4258L155.075 177.262L123.631 176.076L134.286 206.439Z" fill="url(#paint0_linear_586_7126)"/>
<defs>
<linearGradient id="paint0_linear_586_7126" x1="114.107" y1="155.124" x2="53.7463" y2="54.5668" gradientUnits="userSpaceOnUse">
<stop stop-color="#F95C22"/>
<stop offset="1" stop-color="#FF885C"/>
</linearGradient>
</defs>
</svg>
