<svg width="112" height="112" viewBox="0 0 112 112" fill="none" xmlns="http://www.w3.org/2000/svg">
<rect x="0.598602" y="14.8349" width="96" height="76" rx="16" transform="rotate(-9.66758 0.598602 14.8349)" fill="white"/>
<path d="M50.1321 32.5686L53.6809 31.964L57.9128 56.8061L54.364 57.4107L50.1321 32.5686ZM40.0975 59.841L36.5486 60.4455L32.3167 35.6034L35.8656 34.9989L40.0975 59.841ZM52.7971 46.2838L37.8564 48.829L37.3304 45.7414L52.2712 43.1963L52.7971 46.2838ZM64.1419 55.745L60.9378 36.936L64.3447 36.3556L67.5489 55.1646L64.1419 55.745ZM62.0246 33.0259C61.3622 33.1388 60.7699 33.0205 60.2478 32.6713C59.7494 32.3179 59.4478 31.8337 59.343 31.2186C59.2342 30.5798 59.3565 30.0112 59.7098 29.5128C60.0867 29.0103 60.6065 28.7027 61.2689 28.5898C61.9314 28.477 62.5118 28.5972 63.0102 28.9505C63.5283 29.2762 63.8397 29.7465 63.9445 30.3617C64.0533 31.0005 63.9331 31.5809 63.5838 32.103C63.2304 32.6014 62.7107 32.909 62.0246 33.0259ZM72.1854 46.3042L68.6508 29.4139L72.6611 28.7307L74.8826 45.8447L72.1854 46.3042ZM74.9418 54.1243C74.2794 54.2372 73.6851 54.1071 73.159 53.7342C72.6329 53.3612 72.3175 52.8672 72.2127 52.2521C72.0998 51.5896 72.2319 51.0072 72.6089 50.5047C72.9858 50.0023 73.5055 49.6946 74.168 49.5818C74.8305 49.4689 75.4109 49.5892 75.9093 49.9425C76.4077 50.2958 76.7134 50.8037 76.8262 51.4661C76.931 52.0813 76.8087 52.6499 76.4595 53.172C76.1102 53.694 75.6043 54.0115 74.9418 54.1243Z" fill="#1C4DA1"/>
<path d="M82.6031 94.9984L63.2246 81.2612L84.831 77.5806L87.2954 92.0472C87.7443 94.6819 84.7835 96.5441 82.6031 94.9984Z" fill="white"/>
</svg>
