<svg width="402" height="80" viewBox="0 0 402 80" fill="none" xmlns="http://www.w3.org/2000/svg">
<g clip-path="url(#clip0_1638_50530)">
<path d="M26.4149 54.0274C22.7047 54.0274 19.2532 53.3813 16.0602 52.0903C12.866 50.7987 10.0605 48.9907 7.64256 46.6661C5.2234 44.3415 3.34592 41.6417 2.00767 38.5654C0.668818 35.4903 0 32.1677 0 28.5982C0 25.03 0.668818 21.7074 2.00767 18.6311C3.34592 15.556 5.20067 12.8549 7.57193 10.5303C9.9432 8.20576 12.7253 6.39891 15.9195 5.10673C19.1125 3.81577 22.5408 3.16968 26.2036 3.16968C30.3829 3.16968 34.327 4.02704 38.0372 5.74054C41.7467 7.45527 44.7757 9.81486 47.1242 12.8199L38.6009 20.4975C37.0041 18.4321 35.1604 16.882 33.0717 15.8489C30.9811 14.8165 28.6921 14.2988 26.2036 14.2988C24.2315 14.2988 22.4106 14.6636 20.7443 15.3908C19.0769 16.1192 17.6207 17.1166 16.3771 18.3848C15.1322 19.6524 14.1692 21.1559 13.4893 22.8927C12.8076 24.6308 12.468 26.5322 12.468 28.5982C12.468 30.6654 12.8199 32.5779 13.5243 34.3393C14.2288 36.1001 15.2262 37.6269 16.5183 38.9179C17.8093 40.21 19.3115 41.2191 21.0262 41.9469C22.7397 42.6753 24.6068 43.0382 26.6261 43.0382C28.5509 43.0382 30.3 42.7103 31.8741 42.0525C33.4469 41.3954 34.7975 40.4797 35.9244 39.3054C37.0514 38.1317 37.8492 36.7935 38.319 35.2901H25.006V24.7947H51.4208V28.3163C51.4208 32.027 50.7981 35.443 49.5544 38.5653C48.3095 41.6889 46.5714 44.4121 44.3421 46.7367C42.1108 49.0613 39.4693 50.8571 36.4176 52.1253C33.364 53.3929 30.0304 54.0274 26.4149 54.0274Z" fill="#EA5E34"/>
<path d="M62.9646 12.538C61.2265 12.538 59.7477 11.9281 58.5267 10.7066C57.3052 9.48625 56.6953 8.00675 56.6953 6.26868C56.6953 4.53185 57.3052 3.05296 58.5267 1.83141C59.7477 0.610469 61.2265 0 62.9646 0C64.7014 0 66.1803 0.610469 67.4025 1.83141C68.6228 3.05296 69.2339 4.53185 69.2339 6.26868C69.2339 8.00675 68.6228 9.48625 67.4025 10.7066C66.1803 11.9281 64.7014 12.538 62.9646 12.538ZM57.2591 53.2522V15.9895H68.6701V53.2522H57.2591Z" fill="#EA5E34"/>
<path d="M75.7188 53.2523V15.9896H87.1298V19.7231C88.3501 18.2208 89.7823 17.0816 91.4264 16.3065C93.0699 15.5321 94.9013 15.1445 96.9207 15.1445C98.9394 15.1918 100.372 15.4964 101.218 16.0602V25.9924C100.466 25.6165 99.6205 25.3352 98.6821 25.1467C97.7418 24.96 96.78 24.8648 95.7937 24.8648C94.0089 24.8648 92.3532 25.2769 90.8276 26.098C89.3014 26.9198 88.0688 28.0824 87.1298 29.5846V53.2523L75.7188 53.2523Z" fill="#EA5E34"/>
<path d="M106.148 53.2523V3.94413L117.559 2.18335V53.2523H106.148Z" fill="#EA5E34"/>
<path d="M139.329 53.9567C135.807 53.9567 132.543 53.5452 129.538 52.7241C126.532 51.903 123.925 50.6931 121.719 49.0963L127.143 41.4181C129.49 42.827 131.627 43.8483 133.553 44.4827C135.478 45.1166 137.38 45.4335 139.258 45.4335C141.136 45.4335 142.628 45.1638 143.731 44.6234C144.834 44.0842 145.386 43.3674 145.386 42.4751C145.386 41.7706 145.081 41.1958 144.471 40.7493C143.86 40.3034 142.897 39.9865 141.583 39.7986L134.187 38.671C130.477 38.1078 127.647 36.8752 125.698 34.9732C123.75 33.0711 122.776 30.5948 122.776 27.5419C122.776 25.006 123.421 22.8344 124.713 21.0263C126.004 19.2188 127.847 17.8333 130.242 16.8703C132.637 15.9079 135.501 15.4258 138.836 15.4258C141.558 15.4258 144.26 15.8023 146.937 16.5534C149.613 17.3051 152.102 18.4321 154.403 19.9343L148.979 27.26C146.959 26.0869 145.035 25.2296 143.203 24.6891C141.372 24.1499 139.54 23.879 137.709 23.879C136.253 23.879 135.078 24.1253 134.187 24.6185C133.294 25.1116 132.848 25.7577 132.848 26.5555C132.848 27.3072 133.176 27.906 133.835 28.3519C134.491 28.7984 135.619 29.1387 137.216 29.3733L144.612 30.5002C148.275 31.0174 151.103 32.226 153.1 34.1281C155.095 36.0295 156.094 38.437 156.094 41.3481C156.094 43.79 155.365 45.9506 153.91 47.8287C152.454 49.7074 150.469 51.1985 147.958 52.3016C145.445 53.404 142.569 53.9567 139.329 53.9567Z" fill="#EA5E34"/>
<path d="M163.975 11.1998C163.035 11.1998 162.214 10.8472 161.509 10.1428C160.805 9.43898 160.453 8.59329 160.453 7.60695C160.453 6.66853 160.805 5.85845 161.509 5.17735C162.214 4.49686 163.035 4.1554 163.975 4.1554C164.961 4.1554 165.794 4.49686 166.476 5.17735C167.156 5.85845 167.497 6.69124 167.497 7.67758C167.497 8.61785 167.156 9.43898 166.476 10.1428C165.794 10.8472 164.961 11.1998 163.975 11.1998ZM161.369 53.2523V17.9616H166.581V53.2523H161.369Z" fill="#EA5E34"/>
<path d="M175.461 53.2523V17.9616H180.673V22.1176C183.444 18.8773 187.154 17.2578 191.803 17.2578C194.48 17.2578 196.839 17.8333 198.882 18.9836C200.924 20.1345 202.521 21.7307 203.672 23.7734C204.822 25.8161 205.398 28.1996 205.398 30.9228V53.2523H200.256V31.9798C200.256 28.834 199.375 26.3565 197.614 24.5478C195.853 22.741 193.446 21.8364 190.394 21.8364C188.281 21.8364 186.402 22.3062 184.759 23.2446C183.115 24.1849 181.753 25.5231 180.673 27.26V53.2523H175.461Z" fill="#EA5E34"/>
<path d="M267.452 11.1996C266.512 11.1996 265.691 10.8471 264.987 10.1427C264.282 9.43885 263.93 8.59317 263.93 7.60683C263.93 6.6684 264.282 5.85832 264.987 5.17723C265.691 4.49674 266.512 4.15527 267.452 4.15527C268.439 4.15527 269.272 4.49674 269.952 5.17723C270.633 5.85832 270.974 6.69112 270.974 7.67746C270.974 8.61773 270.633 9.43885 269.952 10.1427C269.272 10.8471 268.439 11.1996 267.452 11.1996ZM264.846 53.2521V17.9615H270.059V53.2521H264.846Z" fill="#EA5E34"/>
<path d="M322.82 11.1996C321.879 11.1996 321.058 10.8471 320.354 10.1427C319.649 9.43885 319.297 8.59317 319.297 7.60683C319.297 6.6684 319.649 5.85832 320.354 5.17723C321.058 4.49674 321.879 4.15527 322.82 4.15527C323.806 4.15527 324.639 4.49674 325.319 5.17723C326 5.85832 326.341 6.69112 326.341 7.67746C326.341 8.61773 326 9.43885 325.319 10.1427C324.639 10.8471 323.806 11.1996 322.82 11.1996ZM320.213 53.2521V17.9615H325.426V53.2521H320.213Z" fill="#EA5E34"/>
<path d="M348.179 53.9566C345.127 53.9566 342.778 53.2288 341.135 51.7727C339.491 50.3177 338.669 48.2044 338.669 45.4333V22.3994H331.062V17.9615H338.669V9.01573L343.812 7.67749V17.9615H354.448V22.3994H343.812V44.0951C343.812 45.9738 344.235 47.3243 345.08 48.1455C345.925 48.9672 347.309 49.3781 349.235 49.3781C350.222 49.3781 351.102 49.3074 351.877 49.1668C352.653 49.0256 353.485 48.7916 354.378 48.4624V53.0409C353.485 53.3689 352.487 53.6041 351.384 53.7453C350.281 53.886 349.212 53.9566 348.179 53.9566Z" fill="#EA5E34"/>
<path d="M371.134 53.8861C368.551 53.8861 366.285 53.4396 364.336 52.5478C362.387 51.6561 360.86 50.4118 359.757 48.8144C358.653 47.2188 358.102 45.3628 358.102 43.2495C358.102 39.9159 359.37 37.2867 361.906 35.3607C364.442 33.4353 367.869 32.4723 372.19 32.4723C375.994 32.4723 379.447 33.2713 382.546 34.8675V30.2184C382.546 27.4006 381.746 25.2769 380.15 23.8434C378.554 22.4118 376.228 21.6951 373.177 21.6951C371.439 21.6951 369.689 21.942 367.928 22.4351C366.168 22.9277 364.231 23.7151 362.117 24.7947L360.145 20.7794C362.681 19.5591 365.028 18.6661 367.189 18.1029C369.348 17.5391 371.509 17.2578 373.669 17.2578C378.131 17.2578 381.57 18.3142 383.989 20.4275C386.407 22.5408 387.617 25.5692 387.617 29.5139V53.2523H382.546V49.8007C380.949 51.1635 379.2 52.1849 377.298 52.8648C375.395 53.5452 373.34 53.8861 371.134 53.8861ZM363.103 43.1089C363.103 45.0815 363.936 46.6906 365.604 47.9343C367.271 49.1786 369.419 49.8007 372.049 49.8007C374.163 49.8007 376.088 49.4728 377.826 48.8144C379.563 48.1572 381.137 47.1242 382.546 45.7154V39.0941C381.089 38.1078 379.54 37.3923 377.896 36.9452C376.251 36.4999 374.396 36.2764 372.332 36.2764C369.514 36.2764 367.271 36.8991 365.604 38.1428C363.936 39.3877 363.103 41.0428 363.103 43.1089Z" fill="#EA5E34"/>
<path d="M396.359 53.2522V3.94406L401.572 2.74707V53.2522H396.359Z" fill="#EA5E34"/>
<path d="M255.373 18.7367C254.08 15.7322 252.275 13.1257 249.951 10.9178C247.624 8.71117 244.89 6.99767 241.743 5.7755C238.596 4.55518 235.145 3.94409 231.389 3.94409H215.117V53.2522H229.233L229.234 48.3212H220.541V8.87515H231.671C234.534 8.87515 237.189 9.36832 239.631 10.3547C242.073 11.3404 244.21 12.7259 246.04 14.51C247.873 16.2954 249.293 18.3848 250.302 20.7793C251.312 23.1746 251.815 25.7804 251.815 28.5982C251.815 31.4159 251.312 34.0224 250.302 36.417C249.293 38.8122 247.873 40.9022 246.04 42.6863C244.543 44.147 242.828 45.3244 240.921 46.25L243.844 50.5149C246.155 49.3967 248.218 47.9902 250.02 46.2785C252.346 44.0719 254.142 41.466 255.41 38.4597C256.677 35.4552 257.311 32.1677 257.311 28.5982C257.311 25.0299 256.665 21.7423 255.373 18.7367Z" fill="#EA5E34"/>
<path d="M239.612 62.2652C240.194 62.0853 240.473 61.6595 240.406 61.4461L238.193 55.1305L244.724 55.3792L231.347 35.8621L231.344 59.4967L236.371 55.6622L238.489 62.0148C238.56 62.2414 239.037 62.4433 239.612 62.2652Z" fill="#EA5E34"/>
<path d="M306.193 17.9617V21.4839C304.596 20.1223 302.847 19.0893 300.945 18.3848C299.043 17.6804 297.082 17.3279 295.063 17.3279C291.728 17.3279 288.724 18.1269 286.047 19.7231C283.371 21.3199 281.244 23.4916 279.672 26.2387C278.099 28.9858 277.312 32.0498 277.312 35.4308C277.312 38.8123 278.099 41.8763 279.672 44.6235C281.244 47.3706 283.371 49.5435 286.047 51.139C288.724 52.7365 291.683 53.5343 294.923 53.5343C299.148 53.5343 302.882 52.1727 306.123 49.4489V54.3793C306.123 57.479 305.253 59.8263 303.516 61.4231C301.923 62.8862 299.652 63.6712 296.717 63.7933V68.3072C301.305 68.2098 304.87 67.0154 307.39 64.699C310.02 62.2798 311.334 58.8172 311.334 54.3087V17.9617H306.193ZM306.123 44.0953C304.948 45.6448 303.422 46.8424 301.543 47.6875C299.665 48.5332 297.599 48.9557 295.345 48.9557C292.95 48.9557 290.777 48.3569 288.829 47.1593C286.88 45.9617 285.331 44.3416 284.18 42.2989C283.029 40.2562 282.454 37.9666 282.454 35.4308C282.454 32.8955 283.018 30.606 284.146 28.5633C285.272 26.5206 286.81 24.9127 288.759 23.7378C290.707 22.5648 292.902 21.9771 295.345 21.9771C297.551 21.9771 299.606 22.3996 301.509 23.2447C303.411 24.0904 304.948 25.2646 306.123 26.7669L306.123 44.0953Z" fill="#EA5E34"/>
<path d="M59.4753 79.8196H57.4375L63.0521 65.624H65.0444L70.5915 79.8196H68.5543L67.2634 76.4012H60.7656L59.4753 79.8196ZM64.0034 67.3903C63.8524 67.9185 63.6749 68.4762 63.471 69.0657C63.2677 69.6541 63.0595 70.2425 62.8488 70.8308L61.3994 74.7025H66.6296L65.1808 70.8308C64.8786 70.0017 64.6409 69.3298 64.4671 68.8164C64.2939 68.303 64.1392 67.8276 64.0034 67.3903Z" fill="#1C4DA1"/>
<path d="M84.1077 78.1896C84.7261 78.1896 85.379 78.1184 86.0656 77.9747C86.7522 77.8309 87.3904 77.6381 87.9787 77.3973V79.1182C87.149 79.4499 86.4126 79.6808 85.7714 79.8085C85.1297 79.9363 84.4621 80.0001 83.7681 80.0001C81.5946 80.0001 80.0623 79.4388 79.1717 78.3137C78.2812 77.1898 77.8359 75.3141 77.8359 72.688C77.8359 70.1675 78.3531 68.3226 79.3867 67.152C80.4203 65.9826 82.0699 65.3979 84.3337 65.3979C85.0277 65.3979 85.6468 65.4127 86.1903 65.4422C86.7338 65.4729 87.2239 65.5257 87.6618 65.6006V67.2994C87.1336 67.2392 86.6012 67.1974 86.0656 67.1753C85.5301 67.152 84.9528 67.1409 84.3337 67.1409C82.6429 67.1409 81.4662 67.5598 80.8017 68.3975C80.1378 69.2352 79.8055 70.665 79.8055 72.688C79.8055 74.7405 80.1077 76.1715 80.7114 76.9785C81.3151 77.7855 82.447 78.1896 84.1077 78.1896Z" fill="#1C4DA1"/>
<path d="M101.245 74.2051C101.245 76.3178 100.856 77.8126 100.079 78.6872C99.3019 79.563 97.9698 80.0003 96.0831 80.0003C94.1363 80.0003 92.7851 79.579 92.0303 78.7327C91.2755 77.8876 90.8984 76.378 90.8984 74.2051C90.8984 72.0764 91.2872 70.5791 92.0647 69.7107C92.8416 68.8423 94.1817 68.4087 96.0831 68.4087C98.0306 68.4087 99.3775 68.8312 100.125 69.6763C100.872 70.5226 101.245 72.031 101.245 74.2051ZM92.755 74.1818C92.755 75.8424 92.9737 76.9405 93.4116 77.4761C93.8495 78.0129 94.74 78.2806 96.0831 78.2806C97.3815 78.2806 98.2566 77.9969 98.7099 77.4306C99.1625 76.8656 99.3885 75.7822 99.3885 74.1818C99.3885 72.5223 99.1736 71.4242 98.7437 70.8874C98.3131 70.3519 97.4263 70.0841 96.0831 70.0841C94.7701 70.0841 93.8869 70.3642 93.4343 70.9218C92.9817 71.4807 92.755 72.5677 92.755 74.1818Z" fill="#1C4DA1"/>
<path d="M112.471 64.7629H114.327V79.8196H112.719L112.584 78.778H112.538C112.1 79.1858 111.568 79.4916 110.942 79.6955C110.316 79.8994 109.595 80.0002 108.78 80.0002C107.255 80.0002 106.165 79.5481 105.509 78.6429C104.852 77.7364 104.523 76.2575 104.523 74.205C104.523 72.1525 104.923 70.6724 105.723 69.7671C106.524 68.8618 107.86 68.4086 109.731 68.4086C110.259 68.4086 110.753 68.4503 111.214 68.5326C111.674 68.6162 112.093 68.7328 112.471 68.8839L112.471 64.7629ZM109.957 70.084C108.554 70.084 107.606 70.3788 107.116 70.9671C106.625 71.5555 106.38 72.6352 106.38 74.205C106.38 75.7293 106.595 76.7894 107.025 77.3863C107.455 77.982 108.259 78.2805 109.437 78.2805C109.995 78.2805 110.531 78.2081 111.044 78.0643C111.557 77.9219 112.033 77.7069 112.471 77.4195V70.5372C112.108 70.3861 111.723 70.2731 111.316 70.197C110.908 70.1221 110.456 70.084 109.957 70.084Z" fill="#1C4DA1"/>
<path d="M127.076 77.6456V79.208C126.684 79.4205 126.106 79.6048 125.344 79.7632C124.581 79.9217 123.808 80.0003 123.023 80.0003C121.272 80.0003 120.02 79.5482 119.265 78.643C118.51 77.7365 118.133 76.2429 118.133 74.1597C118.133 72.1526 118.525 70.6921 119.31 69.7783C120.095 68.8656 121.348 68.4087 123.069 68.4087C124.669 68.4087 125.816 68.7674 126.51 69.4847C127.204 70.2008 127.552 71.3972 127.552 73.0726C127.552 73.3748 127.544 73.6536 127.529 73.9103C127.513 74.167 127.483 74.4766 127.438 74.8389H120.012C120.027 76.0771 120.28 76.959 120.771 77.4872C121.261 78.0166 122.11 78.2806 123.318 78.2806C123.967 78.2806 124.646 78.2205 125.355 78.0989C126.065 77.9785 126.638 77.8274 127.076 77.6456ZM125.853 72.8232C125.838 71.8271 125.619 71.122 125.197 70.7068C124.774 70.2917 124.065 70.0841 123.069 70.0841C121.952 70.0841 121.163 70.3224 120.702 70.7977C120.242 71.2731 120.012 72.1071 120.012 73.2986H125.831C125.831 73.2691 125.834 73.1978 125.842 73.0836C125.85 72.9706 125.853 72.8846 125.853 72.8232Z" fill="#1C4DA1"/>
<path d="M138.784 79.8196L134.844 65.624H136.927L139.282 74.6128C139.342 74.8536 139.406 75.1373 139.474 75.4616C139.542 75.7858 139.696 76.6199 139.938 77.9636C140.21 76.5904 140.383 75.7441 140.459 75.4272C140.534 75.1103 140.602 74.8388 140.662 74.6128L143.244 65.624H145.259L147.862 74.6128C147.922 74.8388 147.99 75.1029 148.066 75.4051C148.141 75.7072 148.315 76.5449 148.587 77.9182C148.753 76.997 148.893 76.2612 149.006 75.7109C149.119 75.1594 149.198 74.7934 149.243 74.6128L151.575 65.624H153.59L149.651 79.8196H147.478L145.19 72.2127C145.025 71.6538 144.866 71.0581 144.715 70.4243C144.564 69.7892 144.398 69.035 144.217 68.1593C144.036 69.035 143.87 69.7892 143.719 70.4243C143.568 71.0581 143.409 71.6538 143.244 72.2127L140.98 79.8196H138.784Z" fill="#1C4DA1"/>
<path d="M164.615 77.6456V79.208C164.223 79.4205 163.645 79.6048 162.883 79.7632C162.12 79.9217 161.347 80.0003 160.562 80.0003C158.811 80.0003 157.559 79.5482 156.804 78.643C156.049 77.7365 155.672 76.2429 155.672 74.1597C155.672 72.1526 156.064 70.6921 156.849 69.7783C157.634 68.8656 158.887 68.4087 160.608 68.4087C162.208 68.4087 163.355 68.7674 164.049 69.4847C164.743 70.2008 165.091 71.3972 165.091 73.0726C165.091 73.3748 165.083 73.6536 165.068 73.9103C165.052 74.167 165.022 74.4766 164.978 74.8389H157.551C157.566 76.0771 157.819 76.959 158.31 77.4872C158.8 78.0166 159.649 78.2806 160.857 78.2806C161.506 78.2806 162.185 78.2205 162.894 78.0989C163.604 77.9785 164.177 77.8274 164.615 77.6456ZM163.392 72.8232C163.377 71.8271 163.158 71.122 162.736 70.7068C162.313 70.2917 161.604 70.0841 160.608 70.0841C159.491 70.0841 158.702 70.3224 158.241 70.7977C157.781 71.2731 157.551 72.1071 157.551 73.2986H163.37C163.37 73.2691 163.373 73.1978 163.381 73.0836C163.389 72.9706 163.392 72.8846 163.392 72.8232Z" fill="#1C4DA1"/>
<path d="M177.256 77.6456V79.208C176.863 79.4205 176.285 79.6048 175.524 79.7632C174.761 79.9217 173.988 80.0003 173.203 80.0003C171.452 80.0003 170.199 79.5482 169.445 78.643C168.69 77.7365 168.312 76.2429 168.312 74.1597C168.312 72.1526 168.705 70.6921 169.49 69.7783C170.275 68.8656 171.528 68.4087 173.248 68.4087C174.848 68.4087 175.996 68.7674 176.69 69.4847C177.384 70.2008 177.731 71.3972 177.731 73.0726C177.731 73.3748 177.723 73.6536 177.708 73.9103C177.693 74.167 177.663 74.4766 177.618 74.8389H170.192C170.207 76.0771 170.46 76.959 170.95 77.4872C171.44 78.0166 172.29 78.2806 173.497 78.2806C174.146 78.2806 174.826 78.2205 175.535 78.0989C176.244 77.9785 176.818 77.8274 177.256 77.6456ZM176.033 72.8232C176.018 71.8271 175.799 71.122 175.377 70.7068C174.954 70.2917 174.245 70.0841 173.248 70.0841C172.131 70.0841 171.343 70.3224 170.882 70.7977C170.422 71.2731 170.192 72.1071 170.192 73.2986H176.01C176.01 73.2691 176.014 73.1978 176.022 73.0836C176.029 72.9706 176.033 72.8846 176.033 72.8232Z" fill="#1C4DA1"/>
<path d="M183.34 74.9739V79.8196H181.484V64.7629H183.34V73.3673H184.677L188.593 68.6346H190.834L186.192 74.0686L191.06 79.8196H188.729L184.744 74.9739H183.34Z" fill="#1C4DA1"/>
<path d="M201.156 66.6877H199.164V64.7629H201.156V66.6877ZM201.089 79.8196H199.233V68.6346H201.089V79.8196Z" fill="#1C4DA1"/>
<path d="M207.293 79.8197H205.438V68.6347H207.044L207.135 69.7218H207.203C207.807 69.2697 208.437 68.9369 209.093 68.7256C209.75 68.5143 210.486 68.4087 211.301 68.4087C212.538 68.4087 213.478 68.7182 214.119 69.3373C214.762 69.9564 215.082 70.869 215.082 72.0764V79.8197H213.225V72.3024C213.225 71.5483 213.014 70.9894 212.591 70.627C212.169 70.2659 211.52 70.0841 210.644 70.0841C210.101 70.0841 209.546 70.1713 208.98 70.3445C208.414 70.5177 207.851 70.7707 207.293 71.1036L207.293 79.8197Z" fill="#1C4DA1"/>
<path d="M221.266 66.6877H219.273V64.7629H221.266V66.6877ZM221.198 79.8196H219.342V68.6346H221.198V79.8196Z" fill="#1C4DA1"/>
<path d="M232.107 78.0765V79.639C231.865 79.7446 231.537 79.8306 231.122 79.8994C230.707 79.9669 230.31 80.0001 229.933 80.0001C228.574 80.0001 227.605 79.6991 227.024 79.0948C226.443 78.4917 226.152 77.4501 226.152 75.97V70.2203H224.477V68.6345H226.175L226.469 65.9187H228.009V68.6345H231.994V70.2203H228.009V75.9024C228.009 76.8237 228.179 77.4501 228.518 77.7817C228.858 78.1146 229.457 78.2804 230.318 78.2804C230.59 78.2804 230.903 78.2571 231.258 78.2116C231.612 78.1662 231.896 78.122 232.107 78.0765Z" fill="#1C4DA1"/>
<path d="M237.219 66.6877H235.227V64.7629H237.219V66.6877ZM237.151 79.8196H235.295V68.6346H237.151V79.8196Z" fill="#1C4DA1"/>
<path d="M244.04 80.0003C242.892 80.0003 242.051 79.7251 241.515 79.1749C240.979 78.6233 240.711 77.7525 240.711 76.5598C240.711 75.3523 241.036 74.4962 241.685 73.9901C242.334 73.4841 243.435 73.231 244.99 73.231C245.504 73.231 246.01 73.2544 246.507 73.2986C247.006 73.344 247.473 73.4128 247.911 73.5025V72.4167C247.911 71.5863 247.7 70.9894 247.277 70.627C246.855 70.2659 246.176 70.0841 245.24 70.0841C244.546 70.0841 243.934 70.1111 243.406 70.164C242.878 70.2168 242.349 70.3027 241.821 70.4244V68.8165C242.424 68.6654 243.04 68.5598 243.666 68.4996C244.293 68.4394 245.005 68.4087 245.806 68.4087C247.149 68.4087 248.145 68.7219 248.794 69.3484C249.443 69.9748 249.767 70.9452 249.767 72.2582V79.8197H248.07L247.979 78.7781H247.933C247.481 79.1405 246.895 79.4353 246.179 79.6613C245.462 79.8873 244.748 80.0003 244.04 80.0003ZM245.194 74.748C244.167 74.748 243.455 74.8733 243.055 75.1214C242.654 75.3708 242.455 75.8117 242.455 76.4468C242.455 77.11 242.621 77.5891 242.953 77.8839C243.284 78.1787 243.828 78.3249 244.583 78.3249C245.172 78.3249 245.775 78.2352 246.394 78.0534C247.013 77.8728 247.518 77.6456 247.911 77.3741V74.974C247.413 74.8991 246.95 74.8426 246.518 74.8045C246.088 74.7677 245.648 74.748 245.194 74.748Z" fill="#1C4DA1"/>
<path d="M260.458 78.0765V79.639C260.216 79.7446 259.888 79.8306 259.473 79.8994C259.058 79.9669 258.661 80.0001 258.284 80.0001C256.926 80.0001 255.957 79.6991 255.376 79.0948C254.795 78.4917 254.504 77.4501 254.504 75.97V70.2203H252.828V68.6345H254.527L254.82 65.9187H256.361V68.6345H260.345V70.2203H256.361V75.9024C256.361 76.8237 256.53 77.4501 256.869 77.7817C257.21 78.1146 257.809 78.2804 258.67 78.2804C258.941 78.2804 259.255 78.2571 259.61 78.2116C259.963 78.1662 260.247 78.122 260.458 78.0765Z" fill="#1C4DA1"/>
<path d="M265.57 66.6877H263.578V64.7629H265.57V66.6877ZM265.503 79.8196H263.647V68.6346H265.503V79.8196Z" fill="#1C4DA1"/>
<path d="M277.272 68.6345H279.31L275.008 79.8195H272.88L268.578 68.6345H270.639L273.967 78.122L277.272 68.6345Z" fill="#1C4DA1"/>
<path d="M290.561 77.6456V79.208C290.167 79.4205 289.59 79.6048 288.829 79.7632C288.066 79.9217 287.292 80.0003 286.508 80.0003C284.757 80.0003 283.504 79.5482 282.75 78.643C281.994 77.7365 281.617 76.2429 281.617 74.1597C281.617 72.1526 282.01 70.6921 282.795 69.7783C283.579 68.8656 284.833 68.4087 286.553 68.4087C288.153 68.4087 289.3 68.7674 289.994 69.4847C290.688 70.2008 291.036 71.3972 291.036 73.0726C291.036 73.3748 291.029 73.6536 291.014 73.9103C290.998 74.167 290.968 74.4766 290.923 74.8389H283.496C283.511 76.0771 283.764 76.959 284.256 77.4872C284.746 78.0166 285.594 78.2806 286.802 78.2806C287.45 78.2806 288.13 78.2205 288.84 78.0989C289.55 77.9785 290.122 77.8274 290.561 77.6456ZM289.338 72.8232C289.322 71.8271 289.104 71.122 288.681 70.7068C288.259 70.2917 287.549 70.0841 286.553 70.0841C285.436 70.0841 284.647 70.3224 284.187 70.7977C283.726 71.2731 283.497 72.1071 283.497 73.2986H289.315C289.315 73.2691 289.319 73.1978 289.326 73.0836C289.333 72.9706 289.338 72.8846 289.338 72.8232Z" fill="#1C4DA1"/>
</g>
<defs>
<clipPath id="clip0_1638_50530">
<rect width="401.572" height="80" fill="white"/>
</clipPath>
</defs>
</svg>
