<svg width="24" height="24" viewBox="0 0 24 24" fill="none" xmlns="http://www.w3.org/2000/svg">
<path d="M9.08878 3.0314C7.17041 3.6969 5.516 4.96005 4.36857 6.6353C3.22114 8.31056 2.64117 10.3096 2.71385 12.3388C2.78652 14.3681 3.50802 16.3205 4.77235 17.9094C6.03668 19.4983 7.77721 20.6398 9.73828 21.1664C11.3282 21.5766 12.9939 21.5947 14.5923 21.2189C16.0403 20.8937 17.379 20.1979 18.4773 19.1999C19.6204 18.1294 20.4501 16.7676 20.8773 15.2609C21.3416 13.6224 21.4242 11.8993 21.1188 10.2239H12.1908V13.9274H17.3613C17.2579 14.5181 17.0365 15.0818 16.7102 15.5849C16.3839 16.0881 15.9595 16.5202 15.4623 16.8554C14.8309 17.273 14.1192 17.5541 13.3728 17.6804C12.6242 17.8196 11.8564 17.8196 11.1078 17.6804C10.3491 17.5235 9.63133 17.2104 9.00028 16.7609C7.98651 16.0433 7.2253 15.0238 6.82528 13.8479C6.41851 12.65 6.41851 11.3513 6.82528 10.1534C7.11002 9.31372 7.58074 8.5492 8.20228 7.9169C8.91357 7.18002 9.81408 6.6533 10.805 6.39451C11.796 6.13573 12.839 6.1549 13.8198 6.4499C14.5859 6.68509 15.2866 7.09601 15.8658 7.6499C16.4488 7.0699 17.0308 6.4884 17.6118 5.9054C17.9118 5.5919 18.2388 5.2934 18.5343 4.9724C17.6501 4.14961 16.6123 3.50939 15.4803 3.0884C13.4188 2.33988 11.1633 2.31977 9.08878 3.0314Z" fill="white"/>
<path d="M9.08886 3.0314C11.1632 2.31928 13.4187 2.33887 15.4804 3.0869C16.6126 3.51074 17.6499 4.15405 18.5329 4.9799C18.2329 5.3009 17.9164 5.6009 17.6104 5.9129C17.0284 6.4939 16.4469 7.0729 15.8659 7.6499C15.2866 7.096 14.586 6.68508 13.8199 6.4499C12.8394 6.15386 11.7964 6.13359 10.8052 6.39131C9.81399 6.64903 8.91292 7.17479 8.20085 7.9109C7.57931 8.5432 7.10859 9.30772 6.82386 10.1474L3.71436 7.7399C4.82737 5.53274 6.75448 3.84443 9.08886 3.0314Z" fill="#E33629"/>
<path d="M2.88912 10.125C3.05625 9.29668 3.33373 8.49453 3.71412 7.73999L6.82362 10.1535C6.41684 11.3514 6.41684 12.6501 6.82362 13.848C5.78762 14.648 4.75112 15.452 3.71412 16.26C2.76185 14.3645 2.47142 12.2047 2.88912 10.125Z" fill="#F8BD00"/>
<path d="M12.1909 10.2224H21.1189C21.4242 11.8978 21.3416 13.6209 20.8774 15.2594C20.4502 16.7661 19.6205 18.1279 18.4774 19.1984C17.4739 18.4154 16.4659 17.6384 15.4624 16.8554C15.9599 16.5198 16.3845 16.0873 16.7108 15.5836C17.0371 15.08 17.2584 14.5156 17.3614 13.9244H12.1909C12.1894 12.6914 12.1909 11.4569 12.1909 10.2224Z" fill="#587DBD"/>
<path d="M3.71265 16.2599C4.74965 15.4599 5.78615 14.6559 6.82215 13.8479C7.22296 15.0242 7.98525 16.0437 9.00015 16.7609C9.63316 17.2083 10.3524 17.5189 11.1121 17.6729C11.8607 17.8121 12.6286 17.8121 13.3771 17.6729C14.1235 17.5466 14.8353 17.2655 15.4666 16.8479C16.4701 17.6309 17.4781 18.4079 18.4816 19.1909C17.3835 20.1895 16.0448 20.8857 14.5966 21.2114C12.9983 21.5872 11.3325 21.5691 9.74265 21.1589C8.4852 20.8232 7.31066 20.2313 6.29265 19.4204C5.21514 18.5649 4.33508 17.4869 3.71265 16.2599Z" fill="#319F43"/>
</svg>
