<svg width="32" height="32" viewBox="0 0 32 32" fill="none" xmlns="http://www.w3.org/2000/svg">
<path d="M27.5592 3H4.44083C4.05958 3.00283 3.69474 3.15555 3.42514 3.42514C3.15555 3.69474 3.00283 4.05958 3 4.44083V27.5592C3.00283 27.9404 3.15555 28.3053 3.42514 28.5749C3.69474 28.8445 4.05958 28.9972 4.44083 29H16.8883V18.9467H13.5083V15.0142H16.8883V12.1217C16.8883 8.76333 18.9358 6.9325 21.9475 6.9325C22.955 6.9325 23.9625 6.9325 24.97 7.08417V10.5833H22.9008C21.265 10.5833 20.9508 11.3633 20.9508 12.5008V15.0033H24.8508L24.3417 18.9358H20.9508V29H27.5592C27.9404 28.9972 28.3053 28.8445 28.5749 28.5749C28.8445 28.3053 28.9972 27.9404 29 27.5592V4.44083C28.9972 4.05958 28.8445 3.69474 28.5749 3.42514C28.3053 3.15555 27.9404 3.00283 27.5592 3Z" fill="#1C4DA1"/>
</svg>
