<svg width="32" height="32" viewBox="0 0 32 32" fill="none" xmlns="http://www.w3.org/2000/svg">
<path d="M11.84 16C11.84 16.8228 12.084 17.6271 12.5411 18.3112C12.9982 18.9953 13.6479 19.5285 14.408 19.8433C15.1682 20.1582 16.0046 20.2406 16.8116 20.0801C17.6185 19.9196 18.3598 19.5233 18.9416 18.9416C19.5234 18.3598 19.9196 17.6185 20.0801 16.8116C20.2406 16.0046 20.1582 15.1682 19.8433 14.408C19.5285 13.6479 18.9953 12.9982 18.3112 12.5411C17.6271 12.084 16.8228 11.84 16 11.84C14.8978 11.8434 13.8416 12.2828 13.0622 13.0622C12.2828 13.8416 11.8434 14.8978 11.84 16ZM3 10.28V21.72C3 23.6508 3.767 25.5025 5.13226 26.8677C6.49753 28.233 8.34922 29 10.28 29H21.72C23.6508 29 25.5025 28.233 26.8677 26.8677C28.233 25.5025 29 23.6508 29 21.72V10.28C29 8.34922 28.233 6.49753 26.8677 5.13226C25.5025 3.767 23.6508 3 21.72 3H10.28C8.34922 3 6.49753 3.767 5.13226 5.13226C3.767 6.49753 3 8.34922 3 10.28ZM9.76 16C9.76 14.7658 10.126 13.5594 10.8116 12.5332C11.4973 11.5071 12.4718 10.7073 13.6121 10.235C14.7523 9.7627 16.0069 9.63913 17.2174 9.8799C18.4278 10.1207 19.5397 10.715 20.4123 11.5877C21.285 12.4603 21.8793 13.5722 22.1201 14.7826C22.3609 15.9931 22.2373 17.2477 21.765 18.3879C21.2927 19.5282 20.4929 20.5027 19.4668 21.1884C18.4406 21.874 17.2342 22.24 16 22.24C14.345 22.24 12.7579 21.5826 11.5877 20.4123C10.4174 19.2421 9.76 17.655 9.76 16ZM7.68 9.24C7.68 8.93146 7.77149 8.62985 7.94291 8.37331C8.11432 8.11677 8.35796 7.91682 8.64301 7.79875C8.92807 7.68068 9.24173 7.64978 9.54434 7.70997C9.84695 7.77017 10.1249 7.91874 10.3431 8.13691C10.5613 8.35508 10.7098 8.63305 10.77 8.93566C10.8302 9.23827 10.7993 9.55193 10.6813 9.83699C10.5632 10.122 10.3632 10.3657 10.1067 10.5371C9.85015 10.7085 9.54854 10.8 9.24 10.8C8.82626 10.8 8.42947 10.6356 8.13692 10.3431C7.84436 10.0505 7.68 9.65374 7.68 9.24Z" fill="#1C4DA1"/>
</svg>
