<svg width="32" height="32" viewBox="0 0 32 32" fill="none" xmlns="http://www.w3.org/2000/svg">
<path fill-rule="evenodd" clip-rule="evenodd" d="M3 6.06775C3 5.51935 3.22592 4.99341 3.62806 4.60563C4.0302 4.21785 4.57562 4 5.14433 4H26.52C26.8018 3.99956 27.081 4.05272 27.3415 4.15645C27.602 4.26018 27.8387 4.41244 28.0381 4.60451C28.2375 4.79657 28.3957 5.02468 28.5035 5.27576C28.6114 5.52685 28.6668 5.79598 28.6667 6.06775V26.68C28.667 26.9518 28.6117 27.221 28.504 27.4722C28.3963 27.7235 28.2383 27.9517 28.039 28.144C27.8397 28.3362 27.6031 28.4887 27.3427 28.5927C27.0822 28.6967 26.8031 28.7502 26.5212 28.75H5.14433C4.86264 28.75 4.5837 28.6965 4.32346 28.5925C4.06322 28.4885 3.82678 28.3361 3.62765 28.144C3.42851 27.9518 3.27059 27.7238 3.16289 27.4728C3.0552 27.2218 2.99985 26.9528 3 26.6811V6.06775ZM13.1593 13.4365H16.6348V15.1195C17.1365 14.152 18.4198 13.2813 20.3483 13.2813C24.0455 13.2813 24.9217 15.2084 24.9217 18.7443V25.294H21.1802V19.5498C21.1802 17.536 20.6785 16.3998 19.4045 16.3998C17.637 16.3998 16.902 17.6249 16.902 19.5498V25.294H13.1593V13.4365ZM6.74267 25.1399H10.4853V13.2813H6.74267V25.1388V25.1399ZM11.0208 9.4135C11.0279 9.72251 10.9709 10.0298 10.8531 10.3172C10.7354 10.6047 10.5592 10.8666 10.3351 11.0875C10.111 11.3085 9.84332 11.484 9.54786 11.6039C9.25241 11.7237 8.93511 11.7855 8.61458 11.7855C8.29405 11.7855 7.97675 11.7237 7.6813 11.6039C7.38585 11.484 7.1182 11.3085 6.89406 11.0875C6.66992 10.8666 6.49381 10.6047 6.37605 10.3172C6.2583 10.0298 6.20128 9.72251 6.20833 9.4135C6.22218 8.80696 6.48178 8.22977 6.93153 7.80552C7.38128 7.38128 7.98543 7.14372 8.61458 7.14372C9.24374 7.14372 9.84788 7.38128 10.2976 7.80552C10.7474 8.22977 11.007 8.80696 11.0208 9.4135Z" fill="#1C4DA1"/>
</svg>
