<svg width="24" height="24" viewBox="0 0 24 24" fill="none" xmlns="http://www.w3.org/2000/svg">
<circle cx="12.5" cy="12" r="10" fill="white"/>
<path d="M22.5 12.0611C22.5 6.50455 18.0228 2 12.5 2C6.97719 2 2.5 6.50455 2.5 12.0611C2.5 17.0829 6.15687 21.2453 10.9375 22V14.9694H8.39844V12.0611H10.9375V9.84452C10.9375 7.32296 12.4305 5.93012 14.7147 5.93012C15.8088 5.93012 16.9531 6.12663 16.9531 6.12663V8.60261H15.6922C14.4499 8.60261 14.0625 9.37818 14.0625 10.1739V12.0611H16.8359L16.3926 14.9694H14.0625V22C18.8431 21.2453 22.5 17.0829 22.5 12.0611Z" fill="#1877F2"/>
</svg>
