<svg width="32" height="32" viewBox="0 0 32 32" fill="none" xmlns="http://www.w3.org/2000/svg">
<path d="M30.2366 8.0274C30.1135 7.52236 29.8725 7.05539 29.5343 6.6665C29.1961 6.27761 28.7707 5.9784 28.2946 5.79452C23.7143 3.9863 16.4018 4 16 4C15.5982 4 8.28571 3.9863 3.70536 5.79452C3.2293 5.9784 2.80392 6.27761 2.4657 6.6665C2.12748 7.05539 1.88649 7.52236 1.76339 8.0274C1.41518 9.38356 1 11.8767 1 16C1 20.1233 1.41518 22.6164 1.76339 23.9726C1.88649 24.4776 2.12748 24.9446 2.4657 25.3335C2.80392 25.7224 3.2293 26.0216 3.70536 26.2055C8.09821 27.9452 14.9821 28 15.9062 28H16.0937C17.0179 28 23.9018 27.9452 28.2946 26.2055C28.7707 26.0216 29.1961 25.7224 29.5343 25.3335C29.8725 24.9446 30.1135 24.4776 30.2366 23.9726C30.5848 22.6164 31 20.1233 31 16C31 11.8767 30.5848 9.38356 30.2366 8.0274ZM20.5804 16.4521L14.1518 20.8356C14.0665 20.8998 13.963 20.9335 13.8571 20.9315C13.7684 20.9281 13.6815 20.9047 13.6027 20.863C13.5171 20.8175 13.4455 20.7486 13.3958 20.6639C13.3462 20.5793 13.3204 20.4823 13.3214 20.3836V11.6164C13.3204 11.5177 13.3462 11.4207 13.3958 11.3361C13.4455 11.2514 13.5171 11.1825 13.6027 11.137C13.6881 11.0904 13.7842 11.0683 13.8809 11.0731C13.9776 11.078 14.0712 11.1095 14.1518 11.1644L20.5804 15.5479C20.6551 15.5961 20.7166 15.6628 20.7593 15.7418C20.8019 15.8209 20.8243 15.9097 20.8243 16C20.8243 16.0903 20.8019 16.1791 20.7593 16.2582C20.7166 16.3372 20.6551 16.4039 20.5804 16.4521Z" fill="#1C4DA1"/>
</svg>
