<svg width="509" height="280" viewBox="0 0 509 280" fill="none" xmlns="http://www.w3.org/2000/svg">
<g clip-path="url(#clip0_2594_562)">
<g style="mix-blend-mode:luminosity" opacity="0.3" clip-path="url(#clip1_2594_562)">
<path d="M412.596 218.931C396.35 236.792 392.353 262.633 402.445 284.564C425.987 279.676 449.035 294.8 453.923 318.341C454.004 318.731 454.08 319.121 454.148 319.513C462.02 319.909 469.888 318.744 477.305 316.085C479.037 315.464 480.764 314.77 482.451 313.969C490.288 310.34 497.248 305.059 502.854 298.486C487.48 286.771 484.514 264.808 496.229 249.434C499.66 244.928 504.138 241.325 509.271 238.928C510.268 238.477 511.266 238.053 512.268 237.702L513.074 237.423C512.63 236.304 512.151 235.193 511.639 234.081C506.365 222.695 497.65 213.251 486.716 207.084C481.35 213.933 474.431 219.408 466.537 223.066C464.973 223.799 463.398 224.433 461.815 225.013C445.386 230.905 427.139 228.682 412.604 219.022" fill="#EA8E53"/>
<path d="M396.71 286.164C395.455 286.623 394.216 287.128 392.986 287.688L392.219 288.07C390.776 303.999 381.689 318.232 367.85 326.25C367.672 336.048 370.795 345.62 376.713 353.425C380.278 350.332 384.258 347.756 388.539 345.772C389.956 345.102 391.406 344.508 392.859 343.987C410.823 337.551 430.878 341.778 444.713 354.922C452.964 345.048 456.436 332.031 454.191 319.36C431.884 318.259 412.023 304.888 402.613 284.636L402.589 284.405C400.643 284.813 398.726 285.358 396.853 286.027" fill="#E6804E"/>
<path d="M402.468 284.541L402.488 284.773C411.903 305.029 431.76 318.4 454.071 319.5C449.831 295.834 427.206 280.082 403.536 284.323C403.144 284.395 402.753 284.467 402.363 284.547" fill="#DE4621"/>
<path d="M346.419 66.4695C327.984 73.0902 318.408 93.4002 325.028 111.831C327.2 117.879 330.972 123.222 335.944 127.288C349.898 120.414 366.309 120.685 380.026 128.011C395.582 116.109 398.539 93.8483 386.638 78.296C377.265 66.047 361.042 61.259 346.519 66.4592" fill="#FFCC54"/>
<path d="M513.072 237.41C521.223 258.066 517.337 281.533 502.96 298.461C512.368 305.612 524.751 307.532 535.884 303.565C536.888 303.2 537.885 302.791 538.881 302.339C541.061 301.326 543.127 300.094 545.055 298.658C541.517 290.321 545.253 280.684 553.481 276.908L554.903 276.316C556.181 275.856 557.512 275.556 558.864 275.422C561.527 256.291 548.173 238.625 529.042 235.961C523.741 235.224 518.339 235.715 513.258 237.392" fill="#E98B4A"/>
<path d="M512.294 237.687C511.286 238.035 510.293 238.462 509.297 238.913C491.778 247.087 484.206 267.913 492.378 285.427C494.774 290.561 498.376 295.035 502.882 298.466C517.26 281.543 521.15 258.074 512.994 237.415L512.188 237.694" fill="#DF4C1F"/>
<path d="M179.596 158.182C188.296 176.623 186.777 198.26 175.578 215.298C180.641 216.26 185.871 215.848 190.723 214.106L191.376 213.868C189.646 199.644 196.274 185.693 208.394 178.047C204.381 165.689 192.598 157.544 179.622 158.153" fill="#F0E257"/>
<path d="M283.734 164.523C273.805 168.072 265.243 174.643 259.253 183.322C258.536 184.37 257.851 185.429 257.206 186.506C268.399 200.753 267.657 220.997 255.444 234.382C259.239 242.113 264.954 248.736 272.045 253.625C273.796 254.863 275.627 255.989 277.522 256.996C281.072 257.704 284.479 259.004 287.599 260.843C291.217 261.79 294.931 262.328 298.67 262.45C303.574 252.018 312.001 243.653 322.469 238.821C323.86 238.18 325.268 237.606 326.693 237.101C332.953 234.863 339.598 233.921 346.233 234.334C348.746 229.247 350.379 223.766 351.059 218.135C324.665 214.654 306.092 190.434 309.573 164.04C309.655 163.439 309.745 162.836 309.846 162.24C301.126 160.684 292.148 161.436 283.808 164.426" fill="#FFCC54"/>
<path d="M302.288 -50.1848C300.735 -49.6307 299.23 -48.958 297.779 -48.1776C311.813 -31.5032 310.724 -6.85256 295.276 8.51814C310.514 18.5836 331.026 14.3859 341.09 -0.856283C351.155 -16.094 346.958 -36.6056 331.716 -46.6699C323.012 -52.4172 312.102 -53.7241 302.288 -50.1848Z" fill="#F2D856"/>
<path d="M436.9 202.769C435.169 203.389 433.441 204.084 431.754 204.884C424.503 208.246 418.001 213.025 412.624 218.934C427.159 228.594 445.406 230.812 461.835 224.925C463.414 224.346 465.016 223.71 466.558 222.977C474.453 219.324 481.366 213.846 486.732 206.996C471.533 198.39 453.342 196.818 436.896 202.695" fill="#EA8E53"/>
<path d="M335.944 127.288C322.119 134.117 312.389 147.144 309.769 162.343C336.151 167.109 354.23 191.63 350.983 218.242C367.88 220.454 384.686 213.574 395.184 200.155C394.467 198.889 393.79 197.575 393.153 196.215C385.156 179.021 386.539 158.928 396.822 142.996C393.529 138.266 389.41 134.169 384.667 130.893C383.147 129.841 381.564 128.873 379.934 128.001C367.705 137.342 350.857 137.739 338.201 128.984C337.43 128.451 336.679 127.885 335.955 127.295" fill="#EEA44E"/>
<path d="M340.961 125.162C339.26 125.775 337.592 126.483 335.97 127.286C336.695 127.877 337.445 128.438 338.217 128.975C350.871 137.726 367.72 137.329 379.949 127.988C367.947 121.578 353.792 120.55 340.987 125.155" fill="#EEA110"/>
<path d="M309.769 162.343C305.294 188.588 322.936 213.49 349.183 217.969C349.779 218.07 350.382 218.16 350.983 218.242C354.23 191.63 336.151 167.109 309.77 162.347" fill="#EEA110"/>
<path d="M396.795 143.016C386.54 158.965 385.188 179.055 393.204 196.235C393.824 197.581 394.501 198.89 395.235 200.17C395.807 199.427 396.363 198.674 396.899 197.897C408.332 181.384 408.32 159.506 396.871 143.007" fill="#EEA44E"/>
<path d="M260.248 258.171C259.315 258.5 258.398 258.876 257.5 259.295C251.129 262.238 245.897 267.196 242.621 273.407C252.679 280.099 255.408 293.675 248.721 303.732C247.761 305.174 246.629 306.499 245.358 307.677C253.812 318.914 268.588 323.352 281.833 318.63C282.754 318.308 283.671 317.932 284.581 317.506C290.463 314.784 295.377 310.34 298.673 304.761L298.483 304.361C293.268 293.16 292.48 280.403 296.271 268.643C293.884 265.533 290.949 262.887 287.603 260.842C284.178 259.909 280.857 258.616 277.703 256.98C271.922 255.76 265.918 256.165 260.356 258.154" fill="#EEA44E"/>
<path d="M277.599 256.991C280.786 258.629 284.139 259.919 287.599 260.843C284.534 259.019 281.191 257.712 277.699 256.981" fill="#EEA110"/>
<path d="M415.415 74.8163C405.627 78.3305 400.543 89.1129 404.057 98.9013C407.571 108.69 418.354 113.773 428.142 110.259C437.931 106.745 443.014 95.9626 439.5 86.1742C438.173 82.4766 435.721 79.2899 432.491 77.0544C427.494 73.5939 421.134 72.761 415.411 74.8173" fill="#FFCC54"/>
<path d="M202.546 236.179C201.943 236.87 201.375 237.593 200.852 238.348C193.114 249.548 195.917 264.901 207.118 272.639C209.514 274.296 212.19 275.514 215.016 276.239C216.822 274.415 218.931 272.922 221.253 271.827C221.862 271.54 222.488 271.285 223.127 271.065C227.703 269.432 232.689 269.372 237.302 270.894C245.214 263.923 247.819 252.693 243.78 242.949C242.719 243.439 241.646 243.881 240.556 244.272C227.372 248.96 212.677 245.827 202.549 236.174" fill="#F0D16C"/>
<path d="M215.593 174.586C213.073 175.478 210.659 176.637 208.39 178.048C213.116 192.608 205.643 208.321 191.365 213.843C192.388 222.35 196.342 230.238 202.539 236.153C211.467 225.886 227.024 224.803 237.29 233.726C240.154 236.218 242.405 239.337 243.866 242.844C248.256 240.791 252.198 237.89 255.459 234.309C247.966 219.069 248.625 201.081 257.215 186.43C247.328 173.962 230.585 169.193 215.616 174.585" fill="#FFD354"/>
<path d="M208.39 178.048C196.277 185.688 189.651 199.625 191.37 213.842C205.642 208.317 213.116 192.608 208.39 178.048Z" fill="#F0DA00"/>
<path d="M257.202 186.507C248.606 201.155 247.947 219.144 255.446 234.386C267.654 221.002 268.4 200.753 257.202 186.507Z" fill="#F4BF00"/>
<path d="M212.753 229.189C208.808 230.608 205.298 233.014 202.551 236.182C212.69 245.866 227.431 248.997 240.634 244.271C241.72 243.882 242.794 243.444 243.858 242.948C238.818 230.802 225.132 224.747 212.757 229.188" fill="#EFC511"/>
<path d="M346.13 234.466C337.263 252.438 318.62 263.478 298.601 262.611C297.693 264.57 296.91 266.587 296.262 268.645C304.478 279.075 305.44 293.486 298.677 304.913C300.518 308.793 302.858 312.416 305.643 315.689C307.186 314.579 308.836 313.625 310.571 312.845C311.383 312.458 312.217 312.124 313.07 311.847C327.822 306.554 344.071 314.222 349.363 328.974C349.78 330.132 350.118 331.314 350.378 332.515C353.624 332.046 356.814 331.252 359.905 330.143C361.33 329.638 362.738 329.063 364.129 328.418C365.52 327.778 366.834 327.101 368.064 326.388C368.393 310.102 377.799 295.363 392.433 288.208C394.87 261.096 374.865 237.141 347.753 234.703C347.25 234.659 346.744 234.624 346.244 234.592" fill="#EEA44E"/>
<path d="M326.595 237.236C325.17 237.741 323.762 238.316 322.371 238.96C311.909 243.791 303.482 252.161 298.573 262.59C318.584 263.445 337.217 252.421 346.103 234.472C339.468 234.06 332.819 235.002 326.564 237.244" fill="#EEA110"/>
<path d="M296.263 268.645C292.436 280.451 293.23 293.271 298.488 304.518L298.679 304.918C305.436 293.487 304.475 279.08 296.259 268.651" fill="#E15B1D"/>
<path d="M440.079 39.0467C432.446 42.06 428.701 50.6856 431.714 58.3185C434.593 65.6077 442.638 69.4098 450.097 67.0011L450.252 66.9867C448.782 61.8972 451.717 56.5776 456.807 55.1076C457.797 54.8204 458.83 54.6945 459.858 54.7373C460.79 46.5865 454.937 39.2212 446.787 38.2892C444.521 38.0314 442.229 38.296 440.083 39.0642" fill="#EDD356"/>
<path d="M251.652 -60.5844C229.886 -52.7912 218.56 -28.8254 226.353 -7.0596C234.146 14.7062 258.107 26.0337 279.873 18.2405C285.658 16.1693 290.92 12.8494 295.276 8.51369L294.645 8.09998C279.633 -2.29916 275.894 -22.8943 286.288 -37.9054C289.254 -42.1865 293.193 -45.7099 297.779 -48.1821C286.487 -61.5354 268.09 -66.4732 251.626 -60.578" fill="#EFE47D"/>
<path d="M297.778 -48.1821C281.711 -39.5066 275.719 -19.4452 284.395 -3.3737C286.871 1.20639 290.389 5.14259 294.673 8.10232L295.302 8.51163C310.75 -6.85907 311.839 -31.5097 297.806 -48.1841" fill="#EED41A"/>
<path d="M214.984 276.247C207.741 283.581 206.598 294.971 212.234 303.602L213.559 303.071C221.631 300.257 230.452 304.517 233.265 312.589C233.347 312.829 233.424 313.071 233.498 313.318C234.982 313.115 236.444 312.759 237.855 312.258C238.492 312.029 239.114 311.776 239.729 311.496C241.788 310.54 243.682 309.27 245.349 307.736C237.864 297.788 236.801 284.415 242.612 273.41C240.937 272.316 239.116 271.457 237.205 270.862C231.093 276.229 222.728 278.24 214.843 276.24" fill="#EEA44E"/>
<path d="M242.62 273.403C236.83 284.394 237.891 297.74 245.35 307.68C254.223 299.48 254.767 285.647 246.572 276.774C245.393 275.499 244.069 274.371 242.626 273.406" fill="#E15B1D"/>
<path d="M223.174 271.067C222.548 271.303 221.922 271.539 221.3 271.83C218.952 272.916 216.811 274.413 214.985 276.247C222.867 278.253 231.236 276.241 237.347 270.869C232.738 269.346 227.746 269.402 223.172 271.04" fill="#EAAC1B"/>
<path d="M459.854 54.7428C459.211 60.2952 455.507 65.0162 450.273 66.9628C451.725 72.0566 457.035 75.0087 462.129 73.5563C467.223 72.1038 470.175 66.7941 468.722 61.7004C467.584 57.7061 464.006 54.8999 459.854 54.7428Z" fill="#EDD356"/>
<path d="M456.251 55.2935C451.499 57.0022 448.881 62.1005 450.271 66.9584C455.51 65.0107 459.214 60.2896 459.854 54.7427C458.63 54.6965 457.406 54.8825 456.252 55.2979" fill="#E9CA00"/>
<path d="M171.223 159.829C156.232 165.212 148.447 181.722 153.83 196.712C157.282 206.32 165.549 213.387 175.577 215.293C186.794 198.251 188.323 176.598 179.621 158.149C176.754 158.284 173.923 158.837 171.225 159.8" fill="#F0DF12"/>
<path d="M480.392 56.8269C477.039 58.0233 475.292 61.7109 476.488 65.0637C477.685 68.4165 481.372 70.1642 484.725 68.9678C488.078 67.7714 489.825 64.0838 488.629 60.731C488.177 59.4652 487.34 58.3722 486.237 57.6039C484.531 56.4154 482.355 56.1265 480.397 56.8258" fill="#EDD356"/>
<path d="M178.241 107.175C185.928 138.789 217.789 158.186 249.403 150.498C281.018 142.81 300.414 110.95 292.726 79.3354C285.039 47.7211 253.178 28.3246 221.564 36.0123C189.949 43.7 170.553 75.5606 178.241 107.175Z" fill="#FFE97F"/>
</g>
<path d="M124.624 99.8301L121 90H124.213L126.055 96.3365H126.176L128.018 90H131.121L127.497 99.8401L131.121 109.79H128.028L126.156 103.434H125.955L123.993 109.79H121L124.624 99.8301Z" fill="#BDD1E4"/>
<path d="M133.194 90.0103H137.108L139.01 97.6681C139.21 98.519 139.37 99.3398 139.48 100.101C139.591 100.861 139.721 101.592 139.821 102.273H139.911C140.021 101.592 140.131 100.861 140.231 100.101C140.361 99.3298 140.512 98.519 140.712 97.6681L142.674 90.0103H146.508V109.801H143.715V103.254C143.715 102.253 143.715 101.282 143.745 100.361C143.765 99.4399 143.775 98.5791 143.805 97.8083C143.835 97.0275 143.885 96.3368 143.915 95.7461C143.965 95.1555 143.985 94.675 144.015 94.3347H143.805L140.812 107.248H138.91L135.897 94.3347H135.676C135.706 94.6851 135.746 95.1555 135.786 95.7461C135.816 96.3368 135.856 97.0275 135.887 97.8083C135.917 98.569 135.947 99.4299 135.957 100.361C135.977 101.282 135.987 102.253 135.987 103.254V109.801H133.184V90.0103H133.194Z" fill="#BDD1E4"/>
<path d="M149.912 90.0101H152.916V107.438H157V109.8H149.912V90.0101Z" fill="#BDD1E4"/>
<path d="M321.019 135.383L223.893 135.645C219.595 134.516 215.203 137.083 214.075 141.374C214.015 141.576 208.59 162.244 203.176 189.308C195.875 225.808 192.052 256.032 191.826 279.126C191.72 289.526 183.302 297.988 173.057 297.988L294.793 297.275L321.007 135.383H321.019Z" fill="#F95C22"/>
<path d="M306.025 279.292C306.547 226.438 327.525 146.294 327.739 145.486C328.867 141.183 326.314 136.786 322.016 135.645C317.719 134.504 313.326 137.071 312.186 141.374C312.127 141.576 306.701 162.244 301.288 189.308C293.986 225.808 290.164 256.032 289.938 279.126C289.831 289.526 305.93 288.587 306.025 279.28V279.292Z" fill="#B63100"/>
<path d="M303.484 209.727C300.409 193.551 287.48 176.34 267.203 168.555C260.186 165.857 252.279 164.289 243.601 164.289C230.815 164.289 219.75 167.688 210.703 173.084C194.272 182.889 184.513 199.327 183.326 214.053L204.316 222.432V271.495L282.482 273.052L280.725 222.432L305.11 219.889C304.991 218.462 303.757 211.189 303.484 209.727Z" fill="#373737"/>
<path d="M258.122 165.81C256.092 165.323 254.916 165.121 252.411 164.776L251.105 151.155L236.574 150.621L236.028 164.598C233.048 164.895 231.433 165.228 229.059 165.81C228.999 166.535 229.059 167.165 229.083 167.914C229.439 176.852 236.23 183.781 244.243 183.377C252.257 182.985 258.466 175.402 258.11 166.464C258.11 166.321 258.134 165.953 258.134 165.798L258.122 165.81Z" fill="#FCCFB2"/>
<path d="M170.992 275.691C171.146 275.691 171.301 275.691 171.455 275.691C175.919 275.691 180.122 273.682 183.944 269.725C186.58 266.991 189.049 263.33 191.471 258.54C195.104 251.374 198.654 241.556 202.037 229.362C202.679 227.032 203.296 224.703 203.89 222.397L188.278 216.038C187.803 217.94 187.316 219.865 186.794 221.791C179.267 249.995 173.26 256.615 171.55 258.006C170.766 257.328 169.33 255.652 167.656 252.301C165.543 248.057 150.738 258.006 155.986 265.767C158.989 270.2 163.999 275.477 170.992 275.703V275.691Z" fill="#FCCFB2"/>
<path d="M189.18 117.127C189.441 123.225 194.582 127.967 200.661 127.705C206.739 127.444 211.464 122.286 211.203 116.188C210.942 110.091 205.801 105.349 199.723 105.61C193.644 105.872 188.919 111.03 189.18 117.127Z" fill="#EFC3AB"/>
<path d="M199.58 119.516C200.542 142.206 219.703 159.82 242.367 158.845C265.031 157.883 282.625 138.7 281.652 116.01L280.999 100.69C280.607 91.5381 281.082 78.6067 275.751 71.9984C267.845 62.2167 251.746 60.7786 238.224 61.361C215.56 62.3237 197.965 81.5068 198.939 104.196L199.592 119.516H199.58Z" fill="#FCCFB2"/>
<path d="M271.085 115.273C271.346 121.37 276.486 126.113 282.565 125.851C288.643 125.59 293.368 120.431 293.107 114.334C292.846 108.237 287.705 103.495 281.627 103.756C275.548 104.018 270.823 109.176 271.085 115.273Z" fill="#FCCFB2"/>
<path d="M278.196 110.067C278.196 110.067 279.43 109.259 280.392 108.308C280.392 108.308 285.663 95.6861 283.229 86.7245C282.339 82.7547 279.751 77.751 276.391 72.8423L266.074 82.101C270.289 88.0438 276.106 95.6267 278.208 110.067H278.196Z" fill="#373737"/>
<path d="M210.455 78.6779L202.37 75.5996C202.37 75.5996 194.582 86.6887 198.357 105.884L199.319 106.217C199.319 106.217 199.782 87.0096 210.467 78.6779H210.455Z" fill="#373737"/>
<path d="M276.107 72.462L265.73 81.6732C265.73 81.6732 225.294 85.738 206.75 78.2739C197.786 74.6608 195.388 72.6759 193.156 52.3043C205.551 70.9763 276.356 22.4243 276.107 72.462Z" fill="#373737"/>
<path d="M233.261 127.361C233.178 127.872 232.691 128.228 232.169 128.145C231.646 128.062 231.278 127.587 231.361 127.064C231.444 126.553 231.931 126.196 232.454 126.279C232.976 126.362 233.344 126.85 233.261 127.361Z" fill="#9B4B10"/>
<path d="M238.034 124.556C237.975 124.936 237.619 125.186 237.227 125.126C236.847 125.067 236.586 124.71 236.645 124.342C236.704 123.962 237.061 123.712 237.441 123.771C237.82 123.831 238.094 124.187 238.034 124.556Z" fill="#9B4B10"/>
<path d="M241.691 128.68C241.607 129.191 241.121 129.548 240.598 129.464C240.076 129.381 239.708 128.894 239.791 128.383C239.874 127.872 240.361 127.515 240.883 127.598C241.406 127.682 241.774 128.169 241.691 128.68Z" fill="#9B4B10"/>
<path d="M244.041 124.449C243.97 124.9 243.542 125.198 243.091 125.126C242.64 125.055 242.32 124.639 242.391 124.187C242.462 123.736 242.889 123.439 243.341 123.51C243.804 123.581 244.112 123.997 244.041 124.449Z" fill="#9B4B10"/>
<path d="M248.195 127.812C248.112 128.335 247.613 128.704 247.067 128.621C246.521 128.537 246.153 128.038 246.236 127.515C246.319 126.992 246.818 126.624 247.364 126.707C247.91 126.79 248.278 127.289 248.195 127.812Z" fill="#9B4B10"/>
<path d="M252.767 130.237C252.707 130.653 252.304 130.938 251.876 130.879C251.449 130.807 251.152 130.415 251.223 129.999C251.283 129.583 251.686 129.298 252.114 129.369C252.541 129.441 252.838 129.833 252.767 130.249V130.237Z" fill="#9B4B10"/>
<path d="M227.965 130.154C227.894 130.605 227.466 130.914 227.003 130.843C226.54 130.772 226.22 130.344 226.291 129.892C226.362 129.441 226.79 129.132 227.265 129.203C227.728 129.274 228.048 129.702 227.977 130.154H227.965Z" fill="#9B4B10"/>
<path d="M228.666 125.614C228.595 126.065 228.168 126.374 227.693 126.303C227.23 126.232 226.909 125.804 226.981 125.352C227.052 124.901 227.491 124.592 227.954 124.663C228.417 124.734 228.738 125.162 228.666 125.614Z" fill="#9B4B10"/>
<path d="M222.612 129.322C222.541 129.774 222.113 130.083 221.638 130.011C221.175 129.94 220.855 129.512 220.926 129.06C220.997 128.609 221.425 128.3 221.899 128.371C222.362 128.442 222.683 128.87 222.612 129.322Z" fill="#9B4B10"/>
<path d="M200.066 115.083C200.03 112.884 201.027 111.018 203.022 111.018L226.719 111.042C227.882 111.042 229.093 111.636 229.865 112.599C230.256 113.086 230.708 113.883 230.589 114.905C230.031 119.897 227.989 129.821 224.344 129.833L207.047 129.797C204.245 129.702 203.39 126.766 202.63 124.853C201.728 122.547 200.303 116.2 200.054 115.083H200.066ZM242.39 112.492C243.09 111.517 244.242 110.923 245.405 110.911L269.102 110.935C271.097 110.935 271.821 112.694 271.975 114.905C271.809 116.022 271.275 123.094 270.562 125.4C269.969 127.313 269.316 130.011 266.811 129.809L249.513 129.762C245.868 129.762 242.841 119.778 241.867 114.786C241.666 113.764 242.046 112.967 242.402 112.48L242.39 112.492ZM196.338 113.205V113.348L196.374 113.479C196.457 113.823 198.368 123.581 199.437 126.291C200.303 128.49 202.844 132.626 206.263 132.626L224.475 132.578C230.814 132.567 232.833 117.02 233.201 113.788C233.723 112.575 234.839 111.743 236.157 111.743C237.534 111.743 238.757 112.647 239.362 113.942C240.087 117.508 243.399 132.531 249.632 132.507L267.844 132.46C271.263 132.46 273.459 128.3 274.136 126.101C274.979 123.391 276.107 113.621 276.095 113.276V113.146V113.003C275.94 109.235 273.091 106.062 269.708 106.074L245.287 106.026H245.097L226.837 106.181L202.226 106.3C198.831 106.3 196.207 109.437 196.362 113.205H196.338Z" fill="black"/>
<path d="M249.881 137L222.172 135.883C222.172 135.883 226.149 144.571 233.023 145.831C242.366 147.542 249.395 139.163 249.881 137Z" fill="white"/>
<path d="M200.517 292.034L239.814 275.703L183.326 271.496L200.517 292.034Z" fill="#B5B5B5"/>
<path d="M193.002 263.639C208.305 263.556 223.347 263.425 233.51 263.235C238.817 263.14 250.38 259.372 268.117 235.364L278.185 222.813L297.785 220.638C294.283 226.83 288.751 236.006 281.912 245.276C265.03 268.179 248.86 279.946 233.83 280.231C225.092 280.398 213.339 278.544 200.351 278.627C169.828 278.817 164.45 263.794 193.002 263.639Z" fill="#FCCFB2"/>
<path d="M97.0876 289.609L200.517 292.033L181.178 211.248L77 213.53L97.0876 289.609Z" fill="#BDD1E4"/>
<path d="M134.994 237.776L132.513 248.045L123.633 249.555L131.48 255.961L131.682 265.22L139.019 261.155L148.018 265.814L144.706 255.64L150.072 248.283L140.681 246.976L134.994 237.776Z" fill="white"/>
<path d="M181.178 211.248H181.748L201.479 290.037L227.194 280.065L229.094 280.16L200.517 292.033L181.178 211.248Z" fill="#D8D8D8"/>
<path d="M262.917 122.607C262.917 123.831 261.919 124.829 260.697 124.829H250.57C249.347 124.829 248.35 123.831 248.35 122.607C248.35 121.382 249.347 120.384 250.57 120.384H260.697C261.919 120.384 262.917 121.382 262.917 122.607Z" fill="black"/>
<path d="M223.383 122.607C223.383 123.831 222.386 124.829 221.163 124.829H211.036C209.814 124.829 208.816 123.831 208.816 122.607C208.816 121.382 209.814 120.384 211.036 120.384H221.163C222.386 120.384 223.383 121.382 223.383 122.607Z" fill="black"/>
<path d="M65.6339 183.163C65.0718 183.163 64.4664 183.119 63.8322 183.033C63.1836 182.946 62.5349 182.745 61.9007 182.471C61.2521 182.168 60.6323 181.765 60.0413 181.231C59.4503 180.698 58.9314 179.992 58.4846 179.112C58.0233 178.248 57.663 177.167 57.4035 175.884C57.1297 174.601 57 173.073 57 171.301V158.703C57 156.916 57.1297 155.388 57.4035 154.12C57.6918 152.852 58.0522 151.771 58.5134 150.906C58.9747 150.041 59.508 149.349 60.0989 148.83C60.7043 148.312 61.3098 147.922 61.9584 147.663C62.5926 147.389 63.2268 147.202 63.8755 147.13C64.4953 147.043 65.0862 147 65.6339 147C67.0465 147 68.2429 147.187 69.1798 147.591C70.1167 147.995 70.895 148.528 71.4716 149.22C72.0337 149.897 72.4662 150.704 72.6968 151.627C72.9418 152.549 73.0571 153.515 73.0571 154.538C73.0571 155.302 73.0283 156.008 72.9418 156.657C72.8697 157.291 72.7544 158.012 72.5959 158.79H68.2284V156.988C68.2284 155.028 68.0122 153.572 67.5798 152.592C67.1618 151.627 66.5276 151.137 65.6916 151.137C65.1871 151.137 64.7403 151.237 64.3655 151.439C63.9907 151.627 63.6881 151.958 63.4286 152.434C63.1836 152.895 62.9962 153.5 62.8665 154.279C62.7368 155.043 62.6647 155.979 62.6647 157.118V173.347C62.6647 174.457 62.7223 175.379 62.8232 176.115C62.9241 176.85 63.097 177.441 63.3421 177.887C63.5871 178.334 63.8754 178.637 64.2646 178.839C64.6538 179.026 65.1006 179.127 65.6484 179.127C65.9943 179.127 66.3258 179.04 66.6429 178.882C66.96 178.709 67.2483 178.464 67.479 178.132C67.724 177.786 67.9113 177.354 68.0555 176.835C68.1996 176.316 68.2717 175.711 68.2717 174.99V171.517H73.2157V174.803C73.2157 177.657 72.5527 179.775 71.2554 181.13C69.9581 182.485 68.0843 183.177 65.6339 183.191" fill="#BDD1E4"/>
<path d="M81.0135 168.475H75.3633V164.397H81.0135V157.882H85.1503V164.397H90.8438V168.475H85.1503V175.192H81.0135V168.475Z" fill="#BDD1E4"/>
<path d="M98.3847 168.475H92.7344V164.397H98.3847V157.882H102.521V164.397H108.229V168.475H102.521V175.192H98.3847V168.475Z" fill="#BDD1E4"/>
<path d="M365.93 67.0885C366.766 67.0885 367.486 66.9587 368.063 66.7137C368.639 66.4687 369.101 66.094 369.447 65.5607C369.792 65.0418 370.023 64.3644 370.182 63.5284C370.34 62.6925 370.412 61.7124 370.412 60.5449V57.7632C370.412 56.8407 370.34 56.048 370.211 55.3706C370.081 54.6932 369.85 54.1599 369.49 53.7275C369.144 53.2807 368.697 52.9636 368.12 52.7474C367.544 52.5456 366.794 52.4447 365.93 52.4447H365.685V67.1029H365.93V67.0885ZM361 49H365.685C366.275 49 366.924 49.0288 367.63 49.0865C368.351 49.1297 369.057 49.2739 369.764 49.4612C370.47 49.663 371.147 49.9657 371.81 50.3836C372.473 50.7872 373.05 51.3493 373.569 52.0556C374.073 52.7618 374.477 53.641 374.78 54.7076C375.082 55.7742 375.241 57.0569 375.241 58.5847V59.6801C375.241 61.3232 375.097 62.7357 374.809 63.9176C374.535 65.0995 374.145 66.094 373.684 66.8867C373.209 67.6939 372.661 68.328 372.041 68.8181C371.421 69.2937 370.773 69.654 370.095 69.9134C369.418 70.1729 368.74 70.3315 368.077 70.4035C367.4 70.49 366.751 70.5332 366.146 70.5332H365.685V79.9594H361V49.0144V49Z" fill="#BDD1E4"/>
<path d="M378.801 49.0137H383.5V61.9711H389.063V49.0137H393.748V79.9443H389.063V65.6609H383.5V79.9443H378.801V49.0137Z" fill="#BDD1E4"/>
<path d="M403.996 67.0885C404.832 67.0885 405.553 66.9587 406.129 66.7137C406.706 66.4687 407.167 66.094 407.513 65.5607C407.859 65.0418 408.104 64.3644 408.248 63.5284C408.407 62.6925 408.479 61.7124 408.479 60.5449V57.7632C408.479 56.8407 408.407 56.048 408.291 55.3706C408.147 54.6932 407.917 54.1599 407.571 53.7275C407.225 53.2807 406.763 52.9636 406.187 52.7474C405.61 52.5456 404.861 52.4447 403.996 52.4447H403.751V67.1029H403.996V67.0885ZM399.066 49H403.751C404.342 49 404.991 49.0288 405.697 49.0865C406.418 49.1297 407.124 49.2739 407.83 49.4612C408.536 49.663 409.214 49.9657 409.877 50.3836C410.54 50.7872 411.116 51.3493 411.635 52.0556C412.14 52.7618 412.543 53.641 412.846 54.7076C413.149 55.7742 413.307 57.0569 413.307 58.5847V59.6801C413.307 61.3232 413.163 62.7357 412.875 63.9176C412.601 65.0995 412.212 66.094 411.751 66.8867C411.275 67.6939 410.727 68.328 410.107 68.8181C409.488 69.2937 408.839 69.654 408.162 69.9134C407.484 70.1585 406.821 70.3315 406.144 70.4035C405.466 70.49 404.818 70.5332 404.212 70.5332H403.751V79.9594H399.066V49.0144V49Z" fill="#BDD1E4"/>
<path d="M337 226.018L358.318 212.772V220.556L344.539 228.339V228.598L358.318 236.41V244.15L337 230.89V226.018Z" fill="#BDD1E4"/>
<path d="M407.225 230.875L385.906 244.15V236.41L399.672 228.598V228.339L385.906 220.556V212.772L407.225 226.004V230.875Z" fill="#BDD1E4"/>
<path d="M372.907 203L365.613 254.513H372.863L380.157 203H372.907Z" fill="#BDD1E4"/>
</g>
<defs>
<clipPath id="clip0_2594_562">
<rect width="509" height="280" fill="white"/>
</clipPath>
<clipPath id="clip1_2594_562">
<rect width="591.955" height="403.309" fill="white" transform="translate(491.889 -119.245) rotate(76.3327)"/>
</clipPath>
</defs>
</svg>
