<svg width="374" height="258" viewBox="0 0 374 258" fill="none" xmlns="http://www.w3.org/2000/svg">
<g clip-path="url(#clip0_728_4428)">
<g style="mix-blend-mode:luminosity" opacity="0.3" clip-path="url(#clip1_728_4428)">
<path d="M303.162 213.103C291.226 226.234 288.289 245.232 295.704 261.356C313.002 257.762 329.937 268.881 333.529 286.188C333.588 286.474 333.644 286.761 333.694 287.05C339.478 287.34 345.26 286.484 350.709 284.529C351.982 284.073 353.251 283.562 354.491 282.974C360.249 280.305 365.363 276.423 369.482 271.591C358.185 262.978 356.006 246.831 364.614 235.528C367.135 232.215 370.425 229.566 374.197 227.805C374.929 227.473 375.663 227.161 376.399 226.903L376.991 226.698C376.665 225.875 376.313 225.059 375.937 224.241C372.062 215.87 365.658 208.927 357.624 204.393C353.681 209.429 348.598 213.454 342.797 216.143C341.648 216.682 340.491 217.148 339.327 217.575C327.256 221.906 313.848 220.272 303.168 213.17" fill="#EA8E53"/>
<path d="M291.491 262.532C290.569 262.869 289.659 263.241 288.755 263.652L288.191 263.933C287.131 275.644 280.454 286.108 270.286 292.002C270.155 299.206 272.449 306.243 276.798 311.981C279.417 309.707 282.341 307.814 285.487 306.355C286.528 305.862 287.594 305.425 288.662 305.042C301.861 300.31 316.597 303.419 326.762 313.082C332.825 305.822 335.376 296.253 333.726 286.937C317.336 286.127 302.742 276.298 295.828 261.408L295.811 261.238C294.381 261.538 292.973 261.939 291.596 262.431" fill="#E6804E"/>
<path d="M295.724 261.338L295.738 261.509C302.656 276.4 317.246 286.231 333.64 287.039C330.525 269.64 313.9 258.06 296.508 261.178C296.22 261.231 295.932 261.284 295.646 261.343" fill="#DE4621"/>
<path d="M254.538 101.016C240.992 105.884 233.956 120.815 238.82 134.365C240.416 138.812 243.188 142.74 246.841 145.729C257.094 140.675 269.152 140.875 279.231 146.261C290.661 137.51 292.834 121.145 284.09 109.711C277.202 100.706 265.282 97.1857 254.611 101.009" fill="#FFCC54"/>
<path d="M376.991 226.688C382.98 241.875 380.124 259.127 369.561 271.572C376.473 276.83 385.572 278.241 393.752 275.325C394.49 275.057 395.222 274.755 395.954 274.424C397.556 273.679 399.074 272.773 400.491 271.717C397.891 265.588 400.636 258.503 406.682 255.727L407.727 255.292C408.666 254.954 409.644 254.733 410.637 254.635C412.594 240.57 402.782 227.582 388.725 225.624C384.83 225.082 380.861 225.443 377.127 226.676" fill="#E98B4A"/>
<path d="M376.419 226.892C375.678 227.148 374.949 227.462 374.217 227.794C361.345 233.803 355.781 249.114 361.785 261.99C363.546 265.764 366.193 269.053 369.504 271.576C380.068 259.134 382.927 241.881 376.934 226.692L376.342 226.898" fill="#DF4C1F"/>
<path d="M131.96 168.442C138.353 181.999 137.236 197.906 129.008 210.432C132.728 211.14 136.571 210.837 140.136 209.556L140.616 209.381C139.345 198.924 144.215 188.668 153.12 183.046C150.171 173.961 141.514 167.973 131.979 168.42" fill="#F0E257"/>
<path d="M208.48 173.104C201.184 175.712 194.894 180.544 190.492 186.924C189.966 187.695 189.462 188.473 188.988 189.265C197.213 199.739 196.667 214.622 187.694 224.462C190.482 230.146 194.681 235.015 199.891 238.61C201.178 239.52 202.523 240.347 203.915 241.088C206.524 241.608 209.028 242.564 211.32 243.917C213.978 244.612 216.707 245.008 219.454 245.098C223.058 237.429 229.25 231.278 236.941 227.726C237.964 227.255 238.998 226.833 240.045 226.462C244.645 224.816 249.527 224.124 254.403 224.428C256.25 220.688 257.449 216.658 257.949 212.518C238.555 209.959 224.908 192.153 227.466 172.748C227.526 172.307 227.592 171.863 227.667 171.425C221.259 170.281 214.662 170.834 208.534 173.032" fill="#FFCC54"/>
<path d="M222.111 15.2537C220.97 15.661 219.864 16.1556 218.798 16.7293C229.109 28.9881 228.309 47.1108 216.959 58.411C228.155 65.811 243.227 62.7249 250.622 51.5191C258.017 40.3166 254.933 25.2369 243.734 17.8377C237.338 13.6124 229.322 12.6517 222.111 15.2537Z" fill="#F2D856"/>
<path d="M321.022 201.221C319.75 201.677 318.481 202.188 317.241 202.776C311.913 205.248 307.136 208.761 303.185 213.105C313.865 220.207 327.272 221.838 339.344 217.51C340.504 217.084 341.681 216.617 342.814 216.078C348.615 213.392 353.695 209.365 357.638 204.329C346.47 198.002 333.103 196.846 321.019 201.167" fill="#EA8E53"/>
<path d="M246.841 145.729C236.683 150.75 229.534 160.327 227.609 171.501C246.993 175.005 260.277 193.033 257.892 212.597C270.307 214.223 282.656 209.165 290.37 199.3C289.843 198.369 289.345 197.403 288.877 196.403C283.001 183.762 284.018 168.99 291.573 157.277C289.154 153.8 286.127 150.788 282.642 148.38C281.525 147.606 280.362 146.895 279.165 146.253C270.179 153.12 257.799 153.413 248.5 146.976C247.934 146.584 247.382 146.168 246.849 145.734" fill="#EEA44E"/>
<path d="M250.529 144.166C249.28 144.617 248.054 145.137 246.862 145.728C247.394 146.162 247.945 146.574 248.513 146.969C257.811 153.403 270.191 153.111 279.176 146.243C270.358 141.531 259.957 140.775 250.548 144.161" fill="#EEA110"/>
<path d="M227.608 171.5C224.32 190.795 237.283 209.103 256.568 212.395C257.006 212.47 257.449 212.536 257.891 212.596C260.276 193.032 246.992 175.005 227.609 171.503" fill="#EEA110"/>
<path d="M291.553 157.292C284.017 169.017 283.024 183.787 288.915 196.417C289.37 197.407 289.867 198.369 290.407 199.311C290.827 198.764 291.235 198.21 291.629 197.64C300.03 185.499 300.021 169.415 291.609 157.285" fill="#EEA44E"/>
<path d="M191.222 241.952C190.537 242.194 189.863 242.47 189.203 242.778C184.522 244.942 180.678 248.587 178.27 253.153C185.66 258.072 187.666 268.054 182.753 275.447C182.047 276.507 181.215 277.482 180.282 278.348C186.493 286.609 197.35 289.871 207.082 286.4C207.759 286.163 208.433 285.887 209.101 285.574C213.423 283.572 217.034 280.305 219.456 276.204L219.316 275.91C215.484 267.675 214.906 258.296 217.691 249.65C215.937 247.364 213.781 245.419 211.322 243.915C208.806 243.229 206.365 242.279 204.048 241.076C199.8 240.179 195.389 240.477 191.301 241.939" fill="#EEA44E"/>
<path d="M203.971 241.084C206.312 242.288 208.776 243.236 211.318 243.916C209.066 242.575 206.609 241.614 204.044 241.077" fill="#EEA110"/>
<path d="M305.235 107.153C298.042 109.736 294.307 117.663 296.889 124.86C299.471 132.056 307.394 135.793 314.586 133.21C321.779 130.626 325.514 122.699 322.932 115.503C321.957 112.784 320.155 110.442 317.781 108.798C314.11 106.254 309.437 105.642 305.231 107.153" fill="#FFCC54"/>
<path d="M148.824 225.784C148.381 226.292 147.964 226.824 147.58 227.378C141.894 235.612 143.954 246.899 152.183 252.588C153.944 253.807 155.911 254.702 157.987 255.235C159.314 253.894 160.863 252.796 162.57 251.992C163.017 251.78 163.477 251.593 163.947 251.431C167.309 250.231 170.973 250.186 174.362 251.306C180.175 246.181 182.089 237.925 179.122 230.761C178.342 231.121 177.554 231.446 176.753 231.733C167.066 235.18 156.268 232.877 148.827 225.78" fill="#F0D16C"/>
<path d="M158.411 180.502C156.559 181.158 154.785 182.009 153.118 183.047C156.59 193.751 151.1 205.303 140.609 209.363C141.36 215.617 144.265 221.416 148.819 225.765C155.379 218.217 166.81 217.421 174.353 223.98C176.458 225.812 178.111 228.106 179.185 230.684C182.411 229.175 185.307 227.042 187.703 224.409C182.197 213.205 182.681 199.98 188.994 189.209C181.729 180.043 169.427 176.537 158.428 180.501" fill="#FFD354"/>
<path d="M153.119 183.047C144.218 188.663 139.349 198.909 140.612 209.362C151.099 205.3 156.591 193.751 153.119 183.047Z" fill="#F0DA00"/>
<path d="M188.984 189.266C182.668 200.035 182.183 213.259 187.693 224.465C196.663 214.626 197.211 199.739 188.984 189.266Z" fill="#F4BF00"/>
<path d="M156.324 220.645C153.426 221.688 150.847 223.457 148.828 225.786C156.278 232.905 167.11 235.207 176.811 231.733C177.609 231.447 178.398 231.125 179.18 230.76C175.477 221.831 165.42 217.379 156.328 220.644" fill="#EFC511"/>
<path d="M254.325 224.524C247.81 237.737 234.112 245.853 219.403 245.216C218.735 246.656 218.16 248.139 217.684 249.652C223.721 257.32 224.427 267.914 219.458 276.316C220.811 279.168 222.53 281.831 224.577 284.238C225.71 283.422 226.923 282.72 228.197 282.147C228.794 281.862 229.407 281.617 230.034 281.413C240.873 277.522 252.812 283.159 256.701 294.005C257.007 294.856 257.256 295.725 257.447 296.608C259.832 296.263 262.176 295.679 264.447 294.864C265.494 294.493 266.528 294.07 267.55 293.596C268.573 293.125 269.538 292.627 270.442 292.103C270.684 280.13 277.595 269.295 288.347 264.034C290.138 244.102 275.439 226.491 255.518 224.699C255.148 224.666 254.777 224.64 254.409 224.617" fill="#EEA44E"/>
<path d="M239.973 226.561C238.926 226.932 237.892 227.354 236.87 227.829C229.182 231.38 222.99 237.533 219.383 245.2C234.087 245.829 247.778 237.725 254.307 224.529C249.432 224.225 244.546 224.919 239.951 226.566" fill="#EEA110"/>
<path d="M217.685 249.652C214.874 258.332 215.457 267.757 219.321 276.025L219.46 276.319C224.425 267.915 223.719 257.324 217.683 249.656" fill="#E15B1D"/>
<path d="M323.357 80.8554C317.749 83.0708 314.998 89.4121 317.212 95.0237C319.327 100.383 325.238 103.178 330.719 101.407L330.832 101.396C329.752 97.6547 331.909 93.7438 335.649 92.6631C336.376 92.452 337.136 92.3594 337.891 92.3909C338.576 86.3986 334.275 80.9837 328.286 80.2985C326.622 80.109 324.938 80.3035 323.361 80.8683" fill="#EDD356"/>
<path d="M184.906 7.60861C168.913 13.338 160.59 30.9573 166.317 46.9591C172.043 62.961 189.649 71.2888 205.642 65.5593C209.892 64.0366 213.759 61.5958 216.959 58.4083L216.496 58.1042C205.466 50.4589 202.718 35.3178 210.356 24.2819C212.534 21.1345 215.429 18.5441 218.798 16.7266C210.501 6.90947 196.984 3.27928 184.886 7.61332" fill="#EFE47D"/>
<path d="M218.798 16.7265C206.992 23.1045 202.589 37.8533 208.964 49.6688C210.783 53.036 213.368 55.9298 216.516 58.1058L216.979 58.4067C228.329 47.1064 229.129 28.9837 218.818 16.725" fill="#EED41A"/>
<path d="M157.963 255.241C152.642 260.633 151.801 269.007 155.942 275.352L156.916 274.961C162.847 272.893 169.328 276.025 171.396 281.959C171.456 282.136 171.512 282.313 171.567 282.495C172.658 282.345 173.731 282.084 174.769 281.716C175.236 281.547 175.693 281.361 176.145 281.155C177.658 280.452 179.05 279.519 180.275 278.391C174.775 271.077 173.994 261.246 178.263 253.155C177.033 252.351 175.695 251.72 174.291 251.282C169.8 255.228 163.653 256.706 157.859 255.236" fill="#EEA44E"/>
<path d="M178.27 253.15C174.015 261.231 174.795 271.042 180.276 278.35C186.795 272.322 187.195 262.151 181.174 255.628C180.307 254.691 179.334 253.861 178.274 253.152" fill="#E15B1D"/>
<path d="M163.981 251.433C163.522 251.606 163.062 251.78 162.605 251.993C160.88 252.792 159.307 253.892 157.964 255.241C163.756 256.715 169.905 255.236 174.396 251.287C171.009 250.167 167.341 250.209 163.98 251.413" fill="#EAAC1B"/>
<path d="M337.888 92.395C337.415 96.477 334.693 99.9479 330.847 101.379C331.914 105.124 335.816 107.294 339.559 106.226C343.301 105.159 345.471 101.255 344.403 97.5101C343.567 94.5736 340.938 92.5105 337.888 92.395Z" fill="#EDD356"/>
<path d="M335.24 92.7998C331.748 94.056 329.825 97.8041 330.846 101.376C334.695 99.9437 337.417 96.4728 337.888 92.3949C336.988 92.3609 336.089 92.4976 335.241 92.803" fill="#E9CA00"/>
<path d="M125.808 169.652C114.794 173.61 109.073 185.748 113.029 196.768C115.565 203.832 121.639 209.027 129.008 210.429C137.249 197.9 138.373 181.981 131.979 168.417C129.872 168.516 127.793 168.923 125.81 169.631" fill="#F0DF12"/>
<path d="M352.98 93.9269C350.516 94.8064 349.232 97.5175 350.111 99.9824C350.99 102.447 353.7 103.732 356.163 102.853C358.627 101.973 359.911 99.262 359.032 96.7971C358.7 95.8665 358.085 95.063 357.275 94.4981C356.021 93.6244 354.422 93.4119 352.983 93.9261" fill="#EDD356"/>
<path d="M130.966 130.942C136.615 154.185 160.025 168.444 183.255 162.793C206.484 157.141 220.736 133.717 215.087 110.475C209.439 87.2328 186.028 72.9728 162.799 78.6247C139.569 84.2765 125.317 107.7 130.966 130.942Z" fill="#FFE97F"/>
</g>
<path d="M91.571 125.542L88.9082 118.315H91.2694L92.6228 122.974H92.7111L94.0646 118.315H96.3448L93.6821 125.549L96.3448 132.865H94.0719L92.6964 128.191H92.5493L91.1076 132.865H88.9082L91.571 125.542Z" fill="#BDD1E4"/>
<path d="M97.8669 118.323H100.743L102.141 123.953C102.288 124.578 102.405 125.182 102.486 125.741C102.567 126.3 102.663 126.838 102.736 127.338H102.803C102.883 126.838 102.964 126.3 103.038 125.741C103.134 125.174 103.244 124.578 103.391 123.953L104.833 118.323H107.65V132.872H105.598V128.059C105.598 127.323 105.598 126.609 105.62 125.932C105.635 125.255 105.642 124.622 105.664 124.056C105.686 123.482 105.723 122.974 105.745 122.54C105.782 122.105 105.796 121.752 105.818 121.502H105.664L103.465 130.996H102.067L99.8529 121.502H99.6911C99.7132 121.76 99.7426 122.105 99.772 122.54C99.7941 122.974 99.8235 123.482 99.8456 124.056C99.8677 124.615 99.8897 125.248 99.8971 125.932C99.9118 126.609 99.9191 127.323 99.9191 128.059V132.872H97.8596V118.323H97.8669Z" fill="#BDD1E4"/>
<path d="M110.153 118.323H112.359V131.135H115.36V132.872H110.153V118.323Z" fill="#BDD1E4"/>
<path d="M235.875 151.681L164.509 151.873C161.352 151.043 158.124 152.93 157.295 156.085C157.252 156.233 153.265 171.429 149.287 191.325C143.922 218.159 141.114 240.38 140.948 257.358C140.869 265.003 134.684 271.225 127.156 271.225L216.605 270.701L235.866 151.681H235.875Z" fill="#F95C22"/>
<path d="M224.858 257.48C225.241 218.622 240.656 159.702 240.813 159.108C241.641 155.944 239.766 152.711 236.608 151.873C233.45 151.034 230.222 152.921 229.385 156.084C229.341 156.233 225.355 171.428 221.377 191.324C216.012 218.159 213.203 240.379 213.037 257.357C212.959 265.003 224.788 264.313 224.858 257.471V257.48Z" fill="#B63100"/>
<path d="M222.992 206.336C220.732 194.444 211.233 181.791 196.333 176.068C191.178 174.085 185.368 172.931 178.991 172.931C169.596 172.931 161.466 175.43 154.819 179.397C142.746 186.606 135.575 198.691 134.703 209.517L150.126 215.677V251.748L207.56 252.892L206.269 215.677L224.187 213.807C224.1 212.759 223.192 207.411 222.992 206.336Z" fill="#373737"/>
<path d="M189.663 174.049C188.171 173.691 187.307 173.543 185.467 173.289L184.507 163.276L173.83 162.882L173.428 173.158C171.239 173.377 170.053 173.621 168.308 174.049C168.264 174.582 168.308 175.046 168.325 175.596C168.587 182.167 173.577 187.261 179.465 186.964C185.353 186.676 189.916 181.101 189.654 174.53C189.654 174.425 189.671 174.154 189.671 174.041L189.663 174.049Z" fill="#FCCFB2"/>
<path d="M125.641 254.832C125.754 254.832 125.868 254.832 125.981 254.832C129.261 254.832 132.349 253.356 135.158 250.446C137.095 248.436 138.909 245.745 140.689 242.224C143.358 236.955 145.966 229.737 148.452 220.772C148.924 219.059 149.377 217.347 149.813 215.651L138.342 210.977C137.993 212.375 137.636 213.79 137.252 215.206C131.721 235.941 127.307 240.808 126.051 241.83C125.475 241.332 124.42 240.1 123.19 237.636C121.637 234.517 110.759 241.83 114.615 247.536C116.822 250.795 120.503 254.675 125.641 254.841V254.832Z" fill="#FCCFB2"/>
<path d="M139.006 138.259C139.198 142.742 142.975 146.228 147.441 146.036C151.907 145.844 155.379 142.051 155.187 137.569C154.995 133.086 151.218 129.6 146.752 129.792C142.286 129.984 138.814 133.777 139.006 138.259Z" fill="#EFC3AB"/>
<path d="M146.646 140.015C147.352 156.696 161.432 169.645 178.085 168.929C194.737 168.221 207.665 154.118 206.95 137.437L206.47 126.174C206.182 119.446 206.531 109.939 202.615 105.081C196.805 97.8893 184.976 96.832 175.04 97.2602C158.387 97.9679 145.459 112.071 146.175 128.752L146.655 140.015H146.646Z" fill="#FCCFB2"/>
<path d="M199.185 136.896C199.377 141.378 203.154 144.865 207.621 144.672C212.087 144.48 215.559 140.688 215.367 136.205C215.175 131.723 211.398 128.236 206.932 128.428C202.465 128.621 198.993 132.413 199.185 136.896Z" fill="#FCCFB2"/>
<path d="M204.41 133.069C204.41 133.069 205.318 132.475 206.024 131.776C206.024 131.776 209.897 122.496 208.109 115.908C207.455 112.989 205.553 109.31 203.084 105.702L195.504 112.509C198.601 116.878 202.875 122.452 204.419 133.069H204.41Z" fill="#373737"/>
<path d="M154.636 109.991L148.696 107.728C148.696 107.728 142.973 115.881 145.747 129.993L146.454 130.237C146.454 130.237 146.794 116.117 154.645 109.991H154.636Z" fill="#373737"/>
<path d="M202.878 105.422L195.253 112.194C195.253 112.194 165.542 115.182 151.916 109.695C145.33 107.038 143.568 105.579 141.928 90.6023C151.035 104.33 203.061 68.6351 202.878 105.422Z" fill="#373737"/>
<path d="M171.395 145.783C171.334 146.158 170.976 146.42 170.592 146.359C170.208 146.298 169.938 145.949 169.999 145.564C170.06 145.188 170.418 144.926 170.801 144.987C171.185 145.049 171.456 145.407 171.395 145.783Z" fill="#9B4B10"/>
<path d="M174.902 143.72C174.858 144 174.596 144.183 174.308 144.14C174.029 144.096 173.837 143.834 173.881 143.563C173.925 143.283 174.186 143.1 174.465 143.144C174.745 143.187 174.945 143.449 174.902 143.72Z" fill="#9B4B10"/>
<path d="M177.588 146.752C177.527 147.128 177.169 147.39 176.785 147.329C176.402 147.268 176.131 146.91 176.192 146.534C176.253 146.158 176.611 145.896 176.995 145.957C177.379 146.018 177.649 146.377 177.588 146.752Z" fill="#9B4B10"/>
<path d="M179.316 143.642C179.263 143.974 178.949 144.192 178.618 144.14C178.286 144.088 178.051 143.782 178.103 143.45C178.155 143.118 178.469 142.899 178.801 142.952C179.141 143.004 179.368 143.31 179.316 143.642Z" fill="#9B4B10"/>
<path d="M182.366 146.114C182.305 146.499 181.938 146.77 181.537 146.708C181.136 146.647 180.866 146.28 180.927 145.896C180.988 145.511 181.354 145.24 181.755 145.302C182.157 145.363 182.427 145.73 182.366 146.114Z" fill="#9B4B10"/>
<path d="M185.728 147.897C185.684 148.203 185.388 148.412 185.073 148.369C184.759 148.316 184.541 148.028 184.594 147.722C184.637 147.416 184.934 147.207 185.248 147.259C185.562 147.311 185.78 147.6 185.728 147.906V147.897Z" fill="#9B4B10"/>
<path d="M167.503 147.835C167.451 148.168 167.137 148.395 166.796 148.342C166.456 148.29 166.221 147.975 166.273 147.643C166.325 147.311 166.639 147.084 166.988 147.136C167.328 147.189 167.564 147.503 167.512 147.835H167.503Z" fill="#9B4B10"/>
<path d="M168.017 144.498C167.965 144.83 167.651 145.057 167.302 145.005C166.962 144.952 166.726 144.638 166.779 144.306C166.831 143.974 167.154 143.747 167.494 143.799C167.834 143.851 168.07 144.166 168.017 144.498Z" fill="#9B4B10"/>
<path d="M163.568 147.224C163.516 147.556 163.202 147.783 162.853 147.731C162.513 147.679 162.277 147.364 162.33 147.032C162.382 146.7 162.696 146.473 163.045 146.525C163.385 146.578 163.621 146.892 163.568 147.224Z" fill="#9B4B10"/>
<path d="M147.003 136.756C146.977 135.139 147.709 133.768 149.175 133.768L166.587 133.785C167.442 133.785 168.331 134.222 168.898 134.93C169.186 135.288 169.518 135.873 169.43 136.625C169.02 140.295 167.52 147.591 164.842 147.6L152.132 147.574C150.073 147.504 149.445 145.345 148.887 143.939C148.224 142.243 147.177 137.577 146.994 136.756H147.003ZM178.101 134.851C178.616 134.135 179.462 133.698 180.317 133.689L197.729 133.706C199.194 133.706 199.727 135 199.84 136.625C199.718 137.446 199.325 142.645 198.802 144.341C198.366 145.747 197.886 147.731 196.045 147.582L183.335 147.547C180.657 147.547 178.433 140.207 177.718 136.538C177.569 135.786 177.848 135.201 178.11 134.842L178.101 134.851ZM144.264 135.375V135.48L144.29 135.576C144.351 135.83 145.755 143.004 146.54 144.996C147.177 146.612 149.044 149.653 151.556 149.653L164.938 149.618C169.596 149.61 171.079 138.18 171.35 135.804C171.733 134.912 172.553 134.301 173.522 134.301C174.534 134.301 175.432 134.965 175.877 135.917C176.409 138.539 178.843 149.583 183.423 149.566L196.804 149.531C199.317 149.531 200.93 146.473 201.428 144.856C202.047 142.864 202.876 135.681 202.867 135.428V135.332V135.227C202.753 132.457 200.66 130.124 198.174 130.133L180.23 130.098H180.09L166.674 130.211L148.59 130.299C146.096 130.299 144.168 132.605 144.281 135.375H144.264Z" fill="black"/>
<path d="M183.606 152.869L163.246 152.047C163.246 152.047 166.168 158.435 171.219 159.361C178.084 160.619 183.249 154.459 183.606 152.869Z" fill="white"/>
<path d="M147.334 266.847L176.209 254.841L134.703 251.748L147.334 266.847Z" fill="#B5B5B5"/>
<path d="M141.815 245.972C153.059 245.911 164.111 245.815 171.578 245.675C175.478 245.605 183.974 242.835 197.007 225.184L204.404 215.957L218.807 214.358C216.233 218.91 212.168 225.656 207.143 232.472C194.739 249.31 182.858 257.96 171.814 258.17C165.394 258.292 156.758 256.929 147.214 256.99C124.787 257.13 120.835 246.085 141.815 245.972Z" fill="#FCCFB2"/>
<path d="M71.3382 265.064L147.336 266.847L133.125 207.455L56.5783 209.133L71.3382 265.064Z" fill="#BDD1E4"/>
<path d="M99.19 226.958L97.3668 234.508L90.8418 235.617L96.6079 240.327L96.7562 247.134L102.147 244.146L108.759 247.571L106.326 240.091L110.269 234.682L103.368 233.721L99.19 226.958Z" fill="white"/>
<path d="M133.123 207.455H133.542L148.04 265.379L166.935 258.047L168.33 258.117L147.333 266.847L133.123 207.455Z" fill="#D8D8D8"/>
<path d="M193.184 142.287C193.184 143.187 192.451 143.921 191.553 143.921H184.112C183.213 143.921 182.48 143.187 182.48 142.287C182.48 141.387 183.213 140.653 184.112 140.653H191.553C192.451 140.653 193.184 141.387 193.184 142.287Z" fill="black"/>
<path d="M164.135 142.287C164.135 143.187 163.402 143.921 162.504 143.921H155.063C154.164 143.921 153.432 143.187 153.432 142.287C153.432 141.387 154.164 140.653 155.063 140.653H162.504C163.402 140.653 164.135 141.387 164.135 142.287Z" fill="black"/>
<path d="M48.2248 186.807C47.8118 186.807 47.367 186.775 46.901 186.711C46.4244 186.648 45.9478 186.5 45.4818 186.298C45.0052 186.076 44.5498 185.779 44.1155 185.387C43.6813 184.995 43.3 184.476 42.9717 183.829C42.6328 183.193 42.368 182.399 42.1774 181.456C41.9761 180.513 41.8809 179.389 41.8809 178.086V168.825C41.8809 167.511 41.9761 166.388 42.1774 165.455C42.3892 164.523 42.654 163.728 42.9929 163.092C43.3318 162.457 43.7237 161.948 44.1579 161.566C44.6027 161.185 45.0476 160.899 45.5242 160.708C45.9902 160.507 46.4562 160.369 46.9328 160.316C47.3882 160.252 47.8224 160.221 48.2248 160.221C49.2628 160.221 50.1418 160.358 50.8303 160.655C51.5187 160.952 52.0905 161.344 52.5142 161.853C52.9272 162.351 53.245 162.944 53.4145 163.622C53.5945 164.3 53.6792 165.01 53.6792 165.763C53.6792 166.324 53.658 166.843 53.5945 167.32C53.5415 167.786 53.4568 168.316 53.3403 168.888H50.1312V167.564C50.1312 166.123 49.9723 165.053 49.6546 164.332C49.3475 163.622 48.8815 163.262 48.2672 163.262C47.8965 163.262 47.5682 163.336 47.2928 163.484C47.0175 163.622 46.7951 163.866 46.6045 164.216C46.4244 164.555 46.2867 165 46.1914 165.572C46.0961 166.133 46.0431 166.822 46.0431 167.659V179.591C46.0431 180.407 46.0855 181.085 46.1596 181.625C46.2337 182.166 46.3608 182.6 46.5409 182.929C46.7209 183.257 46.9327 183.48 47.2187 183.628C47.5046 183.766 47.833 183.84 48.2354 183.84C48.4896 183.84 48.7332 183.776 48.9662 183.66C49.1992 183.533 49.4111 183.352 49.5805 183.109C49.7606 182.854 49.8982 182.536 50.0041 182.155C50.11 181.774 50.163 181.329 50.163 180.799V178.245H53.7957V180.661C53.7957 182.759 53.3085 184.317 52.3554 185.313C51.4022 186.309 50.0253 186.817 48.2248 186.828" fill="#BDD1E4"/>
<path d="M59.5247 176.009H55.373V173.01H59.5247V168.221H62.5643V173.01H66.7478V176.009H62.5643V180.947H59.5247V176.009Z" fill="#BDD1E4"/>
<path d="M72.2901 176.009H68.1384V173.01H72.2901V168.221H75.3297V173.01H79.5237V176.009H75.3297V180.947H72.2901V176.009Z" fill="#BDD1E4"/>
<path d="M268.876 101.471C269.49 101.471 270.02 101.376 270.443 101.196C270.867 101.016 271.206 100.74 271.46 100.348C271.714 99.9665 271.884 99.4685 272 98.8539C272.117 98.2393 272.17 97.5188 272.17 96.6605V94.6154C272.17 93.9372 272.117 93.3544 272.022 92.8564C271.926 92.3584 271.757 91.9663 271.492 91.6484C271.238 91.3199 270.909 91.0868 270.486 90.9279C270.062 90.7795 269.511 90.7053 268.876 90.7053H268.696V101.482H268.876V101.471ZM265.254 88.1729H268.696C269.13 88.1729 269.607 88.194 270.126 88.2364C270.655 88.2682 271.174 88.3742 271.693 88.5119C272.212 88.6603 272.71 88.8828 273.197 89.1901C273.684 89.4868 274.108 89.9 274.489 90.4193C274.86 90.9385 275.156 91.5848 275.379 92.369C275.601 93.1531 275.718 94.0962 275.718 95.2194V96.0247C275.718 97.2327 275.612 98.2711 275.4 99.14C275.199 100.009 274.913 100.74 274.574 101.323C274.224 101.916 273.822 102.382 273.367 102.743C272.911 103.092 272.435 103.357 271.937 103.548C271.439 103.739 270.941 103.855 270.454 103.908C269.956 103.972 269.48 104.004 269.035 104.004H268.696V110.934H265.254V88.1834V88.1729Z" fill="#BDD1E4"/>
<path d="M278.332 88.1826H281.785V97.7087H285.873V88.1826H289.315V110.922H285.873V100.421H281.785V110.922H278.332V88.1826Z" fill="#BDD1E4"/>
<path d="M296.847 101.471C297.461 101.471 297.991 101.376 298.414 101.196C298.838 101.016 299.177 100.74 299.431 100.348C299.685 99.9665 299.865 99.4685 299.971 98.8539C300.088 98.2393 300.141 97.5188 300.141 96.6605V94.6154C300.141 93.9372 300.088 93.3544 300.003 92.8564C299.897 92.3584 299.727 91.9663 299.473 91.6484C299.219 91.3199 298.88 91.0868 298.457 90.9279C298.033 90.7795 297.482 90.7053 296.847 90.7053H296.667V101.482H296.847V101.471ZM293.225 88.1729H296.667C297.101 88.1729 297.578 88.194 298.096 88.2364C298.626 88.2682 299.145 88.3742 299.664 88.5119C300.183 88.6603 300.681 88.8828 301.168 89.1901C301.655 89.4868 302.079 89.9 302.46 90.4193C302.831 90.9385 303.127 91.5848 303.35 92.369C303.572 93.1531 303.688 94.0962 303.688 95.2194V96.0247C303.688 97.2327 303.583 98.2711 303.371 99.14C303.17 100.009 302.884 100.74 302.545 101.323C302.195 101.916 301.793 102.382 301.337 102.743C300.882 103.092 300.405 103.357 299.908 103.548C299.41 103.728 298.923 103.855 298.425 103.908C297.927 103.972 297.45 104.004 297.006 104.004H296.667V110.934H293.225V88.1834V88.1729Z" fill="#BDD1E4"/>
<path d="M247.619 218.314L263.283 208.576V214.298L253.158 220.02V220.21L263.283 225.954V231.644L247.619 221.895V218.314Z" fill="#BDD1E4"/>
<path d="M299.219 221.885L283.555 231.644V225.954L293.669 220.21V220.02L283.555 214.298V208.576L299.219 218.303V221.885Z" fill="#BDD1E4"/>
<path d="M274.004 201.391L268.645 239.262H273.972L279.331 201.391H274.004Z" fill="#BDD1E4"/>
</g>
<defs>
<clipPath id="clip0_728_4428">
<rect width="374" height="258" fill="white"/>
</clipPath>
<clipPath id="clip1_728_4428">
<rect width="435.182" height="296.35" fill="white" transform="matrix(0.236161 0.971714 -0.971654 0.236408 361.426 -35.5176)"/>
</clipPath>
</defs>
</svg>
