<svg width="380" height="272" viewBox="0 0 380 272" fill="none" xmlns="http://www.w3.org/2000/svg">
<ellipse cx="193.877" cy="191.936" rx="185.924" ry="11.5785" fill="#FFEF99"/>
<path d="M353.27 0H39.3812C35.5506 0 32.4453 3.1045 32.4453 6.93409V185.002C32.4453 188.831 35.5506 191.936 39.3812 191.936H353.27C357.1 191.936 360.206 188.831 360.206 185.002V6.93409C360.206 3.1045 357.1 0 353.27 0Z" fill="#F4F6FA"/>
<path d="M360.206 6.93405C360.206 3.10531 357.099 0 353.27 0H39.3812C35.5515 0 32.4453 3.10531 32.4453 6.93405V22.1365H360.206V6.93405Z" fill="#F95C22"/>
<path d="M51.1792 13.3388C52.4335 13.3388 53.4503 12.3222 53.4503 11.0683C53.4503 9.81437 52.4335 8.79785 51.1792 8.79785C49.925 8.79785 48.9082 9.81437 48.9082 11.0683C48.9082 12.3222 49.925 13.3388 51.1792 13.3388Z" fill="white"/>
<path d="M65.2945 13.3388C66.5487 13.3388 67.5655 12.3222 67.5655 11.0683C67.5655 9.81437 66.5487 8.79785 65.2945 8.79785C64.0402 8.79785 63.0234 9.81437 63.0234 11.0683C63.0234 12.3222 64.0402 13.3388 65.2945 13.3388Z" fill="white"/>
<g clip-path="url(#clip0_4426_30285)">
<path d="M87.0001 118.452L87.3691 121.127L126.854 115.675L126.485 113L87.0001 118.452Z" fill="#1C4DA1"/>
<ellipse cx="-16.5728" cy="237.235" rx="43.0698" ry="6.21863" fill="#FFEF99"/>
<path d="M30.0449 50.5693L34.801 32.6591C34.9389 32.1395 35.2433 31.7382 35.7079 31.4783C36.1756 31.207 36.6635 31.1387 37.1832 31.2767C37.7029 31.4147 38.0927 31.716 38.3642 32.1837C38.6356 32.6514 38.7039 33.1392 38.5659 33.6589L33.8099 51.5691L30.0449 50.5693Z" fill="#D1D1D1"/>
<path d="M39.9344 51.5882L24.7246 47.5493L21.8882 58.2308L37.098 62.2697L39.9344 51.5882Z" fill="#ED7149"/>
<path d="M39.1076 121.608L39.2559 124.304L79.0554 122.111L78.9071 119.415L39.1076 121.608Z" fill="#D1D1D1"/>
<path d="M76.9591 124.481C76.4903 123.805 76.1617 123.062 75.9911 122.267C75.8116 121.465 75.8008 120.653 75.9428 119.85C76.0928 119.038 76.3814 118.286 76.8256 117.593C77.2698 116.9 77.8297 116.31 78.5063 115.841C79.1828 115.373 79.9263 115.044 80.7207 114.873C81.5231 114.694 82.3349 114.683 83.138 114.825C83.9501 114.975 84.7022 115.263 85.3951 115.707C86.0879 116.151 86.6772 116.711 87.1459 117.388C87.6147 118.064 87.9432 118.808 88.1139 119.602C88.2934 120.405 88.3042 121.216 88.1622 122.019C88.0122 122.832 87.7236 123.584 87.2794 124.277C86.8352 124.97 86.2753 125.559 85.5987 126.028C84.9222 126.496 84.1787 126.825 83.3843 126.996C82.5818 127.175 81.7701 127.186 80.9669 127.044C80.1638 126.903 79.4028 126.606 78.7099 126.162C78.017 125.718 77.4278 125.158 76.9591 124.481Z" fill="#ED7149"/>
<path d="M19.4342 174.089L15.3574 173.007L1.54629 225.017L5.62302 226.099L19.4342 174.089Z" fill="#D1D1D1"/>
<path d="M8.49863 207.035C9.43409 207.283 10.345 207.624 11.2199 208.054C12.0947 208.484 12.9134 208.986 13.6845 209.574C14.4556 210.162 15.1706 210.821 15.8064 211.547C16.4537 212.275 17.0103 213.065 17.5054 213.901C18.0004 214.737 18.3962 215.621 18.7074 216.545C19.0186 217.468 19.2397 218.404 19.3678 219.365C19.4958 220.327 19.5338 221.301 19.4648 222.259C19.4042 223.232 19.2513 224.18 18.9999 225.127C18.7484 226.074 18.4107 226.973 17.9806 227.848C17.5505 228.723 17.0488 229.541 16.4608 230.312C15.8728 231.083 15.2162 231.787 14.488 232.434C13.7598 233.081 12.9692 233.638 12.133 234.133C11.2853 234.625 10.4129 235.023 9.4896 235.334C8.56629 235.646 7.6298 235.867 6.66858 235.995C5.70736 236.123 4.73295 236.16 3.7746 236.091C2.81625 236.022 1.85319 235.878 0.906187 235.626C-0.0408173 235.375 -0.940189 235.037 -1.81503 234.607C-2.68988 234.177 -3.50861 233.675 -4.27972 233.087C-5.05082 232.499 -5.76582 231.84 -6.4016 231.115C-7.04893 230.386 -7.6055 229.596 -8.10055 228.76C-8.59253 227.912 -8.99141 227.04 -9.30259 226.116C-9.61377 225.193 -9.83491 224.257 -9.96294 223.296C-10.091 222.335 -10.129 221.36 -10.06 220.402C-9.99942 219.429 -9.8465 218.481 -9.59505 217.534C-9.34361 216.587 -9.0059 215.688 -8.57581 214.813C-8.14572 213.938 -7.64398 213.12 -7.05598 212.349C-6.46798 211.578 -5.80835 210.863 -5.0832 210.227C-4.35805 209.591 -3.56433 209.023 -2.7282 208.528C-1.88051 208.037 -1.00809 207.638 -0.0847823 207.327C0.838527 207.016 1.77502 206.794 2.73624 206.667C3.69747 206.539 4.67187 206.501 5.63022 206.57C6.58858 206.639 7.55163 206.783 8.49863 207.035Z" fill="#34495E"/>
<path d="M31.624 131.225C30.7792 130.02 30.1979 128.681 29.8819 127.243C29.5659 125.805 29.5367 124.351 29.7953 122.898C30.0539 121.446 30.5889 120.096 31.3835 118.851C32.1781 117.606 33.1783 116.56 34.4011 115.715C35.6238 114.869 36.9457 114.288 38.3837 113.972C39.8217 113.656 41.2755 113.627 42.7282 113.885C44.1808 114.143 45.5303 114.678 46.7755 115.473C48.0207 116.267 49.0657 117.267 49.9114 118.49C50.7562 119.696 51.3375 121.034 51.6535 122.472C51.9695 123.91 51.9987 125.364 51.7401 126.817C51.4815 128.27 50.9465 129.619 50.1519 130.865C49.3573 132.11 48.3482 133.147 47.1344 134.001C45.9285 134.846 44.5897 135.427 43.1517 135.743C41.7137 136.06 40.2599 136.089 38.8073 135.83C37.3546 135.572 36.0052 135.037 34.7599 134.243C33.5147 133.448 32.4697 132.448 31.624 131.225Z" fill="#ED7149"/>
<path d="M4.7719 178.231C5.37698 176.883 6.2116 175.696 7.28425 174.683C8.3569 173.669 9.58836 172.896 10.964 172.372C12.3397 171.847 13.778 171.598 15.2497 171.643C16.7214 171.688 18.1457 172.004 19.4934 172.609C20.841 173.214 22.0288 174.049 23.0421 175.121C24.0554 176.194 24.8287 177.425 25.3536 178.801C25.8785 180.177 26.1271 181.615 26.0825 183.086C26.0379 184.558 25.7215 185.982 25.1165 187.329C24.5114 188.677 23.6767 189.865 22.6041 190.878C21.5314 191.891 20.3 192.664 18.9243 193.189C17.5487 193.713 16.1104 193.962 14.6386 193.917C13.1669 193.873 11.7426 193.556 10.395 192.951C9.04736 192.346 7.85958 191.511 6.84627 190.439C5.83296 189.366 5.05963 188.135 4.53475 186.759C4.00988 185.384 3.76126 183.946 3.80586 182.474C3.85046 181.002 4.16375 179.59 4.7719 178.231Z" fill="#ED7149"/>
<path d="M6.79037 213.467C7.82977 213.743 8.78239 214.206 9.64517 214.867C10.4964 215.526 11.2008 216.319 11.7436 217.254C12.2865 218.19 12.6255 219.194 12.7752 220.26C12.9249 221.326 12.8544 222.383 12.5754 223.433C12.2963 224.484 11.8363 225.425 11.1745 226.288C10.5158 227.139 9.72298 227.843 8.7876 228.386C7.85223 228.929 6.84736 229.268 5.78148 229.417C4.7156 229.567 3.65872 229.496 2.60778 229.217C1.55684 228.938 0.615765 228.478 -0.247013 227.816C-1.09824 227.158 -1.8026 226.365 -2.34548 225.43C-2.88835 224.494 -3.22733 223.49 -3.37703 222.424C-3.52673 221.358 -3.45627 220.301 -3.17723 219.25C-2.89819 218.2 -2.43815 217.259 -1.77636 216.396C-1.11764 215.545 -0.324829 214.841 0.610547 214.298C1.54592 213.755 2.55079 213.416 3.61667 213.267C4.68255 213.117 5.73943 213.187 6.79037 213.467Z" fill="white"/>
<path d="M-9.74258 125.474L5.00688 69.9302C5.36258 68.5906 5.84532 67.2849 6.46052 66.039C7.07571 64.7931 7.7972 63.6125 8.645 62.5149C9.49587 61.4058 10.4323 60.3936 11.4773 59.4844C12.5254 58.5636 13.6414 57.7597 14.8399 57.0643C16.0383 56.3689 17.3046 55.7904 18.6211 55.3488C19.9407 54.8957 21.2842 54.5849 22.658 54.3934C24.0432 54.205 25.4148 54.1613 26.8019 54.2453C28.189 54.3293 29.5508 54.555 30.902 54.9138C32.2533 55.2726 33.5476 55.7523 34.7937 56.3675C36.0397 56.9827 37.2204 57.7042 38.3182 58.552C39.4159 59.3998 40.4399 60.3392 41.3492 61.3842C42.2702 62.4323 43.0742 63.5482 43.7813 64.7496C44.4768 65.948 45.0555 67.2142 45.5002 68.519C45.9534 69.8385 46.2643 71.1819 46.4559 72.5555C46.6444 73.9407 46.6882 75.3121 46.6043 76.6991C46.5203 78.086 46.2947 79.4477 45.936 80.7988L31.1865 136.342L-9.74258 125.474Z" fill="#FFE23B"/>
<path d="M40.0404 103.004L-0.888672 92.1357L-2.25016 97.2628L38.6789 108.131L40.0404 103.004Z" fill="#F5CF36"/>
<path d="M29.0614 62.5094C30.6551 62.9326 32.1114 63.6407 33.4156 64.6422C34.7313 65.6468 35.7948 66.8563 36.6261 68.2885C37.4574 69.7207 37.9801 71.2441 38.1997 72.8847C38.4193 74.5253 38.3148 76.1293 37.8916 77.7229C37.4684 79.3164 36.7603 80.7725 35.7588 82.0765C34.7542 83.3921 33.5446 84.4554 32.1123 85.2865C30.68 86.1176 29.1566 86.6402 27.5158 86.8597C25.875 87.0791 24.2709 86.9746 22.6771 86.5513C21.0834 86.1281 19.6271 85.42 18.3229 84.4185C17.0072 83.4139 15.9437 82.2044 15.1124 80.7722C14.2812 79.34 13.7584 77.8167 13.5388 76.1761C13.3193 74.5354 13.4238 72.9314 13.8469 71.3379C14.2701 69.7443 14.9782 68.2882 15.9797 66.9842C16.9843 65.6687 18.1939 64.6054 19.6262 63.7743C21.0585 62.9431 22.5819 62.4205 24.2227 62.2011C25.8635 61.9816 27.4677 62.0862 29.0614 62.5094Z" fill="#34495E"/>
<path d="M28.2768 65.465C29.4779 65.784 30.5714 66.3216 31.5574 67.0779C32.5435 67.8342 33.3503 68.7531 33.9811 69.823C34.6088 70.9045 34.9949 72.0577 35.1625 73.289C35.3301 74.5202 35.2544 75.7363 34.9355 76.9372C34.6166 78.1382 34.079 79.2316 33.3226 80.2175C32.5663 81.2034 31.6474 82.0101 30.5774 82.6408C29.4959 83.2683 28.3425 83.6543 27.1111 83.8218C25.8798 83.9893 24.6636 83.9136 23.4625 83.5946C22.2614 83.2757 21.1679 82.7381 20.1818 81.9818C19.1958 81.2254 18.3889 80.3066 17.7582 79.2367C17.1305 78.1552 16.7444 77.0019 16.5768 75.7707C16.4092 74.5395 16.4849 73.3234 16.8038 72.1224C17.1227 70.9215 17.6603 69.8281 18.4167 68.8422C19.173 67.8563 20.0919 67.0495 21.1619 66.4189C22.2434 65.7913 23.3968 65.4053 24.6281 65.2379C25.8595 65.0704 27.0757 65.1461 28.2768 65.465Z" fill="white"/>
<path d="M26.6721 71.4924C27.5152 71.7162 28.1515 72.2066 28.5841 72.9519C29.0167 73.6973 29.1238 74.5045 28.903 75.3359C28.6822 76.1673 28.1887 76.8151 27.4434 77.2476C26.6864 77.6771 25.8907 77.7872 25.0592 77.5663C24.2277 77.3455 23.5798 76.8521 23.1472 76.1068C22.7177 75.3499 22.6075 74.5542 22.8283 73.7228C23.0491 72.8914 23.5425 72.2436 24.2879 71.8111C25.0448 71.3816 25.8406 71.2715 26.6721 71.4924Z" fill="#34495E"/>
<path d="M48.2266 71.5175C49.3353 71.8119 50.3426 72.3019 51.257 73.0021C52.1714 73.7023 52.9127 74.5419 53.4895 75.5357C54.0663 76.5295 54.4277 77.5897 54.5821 78.7309C54.7365 79.8721 54.6622 80.9896 54.3679 82.0982C54.0735 83.2068 53.5835 84.2139 52.8833 85.1282C52.1831 86.0424 51.3433 86.7837 50.3495 87.3604C49.3557 87.9371 48.2954 88.2983 47.1541 88.4526C46.0128 88.607 44.8951 88.5327 43.7864 88.2383C42.6777 87.9439 41.6704 87.4539 40.7561 86.7537C39.8417 86.0535 39.1003 85.2138 38.5235 84.22C37.9467 83.2262 37.5853 82.1661 37.4309 81.0249C37.2765 79.8837 37.3508 78.7661 37.6452 77.6575C37.9395 76.549 38.4295 75.5418 39.1297 74.6275C39.8299 73.7133 40.6697 72.972 41.6635 72.3953C42.6573 71.8187 43.7176 71.4574 44.8589 71.3031C46.0002 71.1488 47.1179 71.223 48.2266 71.5175Z" fill="#34495E"/>
<path d="M47.6846 73.5734C48.5161 73.7942 49.2816 74.1705 49.9695 74.6993C50.6574 75.2281 51.2192 75.8594 51.6518 76.6048C52.0844 77.3501 52.3654 78.1541 52.4718 79.0105C52.5897 79.8701 52.5368 80.7214 52.316 81.5528C52.0952 82.3842 51.7189 83.1496 51.19 83.8374C50.6612 84.5252 50.0299 85.0869 49.2845 85.5194C48.5391 85.952 47.7351 86.2329 46.8785 86.3392C46.0189 86.4571 45.1676 86.4041 44.336 86.1833C43.5045 85.9625 42.739 85.5861 42.0511 85.0573C41.3632 84.5285 40.8014 83.8972 40.3688 83.1519C39.9362 82.4066 39.6552 81.6026 39.5488 80.7461C39.4309 79.8866 39.4839 79.0353 39.7046 78.2039C39.9254 77.3725 40.3018 76.6071 40.8306 75.9192C41.3594 75.2314 41.9907 74.6697 42.7361 74.2372C43.4815 73.8047 44.2855 73.5237 45.1421 73.4174C46.0017 73.2996 46.8531 73.3526 47.6846 73.5734Z" fill="white"/>
<path d="M46.584 77.7689C47.173 77.9253 47.6144 78.265 47.9197 78.7911C48.2251 79.3172 48.3011 79.869 48.1447 80.4579C47.9883 81.0468 47.6486 81.4882 47.1225 81.7935C46.5963 82.0988 46.0445 82.1748 45.4555 82.0184C44.8665 81.862 44.4251 81.5222 44.1198 80.9961C43.8144 80.47 43.7384 79.9183 43.8948 79.3293C44.0512 78.7404 44.3909 78.2991 44.917 77.9938C45.4432 77.6885 45.995 77.6125 46.584 77.7689Z" fill="#34495E"/>
<path d="M7.56449 60.7194C8.67317 61.0138 9.68047 61.5038 10.5949 62.204C11.5093 62.9042 12.2506 63.7438 12.8274 64.7376C13.4042 65.7314 13.7656 66.7916 13.92 67.9328C14.0744 69.074 14.0001 70.1915 13.7058 71.3001C13.4114 72.4087 12.9214 73.4158 12.2212 74.3301C11.521 75.2444 10.6812 75.9856 9.6874 76.5623C8.69356 77.139 7.6333 77.5002 6.492 77.6546C5.35069 77.8089 4.23301 77.7346 3.12432 77.4402C2.01563 77.1458 1.00833 76.6558 0.093941 75.9556C-0.820448 75.2554 -1.56181 74.4157 -2.13861 73.4219C-2.71542 72.4281 -3.07677 71.368 -3.23117 70.2268C-3.38556 69.0856 -3.31133 67.968 -3.01696 66.8594C-2.72258 65.7509 -2.23259 64.7437 -1.53238 63.8294C-0.832158 62.9152 0.0075605 62.1739 1.0014 61.5973C1.99523 61.0206 3.0555 60.6593 4.1968 60.505C5.33811 60.3507 6.4558 60.425 7.56449 60.7194Z" fill="#34495E"/>
<path d="M7.01856 62.7746C7.85008 62.9954 8.61556 63.3717 9.30348 63.9005C9.99139 64.4293 10.5532 65.0606 10.9858 65.8059C11.4184 66.5513 11.6994 67.3552 11.8058 68.2117C11.9237 69.0713 11.8707 69.9225 11.65 70.754C11.4292 71.5854 11.0528 72.3508 10.524 73.0386C9.99521 73.7264 9.36389 74.2881 8.61851 74.7206C7.87313 75.1531 7.0691 75.4341 6.21253 75.5404C5.3529 75.6583 4.50155 75.6053 3.67003 75.3844C2.83852 75.1636 2.07303 74.7873 1.38512 74.2585C0.697204 73.7297 0.135412 73.0984 -0.297192 72.3531C-0.729795 71.6077 -1.01083 70.8038 -1.1172 69.9473C-1.23512 69.0877 -1.18215 68.2365 -0.961372 67.405C-0.74059 66.5736 -0.364256 65.8082 0.164561 65.1204C0.693379 64.4326 1.3247 63.8709 2.07008 63.4384C2.81546 63.0059 3.6195 62.7249 4.47606 62.6186C5.33569 62.5007 6.18704 62.5537 7.01856 62.7746Z" fill="white"/>
<path d="M5.90624 66.9669C6.49523 67.1233 6.93663 67.463 7.242 67.9891C7.54736 68.5152 7.62339 69.067 7.467 69.6559C7.31061 70.2448 6.97088 70.6862 6.44473 70.9915C5.91858 71.2968 5.36679 71.3728 4.7778 71.2164C4.1888 71.06 3.7474 70.7202 3.44203 70.1941C3.13666 69.668 3.06064 69.1163 3.21703 68.5273C3.37342 67.9384 3.71315 67.4971 4.2393 67.1918C4.76545 66.8865 5.31725 66.8105 5.90624 66.9669Z" fill="#34495E"/>
<path d="M11.7404 127.123C13.6229 127.623 15.4447 128.305 17.1828 129.162C18.9325 130.022 20.5785 131.04 22.1322 132.219C23.686 133.398 25.1014 134.726 26.3845 136.179C27.6761 137.647 28.8038 139.22 29.7793 140.9C30.7548 142.581 31.558 144.352 32.1949 146.19C32.8288 148.039 33.2681 149.924 33.5241 151.846C33.7771 153.78 33.8446 155.714 33.7236 157.66C33.6025 159.605 33.2936 161.514 32.7938 163.396C32.2939 165.278 31.6124 167.1 30.7553 168.838C29.8951 170.587 28.877 172.233 27.6979 173.786C26.5189 175.34 25.1911 176.755 23.7378 178.038C22.2698 179.329 20.697 180.457 19.0162 181.432C17.3354 182.408 15.5644 183.21 13.7263 183.847C11.8766 184.481 9.9921 184.92 8.06965 185.176C6.13566 185.429 4.1984 185.508 2.25553 185.375C0.309587 185.254 -1.59884 184.945 -3.4813 184.445C-5.36376 183.945 -7.18561 183.264 -8.92375 182.407C-10.6734 181.546 -12.3194 180.528 -13.8731 179.349C-15.4269 178.17 -16.8423 176.842 -18.1254 175.389C-19.417 173.921 -20.5447 172.349 -21.5202 170.668C-22.4957 168.987 -23.2989 167.216 -23.9358 165.378C-24.5698 163.529 -25.009 161.644 -25.265 159.722C-25.518 157.788 -25.5855 155.854 -25.4645 153.909C-25.3434 151.963 -25.0345 150.055 -24.5347 148.172C-24.0348 146.29 -23.3533 144.469 -22.4962 142.731C-21.636 140.981 -20.6179 139.335 -19.4388 137.782C-18.2598 136.228 -16.932 134.813 -15.4787 133.53C-14.0107 132.239 -12.4379 131.111 -10.7571 130.136C-9.07635 129.161 -7.30536 128.358 -5.46722 127.721C-3.61754 127.087 -1.733 126.648 0.18944 126.392C2.12343 126.139 4.06069 126.06 6.00356 126.193C7.9495 126.314 9.85793 126.623 11.7404 127.123Z" fill="#FFE23B"/>
<path d="M-24.4186 148.216L-15.4432 114.416C-15.1059 113.146 -14.6477 111.932 -14.074 110.75C-13.5003 109.567 -12.8118 108.464 -12.017 107.427C-11.2223 106.389 -10.3358 105.425 -9.35232 104.562C-8.3688 103.698 -7.31128 102.928 -6.17436 102.278C-5.03437 101.616 -3.85268 101.077 -2.61469 100.652C-1.37669 100.227 -0.111618 99.9321 1.19515 99.76C2.49037 99.5847 3.80113 99.5372 5.10125 99.6228C6.41292 99.7116 7.69392 99.9157 8.96429 100.253L27.6041 105.203C28.8745 105.54 30.088 105.998 31.2709 106.572C32.4538 107.146 33.5567 107.834 34.5944 108.629C35.632 109.424 36.5959 110.31 37.4598 111.294C38.3237 112.277 39.0937 113.335 39.7438 114.471C40.4054 115.611 40.9447 116.793 41.3702 118.031C41.7956 119.269 42.0902 120.534 42.2625 121.84C42.4378 123.135 42.4854 124.446 42.3999 125.746C42.3112 127.058 42.1071 128.338 41.7698 129.609L32.7944 163.408L-24.4186 148.216Z" fill="#FFE23B"/>
<path d="M34.1616 157.826L-22.959 142.657L-23.7808 145.752L33.3398 160.92L34.1616 157.826Z" fill="#F5CF36"/>
<path d="M32.3853 116.992L-1.16406 108.083L-8.57252 135.982L24.9768 144.891L32.3853 116.992Z" fill="#F5CF36"/>
<path d="M29.4614 118.454L0.947266 110.882L-5.35115 134.6L23.1629 142.172L29.4614 118.454Z" fill="white"/>
<path d="M16.7151 117.714L2.12891 113.841L1.23965 117.19L15.8258 121.063L16.7151 117.714Z" fill="#D1D1D1"/>
<path d="M15.3752 122.761L0.789062 118.887L-0.100196 122.236L14.486 126.109L15.3752 122.761Z" fill="#D1D1D1"/>
<path d="M14.0374 127.795L-0.548828 123.922L-1.43809 127.271L13.1481 131.144L14.0374 127.795Z" fill="#D1D1D1"/>
<path d="M12.6975 132.842L-1.88867 128.968L-2.77793 132.317L11.8083 136.19L12.6975 132.842Z" fill="#D1D1D1"/>
<path d="M21.7261 119.045L18.377 118.156L17.4877 121.505L20.8369 122.394L21.7261 119.045Z" fill="#D1D1D1"/>
<path d="M26.9449 120.431L23.5957 119.541L22.7064 122.89L26.0556 123.779L26.9449 120.431Z" fill="#D1D1D1"/>
<path d="M20.3921 124.068L17.043 123.179L16.1537 126.528L19.5029 127.417L20.3921 124.068Z" fill="#D1D1D1"/>
<path d="M25.6109 125.454L22.2617 124.564L21.3725 127.913L24.7216 128.803L25.6109 125.454Z" fill="#D1D1D1"/>
<path d="M19.0621 129.08L15.7129 128.191L14.8236 131.539L18.1728 132.429L19.0621 129.08Z" fill="#D1D1D1"/>
<path d="M24.2789 130.466L20.9297 129.576L20.0404 132.925L23.3896 133.814L24.2789 130.466Z" fill="#D1D1D1"/>
<path d="M17.7281 134.103L14.3789 133.214L13.4896 136.562L16.8388 137.452L17.7281 134.103Z" fill="#D1D1D1"/>
<path d="M22.9449 135.488L19.5957 134.599L18.7064 137.948L22.0556 138.837L22.9449 135.488Z" fill="#D1D1D1"/>
<path opacity="0.15" d="M-10.9754 181.343C-8.73102 182.668 -6.2653 183.718 -3.6383 184.441L37.0438 31.2396C36.0638 31.0659 35.0985 31.6749 34.8378 32.6564L30.4805 49.0654L24.7638 47.5474L22.9577 54.3489C17.7459 54.9799 12.9465 57.5499 9.52709 61.4877C8.93177 61.169 8.28646 60.8987 7.60508 60.7178C2.98555 59.4911 -1.7498 62.2388 -2.97636 66.8578C-4.20293 71.4768 -1.48549 76.1419 3.07252 77.414L-2.19865 97.2642L-5.35148 96.427C-8.077 95.7032 -10.8685 97.3231 -11.5922 100.048L-12.6808 104.148C-12.6808 104.148 -12.7501 104.129 -12.7847 104.12C-18.7324 102.541 -24.8269 106.077 -26.4061 112.024C-26.8538 113.71 -26.8874 115.419 -26.5716 117.024L-48.3922 129.686C-49.1296 128.971 -50.0607 128.427 -51.1232 128.144C-54.4377 127.264 -57.8431 129.24 -58.7232 132.554C-59.6032 135.869 -57.6268 139.274 -54.3123 140.154C-50.9978 141.034 -47.5924 139.058 -46.7124 135.744C-46.3659 134.439 -46.4596 133.116 -46.9035 131.948L-25.6967 119.642C-24.3413 122.499 -21.7919 124.771 -18.489 125.648C-18.4543 125.657 -18.4197 125.666 -18.385 125.675L-22.8896 142.639L-22.9011 142.636L-23.6861 145.592C-23.9939 146.425 -24.2585 147.282 -24.4916 148.159C-25.9144 153.517 -25.7785 158.918 -24.3523 163.883C-26.9639 165.291 -29.0226 167.736 -29.8444 170.831C-31.2365 176.074 -28.6453 181.447 -23.9192 183.715L-27.5928 197.549C-34.7973 196.699 -41.7036 201.244 -43.6171 208.45C-45.7145 216.348 -41.0037 224.448 -33.1043 226.545C-25.2049 228.643 -17.0965 223.948 -14.999 216.049C-13.0856 208.843 -16.8389 201.468 -23.5045 198.635L-19.8309 184.801C-16.4347 185.048 -13.1719 183.701 -10.9254 181.294L-10.9754 181.343Z" fill="white"/>
</g>
<defs>
<clipPath id="clip0_4426_30285">
<rect width="178.114" height="219.571" fill="white" transform="translate(-27.2793 14) rotate(14.8715)"/>
</clipPath>
</defs>
</svg>
