<svg xmlns="http://www.w3.org/2000/svg" width="291.784" height="478" viewBox="0 0 291.784 478"><defs><style>.a{fill:#372c27;}.b{fill:#67c4cc;}.c{fill:#5880b6;}.d{fill:#cb7365;}.e{fill:#ede726;}.f{fill:#ee509c;}.g{fill:#f4ac89;}.h{fill:#fff;}.i{fill:#2828c3;}.j{fill:#dfdfdf;}.k{fill:#9a9ea0;}.l{fill:#303030;}.m{fill:#202842;}.n{fill:#555656;}.o{fill:#4c4c4c;}.p{fill:#373737;}</style></defs><g transform="translate(32 -995)"><g transform="translate(-32 995)"><g transform="translate(0 291.368)"><g transform="translate(15.803)"><path class="a" d="M360.315,829.736H119.506a9.684,9.684,0,0,0-9.684,9.684v56.742a9.685,9.685,0,0,0,9.684,9.686H360.315A9.685,9.685,0,0,0,370,896.162V839.42A9.685,9.685,0,0,0,360.315,829.736Zm-8.375,62.328H127.881V884.8H351.941Zm0-20.641H127.881V864.16H351.941Zm0-20.641H127.881v-7.263H351.941Z" transform="translate(-109.822 -829.736)"/></g><g transform="translate(0 91.591)"><rect class="a" width="291.784" height="14.835" rx="1.792"/><g transform="translate(15.642 11.61)"><rect class="a" width="15.158" height="72.886" rx="3.584"/><rect class="a" width="15.158" height="72.886" rx="3.584" transform="translate(245.344)"/></g></g><g transform="translate(41.442 76.111)"><rect class="a" width="9.675" height="18.705"/><rect class="a" width="9.675" height="18.705" transform="translate(199.225)"/></g></g><path class="b" d="M199.666,666.6a52.494,52.494,0,1,0,52.5-52.494,52.5,52.5,0,0,0-52.5,52.494" transform="translate(-62.464 -614.103)"/><path class="b" d="M216.255,694.876a10.79,10.79,0,1,0,10.79-10.792,10.79,10.79,0,0,0-10.79,10.792" transform="translate(-56.637 -589.524)"/><path class="b" d="M207.534,709.619a7.72,7.72,0,1,0,7.72-7.72,7.72,7.72,0,0,0-7.72,7.72" transform="translate(-59.7 -583.267)"/><path class="c" d="M241.1,647.359a7.346,7.346,0,1,0,0,14.692v-1.567a5.778,5.778,0,1,1,5.776-5.777h1.567a7.352,7.352,0,0,0-7.344-7.348" transform="translate(-50.49 -602.423)"/><path class="c" d="M250.351,642.58l-.757,1.375a14.121,14.121,0,1,1-19.456,18.4l-1.424.659a15.647,15.647,0,1,0,21.637-20.439" transform="translate(-52.261 -604.101)"/><path class="c" d="M227.88,641.663a22.908,22.908,0,1,0,37.429,4.156l-1.381.75a21.343,21.343,0,1,1-34.864-3.875l-1.184-1.031" transform="translate(-54.536 -604.423)"/><path class="c" d="M239.195,629.256v1.57a30.238,30.238,0,0,1,0,60.477v1.569a31.808,31.808,0,1,0,0-63.616" transform="translate(-48.58 -608.781)"/><path class="d" d="M248.374,652.795h-5.237a3.949,3.949,0,0,1-3.942,3.946v5.236a9.191,9.191,0,0,0,9.179-9.182" transform="translate(-48.58 -600.514)"/><path class="c" d="M243.733,639.8A17.576,17.576,0,0,0,227.9,664.768l1.669-.773,1.424-.662,1.658-.769a12.343,12.343,0,0,1,11.08-17.524,12.175,12.175,0,0,1,5.836,1.493l.882-1.6.757-1.376.884-1.612a17.422,17.422,0,0,0-8.359-2.14" transform="translate(-53.118 -605.076)"/><path class="d" d="M244.046,634.482a24.754,24.754,0,0,0-18.662,8.492l1.389,1.209,1.186,1.034,1.373,1.2a19.513,19.513,0,0,1,31.882,3.543l1.607-.867,1.381-.746,1.62-.877a24.741,24.741,0,0,0-21.776-12.985" transform="translate(-53.431 -606.945)"/><g transform="translate(88.516 148.442)"><path class="e" d="M439.692,661.207c-2.379-13.341-11.76-26.79-33.525-28.37v-.079c0-.006-.373-.017-.561-.022-.745-.021-1.474-.021-2.2-.011-.719-.01-1.61-.01-2.353.011-.19.005-.652.015-.652.022v.076c-24.326,1.682-32.653,13.145-34.565,28.179-2.152,16.914-2.145,82.2-2.034,89.485,2.21,11.342,7.442,12.692,14.49,19.708,6.984,6.953,15.833,11.1,25.423,11.1,9.356,0,17.992-3.952,24.893-10.6a53.4,53.4,0,0,0,14.261-25.378C443.013,736.194,442.94,679.416,439.692,661.207Z" transform="translate(-332.142 -628.538)"/><path class="f" d="M500.989,963.07c0-10.119-7.857-18.907-17.977-18.907h-35.3c-4.756-.64-8.177-3.135-8.177-8.226V932H380v15.161a15.28,15.28,0,0,0,15.129,14.926h34.045c.674,0-.576.983,16.119.983l-15.706,36.206c5.649,0,65.61-16.7,71.4-16.7Z" transform="translate(-337.982 -736.234)"/><path class="g" d="M542,1013.561v67.216h17.284V1011C553.492,1011,547.649,1013.561,542,1013.561Z" transform="translate(-396.278 -764.662)"/><path class="g" d="M497,1013.492v68.03h16.644v-68.314C508.1,1013.149,502.548,1012.806,497,1013.492Z" transform="translate(-380.085 -765.407)"/><path class="f" d="M471.542,982.47c0-10.119-7.809-18.907-17.927-18.907H424.481c-4.763-.64-7.992-3.135-7.992-8.226V951.4H380v15.161a15.28,15.28,0,0,0,15.129,14.926h58.485c.673,0,1.283.308,1.283.983l-1.239,18.078c5.548-.686,16.682-5.132,22.23-5.074L470.3,984.342Z" transform="translate(-337.982 -743.215)"/><g transform="translate(111.794 286.292)"><g transform="translate(30.087)"><rect class="h" width="44.17" height="6.402" transform="translate(0 36.864)"/><path class="f" d="M558.405,1080.191v-6.778a6.508,6.508,0,0,0-5.492,6.171l-13.073.08v16.186L536,1110.277h44.17v-3.008c-5.121-4.071-18.019-10.577-21.242-12.235Z" transform="translate(-536 -1073.413)"/><path class="h" d="M555.221,1095.133a3.647,3.647,0,1,1-3.648-3.647A3.648,3.648,0,0,1,555.221,1095.133Z" transform="translate(-540.292 -1079.917)"/></g><g transform="translate(0 0.119)"><rect class="h" width="26.886" height="6.402" transform="translate(0 36.745)"/><path class="f" d="M510.884,1079.707l-2.427.06a5.984,5.984,0,0,0-5.8-6.168,6.132,6.132,0,0,0-5.863,6.168l-2.558-.031v16.181l-4.91,14.427H516l-5.119-14.427Z" transform="translate(-489.119 -1073.599)"/></g></g><path class="g" d="M321.549,929.823c.063-.047,6.384-4.635,12.85-2.788,3.584,1.024,8.641,1.54,12.385-1.812,3.539-3.168,3.573-7.648,3.391-9.594l4-82.252-11.917-.547-4.028,82.88q-.251-.06-.552-.145c-12.272-3.507-22.867,4.4-23.312,4.736l7.218,9.5Z" transform="translate(-314.363 -700.548)"/><g transform="translate(23.986 93.067)"><path class="i" d="M369.864,816.513l-18.031-6.476c1.431-17.651,18.982-38.467,46.842-38.467s45.375,20.815,46.806,38.467L429.4,816.513v57.756H369.864Z" transform="translate(-351.833 -771.57)"/></g><g transform="translate(29.83 9.379)"><path class="g" d="M407.545,766.819a40.291,40.291,0,0,1,4.419-.8l1.009-10.527,11.24-.408.426,10.8a33.862,33.862,0,0,1,5.4.938,12.723,12.723,0,0,1-.022,1.622c-.275,6.912-5.525,12.264-11.726,11.957s-11-6.16-10.728-13.071C407.563,767.217,407.538,766.931,407.545,766.819Z" transform="translate(-377.724 -681.949)"/><path class="g" d="M441.522,685.123a32.647,32.647,0,0,1-32.1,33.179h0A32.647,32.647,0,0,1,376.239,686.2l-.2-12.173a32.646,32.646,0,0,1,32.1-33.18h0a32.646,32.646,0,0,1,33.179,32.105Z" transform="translate(-366.385 -640.839)"/><path class="g" d="M378.48,705.773a8.76,8.76,0,1,1-8.9-8.634A8.77,8.77,0,0,1,378.48,705.773Z" transform="translate(-360.961 -661.098)"/><g transform="translate(26.982 40.974)"><path d="M410.34,709.844A3.7,3.7,0,1,1,408,705.01,3.8,3.8,0,0,1,410.34,709.844Z" transform="translate(-403.11 -704.846)"/><path d="M458.087,710.666a3.7,3.7,0,1,1-2.34-4.836A3.8,3.8,0,0,1,458.087,710.666Z" transform="translate(-420.292 -705.141)"/><path class="h" d="M414.721,731.463l23.985.088s-3.763,7.347-9.757,8.175C420.8,740.852,415.051,733.348,414.721,731.463Z" transform="translate(-407.288 -714.424)"/></g></g><path class="e" d="M391.039,663.382c-3.189,7.737-10.1,26.344-12.184,46.728a2.74,2.74,0,0,1-3.154,2.428h0a2.739,2.739,0,0,1-2.31-2.537c-.463-7.514-1.753-32.6.549-48.054a2.753,2.753,0,0,1,2.717-2.359H388.5A2.744,2.744,0,0,1,391.039,663.382Z" transform="translate(-335.323 -638.207)"/><g transform="translate(33.851)"><path class="e" d="M367.911,652.643l73.111,15.223c.04-17.97-14.575-41.619-32.544-41.658l-8.624-.02a32.536,32.536,0,0,0-32.611,32.462Z" transform="translate(-367.243 -626.188)"/></g><g transform="translate(111.543 88.339)"><g transform="translate(19.28 5.667)"><path class="j" d="M519.053,773.037a.307.307,0,0,1,.081.013.266.266,0,0,1,.138.372.349.349,0,0,1-.305.214.216.216,0,0,1-.079-.013.268.268,0,0,1-.136-.374A.339.339,0,0,1,519.053,773.037Z" transform="translate(-518.725 -773.037)"/></g><g transform="translate(19.192 5.578)"><path class="k" d="M519.123,772.913a.347.347,0,0,1,.175.485.442.442,0,0,1-.392.278.372.372,0,0,1-.1-.016.342.342,0,0,1-.177-.483.448.448,0,0,1,.4-.279A.345.345,0,0,1,519.123,772.913Zm.1.459a.266.266,0,0,0-.138-.372.3.3,0,0,0-.081-.013.339.339,0,0,0-.3.213.268.268,0,0,0,.136.374.218.218,0,0,0,.079.013.349.349,0,0,0,.305-.214Z" transform="translate(-518.589 -772.898)"/></g><g transform="translate(16.299 4.35)"><path class="l" d="M515.134,771.013a.694.694,0,0,1,.354.971.892.892,0,0,1-.791.556.666.666,0,0,1-.2-.032.7.7,0,0,1-.353-.972.882.882,0,0,1,.787-.554A.684.684,0,0,1,515.134,771.013Zm-.065.832a.261.261,0,0,0-.132-.367.275.275,0,0,0-.079-.013.334.334,0,0,0-.3.212.25.25,0,0,0,.213.379.335.335,0,0,0,.3-.21Z" transform="translate(-514.069 -770.981)"/></g><g transform="translate(16.762 4.833)"><path class="m" d="M515.119,771.735a.279.279,0,0,1,.079.013.261.261,0,0,1,.132.368.335.335,0,0,1-.3.21.25.25,0,0,1-.213-.379A.334.334,0,0,1,515.119,771.735Z" transform="translate(-514.792 -771.735)"/></g><g transform="translate(15.91 3.944)"><path class="n" d="M515.08,770.4a1.055,1.055,0,0,1,.54,1.474,1.358,1.358,0,0,1-1.2.845.987.987,0,0,1-.307-.05,1.053,1.053,0,0,1-.541-1.475,1.36,1.36,0,0,1,1.2-.844A.951.951,0,0,1,515.08,770.4Zm.19,1.359a.694.694,0,0,0-.354-.97.682.682,0,0,0-.205-.032.882.882,0,0,0-.787.554.7.7,0,0,0,.353.972.668.668,0,0,0,.2.032.892.892,0,0,0,.791-.556Z" transform="translate(-513.462 -770.346)"/></g><g transform="translate(14.856 3.185)"><path class="j" d="M517.2,770.235a1.547,1.547,0,0,1,.792,2.166,1.99,1.99,0,0,1-1.762,1.237,1.407,1.407,0,0,1-.453-.074l-3.009-1a1.55,1.55,0,0,1-.793-2.166,1.983,1.983,0,0,1,1.762-1.239,1.5,1.5,0,0,1,.455.074Zm-2.171,1.209a1.055,1.055,0,0,0-.54-1.474.952.952,0,0,0-.308-.05,1.36,1.36,0,0,0-1.2.844,1.053,1.053,0,0,0,.541,1.475.986.986,0,0,0,.307.05,1.358,1.358,0,0,0,1.2-.845Zm1.833.609a.347.347,0,0,0-.176-.485.342.342,0,0,0-.1-.015.448.448,0,0,0-.4.279.342.342,0,0,0,.177.483.373.373,0,0,0,.1.016.442.442,0,0,0,.392-.278Zm-1.164-.385a.121.121,0,0,0-.06-.171.153.153,0,0,0-.036-.005.155.155,0,0,0-.138.1.12.12,0,0,0,.061.168.08.08,0,0,0,.038.007.155.155,0,0,0,.136-.1Z" transform="translate(-511.815 -769.161)"/></g><path class="o" d="M518,769.013c-.012-.009-.066-.043-.081-.052a1.25,1.25,0,0,0-.124-.068c-.012-.005-.022-.013-.034-.017-.03-.013-.06-.022-.09-.034l-13.985-4.595a1.194,1.194,0,0,0-.379-.061,1.467,1.467,0,0,0-.424.064,1.69,1.69,0,0,0-.259.1,1.86,1.86,0,0,0-.206.118c-.063.043-.124.088-.183.138a2.246,2.246,0,0,0-.335.359,2.283,2.283,0,0,0-.168.264c-.034.062-.065.127-.093.192l-12.871,30.333a1.579,1.579,0,0,0,.341,1.9l1.371,1.03a1.584,1.584,0,0,1-.339-1.9l12.87-30.332a1.851,1.851,0,0,1,.092-.192,2.1,2.1,0,0,1,.17-.264,1.878,1.878,0,0,1,.165-.2c.054-.055.111-.109.17-.161s.122-.1.184-.138a1.792,1.792,0,0,1,.465-.221,1.412,1.412,0,0,1,.424-.064,1.2,1.2,0,0,1,.378.062l13.985,4.594c.043.016.083.034.121.051a1.113,1.113,0,0,1,.132.073c.024.015.052.029.076.047Z" transform="translate(-488.608 -764.185)"/><path class="p" d="M519.819,770.449a1.47,1.47,0,0,1,.671,2.07l-12.872,30.334a1.928,1.928,0,0,1-1.668,1.237,1.166,1.166,0,0,1-.377-.062l-13.991-4.594a1.469,1.469,0,0,1-.666-2.07l12.87-30.332a1.93,1.93,0,0,1,1.669-1.239,1.2,1.2,0,0,1,.378.062Zm-9.408.739a1.547,1.547,0,0,0-.792-2.166l-3.007-1a1.5,1.5,0,0,0-.455-.074,1.983,1.983,0,0,0-1.762,1.239,1.55,1.55,0,0,0,.793,2.166l3.009,1a1.409,1.409,0,0,0,.453.074,1.99,1.99,0,0,0,1.762-1.237Z" transform="translate(-489.379 -764.764)"/></g><path class="g" d="M498.694,854.642c-.108,0-.216,0-.327,0-3.185,0-6.185-1.429-8.912-4.255a32.576,32.576,0,0,1-5.37-7.974,118.346,118.346,0,0,1-7.743-21.051l11.245-4.537c5.273,19.44,9.512,24.235,10.714,25.209a13.44,13.44,0,0,0,2.776-4.071,50.082,50.082,0,0,0,3.777-11.562c2.02-9.621,1.962-19.6-.143-26.129a8.612,8.612,0,0,0-3.514-.508,36.991,36.991,0,0,0-5.795.618c-.528.09-.944.159-1.315.2l-1.358-12.341c.108-.015.464-.074.75-.121a41.007,41.007,0,0,1,9.9-.7,17.169,17.169,0,0,1,6.715,1.792,11.692,11.692,0,0,1,5.745,6.722c2.476,7.386,3.041,17.174,1.6,27.562-1.359,9.76-4.287,18.529-8.032,24.057C507.261,850.725,503.681,854.481,498.694,854.642Z" transform="translate(-372.651 -684.182)"/></g></g></g></svg>