<svg xmlns="http://www.w3.org/2000/svg" width="384.6" height="395.5" viewBox="0 0 384.6 395.5"><defs><style>.a{fill:#5454b5;}.b{fill:#6666d1;}.c{fill:#f4f4f4;}.d{fill:#fff;}.e{fill:none;}.f{fill:#6db5b5;}.g{fill:#ff584d;}.h{fill:#e0403d;}.i{fill:#266ca5;}.j,.v{fill:#373737;}.k{fill:#9b6d5c;}.l{fill:#77564d;}.m{fill:#4f3934;}.n{fill:#2b72b6;}.o{fill:#80b3dd;}.p{fill:#f2c5ad;}.q{fill:#1f5f93;}.r{fill:#ee509c;}.s{fill:#d84c96;}.t{fill:#236296;}.u{fill:#fccfb2;}.v{opacity:0.1;}.w{fill:#ba6338;}.x{fill:#a55532;}.y{fill:#9b4b10;}</style></defs><g transform="translate(-896.623 -141)"><g transform="translate(896.622 141)"><g transform="translate(0 125.232)"><g transform="translate(46.904 207.387)"><path class="a" d="M284.636,859.216a22.65,22.65,0,1,0,0,45.3H588.413v-6.863l-81.231-11.962,81.231-19.613v-6.863Z" transform="translate(-261.985 -859.216)"/><g transform="translate(76.245)"><path class="b" d="M456.554,859.216a22.65,22.65,0,1,0,0,45.3H684.038v-6.863l-73.557-12.572,73.557-19v-6.863Z" transform="translate(-433.903 -859.216)"/></g><g transform="translate(27.684)"><path class="c" d="M343.293,881.866a22.676,22.676,0,0,1,22.649-22.65H347.057a22.65,22.65,0,0,0,0,45.3h18.885A22.676,22.676,0,0,1,343.293,881.866Z" transform="translate(-324.407 -859.216)"/></g><g transform="translate(84.072 6.863)"><path class="d" d="M467.337,874.691a15.787,15.787,0,0,0,0,31.575H693.906V874.691Z" transform="translate(-451.55 -874.691)"/></g><g transform="translate(84.072 18.435)"><path class="c" d="M451.55,905a15.714,15.714,0,0,0,2,7.694H693.906v-11.91H452.124A15.774,15.774,0,0,0,451.55,905Z" transform="translate(-451.55 -900.783)"/></g></g><g transform="translate(58.281 36.468)"><g transform="translate(0)"><path class="e" d="M482.162,525.32a9.416,9.416,0,1,0,0-18.833h-178.2V525.32Z" transform="translate(-296.724 -492.002)"/><path class="f" d="M473.075,521.629a23.9,23.9,0,0,0,0-47.8H287.637v7.242l13.587,16.659-13.587,16.658v7.242Zm0-33.317a9.416,9.416,0,1,1,0,18.833h-178.2V488.312Z" transform="translate(-287.637 -473.827)"/></g><g transform="translate(0 7.242)"><path class="d" d="M473.075,523.474a16.756,16.756,0,0,0,3.041-.282V490.439a16.723,16.723,0,0,0-3.041-.282H287.637v33.317Z" transform="translate(-287.637 -490.157)"/><path class="g" d="M726.238,507.17a16.661,16.661,0,0,0-13.617-16.377v32.754A16.66,16.66,0,0,0,726.238,507.17Z" transform="translate(-524.142 -490.511)"/></g><rect class="c" width="188.479" height="11.346" transform="translate(0 11.443)"/><rect class="c" width="188.479" height="4.493" transform="translate(0 28.824)"/></g><g transform="translate(136.661 84.27)"><path class="a" d="M10.886,0H237.051a10.887,10.887,0,0,1,10.887,10.887V26.771a10.887,10.887,0,0,1-10.887,10.887H10.887A10.887,10.887,0,0,1,0,26.771V10.886A10.886,10.886,0,0,1,10.886,0Z"/><path class="d" d="M507.163,615.571a6.771,6.771,0,1,1-6.77-6.77A6.771,6.771,0,0,1,507.163,615.571Z" transform="translate(-480.648 -596.742)"/><path class="d" d="M552.313,615.571a6.771,6.771,0,1,1-6.771-6.77A6.771,6.771,0,0,1,552.313,615.571Z" transform="translate(-505.774 -596.742)"/><path class="d" d="M597.464,615.571a6.771,6.771,0,1,1-6.771-6.77A6.771,6.771,0,0,1,597.464,615.571Z" transform="translate(-530.901 -596.742)"/></g><g transform="translate(0 169.729)"><path class="f" d="M10.886,0H303.576a10.886,10.886,0,0,1,10.886,10.886V26.772a10.886,10.886,0,0,1-10.886,10.886H10.887A10.887,10.887,0,0,1,0,26.771V10.886A10.886,10.886,0,0,1,10.886,0Z"/><rect class="d" width="12.553" height="37.658" transform="translate(26.987)"/></g><g transform="translate(76.346 121.928)"><path class="g" d="M352.272,666.522a23.9,23.9,0,0,0,0,47.8h215.98v-7.242l-49.658-12.622,49.658-20.7v-7.243Z" transform="translate(-328.371 -666.522)"/><g transform="translate(61.751)"><path class="h" d="M491.509,666.522a23.9,23.9,0,0,0,0,47.8H645.688v-7.242L626.3,693.817l19.386-20.052v-7.243Z" transform="translate(-467.607 -666.522)"/></g><g transform="translate(70.009 7.243)"><path class="d" d="M502.886,682.853a16.659,16.659,0,0,0,0,33.318H656.1V682.853Z" transform="translate(-486.227 -682.853)"/></g><g transform="translate(70.009 14.097)"><path class="c" d="M656.05,698.309H489.421a16.577,16.577,0,0,0-3.194,9.8H656.05Z" transform="translate(-486.227 -698.309)"/><path class="c" d="M656.482,728.041H487a16.652,16.652,0,0,0,6.17,9.828H656.482Z" transform="translate(-486.659 -714.855)"/></g><path class="h" d="M554.179,764.252l-8.3-6.759-8.6,6.759V728.041h16.9Z" transform="translate(-444.63 -700.758)"/></g><g transform="translate(87.712 0)"><path class="g" d="M372.506,391.6a18.508,18.508,0,1,0,0,37.016H565.244v-5.608l-21.282-9.774,21.282-16.026V391.6Z" transform="translate(-353.998 -391.598)"/><g transform="translate(62.302)"><path class="h" d="M512.984,391.6a18.508,18.508,0,1,0,0,37.016h130.4v-5.608l-15.011-10.273,15.011-15.527V391.6Z" transform="translate(-494.476 -391.598)"/></g><path class="d" d="M521.794,404.242a12.9,12.9,0,1,0,0,25.8H651.444v-25.8Z" transform="translate(-440.198 -398.634)"/><g transform="translate(68.696 12.585)"><path class="c" d="M651.4,419.975H510.335a12.837,12.837,0,0,0-1.441,5.922H651.4Z" transform="translate(-508.894 -419.975)"/><path class="c" d="M512.886,447.547h139.83v-2.9H511.181A12.887,12.887,0,0,0,512.886,447.547Z" transform="translate(-510.167 -433.707)"/></g><path class="a" d="M782.11,474.285l-8-4.828-7.544,4.828V440.631H782.11Z" transform="translate(-583.593 -418.885)"/></g></g><g transform="translate(39.356 183.958)"><path class="i" d="M272.708,754.2c0,3.206-2.049,5.8,1.158,5.8h24.893c3.206,0,1.484-2.6,1.484-5.8h0a5.8,5.8,0,0,0-5.8-5.805H278.513a5.8,5.8,0,0,0-5.8,5.805Z" transform="translate(-260.045 -648.884)"/><g transform="translate(2.375)"><g transform="translate(0 37.53)"><g transform="translate(0 5.408)"><path class="j" d="M290.092,643.862l8.176-3.319c-.733-9.045-9.735-19.711-24.01-19.711s-23.206,10.666-23.94,19.711l8.285,3.319v38.248h31.488Z" transform="translate(-250.319 -620.832)"/></g><g transform="translate(18.125)"><path class="k" d="M302.72,614.662a20.823,20.823,0,0,0-2.26-.393l-.52-5.423-5.76-.209-.22,5.568a17.6,17.6,0,0,0-2.763.449,6.523,6.523,0,0,0,.011.831c.141,3.542,2.831,6.284,6.009,6.127s5.639-3.157,5.5-6.7C302.712,614.855,302.724,614.72,302.72,614.662Z" transform="translate(-291.187 -608.637)"/></g></g><g transform="translate(0.873)"><path class="k" d="M334.691,563.546a4.489,4.489,0,1,1-5.17-3.7A4.494,4.494,0,0,1,334.691,563.546Z" transform="translate(-293.183 -543.923)"/><path class="k" d="M293.931,544.934a17.322,17.322,0,0,1-13.791,20.187h0a17.322,17.322,0,0,1-19.769-14.385L259.76,546c-1.651-9.547,4.368-18.558,13.588-20.152h0c9.221-1.594,17.915,4.873,19.566,14.42Z" transform="translate(-256.295 -524.897)"/><path class="k" d="M261.2,577.81a4.489,4.489,0,1,1-5.17-3.7A4.494,4.494,0,0,1,261.2,577.81Z" transform="translate(-252.288 -551.861)"/><path class="l" d="M281.008,587.447a17.322,17.322,0,0,1-19.769-14.385l-.137-.791c-.015-.115-.033-.229-.054-.342l2.663-.335s2.1,8.56,8.121,7.382c2.126-.415,4.445-3.729,8.136-4.419,3.864-.723,6.822,1.676,9.073,1.284,6.045-1.052,4.282-9.719,4.282-9.719l1.182-.4c.025.141.06.287.1.433l.191,1.107A17.322,17.322,0,0,1,281.008,587.447Z" transform="translate(-257.163 -547.223)"/><path class="m" d="M258.555,541.961c-.573-5.329,2.15-15.185,13.8-17.737,11.769-1.61,18.132,6.369,19.429,11.57.418,1.675,1.294,6.716,1.294,6.716l-1.181.4s-1.794-15.734-10.676-11.441a28.467,28.467,0,0,1-6.274,2.352,23.83,23.83,0,0,1-6.351.156c-9.816-.972-6.312,14.406-6.312,14.407l-2.668.336S258.74,543.678,258.555,541.961Z" transform="translate(-255.736 -524.014)"/><g transform="translate(13.235 21.544)"><path class="d" d="M304.107,590.725l-14.255,2.693s3.466,4.563,8.06,3.607A8,8,0,0,0,304.107,590.725Z" transform="translate(-286.428 -582.683)"/><path d="M317.013,575.381a1.9,1.9,0,1,0,.86-2.618A1.95,1.95,0,0,0,317.013,575.381Z" transform="translate(-301.431 -572.592)"/><path d="M282.332,581.353a1.9,1.9,0,1,0,.86-2.619A1.95,1.95,0,0,0,282.332,581.353Z" transform="translate(-282.131 -575.915)"/></g></g></g><g transform="translate(6.569 100.127)"><rect class="k" width="5.833" height="7.535" transform="translate(7.252 39.916) rotate(-7.705)"/><path class="n" d="M265.051,789.591l9.152-1.238-5.233-34.572a4.618,4.618,0,0,0-5.2-3.957h0a4.618,4.618,0,0,0-3.957,5.2Z" transform="translate(-259.776 -749.781)"/><rect class="o" width="9.863" height="3.699" transform="matrix(0.991, -0.134, 0.134, 0.991, 4.855, 38.462)"/><g transform="translate(6.487 43.533)"><rect class="d" width="10.685" height="2.671" transform="translate(0.082 10.664) rotate(-7.707)"/><path class="j" d="M276.089,851.129l.494-.067a2.667,2.667,0,0,1,2.152-3.1,2.56,2.56,0,0,1,2.9,2.414l.237-.032L285,857.18l-10.6,1.434Z" transform="translate(-274.403 -847.939)"/></g></g><g transform="translate(27.805 100.244)"><rect class="k" width="7.535" height="5.834" transform="matrix(0.167, -0.986, 0.986, 0.167, 4.09, 46.344)"/><path class="n" d="M315.531,788.27l9.107,1.541,6.515-34.377a4.618,4.618,0,0,0-3.783-5.324h0a4.619,4.619,0,0,0-5.324,3.783Z" transform="translate(-312.039 -750.045)"/><rect class="o" width="3.698" height="9.863" transform="translate(2.874 40.461) rotate(-80.394)"/><g transform="translate(0 43.419)"><rect class="d" width="2.671" height="10.685" transform="matrix(0.167, -0.986, 0.986, 0.167, 0, 11.559)"/><g transform="translate(0.365)"><path class="j" d="M312.316,850.214l.492.083a2.667,2.667,0,0,1,2.976-2.316,2.56,2.56,0,0,1,2.048,3.166l.235.041.956,7.455-10.544-1.785Z" transform="translate(-308.48 -847.947)"/></g></g></g><g transform="translate(0 63.368)"><path class="k" d="M315.016,711.824c.555-.511,13.635-12.586,17.57-18.516,2.435-3.67,2.545-9.548.337-17.97a84.441,84.441,0,0,0-2.729-8.441l-5.529,2.23a78.659,78.659,0,0,1,2.511,7.788c2.328,8.918,1.087,12.131.445,13.1-2.938,4.428-13.009,14.082-16.642,17.427Z" transform="translate(-281.701 -666.897)"/><path class="k" d="M264.448,711.662l4.037-4.383c-3.633-3.347-13.705-13-16.642-17.428-.645-.971-1.89-4.2.462-13.165a78.327,78.327,0,0,1,2.406-7.493l-5.533-2.219a84.238,84.238,0,0,0-2.638,8.2c-2.209,8.422-2.1,14.3.337,17.971C250.812,699.076,263.892,711.151,264.448,711.662Z" transform="translate(-244.964 -666.94)"/></g></g><g transform="translate(278.446 89.739)"><g transform="translate(54.324 146.929)"><rect class="p" width="7.535" height="6.45" transform="translate(3.694 7.534) rotate(-89.419)"/><rect class="d" width="2.79" height="19.66" transform="matrix(0.105, -0.994, 0.994, 0.105, 0, 16.17)"/><g transform="translate(0.218 4.535)"><path class="j" d="M918.378,653.107a2.667,2.667,0,0,0-2.853,2.467l-4.991-.532-3.489,6.833,19.627,2.136-8.434-8.2.282-2.676C918.473,653.123,918.427,653.113,918.378,653.107Z" transform="translate(-907.045 -653.09)"/></g></g><g transform="translate(68.829 102.956)"><rect class="p" width="7.535" height="6.45" transform="translate(2.75 7.535) rotate(-89.419)"/><rect class="d" width="19.66" height="2.79" transform="translate(0.081 14.03)"/><g transform="translate(0 4.055)"><path class="j" d="M949.613,552.859a2.668,2.668,0,0,0-2.579,2.752l-5.019-.005-2.753,7.161,19.741.067-9.246-7.275v-2.691C949.709,552.865,949.662,552.86,949.613,552.859Z" transform="translate(-939.262 -552.859)"/></g></g><g transform="translate(0)"><g transform="translate(20.816 70.453)"><path class="q" d="M853,557.757h26.806L872.614,548H853Z" transform="translate(-843.243 -513.597)"/><path class="q" d="M914.561,503.4l7.813-.016-.079-22.3c.061-6.7-2.522-9.846-5.993-10.506-4.646-.883-9.378,2.04-11.253,6.949-2.727,6.984-10.831,21.205-14.322,30.372l8.52,4.569c3.487-9.152,10.355-23.928,13.087-30.923,1.03-2.541,2.092-3.6,2.092-.518Z" transform="translate(-864.238 -470.427)"/><path class="n" d="M848.74,543v4.343c0,2.512,1.8,3.64,4.151,4.084h14.385a9.205,9.205,0,0,1,8.961,9.313V588.68H867.81V560.739c0-.333-.2-.443-.534-.443H838.4a7.52,7.52,0,0,1-7.4-7.413V543Z" transform="translate(-831 -510.814)"/><g transform="translate(49.672 31.299)"><rect class="o" width="8.87" height="3.991"/></g><g transform="translate(35.923 75.205)"><rect class="o" width="9.757" height="3.991"/></g></g><g transform="translate(0 54.333)"><path class="p" d="M787.613,525.922c.031-.023,3.152-2.288,6.344-1.377,1.769.505,4.266.76,6.115-.895a5.629,5.629,0,0,0,1.675-4.737L803.721,478l-5.884-.27-1.989,41.22c-.082-.02-.173-.043-.273-.071-6.06-1.732-11.291,2.171-11.51,2.338l3.564,4.69Z" transform="translate(-784.065 -458.373)"/><path class="p" d="M900.837,473.828c2.062,0,4.861-1.355,9.965-3.919,3.123-1.569,8.885-4.462,10.614-4.462.034,0,.065,0,.1,0,1.875.213,3.612,3.257,4.115,4.612l5.619-2.087c-.3-.8-3.062-7.8-9.064-8.482-3.037-.349-7.343,1.68-14.07,5.059-2.223,1.117-5.134,2.579-6.633,3.1-.662-.868-1.645-2.465-2.346-3.606-.969-1.574-1.97-3.2-2.967-4.525l-4.784,3.612c.825,1.093,1.751,2.6,2.646,4.052,2.385,3.878,3.824,6.218,6.137,6.59A4.22,4.22,0,0,0,900.837,473.828Z" transform="translate(-843.787 -448.2)"/><path class="j" d="M833.958,434.078a24.329,24.329,0,0,1,13.157,3.71,20.1,20.1,0,0,1,9.579,11.644l-8.707,5.248-.512,29.922H819.785V456.267l-8.937-3.2C811.555,444.354,820.2,434.078,833.958,434.078Z" transform="translate(-798.97 -434.078)"/></g><g transform="translate(14.7 12.45)"><path class="j" d="M817.649,364.055c.98-6.338,3.9-23.252,19.87-24.357v-.038s-.047-.008.042-.011c.351-.01.584-.01.923,0s.456-.005.806,0c.089,0,0,.007,0,.011v.035c15.966,1.084,18.888,18.017,19.869,24.36a84.662,84.662,0,0,1,.036,15.889c-27.118,3.4-41.677,0-41.677,0A88.669,88.669,0,0,1,817.649,364.055Z" transform="translate(-817.212 -339.642)"/><path class="p" d="M850.472,428.121a19.981,19.981,0,0,1,2.182-.4l.5-5.2,5.549-.2.21,5.335a16.748,16.748,0,0,1,2.664.463,6.445,6.445,0,0,1-.011.8c-.135,3.412-2.728,6.055-5.789,5.9s-5.433-3.042-5.3-6.454C850.481,428.318,850.469,428.177,850.472,428.121Z" transform="translate(-835.721 -385.656)"/><g transform="translate(1.959 1.639)"><path class="p" d="M830.2,366.036a15.386,15.386,0,0,0,15.13,15.637h0a15.385,15.385,0,0,0,15.637-15.131l.094-5.737a15.386,15.386,0,0,0-15.13-15.637h0a15.386,15.386,0,0,0-15.637,15.13Z" transform="translate(-826.396 -344.355)"/><path class="p" d="M889.618,387.533a4.128,4.128,0,1,0,4.195-4.07A4.133,4.133,0,0,0,889.618,387.533Z" transform="translate(-859.465 -365.668)"/><path class="j" d="M873.639,380.221l3.9.943s.6-15.878-.275-24.523c0,0-1.839-8.757-4-10.575-2.8-2.347-14.348-2.728-14.348-2.728S872.65,348.631,873.639,380.221Z" transform="translate(-842.379 -343.338)"/><path class="j" d="M839.37,350.632,821.86,379.4s-1.555-13.551,3.4-20.49C832.681,348.5,839.37,350.632,839.37,350.632Z" transform="translate(-821.628 -347.297)"/><g transform="translate(9.236 20.121)"><path d="M875.025,391.062a1.742,1.742,0,1,0,1.1-2.279A1.79,1.79,0,0,0,875.025,391.062Z" transform="translate(-860.529 -388.706)"/><path d="M842.545,391.621a1.742,1.742,0,1,0,1.1-2.279A1.791,1.791,0,0,0,842.545,391.621Z" transform="translate(-842.454 -389.017)"/><path class="d" d="M860.739,406.813l-11.3.042s1.774,3.462,4.6,3.853C857.872,411.238,860.584,407.7,860.739,406.813Z" transform="translate(-846.339 -398.783)"/></g></g></g><g transform="translate(16.85)"><path class="r" d="M864,341.285c1.031-4.891-3.909-18.75-4.066-23.912-.114-3.737-3.285-5.089-5.573-5.561-2.908-.6-6.749-.2-8.139,2.45-1.718,3.275-5.856,6.278-7.058,7.174-3.67,2.739-9.062,8.683-10.082,13.518Z" transform="translate(-825.969 -311.569)"/><path class="s" d="M822.064,360.869a.613.613,0,0,0,.578.625l38.91,6.24a.614.614,0,0,0,.734-.432L862,360.109a.613.613,0,0,0-.578-.626l-35.891-5.646a.614.614,0,0,0-.735.432Z" transform="translate(-822.059 -335.087)"/></g></g></g><g transform="translate(117.307)"><g transform="translate(0)"><path class="j" d="M482.68,146.783a31.289,31.289,0,1,1-24.393-36.919A31.29,31.29,0,0,1,482.68,146.783Z" transform="translate(-420.729 -109.225)"/><g transform="translate(15.494 17.999)"><g transform="translate(0 0.422)"><path class="k" d="M501,175.864a16.73,16.73,0,0,1-18.774,14.4h0a16.729,16.729,0,0,1-14.4-18.774l.817-6.186a16.728,16.728,0,0,1,18.773-14.4h0a16.727,16.727,0,0,1,14.4,18.774Z" transform="translate(-462.356 -150.76)"/><path class="k" d="M464.6,191.788a4.488,4.488,0,1,1-3.861-5.047A4.494,4.494,0,0,1,464.6,191.788Z" transform="translate(-455.665 -170.761)"/></g><g transform="translate(5.854)"><path class="j" d="M495.551,150.519l3.308,7.535a27.41,27.41,0,0,1,2.991-.505l-2.3-7.679A21.727,21.727,0,0,0,495.551,150.519Z" transform="translate(-483.716 -149.843)"/><path class="j" d="M484.617,154.115l4.249,6.68c.777-.339,2.4-.95,3.234-1.195l-3.982-7.268A20.666,20.666,0,0,0,484.617,154.115Z" transform="translate(-477.631 -151.213)"/><path class="j" d="M507.674,149.842l1.614,7.633c.725-.05,1.687-.02,2.424,0-.187-1.563-.8-4.792-1.1-7.315A18.522,18.522,0,0,0,507.674,149.842Z" transform="translate(-490.462 -149.827)"/><path class="j" d="M517.109,151.165l.477,7.041c.072,0,.143.006.215.012a17.127,17.127,0,0,1,1.793.228c.268-1.531,1.024-3.814,1.392-5.926A34.435,34.435,0,0,0,517.109,151.165Z" transform="translate(-495.713 -150.564)"/><path class="j" d="M475.675,161.4l5.643,4.384a19.143,19.143,0,0,1,2.1-1.221l-5.177-5.868A18.563,18.563,0,0,0,475.675,161.4Z" transform="translate(-472.655 -154.754)"/><path class="j" d="M469.172,178.321a15.283,15.283,0,0,0,1.261,9.765c.051-.489.122-.98.223-1.471a16.2,16.2,0,0,1,3.248-6.706l-4.717-1.655C469.182,178.276,469.176,178.3,469.172,178.321Z" transform="translate(-468.865 -165.639)"/><path class="j" d="M470.417,170.559l4.837,2.51a22.034,22.034,0,0,1,2.537-2.266l-5.706-3.843A17.282,17.282,0,0,0,470.417,170.559Z" transform="translate(-469.729 -159.354)"/><path class="j" d="M538.969,174.062a25.02,25.02,0,0,1,2.644,4.283,16.914,16.914,0,0,0-.779-6.562Z" transform="translate(-507.878 -162.038)"/><path class="j" d="M534.344,162.278l-2.265,3.863a13.724,13.724,0,0,1,2.563,2.082l1.907-2.748A15.24,15.24,0,0,0,534.344,162.278Z" transform="translate(-504.044 -156.748)"/><path class="j" d="M526.051,155.575l-1.959,5.446a15.125,15.125,0,0,1,2.9,1.036c.546-1.25,1.269-2.906,1.942-4.451A16.034,16.034,0,0,0,526.051,155.575Z" transform="translate(-499.599 -153.018)"/><path class="k" d="M514.54,150.607c-.084-.017-.168-.029-.252-.046.306,2.524.918,5.752,1.1,7.315.283.007.338-.026.623-.007l-.477-7.04C515.056,150.7,515.046,150.71,514.54,150.607Z" transform="translate(-494.143 -150.227)"/><path class="k" d="M524.1,154.218c-.367,2.112-1.124,4.395-1.392,5.926.311.057.32.049.613.122l1.959-5.446A11.429,11.429,0,0,0,524.1,154.218Z" transform="translate(-498.831 -152.263)"/><path class="k" d="M532.582,160.155c-.673,1.546-1.4,3.2-1.942,4.451a5.924,5.924,0,0,1,.638.353l2.265-3.863A9.546,9.546,0,0,0,532.582,160.155Z" transform="translate(-503.243 -155.566)"/><path class="k" d="M539.766,169.486l-1.907,2.748a6.034,6.034,0,0,1,.492.549l1.865-2.279A5.72,5.72,0,0,0,539.766,169.486Z" transform="translate(-507.26 -160.759)"/><path class="k" d="M504.57,149.836l2.3,7.679c.332-.038.355-.035.691-.059l-1.614-7.633A11.206,11.206,0,0,0,504.57,149.836Z" transform="translate(-488.735 -149.809)"/><path class="k" d="M492.51,151.776l3.982,7.268c.333-.1.335-.093.675-.175l-3.308-7.535A11.056,11.056,0,0,0,492.51,151.776Z" transform="translate(-482.024 -150.657)"/><path class="k" d="M481.461,157.391l5.177,5.868c.315-.157.31-.165.634-.307l-4.411-6.6A16.381,16.381,0,0,0,481.461,157.391Z" transform="translate(-475.875 -153.45)"/><path class="k" d="M474.178,165.756l5.706,3.843c.3-.23.285-.207.6-.419l-5.643-4.383A7,7,0,0,0,474.178,165.756Z" transform="translate(-471.822 -158.149)"/><path class="k" d="M469.59,176.485l4.717,1.655c.21-.26.261-.306.487-.554l-4.837-2.51C469.814,175.536,469.69,176.006,469.59,176.485Z" transform="translate(-469.269 -163.87)"/></g></g><g transform="translate(32.135 38.404)"><path class="d" d="M510.988,215.972l-14.334-2.232s1.74,5.459,6.389,6.095A7.993,7.993,0,0,0,510.988,215.972Z" transform="translate(-495.117 -205.792)"/><path d="M528.075,202.836a1.9,1.9,0,1,0,1.609-2.237A1.95,1.95,0,0,0,528.075,202.836Z" transform="translate(-512.592 -198.47)"/><path d="M493.207,198.071a1.9,1.9,0,1,0,1.61-2.237A1.949,1.949,0,0,0,493.207,198.071Z" transform="translate(-493.188 -195.818)"/></g></g><g transform="translate(2.42 54.738)"><g transform="translate(9.731 5.225)"><path class="d" d="M486.654,266.674l7.876-3.205c-.708-8.737-9.415-19.039-23.2-19.039s-22.491,10.3-23.2,19.039l7.927,3.205v40.985h30.6Z" transform="translate(-448.126 -244.429)"/></g><path class="k" d="M498.889,238.468a20.2,20.2,0,0,0-2.183-.38l-.5-5.238-5.564-.2-.212,5.378a16.963,16.963,0,0,0-2.669.434,6.394,6.394,0,0,0,.011.8c.137,3.421,2.735,6.07,5.8,5.918s5.447-3.049,5.31-6.47C498.881,238.654,498.892,238.523,498.889,238.468Z" transform="translate(-460.445 -232.648)"/><g transform="translate(0 56.124)"><path class="n" d="M428.842,360.6c-4.632,2.6-3.576,10.274,6.091,13.352,12.8,4.077,24.056,8.7,26.972,9.116s5.73-3.986,9.687-3.986,24.564-3.6,23.281-14.219c-.992-8.211-17.465-3.286-17.465-3.286l-16.817,4.2-11.9-3.473S435.9,356.644,428.842,360.6Z" transform="translate(-426.185 -359.197)"/><path class="t" d="M491.071,371.136s13.579-6.8,14.584-6.572c0,0-12.282,3.449-28.714.722Z" transform="translate(-454.43 -362.18)"/><g transform="translate(7.691 3.064)"><g transform="translate(10.341)"><g transform="translate(17.339 12.289)"><g transform="translate(3.426 1.963)"><g transform="translate(0 0)"><rect class="k" width="6.824" height="7.916" transform="translate(0 6.384) rotate(-69.31)"/></g></g><rect class="o" width="10.1" height="3.822" transform="matrix(0.353, -0.936, 0.936, 0.353, 0, 9.448)"/></g><g transform="translate(0)"><g transform="translate(0 14.253)"><g transform="translate(0 0)"><rect class="k" width="7.916" height="6.824" transform="translate(0 2.797) rotate(-20.69)"/></g></g><path class="n" d="M483.027,379.682l3.1,8.219,35.192-13.291a4.393,4.393,0,0,0,2.557-5.662h0a4.393,4.393,0,0,0-5.662-2.558Z" transform="translate(-475.85 -366.105)"/><rect class="o" width="3.822" height="10.1" transform="translate(6.098 13.044) rotate(-20.693)"/></g></g><g transform="translate(0 16.578)"><rect class="d" width="3.081" height="12.142" transform="translate(0 2.681) rotate(-24.694)"/><g transform="translate(2.8)"><path class="j" d="M461.31,409.758l-.3-.375a2.947,2.947,0,1,0-2.465-5.33l-.131-.567-8.575,1.393,5.07,11.034Z" transform="translate(-449.841 -403.485)"/></g></g><g transform="translate(35.132 16.578)"><rect class="d" width="12.143" height="3.081" transform="matrix(0.418, -0.909, 0.909, 0.418, 8.05, 12.426)"/><path class="j" d="M524.395,409.758l.3-.375a2.947,2.947,0,1,1,2.465-5.33l.13-.567,8.575,1.393-5.071,11.034Z" transform="translate(-522.742 -403.485)"/></g></g></g><path class="k" d="M513.609,329.377l-3-5.192c.044-.026,4.5-2.607,9.071-5.749,7.917-5.439,9.107-7.67,9.252-8.013.1-2.211-3.008-10.689-7.034-19.215l5.568-2.246c.67,1.441,2.153,4.687,3.623,8.3,3.713,9.126,3.952,12.247,3.808,13.8-.2,2.172-1.706,5.294-11.343,11.983C518.613,326.478,513.811,329.26,513.609,329.377Z" transform="translate(-473.167 -263.987)"/><path class="k" d="M458.277,328.981c-.556-.317-13.692-7.825-19.5-13.582-2.769-2.745-2.718-8.2.16-17.156,1.361-4.235,3-8.132,3.817-10.008l5.573,2.225c-.718,1.633-2.287,5.336-3.583,9.314-2.961,9.088-1.8,11.269-1.733,11.379,5.258,5.2,18.1,12.544,18.233,12.617Z" transform="translate(-432.058 -263.582)"/></g></g><g transform="translate(222.931 215.975)"><g transform="translate(3.153 102.8)"><rect class="u" width="5.322" height="6.652" transform="translate(8.87 62.533)"/><rect class="u" width="4.435" height="6.652" transform="translate(27.053 62.533)"/><g transform="translate(0 66.361)"><rect class="d" width="16.409" height="2.217" transform="translate(0 8.147)"/><path class="j" d="M673.983,979.95v-2.319a2.5,2.5,0,0,1,2.351,2.229l3.727-.079,2.093,6H666v-1.169Z" transform="translate(-666 -977.631)"/></g><g transform="translate(24.836 66.423)"><rect class="d" width="8.87" height="2.217" transform="translate(0 8.084)"/><g transform="translate(0.035)"><path class="j" d="M728.769,980.091H728.5a2.133,2.133,0,1,0-4.251,0H723.9l-1.825,5.766H731Z" transform="translate(-722.078 -977.772)"/></g></g><path class="n" d="M712.5,828v9.5a9.269,9.269,0,0,1-3.212,4.512l-.237,48.52h-6.908l.106-47.98-10.614-.025-.039,48.005H685V828Z" transform="translate(-676.573 -828)"/><rect class="o" width="8.426" height="2.661" transform="translate(7.539 59.872)"/><rect class="o" width="7.983" height="2.661" transform="translate(25.279 59.872)"/></g><g transform="translate(0 42.62)"><path class="u" d="M760.128,792.842l-6.054-.587a227.986,227.986,0,0,0,.94-23.749c-.252-9.2-3.3-24.471-3.328-24.624l5.964-1.2c.129.647,3.177,15.933,3.444,25.654A229.878,229.878,0,0,1,760.128,792.842Z" transform="translate(-710.531 -720.342)"/><path class="u" d="M659.906,792.842l6.054-.587a227.986,227.986,0,0,1-.94-23.749c.252-9.2,3.3-24.471,3.328-24.624l-5.963-1.2c-.129.647-3.178,15.933-3.444,25.654A229.742,229.742,0,0,0,659.906,792.842Z" transform="translate(-658.89 -720.342)"/><path class="j" d="M670.843,727.061l-8.094-3.274c.723-8.925,9.591-19.448,23.677-19.448s22.683,10.523,23.406,19.448l-8.387,3.274v39.661h-30.6Z" transform="translate(-661.038 -699.003)"/><path class="u" d="M703.379,698.251a20.61,20.61,0,0,1,2.23-.388l.513-5.35,5.683-.207.216,5.494a17.329,17.329,0,0,1,2.727.442,6.492,6.492,0,0,1-.011.82c-.139,3.495-2.794,6.2-5.929,6.045s-5.563-3.115-5.424-6.609C703.387,698.442,703.376,698.307,703.379,698.251Z" transform="translate(-683.648 -692.306)"/><path class="v" d="M715.054,696.18s-3.783.716-6.013.168l.151-1.511h5.862Z" transform="translate(-686.799 -693.714)"/></g><g transform="translate(4.636)"><path class="u" d="M669.347,652.336a4.451,4.451,0,1,0,4.256-4.647A4.456,4.456,0,0,0,669.347,652.336Z" transform="translate(-669.343 -624.854)"/><path class="u" d="M678.469,630.855a16.59,16.59,0,0,0,17.281,15.869h0a16.59,16.59,0,0,0,15.868-17.281l-.264-6.181c-.157-3.691.036-8.907-2.121-11.575-3.194-3.948-9.7-4.525-15.159-4.293h0a16.588,16.588,0,0,0-15.868,17.28Z" transform="translate(-674.266 -602.407)"/><path class="u" d="M743.929,650.652a4.451,4.451,0,1,0,4.257-4.646A4.457,4.457,0,0,0,743.929,650.652Z" transform="translate(-710.848 -623.918)"/><path class="w" d="M744.263,632.914a6.518,6.518,0,0,0,.886-.711s2.131-5.094,1.145-8.707a17.736,17.736,0,0,0-2.764-5.6l-4.165,3.737A23.192,23.192,0,0,1,744.263,632.914Z" transform="translate(-708.31 -608.277)"/><path class="w" d="M682.069,621.646l-3.265-1.24s-3.147,4.475-1.622,12.218l.387.133S677.758,625.008,682.069,621.646Z" transform="translate(-673.473 -609.673)"/><path class="x" d="M706.467,605.669l-4.191,3.714s-16.334,1.639-23.822-1.373c-3.619-1.455-4.588-2.259-5.49-10.475C677.968,605.068,706.565,585.479,706.467,605.669Z" transform="translate(-671.358 -596.206)"/><g transform="translate(13.509 28.913)"><path class="y" d="M710.062,664.361a.389.389,0,1,1-.326-.435A.384.384,0,0,1,710.062,664.361Z" transform="translate(-705.082 -662.803)"/><path class="y" d="M714.667,661.954a.285.285,0,1,1-.238-.318A.281.281,0,0,1,714.667,661.954Z" transform="translate(-707.76 -661.53)"/><path class="y" d="M717.74,665.558a.389.389,0,1,1-.326-.435A.384.384,0,0,1,717.74,665.558Z" transform="translate(-709.355 -663.469)"/><path class="y" d="M720.008,661.782a.338.338,0,1,1-.283-.378A.334.334,0,0,1,720.008,661.782Z" transform="translate(-710.674 -661.4)"/><path class="y" d="M723.638,664.758a.4.4,0,1,1-.335-.447A.4.4,0,0,1,723.638,664.758Z" transform="translate(-712.625 -663.017)"/><path class="y" d="M728.009,667.073a.316.316,0,1,1-.265-.353A.312.312,0,0,1,728.009,667.073Z" transform="translate(-715.15 -664.358)"/><path class="y" d="M705.354,666.957a.343.343,0,1,1-.287-.385A.339.339,0,0,1,705.354,666.957Z" transform="translate(-702.512 -664.276)"/><path class="y" d="M706,662.83a.343.343,0,1,1-.287-.385A.338.338,0,0,1,706,662.83Z" transform="translate(-702.87 -661.98)"/><path class="y" d="M700.486,666.2a.344.344,0,1,1-.288-.384A.34.34,0,0,1,700.486,666.2Z" transform="translate(-699.803 -663.854)"/></g><g transform="translate(3.438 22.014)"><path d="M677.1,648.635l0,.056.012.055c.032.139.805,4.077,1.236,5.168.349.885,1.374,2.557,2.758,2.553l7.355-.019c2.559-.007,3.373-6.277,3.523-7.58a1.311,1.311,0,0,1,1.193-.826,1.461,1.461,0,0,1,1.3.889c.291,1.44,1.632,7.5,4.148,7.492l7.355-.018c1.383,0,2.267-1.678,2.541-2.564a45.325,45.325,0,0,0,.79-5.17l0-.051,0-.044a2.729,2.729,0,0,0-2.581-2.732l-9.861.069h-.079l-7.377-.027-9.94-.019A2.515,2.515,0,0,0,677.1,648.635Zm18.6-.29a1.532,1.532,0,0,1,1.217-.635l9.572.01c.806,0,1.1.712,1.16,1.6a38.074,38.074,0,0,1-.572,4.234c-.239.773-.5,1.86-1.516,1.779l-6.987-.016c-1.47,0-2.7-4.03-3.089-6.041A1.191,1.191,0,0,1,695.7,648.344ZM678.6,649.394c-.012-.89.388-1.64,1.2-1.642l9.571.01a1.677,1.677,0,0,1,1.271.63,1.26,1.26,0,0,1,.294.931c-.224,2.013-1.05,6.017-2.521,6.021l-6.987-.017c-1.132-.039-1.478-1.221-1.783-1.993C679.277,652.405,678.706,649.842,678.6,649.394Z" transform="translate(-677.094 -645.844)"/></g><g transform="translate(10.307 26.369)"><path class="d" d="M697.213,673.587l14.311-.267s-2.429,5.106-7.06,5.106A7.89,7.89,0,0,1,697.213,673.587Z" transform="translate(-695.16 -665.489)"/><path d="M696.26,658.13a1.871,1.871,0,1,1-1.275-2.4A1.924,1.924,0,0,1,696.26,658.13Z" transform="translate(-692.583 -655.664)"/><path d="M730.982,658.13a1.871,1.871,0,1,1-1.274-2.4A1.924,1.924,0,0,1,730.982,658.13Z" transform="translate(-711.906 -655.664)"/></g></g></g></g></g></svg>