<svg xmlns="http://www.w3.org/2000/svg" xmlns:xlink="http://www.w3.org/1999/xlink" width="831" height="362" viewBox="0 0 831 362"><defs><style>.a,.d{fill:#fff;}.a{stroke:#707070;}.b{clip-path:url(#a);}.c{opacity:0.7;}.e{fill:#373737;}.f{fill:#fccfb2;}.g{fill:#ee509c;}.h{fill:#5454b5;}.i{fill:#d84c96;}.j{fill:#f4e451;}.k{fill:#9b6d5c;}.l{fill:#77564d;}.m{fill:#4f3934;}.n{fill:#eabda9;}.o{fill:#ddd322;}.p{fill:#78c2c5;}.q{fill:#ba6338;}.r{fill:#a55532;}.s{fill:#9b4b10;}.t{fill:#8e6355;}.u{fill:#c1a49f;}.v{fill:#706053;}.w{fill:#e8baa0;}</style><clipPath id="a"><rect class="a" width="831" height="362" transform="translate(452 156)"/></clipPath></defs><g class="b" transform="translate(-452 -156)"><g transform="translate(630 -225.855)"><g transform="translate(0 0)"><g class="c" transform="translate(23.984 0)"><path class="d" d="M448.1,427.464c-8.633-18.971-31.661-15.158-43.092-6.24s-36.556,8.918-31.477,18.731-1.562,24.079,0,31.215,3.327,16.941,22.679,11.6,37.818-.895,39.58-7.133-5.144-29.435,4.463-33.894S453.377,439.06,448.1,427.464Z" transform="translate(-363.255 -40.472)"/><path class="d" d="M494.07,346.894c-16.336-6.628-47.36,8.029-45.672,31.217s30.718,38.348,35.992,48.16,3.515,11.121-7.035,16.263-17.081,43.94-18.658,52.413-1.57,13.38,12.506,8.476,49.248-9.369,63.323-13.825,24.628-17.837,22.868-32.11-17.59-15.166-23.75-27.645-18.465-23.189-23.743-39.25S516.053,355.812,494.07,346.894Z" transform="translate(-371.403 -33.926)"/><path class="d" d="M804.919,108.083c-25.759,6.06-79.162,58.787-120.5,90.9s-92.351,46.379-89.709,69.566,9.669,61.539,30.776,57.975,43.978-16.057,56.3-7.133,29.906,29.429,23.746,36.565-27.265,16.056-13.192,23.186,36.064-15.161,47.5-15.161,23.743-9.806,24.629-25.861-7.914-19.622,0-21.41,22.867-12.484,24.629-24.079-20.232-20.512-20.232-36.568c0,0,22-20.51,36.062-31.219s23.75-33.886,36.938-32.1,24.633,5.354,6.166,20.518S810.2,240,817.233,268.545s43.92,24.452,40.435,43.884-30.753,16.767-33.4,31.038,6.159,30.465-17.589,37.078-33.426,5.637-55.408,11.927-29.034-6.2-42.222-4.414-21.991,14.184-30.785,6.194,8.794-51.68-7.914-55.247-35.186,9.365-33.423,35.451-22.865,32.329-33.428,39.464-59.812,41.028-64.21,51.731-20.226,16.948-27.265,14.273-17.584-5.351-24.626,5.349-55.278,6.24-48.31,13.378,8.73,15.157,20.16,17.838,45.741,30.321,41.343,49.945,0,30.323-14.957,31.22-59.59-3.573-75.09-4.468-39.322-1.78-38.843,13.379,4.8,35.677,0,49.949-12.725,26.754-8.32,36.572S366.9,727.87,388,725.192s25.513,11.593,41.344,11.593,19.348,2.679,33.422,0,37.822-13.376,39.577-24.079S512.9,698.433,512.9,693.088s-3.514-9.818-.875-17.841,6.157-24.974,16.713-25.868,36.062-3.564,37.818-16.936-3.517-22.3,15.835-31.224,31.671,13.381,38.7,6.243,7.038-11.6,14.956-11.6,16.713-19.61,28.142-8.919c11.441,10.711,2.643,24.085,32.549,42.815S762.7,669,757.423,687.732,737.2,702,724.875,701.111s-19.347,1.782-18.47,6.239,15.832,8.03,26.391,14.272,16.713,3.569,22.869-8.917,17.593-8.921,22.868-22.292-.878-33.9,3.514-31.222,17.594,15.166,22,7.137-23.755-33.885-40.468-41.028-31.66-8.921-35.173-19.623-26.392-34.78-14.956-40.135,31.659,4.461,38.7,16.947,20.228,13.381,35.179,24.973,22.877,33.891,27.267,48.166,22.873,33,29.028,49.052,9.67,26.756,25.51,28.538,21.988-15.161,21.988-28.538-6.155-32.109,0-42.809,21.984-11.6,28.142,0-4.389,38.352,7.922,52.623c0,0,14.07,10.7,27.259,14.265s21.108,12.184,32.1,9.216,22.437-2.936,32.108.612,9.675-3.549,21.991,0,41.338-15.178,42.22,5.333-20.234,60.652-20.234,82.946,19.351,81.161,49.257,125.757,72.131,112.38,89.712,148.056,25.5,105.239,54.536,95.429,113.465-66,136.331-72.241,79.16-53.518,93.229-95.432c14.084-41.92-6.148-52.626-16.7-52.626s-15.836,6.243-21.114-1.781-14.951-28.541-33.425-23.189-28.136,22.294-42.214,17.834l-14.073-4.457s4.4-24.973-8.8-34.783-66.845-44.6-55.411-63.327,29.911,0,50.139,30.326,47.488,34.784,65.083,31.219,28.146-14.269,32.552-6.24c4.391,8.022-7.928,18.723,55.4,27.644s95.878-13.377,105.555,5.354,31.663,41.915,43.969,57.97c12.324,16.056,22,26.756,28.156,29.43s24.623-15.157,34.3,3.566,43.545,127.545,56.3,169.463,26.381,72.241,51.015,58.418,32.543-84.285,35.184-127.1,64.205-79.374,73-84.728,23.745-19.622,27.269-30.323,38.7-28.539,78.276,4.457,42.219,72.245,43.984,85.62,10.552,19.624,22.868,16.953,27.274-17.842,41.346,3.563,13.188,84.731,17.589,104.351-11.438,34.777,0,43.7,20.226,24.074,33.42,45.487,46.613,89.185,65.967,80.269,1.76-37.458,0-56.191-11.429-39.24-30.788-54.408c-19.343-15.156-31.659-34.78-36.055-42.8s-13.194-8.923-13.194-8.923-1.765-58.862,27.264-56.189,48.377,65.557,58.047,72.915,5.283,18.954,17.6,7.358,37.816-35.68,48.372-46.377,15.825-31.222,13.193-46.384-22.878-67.78-51.9-86.511-8.792-45.485-.882-60.643,27.269-5.357,36.944,1.78,37.816-2.675,52.779-11.592c14.948-8.921,65.962-28.543,88.83-71.353s32.542-99,21.109-114.159-67.717-79.381-65.086-89.189,14.075-16.951,21.109-19.625,14.076-8.921,8.8-16.056-28.146-8.921-32.537-8.921-13.2,0-18.481.9-32.537-43.708-10.552-48.169,14.071,20.516,26.392,24.977c12.306,4.463,34.307-24.082,49.25-8.922,14.958,15.165,8.8,17.841,16.717,26.756s43.977,45.492,43.977,68.681,49.254-3.572,43.982-16.949-26.4-53.518-61.567-84.727c24.622-2.68,20.221-14.273,21.1-23.192s7.033-31.218,19.34-32.108c12.326-.895,36.072-8.921,39.595-33.894,3.508-24.971,12.307-89.18,23.735-84.722s29.911,52.613,45.742,54.4,21.108-2.671,15.835-15.156-14.953-48.16-29.906-57.971-17.59-7.138-25.5-23.193-33.424-33.894-37.826-39.241-14.943-23.192-23.751-22.3c-8.792.895-51.009-2.668-58.929,0s-53.645-7.128-44.853-29.427,11.433-58.864,45.736-59.754,51.886-3.566,72.117-2.68,19.354,8.92,36.939,9.811c17.6.895,33.435-.89,36.071-9.811s-31.67-37.455.883-39.243,16.266,8.923,31,15.164,31.442-1.784,32.324,8.921-23.75,31.214,0,74.025,79.161,93.649,99.382,94.54c20.242.89,19.354-55.3,11.444-79.374s-52.768-62.435-41.344-73.135,26.386-15.163,35.184-12.485,28.151-6.248,42.222-24.081,18.472-16.058,28.146-15.161,29.9-7.14,0-20.518-28.146-29.43-9.674-30.325,56.287,16.051,75.642,16.051,27.263-19.619,0-33.888-66.85-5.354-80.038-16.947-112.585-41.922-159.2-45.487-102.9-1.784-117.865,1.784c-14.947,3.572-68.609.147-99.4-13.3s-94.986-2.75-113.458-6.323-58.052-22.3-95-24.078-70.353-6.243-86.193,0-29.9,18.731-49.254,15.161-41.335-23.187-67.732-27.645c-26.38-4.454-107.3-9.812-130.169-8.027s-64.206,5.536-77.4-.351c-13.206-5.893-27.274-29.97-49.26-37.109S1735.5,10.8,1719.674,3.658s-34.3,1.783-59.815,10.7-62.448,3.568-87.958,16.057-50.135,27.648-65.088,28.537-23.742,6.246-28.141,12.486-37.826,8.034-50.138,8.034-36.944-16.955-51.9-12.493-7.033,21.406-15.825,27.651-14.076,19.621-30.788,23.191-16.717-9.809-59.812,14.266-51.017-3.567-64.211,0-65.085,19.62-72.12,18.73-18.466-13.376-29.026-12.484-12.316,18.73-28.143,17.838-41.348-17.838-61.13-23.192-61.132-23.188-99.833-27.647S857.688,95.667,804.919,108.083Z" transform="translate(-362.093 -1.067)"/><path class="d" d="M1725.028,369.5c-2.09,1.638-.906,6.666,0,9.882s-1.812,5.288,1.363,9.423,7.252,7.586,8.837,13.1,6.122,11.493,3.174,15.63-8.839,3.447-9.972,6.205-.682,7.124-6.119,8.965-14.737.227-17.91,7.814-5.212,11.722-1.359,16.319,6.347,10.572,11.105,7.354,1.135-9.424,7.48-11.262,8.842-.228,13.375-2.757,2.267-5.056,6.12-7.356,11.785-.459,13.825-6.436.906-18.846-2.72-24.132-10.879-17.469-8.161-18.619,13.123-5.286,11.889-9.882-4.183-7.126-5.769-7.585-6.574,1.607-10.2-.921S1730.015,365.6,1725.028,369.5Z" transform="translate(-506.626 -36.128)"/><path class="d" d="M1671.318,566.758c-5.636,1.088-7.429,15.362-4.76,21.835,5.213,12.643,13.827,11.034,17,12.643s12.69,7.812,13.144,4.366,4.08-6.205,0-8.045-9.293-.229-13.144-3.678-5.672-7.354-3.177-10.112,3.675-11.262,1.385-14.479S1676.078,565.839,1671.318,566.758Z" transform="translate(-502.783 -55.023)"/></g><g transform="translate(360.451 568.896)"><g transform="translate(0 0.1)"><path class="e" d="M750.395,636.506a26.652,26.652,0,0,1,17.438-6.4h0a26.579,26.579,0,0,1,13.525,3.6c8.079,4.742,12.677,13.6,13.516,23.713.8,9.6,8.369,37.516-4.419,46.841-5.888,4.292-43.3,4.637-47.258-2.7-7.078-13.135-2.406-35.461-2.406-44.127A27.461,27.461,0,0,1,750.395,636.506Z" transform="translate(-739.279 -630.111)"/></g><g transform="translate(4.073)"><g transform="translate(1.573 2.074)"><path class="f" d="M745.612,663.511a22.868,22.868,0,0,0,22.319,23.39h0A22.844,22.844,0,0,0,791,664.268l.138-8.581a22.869,22.869,0,0,0-22.318-23.39h0a22.845,22.845,0,0,0-23.067,22.633Z" transform="translate(-745.609 -632.294)"/><g transform="translate(11.171 39.792)"><path class="d" d="M758.131,676.657l19.679-.372s-3.342,7.118-9.707,7.118C761.813,683.4,758.411,678.085,758.131,676.657Z" transform="translate(-758.131 -676.285)"/></g></g><path class="e" d="M776.132,639.1s-9.417,23.374-31.285,18.943c-2.354-6.506-.265-11.592,3.221-16.871,2.457-3.719,17.819-17.361,30.7-7.881C780.265,634.392,777.038,638.653,776.132,639.1Z" transform="translate(-743.845 -630.001)"/><path class="e" d="M777.851,639.954s19.887,10.931,14.125,42.3l2.791-4.047s11.438-35.709-14.278-45.2Z" transform="translate(-747.516 -630.289)"/><path class="f" d="M788.015,668.968a6.091,6.091,0,1,0,6.189-6.087A6.144,6.144,0,0,0,788.015,668.968Z" transform="translate(-748.614 -633.14)"/></g><path class="g" d="M741.439,710.334a34.185,34.185,0,0,1,54.115.886,39.271,39.271,0,0,1-54.115-.886Z" transform="translate(-739.512 -636.442)"/><g transform="translate(20.577 53.606)"><path class="f" d="M762.347,697.553a27.7,27.7,0,0,1,3.066-.541l.706-7.46,7.813-.289.3,7.661a23.475,23.475,0,0,1,3.749.617,9.214,9.214,0,0,1-.014,1.143c-.192,4.872-3.842,8.646-8.152,8.429s-7.65-4.343-7.458-9.215C762.358,697.819,762.341,697.632,762.347,697.553Z" transform="translate(-762.346 -689.264)"/></g><path d="M777.387,667.131a1.122,1.122,0,0,0,1.114,1.13h5.02a1.122,1.122,0,0,0,1.114-1.13h0A1.123,1.123,0,0,0,783.521,666H778.5a1.123,1.123,0,0,0-1.114,1.131Z" transform="translate(-743.393 -633.437)"/><path d="M753.643,667.131a1.122,1.122,0,0,0,1.114,1.13h5.019a1.122,1.122,0,0,0,1.115-1.13h0A1.123,1.123,0,0,0,759.776,666h-5.019a1.123,1.123,0,0,0-1.114,1.131Z" transform="translate(-740.83 -633.437)"/></g><g transform="translate(273.587 432.987)"><path class="h" d="M699.891,583.307a34.186,34.186,0,0,0-54.116.885,39.269,39.269,0,0,0,54.116-.885Z" transform="translate(-642.321 -488.407)"/><g transform="translate(0 18.623)"><path class="e" d="M642.489,536.855c1.445-9.482,5.924-34.78,28.965-36.434v-.056c0-.005.277-.012.407-.016.517-.014,1.033-.014,1.533-.007s.913-.007,1.43.007a1.767,1.767,0,0,1,.244.016v.053c23.041,1.622,27.709,26.948,29.156,36.437,1.332,10.527-.024,23.766-.024,23.766-40,5.089-61.689,0-61.689,0S641.157,547.382,642.489,536.855Z" transform="translate(-641.903 -500.337)"/></g><g transform="translate(3.175)"><g transform="translate(0 21.075)"><path class="f" d="M682.984,570.452a27.977,27.977,0,0,0-3.067-.54l-.706-7.46-7.814-.288-.3,7.661a23.511,23.511,0,0,0-3.749.617,9.436,9.436,0,0,0,.015,1.143c.193,4.872,3.842,8.646,8.153,8.428s7.65-4.343,7.459-9.214C682.973,570.719,682.988,570.532,682.984,570.452Z" transform="translate(-647.824 -508.691)"/><path class="f" d="M651.75,535.606a22.868,22.868,0,0,0,22.319,23.389h0a22.843,22.843,0,0,0,23.066-22.632l.139-8.582a22.868,22.868,0,0,0-22.319-23.389h0a22.843,22.843,0,0,0-23.066,22.633Z" transform="translate(-646.141 -503.176)"/><path class="f" d="M695.325,538.563a6.091,6.091,0,1,0,6.188-6.088A6.143,6.143,0,0,0,695.325,538.563Z" transform="translate(-650.845 -505.857)"/><path class="e" d="M694.526,558.217l5.761,1.41s.886-23.75-.406-36.682c0,0-2.714-13.1-5.907-15.817-4.126-3.511-21.166-4.08-21.166-4.08S693.068,510.965,694.526,558.217Z" transform="translate(-648.414 -503.048)"/><path class="e" d="M671.633,508.535,645.8,551.56s-2.294-20.269,5.011-30.649C661.765,505.349,671.633,508.535,671.633,508.535Z" transform="translate(-645.462 -503.546)"/></g><g transform="translate(0.282)"><path class="g" d="M702.44,524.2c1.52-7.317-5.767-28.046-6-35.766-.168-5.591-4.846-7.613-8.22-8.32-4.29-.9-9.955-.295-12.005,3.666-2.534,4.9-8.639,9.39-10.413,10.731-5.414,4.1-13.368,12.988-14.871,20.22Z" transform="translate(-646.334 -479.749)"/><path class="i" d="M645.785,521.271a.912.912,0,0,0,.852.936l57.4,9.332a.905.905,0,0,0,1.083-.646l-.421-10.757a.915.915,0,0,0-.853-.937L650.9,510.755a.905.905,0,0,0-1.084.646Z" transform="translate(-645.778 -482.707)"/></g><g transform="translate(14.229 51.606)"><path class="d" d="M664.578,550.182l19.679-.372s-3.342,7.118-9.707,7.118C668.259,556.928,664.858,551.61,664.578,550.182Z" transform="translate(-661.754 -538.043)"/><path d="M666.468,540.239a2.643,2.643,0,0,1-3.2,1.965,2.689,2.689,0,0,1-1.754-3.349,2.645,2.645,0,0,1,3.2-1.965A2.689,2.689,0,0,1,666.468,540.239Z" transform="translate(-661.413 -536.801)"/><path d="M690.206,540.239a2.643,2.643,0,0,1-3.2,1.965,2.689,2.689,0,0,1-1.754-3.349,2.644,2.644,0,0,1,3.2-1.965A2.688,2.688,0,0,1,690.206,540.239Z" transform="translate(-663.975 -536.801)"/></g></g></g><g transform="translate(115.047 613.081)"><path class="j" d="M520.288,758.515a34.185,34.185,0,0,0-54.116.885,39.273,39.273,0,0,0,54.116-.885Z" transform="translate(-464.392 -685.226)"/><path class="k" d="M503.218,745.816a27.929,27.929,0,0,0-3.066-.542l-.707-7.46-7.814-.288-.3,7.661a23.468,23.468,0,0,0-3.749.617,9.265,9.265,0,0,0,.014,1.143c.192,4.872,3.841,8.645,8.152,8.429s7.65-4.343,7.459-9.215C503.208,746.081,503.224,745.9,503.218,745.816Z" transform="translate(-466.702 -684.449)"/><path class="k" d="M526.84,713.713a6.091,6.091,0,1,1-6.061-6.218A6.139,6.139,0,0,1,526.84,713.713Z" transform="translate(-469.627 -681.583)"/><path class="k" d="M516.812,710.749c.008,13.328-10.392,24.141-23.088,24.149h0c-12.695.009-23.11-10.789-23.119-24.118l.275-6.571c-.01-13.328,10.113-24.14,22.808-24.15h0c12.7-.008,22.833,10.789,22.841,24.119Z" transform="translate(-464.871 -678.964)"/><path class="k" d="M476.357,714.782a6.091,6.091,0,1,1-6.061-6.218A6.139,6.139,0,0,1,476.357,714.782Z" transform="translate(-464.177 -681.685)"/><path class="l" d="M493.724,737.91c-12.695.009-23.11-10.789-23.119-24.118v-1.1c.006-.16.009-.319.006-.476l2.522.167s.558,12.1,8.88,11.9c2.938-.066,6.8-4.018,11.9-4.093,5.332-.078,8.735,3.865,11.835,3.86,8.325-.015,8.517-12.252,8.517-12.252l2.513-.194c0,.2.014.4.036.612l0,1.545C516.82,727.089,506.42,737.9,493.724,737.91Z" transform="translate(-464.871 -681.975)"/><path class="m" d="M470.741,699.673c.46-7.359,6.37-20.086,22.535-20.825,16.107.564,22.778,12.868,23.315,20.222.173,2.367.184,9.407.184,9.407l-2.513.194s.95-21.675-11.914-17.929a38.167,38.167,0,0,1-8.93,1.724,31.939,31.939,0,0,1-8.528-1.272c-12.9-3.609-11.756,18.057-11.757,18.057l-2.529-.167S470.592,702.042,470.741,699.673Z" transform="translate(-464.871 -678.848)"/><g transform="translate(16.209 32.114)"><path class="d" d="M506.322,726.795l-19.679-.373s3.342,7.119,9.707,7.119C502.64,733.541,506.042,728.223,506.322,726.795Z" transform="translate(-482.811 -715.504)"/><path d="M506.188,717.79a2.642,2.642,0,0,0,3.2,1.964,2.688,2.688,0,0,0,1.755-3.348,2.646,2.646,0,0,0-3.2-1.965A2.69,2.69,0,0,0,506.188,717.79Z" transform="translate(-484.91 -714.352)"/><path d="M482.451,717.79a2.642,2.642,0,0,0,3.2,1.964,2.688,2.688,0,0,0,1.754-3.348,2.645,2.645,0,0,0-3.2-1.965A2.689,2.689,0,0,0,482.451,717.79Z" transform="translate(-482.347 -714.352)"/></g></g><g transform="translate(193.967 542.701)"><path class="h" d="M554.668,686.573a34.186,34.186,0,0,1,54.116.885,39.272,39.272,0,0,1-54.116-.885Z" transform="translate(-552.865 -607.979)"/><path class="f" d="M576.23,673.778a28.116,28.116,0,0,1,3.067-.541l.706-7.46,7.814-.288.3,7.66a23.5,23.5,0,0,1,3.749.618,9.1,9.1,0,0,1-.015,1.143c-.192,4.872-3.841,8.645-8.152,8.428s-7.651-4.344-7.459-9.215C576.241,674.044,576.225,673.858,576.23,673.778Z" transform="translate(-555.193 -607.193)"/><path class="n" d="M552.652,642.72a6.122,6.122,0,1,0,5.855-6.479A6.163,6.163,0,0,0,552.652,642.72Z" transform="translate(-552.647 -604.401)"/><path class="f" d="M559.08,641.434a22.94,22.94,0,0,0,23.761,22.126h0a23.006,23.006,0,0,0,21.821-24.1l-.363-8.619c-.216-5.146.048-12.42-2.917-16.14-4.391-5.5-13.332-6.31-20.844-5.986h0a23.006,23.006,0,0,0-21.82,24.1Z" transform="translate(-553.3 -601.768)"/><path class="f" d="M603.641,641.57a6.122,6.122,0,1,0,5.854-6.48A6.163,6.163,0,0,0,603.641,641.57Z" transform="translate(-558.151 -604.291)"/><path class="o" d="M607.255,636.808a8.975,8.975,0,0,0,1.217-.991s2.93-7.1,1.575-12.141a24.9,24.9,0,0,0-3.8-7.808l-5.726,5.211C602.861,624.426,606.09,628.686,607.255,636.808Z" transform="translate(-557.815 -602.457)"/><path class="o" d="M565.016,619.316l-4.49-1.731s-4.326,6.24-2.229,17.037l.531.185S559.087,624,565.016,619.316Z" transform="translate(-553.195 -602.62)"/><path class="o" d="M601.191,614.236l-5.762,5.179S572.97,621.7,562.673,617.5c-4.976-2.029-6.309-3.15-7.55-14.606C562,613.4,601.327,586.083,601.191,614.236Z" transform="translate(-552.914 -601.041)"/><g transform="translate(15.011 37.333)"><path class="d" d="M572.639,654.758l19.679-.373s-3.342,7.119-9.707,7.119C576.32,661.5,572.919,656.186,572.639,654.758Z" transform="translate(-569.816 -643.466)"/><path d="M574.53,645.753a2.643,2.643,0,0,1-3.2,1.964,2.69,2.69,0,0,1-1.754-3.349,2.645,2.645,0,0,1,3.2-1.965A2.69,2.69,0,0,1,574.53,645.753Z" transform="translate(-569.474 -642.314)"/><path d="M598.267,645.753a2.643,2.643,0,0,1-3.2,1.964,2.689,2.689,0,0,1-1.754-3.349,2.644,2.644,0,0,1,3.2-1.965A2.689,2.689,0,0,1,598.267,645.753Z" transform="translate(-572.037 -642.314)"/></g></g><g transform="translate(441.248 542.333)"><path class="p" d="M831.824,685.541a34.186,34.186,0,0,1,54.116.885,39.272,39.272,0,0,1-54.116-.885Z" transform="translate(-830.066 -607.512)"/><path class="f" d="M853.123,672.746a27.96,27.96,0,0,1,3.067-.541l.705-7.46,7.814-.289.3,7.661a23.6,23.6,0,0,1,3.749.617,9.264,9.264,0,0,1-.014,1.143c-.192,4.873-3.842,8.646-8.152,8.429s-7.65-4.343-7.459-9.215C853.135,673.012,853.118,672.826,853.123,672.746Z" transform="translate(-832.365 -606.727)"/><path class="f" d="M829.859,642.313a6.121,6.121,0,1,0,5.854-6.479A6.162,6.162,0,0,0,829.859,642.313Z" transform="translate(-829.854 -603.994)"/><path class="f" d="M836.286,641.027a22.94,22.94,0,0,0,23.761,22.126h0a23.006,23.006,0,0,0,21.82-24.1l-.363-8.619c-.215-5.146.049-12.42-2.917-16.14-4.391-5.505-13.332-6.31-20.844-5.986h0a23,23,0,0,0-21.82,24.094Z" transform="translate(-830.507 -601.361)"/><path class="f" d="M880.846,641.162a6.122,6.122,0,1,0,5.855-6.479A6.164,6.164,0,0,0,880.846,641.162Z" transform="translate(-835.358 -603.884)"/><path class="q" d="M884.461,636.4a9.09,9.09,0,0,0,1.217-.991s2.93-7.1,1.574-12.141a24.911,24.911,0,0,0-3.8-7.807l-5.727,5.211C880.066,624.019,883.295,628.279,884.461,636.4Z" transform="translate(-835.021 -602.05)"/><path class="q" d="M842.221,618.909l-4.49-1.73s-4.326,6.24-2.23,17.036l.532.185S836.293,623.6,842.221,618.909Z" transform="translate(-830.401 -602.213)"/><path class="r" d="M878.4,613.829l-5.762,5.179s-22.459,2.285-32.756-1.915c-4.977-2.03-6.309-3.15-7.55-14.606C839.209,612.991,878.533,585.677,878.4,613.829Z" transform="translate(-830.121 -600.634)"/><g transform="translate(18.576 40.315)"><path class="s" d="M858.225,647.54a.529.529,0,0,1-.609.44.529.529,0,1,1,.609-.44Z" transform="translate(-851.378 -645.368)"/><path class="s" d="M861.231,645.811a.391.391,0,1,1-.328-.443A.388.388,0,0,1,861.231,645.811Z" transform="translate(-851.733 -645.219)"/><path class="s" d="M863.474,648.359a.535.535,0,1,1-.448-.607A.53.53,0,0,1,863.474,648.359Z" transform="translate(-851.945 -645.446)"/><path class="s" d="M864.954,645.736a.464.464,0,1,1-.389-.526A.46.46,0,0,1,864.954,645.736Z" transform="translate(-852.12 -645.204)"/><path class="s" d="M867.522,647.821a.545.545,0,0,1-.625.452.55.55,0,0,1-.46-.624.544.544,0,0,1,.625-.451A.55.55,0,0,1,867.522,647.821Z" transform="translate(-852.378 -645.393)"/><path class="s" d="M870.4,649.335a.435.435,0,1,1-.364-.493A.43.43,0,0,1,870.4,649.335Z" transform="translate(-852.713 -645.551)"/><path class="s" d="M854.944,649.279a.467.467,0,0,1-.537.389.468.468,0,1,1,.537-.389Z" transform="translate(-851.037 -645.541)"/><path class="s" d="M855.384,646.458a.472.472,0,1,1-.4-.536A.474.474,0,0,1,855.384,646.458Z" transform="translate(-851.085 -645.272)"/><path class="s" d="M851.616,648.761a.468.468,0,0,1-.538.388.468.468,0,1,1,.538-.388Z" transform="translate(-850.678 -645.492)"/></g><g transform="translate(4.727 30.644)"><path d="M835.156,638.454l0,.078.016.077c.044.194,1.109,5.684,1.7,7.206.479,1.234,1.889,3.565,3.791,3.559l10.114-.025c3.518-.009,4.639-8.752,4.845-10.57a1.8,1.8,0,0,1,1.641-1.151,2.007,2.007,0,0,1,1.782,1.239c.4,2.008,2.243,10.455,5.7,10.447l10.114-.026c1.9,0,3.118-2.342,3.5-3.578a64.3,64.3,0,0,0,1.085-7.212l0-.075,0-.075a3.806,3.806,0,0,0-3.549-3.835l-13.56.046h-.108l-10.143.015-13.668.023A3.491,3.491,0,0,0,835.156,638.454Zm25.579-.4a2.1,2.1,0,0,1,1.674-.886l13.161.015c1.11,0,1.509.992,1.6,2.232a54.289,54.289,0,0,1-.786,5.9c-.329,1.077-.693,2.593-2.085,2.481l-9.608-.024c-2.022.005-3.708-5.619-4.248-8.422A1.678,1.678,0,0,1,860.735,638.05Zm-23.506,1.463c-.018-1.239.533-2.286,1.643-2.289l13.161.015a2.287,2.287,0,0,1,1.747.877,1.772,1.772,0,0,1,.4,1.3c-.308,2.807-1.443,8.39-3.466,8.394l-9.607-.023c-1.557-.054-2.033-1.7-2.452-2.779C838.155,643.711,837.369,640.137,837.229,639.512Z" transform="translate(-835.153 -634.512)"/></g><g transform="translate(14.173 36.768)"><path class="d" d="M848.908,653.725l19.678-.372s-3.341,7.118-9.706,7.118C852.59,660.471,849.187,655.153,848.908,653.725Z" transform="translate(-846.084 -642.434)"/><path d="M850.8,644.72a2.643,2.643,0,0,1-3.2,1.965,2.69,2.69,0,0,1-1.754-3.349,2.645,2.645,0,0,1,3.2-1.965A2.689,2.689,0,0,1,850.8,644.72Z" transform="translate(-845.742 -641.282)"/><path d="M874.535,644.72a2.642,2.642,0,0,1-3.2,1.965,2.689,2.689,0,0,1-1.754-3.349,2.644,2.644,0,0,1,3.2-1.965A2.688,2.688,0,0,1,874.535,644.72Z" transform="translate(-848.304 -641.282)"/></g></g><g transform="translate(9.49 382.361)"><path class="g" d="M419.8,532.368a34.186,34.186,0,0,0-54.116.886,39.272,39.272,0,0,0,54.116-.886Z" transform="translate(-347.987 -432.918)"/><path class="e" d="M430.747,466.7c.07,23.773-18.878,43.1-42.323,43.174s-42.507-19.142-42.577-42.916,18.878-43.1,42.323-43.174S430.676,442.923,430.747,466.7Z" transform="translate(-345.846 -423.78)"/><path class="k" d="M403.221,519.669a28.167,28.167,0,0,0-3.067-.541l-.706-7.46-7.814-.288-.3,7.661a23.52,23.52,0,0,0-3.749.617,9.1,9.1,0,0,0,.015,1.143c.192,4.872,3.841,8.645,8.152,8.429s7.65-4.343,7.458-9.215C403.211,519.936,403.226,519.749,403.221,519.669Z" transform="translate(-350.35 -432.142)"/><path class="t" d="M376.485,485.9a6.091,6.091,0,1,1-6.189-6.087A6.143,6.143,0,0,1,376.485,485.9Z" transform="translate(-347.839 -429.129)"/><path class="t" d="M426.265,485.9a6.091,6.091,0,1,1-6.189-6.087A6.143,6.143,0,0,1,426.265,485.9Z" transform="translate(-353.213 -429.129)"/><path class="k" d="M416.025,482.947a22.869,22.869,0,0,1-22.319,23.39h0A22.844,22.844,0,0,1,370.64,483.7l-.139-8.582a22.87,22.87,0,0,1,22.319-23.39h0a22.845,22.845,0,0,1,23.067,22.633Z" transform="translate(-348.507 -426.448)"/><g transform="translate(32.563 54.601)"><path class="d" d="M406.325,497.523l-19.679-.372s3.342,7.119,9.707,7.119C402.643,504.27,406.044,498.952,406.325,497.523Z" transform="translate(-382.813 -485.385)"/><path d="M406.191,487.581a2.644,2.644,0,0,0,3.2,1.965,2.691,2.691,0,0,0,1.755-3.349,2.646,2.646,0,0,0-3.2-1.965A2.688,2.688,0,0,0,406.191,487.581Z" transform="translate(-384.912 -484.143)"/><path d="M382.453,487.581a2.643,2.643,0,0,0,3.2,1.965,2.69,2.69,0,0,0,1.755-3.349,2.645,2.645,0,0,0-3.2-1.965A2.69,2.69,0,0,0,382.453,487.581Z" transform="translate(-382.35 -484.143)"/></g><g transform="translate(21.713 24.175)"><path class="e" d="M390.882,450.975l1.053,10.636a26.71,26.71,0,0,1,3.019-.229l-.533-10.875A21.44,21.44,0,0,0,390.882,450.975Z" transform="translate(-372.42 -450.506)"/><path class="e" d="M403.183,451.625l-2.037,10.24a26.172,26.172,0,0,1,2.819.644l2.416-9.646A24.842,24.842,0,0,0,403.183,451.625Z" transform="translate(-373.528 -450.613)"/><path class="e" d="M397.052,450.511l-.532,10.868a27.055,27.055,0,0,1,3.217.24l1.049-10.6A22.4,22.4,0,0,0,397.052,450.511Z" transform="translate(-373.029 -450.507)"/><path class="e" d="M385.23,452.808l2.42,9.661a26.115,26.115,0,0,1,2.8-.627l-2.045-10.276A23.6,23.6,0,0,0,385.23,452.808Z" transform="translate(-371.81 -450.607)"/><path class="e" d="M375.207,460.625l4.458,5.545a24.916,24.916,0,0,1,2.425-1.388l-4.2-7.124A24.077,24.077,0,0,0,375.207,460.625Z" transform="translate(-370.728 -451.189)"/><path class="e" d="M370.58,470.938l2.8,1.472a23.019,23.019,0,0,1,2.06-2.3l-4.063-2.35A19.508,19.508,0,0,0,370.58,470.938Z" transform="translate(-370.229 -452.153)"/><path class="e" d="M408.62,454.012l-3.228,9.026a25.564,25.564,0,0,1,2.682,1.062l3.695-7.974A25.407,25.407,0,0,0,408.62,454.012Z" transform="translate(-373.987 -450.841)"/><path class="e" d="M379.8,456.083l3.672,7.924a25.761,25.761,0,0,1,2.66-1.027l-3.227-9.026A24.914,24.914,0,0,0,379.8,456.083Z" transform="translate(-371.223 -450.835)"/><path class="e" d="M372.077,465.853l4.258,3.066a24.064,24.064,0,0,1,2.17-1.731l-4.622-4.71A21.781,21.781,0,0,0,372.077,465.853Z" transform="translate(-370.39 -451.649)"/><path class="e" d="M370.3,477.017l.069.918a24.8,24.8,0,0,1,2.389-4.264l-2.38-.959A17.308,17.308,0,0,0,370.3,477.017Z" transform="translate(-370.186 -452.626)"/><path class="e" d="M421.45,473.178l-2.151.867a21.558,21.558,0,0,1,1.9,3.387S421.465,474.241,421.45,473.178Z" transform="translate(-375.488 -452.67)"/><path class="e" d="M417.8,462.608l-4.684,4.773a23.861,23.861,0,0,1,2.178,1.793l4.285-3.086A19.712,19.712,0,0,0,417.8,462.608Z" transform="translate(-374.82 -451.661)"/><path class="e" d="M420.425,468.065l-4.047,2.342a23.053,23.053,0,0,1,2.022,2.336l2.662-1.4A17.267,17.267,0,0,0,420.425,468.065Z" transform="translate(-375.173 -452.182)"/><path class="e" d="M413.651,457.71l-4.232,7.186a25.057,25.057,0,0,1,2.452,1.435l4.521-5.623A23.158,23.158,0,0,0,413.651,457.71Z" transform="translate(-374.421 -451.194)"/></g></g><g transform="translate(0 643.927)"><path class="p" d="M391.317,801.509a34.186,34.186,0,0,0-54.116.885,39.272,39.272,0,0,0,54.116-.885Z" transform="translate(-335.422 -720.176)"/><path class="f" d="M374.248,788.811a27.944,27.944,0,0,0-3.067-.542l-.706-7.46-7.814-.288-.3,7.661a23.494,23.494,0,0,0-3.749.617,9.092,9.092,0,0,0,.015,1.143c.191,4.872,3.841,8.645,8.152,8.429s7.65-4.343,7.459-9.215C374.237,789.076,374.253,788.89,374.248,788.811Z" transform="translate(-337.732 -719.4)"/><g transform="translate(0 8.045)"><path class="n" d="M397.869,756.708a6.091,6.091,0,1,1-6.061-6.218A6.137,6.137,0,0,1,397.869,756.708Z" transform="translate(-340.657 -724.578)"/><path class="n" d="M347.386,757.777a6.09,6.09,0,1,1-6.061-6.218A6.139,6.139,0,0,1,347.386,757.777Z" transform="translate(-335.207 -724.68)"/><path class="f" d="M387.842,753.744c.008,13.328-10.393,24.141-23.088,24.15h0c-12.7.009-23.111-10.789-23.12-24.119l.275-6.57c-.01-13.329,10.113-24.14,22.809-24.149h0c12.7-.008,22.832,10.789,22.841,24.119Z" transform="translate(-335.901 -721.959)"/><path class="u" d="M364.754,780.9c-12.7.009-23.111-10.789-23.12-24.119v-1.1c.006-.16.009-.319.006-.476l2.523.167s.557,12.1,8.88,11.9c2.938-.066,6.8-4.019,11.9-4.093,5.332-.078,8.736,3.865,11.836,3.86,8.325-.015,8.517-12.252,8.517-12.252l2.513-.195c0,.2.014.4.036.612l0,1.545C387.85,770.084,377.449,780.9,364.754,780.9Z" transform="translate(-335.901 -724.97)"/><path class="v" d="M341.77,742.668c.46-7.359,6.37-20.086,22.536-20.825,16.107.564,22.777,12.868,23.314,20.221.173,2.368.185,9.408.185,9.408l-2.513.195s.949-21.675-11.914-17.929a38.161,38.161,0,0,1-8.931,1.724,31.966,31.966,0,0,1-8.528-1.272c-12.9-3.609-11.756,18.057-11.756,18.057l-2.53-.167S341.621,745.037,341.77,742.668Z" transform="translate(-335.901 -721.843)"/></g><g transform="translate(16.208 40.159)"><path class="d" d="M377.351,769.79l-19.678-.373s3.341,7.119,9.707,7.119C373.669,776.536,377.071,771.218,377.351,769.79Z" transform="translate(-353.84 -758.498)"/><path d="M377.218,760.785a2.643,2.643,0,0,0,3.2,1.964,2.69,2.69,0,0,0,1.755-3.349,2.646,2.646,0,0,0-3.2-1.965A2.689,2.689,0,0,0,377.218,760.785Z" transform="translate(-355.939 -757.346)"/><path d="M353.48,760.785a2.643,2.643,0,0,0,3.2,1.964,2.688,2.688,0,0,0,1.754-3.349,2.644,2.644,0,0,0-3.2-1.965A2.689,2.689,0,0,0,353.48,760.785Z" transform="translate(-353.376 -757.346)"/></g><path class="e" d="M346.358,730.386l3.349,3.492s22.117,3.945,32.64.547c5.086-1.643,6.293-3.564,9.326-13.857-11.88,4.314-12.568,5.229-12.568,5.229s5.878-6.193,11.053-8.5c-5.82-2.778-16.263-2.192-22.25,1.558.363-1.326,1.864-3.1,9.537-5.846-6.784-.313-23.984.259-26.308,9.893,0,0-2.346-.964-.189-4.324C347.224,719.886,342.337,723.595,346.358,730.386Z" transform="translate(-336.248 -712.949)"/></g><g transform="translate(33.674 560.687)"><path class="j" d="M381.548,704.027a34.187,34.187,0,0,1,54.116.885,39.271,39.271,0,0,1-54.116-.885Z" transform="translate(-373.883 -627.631)"/><path class="f" d="M402.5,691.172a27.958,27.958,0,0,1,3.066-.542l.706-7.459,7.815-.289.3,7.661a23.484,23.484,0,0,1,3.749.618,8.9,8.9,0,0,1-.015,1.142c-.191,4.873-3.841,8.646-8.152,8.429s-7.65-4.343-7.459-9.214C402.51,691.438,402.494,691.252,402.5,691.172Z" transform="translate(-376.145 -626.839)"/><path class="f" d="M430.842,656.012a22.869,22.869,0,0,1-22.319,23.39h0a22.843,22.843,0,0,1-23.066-22.632l-.14-8.582a22.87,22.87,0,0,1,22.319-23.39h0A22.843,22.843,0,0,1,430.7,647.43Z" transform="translate(-374.29 -621.294)"/><path class="r" d="M398.21,635.067s34.752,1.4,23.868,41.806l17.224-9.817c2.275-21.873-11.559-54.585-41.153-44.119-16.911-.574-26.381,19.34-25.073,45.746l19.313,7.388A96.434,96.434,0,0,1,398.21,635.067Z" transform="translate(-372.956 -620.925)"/><path class="w" d="M385.315,665.259a6.19,6.19,0,0,1-.2-12.377Z" transform="translate(-373.621 -623.976)"/><g transform="translate(21.598 32.819)"><path class="d" d="M421.142,670.588l-19.679-.372s3.342,7.119,9.707,7.119C417.46,677.335,420.862,672.017,421.142,670.588Z" transform="translate(-397.631 -658.45)"/><path d="M421.008,660.646a2.645,2.645,0,0,0,3.2,1.965,2.691,2.691,0,0,0,1.754-3.349,2.644,2.644,0,0,0-3.2-1.965A2.689,2.689,0,0,0,421.008,660.646Z" transform="translate(-399.73 -657.208)"/><path d="M397.271,660.646a2.644,2.644,0,0,0,3.2,1.965,2.69,2.69,0,0,0,1.754-3.349,2.643,2.643,0,0,0-3.2-1.965A2.688,2.688,0,0,0,397.271,660.646Z" transform="translate(-397.167 -657.208)"/></g><g transform="translate(26.147 36.521)"><path class="s" d="M414.417,663.636a.535.535,0,1,0,.448-.606A.535.535,0,0,0,414.417,663.636Z" transform="translate(-403.578 -661.464)"/><path class="s" d="M411.448,661.907a.387.387,0,0,0,.445.322.392.392,0,0,0,.327-.444.391.391,0,0,0-.772.122Z" transform="translate(-403.258 -661.315)"/><path class="s" d="M409.169,664.455a.529.529,0,0,0,.608.44.534.534,0,0,0,.447-.607.528.528,0,0,0-.608-.44A.534.534,0,0,0,409.169,664.455Z" transform="translate(-403.012 -661.542)"/><path class="s" d="M407.705,661.832a.464.464,0,1,0,.389-.526A.46.46,0,0,0,407.705,661.832Z" transform="translate(-402.854 -661.3)"/><path class="s" d="M405.117,663.917a.55.55,0,1,0,.461-.623A.544.544,0,0,0,405.117,663.917Z" transform="translate(-402.574 -661.489)"/><path class="s" d="M402.272,665.432a.429.429,0,0,0,.494.357.43.43,0,1,0-.494-.357Z" transform="translate(-402.267 -661.647)"/><path class="s" d="M417.714,665.375a.466.466,0,0,0,.537.389.473.473,0,0,0,.4-.536.472.472,0,0,0-.932.147Z" transform="translate(-403.934 -661.637)"/><path class="s" d="M417.274,662.554a.466.466,0,0,0,.537.388.473.473,0,0,0,.4-.536.472.472,0,0,0-.933.148Z" transform="translate(-403.887 -661.368)"/><path class="s" d="M421.042,664.857a.467.467,0,0,0,.537.388.473.473,0,0,0,.4-.536.468.468,0,0,0-.538-.388A.473.473,0,0,0,421.042,664.857Z" transform="translate(-404.293 -661.587)"/></g></g></g></g></g></svg>