<?xml version="1.0" encoding="UTF-8" standalone="no"?>
<svg
   xmlns:dc="http://purl.org/dc/elements/1.1/"
   xmlns:cc="http://creativecommons.org/ns#"
   xmlns:rdf="http://www.w3.org/1999/02/22-rdf-syntax-ns#"
   xmlns:svg="http://www.w3.org/2000/svg"
   xmlns="http://www.w3.org/2000/svg"
   xmlns:sodipodi="http://sodipodi.sourceforge.net/DTD/sodipodi-0.dtd"
   xmlns:inkscape="http://www.inkscape.org/namespaces/inkscape"
   width="335.191"
   height="345.819"
   viewBox="0 0 335.191 345.819"
   version="1.1"
   id="svg248"
   sodipodi:docname="banner_scoreboard.svg"
   inkscape:version="0.92.4 (5da689c313, 2019-01-14)">
  <metadata
     id="metadata252">
    <rdf:RDF>
      <cc:Work
         rdf:about="">
        <dc:format>image/svg+xml</dc:format>
        <dc:type
           rdf:resource="http://purl.org/dc/dcmitype/StillImage" />
      </cc:Work>
    </rdf:RDF>
  </metadata>
  <sodipodi:namedview
     pagecolor="#ffffff"
     bordercolor="#666666"
     borderopacity="1"
     objecttolerance="10"
     gridtolerance="10"
     guidetolerance="10"
     inkscape:pageopacity="0"
     inkscape:pageshadow="2"
     inkscape:window-width="1039"
     inkscape:window-height="606"
     id="namedview250"
     showgrid="false"
     inkscape:zoom="0.68243792"
     inkscape:cx="143.4965"
     inkscape:cy="172.9095"
     inkscape:window-x="3103"
     inkscape:window-y="419"
     inkscape:window-maximized="0"
     inkscape:current-layer="svg248" />
  <defs
     id="defs4">
    <style
       id="style2">.a{fill:#d1d1d1;opacity:0.6;}.b,.w{fill:#373737;}.c{fill:#fccfb2;}.d{fill:#ba6338;}.e{fill:#a55532;}.f{fill:#9b4b10;}.g,.k{fill:#fff;}.h{fill:#444;}.i{fill:#ddd322;}.j{fill:#c6ba1e;}.k{opacity:0.4;}.l{fill:#2b72b6;}.m{fill:#9b6d5c;}.n{fill:#80b3dd;}.o{fill:#77564d;}.p{fill:#4f3934;}.q{fill:#a7cbee;}.r{fill:#b22f65;}.s{fill:#e25d90;}.t{fill:#c6477b;}.u{fill:#ee509c;}.v{fill:#d84c96;}.w{font-size:40px;font-family:OCRAStd, OCR A Std;}</style>
  </defs>
  <g
     id="g240"
     transform="translate(-155.023,-126.503)">
    <path
       style="opacity:0.6;fill:#d1d1d1"
       inkscape:connector-curvature="0"
       id="path6"
       transform="translate(0,-579.09)"
       d="m 487.669,1043.545 c 0,-3 -74.466,-5.43 -166.323,-5.43 -91.857,0 -166.323,2.431 -166.323,5.43 0,2.999 41.608,7.867 145.383,7.867 91.858,0 187.263,-4.869 187.263,-7.867 z"
       class="a" />
    <g
       id="g66"
       transform="translate(287.671,126.503)">
      <g
         id="g62"
         transform="translate(4.193)">
        <g
           id="g14"
           transform="translate(0,53.367)">
          <g
             id="g10"
             transform="translate(0,6.648)">
            <path
               style="fill:#373737"
               inkscape:connector-curvature="0"
               id="path8"
               transform="translate(-530.172,-291.035)"
               d="m 578.722,319.379 10.147,-3.983 c -0.811,-11.08 -11.676,-24.223 -29.152,-24.36 -17.476,-0.137 -28.561,12.835 -29.545,23.9 l 10.062,4.142 c 0,0 3.342,13.988 3.254,23.523 -0.117,12.686 -3.657,27.985 -3.657,27.985 l 38.488,0.3 z"
               class="b" />
          </g>
          <path
             style="fill:#fccfb2"
             inkscape:connector-curvature="0"
             id="path12"
             transform="translate(-569.305,-272.81)"
             d="m 605.9,280.268 a 25.466,25.466 0 0 0 -2.763,-0.5 l -0.585,-6.644 -7.049,-0.312 -0.322,6.815 a 21.493,21.493 0 0 0 -3.387,0.523 7.968,7.968 0 0 0 0.005,1.017 c 0.139,4.337 3.407,7.721 7.3,7.558 3.893,-0.163 6.933,-3.81 6.794,-8.147 -0.006,-0.078 0.007,-0.239 0.007,-0.31 z"
             class="c" />
        </g>
        <g
           id="g60"
           transform="translate(1.009)">
          <path
             style="fill:#fccfb2"
             inkscape:connector-curvature="0"
             id="path16"
             transform="translate(-604.109,-173.301)"
             d="m 656.008,205.294 a 5.523,5.523 0 1 1 -5.924,-5.1 5.529,5.529 0 0 1 5.924,5.1 z"
             class="c" />
          <path
             style="fill:#fccfb2"
             inkscape:connector-curvature="0"
             id="path18"
             transform="translate(-541.155,-138.872)"
             d="m 588.021,172.667 a 20.585,20.585 0 0 1 -18.978,22.075 v 0 a 20.584,20.584 0 0 1 -22.074,-18.979 l -0.576,-7.656 c -0.345,-4.57 -1.343,-10.971 0.925,-14.572 3.359,-5.331 11.287,-6.991 18.052,-7.5 v 0 a 20.585,20.585 0 0 1 22.075,18.979 z"
             class="c" />
          <path
             style="fill:#fccfb2"
             inkscape:connector-curvature="0"
             id="path20"
             transform="translate(-532.937,-180.101)"
             d="m 543.969,216 a 5.523,5.523 0 1 1 -5.924,-5.105 5.53,5.53 0 0 1 5.924,5.105 z"
             class="c" />
          <path
             style="fill:#ba6338"
             inkscape:connector-curvature="0"
             id="path22"
             transform="translate(-538.541,-152.832)"
             d="m 545.727,186.563 a 8.233,8.233 0 0 1 -1.195,-0.746 c 0,0 -3.369,-5.967 -2.68,-10.562 a 22.028,22.028 0 0 1 2.589,-7.3 l 5.677,4 c -1.749,3.199 -4.197,7.306 -4.391,14.608 z"
             class="d" />
          <path
             style="fill:#ba6338"
             inkscape:connector-curvature="0"
             id="path24"
             transform="translate(-600.942,-147.629)"
             d="m 639.992,161.765 3.842,-2.005 c 0,0 4.53,5.056 3.781,14.819 l -0.457,0.22 c 0,0 -1.358,-9.52 -7.166,-13.034 z"
             class="d" />
          <path
             style="fill:#a55532"
             inkscape:connector-curvature="0"
             id="path26"
             transform="translate(-543.106,-126.503)"
             d="m 549.12,141.413 5.7,3.966 c 0,0 20.365,-0.363 29.153,-5.167 4.247,-2.321 5.324,-3.453 5.238,-13.709 -5.062,10.012 -43.157,-9.955 -40.091,14.91 z"
             class="e" />
          <g
             id="g46"
             transform="translate(20.003,36.7)">
            <path
               style="fill:#9b4b10"
               inkscape:connector-curvature="0"
               id="path28"
               transform="translate(-604.384,-228.981)"
               d="m 613.938,230.654 a 0.483,0.483 0 1 0 0.337,-0.584 0.476,0.476 0 0 0 -0.337,0.584 z"
               class="f" />
            <path
               style="fill:#9b4b10"
               inkscape:connector-curvature="0"
               id="path30"
               transform="translate(-599.969,-227.321)"
               d="m 606.983,227.879 a 0.353,0.353 0 1 0 0.247,-0.426 0.348,0.348 0 0 0 -0.247,0.426 z"
               class="f" />
            <path
               style="fill:#9b4b10"
               inkscape:connector-curvature="0"
               id="path32"
               transform="translate(-597.212,-230.986)"
               d="m 602.648,233.81 a 0.482,0.482 0 1 0 0.338,-0.584 0.476,0.476 0 0 0 -0.338,0.584 z"
               class="f" />
            <path
               style="fill:#9b4b10"
               inkscape:connector-curvature="0"
               id="path34"
               transform="translate(-594.745,-227.701)"
               d="m 598.762,228.56 a 0.419,0.419 0 1 0 0.293,-0.507 0.414,0.414 0 0 0 -0.293,0.507 z"
               class="f" />
            <path
               style="fill:#9b4b10"
               inkscape:connector-curvature="0"
               id="path36"
               transform="translate(-591.483,-230.877)"
               d="m 593.629,233.656 a 0.5,0.5 0 1 0 0.348,-0.6 0.489,0.489 0 0 0 -0.348,0.6 z"
               class="f" />
            <path
               style="fill:#9b4b10"
               inkscape:connector-curvature="0"
               id="path38"
               transform="translate(-587.775,-233.661)"
               d="m 587.789,237.909 a 0.392,0.392 0 1 0 0.274,-0.475 0.387,0.387 0 0 0 -0.274,0.475 z"
               class="f" />
            <path
               style="fill:#9b4b10"
               inkscape:connector-curvature="0"
               id="path40"
               transform="translate(-609.261,-230.971)"
               d="m 621.614,233.717 a 0.426,0.426 0 1 0 0.3,-0.515 0.421,0.421 0 0 0 -0.3,0.515 z"
               class="f" />
            <path
               style="fill:#9b4b10"
               inkscape:connector-curvature="0"
               id="path42"
               transform="translate(-608.184,-227.115)"
               d="m 619.919,227.647 a 0.426,0.426 0 1 0 0.3,-0.516 0.42,0.42 0 0 0 -0.3,0.516 z"
               class="f" />
            <path
               style="fill:#9b4b10"
               inkscape:connector-curvature="0"
               id="path44"
               transform="translate(-613.809,-229.7)"
               d="m 628.773,231.716 a 0.426,0.426 0 1 0 0.3,-0.515 0.421,0.421 0 0 0 -0.3,0.515 z"
               class="f" />
          </g>
          <g
             id="g50"
             transform="translate(7.566,26.113)">
            <path
               inkscape:connector-curvature="0"
               id="path48"
               transform="translate(-553.679,-198.091)"
               d="m 590.065,198.11 -12.252,1.419 -9.092,1.053 -0.1,0.011 -12.152,1.407 a 3.412,3.412 0 0 0 -2.778,3.77 l 0.005,0.07 0.006,0.068 a 56.318,56.318 0 0 0 1.728,6.259 c 0.467,1.052 1.8,2.989 3.506,2.792 l 9.066,-1.05 c 3.1,-0.359 3.869,-8.019 4.018,-9.836 a 1.812,1.812 0 0 1 1.467,-1.284 1.628,1.628 0 0 1 1.591,0.844 c 0.374,1.584 2.293,9.192 5.447,8.827 l 9.066,-1.05 c 1.7,-0.2 2.725,-2.407 3.025,-3.548 0.371,-1.407 0.75,-6.372 0.769,-6.548 l 0.008,-0.07 -0.006,-0.069 a 3.121,3.121 0 0 0 -3.322,-3.065 z m -19.241,6.538 c -0.19,2.535 -1.114,7.684 -2.926,7.894 l -8.607,1.04 c -1.235,0.246 -1.72,-1.055 -2.128,-1.972 a 47.708,47.708 0 0 1 -1.322,-5.134 c -0.052,-1.105 0.2,-2.027 1.2,-2.142 l 11.793,-1.409 a 1.9,1.9 0 0 1 1.593,0.606 1.473,1.473 0 0 1 0.397,1.116 z m 20.11,2.689 c -0.263,0.995 -0.517,2.5 -1.907,2.716 l -8.607,1.039 c -1.813,0.211 -3.414,-4.6 -3.984,-7.05 a 1.562,1.562 0 0 1 0.225,-1.19 2.078,2.078 0 0 1 1.474,-0.961 l 11.793,-1.409 c 0.994,-0.115 1.6,0.751 1.711,1.848 -0.059,0.57 -0.389,3.808 -0.705,5.006 z" />
          </g>
          <g
             id="g58"
             transform="translate(15.703,32.391)">
            <path
               style="fill:#ffffff"
               inkscape:connector-curvature="0"
               id="path52"
               transform="translate(-583.502,-232.738)"
               d="m 605.49,242.749 -17.673,1.759 c 0,0 3.739,5.936 9.444,5.261 5.639,-0.669 8.128,-5.727 8.229,-7.02 z"
               class="g" />
            <path
               inkscape:connector-curvature="0"
               id="path54"
               transform="translate(-609.031,-215.303)"
               d="m 628.2,218.612 a 2.322,2.322 0 1 0 1.221,-3.146 2.388,2.388 0 0 0 -1.221,3.146 z" />
            <path
               inkscape:connector-curvature="0"
               id="path56"
               transform="translate(-575.986,-219.215)"
               d="m 576.178,224.77 a 2.321,2.321 0 1 0 1.22,-3.146 2.386,2.386 0 0 0 -1.22,3.146 z" />
          </g>
        </g>
      </g>
      <path
         style="fill:#fccfb2"
         inkscape:connector-curvature="0"
         id="path64"
         transform="translate(-518.678,-269.858)"
         d="M 524.072,383.157 A 8.9,8.9 0 0 1 519,376.672 c -1.027,-4.9 0.336,-12.166 5.579,-21.562 0.09,-0.162 0.2,-0.353 0.292,-0.513 l 7.021,2.89 c -3.853,6.728 -6.24,14.138 -5.506,17.639 a 1.389,1.389 0 0 0 0.687,1.1 c 1.288,0.744 5.61,-0.466 13.673,-9.723 a 134.566,134.566 0 0 0 10.685,-14.325 l 6.379,4.033 a 140.417,140.417 0 0 1 -11.373,15.249 53.568,53.568 0 0 1 -10.441,9.644 c -5.446,3.551 -9.396,3.196 -11.924,2.053 z"
         class="c" />
    </g>
    <g
       id="g90"
       transform="translate(193.679,176.78)">
      <path
         style="fill:#444444"
         inkscape:connector-curvature="0"
         id="path68"
         transform="translate(-363.908,-647.807)"
         d="m 437.864,868 a 7.545,7.545 0 0 0 -7.569,7.4 v 44.411 a 7.607,7.607 0 0 0 -7.3,7.4 v 9.36 h 75.141 V 868 Z"
         class="h" />
      <path
         style="fill:#ddd322"
         inkscape:connector-curvature="0"
         id="path70"
         transform="translate(-338.234,-305.414)"
         d="m 382.583,329 c 0,49.972 25.049,105.781 57.806,124.749 h 0.881 a 6.856,6.856 0 1 0 0,13.712 l -20,58.146 h 51.2 V 329 Z"
         class="i" />
      <g
         id="g74"
         transform="translate(0,39.271)">
        <path
           style="fill:#ddd322"
           inkscape:connector-curvature="0"
           id="path72"
           transform="translate(-261,-372)"
           d="m 344.448,450.831 c -40.687,0 -68.158,-46 -72.372,-68.253 h 79.75 V 372 H 261 v 5.391 c 0,11 7.529,31.769 21.98,50.186 17.142,21.846 38.95,33.878 61.484,33.878 a 41.765,41.765 0 0 0 7.362,-0.682 V 450 a 32.892,32.892 0 0 1 -7.378,0.831 z"
           class="i" />
      </g>
      <path
         style="fill:#373737"
         inkscape:connector-curvature="0"
         id="path76"
         transform="translate(-476.345,-647.807)"
         d="M 657.268,919.813 V 875.4 A 7.546,7.546 0 0 0 649.7,868 H 600 v 68.575 h 64.563 v -9.36 a 7.607,7.607 0 0 0 -7.295,-7.402 z"
         class="b" />
      <path
         style="fill:#c6ba1e"
         inkscape:connector-curvature="0"
         id="path78"
         transform="translate(-476.345,-305.414)"
         d="m 620.619,467.449 a 6.85,6.85 0 1 0 0,-13.7 H 621.5 C 654.256,434.781 679.306,378.973 679.306,329 H 600 v 196.607 h 40.62 z"
         class="j" />
      <g
         id="g82"
         transform="translate(156.483,39.271)">
        <path
           style="fill:#c6ba1e"
           inkscape:connector-curvature="0"
           id="path80"
           transform="translate(-690,-372)"
           d="m 697.378,450.831 c 40.687,0 68.158,-46 72.372,-68.253 H 690 V 372 h 90.826 v 5.391 c 0,11 -7.53,31.769 -21.98,50.186 -17.142,21.846 -38.951,33.878 -61.484,33.878 A 41.765,41.765 0 0 1 690,460.773 V 450 a 32.89,32.89 0 0 0 7.378,0.831 z"
           class="j" />
      </g>
      <path
         style="opacity:0.4;fill:#ffffff"
         inkscape:connector-curvature="0"
         id="path84"
         transform="translate(-356.272,-264.339)"
         d="m 431.535,264.339 c 0,0 2.126,28.748 -20.557,34.482 17.013,4.506 18.962,21.341 20.557,39.773 2.658,-17.722 5.671,-38.988 25.874,-40.164 -18.783,-1.305 -22.883,-15.667 -25.874,-34.091 z"
         class="k" />
      <rect
         style="fill:#ddd322"
         y="0"
         x="0"
         id="rect86"
         transform="translate(86.813,234.783)"
         height="32.098999"
         width="47.418999"
         class="i" />
      <rect
         style="fill:#c6ba1e"
         y="0"
         x="0"
         id="rect88"
         transform="translate(123.655,234.783)"
         height="32.098999"
         width="36.841"
         class="j" />
    </g>
    <path
       style="fill:#fccfb2"
       inkscape:connector-curvature="0"
       id="path92"
       transform="translate(-336.764,-117.235)"
       d="m 689.108,313.147 a 4.133,4.133 0 0 1 7.185,4.086 l -3.942,6.933 -7.189,-4.08 z"
       class="c" />
    <path
       style="fill:#fccfb2"
       inkscape:connector-curvature="0"
       id="path94"
       transform="translate(-221.786,-117.235)"
       d="m 511.888,313.147 a 4.133,4.133 0 0 0 -7.185,4.086 l 3.942,6.933 7.189,-4.08 z"
       class="c" />
    <g
       id="g176"
       transform="translate(363.069,245.528)">
      <g
         id="g140"
         transform="translate(0,9.128)">
        <g
           id="g130"
           transform="translate(45.091,112.042)">
          <path
             style="fill:#2b72b6"
             inkscape:connector-curvature="0"
             id="path96"
             transform="translate(-851.541,-785)"
             d="m 853,785 v 17.509 h 26 a 7.693,7.693 0 0 0 7.56,-7.7 V 785 Z"
             class="l" />
          <g
             id="g112"
             transform="translate(0,11.672)">
            <path
               style="fill:#9b6d5c"
               inkscape:connector-curvature="0"
               id="path98"
               transform="translate(-853.446,-820.176)"
               d="m 869.769,865.142 c -2.507,0 -6.093,-1 -8.941,-5.763 a 33.013,33.013 0 0 1 -3.5,-10.31 A 77.115,77.115 0 0 1 856,834.912 V 822 h 6.2 v 12.912 a 73.9,73.9 0 0 0 1.263,13 c 0.66,3.289 2.581,10.938 6.327,10.938 3,0 7.853,-1.726 14.016,-9.949 a 65.71,65.71 0 0 0 8.715,-16.022 l 5.947,2.037 C 896.282,841.3 885,865.142 869.769,865.142 Z"
               class="m" />
            <rect
               style="fill:#2b72b6"
               y="0"
               x="0"
               id="rect100"
               transform="translate(1.459)"
               height="13.861"
               width="8.7539997"
               class="l" />
            <rect
               style="fill:#80b3dd"
               y="0"
               x="0"
               id="rect102"
               transform="translate(0,12.037)"
               height="3.648"
               width="11.672"
               class="n" />
            <g
               id="g110"
               transform="translate(38.018,4.292)">
              <g
                 id="g108">
                <rect
                   style="fill:#ffffff"
                   y="0"
                   x="0"
                   id="rect104"
                   transform="rotate(-69.607,1.8658952,1.297)"
                   height="19.622"
                   width="2.767"
                   class="g" />
                <path
                   style="fill:#373737"
                   inkscape:connector-curvature="0"
                   id="path106"
                   transform="translate(-953.228,-833.285)"
                   d="m 959.833,846.266 -1,2.7 a 2.76,2.76 0 0 1 -1.533,-3.52 l -3.9,-1.453 -0.171,-8.111 18.392,6.837 -0.576,1.55 z"
                   class="b" />
              </g>
            </g>
          </g>
          <g
             id="g128"
             transform="translate(20.062,11.672)">
            <path
               style="fill:#9b6d5c"
               inkscape:connector-curvature="0"
               id="path114"
               transform="translate(-907.811,-820.176)"
               d="m 923.946,865.142 c -2.507,0 -6.093,-1 -8.94,-5.763 A 32.887,32.887 0 0 1 911.413,849.069 81.683,81.683 0 0 1 910,834.912 V 822 h 6.2 v 12.912 a 79.164,79.164 0 0 0 1.351,13 c 0.661,3.289 2.625,10.938 6.371,10.938 4.343,0 9.521,-3.356 14.56,-9.451 a 55.949,55.949 0 0 0 9.062,-15.288 l 5.953,2.037 c -2.543,7.433 -14.753,28.994 -29.551,28.994 z"
               class="m" />
            <rect
               style="fill:#2b72b6"
               y="0"
               x="0"
               id="rect116"
               transform="translate(1.094)"
               height="13.861"
               width="8.7539997"
               class="l" />
            <rect
               style="fill:#80b3dd"
               y="0"
               x="0"
               id="rect118"
               transform="translate(0,12.037)"
               height="3.648"
               width="11.672"
               class="n" />
            <g
               id="g126"
               transform="translate(39.347,4.631)">
              <g
                 id="g124">
                <rect
                   style="fill:#ffffff"
                   y="0"
                   x="0"
                   id="rect120"
                   transform="matrix(0.518,-0.855,0.855,0.518,1.358,2.367)"
                   height="19.622"
                   width="2.767"
                   class="g" />
                <path
                   style="fill:#373737"
                   inkscape:connector-curvature="0"
                   id="path122"
                   transform="translate(-1011.869,-833.818)"
                   d="m 1017.768,847.627 -1.49,2.461 a 2.761,2.761 0 0 1 -0.846,-3.745 l -3.562,-2.161 1.358,-8 16.784,10.164 -0.856,1.414 z"
                   class="b" />
              </g>
            </g>
          </g>
        </g>
        <path
           style="fill:#9b6d5c"
           inkscape:connector-curvature="0"
           id="path132"
           transform="translate(-725.383,-477.837)"
           d="m 751.6,523.839 c -10.752,-5.136 -17.316,-12.82 -18.484,-21.637 -0.868,-6.556 1.328,-13.356 6.348,-19.665 l -5.905,-4.7 c -6.327,7.951 -9.068,16.718 -7.924,25.355 1.513,11.433 9.58,21.184 22.713,27.457 a 72.386,72.386 0 0 0 24.919,6.486 l -1.016,-7.675 A 63.918,63.918 0 0 1 751.6,523.839 Z"
           class="m" />
        <path
           style="fill:#9b6d5c"
           inkscape:connector-curvature="0"
           id="path134"
           transform="translate(-864.033,-480.447)"
           d="M 984.664,481.945 978.5,486.3 c 3.908,5.534 5.638,11.49 5.006,17.222 -0.976,8.841 -7.372,16.666 -18.01,22.033 a 64.179,64.179 0 0 1 -21,6.127 l -0.849,7.686 a 72.6,72.6 0 0 0 25.245,-7.075 c 12.994,-6.556 20.847,-16.479 22.113,-27.942 0.838,-7.596 -1.354,-15.342 -6.341,-22.406 z"
           class="m" />
        <path
           style="fill:#373737"
           inkscape:connector-curvature="0"
           id="path136"
           transform="translate(-780.967,-556.469)"
           d="m 851.117,601.621 v 0.006 h -0.005 c 0.005,0 -14.127,0 -14.108,0 h -0.019 l -23.467,1.473 c -1.425,4.444 0,11.32 0,11.32 l 11.114,5.482 v 0 l 0.206,55.54 h 38.489 l 0.3,-55.54 v 0.028 l 11.067,-5.523 c 0,0 1.234,-6.618 -0.024,-11.314 z"
           class="b" />
        <path
           style="fill:#9b6d5c"
           inkscape:connector-curvature="0"
           id="path138"
           transform="translate(-822.981,-543.64)"
           d="m 879.024,588.8 2.8,-0.251 0.608,-6.87 7.052,-0.256 0.348,7.084 3.3,0.283 a 7.951,7.951 0 0 1 -0.013,1.017 c -0.173,4.336 -3.467,7.694 -7.357,7.5 -3.89,-0.194 -6.9,-3.865 -6.73,-8.2 0.002,-0.069 -0.012,-0.235 -0.008,-0.307 z"
           class="m" />
      </g>
      <g
         id="g174"
         transform="translate(39.837)">
        <path
           style="fill:#9b6d5c"
           inkscape:connector-curvature="0"
           id="path142"
           transform="translate(-834.598,-488.414)"
           d="m 834.641,513.715 a 5.531,5.531 0 1 0 6.176,-4.815 5.537,5.537 0 0 0 -6.176,4.815 z"
           class="m" />
        <path
           style="fill:#9b6d5c"
           inkscape:connector-curvature="0"
           id="path144"
           transform="translate(-842.684,-454.355)"
           d="m 847.515,479.966 c -1.544,11.838 6.578,22.658 18.012,24.149 v 0 c 11.433,1.491 22.059,-6.883 23.6,-18.721 l 0.453,-6 c 1.544,-11.838 -6.27,-22.491 -17.7,-23.982 v 0 c -11.434,-1.491 -21.341,7.1 -22.886,18.933 z"
           class="m" />
        <path
           style="fill:#9b6d5c"
           inkscape:connector-curvature="0"
           id="path146"
           transform="translate(-905.04,-499.075)"
           d="m 945.533,530.5 a 5.531,5.531 0 1 0 6.176,-4.814 5.538,5.538 0 0 0 -6.176,4.814 z"
           class="m" />
        <path
           style="fill:#77564d"
           inkscape:connector-curvature="0"
           id="path148"
           transform="translate(-842.684,-494.084)"
           d="m 865.527,543.844 c 11.433,1.491 22.059,-6.883 23.6,-18.721 l 0.128,-0.981 c 0.013,-0.143 0.029,-0.285 0.05,-0.423 l -2.291,-0.147 c 0,0 -1.9,10.678 -9.37,9.537 -2.639,-0.4 -5.663,-4.364 -10.244,-5.026 -4.793,-0.692 -8.313,2.412 -11.1,2.045 -7.5,-0.986 -6.259,-11.878 -6.259,-11.878 l -2.241,-0.467 c -0.024,0.176 -0.06,0.356 -0.1,0.539 l -0.179,1.373 c -1.55,11.839 6.572,22.658 18.006,24.149 z"
           class="o" />
        <path
           style="fill:#4f3934"
           inkscape:connector-curvature="0"
           id="path150"
           transform="translate(-843.503,-452.811)"
           d="m 891.093,474.07 c 0.433,-6.59 -3.422,-18.585 -17.9,-21.131 -14.571,-1.381 -22,8.769 -23.328,15.238 -0.428,2.083 -1.25,8.335 -1.25,8.335 l 2.241,0.467 c 0,0 1.643,-19.365 12.8,-14.534 a 35.063,35.063 0 0 0 7.846,2.576 29.412,29.412 0 0 0 7.827,-0.133 c 12.036,-1.7 8.508,17.413 8.508,17.413 l 2.3,0.147 c 0,0 0.817,-6.255 0.956,-8.378 z"
           class="p" />
        <g
           id="g172"
           transform="translate(6.367,27.65)">
          <g
             id="g154"
             transform="translate(0,9.203)">
            <path
               style="fill:#a7cbee"
               inkscape:connector-curvature="0"
               id="path152"
               transform="translate(-852.052,-553.845)"
               d="M 852.052,553.845 Z"
               class="q" />
          </g>
          <path
             inkscape:connector-curvature="0"
             id="path156"
             transform="translate(-893.881,-534.89)"
             d="m 925.194,542.475 -6.939,-2.1 a 0.5,0.5 0 0 1 0.087,-0.976 l 7.846,-0.9 a 0.50025793,0.50025793 0 1 1 0.114,0.994 l -4.108,0.951 3.289,1.075 a 0.50032115,0.50032115 0 0 1 -0.289,0.958 z" />
          <g
             id="g170"
             transform="translate(6.985)">
            <path
               inkscape:connector-curvature="0"
               id="path158"
               transform="translate(-871.202,-528.614)"
               d="m 871.227,531.32 a 2.265,2.265 0 1 0 1.9,-2.685 2.329,2.329 0 0 0 -1.9,2.685 z" />
            <g
               id="g168"
               transform="translate(0.973,9.373)">
              <path
                 style="fill:#b22f65"
                 inkscape:connector-curvature="0"
                 id="path160"
                 transform="translate(-873.869,-554.309)"
                 d="m 891.806,557.369 c -1.668,0.833 -4.785,1.052 -8.231,0.437 -3.322,-0.593 -6.1,-1.806 -7.444,-3.111 l -2.262,-0.386 c 8.2,16.845 20.359,3.474 20.359,3.474 z"
                 class="r" />
              <path
                 style="fill:#e25d90"
                 inkscape:connector-curvature="0"
                 id="path162"
                 transform="translate(-890.158,-558.547)"
                 d="m 906.56,565.131 a 3.325,3.325 0 0 1 -3.015,3.608 v 0 a 3.325,3.325 0 0 1 -3.607,-3.016 l -0.425,-4.744 6.749,0.805 z"
                 class="s" />
              <path
                 style="fill:#c6477b"
                 inkscape:connector-curvature="0"
                 id="path164"
                 transform="translate(-895.138,-559.572)"
                 d="m 908.54,567.348 c 0.035,0.384 -0.039,0.7 -0.166,0.715 v 0 c -0.127,0.012 -0.257,-0.29 -0.291,-0.674 l -0.727,-4.247 c -0.051,-0.571 0.3,-0.5 0.527,-0.522 v 0 c 0.223,-0.02 0.5,-0.147 0.547,0.424 z"
                 class="t" />
              <path
                 style="fill:#ffffff"
                 inkscape:connector-curvature="0"
                 id="path166"
                 transform="translate(-877.807,-554.98)"
                 d="m 895.744,558.04 -15.675,-2.674 c 1.349,1.305 4.122,2.519 7.444,3.111 3.446,0.615 6.563,0.397 8.231,-0.437 z"
                 class="g" />
            </g>
          </g>
        </g>
      </g>
    </g>
    <g
       id="g238"
       transform="translate(166.318,227.321)">
      <g
         id="g210"
         transform="translate(0,16.573)">
        <rect
           style="fill:#fccfb2"
           y="0"
           x="0"
           id="rect178"
           transform="translate(48.517,203.052)"
           height="7.6599998"
           width="5.836"
           class="c" />
        <rect
           style="fill:#fccfb2"
           y="0"
           x="0"
           id="rect180"
           transform="translate(26.632,203.052)"
           height="7.6599998"
           width="5.836"
           class="c" />
        <g
           id="g186"
           transform="translate(45.957,207.2)">
          <rect
             style="fill:#ffffff"
             y="0"
             x="0"
             id="rect182"
             transform="translate(0.007,10.443)"
             height="2.553"
             width="19.697001"
             class="g" />
          <path
             style="fill:#373737"
             inkscape:connector-curvature="0"
             id="path184"
             transform="translate(-311.98,-1016.371)"
             d="m 321.836,1019.248 v -2.877 a 2.735,2.735 0 0 0 -2.686,2.765 l -4.643,0.07 -2.527,7.609 h 19.7 v -1.786 z"
             class="b" />
        </g>
        <g
           id="g192"
           transform="translate(23.706,207.105)">
          <rect
             style="fill:#ffffff"
             y="0"
             x="0"
             id="rect188"
             transform="translate(0.007,10.537)"
             height="2.553"
             width="10.943"
             class="g" />
          <path
             style="fill:#373737"
             inkscape:connector-curvature="0"
             id="path190"
             transform="translate(-250.98,-1016.112)"
             d="m 253.747,1018.989 h 0.516 a 2.647,2.647 0 1 1 5.274,0 h 0.247 l 2.145,7.66 H 250.98 Z"
             class="b" />
        </g>
        <g
           id="g204"
           transform="translate(8.603,56.805)">
          <path
             style="fill:#2b72b6"
             inkscape:connector-curvature="0"
             id="path194"
             transform="translate(-231.442,-722.177)"
             d="m 244,790 v 12.019 a 13.7,13.7 0 0 0 3.956,5.9 l 0.265,60.506 h 8.572 l -0.131,-59.835 13.17,0.119 0.048,59.716 h 8.043 V 790 Z"
             class="l" />
          <rect
             style="fill:#80b3dd"
             y="0"
             x="0"
             id="rect196"
             transform="translate(37.726,142.234)"
             height="4.0120001"
             width="9.849"
             class="n" />
          <rect
             style="fill:#80b3dd"
             y="0"
             x="0"
             id="rect198"
             transform="translate(15.841,142.234)"
             height="4.0120001"
             width="10.213"
             class="n" />
          <path
             style="fill:#fccfb2"
             inkscape:connector-curvature="0"
             id="path200"
             transform="translate(-293.593,-640.813)"
             d="m 352.312,724.151 -7.512,-0.729 a 282.994,282.994 0 0 0 1.166,-29.467 C 345.653,682.54 341.875,663.59 341.837,663.4 l 7.4,-1.484 c 0.161,0.8 3.943,19.77 4.274,31.832 a 285.208,285.208 0 0 1 -1.199,30.403 z"
             class="c" />
          <path
             style="fill:#373737"
             inkscape:connector-curvature="0"
             id="path202"
             transform="translate(-209.573,-604.063)"
             d="m 258.242,632.257 10.118,-4.063 c -0.9,-11.074 -11.864,-24.131 -29.34,-24.131 -17.476,0 -28.55,13.057 -29.447,24.131 l 10,4.063 v 51.666 h 38.665 z"
             class="b" />
        </g>
        <path
           style="fill:#fccfb2"
           inkscape:connector-curvature="0"
           id="path206"
           transform="translate(-185.989,-589.665)"
           d="m 231.77,690.956 a 1.255,1.255 0 0 0 -1.236,-1.258 H 224.3 c 0.3,-1.006 0.966,-2.833 0.763,-3.644 a 5.143,5.143 0 0 0 -1.218,-2.682 c -0.569,-0.4 -1.454,-0.091 -1.454,0.42 v 2.954 l -3.13,4.21 c 0,0 -11.132,0.341 -12.63,0.372 a 72.439,72.439 0 0 1 -12.618,-0.494 142.761,142.761 0 0 1 8.251,-17.183 l -7.03,-2.829 c -0.927,1.727 -1.963,3.69 -3,5.718 -6.776,13.3 -6.379,15.584 -6.142,16.95 0.711,4.085 5.891,4.719 8.1,4.989 a 78.835,78.835 0 0 0 9.171,0.431 c 0.431,0 15.862,-0.161 15.862,-0.161 a 7.473,7.473 0 0 0 3.465,0.761 h 6.136 a 1.258,1.258 0 0 0 0,-2.516 h 0.6 a 1.136,1.136 0 1 0 0,-2.264 h 0.682 a 1.258,1.258 0 0 0 0,-2.515 h 0.426 a 1.255,1.255 0 0 0 1.236,-1.259 z"
           class="c" />
        <path
           style="fill:#373737"
           inkscape:connector-curvature="0"
           id="path208"
           transform="translate(-202.347,-448.331)"
           d="m 267.974,480.828 c -1.3,-8.438 -5.437,-30.952 -26.229,-32.423 v -0.05 c 0,0 -0.157,-0.011 -0.275,-0.014 -0.467,-0.013 -0.886,-0.013 -1.338,-0.006 -0.452,0.007 -0.9,-0.007 -1.369,0.006 -0.119,0 -0.3,0.01 -0.3,0.014 v 0.048 c -20.791,1.443 -24.9,23.982 -26.206,32.425 -1.2,9.368 0.073,21.15 0.073,21.15 36.1,4.529 55.645,0 55.645,0 0,0 1.201,-11.778 -0.001,-21.15 z"
           class="b" />
      </g>
      <g
         id="g236"
         transform="translate(9.583)">
        <g
           id="g222"
           transform="translate(2.673,18.755)">
          <path
             style="fill:#fccfb2"
             inkscape:connector-curvature="0"
             id="path212"
             transform="translate(-252.205,-537.907)"
             d="m 285.054,593.285 a 25.569,25.569 0 0 0 -2.767,-0.482 l -0.637,-6.638 -7.051,-0.256 -0.269,6.817 a 21.506,21.506 0 0 0 -3.383,0.549 8.065,8.065 0 0 0 0.014,1.018 c 0.173,4.336 3.467,7.693 7.357,7.5 3.89,-0.193 6.9,-3.864 6.73,-8.2 -0.003,-0.072 0.011,-0.238 0.006,-0.308 z"
             class="c" />
          <path
             style="fill:#fccfb2"
             inkscape:connector-curvature="0"
             id="path214"
             transform="translate(-228.267,-456.192)"
             d="m 274.334,485.051 a 20.48,20.48 0 0 1 -20.14,20.814 v 0 A 20.48,20.48 0 0 1 233.38,485.724 l -0.125,-7.637 a 20.481,20.481 0 0 1 20.14,-20.815 v 0 a 20.481,20.481 0 0 1 20.815,20.141 z"
             class="c" />
          <path
             style="fill:#fccfb2"
             inkscape:connector-curvature="0"
             id="path216"
             transform="translate(-219.588,-495.565)"
             d="m 230.578,524.669 a 5.5,5.5 0 1 1 -5.585,-5.417 5.5,5.5 0 0 1 5.585,5.417 z"
             class="c" />
          <path
             style="fill:#373737"
             inkscape:connector-curvature="0"
             id="path218"
             transform="translate(-226.645,-454.314)"
             d="m 236.163,503.409 -5.2,1.255 c 0,0 -0.8,-21.136 0.366,-32.644 0,0 2.448,-11.657 5.33,-14.075 3.723,-3.125 19.1,-3.631 19.1,-3.631 0,0 -18.28,7.045 -19.596,49.095 z"
             class="b" />
          <path
             style="fill:#373737"
             inkscape:connector-curvature="0"
             id="path220"
             transform="translate(-267.5,-461.627)"
             d="m 295.012,466.066 23.308,38.29 c 0,0 2.07,-18.038 -4.521,-27.275 -9.882,-13.85 -18.787,-11.015 -18.787,-11.015 z"
             class="b" />
        </g>
        <path
           style="fill:#ee509c"
           inkscape:connector-curvature="0"
           id="path224"
           transform="translate(-217.014,-402.896)"
           d="m 219.931,442.452 c -1.372,-6.511 5.2,-24.958 5.414,-31.829 0.151,-4.975 4.373,-6.774 7.418,-7.4 3.871,-0.8 8.983,-0.263 10.833,3.262 2.286,4.359 7.8,8.356 9.4,9.55 4.886,3.645 12.063,11.558 13.42,17.994 z"
           class="u" />
        <path
           style="fill:#d84c96"
           inkscape:connector-curvature="0"
           id="path226"
           transform="translate(-212.26,-446.344)"
           d="m 265.8,480.662 a 0.817,0.817 0 0 1 -0.769,0.833 l -51.794,8.3 a 0.817,0.817 0 0 1 -0.977,-0.575 l 0.38,-9.573 a 0.817,0.817 0 0 1 0.769,-0.833 l 47.776,-7.516 a 0.817,0.817 0 0 1 0.977,0.575 z"
           class="v" />
        <g
           id="g234"
           transform="translate(17.197,45.925)">
          <path
             style="fill:#ffffff"
             inkscape:connector-curvature="0"
             id="path228"
             transform="translate(-265.429,-547.035)"
             d="m 286.645,557.838 -17.757,-0.331 c 0,0 3.015,6.334 8.759,6.334 5.676,0 8.746,-4.732 8.998,-6.003 z"
             class="g" />
          <path
             inkscape:connector-curvature="0"
             id="path230"
             transform="translate(-292.682,-528.799)"
             d="m 311.884,531.859 a 2.322,2.322 0 1 0 1.582,-2.981 2.387,2.387 0 0 0 -1.582,2.981 z" />
          <path
             inkscape:connector-curvature="0"
             id="path232"
             transform="translate(-259.406,-528.799)"
             d="m 259.5,531.859 a 2.321,2.321 0 1 0 1.582,-2.981 2.386,2.386 0 0 0 -1.582,2.981 z" />
        </g>
      </g>
    </g>
  </g>
  <g
     aria-label="CODE"
     style="font-size:40px;font-family:OCRAStd, 'OCR A Std';fill:#373737"
     id="text244">
    <path
       d="m 128.28,138.49001 c 0.92,0 2,-0.56 2,-2 0,-1.52 -1.12,-2 -2,-2 h -6.52 c -1.8,0 -2.2,-0.12 -3,-1.76 l -3.4,-6.92 c -0.48,-0.96 -0.84,-1.64 -0.84,-2.76 0,-1.24 0.32,-1.96 0.84,-3.04 l 3.48,-6.96 c 0.76,-1.52 1.04,-1.68 2.76,-1.68 h 6.68 c 0.92,0 2,-0.56 2,-2 0,-1.52 -1.12,-2 -2,-2 h -6.8 c -3.08,0 -4.8,1.08 -6.16,3.84 l -3.68,7.4 c -0.8,1.6 -1.12,2.68 -1.12,4.44 0,1.56 0.4,2.84 1.08,4.2 l 3.68,7.44 c 1.28,2.6 3,3.8 6,3.8 z"
       style=""
       id="path1179" />
    <path
       d="m 154.06812,110.65001 c -0.96,-1.88 -2.6,-3.28 -4.84,-3.28 -2.24,0 -3.88,1.4 -4.84,3.28 l -4,7.96 c -0.76,1.56 -1.04,2.72 -1.04,4.44 0,1.92 0.52,3.12 1.32,4.76 l 3.68,7.36 c 0.96,1.92 2.56,3.32 4.88,3.32 2.32,0 3.92,-1.4 4.88,-3.32 l 3.68,-7.36 c 0.8,-1.64 1.32,-2.84 1.32,-4.76 0,-1.72 -0.28,-2.88 -1.04,-4.44 z m 0.12001,9.16 c 0.59999,1.16 0.91999,1.92 0.91999,3.24 0,1.04 -0.24,1.76 -0.68,2.64 l -3.84,7.6 c -0.28,0.56 -0.56,1.2 -1.36,1.2 -0.8,0 -1.08,-0.64 -1.36,-1.2 l -3.84,-7.6 c -0.44,-0.88 -0.68,-1.6 -0.68,-2.64 0,-1.32 0.32,-2.08 0.92,-3.24 l 3.6,-7.24 c 0.32001,-0.64 0.52,-1.2 1.36,-1.2 0.84,0 1.04,0.56 1.36,1.2 z"
       style=""
       id="path1181" />
    <path
       d="m 172.09625,134.49001 h -1.92 c -1.04,0 -2,0.56 -2,2 0,1.44 0.96,2 2,2 h 6.64 c 3.12,0 4.92,-0.92 6.32,-3.76 l 3.64,-7.28 c 0.72,-1.44 1.16,-2.8 1.16,-4.4 0,-1.84 -0.4,-3 -1.2,-4.64 l -3.52,-7.04 c -1.36,-2.72 -2.92,-4 -6.04,-4 h -6.68 c -1.24,0 -2.32,0.56 -2.32,2 0,1.52 1.12,2 2.44,2 h 1.48 z m 4,-23.12 h 0.48 c 1.84,0 2.2,-0.04 3.04,1.68 l 3.32,6.76 c 0.56,1.16 1,1.92 1,3.28 0,1 -0.32,1.68 -0.76,2.6 l -3.52,7.12 c -0.72,1.48 -1.12,1.68 -2.8,1.68 h -0.76 z"
       style=""
       id="path1183" />
    <path
       d="m 201.00437,134.49001 v -9.56 h 5.88 c 1.04,0 2,-0.56 2,-2 0,-1.44 -0.96,-2 -2,-2 h -5.88 v -9.56 h 13.76 c 1.04,0 2,-0.56 2,-2 0,-1.44 -0.96,-2 -2,-2 h -17.76 v 31.12 h 17.76 c 1.04,0 2,-0.56 2,-2 0,-1.44 -0.96,-2 -2,-2 z"
       style=""
       id="path1185" />
  </g>
</svg>
