<svg xmlns="http://www.w3.org/2000/svg" width="335.191" height="345.819" viewBox="0 0 335.191 345.819"><defs><style>.a{fill:#d1d1d1;opacity:0.6;}.b,.w{fill:#373737;}.c{fill:#fccfb2;}.d{fill:#ba6338;}.e{fill:#a55532;}.f{fill:#9b4b10;}.g,.k{fill:#fff;}.h{fill:#444;}.i{fill:#ddd322;}.j{fill:#c6ba1e;}.k{opacity:0.4;}.l{fill:#2b72b6;}.m{fill:#9b6d5c;}.n{fill:#80b3dd;}.o{fill:#77564d;}.p{fill:#4f3934;}.q{fill:#a7cbee;}.r{fill:#b22f65;}.s{fill:#e25d90;}.t{fill:#c6477b;}.u{fill:#ee509c;}.v{fill:#d84c96;}.w{font-size:40px;font-family:OCRAStd, OCR A Std;}</style></defs><g transform="translate(-798 -293.51)"><g transform="translate(642.977 167.007)"><path class="a" d="M487.669,1043.545c0-3-74.466-5.43-166.323-5.43s-166.323,2.431-166.323,5.43,41.608,7.867,145.383,7.867C392.264,1051.412,487.669,1046.543,487.669,1043.545Z" transform="translate(0 -579.09)"/><g transform="translate(287.671 126.503)"><g transform="translate(4.193)"><g transform="translate(0 53.367)"><g transform="translate(0 6.648)"><path class="b" d="M578.722,319.379l10.147-3.983c-.811-11.08-11.676-24.223-29.152-24.36s-28.561,12.835-29.545,23.9l10.062,4.142s3.342,13.988,3.254,23.523c-.117,12.686-3.657,27.985-3.657,27.985l38.488.3Z" transform="translate(-530.172 -291.035)"/></g><path class="c" d="M605.9,280.268a25.466,25.466,0,0,0-2.763-.5l-.585-6.644-7.049-.312-.322,6.815a21.493,21.493,0,0,0-3.387.523,7.968,7.968,0,0,0,.005,1.017c.139,4.337,3.407,7.721,7.3,7.558s6.933-3.81,6.794-8.147C605.887,280.5,605.9,280.339,605.9,280.268Z" transform="translate(-569.305 -272.81)"/></g><g transform="translate(1.009)"><path class="c" d="M656.008,205.294a5.523,5.523,0,1,1-5.924-5.1A5.529,5.529,0,0,1,656.008,205.294Z" transform="translate(-604.109 -173.301)"/><path class="c" d="M588.021,172.667a20.585,20.585,0,0,1-18.978,22.075h0a20.584,20.584,0,0,1-22.074-18.979l-.576-7.656c-.345-4.57-1.343-10.971.925-14.572,3.359-5.331,11.287-6.991,18.052-7.5h0a20.585,20.585,0,0,1,22.075,18.979Z" transform="translate(-541.155 -138.872)"/><path class="c" d="M543.969,216a5.523,5.523,0,1,1-5.924-5.105A5.53,5.53,0,0,1,543.969,216Z" transform="translate(-532.937 -180.101)"/><path class="d" d="M545.727,186.563a8.233,8.233,0,0,1-1.195-.746s-3.369-5.967-2.68-10.562a22.028,22.028,0,0,1,2.589-7.3l5.677,4C548.369,175.154,545.921,179.261,545.727,186.563Z" transform="translate(-538.541 -152.832)"/><path class="d" d="M639.992,161.765l3.842-2.005s4.53,5.056,3.781,14.819l-.457.22S645.8,165.279,639.992,161.765Z" transform="translate(-600.942 -147.629)"/><path class="e" d="M549.12,141.413l5.7,3.966s20.365-.363,29.153-5.167c4.247-2.321,5.324-3.453,5.238-13.709C584.149,136.515,546.054,116.548,549.12,141.413Z" transform="translate(-543.106 -126.503)"/><g transform="translate(20.003 36.7)"><path class="f" d="M613.938,230.654a.483.483,0,1,0,.337-.584A.476.476,0,0,0,613.938,230.654Z" transform="translate(-604.384 -228.981)"/><path class="f" d="M606.983,227.879a.353.353,0,1,0,.247-.426A.348.348,0,0,0,606.983,227.879Z" transform="translate(-599.969 -227.321)"/><path class="f" d="M602.648,233.81a.482.482,0,1,0,.338-.584A.476.476,0,0,0,602.648,233.81Z" transform="translate(-597.212 -230.986)"/><path class="f" d="M598.762,228.56a.419.419,0,1,0,.293-.507A.414.414,0,0,0,598.762,228.56Z" transform="translate(-594.745 -227.701)"/><path class="f" d="M593.629,233.656a.5.5,0,1,0,.348-.6A.489.489,0,0,0,593.629,233.656Z" transform="translate(-591.483 -230.877)"/><path class="f" d="M587.789,237.909a.392.392,0,1,0,.274-.475A.387.387,0,0,0,587.789,237.909Z" transform="translate(-587.775 -233.661)"/><path class="f" d="M621.614,233.717a.426.426,0,1,0,.3-.515A.421.421,0,0,0,621.614,233.717Z" transform="translate(-609.261 -230.971)"/><path class="f" d="M619.919,227.647a.426.426,0,1,0,.3-.516A.42.42,0,0,0,619.919,227.647Z" transform="translate(-608.184 -227.115)"/><path class="f" d="M628.773,231.716a.426.426,0,1,0,.3-.515A.421.421,0,0,0,628.773,231.716Z" transform="translate(-613.809 -229.7)"/></g><g transform="translate(7.566 26.113)"><path d="M590.065,198.11l-12.252,1.419-9.092,1.053-.1.011L556.469,202a3.412,3.412,0,0,0-2.778,3.77l.005.07.006.068a56.318,56.318,0,0,0,1.728,6.259c.467,1.052,1.8,2.989,3.506,2.792l9.066-1.05c3.1-.359,3.869-8.019,4.018-9.836a1.812,1.812,0,0,1,1.467-1.284,1.628,1.628,0,0,1,1.591.844c.374,1.584,2.293,9.192,5.447,8.827l9.066-1.05c1.7-.2,2.725-2.407,3.025-3.548.371-1.407.75-6.372.769-6.548l.008-.07-.006-.069A3.121,3.121,0,0,0,590.065,198.11Zm-19.241,6.538c-.19,2.535-1.114,7.684-2.926,7.894l-8.607,1.04c-1.235.246-1.72-1.055-2.128-1.972a47.708,47.708,0,0,1-1.322-5.134c-.052-1.105.2-2.027,1.2-2.142l11.793-1.409a1.9,1.9,0,0,1,1.593.606A1.473,1.473,0,0,1,570.824,204.647Zm20.11,2.689c-.263.995-.517,2.5-1.907,2.716l-8.607,1.039c-1.813.211-3.414-4.6-3.984-7.05a1.562,1.562,0,0,1,.225-1.19,2.078,2.078,0,0,1,1.474-.961l11.793-1.409c.994-.115,1.6.751,1.711,1.848C591.58,202.9,591.25,206.138,590.934,207.336Z" transform="translate(-553.679 -198.091)"/></g><g transform="translate(15.703 32.391)"><path class="g" d="M605.49,242.749l-17.673,1.759s3.739,5.936,9.444,5.261C602.9,249.1,605.389,244.042,605.49,242.749Z" transform="translate(-583.502 -232.738)"/><path d="M628.2,218.612a2.322,2.322,0,1,0,1.221-3.146A2.388,2.388,0,0,0,628.2,218.612Z" transform="translate(-609.031 -215.303)"/><path d="M576.178,224.77a2.321,2.321,0,1,0,1.22-3.146A2.386,2.386,0,0,0,576.178,224.77Z" transform="translate(-575.986 -219.215)"/></g></g></g><path class="c" d="M524.072,383.157A8.9,8.9,0,0,1,519,376.672c-1.027-4.9.336-12.166,5.579-21.562.09-.162.2-.353.292-.513l7.021,2.89c-3.853,6.728-6.24,14.138-5.506,17.639a1.389,1.389,0,0,0,.687,1.1c1.288.744,5.61-.466,13.673-9.723a134.566,134.566,0,0,0,10.685-14.325l6.379,4.033a140.417,140.417,0,0,1-11.373,15.249,53.568,53.568,0,0,1-10.441,9.644C530.55,384.655,526.6,384.3,524.072,383.157Z" transform="translate(-518.678 -269.858)"/></g><g transform="translate(193.679 176.78)"><path class="h" d="M437.864,868a7.545,7.545,0,0,0-7.569,7.4v44.411a7.607,7.607,0,0,0-7.3,7.4v9.36h75.141V868Z" transform="translate(-363.908 -647.807)"/><path class="i" d="M382.583,329c0,49.972,25.049,105.781,57.806,124.749h.881a6.856,6.856,0,1,0,0,13.712l-20,58.146h51.2V329Z" transform="translate(-338.234 -305.414)"/><g transform="translate(0 39.271)"><path class="i" d="M344.448,450.831c-40.687,0-68.158-46-72.372-68.253h79.75V372H261v5.391c0,11,7.529,31.769,21.98,50.186,17.142,21.846,38.95,33.878,61.484,33.878a41.765,41.765,0,0,0,7.362-.682V450A32.892,32.892,0,0,1,344.448,450.831Z" transform="translate(-261 -372)"/></g><path class="b" d="M657.268,919.813V875.4A7.546,7.546,0,0,0,649.7,868H600v68.575h64.563v-9.36A7.607,7.607,0,0,0,657.268,919.813Z" transform="translate(-476.345 -647.807)"/><path class="j" d="M620.619,467.449a6.85,6.85,0,1,0,0-13.7h.881c32.756-18.968,57.806-74.776,57.806-124.749H600V525.607h40.62Z" transform="translate(-476.345 -305.414)"/><g transform="translate(156.483 39.271)"><path class="j" d="M697.378,450.831c40.687,0,68.158-46,72.372-68.253H690V372h90.826v5.391c0,11-7.53,31.769-21.98,50.186-17.142,21.846-38.951,33.878-61.484,33.878a41.765,41.765,0,0,1-7.362-.682V450A32.89,32.89,0,0,0,697.378,450.831Z" transform="translate(-690 -372)"/></g><path class="k" d="M431.535,264.339s2.126,28.748-20.557,34.482c17.013,4.506,18.962,21.341,20.557,39.773,2.658-17.722,5.671-38.988,25.874-40.164C438.626,297.125,434.526,282.763,431.535,264.339Z" transform="translate(-356.272 -264.339)"/><rect class="i" width="47.419" height="32.099" transform="translate(86.813 234.783)"/><rect class="j" width="36.841" height="32.099" transform="translate(123.655 234.783)"/></g><path class="c" d="M689.108,313.147a4.133,4.133,0,0,1,7.185,4.086l-3.942,6.933-7.189-4.08Z" transform="translate(-336.764 -117.235)"/><path class="c" d="M511.888,313.147a4.133,4.133,0,0,0-7.185,4.086l3.942,6.933,7.189-4.08Z" transform="translate(-221.786 -117.235)"/><g transform="translate(363.069 245.528)"><g transform="translate(0 9.128)"><g transform="translate(45.091 112.042)"><path class="l" d="M853,785v17.509h26a7.693,7.693,0,0,0,7.56-7.7V785Z" transform="translate(-851.541 -785)"/><g transform="translate(0 11.672)"><path class="m" d="M869.769,865.142c-2.507,0-6.093-1-8.941-5.763a33.013,33.013,0,0,1-3.5-10.31A77.115,77.115,0,0,1,856,834.912V822h6.2v12.912a73.9,73.9,0,0,0,1.263,13c.66,3.289,2.581,10.938,6.327,10.938,3,0,7.853-1.726,14.016-9.949a65.71,65.71,0,0,0,8.715-16.022l5.947,2.037C896.282,841.3,885,865.142,869.769,865.142Z" transform="translate(-853.446 -820.176)"/><rect class="l" width="8.754" height="13.861" transform="translate(1.459)"/><rect class="n" width="11.672" height="3.648" transform="translate(0 12.037)"/><g transform="translate(38.018 4.292)"><g transform="translate(0 0)"><rect class="g" width="2.767" height="19.622" transform="translate(0 2.594) rotate(-69.607)"/><path class="b" d="M959.833,846.266l-1,2.7a2.76,2.76,0,0,1-1.533-3.52l-3.9-1.453-.171-8.111,18.392,6.837-.576,1.55Z" transform="translate(-953.228 -833.285)"/></g></g></g><g transform="translate(20.062 11.672)"><path class="m" d="M923.946,865.142c-2.507,0-6.093-1-8.94-5.763a32.887,32.887,0,0,1-3.593-10.31A81.683,81.683,0,0,1,910,834.912V822h6.2v12.912a79.164,79.164,0,0,0,1.351,13c.661,3.289,2.625,10.938,6.371,10.938,4.343,0,9.521-3.356,14.56-9.451a55.949,55.949,0,0,0,9.062-15.288l5.953,2.037C950.954,843.581,938.744,865.142,923.946,865.142Z" transform="translate(-907.811 -820.176)"/><rect class="l" width="8.754" height="13.861" transform="translate(1.094)"/><rect class="n" width="11.672" height="3.648" transform="translate(0 12.037)"/><g transform="translate(39.347 4.631)"><g transform="translate(0 0)"><rect class="g" width="2.767" height="19.622" transform="matrix(0.518, -0.855, 0.855, 0.518, 1.358, 2.367)"/><path class="b" d="M1017.768,847.627l-1.49,2.461a2.761,2.761,0,0,1-.846-3.745l-3.562-2.161,1.358-8,16.784,10.164-.856,1.414Z" transform="translate(-1011.869 -833.818)"/></g></g></g></g><path class="m" d="M751.6,523.839c-10.752-5.136-17.316-12.82-18.484-21.637-.868-6.556,1.328-13.356,6.348-19.665l-5.905-4.7c-6.327,7.951-9.068,16.718-7.924,25.355,1.513,11.433,9.58,21.184,22.713,27.457a72.386,72.386,0,0,0,24.919,6.486l-1.016-7.675A63.918,63.918,0,0,1,751.6,523.839Z" transform="translate(-725.383 -477.837)"/><path class="m" d="M984.664,481.945,978.5,486.3c3.908,5.534,5.638,11.49,5.006,17.222-.976,8.841-7.372,16.666-18.01,22.033a64.179,64.179,0,0,1-21,6.127l-.849,7.686a72.6,72.6,0,0,0,25.245-7.075c12.994-6.556,20.847-16.479,22.113-27.942C991.843,496.755,989.651,489.009,984.664,481.945Z" transform="translate(-864.033 -480.447)"/><path class="b" d="M851.117,601.621l0,.006h-.005c.005,0-14.127,0-14.108,0l-.019,0L813.518,603.1c-1.425,4.444,0,11.32,0,11.32l11.114,5.482h0l.206,55.54h38.489l.3-55.54v.028l11.067-5.523s1.234-6.618-.024-11.314Z" transform="translate(-780.967 -556.469)"/><path class="m" d="M879.024,588.8l2.8-.251.608-6.87,7.052-.256.348,7.084,3.3.283a7.951,7.951,0,0,1-.013,1.017c-.173,4.336-3.467,7.694-7.357,7.5s-6.9-3.865-6.73-8.2C879.034,589.038,879.02,588.872,879.024,588.8Z" transform="translate(-822.981 -543.64)"/></g><g transform="translate(39.837 0)"><path class="m" d="M834.641,513.715a5.531,5.531,0,1,0,6.176-4.815A5.537,5.537,0,0,0,834.641,513.715Z" transform="translate(-834.598 -488.414)"/><path class="m" d="M847.515,479.966c-1.544,11.838,6.578,22.658,18.012,24.149h0c11.433,1.491,22.059-6.883,23.6-18.721l.453-6c1.544-11.838-6.27-22.491-17.7-23.982h0c-11.434-1.491-21.341,7.1-22.886,18.933Z" transform="translate(-842.684 -454.355)"/><path class="m" d="M945.533,530.5a5.531,5.531,0,1,0,6.176-4.814A5.538,5.538,0,0,0,945.533,530.5Z" transform="translate(-905.04 -499.075)"/><path class="o" d="M865.527,543.844c11.433,1.491,22.059-6.883,23.6-18.721l.128-.981c.013-.143.029-.285.05-.423l-2.291-.147s-1.9,10.678-9.37,9.537c-2.639-.4-5.663-4.364-10.244-5.026-4.793-.692-8.313,2.412-11.1,2.045-7.5-.986-6.259-11.878-6.259-11.878l-2.241-.467c-.024.176-.06.356-.1.539l-.179,1.373C845.971,531.534,854.093,542.353,865.527,543.844Z" transform="translate(-842.684 -494.084)"/><path class="p" d="M891.093,474.07c.433-6.59-3.422-18.585-17.9-21.131-14.571-1.381-22,8.769-23.328,15.238-.428,2.083-1.25,8.335-1.25,8.335l2.241.467s1.643-19.365,12.8-14.534a35.063,35.063,0,0,0,7.846,2.576,29.412,29.412,0,0,0,7.827-.133c12.036-1.7,8.508,17.413,8.508,17.413l2.3.147S890.954,476.193,891.093,474.07Z" transform="translate(-843.503 -452.811)"/><g transform="translate(6.367 27.65)"><g transform="translate(0 9.203)"><path class="q" d="M852.052,553.845l0,0,0,0Z" transform="translate(-852.052 -553.845)"/></g><path d="M925.194,542.475l-6.939-2.1a.5.5,0,0,1,.087-.976l7.846-.9a.5.5,0,1,1,.114.994l-4.108.951,3.289,1.075a.5.5,0,0,1-.289.958Z" transform="translate(-893.881 -534.89)"/><g transform="translate(6.985)"><path d="M871.227,531.32a2.265,2.265,0,1,0,1.9-2.685A2.329,2.329,0,0,0,871.227,531.32Z" transform="translate(-871.202 -528.614)"/><g transform="translate(0.973 9.373)"><path class="r" d="M891.806,557.369c-1.668.833-4.785,1.052-8.231.437-3.322-.593-6.1-1.806-7.444-3.111l-2.262-.386c8.2,16.845,20.359,3.474,20.359,3.474Z" transform="translate(-873.869 -554.309)"/><path class="s" d="M906.56,565.131a3.325,3.325,0,0,1-3.015,3.608h0a3.325,3.325,0,0,1-3.607-3.016l-.425-4.744,6.749.805Z" transform="translate(-890.158 -558.547)"/><path class="t" d="M908.54,567.348c.035.384-.039.7-.166.715h0c-.127.012-.257-.29-.291-.674l-.727-4.247c-.051-.571.3-.5.527-.522h0c.223-.02.5-.147.547.424Z" transform="translate(-895.138 -559.572)"/><path class="g" d="M895.744,558.04l-15.675-2.674c1.349,1.305,4.122,2.519,7.444,3.111C890.959,559.092,894.076,558.874,895.744,558.04Z" transform="translate(-877.807 -554.98)"/></g></g></g></g></g><g transform="translate(166.318 227.321)"><g transform="translate(0 16.573)"><rect class="c" width="5.836" height="7.66" transform="translate(48.517 203.052)"/><rect class="c" width="5.836" height="7.66" transform="translate(26.632 203.052)"/><g transform="translate(45.957 207.2)"><rect class="g" width="19.697" height="2.553" transform="translate(0.007 10.443)"/><path class="b" d="M321.836,1019.248v-2.877a2.735,2.735,0,0,0-2.686,2.765l-4.643.07-2.527,7.609h19.7v-1.786Z" transform="translate(-311.98 -1016.371)"/></g><g transform="translate(23.706 207.105)"><rect class="g" width="10.943" height="2.553" transform="translate(0.007 10.537)"/><path class="b" d="M253.747,1018.989h.516a2.647,2.647,0,1,1,5.274,0h.247l2.145,7.66H250.98Z" transform="translate(-250.98 -1016.112)"/></g><g transform="translate(8.603 56.805)"><path class="l" d="M244,790v12.019a13.7,13.7,0,0,0,3.956,5.9l.265,60.506h8.572l-.131-59.835,13.17.119.048,59.716h8.043V790Z" transform="translate(-231.442 -722.177)"/><rect class="n" width="9.849" height="4.012" transform="translate(37.726 142.234)"/><rect class="n" width="10.213" height="4.012" transform="translate(15.841 142.234)"/><path class="c" d="M352.312,724.151l-7.512-.729a282.994,282.994,0,0,0,1.166-29.467c-.313-11.415-4.091-30.365-4.129-30.555l7.4-1.484c.161.8,3.943,19.77,4.274,31.832A285.208,285.208,0,0,1,352.312,724.151Z" transform="translate(-293.593 -640.813)"/><path class="b" d="M258.242,632.257l10.118-4.063c-.9-11.074-11.864-24.131-29.34-24.131s-28.55,13.057-29.447,24.131l10,4.063v51.666h38.665Z" transform="translate(-209.573 -604.063)"/></g><path class="c" d="M231.77,690.956a1.255,1.255,0,0,0-1.236-1.258H224.3c.3-1.006.966-2.833.763-3.644a5.143,5.143,0,0,0-1.218-2.682c-.569-.4-1.454-.091-1.454.42v2.954l-3.13,4.21s-11.132.341-12.63.372a72.439,72.439,0,0,1-12.618-.494,142.761,142.761,0,0,1,8.251-17.183l-7.03-2.829c-.927,1.727-1.963,3.69-3,5.718-6.776,13.3-6.379,15.584-6.142,16.95.711,4.085,5.891,4.719,8.1,4.989a78.835,78.835,0,0,0,9.171.431c.431,0,15.862-.161,15.862-.161a7.473,7.473,0,0,0,3.465.761h6.136a1.258,1.258,0,0,0,0-2.516h.6a1.136,1.136,0,1,0,0-2.264h.682a1.258,1.258,0,0,0,0-2.515h.426A1.255,1.255,0,0,0,231.77,690.956Z" transform="translate(-185.989 -589.665)"/><path class="b" d="M267.974,480.828c-1.3-8.438-5.437-30.952-26.229-32.423v-.05s-.157-.011-.275-.014c-.467-.013-.886-.013-1.338-.006s-.9-.007-1.369.006c-.119,0-.3.01-.3.014v.048c-20.791,1.443-24.9,23.982-26.206,32.425-1.2,9.368.073,21.15.073,21.15,36.1,4.529,55.645,0,55.645,0S269.176,490.2,267.974,480.828Z" transform="translate(-202.347 -448.331)"/></g><g transform="translate(9.583 0)"><g transform="translate(2.673 18.755)"><path class="c" d="M285.054,593.285a25.569,25.569,0,0,0-2.767-.482l-.637-6.638-7.051-.256-.269,6.817a21.506,21.506,0,0,0-3.383.549,8.065,8.065,0,0,0,.014,1.018c.173,4.336,3.467,7.693,7.357,7.5s6.9-3.864,6.73-8.2C285.045,593.521,285.059,593.355,285.054,593.285Z" transform="translate(-252.205 -537.907)"/><path class="c" d="M274.334,485.051a20.48,20.48,0,0,1-20.14,20.814h0a20.48,20.48,0,0,1-20.814-20.141l-.125-7.637a20.481,20.481,0,0,1,20.14-20.815h0a20.481,20.481,0,0,1,20.815,20.141Z" transform="translate(-228.267 -456.192)"/><path class="c" d="M230.578,524.669a5.5,5.5,0,1,1-5.585-5.417A5.5,5.5,0,0,1,230.578,524.669Z" transform="translate(-219.588 -495.565)"/><path class="b" d="M236.163,503.409l-5.2,1.255s-.8-21.136.366-32.644c0,0,2.448-11.657,5.33-14.075,3.723-3.125,19.1-3.631,19.1-3.631S237.479,461.359,236.163,503.409Z" transform="translate(-226.645 -454.314)"/><path class="b" d="M295.012,466.066l23.308,38.29s2.07-18.038-4.521-27.275C303.917,463.231,295.012,466.066,295.012,466.066Z" transform="translate(-267.5 -461.627)"/></g><path class="u" d="M219.931,442.452c-1.372-6.511,5.2-24.958,5.414-31.829.151-4.975,4.373-6.774,7.418-7.4,3.871-.8,8.983-.263,10.833,3.262,2.286,4.359,7.8,8.356,9.4,9.55,4.886,3.645,12.063,11.558,13.42,17.994Z" transform="translate(-217.014 -402.896)"/><path class="v" d="M265.8,480.662a.817.817,0,0,1-.769.833l-51.794,8.3a.817.817,0,0,1-.977-.575l.38-9.573a.817.817,0,0,1,.769-.833l47.776-7.516a.817.817,0,0,1,.977.575Z" transform="translate(-212.26 -446.344)"/><g transform="translate(17.197 45.925)"><path class="g" d="M286.645,557.838l-17.757-.331s3.015,6.334,8.759,6.334C283.323,563.841,286.393,559.109,286.645,557.838Z" transform="translate(-265.429 -547.035)"/><path d="M311.884,531.859a2.322,2.322,0,1,0,1.582-2.981A2.387,2.387,0,0,0,311.884,531.859Z" transform="translate(-292.682 -528.799)"/><path d="M259.5,531.859a2.321,2.321,0,1,0,1.582-2.981A2.386,2.386,0,0,0,259.5,531.859Z" transform="translate(-259.406 -528.799)"/></g></g></g></g><text class="w" transform="translate(904 401)"><tspan x="0" y="31">CODE</tspan></text></g></svg>