<svg xmlns="http://www.w3.org/2000/svg" width="650.496" height="252.936" viewBox="0 0 650.496 252.936"><defs><style>.a{fill:#10388e;}.b{fill:#efe6d8;}.as,.c{fill:#fff;}.d{fill:#424040;}.e{fill:#616bb0;}.f{fill:#6e59a2;}.g{fill:#51447c;}.h{fill:#6683c1;}.i{fill:#4a378c;}.j{fill:#484a45;}.k{fill:#c4bfbd;}.l{fill:#634e9b;}.m{fill:#aa8b73;}.n{fill:#040505;}.o{fill:#002983;}.p{fill:#e8b6a5;}.q{fill:#9086bf;}.r{fill:#9d81ba;}.s{fill:#78569f;}.t{fill:#fff9f0;}.u{fill:#d2d6cd;}.v{fill:#191818;opacity:0.1;}.w{fill:#244496;}.x{fill:#364193;}.y{fill:#9b519a;}.z{fill:#ba84b8;}.aa{fill:#eddac2;}.ab{fill:#cfc8c5;}.ac{fill:#7d4895;opacity:0.2;}.ad{fill:#d6cecb;}.ae{fill:#ada9a7;}.af{fill:#2b3639;}.ag,.ai{fill:#1a2226;}.ag,.al,.am{fill-rule:evenodd;}.ah{fill:#67c4cc;}.aj{fill:#ffb811;}.ak{fill:#c38f17;}.al{fill:#aec827;}.am{fill:#b4171b;}.an{fill:#223a4b;}.ao{fill:#c8caca;}.ap{fill:#53baab;}.aq{fill:#23998c;}.ar{fill:#091e2a;}.as,.ba{opacity:0.15;}.at{fill:#c92a29;}.au{fill:#a61820;}.av{fill:#f7e539;}.aw{fill:#f6a014;}.ax{fill:#650810;}.ay{fill:#f5721b;}.az{fill:#e8ce31;}.bb{fill:#27bef3;}.bc{fill:#fcf19e;}.bd{fill:#f7801f;}.be{fill:#f98835;}.bf{fill:#009ddc;}.bg{fill:#e9332b;}</style></defs><g transform="translate(-49.328 -141.566)"><g transform="translate(49.328 141.566)"><g transform="translate(157.055 39.258)"><g transform="translate(49.616 114.943)"><rect class="a" width="13.066" height="45.005" transform="translate(0 11.368) rotate(-60.465)"/><path class="b" d="M257.373,287.216l-4.723,8.337-8.064-4.617,4.723-8.336Z" transform="translate(-204.208 -258.359)"/><g transform="translate(48.149 28.712)"><rect class="c" width="17.131" height="3.484" transform="translate(7.527 16.919) rotate(-60.47)"/><path class="d" d="M255.492,286.133l-4.765,8.409,7.463,8.62,8.52-15.038Z" transform="translate(-250.728 -286.133)"/></g><rect class="e" width="13.647" height="5.517" transform="translate(35.839 32.342) rotate(-60.466)"/></g><g transform="translate(55.273 123.889)"><rect class="a" width="45.005" height="13.066" transform="translate(5.223 44.581) rotate(-82.132)"/><rect class="b" width="11.034" height="9.582" transform="translate(5.647 56.364) rotate(-82.132)"/><g transform="translate(0 56.076)"><rect class="c" width="3.484" height="17.131" transform="matrix(0.137, -0.991, 0.991, 0.137, 0, 13.577)"/><g transform="translate(0.452)"><path class="d" d="M222.733,314.832l9.575,1.323,2.315,11.165L217.5,324.954Z" transform="translate(-217.501 -314.832)"/></g></g><rect class="e" width="5.517" height="13.647" transform="translate(4.945 46.595) rotate(-82.132)"/></g><g transform="translate(12.598)"><path class="f" d="M189.576,211.924a26.553,26.553,0,1,1,49.729-.955l-1.917-.677a24.52,24.52,0,1,0-45.923.881Z" transform="translate(-182.276 -171.804)"/><g transform="translate(4.346)"><path class="b" d="M214.373,225.683l-.66-6.515h-8.146l-.149,6.535C206.92,227,213.845,226.549,214.373,225.683Z" transform="translate(-181.925 -160.24)"/><path class="b" d="M232.645,206.058a5.98,5.98,0,1,1-6.016-5.958A5.985,5.985,0,0,1,232.645,206.058Z" transform="translate(-177.875 -165.298)"/><path class="b" d="M198.81,206.915a5.98,5.98,0,1,1-6.017-5.957A5.988,5.988,0,0,1,198.81,206.915Z" transform="translate(-186.85 -165.071)"/><path class="b" d="M235.652,208.45c.073,12.31-10.022,23.521-22.332,23.6h0c-12.308.073-22.172-11.019-22.245-23.329l.156-4.13c-.075-12.308,9.788-23.51,22.1-23.583h0c12.31-.073,22.4,11.008,22.478,23.317Z" transform="translate(-185.729 -170.363)"/><path class="g" d="M235.5,197.223c-.591-7.117-7.3-18.705-23.125-18.479-15.823,1.489-21.018,14.082-21.123,21.223-.01.733-.173,9.35-.173,9.35.073,12.31,9.755,19.683,22.065,19.61s22.817-7.579,22.744-19.888C235.884,209.039,235.952,202.714,235.5,197.223Z" transform="translate(-185.729 -170.964)"/><path class="d" d="M194.605,190.1c6.626,6.779,23.183,6.869,33.516,3.578,4.994-1.59,7.126-3.738,10.1-13.708-11.667,4.179-12.342,5.066-12.342,5.066s5.773-6,10.855-8.232c-5.715-2.691-15.971-2.123-21.851,1.508.356-1.283,1.831-3,9.365-5.662-6.662-.3-23.553.251-25.836,9.582,0,0-2.3-.934-.186-4.188C194.575,179.312,189.959,185.348,194.605,190.1Z" transform="translate(-185.312 -172.594)"/></g><g transform="translate(0 33.044)"><g transform="translate(0 0)"><path class="c" d="M187.355,210.237a1.46,1.46,0,0,1-1.106,1.746l-.092.02a1.46,1.46,0,0,1-1.745-1.106l-.962-4.288a1.461,1.461,0,0,1,1.106-1.745l.094-.02a1.46,1.46,0,0,1,1.745,1.106Z" transform="translate(-183.415 -197.093)"/><rect class="h" width="6.17" height="12.948" rx="1.155" transform="matrix(0.976, -0.219, 0.219, 0.976, 0.84, 4.954)"/><rect class="i" width="6.308" height="19.003" rx="1.155" transform="translate(2.942 1.38) rotate(-12.639)"/></g></g><g transform="translate(51.005 33.327)"><path class="c" d="M230.872,210.237a1.461,1.461,0,0,0,1.106,1.746l.092.02a1.46,1.46,0,0,0,1.745-1.106l.962-4.288a1.46,1.46,0,0,0-1.106-1.745l-.092-.02a1.461,1.461,0,0,0-1.746,1.106Z" transform="translate(-221.842 -197.377)"/><path class="h" d="M1.155,0H11.794a1.154,1.154,0,0,1,1.154,1.154V5.015A1.155,1.155,0,0,1,11.793,6.17H1.154A1.154,1.154,0,0,1,0,5.016V1.155A1.155,1.155,0,0,1,1.155,0Z" transform="translate(3.276 15.955) rotate(-77.364)"/><path class="i" d="M223.764,215.768a1.46,1.46,0,0,0,1.106,1.746l3.3.74a1.462,1.462,0,0,0,1.746-1.106l3.516-15.693a1.458,1.458,0,0,0-1.106-1.745l-3.3-.74a1.461,1.461,0,0,0-1.746,1.106Z" transform="translate(-223.728 -198.935)"/></g></g><path class="b" d="M184.062,239.1s-14.323,14.487-9.677,17.922,13.658.725,13.658.725Z" transform="translate(-173.458 -154.953)"/><g transform="translate(13.104 62.084)"><path class="j" d="M256.575,262.481h-72.76l2.323-40.818H258.9Z" transform="translate(-183.815 -221.663)"/><path class="c" d="M253.536,259.394H185.8l2.323-35.714h67.734Z" transform="translate(-183.288 -221.128)"/></g></g><g transform="translate(0 10.29)"><g transform="translate(0 72.458)"><rect class="k" width="6.678" height="27.003" transform="translate(59.814 100.755)"/><path class="d" d="M126.873,284.473a6.822,6.822,0,0,1-6.823,6.822H87.82A6.823,6.823,0,0,1,81,284.473h0a6.823,6.823,0,0,1,6.823-6.823h32.23a6.823,6.823,0,0,1,6.823,6.823Z" transform="translate(-40.928 -188.219)"/><rect class="d" width="10.688" height="25.551" transform="translate(57.954 122.822)"/><path class="k" d="M102.185,315.264l-33.239,7.36v4.036l33.239-4.274Z" transform="translate(-44.124 -178.242)"/><rect class="k" width="4.334" height="11.396" transform="translate(61.038 137.022)"/><path class="d" d="M75.1,329.977a4.392,4.392,0,1,1-4.393-4.392A4.391,4.391,0,0,1,75.1,329.977Z" transform="translate(-44.821 -175.504)"/><path class="k" d="M103.5,315.264l33.239,7.36v4.036L103.5,322.386Z" transform="translate(-34.96 -178.242)"/><path class="d" d="M104.6,329.977a4.392,4.392,0,1,1-4.393-4.392A4.391,4.391,0,0,1,104.6,329.977Z" transform="translate(-36.998 -175.504)"/><path class="l" d="M160.719,303.657H93.066c-5.036,0,10.213-13.8,10.162-18.831-.281-28.6-11.645-71.956-11.76-72.391a4.356,4.356,0,0,1,8.423-2.223c.029.11,2.971,11.294,5.9,25.935,3.955,19.749,6.023,36.1,6.147,48.593A10.267,10.267,0,0,0,122.1,294.946h38.616a4.356,4.356,0,1,1,0,8.711Z" transform="translate(-38.189 -206.967)"/><path class="l" d="M52.716,206.968l52.914.144,18.2,89.285-56.91-1.839Z" transform="translate(-48.429 -206.967)"/><path class="f" d="M118.723,303.657H80.106a18.681,18.681,0,0,1-13.322-5.534,19,19,0,0,1-5.552-13.3c-.281-28.6-11.645-71.956-11.759-72.391a4.355,4.355,0,1,1,8.421-2.223c.029.11,2.971,11.294,5.9,25.935,3.955,19.749,6.023,36.1,6.147,48.593a10.267,10.267,0,0,0,10.162,10.205h38.616a4.356,4.356,0,1,1,0,8.711Z" transform="translate(-49.328 -206.967)"/><rect class="d" width="8.376" height="2.178" transform="translate(58.932 102.206)"/></g><g transform="translate(7.126)"><path class="m" d="M142.638,260.651c-.82,0-1.649-.016-2.491-.049-11.058-.444-19.92-6.723-25.625-18.16a56.412,56.412,0,0,1-5.148-16.553l7.89-.963-3.945.481,3.944-.487a49.044,49.044,0,0,0,4.461,14.149c4.392,8.695,10.7,13.267,18.742,13.59a52.539,52.539,0,0,0,35.171-11.514l5.37,5.861A59.98,59.98,0,0,1,142.638,260.651Z" transform="translate(-40.527 -129.747)"/><path class="d" d="M134.177,189.189A39.609,39.609,0,1,1,94.45,149.7,39.607,39.607,0,0,1,134.177,189.189Z" transform="translate(-54.96 -149.699)"/><g transform="translate(21.851 20.905)"><g transform="translate(0 0.485)"><path class="m" d="M120.12,194.108a21.176,21.176,0,0,1-19.568,22.671h0A21.177,21.177,0,0,1,77.881,197.21l-.578-7.877a21.177,21.177,0,0,1,19.568-22.671h0a21.178,21.178,0,0,1,22.671,19.57Z" transform="translate(-70.899 -166.604)"/><path class="m" d="M83.579,191.491a5.682,5.682,0,1,1-6.085-5.263A5.688,5.688,0,0,1,83.579,191.491Z" transform="translate(-72.23 -161.404)"/></g><g transform="translate(5.651)"><path class="d" d="M85.55,168.641l6.038,8.489a35.007,35.007,0,0,1,3.578-1.4l-4.824-8.926A27.43,27.43,0,0,0,85.55,168.641Z" transform="translate(-74.348 -166.066)"/><path class="d" d="M81.252,172.074l6.984,7.187c.877-.619,2.737-1.8,3.7-2.312l-6.8-7.984A26.19,26.19,0,0,0,81.252,172.074Z" transform="translate(-75.488 -165.494)"/><path class="d" d="M90.683,166.591l3.963,9.046c.886-.249,2.086-.458,3-.623-.633-1.889-2.222-5.734-3.25-8.783A23.435,23.435,0,0,0,90.683,166.591Z" transform="translate(-72.986 -166.219)"/><path class="d" d="M94.9,166.24l2.4,8.6c.091-.014.18-.029.269-.04a21.651,21.651,0,0,1,2.281-.18c-.061-1.966.29-4.991.2-7.7A43.676,43.676,0,0,0,94.9,166.24Z" transform="translate(-71.867 -166.216)"/><path class="d" d="M78.128,176.738l8.123,3.982a23.953,23.953,0,0,1,2.289-2.052l-7.927-5.943A23.536,23.536,0,0,0,78.128,176.738Z" transform="translate(-76.316 -164.496)"/><path class="d" d="M76.7,182.379a19.348,19.348,0,0,0,4.074,11.779c-.062-.62-.1-1.246-.1-1.88a20.52,20.52,0,0,1,2.3-9.148l-6.272-.838C76.7,182.322,76.7,182.35,76.7,182.379Z" transform="translate(-76.696 -161.958)"/><path class="d" d="M76.77,181.863l6.641,1.866a27.884,27.884,0,0,1,2.562-3.462l-8.061-3.3A21.888,21.888,0,0,0,76.77,181.863Z" transform="translate(-76.676 -163.37)"/><path class="d" d="M106.72,176.154a31.673,31.673,0,0,1,4.379,4.628,21.381,21.381,0,0,0-2.653-7.933Z" transform="translate(-68.732 -164.463)"/><path class="d" d="M105.006,169.259l-1.814,5.371a17.367,17.367,0,0,1,3.713,1.921c.5-1.187,1.086-2.552,1.656-3.9A19.261,19.261,0,0,0,105.006,169.259Z" transform="translate(-69.668 -165.416)"/><path class="d" d="M100.467,167.129l-1.027,7.254a19.19,19.19,0,0,1,3.865.538c.356-1.689.826-3.927,1.263-6.016A20.309,20.309,0,0,0,100.467,167.129Z" transform="translate(-70.663 -165.981)"/><path class="m" d="M93.946,166.227c-.109,0-.216.006-.325.008,1.029,3.049,2.618,6.894,3.25,8.783.353-.063.412-.119.771-.168l-2.4-8.6C94.609,166.208,94.6,166.225,93.946,166.227Z" transform="translate(-72.207 -166.221)"/><path class="m" d="M99.018,166.779c.089,2.711-.262,5.737-.2,7.7.4-.01.409-.021.791-.006l1.027-7.254A14.561,14.561,0,0,0,99.018,166.779Z" transform="translate(-70.831 -166.073)"/><path class="m" d="M103.758,168.532c-.436,2.089-.907,4.327-1.263,6.016a7.7,7.7,0,0,1,.882.275l1.814-5.371A11.983,11.983,0,0,0,103.758,168.532Z" transform="translate(-69.853 -165.608)"/><path class="m" d="M107.783,171.943c-.571,1.344-1.151,2.709-1.656,3.9a7.606,7.606,0,0,1,.75.555l1.726-3.3A7.2,7.2,0,0,0,107.783,171.943Z" transform="translate(-68.89 -164.704)"/><path class="m" d="M89.337,166.885l4.824,8.926c.4-.132.431-.134.841-.249l-3.963-9.046A14.121,14.121,0,0,0,89.337,166.885Z" transform="translate(-73.343 -166.143)"/><path class="m" d="M84.319,169.153l6.8,7.984c.387-.208.392-.2.791-.391l-6.038-8.489A13.784,13.784,0,0,0,84.319,169.153Z" transform="translate(-74.674 -165.681)"/><path class="m" d="M80.092,173.071l7.927,5.943c.349-.276.34-.286.706-.544l-7.165-7.047A20.763,20.763,0,0,0,80.092,173.071Z" transform="translate(-75.795 -164.842)"/><path class="m" d="M77.673,177.257l8.061,3.3c.313-.362.3-.33.638-.674L78.249,175.9A8.932,8.932,0,0,0,77.673,177.257Z" transform="translate(-76.437 -163.655)"/><path class="m" d="M76.7,182.679l6.272.838c.194-.376.245-.447.462-.812l-6.641-1.866Q76.7,181.747,76.7,182.679Z" transform="translate(-76.696 -162.344)"/></g></g><g transform="translate(42.93 46.318)"><path class="c" d="M109.995,194.545l-18.341.919s3.56,6.32,9.486,5.913C106.994,200.974,109.825,195.874,109.995,194.545Z" transform="translate(-88.157 -184.122)"/><path class="n" d="M104.62,189.623a2.4,2.4,0,1,0,1.421-3.187A2.469,2.469,0,0,0,104.62,189.623Z" transform="translate(-84.758 -186.307)"/><path class="n" d="M89.042,190.7a2.4,2.4,0,1,0,1.42-3.187A2.468,2.468,0,0,0,89.042,190.7Z" transform="translate(-88.89 -186.022)"/></g><g transform="translate(21.355 68.604)"><path class="m" d="M124.057,315.254l.768,9.223h9.047l-1.558-11.139Z" transform="translate(-57.987 -174.899)"/><path class="m" d="M138.438,311.652l.768,9.223h9.048L146.7,309.736Z" transform="translate(-54.173 -175.854)"/><path class="o" d="M118.839,260.934v2.9c0,3.259,2.234,4.938,5.28,5.229h22.6c6.479,0,10.653,5.854,11.307,12.3.862,8.485,3.126,26.074,4.99,40.174.151,1.142-10.493,1.874-10.493,1.874l-5.306-41.85c-.046-.437-.066-.884-.5-.884H90.452a9.587,9.587,0,0,1-9.359-9.656V260.934Z" transform="translate(-69.383 -188.799)"/><g transform="translate(81.917 139.451)"><rect class="c" width="27.584" height="3.775" transform="translate(0.349 13.983)"/><path class="d" d="M149.213,314.138a3.663,3.663,0,0,0-3.21,3.95l-7.371.487-2.05,9.546h27.933v-2.389s-12.3-6.834-14.367-7.9Z" transform="translate(-136.582 -314.138)"/></g><path class="a" d="M104.031,260.934v2.9c0,3.259,2.165,4.938,5.215,5.229H127.9c6.478,0,10.822,5.854,11.476,12.3,1.007,9.921,3.934,32.286,5.894,46.976l-10.562,1.765-6.214-48.575c0-.431-.162-.853-.593-.853H90.452a9.587,9.587,0,0,1-9.359-9.656V260.934Z" transform="translate(-69.383 -188.799)"/><g transform="translate(63.973 144.636)"><rect class="c" width="27.584" height="3.484" transform="translate(0 14.025)"/><path class="d" d="M135.383,318.236a3.665,3.665,0,0,0-3.209,3.951l-7.66.506-2.05,9.568h27.5v-2.431s-12.088-6.834-14.15-7.9Z" transform="translate(-122.383 -318.236)"/></g><g transform="translate(0 6.759)"><path class="d" d="M83.548,238.04l-11.71-4.147c.917-11.3,12.073-24.629,29.91-24.629s28.991,13.327,29.907,24.629l-10.361,4.147v39.5H83.548Z" transform="translate(-71.838 -209.263)"/></g><g transform="translate(22.671)"><path class="m" d="M89.757,211.437a25.751,25.751,0,0,1,2.829-.514l.645-6.741,7.2-.261.273,6.918a21.729,21.729,0,0,1,3.454.6,8.4,8.4,0,0,1-.014,1.039c-.176,4.426-3.538,7.852-7.508,7.655s-7.046-3.944-6.869-8.37C89.769,211.691,89.752,211.509,89.757,211.437Z" transform="translate(-89.756 -203.921)"/></g></g><path class="e" d="M122.463,313.421l.768,3.841,11.581-1.921-.517-4.129Z" transform="translate(-37.055 -106.859)"/><path class="e" d="M136.732,309.664l.768,3.841,11.581-1.921-.517-4.129Z" transform="translate(-33.27 -107.855)"/><g transform="translate(23.858 100.87)"><path class="m" d="M106.536,261.073c-.82,0-1.649-.015-2.491-.049-11.058-.444-19.92-6.723-25.625-18.159a57.038,57.038,0,0,1-4.6-13.442l9.245,3.269a42.877,42.877,0,0,0,2.561,6.8c4.392,8.695,10.7,13.266,18.742,13.59a52.548,52.548,0,0,0,35.171-11.515l5.37,5.862A59.983,59.983,0,0,1,106.536,261.073Z" transform="translate(-73.816 -229.423)"/></g></g></g><g transform="translate(383.482 23.078)"><g transform="translate(0.779)"><g transform="translate(14.798 59.662)"><rect class="k" width="6.678" height="27.003" transform="translate(60.394 100.763)"/><path class="d" d="M397.086,284.473a6.823,6.823,0,0,0,6.824,6.822h32.23a6.822,6.822,0,0,0,6.823-6.822h0a6.823,6.823,0,0,0-6.823-6.823h-32.23a6.823,6.823,0,0,0-6.824,6.823Z" transform="translate(-356.147 -188.211)"/><rect class="d" width="10.688" height="25.551" transform="translate(58.244 122.829)"/><path class="k" d="M419.125,315.264l33.239,7.36v4.036l-33.239-4.274Z" transform="translate(-350.301 -178.234)"/><rect class="k" width="4.335" height="11.396" transform="translate(61.513 137.03)"/><path class="d" d="M441.08,329.977a4.393,4.393,0,1,0,4.393-4.392A4.392,4.392,0,0,0,441.08,329.977Z" transform="translate(-344.477 -175.496)"/><path class="k" d="M417.815,315.264l-33.239,7.36v4.036l33.239-4.274Z" transform="translate(-359.465 -178.234)"/><path class="d" d="M390.734,329.977a4.392,4.392,0,1,1-4.393-4.392A4.391,4.391,0,0,1,390.734,329.977Z" transform="translate(-360.162 -175.496)"/><path class="d" d="M411.587,329.977a4.393,4.393,0,1,0,4.393-4.392A4.392,4.392,0,0,0,411.587,329.977Z" transform="translate(-352.3 -175.496)"/><path class="l" d="M369.084,303.6h67.653c5.036,0-10.212-13.8-10.162-18.831.282-28.6,11.645-71.666,11.76-72.1a4.355,4.355,0,1,0-8.421-2.224c-.029.111-2.972,11-5.9,25.645-3.955,19.749-6.023,36.1-6.145,48.593A10.267,10.267,0,0,1,407.7,294.885H369.084a4.356,4.356,0,0,0,0,8.711Z" transform="translate(-364.729 -206.898)"/><path class="l" d="M477.576,207.114l-54.475-.154L405.424,296.4l56.91-1.839Z" transform="translate(-353.935 -206.961)"/><path class="f" d="M411.08,303.657H449.7a18.678,18.678,0,0,0,13.32-5.534,18.99,18.99,0,0,0,5.552-13.3c.282-28.6,11.645-71.956,11.76-72.391a4.355,4.355,0,1,0-8.421-2.223c-.03.11-2.972,11.294-5.9,25.935-3.955,19.749-6.023,36.1-6.145,48.593A10.267,10.267,0,0,1,449.7,294.946H411.08a4.356,4.356,0,0,0,0,8.711Z" transform="translate(-353.59 -206.959)"/><rect class="d" width="8.376" height="2.178" transform="translate(59.578 102.214)"/></g><g transform="translate(0 52.664)"><path class="o" d="M417.155,260.7V263.4c0,3.373-2.444,5.147-5.6,5.728H377.947c-6.708,0-11.6,5.551-11.6,12.259v44.94h12.194v-44.94c0-.447-.11-.645.337-.645h67.541a10.055,10.055,0,0,0,9.937-9.9V260.7Z" transform="translate(-349.502 -185.708)"/><path class="a" d="M438.735,260.7V263.4c0,3.373-2.093,5.271-5.251,5.852l-27.578-.051c-8.389-.337-12.846,2.839-14.23,9.4l-3.789,41.191,11.706,2.695,4.857-41.19c.092-.438.114-.509.55-.416l35.748-.019a10.123,10.123,0,0,0,9.89-10.026V260.7Z" transform="translate(-343.788 -185.708)"/><g transform="translate(42.309 129.768)"><path class="b" d="M396.238,320.92l-9.254-2.483,2.277-11.528,9.254,2.483Z" transform="translate(-386.337 -303.22)"/><path class="e" d="M400.781,313.073l-14.308-3.763,1.471-5.317,14.307,3.762Z" transform="translate(-386.472 -303.993)"/></g><g transform="translate(0 135.681)"><rect class="b" width="9.872" height="11.033" transform="translate(17.712 4.065)"/><g transform="translate(0 10.486)"><rect class="c" width="31.649" height="3.484" transform="translate(0 15.065)"/><path class="d" d="M369.293,321.156v-4.2a4.115,4.115,0,0,1,3.829,4.322h7.247l4.046,10.743H353.033V329.6C356.807,326.379,369.293,321.156,369.293,321.156Z" transform="translate(-353.033 -316.955)"/></g><g transform="translate(22.238 4.354)"><rect class="c" width="3.484" height="31.649" transform="translate(0 13.823) rotate(-74.987)"/><path class="d" d="M389.874,316.164l1.088-4.056a4.306,4.306,0,0,1,2.636,5.309l7,1.878,1.125,11.425-30.4-8.155.66-2.46C376.461,317.975,389.874,316.164,389.874,316.164Z" transform="translate(-370.42 -312.108)"/></g><rect class="e" width="14.227" height="5.517" transform="translate(15.679)"/></g><g transform="translate(56.886 6.998)"><path class="d" d="M447.957,236.754l12.512-1.3c-.059-.731-.7-4.461-.836-5.205-2.123-11.157-13.4-23.284-30.718-23.284-18.469,0-29.974,13.8-30.923,25.5l10.767,4.293v41.109h39.2Z" transform="translate(-397.993 -206.961)"/></g><path class="p" d="M431.445,209.211a26.288,26.288,0,0,0-2.929-.531l-.669-6.979-7.451-.271-.283,7.163a22.457,22.457,0,0,0-3.576.621,8.5,8.5,0,0,0,.013,1.075c.183,4.581,3.664,8.13,7.775,7.925s7.294-4.083,7.112-8.664C431.434,209.474,431.45,209.286,431.445,209.211Z" transform="translate(-336.193 -201.43)"/></g><g transform="translate(59.074)"><g transform="translate(1.522)"><path class="q" d="M400.931,188.819a5.724,5.724,0,1,0,5.458-5.99A5.73,5.73,0,0,0,400.931,188.819Z" transform="translate(-400.925 -153.701)"/><path class="p" d="M404.275,195.126a21.33,21.33,0,0,0,22.273,20.345h0A21.333,21.333,0,0,0,446.895,193.2l-.359-7.948c-.215-4.745.014-11.453-2.768-14.875-4.118-5.067-12.482-5.787-19.506-5.47h0a21.331,21.331,0,0,0-20.346,22.273Z" transform="translate(-400.138 -158.471)"/><path class="p" d="M433.732,188.412a5.724,5.724,0,1,0,5.458-5.99A5.729,5.729,0,0,0,433.732,188.412Z" transform="translate(-392.225 -153.809)"/><path class="r" d="M436.911,189.492a22.7,22.7,0,0,0,2.007-1.544s2.723-6.558,1.442-11.2a22.81,22.81,0,0,0-3.573-7.19l-5.343,4.818C433.643,177.457,435.8,182,436.911,189.492Z" transform="translate(-392.83 -157.219)"/><path class="r" d="M410.041,172.354l-4.2-1.584s-4.031,5.764-2.045,15.716l.5.17S404.507,176.691,410.041,172.354Z" transform="translate(-400.31 -156.898)"/><path class="s" d="M444.59,171.945l-5.375,4.79s-21,2.164-30.637-1.685c-4.659-1.86-5.906-2.889-7.1-13.452C407.942,171.268,444.647,145.982,444.59,171.945Z" transform="translate(-400.777 -159.806)"/></g><g transform="translate(14.792 36.852)"><path class="t" d="M419.481,190.884a.5.5,0,1,0,.453-.533A.5.5,0,0,0,419.481,190.884Z" transform="translate(-409.274 -188.557)"/><path class="t" d="M417.6,189.581a.366.366,0,1,0,.333-.39A.365.365,0,0,0,417.6,189.581Z" transform="translate(-409.773 -188.864)"/><path class="t" d="M415.994,191.2a.5.5,0,1,0,.453-.531A.494.494,0,0,0,415.994,191.2Z" transform="translate(-410.199 -188.472)"/><path class="t" d="M415.14,189.4a.435.435,0,1,0,.393-.463A.43.43,0,0,0,415.14,189.4Z" transform="translate(-410.426 -188.933)"/><path class="t" d="M413.35,190.686a.514.514,0,1,0,.467-.548A.509.509,0,0,0,413.35,190.686Z" transform="translate(-410.901 -188.613)"/><path class="t" d="M411.415,191.531a.407.407,0,1,0,.369-.431A.4.4,0,0,0,411.415,191.531Z" transform="translate(-411.414 -188.358)"/><path class="t" d="M421.579,192.147a.441.441,0,1,0,.4-.469A.437.437,0,0,0,421.579,192.147Z" transform="translate(-408.718 -188.205)"/><path class="t" d="M421.406,190.272a.442.442,0,1,0,.4-.469A.437.437,0,0,0,421.406,190.272Z" transform="translate(-408.764 -188.702)"/><path class="t" d="M423.79,191.944a.442.442,0,1,0,.4-.471A.436.436,0,0,0,423.79,191.944Z" transform="translate(-408.131 -188.259)"/></g><g transform="translate(0 27.445)"><path class="n" d="M399.724,186.29v.071l.015.071c.041.18.987,5.252,1.527,6.66.439,1.141,1.737,3.3,3.516,3.316l9.456.065c3.291.023,4.414-8.031,4.622-9.7a1.686,1.686,0,0,1,1.544-1.048,1.876,1.876,0,0,1,1.656,1.158c.357,1.856,2.008,9.661,5.243,9.684l9.458.065c1.778.011,2.937-2.133,3.3-3.269a58.263,58.263,0,0,0,1.078-6.643v-.07l0-.073A3.538,3.538,0,0,0,437.85,183l-12.68-.086h-.1l-9.486-.065L402.8,182.76A3.234,3.234,0,0,0,399.724,186.29Zm23.922-.149a1.969,1.969,0,0,1,1.573-.8l12.307.128c1.038.006,1.4.929,1.473,2.072a49.345,49.345,0,0,1-.786,5.438c-.316.991-.671,2.385-1.97,2.27l-8.984-.106c-1.89-.011-3.42-5.213-3.9-7.8A1.526,1.526,0,0,1,423.646,186.141Zm-21.994,1.143c-.005-1.144.52-2.1,1.556-2.1l12.307.129a2.148,2.148,0,0,1,1.626.825,1.617,1.617,0,0,1,.366,1.2c-.31,2.586-1.421,7.724-3.312,7.712l-8.984-.105c-1.455-.065-1.885-1.589-2.267-2.585C402.483,191.164,401.779,187.86,401.653,187.283Z" transform="translate(-399.722 -181.163)"/><path class="p" d="M432.045,186.83l7.929-5.332-.18,1.168-8.342,8.639Z" transform="translate(-391.306 -181.498)"/></g><path class="c" d="M426.915,194.948l-17.643-.218s2.434,5.581,7.471,6.164C422.751,201.589,426.649,196.332,426.915,194.948Z" transform="translate(-397.189 -150.543)"/><g transform="translate(8.049 34.934)"><path class="n" d="M421.976,189.466a2.415,2.415,0,1,0,4.622-1.379c-.006-.021-.015-.042-.023-.062-1.2-.07-3.212-.287-4.465-.431A2.625,2.625,0,0,0,421.976,189.466Z" transform="translate(-401.899 -187.37)"/><path class="n" d="M406.2,189.226a2.413,2.413,0,1,0,4.627-1.351c-1.406-.1-3.484-.337-4.521-.458A2.621,2.621,0,0,0,406.2,189.226Z" transform="translate(-406.084 -187.417)"/></g></g><g transform="translate(42.662 50.792)"><g transform="translate(12.493)"><path class="c" d="M408.129,200.427l-.218,1.541c-.021,0-1.307-.182-2.944-.329l1-1.47C407.181,200.294,408.057,200.416,408.129,200.427Z" transform="translate(-394.412 -199.892)"/><path class="c" d="M403.052,199.95h.077c.158,0,.319.005.482.009l-.748,1.554a3.065,3.065,0,0,0-2.756,1.45l-.938-1.342A4.656,4.656,0,0,1,403.052,199.95Z" transform="translate(-395.95 -199.95)"/><path class="c" d="M396.625,207.269c.478-1.217.954-2.362,1.411-3.373l1.159,1.226c-.32.735-.649,1.532-.982,2.371Z" transform="translate(-396.625 -198.903)"/><path class="l" d="M398.375,203.249l.084-.168a9.207,9.207,0,0,1,1.091-1.809l.938,1.342a11.134,11.134,0,0,0-.633,1.16l-.085.17c-.28.559-.571,1.191-.87,1.875l-1.159-1.226C397.958,204.113,398.17,203.662,398.375,203.249Z" transform="translate(-396.329 -199.6)"/><path class="l" d="M406.726,200.225l-1,1.47c-1.065-.1-2.279-.178-3.391-.189h-.063c-.066,0-.125.005-.187.006l.748-1.554C404.187,199.992,405.6,200.11,406.726,200.225Z" transform="translate(-395.176 -199.948)"/></g><path class="h" d="M404.647,208.28l-1.587,23.656c0,.486-3.009.878-6.721.878s-6.722-.392-6.722-.878l-1.58-23.656Z" transform="translate(-386.41 -197.741)"/><path class="c" d="M387.587,207.538h1.68a2.24,2.24,0,0,1,1.962-1.159h10.842a2.242,2.242,0,0,1,1.964,1.159h1.68s.836,4.178.836,4.192c0,.391-4.433.709-9.9.709s-9.9-.318-9.9-.709C386.751,211.716,387.587,207.538,387.587,207.538Z" transform="translate(-386.751 -198.245)"/></g><path class="p" d="M395.93,261.613q.118,0,.235,0a8.848,8.848,0,0,0,6.407-3.059,23.4,23.4,0,0,0,3.862-5.733,83.711,83.711,0,0,0,5.418-14.951c.333-1.2.648-2.389.948-3.565l-8.008-3.259c-.242.973-.495,1.959-.759,2.948-3.863,14.453-6.944,17.846-7.819,18.555a9.637,9.637,0,0,1-2-2.925,36.028,36.028,0,0,1-2.715-8.314c-1.453-6.916-1.411-11.183.1-15.88a6.172,6.172,0,0,1,2.525-.366,26.638,26.638,0,0,1,4.166.444c.38.065.678.114.944.147l.977-8.874c-.077-.009-.333-.052-.539-.087a29.571,29.571,0,0,0-7.117-.5,12.383,12.383,0,0,0-4.828,1.289,8.4,8.4,0,0,0-4.13,4.833c-1.78,5.31-2.186,9.444-1.148,16.911.977,7.017,3.082,13.32,5.775,17.3C389.771,258.8,392.346,261.5,395.93,261.613Z" transform="translate(-345.377 -144.865)"/></g><path class="p" d="M378.2,260.611V251.9c.357,0,35.846,0,50.782-.29,2.725-.052,8.656-1.976,17.756-14.283L451.9,230.9l10.054-1.115a128.006,128.006,0,0,1-8.142,12.626c-8.658,11.736-16.957,17.763-24.665,17.911C414.132,260.607,378.561,260.611,378.2,260.611Z" transform="translate(-345.578 -141.245)"/><g transform="translate(0 77.633)"><rect class="u" width="33.356" height="1.549" transform="translate(60.132 39.845)"/><path class="u" d="M362.338,262.871h57.143l-9.92-41.707H352.417Z" transform="translate(-352.417 -221.164)"/><path class="c" d="M378.014,231.905l-1.275,4.8-4.556.853,4.029,3.637.1,5.243,3.766-2.55,4.617,2.389-1.7-5.212,2.754-3.767-4.818-.673Z" transform="translate(-347.175 -218.315)"/></g></g><rect class="c" width="443.71" height="6.388" transform="translate(33.261 142.105)"/><g transform="translate(160.868 93.765)"><g transform="translate(0 89.739)"><rect class="k" width="6.678" height="27.003" transform="translate(38.316 11.323)"/><path class="d" d="M237.026,293.422a6.823,6.823,0,0,1-6.823,6.823h-32.23a6.823,6.823,0,0,1-6.823-6.823h0a6.823,6.823,0,0,1,6.823-6.822H230.2a6.823,6.823,0,0,1,6.823,6.822Z" transform="translate(-172.579 -286.6)"/><rect class="d" width="10.688" height="25.551" transform="translate(36.456 33.39)"/><path class="k" d="M212.338,324.214l-33.239,7.36v4.036l33.239-4.274Z" transform="translate(-175.775 -276.623)"/><rect class="k" width="4.335" height="11.396" transform="translate(39.54 47.591)"/><path class="d" d="M185.257,338.927a4.392,4.392,0,1,1-4.393-4.392A4.392,4.392,0,0,1,185.257,338.927Z" transform="translate(-176.472 -273.886)"/><path class="k" d="M213.648,324.214l33.239,7.36v4.036l-33.239-4.274Z" transform="translate(-166.611 -276.623)"/><path class="d" d="M235.6,338.927A4.393,4.393,0,1,0,240,334.535,4.393,4.393,0,0,0,235.6,338.927Z" transform="translate(-160.788 -273.886)"/><path class="d" d="M214.75,338.927a4.392,4.392,0,1,1-4.393-4.392A4.392,4.392,0,0,1,214.75,338.927Z" transform="translate(-168.649 -273.886)"/><rect class="d" width="8.376" height="2.178" transform="translate(37.434 12.775)"/></g><g transform="translate(4.884)"><path class="f" d="M252.711,306.425a6.081,6.081,0,0,1-6.321,5.806H186.653a6.081,6.081,0,0,1-6.321-5.806c0-21.232,2.944-84.928,2.944-84.928a5.806,5.806,0,0,1,5.806-5.807h54.879a5.806,5.806,0,0,1,5.806,5.807S252.711,285.193,252.711,306.425Z" transform="translate(-180.332 -215.67)"/><path class="v" d="M252.711,306.429a6.081,6.081,0,0,1-6.321,5.806H186.653a6.081,6.081,0,0,1-6.321-5.806c0-21.232,2.944-84.928,2.944-84.928a5.806,5.806,0,0,1,5.806-5.807c.214-1.345-12.121,69.195,4.579,85.074,8.311,7.9,37.571,8.782,45.875.872,16.472-15.689,4.425-85.945,4.425-85.945a5.806,5.806,0,0,1,5.806,5.807S252.711,285.2,252.711,306.429Z" transform="translate(-180.332 -215.674)"/></g></g><g transform="translate(271.603)"><path class="w" d="M305.6,161.589c1.5-8.4,7.118-16.872,21.055-17.868v-.049c0-.005.294-.01.414-.014.468-.014.958-.013,1.412-.006s1.041-.008,1.509.006c.12,0,.439.009.439.014v.048c15.389,1.059,20.553,8.279,21.757,17.748,1.354,10.652,1.344,51.774,1.274,56.359-1.393,7.144-4.692,7.994-9.13,12.412a21.79,21.79,0,0,1-31.693.318,33.679,33.679,0,0,1-9.011-15.984C303.54,208.818,303.555,173.059,305.6,161.589Z" transform="translate(-253.487 -141.014)"/><path class="o" d="M316.637,239.133v2.332c0,3.2-1.951,4.927-4.947,5.217H289.457c-6.373,0-11.147,5.5-11.147,11.872L275.7,315.5h10.453l2.613-56.942a.771.771,0,0,1,.695-.838h55.351a9.479,9.479,0,0,0,9.575-9.183v-9.4Z" transform="translate(-260.888 -115.687)"/><path class="a" d="M327.061,239.133v2.332c0,3.2-2.123,4.927-5.123,5.217h-18.35c-6.372,0-11.37,5.5-11.37,11.872v59.556h10.743V258.553c0-.425.2-.838.626-.838h36.836A9.479,9.479,0,0,0,350,248.533v-9.4Z" transform="translate(-256.506 -115.687)"/><g transform="translate(0 181.14)"><rect class="c" width="27.584" height="3.775" transform="translate(0 23.315)"/><path class="x" d="M278.219,289v-4.269a3.95,3.95,0,0,1,3.42,3.887l8.281.259-.159,10.162,1.743,9.006H263.993v-1.992c3.193-2.563,11.318-6.661,13.347-7.705Z" transform="translate(-263.992 -284.732)"/><path class="c" d="M278.642,292.787a2.3,2.3,0,1,0,2.3-2.3A2.3,2.3,0,0,0,278.642,292.787Z" transform="translate(-260.107 -283.204)"/></g><g transform="translate(20.905 181.14)"><rect class="c" width="27.584" height="3.775" transform="translate(0.001 23.315)"/><path class="x" d="M294.743,289v-4.269a3.95,3.95,0,0,1,3.42,3.887l8.28.259-.158,10.162,1.743,9.006H280.515v-1.992c3.195-2.563,11.319-6.661,13.348-7.705Z" transform="translate(-280.515 -284.732)"/><path class="c" d="M295.165,292.787a2.3,2.3,0,1,0,2.3-2.3A2.3,2.3,0,0,0,295.165,292.787Z" transform="translate(-276.629 -283.204)"/></g><path class="p" d="M359.5,268.5c-.04-.029-4.021-2.919-8.094-1.756-2.257.645-5.442.97-7.8-1.141a7.185,7.185,0,0,1-2.136-6.042l-2.518-51.805,7.505-.344,2.537,52.2c.105-.024.221-.054.348-.091,7.729-2.208,14.4,2.77,14.682,2.983l-4.545,5.981Z" transform="translate(-244.111 -124.1)"/><path class="p" d="M295.331,231.884c-6.83,0-13.128-4.188-17.736-11.372-4.275-6.667-6.631-15.11-6.631-24.981h7.514c0,15.679,7.718,28.607,16.853,28.607,6.772,0,13.06-7.1,15.647-17.841l7.3,1.818a37.909,37.909,0,0,1-8.31,16.659C305.758,229.407,300.695,231.884,295.331,231.884Z" transform="translate(-262.143 -127.252)"/><g transform="translate(45.726 58.616)"><path class="c" d="M347.9,216.2l11.333-4.079c-.9-11.116-11.968-24.226-29.513-24.226S301.035,201,300.133,212.12l10.022,4.079v36.525H347.9Z" transform="translate(-300.133 -187.894)"/></g><g transform="translate(53.798 5.907)"><path class="p" d="M332.044,190.032a25.1,25.1,0,0,0-2.784-.5l-.635-6.631-7.079-.257-.268,6.8a21.36,21.36,0,0,0-3.4.591,7.9,7.9,0,0,0,.014,1.022c.173,4.352,3.479,7.723,7.385,7.529s6.931-3.879,6.758-8.233C332.033,190.282,332.049,190.1,332.044,190.032Z" transform="translate(-303.501 -136.579)"/><path class="p" d="M306.516,174.125a20.563,20.563,0,0,0,20.22,20.9h0a20.563,20.563,0,0,0,20.9-20.221l.125-7.667a20.562,20.562,0,0,0-20.22-20.9h0a20.562,20.562,0,0,0-20.9,20.221Z" transform="translate(-306.513 -146.235)"/><path class="p" d="M335.2,169.613a5.517,5.517,0,1,0,5.608-5.438A5.524,5.524,0,0,0,335.2,169.613Z" transform="translate(-298.905 -141.476)"/><g transform="translate(6.406 25.806)"><path class="n" d="M326.912,169.779a2.328,2.328,0,1,0,1.475-3.044A2.393,2.393,0,0,0,326.912,169.779Z" transform="translate(-307.54 -166.631)"/><path class="n" d="M311.7,170.041A2.328,2.328,0,1,0,313.172,167,2.4,2.4,0,0,0,311.7,170.041Z" transform="translate(-311.576 -166.562)"/><path class="c" d="M329.952,175.113l-15.106.056s2.37,4.627,6.145,5.148C326.121,181.027,329.744,176.3,329.952,175.113Z" transform="translate(-310.708 -164.381)"/></g></g><path class="w" d="M330.058,157.75s7.489,16.029,8.871,33.638l3.186-.5s1.6-21.922-.5-33.133Z" transform="translate(-246.469 -137.273)"/><g transform="translate(52.123)"><path class="y" d="M360.56,155.993a2.659,2.659,0,0,1-2.352,2.887l-19.476.044a2.659,2.659,0,0,1-2.366-2.876h0a2.66,2.66,0,0,1,2.352-2.886l19.477-.044a2.659,2.659,0,0,1,2.365,2.875Z" transform="translate(-296.919 -138.502)"/><path class="z" d="M351.656,162.011l-46.467.1a20.534,20.534,0,0,1,20.5-20.536l5.432-.013a20.492,20.492,0,0,1,20.539,20.445Z" transform="translate(-305.189 -141.566)"/><path class="aa" d="M324.817,156.392l-12.163-.051h0a5.3,5.3,0,0,1,5.253-5.522l1.423.005a5.628,5.628,0,0,1,5.486,5.567Z" transform="translate(-303.209 -139.111)"/></g><path class="d" d="M271.786,214.579a1.521,1.521,0,0,1-2.11.412h0a1.518,1.518,0,0,1-.412-2.109l17.016-25.3a1.52,1.52,0,0,1,2.109-.414h0a1.521,1.521,0,0,1,.414,2.11Z" transform="translate(-262.663 -129.54)"/><circle class="p" cx="6.164" cy="6.164" r="6.164" transform="translate(6.498 65.375)"/></g></g><g transform="translate(127.348 174.595)"><g transform="translate(0 38.59)"><g transform="translate(0 67.095)"><path class="ab" d="M114.353,254.3h70.564a3.457,3.457,0,0,0,2.994-1.73h-76.55A3.456,3.456,0,0,0,114.353,254.3Z" transform="translate(-110.894 -250.838)"/><path class="ac" d="M110.992,251.2a3.432,3.432,0,0,0,.467,1.73h76.55a3.445,3.445,0,0,0,.467-1.73Z" transform="translate(-110.992 -251.201)"/><path class="ad" d="M155.125,251.2a1.474,1.474,0,0,1-1.218.644h-8.346a1.473,1.473,0,0,1-1.218-.644H110.992a3.432,3.432,0,0,0,.467,1.73h76.55a3.445,3.445,0,0,0,.467-1.73Z" transform="translate(-110.992 -251.201)"/><path class="ae" d="M138.569,251.845h8.346a1.474,1.474,0,0,0,1.218-.644H137.351A1.473,1.473,0,0,0,138.569,251.845Z" transform="translate(-104 -251.201)"/></g><g transform="translate(12.564)"><rect class="af" width="72.575" height="7.607" transform="translate(0 54.475)"/><path class="ag" d="M124.147,247.239h10.085c-.234,1.078-.438,2.04-.641,2.914-.175.816-.35,1.574-.5,2.245h-7.812c-.146-.671-.32-1.428-.495-2.245-.176-.874-.409-1.836-.641-2.914Zm54.33,0h10.084c-.233,1.078-.437,2.04-.641,2.914-.175.816-.349,1.574-.495,2.245h-7.812c-.146-.671-.32-1.428-.5-2.245-.2-.874-.407-1.836-.64-2.914Z" transform="translate(-120.066 -185.156)"/><rect class="ah" width="72.604" height="54.475"/><rect class="ai" width="72.604" height="2.099" transform="translate(0 5.421)"/><rect class="af" width="17.576" height="17.342" transform="translate(9.881 4.43)"/><path class="ag" d="M131.852,215.379h10.405a1.393,1.393,0,0,1,1.369,1.4h0a1.368,1.368,0,0,1-1.369,1.37H131.852a1.369,1.369,0,0,1-1.37-1.37h0a1.394,1.394,0,0,1,1.37-1.4Z" transform="translate(-118.386 -193.607)"/><rect class="af" width="7.141" height="10.755" transform="translate(15.098 24.542)"/><rect class="ai" width="5.217" height="1.632" transform="translate(16.06 35.297)"/><rect class="af" width="2.215" height="1.982" transform="translate(17.576 36.929)"/><rect class="aj" width="27.223" height="27.223" transform="translate(36.317 27.252)"/><rect class="ak" width="9.065" height="27.223" transform="translate(27.252 27.252)"/><rect class="aj" width="1.282" height="4.46" transform="translate(18.042 38.911)"/><path class="al" d="M161.253,242.332a2.4,2.4,0,1,1-2.39,2.39,2.407,2.407,0,0,1,2.39-2.39Z" transform="translate(-110.858 -186.458)"/><path class="am" d="M166.741,242.332a2.4,2.4,0,1,1-2.419,2.39,2.4,2.4,0,0,1,2.419-2.39Z" transform="translate(-109.41 -186.458)"/><path class="am" d="M172.2,242.332a2.4,2.4,0,1,1-2.39,2.39,2.4,2.4,0,0,1,2.39-2.39Z" transform="translate(-107.956 -186.458)"/><path class="ag" d="M135.363,203.285h2.185a2.632,2.632,0,0,1,2.624,2.624v8.044a2.632,2.632,0,0,1-2.624,2.623h-2.185a2.651,2.651,0,0,1-2.624-2.623v-8.044a2.651,2.651,0,0,1,2.624-2.624Z" transform="translate(-117.787 -196.815)"/></g></g><g transform="translate(446.284 29.043)"><g transform="translate(30.123 6.588)"><rect class="an" width="1.337" height="19.749" transform="translate(3.556 4.739) rotate(-45)"/><path class="an" d="M493.679,198.91a3.076,3.076,0,1,1-3.077-3.077A3.076,3.076,0,0,1,493.679,198.91Z" transform="translate(-487.526 -195.833)"/><g transform="translate(47.481)"><rect class="an" width="1.337" height="19.749" transform="translate(0.945 18.704) rotate(-135)"/><path class="an" d="M534.786,198.91a3.076,3.076,0,1,0,3.077-3.077A3.076,3.076,0,0,0,534.786,198.91Z" transform="translate(-522.472 -195.833)"/></g></g><ellipse class="an" cx="6.271" cy="6.271" rx="6.271" ry="6.271" transform="translate(54.904 4.799) rotate(-22.5)"/><rect class="ao" width="19.917" height="3.603" transform="translate(90.818 58.54)"/><rect class="ao" width="19.917" height="3.603" transform="translate(111.311 82.852) rotate(-90)"/><ellipse class="ap" cx="5.314" cy="5.314" rx="5.314" ry="5.314" transform="translate(107.017 64.735) rotate(-80.783)"/><path class="an" d="M555.86,254.863a13.081,13.081,0,0,0-13.081,13.081h3.49a9.592,9.592,0,1,1,19.184,0h3.488A13.08,13.08,0,0,0,555.86,254.863Z" transform="translate(-442.748 -173.587)"/><ellipse class="ap" cx="5.314" cy="5.314" rx="5.314" ry="5.314" transform="translate(106.17 79.976) rotate(-22.5)"/><g transform="translate(0 53.949)"><rect class="ao" width="19.917" height="3.603" transform="translate(35.376 8.194) rotate(180)"/><rect class="ao" width="19.917" height="3.603" transform="translate(11.28 28.903) rotate(-90)"/><ellipse class="ap" cx="5.314" cy="5.314" rx="5.314" ry="5.314" transform="translate(6.689 2.442) rotate(-13.282)"/><path class="an" d="M476.8,254.863a13.08,13.08,0,0,1,13.08,13.081h-3.488a9.592,9.592,0,1,0-19.185,0h-3.488A13.081,13.081,0,0,1,476.8,254.863Z" transform="translate(-463.718 -227.536)"/><circle class="ap" cx="5.314" cy="5.314" r="5.314" transform="translate(5.566 28.903) rotate(-45)"/></g><g transform="translate(27.002 50.285)"><ellipse class="an" cx="9.17" cy="9.17" rx="9.17" ry="9.17" transform="translate(51.149 18.104) rotate(-80.783)"/><ellipse class="an" cx="9.17" cy="9.17" rx="9.17" ry="9.17" transform="translate(0 18.104) rotate(-80.783)"/></g><rect class="ao" width="5.813" height="40.475" transform="translate(60.19 88.653)"/><ellipse class="an" cx="12.004" cy="12.004" rx="12.004" ry="12.004" transform="translate(49.324 89.457) rotate(-80.783)"/><circle class="an" cx="14.138" cy="14.138" r="14.138" transform="translate(48.958 121.027)"/><circle class="ap" cx="7.559" cy="7.559" r="7.559" transform="translate(55.538 127.607)"/><path class="c" d="M519.182,298.426a4.625,4.625,0,1,1-4.626-4.626A4.626,4.626,0,0,1,519.182,298.426Z" transform="translate(-451.46 -163.26)"/><path class="ap" d="M12.7,0H38.8A12.7,12.7,0,0,1,51.5,12.7V71.338a0,0,0,0,1,0,0H0a0,0,0,0,1,0,0V12.7A12.7,12.7,0,0,1,12.7,0Z" transform="translate(37.348 8.193)"/><rect class="aq" width="54.146" height="4.001" transform="translate(36.024 77.805)"/><rect class="aq" width="51.498" height="8.091" transform="translate(37.348 39.292)"/><g transform="translate(44.612 33.912)"><rect class="ap" width="6.669" height="9.692"/><rect class="ap" width="6.669" height="9.692" transform="translate(15.15)"/><rect class="ap" width="6.669" height="9.692" transform="translate(30.301)"/></g><g transform="translate(52.187 43.604)"><rect class="ap" width="6.669" height="9.692"/><rect class="ap" width="6.669" height="9.692" transform="translate(15.15)"/></g><g transform="translate(46.251 19.997)"><circle class="an" cx="5.424" cy="5.424" r="5.424"/><path class="c" d="M508.409,211.385a3.183,3.183,0,1,1-3.182-3.183A3.182,3.182,0,0,1,508.409,211.385Z" transform="translate(-499.803 -205.961)"/><circle class="ar" cx="1.108" cy="1.108" r="1.108" transform="translate(4.316 4.316)"/><g transform="translate(22.844)"><circle class="an" cx="5.424" cy="5.424" r="5.424"/><circle class="c" cx="3.183" cy="3.183" r="3.183" transform="translate(2.241 2.241)"/><circle class="ar" cx="1.108" cy="1.108" r="1.108" transform="translate(4.316 4.316)"/></g></g><path class="as" d="M520.544,198.416a6.265,6.265,0,0,0,.048.759,25.766,25.766,0,0,0-14.273,9.406l-6.9-6.9a3.075,3.075,0,1,0-1,.892l7.106,7.107a25.626,25.626,0,0,0-4.46,14.486v17.7a9.173,9.173,0,0,0-8.712,6.9H481.8a5.314,5.314,0,1,0-6.8,6.8v12.511a5.316,5.316,0,0,0-3.491,4.54,13.083,13.083,0,0,0-7.789,11.965h3.488a9.591,9.591,0,0,1,5.193-8.525,5.315,5.315,0,0,0,8.8,0,9.588,9.588,0,0,1,5.193,8.525h3.488a13.084,13.084,0,0,0-7.788-11.965,5.318,5.318,0,0,0-3.492-4.54V255.564a5.328,5.328,0,0,0,3.2-3.2h10.369a9.173,9.173,0,0,0,8.9,7.832v7.831h-1.323v4h15.284a12.02,12.02,0,0,0,8.882,9.374V311.55a14.14,14.14,0,0,0,2.906,27.977V192.145A6.271,6.271,0,0,0,520.544,198.416Z" transform="translate(-463.718 -190.223)"/></g><g transform="translate(199.765 20.876)"><g transform="translate(0 29.287)"><circle class="at" cx="9.008" cy="9.008" r="9.008" transform="translate(47.402 12.739) rotate(-45)"/><circle class="at" cx="9.008" cy="9.008" r="9.008" transform="translate(0 12.739) rotate(-45)"/><rect class="au" width="2.201" height="18.016" transform="translate(57.934 3.731)"/><rect class="au" width="2.201" height="18.016" transform="translate(12.748 3.731)"/></g><path class="av" d="M5.014,0h2.66a5.014,5.014,0,0,1,5.014,5.014V21.046a0,0,0,0,1,0,0H0a0,0,0,0,1,0,0V5.014A5.014,5.014,0,0,1,5.014,0Z" transform="translate(30.097)"/><rect class="at" width="16.963" height="5.916" transform="translate(27.959 15.99)"/><path class="aw" d="M7.094,0H35.889a7.094,7.094,0,0,1,7.094,7.094V39.885a0,0,0,0,1,0,0H0a0,0,0,0,1,0,0V7.094A7.094,7.094,0,0,1,7.094,0Z" transform="translate(14.949 21.085)"/><path class="at" d="M328.043,241.787H279.629a5.161,5.161,0,0,1-5.161-5.161h0a5.161,5.161,0,0,1,5.161-5.161h48.415a5.161,5.161,0,0,1,5.161,5.161h0A5.161,5.161,0,0,1,328.043,241.787Z" transform="translate(-267.396 -171.626)"/><path class="aw" d="M301.6,192.165a3.243,3.243,0,1,1-3.244-3.243A3.244,3.244,0,0,1,301.6,192.165Z" transform="translate(-261.919 -182.91)"/><circle class="at" cx="12.205" cy="12.205" r="12.205" transform="translate(24.236 29.813)"/><circle class="c" cx="8.997" cy="8.997" r="8.997" transform="translate(23.716 42.017) rotate(-45)"/><path class="ax" d="M300.8,217.922a2.583,2.583,0,1,1-2.584-2.584A2.583,2.583,0,0,1,300.8,217.922Z" transform="translate(-261.781 -175.904)"/><rect class="ay" width="43.054" height="3.079" transform="translate(14.913 56.759)"/><rect class="au" width="16.963" height="1.674" transform="translate(27.959 19.411)"/><rect class="az" width="12.687" height="1.758" transform="translate(30.097 14.232)"/><g transform="translate(9.866 68.346)"><g transform="translate(0 0.926)"><ellipse class="az" cx="4.383" cy="4.383" rx="4.383" ry="4.383" transform="translate(0 8.532) rotate(-76.717)"/><circle class="at" cx="2.174" cy="2.174" r="2.174" transform="translate(3.099 3.099)"/></g><g transform="translate(20.376 0)"><circle class="az" cx="4.383" cy="4.383" r="4.383" transform="translate(0 6.199) rotate(-45)"/><path class="at" d="M300.308,243.544a2.174,2.174,0,1,1-2.174-2.174A2.174,2.174,0,0,1,300.308,243.544Z" transform="translate(-291.936 -237.345)"/></g><g transform="translate(42.149 0.472)"><ellipse class="az" cx="4.383" cy="4.383" rx="4.383" ry="4.383" transform="translate(0 3.355) rotate(-22.5)"/><circle class="at" cx="2.174" cy="2.174" r="2.174" transform="translate(3.553 3.553)"/></g></g><g class="ba" transform="translate(3.731 0.001)"><path class="c" d="M304.536,184.171h0a6.342,6.342,0,0,0-6.343,6.343v9.646h-2.138v5.1h-9.3a3.707,3.707,0,0,0-3.707,3.706v8.228h-2.209a9.009,9.009,0,0,0,0,18.017h2.209v5.724h-.035v3.08h-2.68a5.161,5.161,0,0,0-5.161,5.161h0a5.161,5.161,0,0,0,5.161,5.161h24.207Z" transform="translate(-271.827 -184.171)"/><ellipse class="c" cx="4.383" cy="4.383" rx="4.383" ry="4.383" transform="translate(6.135 71.285) rotate(-13.282)"/><path class="c" d="M298.6,239.623a4.383,4.383,0,0,0,0,8.767h0v-8.767Z" transform="translate(-265.889 -169.463)"/></g></g><g transform="translate(382.894 76.027)"><g transform="translate(6.554 1.244)"><path class="bb" d="M423.69,231.189a2.446,2.446,0,1,1-2.446-2.446A2.446,2.446,0,0,1,423.69,231.189Z" transform="translate(-418.797 -228.743)"/></g><g transform="translate(3.657)"><path class="bb" d="M418.687,235.139s-.123-.064-.321-.191a2.942,2.942,0,0,1-.753-.607,6.588,6.588,0,0,1-.425-.558,2.681,2.681,0,0,1-.34-.693,2.835,2.835,0,0,1-.238-.788c-.034-.281-.068-.566-.1-.852l.1-.851a2.713,2.713,0,0,1,.237-.788,2.567,2.567,0,0,1,.337-.686,6.7,6.7,0,0,1,.413-.542,3.089,3.089,0,0,1,.772-.635c.2-.128.32-.187.32-.187s-.043.139-.124.358-.238.488-.326.85c-.047.178-.1.367-.164.554a3.945,3.945,0,0,0-.124.612,8.542,8.542,0,0,0-.137,1.315,8.358,8.358,0,0,0,.135,1.315,4.18,4.18,0,0,0,.119.606,5.447,5.447,0,0,1,.153.538,8.658,8.658,0,0,0,.347.878C418.649,235.006,418.687,235.139,418.687,235.139Z" transform="translate(-416.507 -227.76)"/></g><g transform="translate(0 1.304)"><path class="bb" d="M415.257,233.561s-.095-.029-.244-.094a1.711,1.711,0,0,1-.558-.345,2.37,2.37,0,0,1-.582-.829,1.832,1.832,0,0,1-.18-.534l-.076-.583.076-.582a1.743,1.743,0,0,1,.178-.535,2.232,2.232,0,0,1,.566-.8,1.842,1.842,0,0,1,.578-.372,1.862,1.862,0,0,1,.242-.091s-.015.1-.047.262-.1.348-.132.587a2.549,2.549,0,0,1-.063.361,3.676,3.676,0,0,0-.042.383c-.047.256-.029.528-.053.792.023.266.005.536.052.792.027.123,0,.276.038.377a2.479,2.479,0,0,1,.051.343c.02.235.134.459.152.616C415.247,233.462,415.257,233.561,415.257,233.561Z" transform="translate(-413.617 -228.791)"/></g><g transform="translate(12.164)"><path class="bb" d="M423.231,227.76s.123.065.323.191a3.014,3.014,0,0,1,.753.607,6.827,6.827,0,0,1,.424.559,2.612,2.612,0,0,1,.34.692,2.846,2.846,0,0,1,.238.788c.034.281.068.567.1.851l-.1.852a2.731,2.731,0,0,1-.237.79,2.54,2.54,0,0,1-.337.684c-.137.2-.28.382-.411.542a3.092,3.092,0,0,1-.773.635,3.572,3.572,0,0,1-.32.187s.043-.139.124-.358.238-.488.326-.849c.047-.18.1-.368.166-.554a4.118,4.118,0,0,0,.123-.614,8.5,8.5,0,0,0,.137-1.315,8.36,8.36,0,0,0-.135-1.315,4.2,4.2,0,0,0-.119-.606,5.366,5.366,0,0,1-.153-.538,8.633,8.633,0,0,0-.347-.877C423.269,227.894,423.231,227.76,423.231,227.76Z" transform="translate(-423.231 -227.76)"/></g><g transform="translate(16.361 1.304)"><path class="bb" d="M426.548,228.791a2.475,2.475,0,0,1,.244.095,1.7,1.7,0,0,1,.558.344,2.38,2.38,0,0,1,.582.829,1.827,1.827,0,0,1,.18.535l.076.582-.076.583a1.757,1.757,0,0,1-.178.535,2.238,2.238,0,0,1-.566.8,1.849,1.849,0,0,1-.578.373,1.947,1.947,0,0,1-.242.09s.015-.1.047-.261.1-.349.132-.588a2.755,2.755,0,0,1,.063-.361,3.668,3.668,0,0,0,.042-.383c.047-.256.029-.526.053-.792-.023-.264-.005-.536-.052-.792-.027-.123,0-.276-.038-.377a2.479,2.479,0,0,1-.051-.343c-.02-.234-.134-.459-.152-.615C426.558,228.89,426.548,228.791,426.548,228.791Z" transform="translate(-426.548 -228.791)"/></g></g><g transform="translate(358.469 49.201)"><path class="bc" d="M414.89,223.3c.43,2.649,1.036,6.358,1.036,6.611,0,.282-2.9-2.065-4.6-3.454a11.421,11.421,0,0,1-5.59,1.445c-6.1,0-11.052-4.694-11.052-10.481a10.779,10.779,0,0,1,11.052-10.488c6.1,0,11.052,4.694,11.052,10.488A10.077,10.077,0,0,1,414.89,223.3Z" transform="translate(-394.212 -206.458)"/><path class="bd" d="M416,230.513c-.242,0-.49,0-4.626-3.382a11.947,11.947,0,0,1-5.534,1.35c-6.357,0-11.529-4.915-11.529-10.958s5.172-10.965,11.529-10.965,11.53,4.919,11.53,10.965a10.531,10.531,0,0,1-1.88,5.993l.1.609c.644,3.965.914,5.659.914,5.888v.477Zm-4.521-4.527.253.206c2,1.64,3.094,2.487,3.691,2.925-.177-1.163-.511-3.214-.776-4.84l-.161-.993.114-.159a9.6,9.6,0,0,0,1.816-5.6c0-5.52-4.743-10.011-10.576-10.011s-10.575,4.49-10.575,10.011,4.743,10,10.575,10a10.99,10.99,0,0,0,5.357-1.383Z" transform="translate(-394.312 -206.558)"/><g transform="translate(3.862 5.243)"><g transform="translate(0 0.931)"><path class="be" d="M402.821,211.47a3.179,3.179,0,0,0-3.366,2.018c-1.234,2.468-3.7,5.16-.56,7.29s3.14.337,4.037-2.467S404.615,212.591,402.821,211.47Z" transform="translate(-397.364 -211.438)"/></g><g transform="translate(9.229 0.931)"><path class="be" d="M405.738,211.47a3.179,3.179,0,0,1,3.366,2.018c1.234,2.468,3.7,5.16.56,7.29s-3.14.337-4.037-2.467S403.944,212.591,405.738,211.47Z" transform="translate(-404.658 -211.438)"/></g><g transform="translate(4.992 0.003)"><path class="bc" d="M407.053,216.716a2.568,2.568,0,0,0-.287,1.07l-1.684-1.676a1.342,1.342,0,0,0-1.894,0l-1.566,1.557c-.06-.235-.161-.588-.278-.951a.4.4,0,0,0-.033-.092l1.59-1.592a2.334,2.334,0,0,0,.683-1.65v-2.67h.959v.076l.135-.085v2.679a2.339,2.339,0,0,0,.682,1.65Z" transform="translate(-401.31 -210.704)"/></g><g transform="translate(4.752)"><path class="be" d="M401.416,216.864l-.3-.3,1.687-1.687a2.107,2.107,0,0,0,.62-1.5V210.7h.42v2.679a2.519,2.519,0,0,1-.744,1.8Z" transform="translate(-401.12 -210.702)"/><g transform="translate(3.4)"><path class="be" d="M406.239,216.864l-1.687-1.687a2.55,2.55,0,0,1-.745-1.8V210.7h.42v2.679a2.133,2.133,0,0,0,.621,1.5l1.687,1.688Z" transform="translate(-403.807 -210.702)"/></g><g transform="translate(0.286 4.806)"><path class="be" d="M406.6,216.932l-1.679-1.679a1.14,1.14,0,0,0-1.6,0l-1.679,1.679-.3-.3,1.679-1.679a1.551,1.551,0,0,1,2.2,0l1.679,1.679Z" transform="translate(-401.346 -214.5)"/></g></g><g transform="translate(7.24 0.011)"><rect class="bf" width="0.025" height="2.071"/></g><g transform="translate(7.24 0.651)"><path class="bf" d="M403.112,211.217v1.431h-.025v-1.415Z" transform="translate(-403.087 -211.217)"/></g></g><g transform="translate(43.441 0.286)"><path class="bc" d="M430.926,223.527c-.43,2.651-1.036,6.358-1.036,6.612,0,.282,2.9-2.065,4.6-3.454a11.435,11.435,0,0,0,5.59,1.445c6.1,0,11.052-4.694,11.052-10.481s-4.948-10.488-11.052-10.488-11.052,4.694-11.052,10.488A10.073,10.073,0,0,0,430.926,223.527Z" transform="translate(-428.546 -206.684)"/><path class="bd" d="M430.021,230.739h-.481l-.028-.5c0-.235.277-1.978.94-6.054l.071-.443a10.535,10.535,0,0,1-1.878-5.993c0-6.047,5.172-10.965,11.529-10.965S451.7,211.7,451.7,217.749s-5.171,10.958-11.529,10.958a11.946,11.946,0,0,1-5.535-1.351C430.541,230.715,430.252,230.739,430.021,230.739Zm10.154-23c-5.831,0-10.575,4.489-10.575,10.011a9.591,9.591,0,0,0,1.813,5.6l.114.159-.133.827c-.261,1.6-.615,3.782-.8,5.005.6-.437,1.69-1.284,3.689-2.925l.252-.206.283.158a10.981,10.981,0,0,0,5.357,1.384c5.833,0,10.576-4.488,10.576-10S446.008,207.738,440.175,207.738Z" transform="translate(-428.646 -206.784)"/><g transform="translate(4.937 6.956)"><g transform="translate(0.959)"><path class="bg" d="M445.158,215.531c0,3.011-5.926,7.96-5.926,7.96s-5.925-5.139-5.925-7.96a3.249,3.249,0,0,1,5.925-1.842,3.25,3.25,0,0,1,5.926,1.842Z" transform="translate(-433.306 -212.282)"/></g><g transform="translate(0 2.19)"><path class="c" d="M441.792,219.284h-.024a.339.339,0,0,1-.3-.238l-1.126-3.59-1.218,3.559a.341.341,0,0,1-.315.232.311.311,0,0,1-.325-.215L437.4,216.34l-.628,1.206a.343.343,0,0,1-.3.185h-3.576a.342.342,0,1,1,0-.685h3.368l.874-1.682a.333.333,0,0,1,.321-.185.338.338,0,0,1,.3.215l1.017,2.527,1.258-3.677a.342.342,0,0,1,.324-.232h.005a.34.34,0,0,1,.321.24L441.858,218l.363-.764a.338.338,0,0,1,.309-.195h3.731a.342.342,0,1,1,0,.685h-3.515l-.645,1.359A.342.342,0,0,1,441.792,219.284Z" transform="translate(-432.548 -214.013)"/></g></g></g></g><g transform="translate(255.603 28.355)"><g transform="translate(0 9.393)"><path class="bg" d="M318.837,204.637a1.3,1.3,0,0,1-1.3-1.3,3.222,3.222,0,0,0-3.219-3.218,1.3,1.3,0,0,1,0-2.609,5.833,5.833,0,0,1,5.826,5.826A1.3,1.3,0,0,1,318.837,204.637Z" transform="translate(-313.011 -197.506)"/></g><path class="bg" d="M328.229,206.606a1.3,1.3,0,0,1-1.3-1.3,12.625,12.625,0,0,0-12.611-12.611,1.3,1.3,0,0,1,0-2.609,15.237,15.237,0,0,1,15.22,15.22A1.3,1.3,0,0,1,328.229,206.606Z" transform="translate(-313.011 -190.082)"/><g transform="translate(0 4.871)"><path class="bg" d="M323.359,205.585a1.3,1.3,0,0,1-1.3-1.3,7.749,7.749,0,0,0-7.741-7.739,1.3,1.3,0,0,1,0-2.609,10.36,10.36,0,0,1,10.35,10.348A1.3,1.3,0,0,1,323.359,205.585Z" transform="translate(-313.011 -193.932)"/></g></g><g transform="translate(450.673)"><g transform="translate(15.923 15.923)"><path class="ap" d="M491.86,182.466a2.21,2.21,0,0,1-2.212,2.21,5.462,5.462,0,0,0-5.454,5.456,2.211,2.211,0,0,1-4.422,0,9.886,9.886,0,0,1,9.876-9.876A2.21,2.21,0,0,1,491.86,182.466Z" transform="translate(-479.772 -180.256)"/></g><path class="ap" d="M495.2,169.883a2.21,2.21,0,0,1-2.212,2.21,21.4,21.4,0,0,0-21.376,21.378,2.212,2.212,0,0,1-4.423,0,25.828,25.828,0,0,1,25.8-25.8A2.211,2.211,0,0,1,495.2,169.883Z" transform="translate(-467.187 -167.671)"/><g transform="translate(8.257 8.257)"><path class="ap" d="M493.467,176.407a2.21,2.21,0,0,1-2.212,2.21,13.137,13.137,0,0,0-13.121,13.122,2.211,2.211,0,0,1-4.422,0A17.562,17.562,0,0,1,491.256,174.2,2.21,2.21,0,0,1,493.467,176.407Z" transform="translate(-473.713 -174.197)"/></g></g><g transform="translate(60.408 4.128)"><g transform="translate(0 15.923)"><path class="aj" d="M168.613,195.606a2.21,2.21,0,0,1-2.21-2.21,5.463,5.463,0,0,0-5.456-5.456,2.21,2.21,0,1,1,0-4.421,9.886,9.886,0,0,1,9.876,9.876A2.21,2.21,0,0,1,168.613,195.606Z" transform="translate(-158.736 -183.519)"/></g><path class="aj" d="M184.534,198.944a2.21,2.21,0,0,1-2.21-2.21,21.4,21.4,0,0,0-21.378-21.378,2.211,2.211,0,0,1,0-4.422,25.828,25.828,0,0,1,25.8,25.8A2.211,2.211,0,0,1,184.534,198.944Z" transform="translate(-158.736 -170.934)"/><g transform="translate(0 8.257)"><path class="aj" d="M176.279,197.213a2.21,2.21,0,0,1-2.21-2.21,13.138,13.138,0,0,0-13.122-13.122,2.21,2.21,0,1,1,0-4.421A17.561,17.561,0,0,1,178.489,195,2.21,2.21,0,0,1,176.279,197.213Z" transform="translate(-158.736 -177.46)"/></g></g></g></g></svg>