<svg xmlns="http://www.w3.org/2000/svg" width="268.113" height="321.377" viewBox="0 0 268.113 321.377"><defs><style>.a{fill:#fff;}.b{fill:#e8e84f;}.c{fill:#d3cc4a;}.d{fill:#211f1f;}.e{fill:#ff584d;}.f{fill:#a7a9ac;}.g{fill:#fccfb2;}.h{fill:#706053;}.i{fill:#373737;}.j{fill:#edbea4;}.k{fill:#2b72b6;}.l{fill:#80b3dd;}</style></defs><g transform="translate(-152 -77)"><path class="a" d="M328.769,763.487a365.042,365.042,0,0,1-67.46-5.844c-19.442-3.679-36.162-9.641-48.355-16.107L215.2,738.5c11.774,6.244,28.027,10.845,47,14.436a360.256,360.256,0,0,0,66.57,5.761,360.289,360.289,0,0,0,66.573-5.761c18.976-3.591,35.229-8.192,47-14.437l2.244,3.033C432.4,748,415.675,753.963,396.232,757.642A365.034,365.034,0,0,1,328.769,763.487Z" transform="translate(-42.715 -463.558)"/><g transform="translate(161.138 257.698)"><g transform="translate(0 0)"><circle class="b" cx="8.199" cy="8.199" r="8.199" transform="translate(2.731)"/><rect class="b" width="5.058" height="123.038" transform="translate(8.4 8.92)"/><path class="c" d="M212.556,734.246a1.77,1.77,0,0,1-1.865,1.848h-5.969a1.77,1.77,0,0,1-1.866-1.848h0a1.77,1.77,0,0,1,1.866-1.848h5.969a1.77,1.77,0,0,1,1.865,1.848Z" transform="translate(-196.777 -716.979)"/><g transform="translate(11.614 2.391)"><path class="a" d="M226.708,693.991a5.13,5.13,0,0,0-5.13-5.13c-.077,0-.153,0-.228.005a7.748,7.748,0,0,1,2.622,6.151,9.026,9.026,0,0,1-.835,3.862A5.131,5.131,0,0,0,226.708,693.991Z" transform="translate(-221.35 -688.861)"/></g><rect class="c" width="21.86" height="4.084" transform="translate(0 131.895)"/><path class="b" d="M204.4,1097.124h-21.86l8.4-10.471H196Z" transform="translate(-182.539 -965.229)"/></g><g transform="translate(227.977 0)"><path class="b" d="M969.933,689.07a8.2,8.2,0,1,1-8.2-8.2A8.2,8.2,0,0,1,969.933,689.07Z" transform="translate(-950.804 -680.871)"/><rect class="b" width="5.058" height="123.038" transform="translate(8.401 8.92)"/><path class="c" d="M974.427,734.246a1.77,1.77,0,0,1-1.866,1.848h-5.969a1.769,1.769,0,0,1-1.865-1.848h0a1.769,1.769,0,0,1,1.865-1.848h5.969a1.77,1.77,0,0,1,1.866,1.848Z" transform="translate(-958.647 -716.979)"/><g transform="translate(11.614 2.391)"><path class="a" d="M988.579,693.991a5.131,5.131,0,0,0-5.13-5.13c-.076,0-.152,0-.227.005a7.749,7.749,0,0,1,2.621,6.151,9.026,9.026,0,0,1-.835,3.862A5.132,5.132,0,0,0,988.579,693.991Z" transform="translate(-983.221 -688.861)"/></g><rect class="c" width="21.86" height="4.084" transform="translate(0 131.895)"/><path class="b" d="M966.268,1097.124h-21.86l8.4-10.471h5.058Z" transform="translate(-944.408 -965.229)"/></g></g><g transform="translate(152 77)"><rect class="a" width="268.113" height="162.057"/><rect class="d" width="19.751" height="66.436" transform="translate(28.227 81.904) rotate(-77.86)"/><rect class="d" width="13.184" height="44.347" transform="translate(55.056 115.365) rotate(-84.731)"/><ellipse class="e" cx="18.405" cy="18.405" rx="18.405" ry="18.405" transform="matrix(0.588, -0.809, 0.809, 0.588, 64.45, 34.356)"/><path class="f" d="M567,230.794,652.282,169l38.9,44.522Z" transform="translate(-442.818 -141.471)"/><rect class="e" width="31.867" height="31.867" transform="matrix(0.417, -0.909, 0.909, 0.417, 179.957, 118.671)"/></g><g transform="translate(249.788 112.121)"><g transform="translate(2.583)"><path class="g" d="M666.622,330.936a6.967,6.967,0,1,1-7.7-6.166A6.974,6.974,0,0,1,666.622,330.936Z" transform="translate(-603.267 -285.719)"/><path class="g" d="M501.321,352.631a6.967,6.967,0,1,1-7.7-6.165A6.976,6.976,0,0,1,501.321,352.631Z" transform="translate(-487.429 -300.923)"/><path class="g" d="M557.279,268.7c1.59,14.252-8.733,28.475-22.985,30.066h0c-14.252,1.59-27.034-10.055-28.624-24.307l-.326-4.8c-1.591-14.251,8.466-28.433,22.717-30.024h0c14.252-1.59,27.3,10.013,28.893,24.265Z" transform="translate(-499.867 -225.985)"/><path class="h" d="M554.412,247.276c-1.555-8.172-10.745-20.777-29.05-18.581-18.148,3.66-22.627,18.886-21.875,27.171.077.85.943,10.852.943,10.852,1.59,14.252,13.708,21.611,27.96,20.021s25.509-11.57,23.918-25.822C556.306,260.918,555.612,253.583,554.412,247.276Z" transform="translate(-498.626 -218.247)"/><path class="i" d="M506.9,218.209c8.506,7.044,27.7,5.123,39.268.047,5.591-2.453,7.8-5.2,10.028-17.116-13.005,6.268-13.679,7.378-13.679,7.378s5.954-7.655,11.568-10.864c-6.951-2.418-18.763-.507-25.131,4.42.255-1.531,1.754-3.7,10.158-7.705-7.755.463-27.256,3.17-28.76,14.26,0,0-2.784-.8-.727-4.829C505.545,205.714,500.936,213.27,506.9,218.209Z" transform="translate(-499.074 -194.369)"/></g><path class="g" d="M493.345,571.611a12.971,12.971,0,0,1-7.161-2.1,13.435,13.435,0,0,1-5.543-14.406c.866-3.857,3.157-14.487,4.161-19.171l8.94,3.6c-1.065,4.968-3.021,14.013-3.838,17.653a3.994,3.994,0,0,0,1.472,4.377c1.622,1.06,4.067.607,6.539-1.212,7.6-5.593,33.719-23.188,50.681-14.754l-4.227,8.5c-9.045-4.5-27.022,3.741-40.827,13.9A17.352,17.352,0,0,1,493.345,571.611Z" transform="translate(-479.834 -433.728)"/><path class="j" d="M552.9,570.671a17.349,17.349,0,0,1-10.2-3.611c-13.8-10.16-31.783-18.4-40.826-13.9l-4.227-8.5c16.962-8.434,43.079,9.162,50.681,14.755,2.472,1.819,4.915,2.271,6.539,1.211a3.993,3.993,0,0,0,1.472-4.377c-.788-3.511-2.516-11.563-3.6-16.605l8.92-3.583c1,4.649,3.069,14.227,3.941,18.108a13.437,13.437,0,0,1-5.543,14.406A12.976,12.976,0,0,1,552.9,570.671Z" transform="translate(-492.009 -433.815)"/><g transform="translate(15.621 165.964)"><rect class="g" width="7.78" height="10.174" transform="translate(6.284 98.747)"/><rect class="g" width="7.481" height="10.174" transform="translate(33.813 98.747)"/><g transform="translate(30.522 104.887)"><rect class="a" width="23.939" height="2.992" transform="translate(0 12.412)"/><path class="i" d="M645.269,1102.937v-3.418a3.225,3.225,0,0,0-3.162,3.436h-5.815L633,1111.932h23.939V1109.8C653.647,1107.185,645.269,1102.937,645.269,1102.937Z" transform="translate(-633 -1099.519)"/></g><g transform="translate(3.292 108.323)"><rect class="a" width="14.064" height="2.992" transform="translate(0 8.977)"/><path class="i" d="M552.8,1111h-7.78l-2.982,8.977h14.1Z" transform="translate(-542.024 -1111)"/></g><path class="k" d="M531,749v14.923c.3,2.752,2.842,5.678,4.913,7.3l.232,76.527h10.868l-.167-75.677,16.7.059.061,75.618H573.79V749Z" transform="translate(-531 -749)"/><rect class="l" width="13.166" height="4.489" transform="translate(3.89 94.558)"/><rect class="l" width="12.867" height="4.489" transform="translate(31.12 94.558)"/></g><g transform="translate(0 71.538)"><g transform="translate(0 8.396)"><path class="i" d="M491.724,497.243,478.8,492.092c1.138-14.039,14.991-30.594,37.148-30.594s36.148,16.555,37.286,30.594L540.5,497.243V562.49H491.724Z" transform="translate(-478.796 -461.498)"/></g><g transform="translate(31.666)"><path class="g" d="M584.619,442.138l.8-8.373,8.94-.325.338,8.594C594.184,443.874,585.148,443.784,584.619,442.138Z" transform="translate(-584.619 -433.44)"/></g></g></g></g></svg>