<svg xmlns="http://www.w3.org/2000/svg" width="334.371" height="308.77" viewBox="0 0 334.371 308.77"><defs><style>.a{opacity:0.71;}.b{fill:#57c4f2;}.c{fill:#47c1f1;}.d{fill:#00a9e8;}.e{fill:#f18950;}.f{fill:#f49853;}.g{fill:#f0804e;}.h{fill:#e74121;}.i{fill:#e84621;}.j{fill:#ed71a8;}.k{fill:#ffd654;}.l{fill:#f3954a;}.m{fill:#e94c1f;}.n{fill:#ed6b4a;}.o{fill:#e73b20;}.p{fill:#7ccef4;}.q{fill:#6dcaf3;}.r{fill:#faec57;}.s{fill:#ec619f;}.t{fill:#75ccf4;}.u{fill:#00aeea;}.v{fill:#a1daf8;}.w{fill:#b1599e;}.x{fill:#009cda;}.y{fill:#ee747d;}.z{fill:#e83181;}.aa{fill:#ee739e;}.ab{fill:#fce256;}.ac{fill:#86d1f5;}.ad{fill:#71cbf4;}.ae{fill:#00ace9;}.af{fill:#00abe9;}.ag{fill:#00a2e5;}.ah{fill:#c65c9f;}.ai{fill:#902d87;}.aj{fill:#ec607d;}.ak{fill:#00b0eb;}.al{fill:#f8ae4e;}.am{fill:#f8ab10;}.an{fill:#ee76a5;}.ao{fill:#e8327e;}.ap{fill:#a7dcf8;}.aq{fill:#ed73aa;}.ar{fill:#e72c6b;}.as{fill:#fadb6c;}.at{fill:#00b6ed;}.au{fill:#00a7e7;}.av{fill:#e72d46;}.aw{fill:#77529d;}.ax{fill:#0095d7;}.ay{fill:#582f88;}.az{fill:#2c4295;}.ba{fill:#0097d8;}.bb{fill:#009ee1;}.bc{fill:#93d5f6;}.bd{fill:#af599e;}.be{fill:#732e88;}.bf{fill:#ffdd54;}.bg{fill:#fae400;}.bh{fill:#fec900;}.bi{fill:#f9cf11;}.bj{fill:#e72887;}.bk{fill:#ae2a87;}.bl{fill:#b95a9e;}.bm{fill:#a02c87;}.bn{fill:#e94e1f;}.bo{fill:#eb5b1d;}.bp{fill:#e9531f;}.bq{fill:#f7dd56;}.br{fill:#a4dbf8;}.bs{fill:#00b2eb;}.bt{fill:#675ba4;}.bu{fill:#44328a;}.bv{fill:#6970b3;}.bw{fill:#009cdc;}.bx{fill:#42378d;}.by{fill:#e7332d;}.bz{fill:#e62d2e;}.ca{fill:#e41520;}.cb{fill:#e63620;}.cc{fill:#f9ee7d;}.cd{fill:#f8de1a;}.ce{fill:#83d0f5;}.cf{fill:#8d559d;}.cg{fill:#ee79ad;}.ch{fill:#f4b61b;}.ci{fill:#ee7592;}.cj{fill:#f3d400;}.ck{fill:#f59e4c;}.cl{fill:#ea561d;}.cm{fill:#ee734b;}.cn{fill:#e63320;}.co{fill:#fff37f;}.cp{fill:#fae912;}.cq{fill:#f7db1c;}</style></defs><g transform="translate(228.441 56.266) rotate(-10)"><g class="a" transform="translate(-223 -88)"><path class="b" d="M628.222,847.279a16.364,16.364,0,0,1-6.112,8.5,16.434,16.434,0,0,1,7.349,17.7,22.877,22.877,0,0,1,16,4.276,16.365,16.365,0,0,1,7.012-9.939h0a19.224,19.224,0,0,0-24.22-20.525" transform="translate(-425.139 -632.141)"/><path class="c" d="M736.469,930.179a19.13,19.13,0,0,1-4.041,9.924,17.773,17.773,0,0,1-1.236,1.417,22.919,22.919,0,0,1,7.7,17.411,16.365,16.365,0,0,0,20.325-23.673,11.386,11.386,0,0,1-13.931-7.694,16.365,16.365,0,0,0-8.84,2.623" transform="translate(-509.163 -694.507)"/><path class="d" d="M730.733,938.95a16.366,16.366,0,0,0-6.977,9.936q.359.262.7.538.531.423,1.031.865a13.207,13.207,0,0,0,1.236-1.417,19.137,19.137,0,0,0,4.041-9.924h0" transform="translate(-503.435 -703.275)"/><path class="e" d="M129.235,451.392a16.835,16.835,0,0,0-2.928,6.96,8.612,8.612,0,0,1,3.216,13.144l.147.2a16.865,16.865,0,0,0,22.416,3.728,15.606,15.606,0,0,0,1.268-.911,16.784,16.784,0,0,0,5.478-7.642,19.689,19.689,0,0,1,.743-8.322,16.917,16.917,0,0,0-8.107-11.831,14.478,14.478,0,0,1-4,4.894,13.181,13.181,0,0,1-1.093.78,14.53,14.53,0,0,1-17.133-.988" transform="translate(-43.228 -324.115)"/><path class="f" d="M136.505,232.8a20.1,20.1,0,0,0,1.734,22.111,14.539,14.539,0,0,1,19.321,7.031q.084.181.163.363a19.96,19.96,0,0,0,7.263-2.89c.515-.334,1.022-.693,1.511-1.082a20.015,20.015,0,0,0,5.444-6.6,11.688,11.688,0,0,1-2.481-19.849c.289-.223.581-.438.881-.628l.24-.152q-.345-.493-.723-.976a19.991,19.991,0,0,0-10.171-6.863,18.372,18.372,0,0,1-5.333,6.741c-.453.359-.916.685-1.385.995a18.449,18.449,0,0,1-16.454,1.827" transform="translate(-49.141 -152.002)"/><path class="g" d="M123.776,361.754q-.559.367-1.093.78l-.221.182a16.451,16.451,0,0,1-4.993,14.278,14.59,14.59,0,0,0,4.964,8.154,16.859,16.859,0,0,1,3.257-3.394c.409-.326.834-.631,1.268-.911a16.874,16.874,0,0,1,17.691-.422A14.564,14.564,0,0,0,145,368.136a20.085,20.085,0,0,1-19.428-7.332l-.025-.074a14.553,14.553,0,0,0-1.739.967" transform="translate(-36.42 -257.882)"/><path class="h" d="M143.59,439.391q-.649.424-1.268.911a16.869,16.869,0,0,0-3.257,3.394,14.539,14.539,0,0,0,17.133.988q.559-.367,1.093-.78a14.465,14.465,0,0,0,4-4.894,16.882,16.882,0,0,0-17.691.422" transform="translate(-53.055 -316.411)"/><path class="i" d="M152.422,356.423l.025.073a20.085,20.085,0,0,0,19.428,7.332,14.539,14.539,0,0,0-19.122-7.558q-.183.079-.363.163" transform="translate(-63.319 -253.521)"/><path class="j" d="M265.687,689.335a14.385,14.385,0,0,0,1.294,12.112l.163-.054a8.691,8.691,0,0,1,13.224,7.039,14.348,14.348,0,0,0,6.5-2.073l.352-.226a14.416,14.416,0,0,0,2.738-2.305,17.347,17.347,0,0,1,1.691-17.339q-.215-.346-.44-.671a18.425,18.425,0,0,1-3.175,3.2,15.882,15.882,0,0,1-1.38.984,18.38,18.38,0,0,1-20.906-.653" transform="translate(-149.99 -508.292)"/><path class="k" d="M-17.633,64.694a11.843,11.843,0,0,0-3.474,16.384,11.843,11.843,0,0,0,4.733,4.187A16.125,16.125,0,0,1-1.99,82.12,11.843,11.843,0,0,0-3.654,65.454,11.843,11.843,0,0,0-17.6,64.683" transform="translate(71.798 -28.372)"/><path class="l" d="M293.291,251.509a20.1,20.1,0,0,1,1.393,20.618,11.688,11.688,0,0,0,11.092-.865q.447-.294.881-.628a11.752,11.752,0,0,0,1.724-1.67,5.59,5.59,0,0,1,1.071-7.715l.417-.3a5.528,5.528,0,0,1,1.218-.595,11.679,11.679,0,0,0-17.739-8.863" transform="translate(-171.854 -172.406)"/><path class="m" d="M274.417,257.541c-.3.19-.592.4-.881.628a11.688,11.688,0,0,0,2.481,19.849,20.1,20.1,0,0,0-1.393-20.618l-.24.152" transform="translate(-153.211 -178.289)"/><path class="n" d="M77.733,495.41q-.327.217-.646.459a8.562,8.562,0,0,0-3.171,5.38,4.419,4.419,0,0,1,2.179,7.227,8.613,8.613,0,0,0,10.983,1.376q.327-.217.646-.459a8.606,8.606,0,0,0,1.451-1.452A16.821,16.821,0,0,1,85.959,494.8a8.612,8.612,0,0,0-8.226.614" transform="translate(-2.872 -360.562)"/><path class="o" d="M125.455,497.376a16.822,16.822,0,0,0,3.216,13.144,8.614,8.614,0,0,0-3.216-13.144" transform="translate(-42.376 -363.139)"/><path class="p" d="M614.054,1204.424a22.478,22.478,0,0,0-9.072,11.747A12.058,12.058,0,0,1,609,1237.523a22.394,22.394,0,0,0,36.847-25.1l-.106.035a19.285,19.285,0,0,1-28.62-9.683,22.34,22.34,0,0,0-3.078,1.665" transform="translate(-411.945 -906.495)"/><path class="q" d="M562.849,1182.148a6.89,6.89,0,0,0-3.064,6.905,5.1,5.1,0,0,1,4.434,5.381,6.891,6.891,0,1,0-1.343-12.259" transform="translate(-377.06 -889.786)"/><path class="r" d="M-204.984,255.291a19.543,19.543,0,0,1,3.073,18.872,9.662,9.662,0,0,0,4.832-1.548l.194-.128A12.377,12.377,0,0,1-194.1,259.54a9.63,9.63,0,0,0-10.877-4.26" transform="translate(211.961 -176.369)"/><path class="s" d="M611.562,635.019a5.659,5.659,0,0,0,6.812,8.966l.147-.049a5.659,5.659,0,0,0-1.262-10.1,3.264,3.264,0,0,1-1.373,1.88l-.09.03a3.273,3.273,0,0,1-4.229-.712" transform="translate(-415.627 -468.254)"/><path class="t" d="M653.032,1109.452a19.368,19.368,0,0,0,.928,9.284,22.394,22.394,0,0,1,28.739,9.607,19.356,19.356,0,0,0,7.784-10.267,16.434,16.434,0,0,1-4.671-19.394,19.484,19.484,0,0,0-1.751-1.561,19.233,19.233,0,0,0-6.652-3.421,22.945,22.945,0,0,1-24.377,15.752" transform="translate(-448.804 -822.479)"/><path class="u" d="M657.659,1196.281a19.284,19.284,0,0,0,28.62,9.683l.106-.035a22.394,22.394,0,0,0-28.739-9.607" transform="translate(-452.511 -900.022)"/><path class="v" d="M1002.436,915.909a3.885,3.885,0,1,0,4.526.214,3.885,3.885,0,0,0-4.526-.214" transform="translate(-716.734 -685.047)"/><path class="w" d="M527.954,759.63a16.368,16.368,0,0,0-4.04,3.717,19.263,19.263,0,0,1,1.677,2.32,19.053,19.053,0,0,1,.081,19.7,16.354,16.354,0,0,0,2.6,1.995l.63-.427.406-.253a16.364,16.364,0,0,1,13.234-1.712l.088-.12a19.137,19.137,0,0,1,9.968-6.609,16.534,16.534,0,0,0,.7-3.771,9.957,9.957,0,0,1-9.821-16.126,16.366,16.366,0,0,0-15.088,1.02l-.4.25" transform="translate(-349.5 -563.102)"/><path class="x" d="M609.687,852.091a19.212,19.212,0,0,0-4.6,4.247l-.088.12a16.441,16.441,0,0,1,3.952,1.766,16.362,16.362,0,0,0,6.111-8.5,19.176,19.176,0,0,0-5.356,2.4" transform="translate(-411.959 -634.55)"/><path class="e" d="M-18.185,465.255q-.262.168-.507.359a6.727,6.727,0,0,0-1.079,9.452,6.727,6.727,0,0,0,8.9,1.477q.258-.167.507-.359a6.7,6.7,0,0,0,2.411-3.839,9.475,9.475,0,0,1-4.722-7.917,6.718,6.718,0,0,0-5.5.817" transform="translate(70.42 -337.558)"/><path class="k" d="M-78.787,221.58a16.8,16.8,0,0,0-6.516,7.987q-.23.593-.421,1.192a12.377,12.377,0,0,1,3.1,15.7,16.8,16.8,0,0,0,6.87,4.981,17.061,17.061,0,0,0,2.039.676,10.792,10.792,0,0,1,3.57.477,16.789,16.789,0,0,0,3.721-.327,16.364,16.364,0,0,1,5.922-9.5q.605-.473,1.24-.883a16.366,16.366,0,0,1,6.137-2.4,16.74,16.74,0,0,0,.327-5.635,16.1,16.1,0,0,1-17.631-14.4q-.03-.3-.049-.606a16.942,16.942,0,0,0-8.3,2.706" transform="translate(120.097 -148.582)"/><path class="j" d="M273.771,749.372l.024.074a14.41,14.41,0,0,0,13.325,6.906,8.691,8.691,0,0,0-13.224-7.039l-.164.054" transform="translate(-156.788 -556.216)"/><path class="y" d="M244.36,566.927a15.981,15.981,0,0,0-1.377.992,18.381,18.381,0,0,0,.434,29.193,14.35,14.35,0,0,1,5.788-7.364l.352-.226a14.418,14.418,0,0,1,19.316,4.039A18.4,18.4,0,0,0,270.8,574.2a19.6,19.6,0,0,1-23.456-5.742,19.829,19.829,0,0,1-1.6-2.364c-.471.247-.943.522-1.4.818" transform="translate(-127.712 -416.073)"/><path class="z" d="M274.077,661a14.35,14.35,0,0,0-5.788,7.364,18.38,18.38,0,0,0,20.906.653c.472-.3.932-.636,1.38-.984a18.418,18.418,0,0,0,3.175-3.2,14.419,14.419,0,0,0-19.34-4.085l-.352.226" transform="translate(-152.595 -487.358)"/><path class="g" d="M-13.518,538.676l-.256.185a3.377,3.377,0,0,0-.439,4.755,3.376,3.376,0,0,0,4.353.726l.256-.185a3.377,3.377,0,0,0,.439-4.755,3.376,3.376,0,0,0-4.353-.726" transform="translate(65.613 -394.572)"/><path class="aa" d="M538.717,530.492a7.047,7.047,0,1,0,7.5,11.93h0l.172-.111a7.023,7.023,0,0,0,1.92-1.844,4.634,4.634,0,0,1,.819-6.5l.03-.023a7.055,7.055,0,0,0-10.255-3.559l-.172.111" transform="translate(-358.363 -387.779)"/><path class="ab" d="M-105.337-85.2a11.076,11.076,0,0,0-1.312,1,14,14,0,0,1,3.534,18.619,11.042,11.042,0,0,0,14.171-6.56A11.042,11.042,0,0,0-95.5-86.315a11.042,11.042,0,0,0-9.834,1.114" transform="translate(136.215 86.992)"/><path class="ac" d="M952.3,970.272a13.761,13.761,0,0,0-2.089,1.663,8.613,8.613,0,0,1-3.449,14.5,13.842,13.842,0,1,0,5.529-16.162" transform="translate(-675.217 -725.682)"/><path class="f" d="M151.647,222.877c-.515.334-1.022.693-1.511,1.082A20.025,20.025,0,0,0,145,229.992a18.448,18.448,0,0,0,16.454-1.827c.469-.31.941-.639,1.385-.995a18.36,18.36,0,0,0,5.333-6.741,20.068,20.068,0,0,0-16.528,2.423" transform="translate(-57.624 -149.193)"/><path class="ad" d="M568.042,1001.8a22.786,22.786,0,0,0-2.168,6.817,19.078,19.078,0,0,1,6.974,20.183q.713.671,1.5,1.318a22.837,22.837,0,0,0,11.7,4.812,19.278,19.278,0,0,1,24.377-15.752,22.94,22.94,0,0,0,1.108-6.837,16.365,16.365,0,0,1-9.855-15.434q-.586.449-1.205.854a19.25,19.25,0,0,1-20,.56,16.376,16.376,0,0,1-1.382,1l-.406.253a16.365,16.365,0,0,1-10.648,2.261" transform="translate(-381.821 -747.916)"/><path class="ae" d="M635.121,963.1a16.364,16.364,0,0,1-5.66,9.037,19.25,19.25,0,0,0,19.99-.577q.619-.405,1.205-.853a16.338,16.338,0,0,1,.465-3.33,22.876,22.876,0,0,0-15.943-4.3" transform="translate(-430.801 -721.768)"/><path class="af" d="M723.894,988.182a19.144,19.144,0,0,1-2.171,1.936,16.365,16.365,0,0,0,9.855,15.434,22.918,22.918,0,0,0-7.7-17.411" transform="translate(-501.865 -741.168)"/><path class="ag" d="M722.3,982.213a16.314,16.314,0,0,0-.435,3.339,19.162,19.162,0,0,0,2.171-1.936q-.5-.442-1.031-.865-.346-.276-.7-.538" transform="translate(-501.974 -736.602)"/><path class="u" d="M662.282,1093.582a19.327,19.327,0,0,0-8.581,13.39,22.98,22.98,0,0,0,24.377-15.752,19.328,19.328,0,0,0-15.8,2.362" transform="translate(-449.472 -819.999)"/><path class="ah" d="M611.176,749.21a9.94,9.94,0,0,0-2.19,1.933,16.426,16.426,0,0,1,9.822,16.126,9.926,9.926,0,0,0,2.978-1.2l.24-.152a9.966,9.966,0,0,0,1.984-15.032l-.186.125-.147.049a5.418,5.418,0,0,1-8.114-3.452,9.916,9.916,0,0,0-4.153,1.377l-.24.152" transform="translate(-415.029 -555.891)"/><path class="ai" d="M601.15,762.944a9.957,9.957,0,0,0,9.821,16.126,16.426,16.426,0,0,0-9.821-16.126" transform="translate(-407.188 -567.702)"/><path class="aj" d="M412.674,525.711a19.534,19.534,0,0,1-7.422,14.013h0A12.808,12.808,0,0,0,414.021,548a15.316,15.316,0,0,1,5.093-5.464l.376-.234a15.324,15.324,0,0,1,9.855-2.134,12.791,12.791,0,0,0-5.758-15.64l-.363.247a11.351,11.351,0,0,1-10.572.956" transform="translate(-258.096 -384.051)"/><path class="p" d="M900.969,975.9a8.613,8.613,0,0,0,7.265,15.531,13.823,13.823,0,0,1,2.213-13.138,14,14,0,0,1,1.236-1.363q-.3-.289-.636-.551a8.656,8.656,0,0,0-10.077-.479" transform="translate(-636.682 -730.67)"/><path class="ak" d="M947.555,985.034a14.067,14.067,0,0,0-1.236,1.363,13.833,13.833,0,0,0-2.213,13.139,8.613,8.613,0,0,0,3.449-14.5" transform="translate(-672.573 -738.775)"/><path class="al" d="M-13.693,150.141a16.115,16.115,0,0,0-5.819,13.4A16.89,16.89,0,0,1-1.832,178.548a16.089,16.089,0,0,0,12.979-9.268q-.495-.535-.962-1.124a18.44,18.44,0,0,1-2.89-17.58,16.063,16.063,0,0,0-4.879-3A16.23,16.23,0,0,0,.654,147a11.851,11.851,0,0,1-13.488,3.52q-.438-.172-.86-.377" transform="translate(69.118 -93.247)"/><path class="am" d="M7.415,147.26a15.976,15.976,0,0,0-1.459,1.074q.422.2.86.377a11.852,11.852,0,0,0,13.488-3.52,16.072,16.072,0,0,0-12.881,2.066" transform="translate(49.477 -91.443)"/><path class="am" d="M-19.413,218.932A16.1,16.1,0,0,0-2.338,233.989q.3-.019.606-.049a16.89,16.89,0,0,0-17.681-15.008" transform="translate(69.018 -148.638)"/><path class="al" d="M93.729,162.6a18.44,18.44,0,0,0,2.915,17.572q.457.584.963,1.123.194-.427.366-.866a16.089,16.089,0,0,0-4.219-17.838" transform="translate(-17.322 -105.255)"/><path class="an" d="M592.63,545.7l-.294.207a7.063,7.063,0,0,1-.849,6.525,4.634,4.634,0,0,0,6.078,1.115l.123-.041a4.635,4.635,0,0,0-4.934-7.847l-.122.041" transform="translate(-401.549 -399.779)"/><path class="ao" d="M589.071,549.119a4.634,4.634,0,0,0-.872,6.5l.023.03a7.064,7.064,0,0,0,.849-6.525" transform="translate(-398.285 -402.996)"/><path class="ap" d="M904.425,918.025a4.348,4.348,0,1,0,4.733,7.3,4.243,4.243,0,0,0,.529-.4,6.89,6.89,0,0,1-.333-6.777,4.349,4.349,0,0,0-4.9-.117" transform="translate(-641.075 -686.62)"/><path class="aq" d="M436.849,600.47a15.5,15.5,0,0,0-1.915,7.087A17.347,17.347,0,0,1,453.862,622.9a15.352,15.352,0,0,0,4.478-1.875l.376-.234.283-.185a8.682,8.682,0,0,1,3.567-9.849l.21-.133a8.682,8.682,0,0,1,2.862-1.112,15.392,15.392,0,0,0-13.456-16.908,12.72,12.72,0,0,1-5.013,6.2l-.316.2a12.747,12.747,0,0,1-10.012,1.415" transform="translate(-280.959 -436.496)"/><path class="ar" d="M448.351,594.763a15.311,15.311,0,0,0-5.093,5.464,12.746,12.746,0,0,0,10.012-1.415l.316-.2a12.723,12.723,0,0,0,5.013-6.2,15.324,15.324,0,0,0-9.855,2.134l-.376.234" transform="translate(-287.371 -436.26)"/><path class="al" d="M-72.789,365.346q-.412.264-.807.576a10.681,10.681,0,0,0-3.754,5.727,7.3,7.3,0,0,1,4.307,9.389,7.3,7.3,0,0,1-.791,1.542,10.732,10.732,0,0,0,12.694.763q.412-.264.807-.576a10.67,10.67,0,0,0,3.6-5.224l-.092-.115a16.365,16.365,0,0,1-3.458-11.439,10.661,10.661,0,0,0-3.415-1.871,16.762,16.762,0,0,1-3.513-.5,10.662,10.662,0,0,0-5.548,1.713" transform="translate(113.646 -260.11)"/><path class="am" d="M-33.342,363.621a16.751,16.751,0,0,0,3.545.485,10.778,10.778,0,0,0-3.513-.5" transform="translate(79.748 -260.099)"/><path class="k" d="M91.255,56.489a6.288,6.288,0,1,0,5.723-.582,6.288,6.288,0,0,0-5.723.582" transform="translate(-14.025 -22.743)"/><path class="as" d="M-149.669,356.058a8.349,8.349,0,0,0-.385.835,8.234,8.234,0,0,0,4.671,10.667,8.233,8.233,0,0,0,2.837.563,7.3,7.3,0,0,1,1.689-1.912,6.167,6.167,0,0,1,.551-.391,7.278,7.278,0,0,1,4.594-1.142,8.234,8.234,0,0,0-.037-9.579q-.461.361-.946.677a12.377,12.377,0,0,1-12.973.282" transform="translate(170.086 -253.545)"/><path class="at" d="M795.626,865.375a11.4,11.4,0,0,0-4.724,12.873,16.364,16.364,0,0,1,13.893,7.662,11.386,11.386,0,1,0-9.2-20.543" transform="translate(-554.781 -645.191)"/><path class="au" d="M792.539,927.564a11.387,11.387,0,0,0,13.893,7.661,16.364,16.364,0,0,0-13.893-7.661" transform="translate(-556.417 -694.507)"/><path class="y" d="M416.161,436.366q-.434.28-.851.609a11.313,11.313,0,0,0-3.209,4,19.837,19.837,0,0,1,1.691,1.871,19.5,19.5,0,0,1,4.19,11.542,12.8,12.8,0,0,1,10.88.793l.5-.364a11.352,11.352,0,0,0-13.19-18.457" transform="translate(-263.371 -314.711)"/><path class="av" d="M437.57,518.269q.023.972-.044,1.947a11.361,11.361,0,0,0,10.572-.956l.363-.247a12.8,12.8,0,0,0-10.869-.76" transform="translate(-282.956 -378.553)"/><path class="aw" d="M520.516,889.261a16.364,16.364,0,0,0-6.652,10.808,13.712,13.712,0,0,1,7.127,16.212,16.476,16.476,0,0,0,6.991,2.609,23.136,23.136,0,0,1,6.893-8.22,19.25,19.25,0,0,1-2.746-19.225,16.478,16.478,0,0,1-11.613-2.183" transform="translate(-341.758 -665.003)"/><path class="ax" d="M588.616,889.409a19.251,19.251,0,0,0,2.746,19.225q.548-.4,1.107-.767a22.971,22.971,0,0,1,10.053-3.561,16.434,16.434,0,0,0-7.349-17.7l-.63.427-.406.253a16.368,16.368,0,0,1-5.565,2.127" transform="translate(-398.242 -662.959)"/><path class="ay" d="M543.4,878.343l-.63.427a16.479,16.479,0,0,0,11.613,2.183,19.22,19.22,0,0,1,2.646-4.58,16.366,16.366,0,0,0-13.234,1.712l-.406.253" transform="translate(-364.025 -654.544)"/><path class="az" d="M596.033,878.863a19.211,19.211,0,0,0-2.646,4.58,16.369,16.369,0,0,0,5.565-2.127l.406-.253.63-.427a16.471,16.471,0,0,0-3.952-1.766" transform="translate(-403.014 -656.993)"/><path class="ba" d="M582.069,982.458a23.133,23.133,0,0,0-6.936,8.226,16.366,16.366,0,0,0,10.648-2.261l.406-.253a16.647,16.647,0,0,0,1.383-1,19.434,19.434,0,0,1-5.5-4.71" transform="translate(-388.953 -736.791)"/><path class="bb" d="M606.625,967.158q-.559.367-1.107.767a19.4,19.4,0,0,0,5.5,4.709,16.363,16.363,0,0,0,5.66-9.037,22.97,22.97,0,0,0-10.053,3.561" transform="translate(-412.358 -722.263)"/><path class="bc" d="M802.454,1075.455a16.542,16.542,0,0,0-6.09,7.138,19.293,19.293,0,0,1,4.671,19.395l.172.134a16.425,16.425,0,1,0,1.248-26.666" transform="translate(-559.364 -806.388)"/><path class="ak" d="M791.664,1115.4a16.434,16.434,0,0,0,4.671,19.394,19.292,19.292,0,0,0-4.671-19.394" transform="translate(-554.664 -839.191)"/><path class="bd" d="M383.162,774.52a19.087,19.087,0,0,0-2.883,6.056,13.092,13.092,0,0,1,8.128,21.116,19.052,19.052,0,0,0,20.166.2l.474-.293a18.95,18.95,0,0,0,5.969-6.19,16.443,16.443,0,0,1-1.737-22.038A18.94,18.94,0,0,0,409.6,770a17.225,17.225,0,0,1-5.625,5.967l-.428.269a17.338,17.338,0,0,1-20.387-1.714" transform="translate(-238.859 -573.136)"/><path class="be" d="M512.431,784.677a16.443,16.443,0,0,0,1.742,22.027,19.1,19.1,0,0,0-1.742-22.027" transform="translate(-338.011 -584.443)"/><path class="f" d="M18.232,437.226a9.474,9.474,0,0,0-2.268,6.46,6.727,6.727,0,0,1,4.722,7.917,9.474,9.474,0,0,0,9.9-.235q.365-.239.736-.516a9.475,9.475,0,0,0,2.69-11.564,16.485,16.485,0,0,1-15.764-2.032" transform="translate(41.772 -316.806)"/><path class="i" d="M15.969,465.312a9.474,9.474,0,0,0,4.722,7.917,6.727,6.727,0,0,0-4.722-7.917" transform="translate(41.764 -338.441)"/><path class="bf" d="M-164.879,261.034a12.35,12.35,0,0,0-2.076,1.677,9.63,9.63,0,0,1-2.787,12.939,12.343,12.343,0,0,0,5.342,6.4,8.226,8.226,0,0,1,11.108-3.453,8.226,8.226,0,0,1,2.836,2.458,12.272,12.272,0,0,0,3.114-3.664,16.881,16.881,0,0,1-3.1-15.7,12.377,12.377,0,0,0-14.429-.66" transform="translate(184.815 -179.54)"/><path class="bg" d="M-169.5,275.072a12.377,12.377,0,0,0-2.787,12.939,9.63,9.63,0,0,0,2.787-12.939" transform="translate(187.36 -191.901)"/><path class="bh" d="M-88.236,270.749a16.872,16.872,0,0,0,3.1,15.7,12.377,12.377,0,0,0-3.1-15.7" transform="translate(122.608 -188.571)"/><path class="bi" d="M-143.694,341.517a8.184,8.184,0,0,0-2.78,3.055,12.377,12.377,0,0,0,13-.291q.485-.315.946-.677a8.234,8.234,0,0,0-11.164-2.087" transform="translate(166.892 -242.058)"/><path class="g" d="M268.841,371.842q-.441.283-.859.612a11.429,11.429,0,0,0,1.992,19.221,19.737,19.737,0,0,1,1.936-1.74c.483-.378.973-.731,1.467-1.049a19.518,19.518,0,0,1,12.218-3.081,11.43,11.43,0,0,0-16.754-13.963" transform="translate(-148.999 -265.042)"/><path class="s" d="M380.023,660.376a17.223,17.223,0,0,0-4.629,4.4l.019.057a14.418,14.418,0,0,1-1.718,17.285,17.463,17.463,0,0,0,4.387,5.868A18.947,18.947,0,0,1,383.2,683.1l.466-.291a19.052,19.052,0,0,1,20.846.664,17.407,17.407,0,0,0,2.162-10.472,15.4,15.4,0,0,1-18.928-15.347,17.233,17.233,0,0,0-7.358,2.44l-.428.269" transform="translate(-233.788 -486.603)"/><path class="bj" d="M370.153,688.654a17.346,17.346,0,0,0-1.691,17.339,14.418,14.418,0,0,0,1.729-17.279l-.019-.057" transform="translate(-228.547 -510.478)"/><path class="bj" d="M434.908,657.367a15.4,15.4,0,0,0,18.928,15.347,17.347,17.347,0,0,0-18.928-15.347" transform="translate(-280.936 -486.314)"/><path class="bk" d="M397.987,758.187a18.946,18.946,0,0,0-5.123,4.884,17.33,17.33,0,0,0,20.387,1.715l.428-.269a17.226,17.226,0,0,0,5.625-5.967,19.061,19.061,0,0,0-20.846-.664l-.466.291" transform="translate(-248.553 -561.663)"/><path class="bl" d="M639.577,720.076a5.427,5.427,0,0,0-2.34,5.722,9.965,9.965,0,0,1,8.433,3.238,5.418,5.418,0,0,0-5.957-9.041l-.147.049" transform="translate(-436.691 -534.019)"/><path class="bm" d="M637.644,747.756a5.418,5.418,0,0,0,8.114,3.453l.147-.049.185-.125a9.964,9.964,0,0,0-8.433-3.238" transform="translate(-437.104 -555.994)"/><path class="al" d="M10.547,308.193a16.957,16.957,0,0,1-.736,2.377A16.882,16.882,0,0,1-2.743,320.985a16.467,16.467,0,0,0-.3,2.14,10.74,10.74,0,0,1,3.567,11.6,16.444,16.444,0,0,0,3.09,2.968A9.576,9.576,0,0,1,5,336.394a6.671,6.671,0,0,1,.736-.516,9.475,9.475,0,0,1,13.711,3.856,16.368,16.368,0,0,0,2.914-1.5q.635-.41,1.241-.883t1.124-.962a14.522,14.522,0,0,1,4.993-14.278,16.46,16.46,0,0,0-18.624-13.964q-.251.036-.5.079" transform="translate(56.406 -217.246)"/><path class="bn" d="M121.376,369.377a14.521,14.521,0,0,0-4.993,14.278,16.451,16.451,0,0,0,4.993-14.278" transform="translate(-35.334 -264.543)"/><path class="am" d="M5.371,311.328q-.635.41-1.241.883a16.364,16.364,0,0,0-5.922,9.5A16.908,16.908,0,0,0,11.5,308.933a16.363,16.363,0,0,0-6.137,2.4" transform="translate(55.445 -217.984)"/><path class="bo" d="M-3.224,373.925A16.366,16.366,0,0,0,.251,385.413l.092.114a10.74,10.74,0,0,0-3.567-11.6" transform="translate(56.59 -268.046)"/><path class="bp" d="M27.676,424.208c-.246.163-.48.332-.736.516a9.473,9.473,0,0,0-1.383,1.3,16.486,16.486,0,0,0,15.764,2.032A9.474,9.474,0,0,0,27.611,424.2" transform="translate(34.378 -305.594)"/><path class="bq" d="M116.671-1.594a4.961,4.961,0,0,0,5.4,8.318l.049-.016A3.2,3.2,0,0,1,124.3,1.991a4.961,4.961,0,0,0-7.629-3.577" transform="translate(-34.168 21.822)"/><path class="bd" d="M378,816.043a19.069,19.069,0,0,0,8.128,21.116A13.092,13.092,0,0,0,378,816.043" transform="translate(-236.577 -608.604)"/><path class="br" d="M545.376,1260.966a12.058,12.058,0,0,0-5.156,7.245,4.351,4.351,0,0,1,.186,6.39,12.057,12.057,0,0,0,18.083,6.589l.619-.432a22.393,22.393,0,0,1-4.023-21.351,12.127,12.127,0,0,0-1.547-.313,12,12,0,0,0-8.185,1.807" transform="translate(-362.06 -949.79)"/><path class="bs" d="M601.139,1261.036a22.394,22.394,0,0,0,4.023,21.352,12.059,12.059,0,0,0-4.023-21.352" transform="translate(-408.107 -951.376)"/><path class="bt" d="M434.245,932.491a13.7,13.7,0,0,0,3.062,24.474l.57-.388.466-.291a18.946,18.946,0,0,1,13.009-2.5,13.679,13.679,0,0,0,3.5-5.87,16.434,16.434,0,0,1-7.127-16.212,13.7,13.7,0,0,0-13.156.579l-.338.212" transform="translate(-275.617 -696.612)"/><path class="bu" d="M513.2,936.312a16.434,16.434,0,0,0,7.127,16.212,13.712,13.712,0,0,0-7.127-16.212" transform="translate(-341.097 -701.245)"/><path class="bv" d="M442.169,1035.533a19.018,19.018,0,0,0-7.858,12.588A7.692,7.692,0,0,1,438.2,1061.8q-.281.22-.578.418h0a19.06,19.06,0,0,0,25.412,5.184l.466-.291a18.948,18.948,0,0,0,8.03-11.057,22.954,22.954,0,0,1-6.974-20.182,19.107,19.107,0,0,0-8.356-3.581,13.64,13.64,0,0,1-2.149,1.729l-.338.212a13.678,13.678,0,0,1-11.548,1.3" transform="translate(-280.479 -775.18)"/><path class="bw" d="M565.044,1047.907a22.953,22.953,0,0,0,6.974,20.182,19.078,19.078,0,0,0-6.974-20.182" transform="translate(-380.98 -787.206)"/><path class="bx" d="M469.018,1034.374l-.57.389A13.675,13.675,0,0,0,480,1033.492l.338-.212a13.694,13.694,0,0,0,2.149-1.729,18.949,18.949,0,0,0-13,2.5l-.466.291" transform="translate(-306.775 -774.404)"/><path class="n" d="M273.119,444.7a19.473,19.473,0,0,0-4.672,7.8,16.952,16.952,0,0,1-.743,8.323,19.467,19.467,0,0,0,2.418,7.292,18.389,18.389,0,0,1,24.84,7.7q.107.2.209.408a19.524,19.524,0,0,0,2.581-1.41q.747-.484,1.47-1.041a12.791,12.791,0,0,1,5.16-14.787l.316-.2.106-.035a11.369,11.369,0,0,1-3.974-14.39,19.543,19.543,0,0,0-12.107-5.5,11.37,11.37,0,0,1-3.49,4.606q-.417.329-.859.611a11.431,11.431,0,0,1-11.272.653" transform="translate(-152.144 -318.069)"/><path class="o" d="M267.945,498.275a19.69,19.69,0,0,0-.743,8.323,16.952,16.952,0,0,0,.743-8.323" transform="translate(-151.639 -363.831)"/><path class="by" d="M278.528,559.024a19.612,19.612,0,0,0,25.056,8.106,18.389,18.389,0,0,0-24.639-8.319q-.21.1-.417.213" transform="translate(-160.482 -408.987)"/><path class="bz" d="M408.033,525.668a12.79,12.79,0,0,0-5.16,14.787h0a19.533,19.533,0,0,0,7.422-14.013,11.363,11.363,0,0,1-1.886-1.008l-.106.035-.316.2" transform="translate(-255.753 -384.752)"/><path class="by" d="M408.307,462.66a11.369,11.369,0,0,0,3.974,14.39,12.8,12.8,0,0,1,1.927-.948,19.5,19.5,0,0,0-4.19-11.541,19.744,19.744,0,0,0-1.71-1.9" transform="translate(-259.588 -336.398)"/><path class="ca" d="M429.363,522.189a11.264,11.264,0,0,0,1.886,1.008,15.909,15.909,0,0,0,.044-1.947,12.835,12.835,0,0,0-1.927.948" transform="translate(-276.668 -381.529)"/><path class="cb" d="M294.751,441.562a18,18,0,0,0-1.467,1.049,19.809,19.809,0,0,0-1.937,1.74,11.429,11.429,0,0,0,11.272-.653q.442-.283.859-.611a11.369,11.369,0,0,0,3.491-4.606,19.519,19.519,0,0,0-12.218,3.081" transform="translate(-170.357 -317.723)"/><path class="cc" d="M-197.422-84.556A13.979,13.979,0,0,0-201.54-65.22,13.979,13.979,0,0,0-182.2-61.1a13.98,13.98,0,0,0,4.26-4.341l-.237-.085a11.042,11.042,0,0,1-6.243-14.313,11.041,11.041,0,0,1,2.946-4.221,14,14,0,0,0-15.952-.49" transform="translate(211.045 86.851)"/><path class="cd" d="M-119.074-74.862a11.042,11.042,0,0,0-.915,15.589,11.043,11.043,0,0,0,4.221,2.943l.237.085a14,14,0,0,0-3.534-18.619" transform="translate(148.639 77.651)"/><path class="l" d="M356.554,296.581l-.417.3a5.59,5.59,0,0,0-1.071,7.714,11.687,11.687,0,0,0,2.682-8.6,5.531,5.531,0,0,0-1.218.595" transform="translate(-218.603 -208.017)"/><path class="ce" d="M510.834,1295.216a4.349,4.349,0,1,0,5.4,6.758,12.1,12.1,0,0,1-.184-6.382l-.163-.136a4.35,4.35,0,0,0-5.06-.237" transform="translate(-337.897 -977.168)"/><path class="bs" d="M539.063,1299.175a12.121,12.121,0,0,0,.178,6.393,4.355,4.355,0,0,0-.186-6.39" transform="translate(-360.903 -980.754)"/><path class="p" d="M934.925,905.362a6.947,6.947,0,0,0-2.393,2.717l.169.126a4.351,4.351,0,0,1,.194,6.66,6.891,6.891,0,1,0,2.095-9.517l-.035.022" transform="translate(-664.252 -676.558)"/><path class="bs" d="M930.108,920.879a6.891,6.891,0,0,0,.363,6.785,4.348,4.348,0,0,0-.194-6.66l-.169-.125" transform="translate(-661.828 -689.357)"/><path class="ac" d="M537.558,1216.428a5.09,5.09,0,1,0,7.875,4.593,6.889,6.889,0,0,1-4.431-5.372,5.083,5.083,0,0,0-3.376.766" transform="translate(-358.242 -916.384)"/><path class="u" d="M560.245,1215.781a6.89,6.89,0,0,0,4.434,5.381,5.1,5.1,0,0,0-4.434-5.381" transform="translate(-377.485 -916.517)"/><path class="cf" d="M697.729,755.492A3.075,3.075,0,0,0,701,760.7l.082-.027a3.075,3.075,0,0,0-3.277-5.2l-.082.027" transform="translate(-482.349 -561.609)"/><path class="bt" d="M358.01,1057.849l-.387.282a5.211,5.211,0,0,0,6.058,8.472l.4-.285a5.211,5.211,0,0,0-6.058-8.472" transform="translate(-219.845 -794.195)"/><path class="s" d="M546.288,665.8a15.364,15.364,0,0,1-6.638,11.094,8.69,8.69,0,0,0,12.807,4.827l.21-.133a8.682,8.682,0,0,0-6.379-15.788" transform="translate(-361.621 -492.755)"/><path class="bj" d="M541.913,667.553a8.682,8.682,0,0,0-3.567,9.849,15.365,15.365,0,0,0,6.638-11.094,8.678,8.678,0,0,0-2.862,1.112l-.21.133" transform="translate(-360.317 -493.264)"/><path class="cg" d="M615.822,616.293a3.273,3.273,0,0,0-1.012,4.446,3.309,3.309,0,0,0,.272.382,5.65,5.65,0,0,1,.785-.614l.155-.051a5.642,5.642,0,0,1,4.762-.527,3.273,3.273,0,0,0-4.845-3.665l-.09.03" transform="translate(-419.147 -454.355)"/><path class="bj" d="M618.273,633.377a5.673,5.673,0,0,0-.785.615,3.273,3.273,0,0,0,4.229.712l.09-.03a3.265,3.265,0,0,0,1.373-1.88,5.651,5.651,0,0,0-4.762.526l-.155.051" transform="translate(-421.578 -467.218)"/><path class="al" d="M-119.083,400.221a7.313,7.313,0,0,0,1.2,9.1h0l.39-.275a5.168,5.168,0,0,1,7.135,1.582c.046.072.09.145.132.218a7.269,7.269,0,0,0,1.336-.679q.284-.185.551-.391a7.3,7.3,0,0,0,1.539-1.654,10.732,10.732,0,0,1-3.521-10.946,7.3,7.3,0,0,0-1.952-.414,8.243,8.243,0,0,1-6.856,3.462" transform="translate(146.615 -285.639)"/><path class="bo" d="M-78.5,398.567a10.732,10.732,0,0,0,3.516,10.93,7.3,7.3,0,0,0-1.974-10.139,7.314,7.314,0,0,0-1.542-.791" transform="translate(114.795 -287.028)"/><path class="ch" d="M-113.238,397.8c-.185.125-.371.25-.551.391a7.292,7.292,0,0,0-1.713,1.92,8.235,8.235,0,0,0,6.856-3.462,7.278,7.278,0,0,0-4.594,1.142" transform="translate(143.034 -285.527)"/><path class="ac" d="M490.13,1253.2a2.689,2.689,0,0,0-.387.31,2.644,2.644,0,1,0,.387-.31" transform="translate(-322.557 -945.004)"/><path class="ci" d="M606.106,518.024a2.32,2.32,0,0,0,2.473,3.926l.057-.019a2.32,2.32,0,1,0-2.472-3.926l-.066.021" transform="translate(-411.976 -378.754)"/><path class="bq" d="M149.718,16.469a4.961,4.961,0,0,1-2.178,4.706,3.2,3.2,0,1,0,2.178-4.706" transform="translate(-59.583 7.344)"/><path class="cj" d="M147.222,17.128a3.2,3.2,0,0,0-1.05,4.25,4.961,4.961,0,0,0,2.178-4.706,3.221,3.221,0,0,0-1.128.456" transform="translate(-58.215 7.141)"/><path class="bq" d="M-222.581,356.464a19.448,19.448,0,0,1-5.66,5.615q-.447.294-.913.557a5.056,5.056,0,0,0,6.27,3.437,5.056,5.056,0,0,0,3.437-6.27,5.055,5.055,0,0,0-3.008-3.291l-.125-.049" transform="translate(230.579 -254.596)"/><path class="bq" d="M-193.267,418.225a2.317,2.317,0,0,0-.688,3.2,2.317,2.317,0,0,0,3.2.688,2.317,2.317,0,0,0,.688-3.2,2.315,2.315,0,0,0-1.1-.9,2.3,2.3,0,0,0-2.108.209" transform="translate(203.752 -301.882)"/><path class="ck" d="M-115.975,451.416a5.168,5.168,0,0,0-.371,7.3,5.168,5.168,0,0,0,6.374,1.037l.39-.275a5.167,5.167,0,0,0,1.306-6.54,7.3,7.3,0,0,1-7.657-1.526" transform="translate(144.711 -327.733)"/><path class="cl" d="M-109.742,447.44l-.39.274h0a7.3,7.3,0,0,0,7.657,1.526,5.168,5.168,0,0,0-7.048-1.932q-.111.063-.218.132" transform="translate(138.898 -324.05)"/><path class="l" d="M-152.007,442.684l-.177.122a2.317,2.317,0,0,0-.539,3.232,2.317,2.317,0,0,0,3.232.539h0l.177-.122a2.317,2.317,0,0,0,.539-3.232,2.317,2.317,0,0,0-3.232-.539h0" transform="translate(172.038 -320.678)"/><path class="cm" d="M51.879,525.65l-.33.236a4.419,4.419,0,0,0-.739,6.2l.125.158.128-.106.226-.166a3.04,3.04,0,0,1,4.511,1.535,4.349,4.349,0,0,0,.872-.434l.33-.237a4.407,4.407,0,0,0,.554-.519q-.228-.251-.446-.524a8.614,8.614,0,0,1-1.727-6.687,4.409,4.409,0,0,0-3.514.567" transform="translate(15.653 -384.388)"/><path class="cn" d="M73.548,525.4a8.613,8.613,0,0,0,1.727,6.687q.217.272.446.524a4.419,4.419,0,0,0-2.179-7.227" transform="translate(-2.504 -384.714)"/><path class="cm" d="M51.126,556.63a3.041,3.041,0,0,0,3.661,4.83l.226-.166A3.04,3.04,0,0,0,56,557.882a4.419,4.419,0,0,1-4.874-1.26" transform="translate(15.461 -408.775)"/><path class="cb" d="M54.871,553.837l-.226.166-.128.106a4.418,4.418,0,0,0,4.874,1.26,3.04,3.04,0,0,0-4.511-1.535" transform="translate(12.071 -406.254)"/><path class="ci" d="M92.619,593.2l-.177.122a2.317,2.317,0,0,0,2.693,3.771l.177-.122a2.317,2.317,0,0,0-2.693-3.771h0" transform="translate(-16.395 -436.622)"/><path class="n" d="M51.732,597.88l-.139.1a1.817,1.817,0,0,0,2.106,2.931l.139-.1a1.817,1.817,0,0,0-2.106-2.931" transform="translate(14.778 -440.381)"/><path class="y" d="M145.376,615.542q-.284.185-.556.4A7.416,7.416,0,0,0,153.435,628q.284-.185.556-.4a7.416,7.416,0,0,0-8.616-12.052" transform="translate(-55.315 -453.248)"/><path class="bt" d="M401.262,1102.034a5.9,5.9,0,0,0-.578.419,7.692,7.692,0,0,0,8.917,12.469q-.4-.565-.769-1.17a18.95,18.95,0,0,1-2.538-12.933,7.656,7.656,0,0,0-5.051,1.185" transform="translate(-252.487 -827.924)"/><path class="bx" d="M433.386,1101.143a18.948,18.948,0,0,0,2.543,12.95q.364.606.769,1.17h0a6.915,6.915,0,0,0,.578-.418,7.692,7.692,0,0,0-3.893-13.682" transform="translate(-279.576 -828.212)"/><path class="bt" d="M328.073,1106.329l-.226.166a3.075,3.075,0,0,0,3.571,5l.234-.168a3.075,3.075,0,0,0-3.571-5" transform="translate(-197.583 -831.835)"/><path class="co" d="M-195.7,89.51a19.551,19.551,0,0,0-10.339-25.644,19.552,19.552,0,0,0-25.048,9.067,5.056,5.056,0,0,1,.6,7.125,5.056,5.056,0,0,1-2.672,1.651,19.64,19.64,0,0,0,.387,4.137l.1.454a9.63,9.63,0,0,1,13.455,2.1,9.629,9.629,0,0,1-.472,11.947A19.56,19.56,0,0,0-195.7,89.51" transform="translate(233.665 -28.008)"/><path class="cp" d="M-230.975,257.715a9.63,9.63,0,0,0-2.825,13.322,9.629,9.629,0,0,0,8.493,4.372,19.543,19.543,0,0,0-3.068-18.883,9.7,9.7,0,0,0-2.6,1.181" transform="translate(235.357 -177.615)"/><path class="cq" d="M-227.85,355.968a5.064,5.064,0,0,0-2.139,5.673q.466-.263.913-.557a19.446,19.446,0,0,0,5.7-5.637,5.047,5.047,0,0,0-4.476.513" transform="translate(231.375 -253.579)"/><path class="bq" d="M183.478,11.6a2.153,2.153,0,1,0,1.958-.2,2.153,2.153,0,0,0-1.958.2" transform="translate(-86.508 11.312)"/></g></g></svg>