<svg xmlns="http://www.w3.org/2000/svg" width="715.122" height="389.251" viewBox="0 0 715.122 389.251"><defs><style>.a{fill:#7f5448;}.b{fill:#232627;}.c{fill:#000001;}.ba,.d,.e{fill:#fff;}.e{opacity:0.3;}.bb,.bc,.f{fill:#fe6824;}.g{fill:#4059a4;}.h{fill:#5eb6b6;}.i{fill:#ffe76a;}.j{opacity:0.7;}.k{fill:#304b9b;}.l{fill:#5368ae;}.m{fill:#eb4946;}.n{fill:#bbbcbc;}.n,.o{opacity:0.6;}.p{fill:#aaa;}.q{fill:#a61820;}.r{fill:#f7e539;}.s{fill:#f6a014;}.t{fill:#c92a29;}.u{fill:#650810;}.v{fill:#f5721b;}.w{fill:#e8ce31;}.x{fill:#c4bfbd;}.y{fill:#424040;}.z{fill:#002983;}.aa{fill:#10388e;}.ab{fill:#efe6d8;}.ac{fill:#616bb0;}.ad{fill:#e8b6a5;}.ae{fill:#9086bf;}.af{fill:#9d81ba;}.ag{fill:#78569f;}.ah{fill:#fff9f0;}.ai{fill:#040505;}.aj{fill:#d2d6cd;}.ak{fill:#f19371;}.al{fill:#ede726;}.am{fill:#a6a7a7;}.an{fill:#ee509c;}.ao{fill:#0065ac;}.ap{fill:#ad5127;}.aq{fill:#cc531c;}.ar{fill:#fdbd9a;}.as{fill:#59a1d2;}.at{fill:#e1a58f;}.au{fill:#54473e;}.av{fill:#b3927d;}.aw{fill:#cca88b;}.ax{fill:#e9e9e8;}.ay{fill:#105881;}.az{fill:#141414;}.ba{font-size:20px;font-family:OCRAStd, OCR A Std;}.bb{opacity:0.235;}.bc{opacity:0.156;}</style></defs><g transform="translate(-515.797 -457.084)"><g transform="translate(366.823 420.961)"><g transform="translate(148.974 171.454)"><path class="a" d="M62.126,182.461a11.857,11.857,0,0,1-4.287-.821,9.72,9.72,0,0,1-5.45-5.415c-4.521-10.476,4.351-32.821,5.379-35.334l7.043,2.875c-3.41,8.359-7.9,23.744-5.438,29.446a2.118,2.118,0,0,0,1.2,1.331,3.838,3.838,0,0,0,3.358-.15c4.874-2.461,8.621-12.723,9.55-16.122l7.339,2.005c-.458,1.675-4.724,16.492-13.458,20.907A11.538,11.538,0,0,1,62.126,182.461Zm2.685-38.7-3.522-1.438,3.522,1.438Z" transform="translate(-16.546 -57.489)"/><g transform="translate(52.561 71.82)"><path class="b" d="M113.422,157.13l8.368-8.609c-5.852-10.745-22.727-18.987-40.316-11.178-14.351,6.371-20.467,19.556-20.039,30.466l13.248,6.521s9.713,12.509,13.959,22.114c5.651,12.777,9.059,29.732,9.059,29.732l38.739-17.2Z" transform="translate(-61.414 -134.26)"/></g><g transform="translate(0)"><path class="b" d="M114.594,121.432a42.916,42.916,0,1,1-54.981-25.7A42.915,42.915,0,0,1,114.594,121.432Z" transform="translate(-31.325 -93.147)"/><g transform="translate(28.959 19.415)"><path class="a" d="M96.475,125.706a22.947,22.947,0,0,1-11.641,30.289h0a22.944,22.944,0,0,1-30.289-11.641l-3.476-7.819a22.943,22.943,0,0,1,11.641-30.288h0A22.943,22.943,0,0,1,93,117.887Z" transform="translate(-47.022 -104.261)"/><path class="a" d="M59.689,127.563a6.157,6.157,0,1,1-8.134-3.137A6.162,6.162,0,0,1,59.689,127.563Z" transform="translate(-47.903 -89.598)"/></g><g transform="translate(29.974 18.519)"><path class="b" d="M51.987,110.047l9.269,6.443a37.424,37.424,0,0,1,3.136-2.734L56.2,106.422A29.885,29.885,0,0,0,51.987,110.047Z" transform="translate(-45.867 -101.751)"/><path class="b" d="M49.653,113.941l9.756,4.766c.667-.952,2.131-2.833,2.926-3.714l-9.865-5.646A28.413,28.413,0,0,0,49.653,113.941Z" transform="translate(-47.611 -99.567)"/><path class="b" d="M55.315,106.588l7.358,7.772c.811-.58,1.958-1.233,2.835-1.736-1.338-1.694-4.367-5.033-6.533-7.763A25.288,25.288,0,0,0,55.315,106.588Z" transform="translate(-43.382 -102.918)"/><path class="b" d="M58.357,105.035l5.6,7.894c.086-.047.171-.1.259-.141a23.4,23.4,0,0,1,2.26-1.018c-.784-1.983-1.536-5.2-2.62-7.927A47.548,47.548,0,0,0,58.357,105.035Z" transform="translate(-41.11 -103.678)"/><path class="b" d="M48.534,118.25l9.742,1.081a25.981,25.981,0,0,1,1.581-2.931L49.6,113.247A25.393,25.393,0,0,0,48.534,118.25Z" transform="translate(-48.446 -96.654)"/><path class="b" d="M49.206,121.919a20.972,20.972,0,0,0,8.472,10.518c-.29-.61-.557-1.235-.793-1.88a22.208,22.208,0,0,1-1.006-10.17l-6.7,1.445C49.186,121.861,49.2,121.889,49.206,121.919Z" transform="translate(-47.967 -91.321)"/><path class="b" d="M49.113,122.431l7.456-.531a30.076,30.076,0,0,1,1.342-4.469l-9.426-.405A23.633,23.633,0,0,0,49.113,122.431Z" transform="translate(-48.484 -93.831)"/><path class="b" d="M69.534,109.908a34.227,34.227,0,0,1,6.16,3.113,23.149,23.149,0,0,0-5.613-7.115Z" transform="translate(-32.762 -102.137)"/><path class="b" d="M66.34,104.173l.119,6.14a18.815,18.815,0,0,1,4.491.6c.08-1.4.171-3,.26-4.58A20.884,20.884,0,0,0,66.34,104.173Z" transform="translate(-35.147 -103.431)"/><path class="b" d="M62.544,103.771l1.612,7.774a20.689,20.689,0,0,1,4.138-.87c-.257-1.853-.6-4.306-.919-6.6A22.079,22.079,0,0,0,62.544,103.771Z" transform="translate(-37.982 -103.748)"/><path class="a" d="M57.737,104.983c-.11.04-.217.086-.327.128,2.166,2.73,5.2,6.069,6.533,7.763.337-.194.377-.273.725-.454l-5.6-7.894C58.406,104.719,58.4,104.74,57.737,104.983Z" transform="translate(-41.817 -103.168)"/><path class="a" d="M61.507,103.9c1.085,2.732,1.836,5.945,2.62,7.927.4-.157.409-.171.8-.3l-1.612-7.774A15.811,15.811,0,0,0,61.507,103.9Z" transform="translate(-38.757 -103.739)"/><path class="a" d="M65.31,103.936c.321,2.292.662,4.745.919,6.6a8.069,8.069,0,0,1,1-.044l-.119-6.14A13.149,13.149,0,0,0,65.31,103.936Z" transform="translate(-35.917 -103.608)"/><path class="a" d="M69.239,105.408c-.089,1.579-.18,3.185-.26,4.58a8.345,8.345,0,0,1,.97.292l.547-4A7.749,7.749,0,0,0,69.239,105.408Z" transform="translate(-33.176 -102.509)"/><path class="a" d="M54.4,106.85l8.191,7.333c.362-.283.39-.3.767-.563L56,105.849A15.321,15.321,0,0,0,54.4,106.85Z" transform="translate(-44.066 -102.179)"/><path class="a" d="M51.266,109.982l9.865,5.646c.318-.353.325-.348.664-.688L52.526,108.5A15.266,15.266,0,0,0,51.266,109.982Z" transform="translate(-46.406 -100.202)"/><path class="a" d="M49.143,114.2,59.4,117.349c.255-.411.243-.416.521-.814l-9.889-4.558A22.433,22.433,0,0,0,49.143,114.2Z" transform="translate(-47.992 -97.602)"/><path class="a" d="M48.484,117.709l9.426.405c.187-.484.185-.447.4-.922l-9.742-1.081A9.758,9.758,0,0,0,48.484,117.709Z" transform="translate(-48.484 -94.515)"/><path class="a" d="M49.424,122.258l6.7-1.445c.059-.456.086-.547.173-1l-7.456.531Q49.085,121.306,49.424,122.258Z" transform="translate(-48.215 -91.748)"/></g><g transform="translate(51.942 39.162)"><path class="c" d="M72.609,120.052a2.6,2.6,0,1,0-.056-3.78A2.675,2.675,0,0,0,72.609,120.052Z" transform="translate(-53.039 -115.566)"/><path class="c" d="M61.871,125.956a2.6,2.6,0,1,0-.056-3.78A2.673,2.673,0,0,0,61.871,125.956Z" transform="translate(-61.06 -111.156)"/></g><path class="d" d="M82.144,120.941l-16.707,9.093c2.456,2.241,7.657,3.82,11.854,1.314C81.924,128.58,83.376,123.774,82.144,120.941Z" transform="translate(-5.848 -72.389)"/></g><path class="a" d="M83.227,137.07a27.914,27.914,0,0,0-3,.751l-3.609-6.4-7.211,2.893,2.776,6.982a23.442,23.442,0,0,0-3.16,2.065,8.7,8.7,0,0,0,.468,1.017c2.112,4.287,6.928,6.194,10.757,4.262s5.22-6.974,3.109-11.26C83.323,137.313,83.264,137.138,83.227,137.07Z" transform="translate(-3.17 -64.559)"/><g transform="translate(37.237 40.091)"><g transform="translate(1.516 1.365)"><path class="a" d="M54.781,135.461c2.161,1.763,3.96,5.082,6.38,6.2,2.5,1.153,5.623.082,8.261.557a12.861,12.861,0,1,0-15.886-14.052c-.072.576.028,3.365.028,3.365A12.792,12.792,0,0,0,54.781,135.461Z" transform="translate(-53.509 -116.879)"/><path class="c" d="M62.2,121.354a3.625,3.625,0,1,1-.811,4.914A3.524,3.524,0,0,1,62.2,121.354Z" transform="translate(-48.108 -113.954)"/></g><path class="e" d="M53.566,128.166a12.862,12.862,0,0,0,11.189,14.34h0a12.862,12.862,0,0,0,14.34-11.191h0A12.859,12.859,0,0,0,67.9,116.977h0a12.86,12.86,0,0,0-14.338,11.189Z" transform="translate(-52.024 -115.514)"/><path class="f" d="M52.749,128.54a14.177,14.177,0,1,1,12.335,15.806A14.194,14.194,0,0,1,52.749,128.54Zm2.631.325a11.526,11.526,0,1,0,12.85-10.027A11.539,11.539,0,0,0,55.38,128.865Z" transform="translate(-52.641 -116.097)"/><path class="f" d="M58.95,131.43l-2.835,22.982a3.647,3.647,0,0,0,3.206,4.049l.072.009a3.647,3.647,0,0,0,4.093-3.15l2.835-22.982Z" transform="translate(-50.068 -104.646)"/><path class="d" d="M55.523,129.012a6.867,6.867,0,0,1,.418-6.14l3.728,1.3a6.876,6.876,0,0,0,1.5,9.026A6.874,6.874,0,0,1,55.523,129.012Z" transform="translate(-50.888 -111.038)"/><path class="a" d="M55.746,146.936a5.352,5.352,0,1,0-.583-7.547A5.352,5.352,0,0,0,55.746,146.936Z" transform="translate(-51.72 -100.098)"/></g></g><g transform="translate(231.706 36.123)"><path class="d" d="M589.216,44.518H78.685V23.685a8.009,8.009,0,0,1,8.008-8.008H581.208a8.008,8.008,0,0,1,8.008,8.008Z" transform="translate(-78.685 -15.677)"/><rect class="d" width="510.531" height="354.894" transform="translate(0.001 19.622)"/><path class="g" d="M92.759,23.381a5.1,5.1,0,1,1-5.1-5.1A5.1,5.1,0,0,1,92.759,23.381Z" transform="translate(-75.798 -13.735)"/><path class="h" d="M102.213,23.381a5.1,5.1,0,1,1-5.1-5.1A5.1,5.1,0,0,1,102.213,23.381Z" transform="translate(-68.737 -13.735)"/><path class="i" d="M111.667,23.381a5.1,5.1,0,1,1-5.1-5.1A5.1,5.1,0,0,1,111.667,23.381Z" transform="translate(-61.676 -13.735)"/><g class="j" transform="translate(0.001 19.624)"><rect class="f" width="510.531" height="27.629"/><g transform="translate(16.385 7.694)"><rect class="d" width="116.109" height="12.812"/><rect class="k" width="12.812" height="12.812" transform="translate(116.109)"/></g><g transform="translate(435.579 4.29)"><path class="k" d="M340.843,44.127H328.031l6.406-12.812Z" transform="translate(-328.031 -27.912)"/><rect class="k" width="12.812" height="12.812" transform="translate(38.051 3.403)"/><circle class="k" cx="6.406" cy="6.406" r="6.406" transform="translate(19.025 3.403)"/><circle class="i" cx="3.503" cy="3.503" r="3.503" transform="translate(28.427)"/><circle class="i" cx="3.503" cy="3.503" r="3.503" transform="translate(47.359)"/></g></g><g transform="translate(316.996 304.551)"><g class="j" transform="translate(0 0)"><rect class="l" width="80.763" height="7.062"/><rect class="m" width="53.952" height="3.972" transform="translate(0 12.292)"/><rect class="m" width="27.472" height="3.972" transform="translate(0 20.127)"/><rect class="m" width="53.952" height="3.972" transform="translate(0 27.962)"/><rect class="n" width="47.333" height="3.972" transform="translate(0 35.797)"/><rect class="n" width="53.952" height="3.972" transform="translate(0 43.883)"/></g></g><g class="o" transform="translate(47.607 61.639)"><g class="j" transform="translate(-11 10)"><path class="p" d="M158.213,114.271c-1.745,1.172-5.424,2.826-5.877,4.407s1.581,8.93-.791,11.077a12.782,12.782,0,0,0-2.035,15.71c4.07,7.347,12.207,13.449,14.807,17.631s1.356,28.031,3.5,34.021,5.2,20.458,14.693,24.3,6.668,1.242,6.668.678-4.86-3.05-5.99-8.589-3.73-14.354,2.374-16.5,9.154-11.755,11.98-17.181.678-7.912,3.616-8.589,8.7-3.5,8.817-7.347-1.808-9.04.791-11.189,6.215-9.833,0-13.561-7.347-3.957-11.529-4.748-5.085-9.042-11.3-11.077-9.381-3.73-10.286-6.781-3.841-1.356-7.912-1.469S163.625,110.643,158.213,114.271Z" transform="translate(-74.746 -4.761)"/><path class="p" d="M177.65,149.192c1.508,1.431-1.356,6.554,0,8.7s4.86,4.068,3.391,4.86-6.781-2.035-8.023-5.2-4.3-3.618-7.009-5.765-6.781-2.147-10.284-3.843-8.817-4.746-9.044-8.025-4.294-12.771-5.424-12.544,1.356,7.459,0,8.815-5.312-7.573-5.312-10.625-.114-7.007-1.583-7.459-1.922-2.938-2.486-7.8,8.364-11.867,7.912-14.241-1.357-2.826-1.469-3.957,4.519-9.494-.68-13.563-12.544-1.017-17.179.566-13.9,6.554-14.468,4.86,3.391-3.052,2.826-5.878,9.155-5.538,8.476-6.895a2.823,2.823,0,0,1,2.149-3.955c2.147-.339,2.938-2.035,7.12-3.391a54.931,54.931,0,0,1,30.177-.678,29.746,29.746,0,0,1,14.241-1.017c7.347,1.469,10.963,2.147,16.726,2.147,2.8,0,7.583,1.516,10.455.395,3.041-1.186,4.2-5.117,6.839-4.238,1.195.4,1.647,3.1,2.713,3.165.914.052.947-2.786,2.486-4.409,1.789-1.883,9.393-2.732,13.619-1.525.519.148,1.326,1.953,2.6,2.713,1.053.627,2.547.124,3.391,1.073.739.833.788,2.517,1.242,3.448,1.087,2.227,2.681,2.336,1.583,3.616a18.872,18.872,0,0,1-2,1.969c-.418.356-2.624-2.365-3.085-2.025s.823,3.74.337,4.042c-2.821,1.75-5.911,2.678-7.4.648a2.786,2.786,0,0,0-1.866-2.2c-1.778-.571-4.692-.316-4.634-1.017.114-1.356,7.064-.114,7.178-2.826s-2.26-5.424-6.781-2.147-3.73,5.99-5.651,6.781-6.1.452-10.738,1.583-9.833,4.069-5.877,7.347,12.658,5.424,14.807,2.033,2.147-9.381,5.311-9.381,5.765.339,6.556,1.7-.114,4.069,1.244,4.069,3.955-2.149,6.215.339,3.052,7.459,3.279,10.059,3.73,7.347,1.469,8.025-7.347.9-8.025-.9-1.808-5.763-4.748-3.277,1.923,6.329.791,7.12-6.329,3.5-8.137,2.26-4.746,1.017-6.217,2.826-7.459,4.18-8.928,7.91-7.007,5.087-9.267,7.686.339,12.207-3.279,12.094-.451-6.1-2.259-7.234-4.182-2.26-6.556-.452-8.928.114-11.416,2.826-6.1,14.127-.451,14.807,4.627-2.713,6.664-3.618,4.3-1.356,4.638.227-5.426,7.232-2.374,8.137S175.389,147.043,177.65,149.192Z" transform="translate(-105.937 -46.35)"/><path class="p" d="M179.558,56.641c-1.342,1.074,2.788,3.541,5.953,3.24s5.726,1.658,5.049,3.691-1.364,2.337.108,4.07-.486,1.28-2.369,2.636-.377,9.194,1.205,9.947,2.033-.3,2.788.377.377,1.658,2.26,1.205,5.2-7.987,7.157-7.987a19.41,19.41,0,0,0,7.912-2.11c2.865-1.432,2.788-1.658,3.918-1.583s9.119-1.205,9.8-3.24-.83-2.411,0-3.239,3.766-1.885,5.124-4.748.6-2.11,1.356-2.863,7.084-1.958,6.857-3.089-2.636.075-6.1-.9a37.461,37.461,0,0,0-15.523-.528c-6.329,1.055-11.377,0-15.9.98s-10.625,1.28-11.453,2.11-1.207.753-2.563,1.055S181.441,55.133,179.558,56.641Z" transform="translate(-51.145 -50.962)"/><path class="p" d="M201.966,64.509c-.522.543.978,1.885,1.658,2.563s1.883.98,4.9,0,6.706-1.13,5.276-2.563-2.245-1.583-5.756-1.205S203.849,62.551,201.966,64.509Z" transform="translate(-34.296 -41.876)"/><path class="p" d="M215.287,73.855c-.741-1.6-2.713-1.28-3.693-.526s-3.13.753-2.7,1.581-.135,2.035,0,2.638.285,1.431,1.943.98,3.239-.075,3.391-.6-.44-2.488.383-2.863S215.738,74.835,215.287,73.855Z" transform="translate(-29.08 -34.722)"/><path class="p" d="M216.06,69.842c-1.4-.559-4.056.68-3.911,2.638s2.631,3.24,3.083,4.068.3.94-.6,1.375-1.464,3.712-1.6,4.428-.135,1.13,1.071.714,4.219-.791,5.424-1.167a2.651,2.651,0,0,0,1.96-2.713c-.15-1.205-1.508-1.282-2.035-2.336s-1.581-1.96-2.033-3.316S217.943,70.6,216.06,69.842Z" transform="translate(-26.614 -36.962)"/><path class="p" d="M246.305,63.689c-2.206.512-6.781,4.966-10.322,7.679s-7.912,3.918-7.686,5.877.83,5.2,2.636,4.9,3.768-1.356,4.823-.6,2.563,2.486,2.035,3.09-2.336,1.356-1.13,1.958,3.089-1.28,4.068-1.28a2.221,2.221,0,0,0,2.11-2.185c.075-1.356-.678-1.658,0-1.808a3.155,3.155,0,0,0,2.11-2.035c.15-.98-1.735-1.733-1.735-3.089,0,0,1.885-1.733,3.09-2.638s2.035-2.863,3.164-2.713,2.11.452.529,1.733-3.24,2.26-2.638,4.671,3.763,2.067,3.464,3.709-2.636,1.417-2.861,2.622.528,2.573-1.508,3.132-2.863.477-4.746,1.008-2.488-.524-3.618-.374-1.883,1.2-2.636.524.753-4.365-.678-4.668-3.015.791-2.863,2.994-1.96,2.732-2.865,3.335-5.124,3.466-5.5,4.371a2.271,2.271,0,0,1-2.337,1.205,1.6,1.6,0,0,0-2.108.452c-.6.9-4.736.528-4.138,1.13s.748,1.28,1.726,1.508,3.92,2.561,3.543,4.219,0,2.563-1.282,2.638-5.1-.3-6.432-.377-3.368-.15-3.328,1.13.411,3.013,0,4.22-1.09,2.259-.713,3.089.3,2.938,2.11,2.713,2.185.978,3.541.978a12.057,12.057,0,0,0,2.863,0c1.205-.225,3.24-1.128,3.391-2.033s.9-1.205.9-1.658-.3-.83-.075-1.508.528-2.108,1.432-2.185,3.09-.3,3.24-1.431-.3-1.883,1.356-2.638,2.713,1.13,3.316.528.6-.98,1.28-.98,1.432-1.656,2.411-.753.227,2.035,2.79,3.618,5.649,3.314,5.2,4.9-1.733,1.205-2.788,1.13-1.658.15-1.583.528,1.356.678,2.26,1.205,1.432.3,1.96-.753,1.506-.753,1.958-1.883-.075-2.863.3-2.638,1.508,1.28,1.885.6-2.035-2.863-3.468-3.466-2.711-.755-3.013-1.658-2.26-2.938-1.28-3.391,2.713.377,3.316,1.431,1.733,1.132,3.013,2.11a8.318,8.318,0,0,1,2.336,4.07c.377,1.205,1.96,2.786,2.488,4.144s.828,2.26,2.185,2.411,1.883-1.28,1.883-2.411-.528-2.713,0-3.618a1.382,1.382,0,0,1,2.411,0c.528.98-.376,3.24.68,4.446a8.252,8.252,0,0,0,2.334,1.205c1.132.3,1.81,1.031,2.751.779a4.664,4.664,0,0,1,2.75.052c.828.3.83-.3,1.885,0s3.541-1.282,3.616.451-1.733,5.124-1.733,7.007,1.658,6.857,4.22,10.625a141.84,141.84,0,0,1,7.685,12.508c1.508,3.013,2.185,8.892,4.671,8.062s9.721-5.576,11.68-6.1,6.781-4.523,7.987-8.064S304.1,137,303.195,137s-1.357.528-1.81-.15-1.28-2.411-2.863-1.958-2.411,1.883-3.616,1.506l-1.205-.376s.377-2.11-.753-2.94-5.726-3.766-4.748-5.349,2.563,0,4.3,2.561a5.427,5.427,0,0,0,5.576,2.638c1.506-.3,2.411-1.205,2.788-.528s-.68,1.583,4.746,2.336,8.214-1.13,9.042.452a40.164,40.164,0,0,0,3.768,4.9,9.242,9.242,0,0,0,2.411,2.486c.528.227,2.11-1.28,2.938.3s3.73,10.775,4.823,14.316,2.26,6.1,4.371,4.935,2.786-7.12,3.013-10.736,5.5-6.706,6.254-7.159a6.409,6.409,0,0,0,2.336-2.561c.3-.9,3.316-2.412,6.706.376a10.2,10.2,0,0,1,3.768,7.234,1.51,1.51,0,0,0,1.958,1.432c1.055-.227,2.337-1.508,3.543.3s1.13,7.159,1.506,8.817-.98,2.938,0,3.691a14.824,14.824,0,0,1,2.863,3.843c1.13,1.808,3.993,7.534,5.651,6.781s.152-3.164,0-4.746a6.659,6.659,0,0,0-2.638-4.6,12.583,12.583,0,0,1-3.088-3.618,1.566,1.566,0,0,0-1.13-.753s-.15-4.973,2.336-4.748,4.145,5.539,4.973,6.16.452,1.6,1.508.622,3.239-3.013,4.144-3.917a4.881,4.881,0,0,0,1.13-3.918c-.225-1.282-1.96-5.728-4.446-7.309s-.753-3.843-.075-5.124,2.336-.452,3.165.15,3.239-.227,4.521-.98,5.649-2.411,7.609-6.029,2.788-8.364,1.808-9.645-5.8-6.706-5.576-7.534A3,3,0,0,1,386.6,116.5c.6-.225,1.207-.753.755-1.357s-2.411-.753-2.788-.753a11.441,11.441,0,0,0-1.583.077c-.451.075-2.788-3.693-.9-4.07s1.205,1.733,2.26,2.11,2.938-2.035,4.219-.755.753,1.508,1.432,2.262,3.766,3.843,3.766,5.8,4.221-.3,3.768-1.432a21.6,21.6,0,0,0-5.274-7.157c2.109-.227,1.733-1.205,1.808-1.96s.6-2.638,1.658-2.713a3.56,3.56,0,0,0,3.391-2.863c.3-2.109,1.055-7.534,2.033-7.157s2.563,4.444,3.918,4.6,1.808-.227,1.357-1.28-1.282-4.07-2.563-4.9-1.506-.6-2.185-1.96-2.863-2.863-3.24-3.314-1.281-1.96-2.033-1.885-4.371-.225-5.048,0-4.6-.6-3.843-2.486.98-4.973,3.918-5.048,4.446-.3,6.179-.227,1.658.755,3.164.83,2.865-.075,3.09-.83-2.713-3.164.075-3.316,1.394.755,2.657,1.282,2.694-.152,2.769.753-2.035,2.638,0,6.254,6.781,7.912,8.514,7.987,1.658-4.671.98-6.7-4.521-5.276-3.543-6.179a3.55,3.55,0,0,1,3.015-1.055c.753.225,2.411-.528,3.616-2.035s1.583-1.356,2.412-1.28,2.561-.6,0-1.733-2.412-2.488-.83-2.563,4.821,1.356,6.479,1.356,2.337-1.658,0-2.861-5.726-.452-6.857-1.432-9.645-3.541-13.638-3.843a51.007,51.007,0,0,0-10.1.15,19.565,19.565,0,0,1-8.514-1.123c-2.636-1.137-8.137-.232-9.72-.535s-4.973-1.883-8.137-2.033-6.029-.528-7.384,0S363.1,62.7,361.439,62.4s-3.541-1.958-5.8-2.336a82.144,82.144,0,0,0-11.15-.678c-1.96.15-5.5.468-6.631-.03s-2.336-2.533-4.219-3.136-7.611-.753-8.967-1.356-2.938.15-5.124.9-5.351.3-7.536,1.357-4.294,2.336-5.574,2.411a3.031,3.031,0,0,0-2.412,1.055c-.377.528-3.241.678-4.294.678s-3.165-1.431-4.446-1.055-.6,1.81-1.356,2.337-1.207,1.656-2.638,1.958-1.432-.828-5.124,1.205-4.371-.3-5.5,0a57.552,57.552,0,0,1-6.179,1.583c-.6-.075-1.583-1.13-2.486-1.055s-1.055,1.583-2.412,1.508-3.541-1.508-5.235-1.96-5.237-1.958-8.553-2.336S250.826,62.641,246.305,63.689Z" transform="translate(-29.432 -48.209)"/><path class="p" d="M291.242,148.542s5.2-4.212,6.028-7.227,4.069-9.645,2.185-10.775-8.289,4.07-9.947,1.96-1.205-2.713-1.958-3.468a32.948,32.948,0,0,0-3.391-2.938c-1.583-1.205-1.205-3.088-2.185-4.6s-2.26-2.033-2.486-4.144a11.325,11.325,0,0,0-2.337-5.2c-1.055-1.583-3.466-5.576-3.466-6.631a8.991,8.991,0,0,0-2.638-6.479c-2.411-2.185-4.444.753-4.444.753l-3.543-1.562s-3.391.129-4.144-.926-3.541-1.28-4.521,0,.15,2.412-1.055,2.865-1.506-.68-3.165-1.055a7.462,7.462,0,0,1-2.108-.678,2.16,2.16,0,0,0-1.432-2.009c-1.506-.629-3.616.426-4.6-.779s0-2.563,0-3.693.788-2.863-.435-2.938-2.881.9-4.689.828a13.519,13.519,0,0,0-3.165.227,9.618,9.618,0,0,0-2.863,0c-1.733.225-2.636-.3-3.616.528a9.877,9.877,0,0,1-3.316,1.431c-1.055.377-2.938.9-3.391.6a2.922,2.922,0,0,0-1.958-.451c-.6.15-1.583,1.808-1.885,2.486s-1.576,1.055-2.6,1.733a4.635,4.635,0,0,0-1.7,3.391c-.075,1.205-2.26,3.616-3.918,4.219s-1.733,1.96-1.885,2.865-1.431.526-1.583,2.109-2.786,4.144-2.938,5.953.528,4.144.68,5.424a9.8,9.8,0,0,1-.7,3.843c-.2.377-2.163,2.563-1.109,4.821s4.673,4,4.973,5.653,2.563,4.371,4.3,6.027,2.26,2.713,4.371,2.865,3.841-1.357,5.048-1.282a7.523,7.523,0,0,0,3.541.377c1.808-.3,6.556-3.24,8.589-2.26s1.733,2.638,2.788,3.088,4.144-.828,4.973.9.528,5.878-.377,6.781.227,2.938,2.336,5.651,2.638,3.918,2.938,5.274,1.508,6.179,1.282,7.611-2.337,3.993-2.788,6.857.828,4.446,1.28,6.406,2.26,3.917,2.336,5.574.3,7.234,1.658,8.516,1.476,1.2,2.131,2.861a13.347,13.347,0,0,1,.807,4.332c0,.716.377,3.2,2.488,3.279s4.521-.678,7.007-.755,5.274-2.561,6.97-4.444,3.8-3.391,4.257-4.823,1.205-3.013,1.583-4.069,3.239-1.658,3.466-4.521-.9-4.521,0-6.179a6.5,6.5,0,0,1,2.938-3.013c.68-.15,4.371-2.26,4.823-4.748a8.413,8.413,0,0,0-.075-3.691,20.952,20.952,0,0,0,.075-3.24c-.15-1.431-1.583-1.883-1.508-3.466s-.678-4.3-.377-5.576S287.248,151.7,291.242,148.542Z" transform="translate(-35.187 -22.538)"/><path class="p" d="M260.139,135.606c-.931-.04-2.863,4.671-4.22,5.576s-4.521.678-4.219,3.993.075,4.144-.528,5.351-1.583,2.636-.528,5.124,4.973,3.466,5.651,1.356,3.013-7.837,3.316-9.494a15.657,15.657,0,0,1,1.205-4.069,3.26,3.26,0,0,0,.9-2.788C261.57,138.847,261.872,135.681,260.139,135.606Z" transform="translate(1.794 12.257)"/><path class="p" d="M150.908,102.23c-2.224.189-5.048,2.185-4.371,3.013s3.241-.9,4.371-.528,2.863,0,3.618.755,1.581,2.334,2.108,2.786,1.356-.225,1.96,0,2.561.678,2.786-.376-2.786-1.055-3.466-1.96S154.448,101.928,150.908,102.23Z" transform="translate(-75.691 -12.687)"/><path class="p" d="M156.324,105.746c-.377.377.452,1.432.377,1.733s-2.563.152-2.26.678,1.883,1.13,4.369.98,3.693-.3,4.145-.98-1.357-1.053-2.11-1.733-1.235-.978-2.124-.678S157.077,104.993,156.324,105.746Z" transform="translate(-69.73 -10.251)"/><path class="p" d="M323.664,81.81c-.521.4-.225,1.639,0,2.43s-.451,1.3.341,2.316,1.808,1.866,2.2,3.223,1.527,2.825.791,3.843-2.2.847-2.486,1.525-.169,1.752-1.525,2.2-3.675.056-4.465,1.92-1.3,2.882-.339,4.013,1.581,2.6,2.769,1.808.283-2.316,1.864-2.769,2.2-.056,3.335-.678.566-1.244,1.527-1.808,2.938-.114,3.447-1.583a8.623,8.623,0,0,0-.68-5.934c-.9-1.3-2.711-4.294-2.033-4.577s3.272-1.3,2.964-2.43a2.672,2.672,0,0,0-1.439-1.866c-.395-.112-1.639.4-2.542-.225S324.908,80.849,323.664,81.81Z" transform="translate(52.195 -28.133)"/><path class="p" d="M314.618,106.843c-1.406.267-1.853,3.777-1.188,5.368,1.3,3.108,3.447,2.713,4.24,3.108s3.164,1.922,3.277,1.074,1.017-1.525,0-1.977-2.318-.058-3.277-.9-1.413-1.808-.793-2.486a3.779,3.779,0,0,0,.346-3.56C316.652,106.673,315.8,106.615,314.618,106.843Z" transform="translate(48.81 -9.312)"/><path class="p" d="M316.88,117.544c-.445-.363-2.336,3.24-3.466,3.768s-1.28,1.508-2.11,2.184a15.724,15.724,0,0,1-3.918,1.885c-1.28.452-2.486,1.432-2.033,2.486a6.668,6.668,0,0,1,.6,2.412,13.463,13.463,0,0,0,1.583,4.068c.451.6,1.883.377,2.411.753s1.356.225,2.561.6,2.863.9,3.843,0,.15-3.088.528-3.843.9-.526,1.432-1.205.678-1.883,1.808-2.863-.377-1.508-.6-2.185-1.4-1.356-.51-2.636,1.642-1.733,1.529-2.788S319.008,119.277,316.88,117.544Z" transform="translate(42.931 -1.252)"/><path class="p" d="M317.249,123.147a6.237,6.237,0,0,0-1.357,1.081,5.462,5.462,0,0,0-1.13,2.412c-.075.678-.426,1.658-.4,2.185s-.956,1.356-.805,2.033.4.68.805,1.885-.5,2.336.325,2.411,2.035-1.808,3.316-1.282.98.98,1.883.68-1.205-4.9-.678-5.878,1.71-1.053,1.911-1.733-.1-1.13.877-1.883,1.432-1.883,1.13-2.411-.239.391-2.007.9a8.022,8.022,0,0,1-1.911,0C318.529,123.551,318.206,122.435,317.249,123.147Z" transform="translate(49.118 2.461)"/><path class="p" d="M327.593,124.661a3.709,3.709,0,0,0-2.563.528c-.526.452-1.733,0-1.733.528s2.11.9,2.149,1.808-.3,1.356,0,1.7.828,2,1.544,2.072.98-.83,1.694-.528a16.736,16.736,0,0,1,3.73,1.544c1.055.791,1.885,2.713,1.508,3.543s-1.244,2.072-.3,2.222,2.411-.641,3.2-.15,1.846,2.072,3.654,1.394,1.583-2.713,3.013-2.374,3.052,3.165,4.22,3.73,1.431,0,2.033.264,1.7,1.169,2.3.639-1.205-2.372-1.733-3.013-1.319.038-1.546-1.055.077-3.239-.828-3.8-1.544-.489-1.846-1.167-2.147-2.94-5.915-4.257-5.538-2.3-6.554-1.96-1.546,1.508-2.412,1.583c0,0-.451.564-.9.339s-1.319-.83-1.244-1.733-.075-.716-.452-.942S328.01,124.7,327.593,124.661Z" transform="translate(56.405 4.063)"/><path class="p" d="M294.17,119.154c-.5.676.62,2.2,1.808,3.221a6.447,6.447,0,0,1,1.808,2.43c.169.395.508-.114.847.62a17.926,17.926,0,0,0,1.808,3.478c1.074,1.553,1.639,3.134,2.262,3.756s1.808,2.6,2.486,3.052a8.14,8.14,0,0,1,1.694,1.745c.791.912,1.469,2.04,2.374,2.437a13.118,13.118,0,0,0,3.335,1.244c1.074.114,1.866-.169,2.6.283a8.448,8.448,0,0,0,3.672.959c1.471.058,2.271-.169,2.409,0s.814-.038,1.49.01.793-.519.735-.969-.452-.68-1.411-.849-.9-1.525-1.81-1.469c0,0-1.244.395-1.694.086a3.962,3.962,0,0,0-2.43-.424,4.427,4.427,0,0,1-1.555.4c-.255-.086-.844-.171-.973-.255a1.736,1.736,0,0,0-1-.508c-.68-.114-.735.225-1.413-.227a4.007,4.007,0,0,1-1.5-2.713,6.778,6.778,0,0,1,.311-1.92,3.9,3.9,0,0,0-.48-1.471c-.227-.367-.763-.052-.933-.576s-.791-2.785-1.864-3.661-4.351-3.447-4.351-3.447-2.121-2.147-3.024-3.052a15.107,15.107,0,0,0-1.95-1.922c-.68-.452-1.7-.086-2.091-.253S294.481,118.729,294.17,119.154Z" transform="translate(34.56 -0.205)"/><path class="p" d="M333.194,140.5c-1.308.356-1.85-2.26-4.2-1.469s-5.4,4.069-5.856,4.746-1.37,2.94-3,4.182-5.3,1.808-7.646,3.165-3.482.791-3.6,2.033a16.11,16.11,0,0,1-1.356,4.409c-.678,1.583.114,1.242,0,3.955s.452,6.217.452,7.347-2.488,2.711-2.149,4.068,2.826,2.374,4.407,1.583,5.312-2.149,6.895-2.035,3.618-2.713,5.2-2.713,6.67-1.356,7.8-.791,2.713,1.7,3.052,2.713.225,1.8,1.469,3.1,2.372.4,2.825,1.757-.678,2.149,2.713,3.5,8.364.114,12.321-3.277a44.57,44.57,0,0,0,7.346-8.025c2.147-2.713,5.2-7.8,4.069-10.623s-5.651-8.818-6.781-10.625-.9-6.327-2.26-8.645-1.356-5.122-2.486-4.343-2.6,6.885-2.713,8.015c0,0,.339,2.372-1.244,2.486s-5.651-2.713-5.312-4.068,1.922-2.826,1.357-4.182-2.374-.68-3.616-.9-1.584-2.236-3.392-1.345S334.438,140.163,333.194,140.5Z" transform="translate(43.345 11.279)"/><path class="p" d="M360.228,156.568a1.962,1.962,0,0,0-.564,1.639,12.722,12.722,0,0,1,0,3.279c-.283.9-.734,2.208-1.808,2.517s-1.357.7-1.413,1.1-.566.68-1.469,1.017-.735-.225-1.866.51-.508,1.356-1.583,1.525-1.186.056-1.752.961-.62,1.188-2.2,1.695a18.588,18.588,0,0,0-2.882,1.074,18,18,0,0,0-2.938,1.357c-.9.622-1.6,1.525-2.3,1.922s-.718.9,0,1.186a6.146,6.146,0,0,0,3.033,0c.735-.225,5.426-3.5,5.878-3.447a9.812,9.812,0,0,0,3.447-1.244c.508-.452,2.769-3.108,3.335-3.052a9.644,9.644,0,0,0,4.746-2.053c1.527-1.34,1.413-1.677,1.866-1.846s3.052-1.808,3-2.657-1.752,0-2.432-.734-.339-2.374-.508-3.221S361.3,156.287,360.228,156.568Z" transform="translate(68.074 27.876)"/></g></g></g><g transform="translate(400.028 321.75)"><g transform="translate(0 35.75)"><circle class="f" cx="10.996" cy="10.996" r="10.996" transform="translate(57.861 15.55) rotate(-45)"/><circle class="f" cx="10.996" cy="10.996" r="10.996" transform="translate(0 15.55) rotate(-45)"/><rect class="q" width="2.687" height="21.992" transform="translate(70.717 4.555)"/><rect class="q" width="2.687" height="21.992" transform="translate(15.56 4.555)"/></g><path class="r" d="M3.277,0H12.21a3.277,3.277,0,0,1,3.277,3.277V25.69a0,0,0,0,1,0,0H0a0,0,0,0,1,0,0V3.277A3.277,3.277,0,0,1,3.277,0Z" transform="translate(36.738)"/><rect class="f" width="20.706" height="7.221" transform="translate(34.128 19.518)"/><path class="f" d="M7.094,0H45.373a7.094,7.094,0,0,1,7.094,7.094V48.686a0,0,0,0,1,0,0H0a0,0,0,0,1,0,0V7.094A7.094,7.094,0,0,1,7.094,0Z" transform="translate(18.247 25.737)"/><path class="f" d="M245.378,233.6h-59.1a6.3,6.3,0,0,1-6.3-6.3h0a6.3,6.3,0,0,1,6.3-6.3h59.1a6.3,6.3,0,0,1,6.3,6.3h0A6.3,6.3,0,0,1,245.378,233.6Z" transform="translate(-171.35 -147.955)"/><path class="s" d="M206.155,187.342a3.958,3.958,0,1,1-3.958-3.958A3.958,3.958,0,0,1,206.155,187.342Z" transform="translate(-157.715 -176.047)"/><circle class="t" cx="14.898" cy="14.898" r="14.898" transform="translate(29.584 36.391)"/><circle class="d" cx="10.983" cy="10.983" r="10.983" transform="translate(28.949 51.289) rotate(-45)"/><path class="u" d="M205,209.892a3.152,3.152,0,1,1-3.151-3.153A3.152,3.152,0,0,1,205,209.892Z" transform="translate(-157.37 -158.603)"/><rect class="v" width="52.554" height="3.759" transform="translate(18.204 69.283)"/><rect class="q" width="20.706" height="2.043" transform="translate(34.128 23.694)"/><rect class="w" width="15.486" height="2.146" transform="translate(36.738 17.372)"/><g transform="translate(12.043 83.426)"><g transform="translate(0 1.13)"><circle class="w" cx="5.35" cy="5.35" r="5.35" transform="translate(0 10.414) rotate(-76.717)"/><circle class="t" cx="2.653" cy="2.653" r="2.653" transform="translate(3.783 3.783)"/></g><g transform="translate(24.872 0)"><circle class="w" cx="5.35" cy="5.35" r="5.35" transform="translate(0 7.566) rotate(-45)"/><path class="t" d="M204.29,232.406a2.653,2.653,0,1,1-2.652-2.652A2.653,2.653,0,0,1,204.29,232.406Z" transform="translate(-194.071 -224.84)"/></g><g transform="translate(51.45 0.576)"><ellipse class="w" cx="5.35" cy="5.35" rx="5.35" ry="5.35" transform="translate(0 4.095) rotate(-22.5)"/><circle class="t" cx="2.653" cy="2.653" r="2.653" transform="translate(4.337 4.337)"/></g></g></g><g transform="translate(714.927 190.424)"><g transform="translate(0.815)"><g transform="translate(15.495 62.471)"><rect class="x" width="6.993" height="28.274" transform="translate(63.238 105.506)"/><path class="y" d="M389.18,200.522a7.146,7.146,0,0,0,7.145,7.145h33.746a7.146,7.146,0,0,0,7.145-7.145h0a7.144,7.144,0,0,0-7.145-7.145H396.325a7.144,7.144,0,0,0-7.145,7.145Z" transform="translate(-346.311 -99.727)"/><rect class="y" width="11.191" height="26.754" transform="translate(60.987 128.612)"/><path class="x" d="M405.894,221.9l34.8,7.706v4.226l-34.8-4.475Z" transform="translate(-333.828 -78.422)"/><rect class="x" width="4.539" height="11.932" transform="translate(64.409 143.481)"/><path class="y" d="M422.544,234.33a4.6,4.6,0,1,0,4.6-4.6A4.6,4.6,0,0,0,422.544,234.33Z" transform="translate(-321.392 -72.576)"/><path class="x" d="M414.5,221.9l-34.8,7.706v4.226l34.8-4.475Z" transform="translate(-353.398 -78.422)"/><path class="y" d="M386.9,234.33a4.6,4.6,0,1,1-4.6-4.6A4.6,4.6,0,0,1,386.9,234.33Z" transform="translate(-354.886 -72.576)"/><path class="y" d="M400.177,234.33a4.6,4.6,0,1,0,4.6-4.6A4.6,4.6,0,0,0,400.177,234.33Z" transform="translate(-338.098 -72.576)"/><path class="f" d="M369.2,240.884h70.838c5.272,0-10.694-14.45-10.642-19.717.3-29.943,12.2-75.039,12.314-75.5a4.56,4.56,0,0,0-8.818-2.329c-.03.117-3.111,11.522-6.18,26.851-4.14,20.681-6.306,37.8-6.436,50.882a10.751,10.751,0,0,1-10.64,10.687H369.2a4.56,4.56,0,1,0,0,9.12Z" transform="translate(-364.64 -139.634)"/><path class="f" d="M471.052,139.928l-57.039-.161L395.5,233.417l59.589-1.926Z" transform="translate(-341.589 -139.767)"/><path class="f" d="M401.05,241.014h40.435a19.558,19.558,0,0,0,13.949-5.794,19.892,19.892,0,0,0,5.812-13.923c.3-29.943,12.2-75.343,12.314-75.8a4.56,4.56,0,0,0-8.818-2.329c-.03.117-3.111,11.826-6.18,27.155-4.142,20.681-6.306,37.8-6.435,50.882a10.752,10.752,0,0,1-10.64,10.687H401.05a4.56,4.56,0,1,0,0,9.12Z" transform="translate(-340.852 -139.764)"/><rect class="y" width="8.77" height="2.28" transform="translate(62.383 107.026)"/></g><g transform="translate(0 55.144)"><path class="z" d="M419.069,180.526v2.819c0,3.532-2.559,5.389-5.861,6H378.014c-7.022,0-12.15,5.812-12.15,12.836v47.056h12.77V202.179c0-.468-.115-.676.353-.676h70.721a10.528,10.528,0,0,0,10.4-10.366V180.526Z" transform="translate(-348.231 -101.998)"/><path class="aa" d="M435.445,180.526v2.819c0,3.532-2.191,5.518-5.5,6.126l-28.878-.052c-8.783-.351-13.451,2.973-14.9,9.845L382.2,242.4l12.258,2.823,5.085-43.129c.1-.459.119-.533.576-.437l37.432-.019a10.6,10.6,0,0,0,10.356-10.5V180.526Z" transform="translate(-336.028 -101.998)"/><g transform="translate(44.301 135.877)"><path class="ab" d="M391.208,230.237l-9.69-2.6,2.385-12.071,9.69,2.6Z" transform="translate(-380.841 -211.704)"/><path class="ac" d="M396.112,222.862l-14.982-3.94,1.541-5.567,14.981,3.939Z" transform="translate(-381.13 -213.355)"/></g><g transform="translate(0 142.069)"><rect class="ab" width="10.337" height="11.553" transform="translate(18.546 4.256)"/><g transform="translate(0 10.981)"><rect class="d" width="33.139" height="3.648" transform="translate(0 15.773)"/><path class="y" d="M372.8,227.583v-4.4a4.306,4.306,0,0,1,4.009,4.524h7.588l4.236,11.248H355.77v-2.536C359.723,233.052,372.8,227.583,372.8,227.583Z" transform="translate(-355.77 -223.186)"/></g><g transform="translate(23.285 4.558)"><rect class="d" width="3.648" height="33.139" transform="translate(0 14.475) rotate(-74.987)"/><path class="y" d="M389.065,223.757l1.141-4.248a4.51,4.51,0,0,1,2.758,5.56l7.33,1.965L401.471,239l-31.83-8.537.69-2.577C375.021,225.653,389.065,223.757,389.065,223.757Z" transform="translate(-368.695 -219.509)"/></g><rect class="ac" width="14.897" height="5.776" transform="translate(16.418)"/></g><g transform="translate(59.564 7.326)"><path class="y" d="M442.185,170.965l13.1-1.366c-.063-.765-.729-4.671-.877-5.449-2.222-11.683-14.033-24.383-32.164-24.383-19.338,0-31.385,14.449-32.378,26.7l11.274,4.5v43.043h41.043Z" transform="translate(-389.867 -139.767)"/></g><path class="ad" d="M419.546,143.72a27.926,27.926,0,0,0-3.067-.557l-.7-7.307-7.8-.283-.3,7.5a23.6,23.6,0,0,0-3.745.652,9.321,9.321,0,0,0,.014,1.125c.192,4.8,3.836,8.513,8.14,8.3s7.639-4.276,7.447-9.073C419.532,144,419.551,143.8,419.546,143.72Z" transform="translate(-319.807 -135.573)"/></g><g transform="translate(61.855)"><g transform="translate(1.593)"><path class="ae" d="M392.1,127.74a5.994,5.994,0,1,0,5.716-6.271A6,6,0,0,0,392.1,127.74Z" transform="translate(-392.09 -90.968)"/><path class="ad" d="M394.741,139.535a22.337,22.337,0,0,0,23.323,21.3h0a22.337,22.337,0,0,0,21.305-23.323l-.377-8.322c-.225-4.968.016-11.992-2.9-15.575-4.313-5.305-13.068-6.06-20.425-5.728h0a22.336,22.336,0,0,0-21.3,23.323Z" transform="translate(-390.409 -101.155)"/><path class="ad" d="M416.973,127.433a5.994,5.994,0,1,0,5.716-6.273A6,6,0,0,0,416.973,127.433Z" transform="translate(-373.511 -91.199)"/><path class="af" d="M420.961,132.274a23.7,23.7,0,0,0,2.1-1.616s2.851-6.865,1.509-11.727a23.853,23.853,0,0,0-3.742-7.529l-5.594,5.047C417.538,119.674,419.8,124.434,420.961,132.274Z" transform="translate(-374.803 -98.482)"/><path class="af" d="M400.968,113.981l-4.4-1.66s-4.22,6.035-2.14,16.456l.521.178S395.173,118.521,400.968,113.981Z" transform="translate(-390.777 -97.796)"/><path class="ag" d="M437.65,116.716l-5.628,5.015s-21.985,2.266-32.078-1.764c-4.877-1.946-6.184-3.026-7.429-14.085C399.278,116.007,437.711,89.531,437.65,116.716Z" transform="translate(-391.774 -104.006)"/></g><g transform="translate(15.488 38.588)"><path class="ah" d="M406.165,127.729a.523.523,0,1,0,.473-.557A.516.516,0,0,0,406.165,127.729Z" transform="translate(-395.476 -125.294)"/><path class="ah" d="M404.737,126.7a.383.383,0,1,0,.348-.409A.383.383,0,0,0,404.737,126.7Z" transform="translate(-396.542 -125.951)"/><path class="ah" d="M403.52,127.972a.523.523,0,1,0,.473-.557A.518.518,0,0,0,403.52,127.972Z" transform="translate(-397.451 -125.112)"/><path class="ah" d="M402.872,126.582a.455.455,0,1,0,.412-.484A.449.449,0,0,0,402.872,126.582Z" transform="translate(-397.935 -126.096)"/><path class="ah" d="M401.515,127.584a.538.538,0,1,0,.489-.573A.531.531,0,0,0,401.515,127.584Z" transform="translate(-398.949 -125.414)"/><path class="ah" d="M400.047,128.191a.426.426,0,1,0,.386-.452A.423.423,0,0,0,400.047,128.191Z" transform="translate(-400.045 -124.87)"/><path class="ah" d="M407.755,128.669a.462.462,0,1,0,.419-.493A.455.455,0,0,0,407.755,128.669Z" transform="translate(-394.288 -124.543)"/><path class="ah" d="M407.624,127.247a.462.462,0,1,0,.419-.491A.458.458,0,0,0,407.624,127.247Z" transform="translate(-394.386 -125.605)"/><path class="ah" d="M409.432,128.515a.462.462,0,1,0,.419-.493A.456.456,0,0,0,409.432,128.515Z" transform="translate(-393.036 -124.658)"/></g><g transform="translate(0 28.738)"><path class="ai" d="M391.181,125.11l0,.075.016.073c.042.187,1.034,5.5,1.6,6.974.458,1.195,1.817,3.459,3.681,3.471l9.9.068c3.445.024,4.622-8.408,4.841-10.162a1.764,1.764,0,0,1,1.616-1.1,1.957,1.957,0,0,1,1.733,1.212c.374,1.943,2.1,10.114,5.49,10.139l9.9.068c1.862.012,3.074-2.234,3.454-3.424a61,61,0,0,0,1.129-6.954l0-.073,0-.077a3.7,3.7,0,0,0-3.44-3.74l-13.278-.091-.1,0-9.933-.068-13.383-.091A3.386,3.386,0,0,0,391.181,125.11Zm25.049-.157a2.064,2.064,0,0,1,1.645-.84l12.887.135c1.087.007,1.469.973,1.543,2.171a51.683,51.683,0,0,1-.823,5.693c-.332,1.036-.7,2.5-2.063,2.378l-9.407-.112c-1.979-.012-3.581-5.459-4.084-8.172A1.6,1.6,0,0,1,416.23,124.953Zm-23.029,1.2c-.005-1.2.543-2.2,1.63-2.194l12.885.135a2.252,2.252,0,0,1,1.7.863,1.7,1.7,0,0,1,.383,1.258c-.325,2.706-1.488,8.088-3.468,8.074l-9.407-.11c-1.525-.068-1.976-1.665-2.376-2.706C394.07,130.213,393.333,126.754,393.2,126.15Z" transform="translate(-391.179 -119.742)"/><path class="ad" d="M415.863,126.04l8.3-5.583-.189,1.223-8.735,9.046Z" transform="translate(-373.206 -120.457)"/></g><path class="d" d="M416.894,130.719l-18.473-.227s2.549,5.843,7.823,6.455C412.534,137.673,416.615,132.169,416.894,130.719Z" transform="translate(-385.77 -84.224)"/><g transform="translate(8.428 36.579)"><path class="ai" d="M408.087,127.04a2.529,2.529,0,1,0,4.839-1.445c-.005-.023-.016-.044-.023-.065-1.261-.073-3.365-.3-4.675-.451A2.745,2.745,0,0,0,408.087,127.04Z" transform="translate(-387.065 -124.846)"/><path class="ai" d="M396.122,126.84a2.527,2.527,0,1,0,4.846-1.415c-1.473-.107-3.649-.353-4.736-.479A2.739,2.739,0,0,0,396.122,126.84Z" transform="translate(-396.003 -124.946)"/></g></g><path class="ad" d="M392.356,194.343c.08,0,.163,0,.246,0a9.257,9.257,0,0,0,6.708-3.2,24.452,24.452,0,0,0,4.042-6,87.474,87.474,0,0,0,5.674-15.654c.348-1.253.68-2.5.992-3.733l-8.385-3.413c-.251,1.018-.517,2.051-.795,3.087-4.044,15.133-7.271,18.686-8.186,19.429a10.068,10.068,0,0,1-2.091-3.064,37.7,37.7,0,0,1-2.842-8.7c-1.522-7.243-1.476-11.711.108-16.629a6.509,6.509,0,0,1,2.645-.383,27.752,27.752,0,0,1,4.362.466c.4.066.711.119.989.152l1.022-9.292c-.08-.009-.348-.054-.564-.091a30.923,30.923,0,0,0-7.452-.524,12.943,12.943,0,0,0-5.055,1.35,8.8,8.8,0,0,0-4.324,5.059c-1.864,5.56-2.29,9.889-1.2,17.708,1.024,7.347,3.228,13.947,6.046,18.11C385.907,191.395,388.6,194.221,392.356,194.343Z" transform="translate(-339.422 -72.098)"/></g><path class="ad" d="M374.859,189.356v-9.122c.374,0,37.532,0,53.173-.3,2.853-.056,9.063-2.072,18.592-14.957l5.4-6.733,10.528-1.167a134.137,134.137,0,0,1-8.525,13.22c-9.066,12.291-17.755,18.6-25.828,18.755C412.48,189.35,375.233,189.356,374.859,189.356Z" transform="translate(-340.698 -64.37)"/><g transform="translate(0 81.288)"><rect class="aj" width="34.927" height="1.622" transform="translate(62.963 41.721)"/><path class="aj" d="M365.691,194.21h59.834l-10.387-43.671H355.3Z" transform="translate(-355.304 -150.539)"/><path class="d" d="M376.4,158.685l-1.335,5.021-4.77.893,4.218,3.808.1,5.489,3.943-2.67,4.835,2.5-1.781-5.457,2.884-3.945-5.045-.7Z" transform="translate(-344.108 -144.455)"/></g></g><rect class="d" width="464.599" height="6.689" transform="translate(348.218 315.054)"/><path class="a" d="M83.55,100.081a4.552,4.552,0,0,0-5.349,7.367l7.106,5.16,5.356-7.361Z" transform="translate(151.258 82.837)"/><g transform="translate(599.597 176.838)"><path class="ak" d="M321.165,169.848c-6.526,0-12.871-3.822-18.858-11.358a60.821,60.821,0,0,1-6.725-10.623l7.239-3.426-3.62,1.714,3.616-1.717c2.306,4.841,10.094,17.4,18.348,17.4,3.141,0,5.148-5.794,5.866-8.284a53.324,53.324,0,0,0,1.77-10.294l8,.444C336.648,146.382,334.946,169.848,321.165,169.848Z" transform="translate(-284.578 -61.101)"/><g transform="translate(40.449 2.922)"><path class="al" d="M317.359,117.812c1.665-9.323,8.158-18.723,23.773-19.827v-.056c0-.005-.08-.01.051-.016.521-.014.861-.014,1.364-.007s1.169-.007,1.689.007c.133.005.5.01.5.016v.054c16.817,1.176,22.694,9.187,24.03,19.694,1.5,11.821,1.434,57.453,1.356,62.542-1.544,7.926-5.234,8.869-10.158,13.774a24.207,24.207,0,0,1-35.191.351,37.086,37.086,0,0,1-9.8-17.738C314.873,170.222,315.089,130.54,317.359,117.812Z" transform="translate(-310.561 -97.901)"/><g transform="translate(3.745 139.121)"><rect class="ak" width="8.008" height="63.66" transform="translate(34.032 32.03)"/><rect class="ak" width="8.008" height="63.66" transform="translate(11.611 32.03)"/><g transform="translate(0 85.063)"><path class="am" d="M0,0H21.22V2.8H0Z" transform="translate(0 17.834)"/><path class="an" d="M324.592,229.24v-3a2.992,2.992,0,0,1,2.8,3l6.8.037v7.554l1.474,7.239H314.582V242.42c2.4-1.981,8.478-5.148,10.046-5.955Z" transform="translate(-314.582 -226.235)"/><path class="d" d="M322.437,231.065a1.775,1.775,0,1,0,1.775-1.775A1.775,1.775,0,0,0,322.437,231.065Z" transform="translate(-308.715 -223.953)"/></g><g transform="translate(31.102 84.825)"><path class="am" d="M0,0H13.212V2.8H0Z" transform="translate(0.127 18.071)"/><path class="an" d="M335.316,229.077l.973.024a2.823,2.823,0,0,1,2.709-3,3.077,3.077,0,0,1,2.959,3l1.366-.012v7.842l2.274,7.239H332.386l2.93-7.239Z" transform="translate(-332.386 -226.099)"/></g><path class="ao" d="M37.772.287C41.842,2.064,49.92,12.769,49.92,12.769S58.012,41.047,63.7,45.4-17.35,49.76-7.5,45.4,5.185,12.769,5.185,12.769,33.7-1.49,37.772.287Z"/></g><path class="b" d="M323.789,165.229,312.438,160.7c1-12.337,13.179-26.885,32.649-26.885s31.947,14.548,32.948,26.885l-11.005,4.526v57.38H323.789Z" transform="translate(-312.438 -71.076)"/><path class="ak" d="M326.605,137.812a28.933,28.933,0,0,1,3.083-.536l.709-7.4,7.857-.285.3,7.6a23.988,23.988,0,0,1,3.77.611,9.129,9.129,0,0,1-.016,1.134c-.192,4.83-3.862,8.57-8.2,8.355s-7.69-4.3-7.5-9.134C326.617,138.076,326.6,137.891,326.605,137.812Z" transform="translate(-301.857 -74.23)"/></g><g transform="translate(46.977)"><g transform="translate(1.864 6.555)"><path class="ak" d="M317.245,130.93a22.816,22.816,0,0,0,22.437,23.19h0a22.817,22.817,0,0,0,23.19-22.439l.14-8.507a22.817,22.817,0,0,0-22.439-23.19h0a22.817,22.817,0,0,0-23.188,22.439Z" transform="translate(-317.242 -99.981)"/><path class="ak" d="M340.3,120.435a6.123,6.123,0,1,0,6.222-6.034A6.129,6.129,0,0,0,340.3,120.435Z" transform="translate(-300.024 -89.212)"/></g><path class="al" d="M338.287,109.144a249.266,249.266,0,0,1,6.139,37.488l3.536-.559s1.668-24.488-.664-36.929Z" transform="translate(-299.66 -86.583)"/><path class="al" d="M319.128,116.266c-.028-12.558,7.238-19.995,19.8-20.023l6.028-.014c12.558-.03,28.063,17.031,19.577,30.81Z" transform="translate(-316.175 -96.229)"/></g><g transform="translate(54.334 35.061)"><path class="c" d="M325.469,119.709a2.586,2.586,0,1,1-1.763-3.321A2.662,2.662,0,0,1,325.469,119.709Z" transform="translate(-320.386 -116.299)"/><path class="c" d="M337.655,119.709a2.586,2.586,0,1,1-1.763-3.321A2.66,2.66,0,0,1,337.655,119.709Z" transform="translate(-311.285 -116.299)"/><path class="d" d="M341.118,121.923l-17.974.8s2.336,6.671,8.586,6.671C339.327,129.4,341.118,121.923,341.118,121.923Z" transform="translate(-318.327 -112.099)"/></g><g transform="translate(0 62.474)"><g transform="translate(12.694 14.026)"><path class="f" d="M296.568,168.774a32.974,32.974,0,0,0,6.011,18.161l3.889,5.489a33,33,0,0,1-6.009-18.162,36.552,36.552,0,0,1,1.909-12.8l-3.889-5.489A36.557,36.557,0,0,0,296.568,168.774Z" transform="translate(-296.55 -128.104)"/><g transform="translate(1.929 27.871)"><path class="f" d="M301.543,161.464l-3.889-5.489,35.662,8.637,3.89,5.489Z" transform="translate(-297.654 -155.976)"/></g><g transform="translate(30.171)"><path class="ap" d="M352.8,154.2q1.947,2.743,3.89,5.489c-6.918-9.762-19.079-15.45-32.716-13.94a40.309,40.309,0,0,0-6.268,1.209l-3.889-5.487a40.268,40.268,0,0,1,6.268-1.211C333.725,138.753,345.885,144.441,352.8,154.2Z" transform="translate(-313.821 -140.021)"/></g><g transform="translate(3.89 5.489)"><path class="f" d="M298.795,183.831a36.552,36.552,0,0,1,1.909-12.8l35.663,8.637-7.421-35.058a40.308,40.308,0,0,1,6.268-1.209c20.751-2.3,38.089,12.076,38.725,32.106s-15.668,38.126-36.419,40.425S299.431,203.859,298.795,183.831Z" transform="translate(-298.777 -143.163)"/></g><g transform="translate(30.171 1.451)"><path class="f" d="M325.13,181.4l-3.89-5.489-7.419-35.057,3.889,5.487Z" transform="translate(-313.821 -140.852)"/></g></g><g transform="translate(3.543 5.719)"><path class="f" d="M291.311,159.892a41.624,41.624,0,0,1,29.819-24.626l5.241,35.444Z" transform="translate(-291.311 -135.266)"/></g><path class="aq" d="M292.826,162.337l-3.543-5.719A41.627,41.627,0,0,1,319.1,131.992l3.543,5.719A41.624,41.624,0,0,0,292.826,162.337Z" transform="translate(-289.283 -131.992)"/></g><g transform="translate(2.516 71.579)"><path class="ak" d="M355.281,180.578l.327,0c5.431-.061,9.3-1.527,11.512-4.36,2.526-3.24,1.563-9.3-.659-17.389-.961-3.5-2.037-6.8-2.762-8.932l-7.791,3.171c2.671,7.861,4.54,15.7,4.31,18.2a9.594,9.594,0,0,1-4.7.9h-.255c-7.915,0-19.135-3.978-23.12-8.12l-4.736,7.063C334.072,176.826,346.59,180.578,355.281,180.578Z" transform="translate(-263.327 -127.725)"/><path class="ak" d="M297.5,149.462l5.351-7.276-6.773-4.982-5.351,7.276C290.817,146.581,295.419,149.78,297.5,149.462Z" transform="translate(-290.723 -137.204)"/></g></g><g transform="translate(478.765 169.63)"><g transform="translate(0 11.427)"><path class="ar" d="M233.9,210.66a56.31,56.31,0,0,1-13.217-29.1c-1.244-9.045-.2-17.347.645-24.018.536-4.255,1-7.929.751-10.665l8.593-.781c.334,3.667-.183,7.772-.783,12.525-1.651,13.081-3.705,29.363,10.63,46.506Z" transform="translate(-220.113 -63.205)"/><g transform="translate(0.637)"><g transform="translate(11.344 134.613)"><rect class="ar" width="6.806" height="8.808" transform="translate(30.828 89.685)"/><rect class="ar" width="6.806" height="8.808" transform="translate(6.405 89.685)"/><g transform="translate(27.625 94.494)"><rect class="d" width="22.821" height="3.203" transform="translate(0 12.006)"/><path class="b" d="M254.177,233.084V229.8a3.194,3.194,0,0,0-3.08,3.16l-5.171.114-2.846,8.733h22.306v-2.108Z" transform="translate(-242.566 -229.796)"/></g><g transform="translate(3.202 97.692)"><rect class="d" width="12.412" height="3.203" transform="translate(0 8.808)"/><g transform="translate(0.203)"><path class="b" d="M232.085,231.627h6.9l2.589,8.808H228.921Z" transform="translate(-228.921 -231.627)"/></g></g><path class="ao" d="M226.972,175.7V189.53a15.448,15.448,0,0,0,4.612,6.712l.391,69.147h9.8l-.152-68.38,15.06.119.056,68.261h9.066V175.7Z" transform="translate(-226.972 -175.703)"/><rect class="as" width="11.611" height="4.404" transform="translate(28.426 85.28)"/><rect class="as" width="11.611" height="4.404" transform="translate(4.003 85.28)"/></g><g transform="translate(0 49.868)"><path class="b" d="M273.461,163.76l11.482-4.645c-1.027-12.661-13.608-27.59-33.591-27.59s-29.849,15.994-30.874,28.656l8.941,3.579v58.952h44.042Z" transform="translate(-220.478 -123.954)"/><path class="ar" d="M244.826,135.073l-.728-7.59-8.062-.292-.307,7.793C235.555,136.633,244.936,136.249,244.826,135.073Z" transform="translate(-209.09 -127.191)"/></g><g transform="translate(2.71)"><path class="at" d="M260.5,120.193a6.445,6.445,0,1,1-6.163-6.727A6.452,6.452,0,0,1,260.5,120.193Z" transform="translate(-202.92 -87.579)"/><path class="ar" d="M234.914,119.574a6.445,6.445,0,1,1-6.165-6.727A6.455,6.455,0,0,1,234.914,119.574Z" transform="translate(-222.03 -88.041)"/><path class="ar" d="M272.615,128.128c-.57,13.252-12.024,24.79-25.276,24.222h0c-13.254-.568-23.286-13.025-22.718-26.278l.384-4.435a24.018,24.018,0,0,1,25.022-22.97h0A24.021,24.021,0,0,1,273,123.692Z" transform="translate(-220.111 -98.644)"/><path class="au" d="M268.061,129.735c-2.26,10.387-9.535,18.239-22.788,17.671h0c-13.252-.568-21.218-8.081-20.65-21.335l.384-4.435a24.018,24.018,0,0,1,25.022-22.97h0c13.254.569,24.2,10.006,22.993,26.105C273.022,124.772,269.2,124.524,268.061,129.735Z" transform="translate(-220.114 -98.644)"/></g></g></g><path class="b" d="M228.932,111.867s11.617,7.407,37.322,1.644c5.373-1.205,6.238-4.049,8.666-14.707-11.94,5.192-12.586,6.168-12.586,6.168s5.635-6.689,10.806-9.384c-6.179-2.423-16.891-1.115-22.8,3.1.285-1.371,1.712-3.272,9.426-6.588-7,.145-24.673,1.9-26.418,11.84,0,0-2.481-.818-.486-4.376C229.117,101.148,224.336,105.248,228.932,111.867Z" transform="translate(-214.936 -92.103)"/><g transform="translate(54.531 68.455)"><path class="ar" d="M272.564,180.99c-5.192,0-11.744-2.879-17.49-14.157a67.934,67.934,0,0,1-3.745-9.047l8.532-3.45c2.566,7.9,7.758,18.479,13.718,17.345,3.506-.669,6.547-6.467,8.347-15.905a101.584,101.584,0,0,0,1.616-16.735l9.208-.01a109.635,109.635,0,0,1-1.778,18.468c-2.655,13.937-7.927,21.752-15.668,23.228A14.544,14.544,0,0,1,272.564,180.99Z" transform="translate(-251.329 -125.509)"/><g transform="translate(28.884)"><path class="ar" d="M281.439,142.273a6.186,6.186,0,1,1-5.56-6.753A6.185,6.185,0,0,1,281.439,142.273Z" transform="translate(-266.943 -128.153)"/><path class="ar" d="M272.982,141.3a1.452,1.452,0,0,1-1.584,1.3h0a1.455,1.455,0,0,1-1.307-1.586l.818-8.422a1.451,1.451,0,0,1,1.584-1.3h0a1.451,1.451,0,0,1,1.3,1.584Z" transform="translate(-266.205 -131.29)"/><path class="ar" d="M274.614,139.528a1.452,1.452,0,0,1-1.584,1.307h0a1.454,1.454,0,0,1-1.3-1.586l.328-3.4a1.453,1.453,0,0,1,1.586-1.3h0a1.451,1.451,0,0,1,1.3,1.584Z" transform="translate(-264.985 -128.862)"/><path class="ar" d="M276.06,140.107a1.451,1.451,0,0,1-1.586,1.3h0a1.451,1.451,0,0,1-1.3-1.584l.33-3.4a1.451,1.451,0,0,1,1.584-1.3h0a1.451,1.451,0,0,1,1.3,1.584Z" transform="translate(-263.906 -128.43)"/><path class="ar" d="M276.873,140.291a1.2,1.2,0,0,1-1.3,1.074h0a1.2,1.2,0,0,1-1.074-1.3l.271-2.8a1.2,1.2,0,0,1,1.3-1.074h0a1.2,1.2,0,0,1,1.074,1.3Z" transform="translate(-262.916 -127.635)"/><path class="ar" d="M272.964,142.535a1.365,1.365,0,0,1-.987,1.647h0a1.366,1.366,0,0,1-1.771-.741l-2.287-6.958a1.365,1.365,0,0,1,.987-1.647h0a1.366,1.366,0,0,1,1.773.741Z" transform="translate(-267.863 -128.704)"/></g></g></g><g transform="translate(245.908 175.082)"><g transform="translate(0 79.247)"><g transform="translate(64.403 98.245)"><path class="av" d="M136.4,197.044l-12.721,61.55H126.4l16.727-61.648Z" transform="translate(-123.682 -196.742)"/><path class="av" d="M165.012,197.408l12.867,62.256h-2.721L158.11,196.829Z" transform="translate(-97.969 -196.829)"/></g><g transform="translate(9.039 95.95)"><path class="aw" d="M106.808,195.515l-14.818,71.7H94.71L113.978,196.2Z" transform="translate(-91.99 -195.515)"/><path class="aw" d="M132.5,196.616l14.688,71.068h-2.721L125.074,196.2Z" transform="translate(-67.279 -195.003)"/></g><path class="ax" d="M193.432,243.87H121.167c-5.379,0,10.909-14.74,10.857-20.114-.3-30.546-12.441-76.861-12.564-77.326a4.652,4.652,0,1,1,9-2.376c.031.119,3.174,12.064,6.306,27.7,4.224,21.1,6.432,38.559,6.565,51.905a10.967,10.967,0,0,0,10.855,10.9h41.249a4.652,4.652,0,1,1,0,9.3Z" transform="translate(-62.548 -140.589)"/><path class="ax" d="M89.436,140.59l56.522.154,19.436,95.372-60.79-1.964Z" transform="translate(-84.857 -140.588)"/><path class="d" d="M160.942,243.87H119.691a19.954,19.954,0,0,1-14.23-5.911,20.287,20.287,0,0,1-5.929-14.2c-.3-30.546-12.44-76.861-12.562-77.326a4.652,4.652,0,1,1,8.995-2.376c.031.119,3.174,12.064,6.306,27.7,4.224,21.1,6.434,38.559,6.565,51.905a10.969,10.969,0,0,0,10.855,10.9h41.251a4.652,4.652,0,1,1,0,9.3Z" transform="translate(-86.815 -140.589)"/></g><g transform="translate(29.78 1.477)"><path class="ar" d="M144.712,225.257l.827,9.929h9.741L153.6,223.194Z" transform="translate(-73.352 -1.122)"/><path class="ar" d="M155.926,222.448l.827,9.929h9.741l-1.677-11.992Z" transform="translate(-64.977 -3.22)"/><path class="ay" d="M151.755,182.305v3.169c0,3.508,2.481,5.389,5.76,5.641h24.334c6.977,0,11.47,6.3,12.176,13.236.926,9.136,3.365,28.071,5.372,43.249.162,1.23-11.3,2.016-11.3,2.016l-5.712-45.136c-.049-.47-.072-1.032-.538-1.032h-60.58a10.149,10.149,0,0,1-10.036-10.237V182.305Z" transform="translate(-98.357 -31.661)"/><g transform="translate(88.42 223.161)"><rect class="d" width="29.7" height="4.027" transform="translate(0.216 15.073)"/><path class="b" d="M168.078,223.817c-2.093.169-3.455,1.99-3.455,4.254l-7.936.533-2.208,10.286h29.915V236.3s-13.166-7.356-15.388-8.5Z" transform="translate(-154.478 -223.817)"/></g><path class="ar" d="M145.7,200.776c-1.207-1.155-3.721-3.555-8.623-24.608-2.309-9.917-4.079-19.422-4.1-19.518l7.919-1.469c4.048,21.8,8.558,37.645,10.418,39.827,0,0-.021-.023-.054-.056Z" transform="translate(-82.115 -51.92)"/><path class="ao" d="M135.647,182.305v3.169c0,3.508,2.57,5.389,5.854,5.641h20.084c6.974,0,11.65,6.3,12.356,13.236,1.083,10.682,4.233,34.758,6.345,50.574l-11.372,1.9-6.689-52.375c0-.466-.175-1-.639-1H121.269a10.149,10.149,0,0,1-10.036-10.237V182.305Z" transform="translate(-98.357 -31.661)"/><g transform="translate(69.192 228.744)"><rect class="d" width="29.7" height="4.027" transform="translate(0.064 15.027)"/><path class="b" d="M157.378,227.013c-2.093.169-3.454,1.99-3.454,4.254l-8.247.51-2.206,10.263h29.763V239.5s-13.091-7.358-15.313-8.5Z" transform="translate(-143.471 -227.013)"/></g><g transform="translate(0.249 80.302)"><path class="b" d="M116.631,173.021,104,168.556c.987-12.169,12.986-26.518,32.192-26.518s31.17,14.349,32.155,26.518l-11.2,4.465v42.631H116.631Z" transform="translate(-104.005 -142.038)"/></g><g transform="translate(0 18.406)"><path class="b" d="M166.261,142.7c-1.448-9.37-6.231-34.373-29.135-36.009v-.054c0-.005-.169-.012-.3-.016-.519-.016-.982-.014-1.483-.007s-.945-.009-1.464.007a2.421,2.421,0,0,0-.276.016v.052c-23.157,1.6-27.711,26.633-29.161,36.01-1.335,10.4.054,23.489.054,23.489,40.086,5.029,61.782,0,61.782,0S167.6,153.1,166.261,142.7Z" transform="translate(-103.862 -106.606)"/></g><g transform="translate(0.162)"><g transform="translate(2.969 20.829)"><path class="ar" d="M154.449,139.531a22.745,22.745,0,0,1-22.367,23.117h0a22.744,22.744,0,0,1-23.117-22.367l-.14-8.481a22.747,22.747,0,0,1,22.367-23.117h0a22.744,22.744,0,0,1,23.117,22.367Z" transform="translate(-103.289 -107.48)"/><path class="ar" d="M117.859,129.068a6.1,6.1,0,1,1-6.2-6.015A6.11,6.11,0,0,1,117.859,129.068Z" transform="translate(-105.655 -96.745)"/><path class="b" d="M115.937,162.272l-7.409,1.64s-.889-23.475.405-36.255c0,0,2.72-12.944,5.92-15.631,4.135-3.471,21.211-4.034,21.211-4.034S117.4,115.573,115.937,162.272Z" transform="translate(-103.731 -107.993)"/><path class="b" d="M123.145,110.929l26.228,39.836s1.957-17.345-5.365-27.6C133.034,107.781,123.145,110.929,123.145,110.929Z" transform="translate(-92.591 -105.999)"/></g><path class="f" d="M105.9,140c-1.523-7.23,5.779-27.718,6.013-35.348.168-5.525,4.856-7.524,8.238-8.223,4.3-.887,9.976-.292,12.031,3.623,2.54,4.842,8.658,9.281,10.434,10.607,5.426,4.048,13.4,12.836,14.9,19.983Z" transform="translate(-102.659 -96.069)"/><path class="f" d="M163.416,122.337a.905.905,0,0,1-.854.924l-57.521,9.224a.908.908,0,0,1-1.085-.639l.423-10.632a.906.906,0,0,1,.852-.924l53.06-8.347a.907.907,0,0,1,1.085.638Z" transform="translate(-103.955 -84.223)"/></g><g transform="translate(20.758 52.678)"><path class="c" d="M128,129.623a2.578,2.578,0,1,0,1.756-3.31A2.651,2.651,0,0,0,128,129.623Z" transform="translate(-106.672 -126.225)"/><path class="c" d="M115.85,129.623a2.578,2.578,0,1,0,1.757-3.31A2.651,2.651,0,0,0,115.85,129.623Z" transform="translate(-115.745 -126.225)"/><path class="d" d="M118.976,132.623,134.4,132s-2.212,4.83-6.041,5.532C123.153,138.485,119.242,133.826,118.976,132.623Z" transform="translate(-113.332 -121.912)"/></g><g transform="translate(24.637 73.026)"><path class="ar" d="M117.966,145.965a27.6,27.6,0,0,1,3.045-.552l.7-7.258,7.749-.281.293,7.449a23.282,23.282,0,0,1,3.719.646,8.555,8.555,0,0,1-.014,1.118c-.189,4.764-3.81,8.453-8.083,8.242s-7.587-4.247-7.4-9.01C117.979,146.239,117.961,146.041,117.966,145.965Z" transform="translate(-117.965 -137.873)"/></g><path class="as" d="M143.469,223.914l.827,4.135,12.468-2.068-.556-4.445Z" transform="translate(-74.28 -2.36)"/><path class="as" d="M154.6,220.985l.827,4.135,12.468-2.068-.557-4.445Z" transform="translate(-65.97 -4.548)"/></g><g transform="translate(58.626 158.035)"><path class="am" d="M120.375,188.06l16.121-2.369h13.532l-2.475,2.516Z" transform="translate(-120.375 -185.691)"/><path class="am" d="M149.29,188.669H120.375v-1.343l29.653-.652Z" transform="translate(-120.375 -184.957)"/></g><path class="ar" d="M159.943,208.753a20.868,20.868,0,0,0-13.1-.316l-.833.267-.87-.1a115.945,115.945,0,0,1-21.473-5.4c-14.478-5.131-17.4-9.629-18.33-12.565-.374-1.177-1-3.146,1.137-20.549.55-4.472,1.148-8.841,1.579-11.907l7.742,2.737c-1.7,12.239-3.09,24.813-2.748,27.365.431.949,3.485,3.847,13.31,7.326a112.433,112.433,0,0,0,18.929,4.884,28.8,28.8,0,0,1,17.853.866Z" transform="translate(-73.265 -48.202)"/><g transform="translate(114.587 25.855)"><path class="f" d="M239.857,104.791a9.568,9.568,0,0,1-9.568,9.568h-49.61a9.568,9.568,0,0,1-9.568-9.568h0a9.567,9.567,0,0,1,9.568-9.567h49.61a9.567,9.567,0,0,1,9.568,9.567Z" transform="translate(-144.828 -95.224)"/><path class="f" d="M217.106,122.036a9.568,9.568,0,0,1-9.568,9.567H161.977a9.567,9.567,0,0,1-9.567-9.567h0a9.567,9.567,0,0,1,9.567-9.568h45.561a9.568,9.568,0,0,1,9.568,9.568Z" transform="translate(-152.41 -88.232)"/><path class="f" d="M235.639,139.28a9.568,9.568,0,0,1-9.568,9.568h-37.46a9.568,9.568,0,0,1-9.568-9.568h0a9.568,9.568,0,0,1,9.568-9.568h37.46a9.568,9.568,0,0,1,9.568,9.568Z" transform="translate(-141.612 -81.241)"/><path class="f" d="M219.174,156.524a9.568,9.568,0,0,1-9.567,9.568H164.046a9.568,9.568,0,0,1-9.568-9.568h0a9.568,9.568,0,0,1,9.568-9.567h45.561a9.568,9.568,0,0,1,9.567,9.567Z" transform="translate(-151.572 -74.249)"/><path class="f" d="M187.767,169.783l-1.644-1.183,15.607-21.685L173.086,124.59,186.1,104.819l1.692,1.113L175.8,124.142l28.708,22.373Z" transform="translate(-144.027 -91.334)"/><path class="f" d="M153.432,177.654h0l13.523-23.244,2.617,3.35Z" transform="translate(-151.996 -71.227)"/></g><g transform="translate(85.52 125.593)"><path class="am" d="M185.305,203.273H135.77l8.6-36.154H193.9Z" transform="translate(-135.77 -167.12)"/><path class="d" d="M156.612,174.007l1.106,4.157,3.949.739-3.492,3.152-.086,4.545-3.264-2.211-4,2.071,1.474-4.518-2.387-3.265,4.177-.583Z" transform="translate(-125.211 -161.975)"/></g></g></g><g transform="translate(136 170.898)"><rect class="az" width="25.154" height="37.102" transform="translate(709.616 345)"/><rect class="az" width="25.154" height="37.102" transform="translate(683 345)"/><rect class="az" width="25.154" height="37.102" transform="translate(776.56 345)"/><rect class="az" width="25.154" height="37.102" transform="translate(843.505 345)"/><rect class="az" width="25.154" height="37.102" transform="translate(909.642 345)"/><rect class="az" width="25.154" height="37.102" transform="translate(736.028 345)"/><rect class="az" width="25.154" height="37.102" transform="translate(802.972 345)"/><rect class="az" width="25.154" height="37.102" transform="translate(869.916 345)"/><rect class="az" width="25.154" height="37.102" transform="translate(936.053 345)"/><text class="ba" transform="translate(715.262 370.679)"><tspan x="0" y="0">4</tspan></text><text class="ba" transform="translate(782.206 370.679)"><tspan x="0" y="0">2</tspan></text><text class="ba" transform="translate(849.15 370.679)"><tspan x="0" y="0">0</tspan></text><text class="ba" transform="translate(915.288 370.679)"><tspan x="0" y="0">5</tspan></text><text class="ba" transform="translate(741.072 370.679)"><tspan x="0" y="0">1</tspan></text><text class="ba" transform="translate(808.016 370.679)"><tspan x="0" y="0">1</tspan></text><text class="ba" transform="translate(874.96 370.679)"><tspan x="0" y="0">1</tspan></text><text class="ba" transform="translate(941.098 370.679)"><tspan x="0" y="0">4</tspan></text><text class="ba" transform="translate(689.452 370.679)"><tspan x="0" y="0">1</tspan></text><g transform="translate(766.882 353.872)"><rect width="4.839" height="4.839"/><rect width="4.839" height="4.839" transform="translate(0 16.131)"/></g><g transform="translate(832.213 353.872)"><rect width="4.839" height="4.839" transform="translate(0)"/><rect width="4.839" height="4.839" transform="translate(0 16.131)"/></g><g transform="translate(899.964 353.872)"><rect width="4.839" height="4.839"/><rect width="4.839" height="4.839" transform="translate(0 16.131)"/></g></g><g transform="translate(2 175)"><circle class="f" cx="1.5" cy="1.5" r="1.5" transform="translate(839 396)"/><circle class="bb" cx="4.5" cy="4.5" r="4.5" transform="translate(836 393)"/><circle class="bc" cx="7.5" cy="7.5" r="7.5" transform="translate(833 390)"/></g></g></svg>