<svg width="674" height="145" viewBox="0 0 674 145" fill="none" xmlns="http://www.w3.org/2000/svg">
<g clip-path="url(#clip0_3503_26216)">
<path d="M211.794 0.437134H0V144.563H211.794V0.437134Z" fill="white"/>
<path d="M207.714 4.38782H4.07031V140.447H207.714V4.38782Z" fill="#003399"/>
<path d="M101.557 34.0362L105.851 30.8915L110.152 34.0362L108.515 28.9485L112.881 25.8109H107.502L105.851 20.6656L104.206 25.8181L98.8281 25.8109L103.194 28.9485L101.557 34.0362Z" fill="#FFCC00"/>
<path d="M79.3185 40.0235L83.6125 36.8788L87.9138 40.0235L86.2766 34.943L90.6424 31.7982H85.2569L83.6125 26.6458L81.9682 31.8054L76.5898 31.7982L80.9485 34.943L79.3185 40.0235Z" fill="#FFCC00"/>
<path d="M67.3463 42.9884L65.6947 48.1481L60.3164 48.1409L64.6823 51.2856L63.0451 56.3662L67.3463 53.2214L71.6403 56.3662L70.0031 51.2856L74.369 48.1409H68.9907L67.3463 42.9884Z" fill="#FFCC00"/>
<path d="M61.3743 75.4792L65.6683 78.624L64.0383 73.5434L68.397 70.3987H63.0258L61.3743 65.2462L59.7299 70.4131L54.3516 70.3987L58.7174 73.5434L57.0802 78.624L61.3743 75.4792Z" fill="#FFCC00"/>
<path d="M68.9907 92.7213L67.3391 87.576L65.6947 92.7285L60.3164 92.7213L64.6823 95.8661L63.0451 100.947L67.3391 97.8019L71.6403 100.947L70.0031 95.8661L74.369 92.7213H68.9907Z" fill="#FFCC00"/>
<path d="M85.2921 109.057L83.6477 103.919L82.0033 109.064L76.625 109.057L80.9837 112.202L79.3537 117.282L83.6477 114.145L87.9417 117.282L86.3117 112.202L90.6704 109.057H85.2921Z" fill="#FFCC00"/>
<path d="M107.503 114.979L105.859 109.834L104.214 114.986L98.8359 114.979L103.195 118.124L101.565 123.205L105.859 120.06L110.153 123.205L108.515 118.124L112.881 114.979H107.503Z" fill="#FFCC00"/>
<path d="M129.71 109.057L128.066 103.919L126.414 109.064L121.043 109.057L125.402 112.202L123.772 117.282L128.066 114.145L132.367 117.282L130.723 112.202L135.088 109.057H129.71Z" fill="#FFCC00"/>
<path d="M146.018 92.7213L144.366 87.576L142.722 92.7285L137.344 92.7213L141.71 95.8661L140.072 100.947L144.366 97.8019L148.668 100.947L147.03 95.8661L151.396 92.7213H146.018Z" fill="#FFCC00"/>
<path d="M157.299 70.334H151.92L150.269 65.1887L148.632 70.3412L143.246 70.334L147.612 73.4788L145.982 78.5593L150.269 75.4145L154.57 78.5593L152.94 73.4788L157.299 70.334Z" fill="#FFCC00"/>
<path d="M140.072 56.2942L144.366 53.1566L148.668 56.2942L147.03 51.2136L151.396 48.0761H146.018L144.366 42.9308L142.722 48.0833L137.344 48.0761L141.71 51.2136L140.072 56.2942Z" fill="#FFCC00"/>
<path d="M128.132 26.653L126.488 31.8054L121.109 31.7982L125.468 34.943L123.831 40.0307L128.139 36.8788L132.426 40.0307L130.796 34.943L135.162 31.7982H129.776L128.132 26.653Z" fill="#FFCC00"/>
<path d="M237.18 55.6034V22.1194H260.086V27.7828H243.93V35.7058H257.874V41.3693H243.93V55.5962H237.187L237.18 55.6034Z" fill="#003399"/>
<path d="M281.524 55.6034V51.9693C280.641 53.2646 279.485 54.2865 278.049 55.0277C276.613 55.7761 275.097 56.1431 273.503 56.1431C271.909 56.1431 270.416 55.7833 269.13 55.0709C267.838 54.3585 266.904 53.351 266.33 52.0557C265.755 50.7604 265.461 48.9757 265.461 46.6873V31.3378H271.866V42.4847C271.866 45.8957 271.981 47.9826 272.218 48.7526C272.455 49.5226 272.879 50.1343 273.503 50.5804C274.128 51.0266 274.918 51.2569 275.873 51.2569C276.964 51.2569 277.948 50.9547 278.81 50.3574C279.679 49.7601 280.268 49.0117 280.583 48.1193C280.907 47.227 281.065 45.0466 281.065 41.578V31.345H287.47V55.6034H281.524Z" fill="#003399"/>
<path d="M316.122 55.6033H309.716V43.2258C309.716 40.6064 309.58 38.9153 309.307 38.1453C309.034 37.3753 308.589 36.778 307.971 36.3535C307.354 35.9289 306.614 35.713 305.753 35.713C304.647 35.713 303.649 36.0152 302.765 36.6269C301.882 37.2386 301.279 38.0446 300.956 39.052C300.626 40.0595 300.468 41.9161 300.468 44.6219V55.6105H294.062V31.3521H300.008V34.9142C302.119 32.1725 304.776 30.8052 307.986 30.8052C309.4 30.8052 310.693 31.057 311.863 31.568C313.034 32.0789 313.917 32.7266 314.52 33.5181C315.123 34.3097 315.54 35.2093 315.777 36.2167C316.014 37.2242 316.129 38.6634 316.129 40.5345V55.6105L316.122 55.6033Z" fill="#003399"/>
<path d="M344.815 55.6034H338.87V52.0412C337.879 53.4301 336.715 54.4592 335.373 55.1356C334.03 55.8121 332.673 56.1503 331.301 56.1503C328.522 56.1503 326.138 55.0277 324.156 52.7825C322.175 50.5372 321.184 47.4069 321.184 43.3842C321.184 39.3615 322.146 36.152 324.077 34.0075C326.009 31.8703 328.443 30.798 331.395 30.798C334.102 30.798 336.435 31.9278 338.417 34.1802V22.1194H344.822V55.6034H344.815ZM327.725 42.9524C327.725 45.5431 328.084 47.4141 328.795 48.5727C329.829 50.2494 331.272 51.0841 333.125 51.0841C334.597 51.0841 335.854 50.4581 336.888 49.1987C337.922 47.9394 338.439 46.0684 338.439 43.5713C338.439 40.7864 337.936 38.7786 336.938 37.5553C335.94 36.3319 334.647 35.713 333.089 35.713C331.531 35.713 330.296 36.3175 329.269 37.5265C328.242 38.7354 327.732 40.5489 327.732 42.9524H327.725Z" fill="#003399"/>
<path d="M365.146 47.8818L371.53 48.954C370.711 51.3 369.411 53.0846 367.645 54.308C365.871 55.5314 363.66 56.143 361.003 56.143C356.795 56.143 353.678 54.7614 351.661 52.0124C350.067 49.8032 349.27 47.0182 349.27 43.6504C349.27 39.6277 350.318 36.483 352.415 34.209C354.511 31.935 357.161 30.7908 360.371 30.7908C363.968 30.7908 366.812 31.9853 368.894 34.3673C370.977 36.7492 371.968 40.3977 371.881 45.3199H355.84C355.883 47.2269 356.4 48.7022 357.391 49.76C358.382 50.8178 359.61 51.3504 361.082 51.3504C362.087 51.3504 362.927 51.0769 363.609 50.53C364.292 49.9831 364.809 49.0979 365.16 47.8818H365.146ZM365.512 41.398C365.469 39.5414 364.988 38.1309 364.076 37.1594C363.164 36.1951 362.058 35.7058 360.751 35.7058C359.351 35.7058 358.202 36.2167 357.29 37.2386C356.378 38.2604 355.933 39.6421 355.948 41.398H365.519H365.512Z" fill="#003399"/>
<path d="M399.28 55.6034H393.334V52.0412C392.344 53.4301 391.18 54.4592 389.837 55.1356C388.495 55.8121 387.138 56.1503 385.766 56.1503C382.987 56.1503 380.603 55.0277 378.621 52.7825C376.639 50.5372 375.648 47.4069 375.648 43.3842C375.648 39.3615 376.611 36.152 378.542 34.0075C380.474 31.8703 382.908 30.798 385.859 30.798C388.566 30.798 390.9 31.9278 392.882 34.1802V22.1194H399.287V55.6034H399.28ZM382.19 42.9524C382.19 45.5431 382.549 47.4141 383.26 48.5727C384.294 50.2494 385.737 51.0841 387.59 51.0841C389.062 51.0841 390.319 50.4581 391.353 49.1987C392.387 47.9394 392.904 46.0684 392.904 43.5713C392.904 40.7864 392.401 38.7786 391.403 37.5553C390.405 36.3319 389.112 35.713 387.554 35.713C385.996 35.713 384.761 36.3175 383.734 37.5265C382.707 38.7354 382.197 40.5489 382.197 42.9524H382.19Z" fill="#003399"/>
<path d="M418.297 55.6034V22.1194H424.702V34.1802C426.677 31.9278 429.018 30.798 431.725 30.798C434.669 30.798 437.11 31.8703 439.042 34.0075C440.973 36.1448 441.936 39.2176 441.936 43.2259C441.936 47.2342 440.952 50.5588 438.984 52.7969C437.017 55.0349 434.626 56.1575 431.818 56.1575C430.432 56.1575 429.075 55.8121 427.725 55.1212C426.382 54.4304 425.219 53.4085 424.25 52.0484V55.6106H418.304L418.297 55.6034ZM424.652 42.9524C424.652 45.4639 425.047 47.3205 425.837 48.5223C426.942 50.2278 428.422 51.077 430.26 51.077C431.674 51.077 432.874 50.4725 433.872 49.2635C434.87 48.0545 435.365 46.1475 435.365 43.5425C435.365 40.772 434.863 38.7714 433.865 37.5481C432.866 36.3247 431.581 35.7058 430.016 35.7058C428.45 35.7058 427.208 36.3031 426.188 37.4977C425.169 38.6923 424.659 40.5057 424.659 42.9452L424.652 42.9524Z" fill="#003399"/>
<path d="M444.047 31.3522H450.861L456.649 48.5727L462.3 31.3522H468.935L460.39 54.6967L458.861 58.9209C458.301 60.3385 457.762 61.418 457.252 62.1664C456.742 62.9148 456.161 63.5193 455.5 63.9798C454.839 64.4476 454.028 64.8074 453.059 65.0664C452.096 65.3255 451.005 65.455 449.791 65.455C448.578 65.455 447.35 65.3255 446.165 65.0664L445.598 60.0435C446.603 60.2378 447.508 60.3385 448.312 60.3385C449.799 60.3385 450.904 59.8996 451.615 59.0216C452.326 58.1437 452.879 57.0283 453.26 55.6754L444.054 31.3522H444.047Z" fill="#003399"/>
<path d="M248.186 87.4826V92.5991H243.813V102.372C243.813 104.35 243.856 105.502 243.935 105.833C244.021 106.164 244.208 106.43 244.502 106.646C244.797 106.862 245.163 106.97 245.586 106.97C246.182 106.97 247.037 106.761 248.164 106.351L248.71 111.331C247.224 111.971 245.536 112.288 243.655 112.288C242.499 112.288 241.458 112.094 240.531 111.705C239.605 111.316 238.923 110.813 238.492 110.201C238.061 109.582 237.76 108.747 237.594 107.704C237.458 106.956 237.386 105.452 237.386 103.178V92.6063H234.449V87.4898H237.386V82.6683L243.813 78.9191V87.4826H248.186Z" fill="#003399"/>
<path d="M259.014 78.2499V90.5626C261.082 88.1447 263.552 86.9285 266.417 86.9285C267.889 86.9285 269.218 87.202 270.402 87.7489C271.587 88.2958 272.478 89.001 273.081 89.8502C273.684 90.7065 274.093 91.6492 274.309 92.6855C274.531 93.7217 274.639 95.3265 274.639 97.507V111.734H268.234V98.9246C268.234 96.3843 268.112 94.7652 267.868 94.0816C267.624 93.3979 267.193 92.851 266.582 92.448C265.965 92.045 265.196 91.8435 264.27 91.8435C263.207 91.8435 262.26 92.1026 261.419 92.6207C260.586 93.1389 259.976 93.916 259.588 94.9595C259.201 96.0029 259.007 97.5429 259.007 99.5867V111.734H252.602V78.2499H259.007H259.014Z" fill="#003399"/>
<path d="M295.154 104.012L301.537 105.085C300.719 107.43 299.419 109.215 297.653 110.438C295.879 111.662 293.667 112.274 291.011 112.274C286.803 112.274 283.686 110.892 281.669 108.143C280.074 105.934 279.277 103.149 279.277 99.7809C279.277 95.7582 280.326 92.6135 282.422 90.3395C284.519 88.0655 287.169 86.9213 290.379 86.9213C293.976 86.9213 296.82 88.1158 298.902 90.4978C300.985 92.8797 301.976 96.5282 301.889 101.45H285.848C285.891 103.357 286.408 104.833 287.399 105.89C288.39 106.948 289.618 107.481 291.09 107.481C292.095 107.481 292.935 107.207 293.617 106.66C294.299 106.114 294.816 105.228 295.168 104.012H295.154ZM295.52 97.5285C295.477 95.6719 294.996 94.2614 294.084 93.2899C293.172 92.3256 292.066 91.8363 290.759 91.8363C289.359 91.8363 288.21 92.3472 287.298 93.3691C286.386 94.3909 285.941 95.7726 285.955 97.5285H295.527H295.52Z" fill="#003399"/>
<path d="M320.109 111.734V78.2499H344.882V83.9133H326.851V91.3398H343.625V96.9816H326.851V106.092H345.514V111.734H320.102H320.109Z" fill="#003399"/>
<path d="M367.126 111.734V108.1C366.242 109.395 365.086 110.417 363.65 111.158C362.214 111.907 360.699 112.274 359.105 112.274C357.511 112.274 356.017 111.914 354.732 111.201C353.439 110.489 352.506 109.481 351.931 108.186C351.357 106.891 351.062 105.106 351.062 102.818V87.4683H357.468V98.6152C357.468 102.026 357.583 104.113 357.82 104.883C358.056 105.653 358.48 106.265 359.105 106.711C359.73 107.157 360.519 107.387 361.474 107.387C362.566 107.387 363.55 107.085 364.411 106.488C365.28 105.891 365.869 105.142 366.185 104.25C366.508 103.358 366.666 101.177 366.666 97.7085V87.4755H373.071V111.734H367.126Z" fill="#003399"/>
<path d="M385.839 111.734H379.434V87.4754H385.379V90.9224C386.399 89.296 387.311 88.2238 388.122 87.7057C388.934 87.1875 389.86 86.9285 390.894 86.9285C392.352 86.9285 393.759 87.3315 395.109 88.1374L393.127 93.7361C392.05 93.038 391.045 92.6854 390.118 92.6854C389.192 92.6854 388.46 92.9301 387.842 93.4266C387.217 93.9232 386.729 94.8155 386.37 96.1108C386.011 97.4062 385.832 100.119 385.832 104.243V111.734H385.839Z" fill="#003399"/>
<path d="M396.387 99.2628C396.387 97.1327 396.911 95.0674 397.959 93.074C399.008 91.0807 400.494 89.5551 402.411 88.5044C404.336 87.4538 406.483 86.9285 408.852 86.9285C412.515 86.9285 415.516 88.123 417.857 90.505C420.198 92.8869 421.368 95.9022 421.368 99.5362C421.368 103.17 420.183 106.25 417.821 108.661C415.459 111.072 412.486 112.281 408.903 112.281C406.684 112.281 404.565 111.777 402.555 110.777C400.544 109.776 399.008 108.301 397.966 106.358C396.918 104.415 396.394 102.055 396.394 99.27L396.387 99.2628ZM402.957 99.6082C402.957 102.012 403.524 103.854 404.666 105.135C405.808 106.416 407.208 107.056 408.881 107.056C410.554 107.056 411.954 106.416 413.089 105.135C414.224 103.854 414.784 101.997 414.784 99.565C414.784 97.1327 414.216 95.3624 413.089 94.0815C411.962 92.8006 410.554 92.1601 408.881 92.1601C407.208 92.1601 405.808 92.8006 404.666 94.0815C403.524 95.3624 402.957 97.2047 402.957 99.6082Z" fill="#003399"/>
<path d="M426.202 87.4826H432.169V91.0447C432.944 89.8285 433.993 88.8355 435.314 88.0727C436.635 87.3099 438.1 86.9285 439.709 86.9285C442.516 86.9285 444.908 88.0295 446.868 90.2387C448.828 92.448 449.805 95.5207 449.805 99.4643C449.805 103.408 448.814 106.66 446.839 108.906C444.864 111.151 442.473 112.274 439.658 112.274C438.323 112.274 437.109 112.007 436.025 111.475C434.941 110.942 433.792 110.028 432.593 108.733V120.952H426.188V87.4682L426.202 87.4826ZM432.535 99.198C432.535 101.925 433.074 103.933 434.151 105.236C435.228 106.538 436.542 107.186 438.093 107.186C439.644 107.186 440.822 106.589 441.805 105.394C442.796 104.199 443.285 102.242 443.285 99.5146C443.285 96.9744 442.775 95.0818 441.755 93.8512C440.736 92.6207 439.479 92.0018 437.971 92.0018C436.463 92.0018 435.106 92.6063 434.072 93.8152C433.038 95.0242 432.521 96.8161 432.521 99.1908L432.535 99.198Z" fill="#003399"/>
<path d="M468.904 104.012L475.287 105.085C474.469 107.43 473.169 109.215 471.403 110.438C469.629 111.662 467.417 112.274 464.761 112.274C460.553 112.274 457.436 110.892 455.418 108.143C453.824 105.934 453.027 103.149 453.027 99.7809C453.027 95.7582 454.076 92.6135 456.172 90.3395C458.269 88.0655 460.919 86.9213 464.129 86.9213C467.726 86.9213 470.57 88.1158 472.652 90.4978C474.734 92.8797 475.725 96.5282 475.639 101.45H459.598C459.641 103.357 460.158 104.833 461.149 105.89C462.14 106.948 463.367 107.481 464.84 107.481C465.845 107.481 466.685 107.207 467.367 106.66C468.049 106.114 468.566 105.228 468.918 104.012H468.904ZM469.27 97.5285C469.227 95.6719 468.746 94.2614 467.834 93.2899C466.922 92.3256 465.816 91.8363 464.509 91.8363C463.109 91.8363 461.96 92.3472 461.048 93.3691C460.136 94.3909 459.691 95.7726 459.705 97.5285H469.277H469.27Z" fill="#003399"/>
<path d="M485.638 94.8803L479.829 93.8296C480.483 91.4837 481.61 89.7494 483.204 88.6196C484.798 87.4898 487.168 86.9285 490.313 86.9285C493.171 86.9285 495.296 87.2667 496.697 87.9431C498.097 88.6196 499.081 89.4831 499.648 90.5266C500.215 91.57 500.502 93.4842 500.502 96.2692L500.438 103.76C500.438 105.89 500.538 107.466 500.747 108.474C500.955 109.489 501.335 110.575 501.895 111.727H495.562C495.397 111.302 495.189 110.669 494.945 109.834C494.837 109.453 494.765 109.201 494.715 109.078C493.623 110.143 492.453 110.942 491.203 111.475C489.961 112.007 488.626 112.274 487.218 112.274C484.726 112.274 482.759 111.597 481.33 110.244C479.894 108.891 479.176 107.179 479.176 105.106C479.176 103.739 479.506 102.515 480.16 101.443C480.813 100.371 481.725 99.5506 482.903 98.9749C484.08 98.4064 485.775 97.9027 487.994 97.4781C490.988 96.9168 493.063 96.3915 494.212 95.9021V95.2617C494.212 94.0311 493.911 93.146 493.3 92.6207C492.69 92.0954 491.548 91.8291 489.861 91.8291C488.719 91.8291 487.828 92.0522 487.197 92.5055C486.558 92.9517 486.041 93.7433 485.646 94.8731L485.638 94.8803ZM494.205 100.09C493.386 100.364 492.087 100.695 490.306 101.069C488.525 101.45 487.369 101.825 486.816 102.192C485.983 102.789 485.559 103.537 485.559 104.451C485.559 105.365 485.89 106.128 486.565 106.783C487.232 107.438 488.087 107.762 489.114 107.762C490.27 107.762 491.369 107.38 492.417 106.617C493.192 106.042 493.702 105.329 493.946 104.494C494.112 103.948 494.198 102.904 494.198 101.364V100.083L494.205 100.09Z" fill="#003399"/>
<path d="M528.829 111.734H522.423V99.3563C522.423 96.7369 522.287 95.0458 522.014 94.2758C521.741 93.5058 521.296 92.9085 520.679 92.484C520.061 92.0594 519.321 91.8435 518.46 91.8435C517.354 91.8435 516.356 92.1457 515.473 92.7574C514.589 93.3691 513.986 94.1751 513.663 95.1825C513.333 96.19 513.175 98.0466 513.175 100.752V111.741H506.77V87.4826H512.715V91.0447C514.826 88.303 517.483 86.9357 520.693 86.9357C522.107 86.9357 523.4 87.1875 524.57 87.6985C525.741 88.2094 526.624 88.8571 527.227 89.6486C527.83 90.4402 528.247 91.3398 528.484 92.3472C528.721 93.3547 528.836 94.7939 528.836 96.665V111.741L528.829 111.734Z" fill="#003399"/>
<path d="M548.289 78.2499H555.032V96.3843C555.032 99.2628 555.118 101.127 555.283 101.983C555.57 103.35 556.26 104.451 557.344 105.286C558.428 106.121 559.915 106.531 561.803 106.531C563.692 106.531 565.164 106.142 566.133 105.358C567.102 104.574 567.691 103.609 567.885 102.472C568.079 101.328 568.18 99.4355 568.18 96.7873V78.2643H574.922V95.8518C574.922 99.8745 574.743 102.71 574.377 104.372C574.01 106.034 573.342 107.431 572.359 108.575C571.375 109.719 570.068 110.626 568.431 111.302C566.794 111.979 564.647 112.317 562.004 112.317C558.816 112.317 556.396 111.95 554.744 111.209C553.093 110.467 551.793 109.51 550.838 108.33C549.883 107.15 549.251 105.912 548.95 104.617C548.512 102.695 548.289 99.8673 548.289 96.1181V78.2571V78.2499Z" fill="#003399"/>
<path d="M604.008 111.734H597.603V99.3563C597.603 96.7369 597.467 95.0458 597.194 94.2758C596.921 93.5058 596.476 92.9085 595.858 92.484C595.241 92.0594 594.501 91.8435 593.639 91.8435C592.534 91.8435 591.535 92.1457 590.652 92.7574C589.769 93.3691 589.166 94.1751 588.843 95.1825C588.512 96.19 588.354 98.0466 588.354 100.752V111.741H581.949V87.4826H587.895V91.0447C590.006 88.303 592.663 86.9357 595.873 86.9357C597.287 86.9357 598.58 87.1875 599.75 87.6985C600.921 88.2094 601.804 88.8571 602.407 89.6486C603.01 90.4402 603.427 91.3398 603.664 92.3472C603.901 93.3547 604.015 94.7939 604.015 96.665V111.741L604.008 111.734Z" fill="#003399"/>
<path d="M610.508 84.194V78.2571H616.913V84.194H610.508ZM610.508 111.734V87.4754H616.913V111.734H610.508Z" fill="#003399"/>
<path d="M621.992 99.2628C621.992 97.1327 622.516 95.0674 623.565 93.074C624.613 91.0807 626.1 89.5551 628.017 88.5044C629.941 87.4538 632.088 86.9285 634.458 86.9285C638.12 86.9285 641.121 88.123 643.462 90.505C645.803 92.8869 646.974 95.9022 646.974 99.5362C646.974 103.17 645.789 106.25 643.426 108.661C641.064 111.072 638.091 112.281 634.508 112.281C632.289 112.281 630.171 111.777 628.16 110.777C626.15 109.776 624.613 108.301 623.572 106.358C622.524 104.415 621.999 102.055 621.999 99.27L621.992 99.2628ZM628.555 99.6082C628.555 102.012 629.123 103.854 630.264 105.135C631.406 106.416 632.806 107.056 634.479 107.056C636.152 107.056 637.553 106.416 638.687 105.135C639.822 103.854 640.382 101.997 640.382 99.565C640.382 97.1327 639.815 95.3624 638.687 94.0815C637.56 92.8006 636.152 92.1601 634.479 92.1601C632.806 92.1601 631.406 92.8006 630.264 94.0815C629.123 95.3624 628.555 97.2047 628.555 99.6082Z" fill="#003399"/>
<path d="M674.001 111.734H667.595V99.3563C667.595 96.7369 667.459 95.0458 667.186 94.2758C666.913 93.5058 666.468 92.9085 665.85 92.484C665.233 92.0594 664.493 91.8435 663.632 91.8435C662.526 91.8435 661.528 92.1457 660.644 92.7574C659.761 93.3691 659.158 94.1751 658.835 95.1825C658.505 96.19 658.347 98.0466 658.347 100.752V111.741H651.941V87.4826H657.887V91.0447C659.998 88.303 662.655 86.9357 665.865 86.9357C667.279 86.9357 668.572 87.1875 669.742 87.6985C670.913 88.2094 671.796 88.8571 672.399 89.6486C673.002 90.4402 673.419 91.3398 673.656 92.3472C673.893 93.3547 674.008 94.7939 674.008 96.665V111.741L674.001 111.734Z" fill="#003399"/>
</g>
<defs>
<clipPath id="clip0_3503_26216">
<rect width="674" height="144.126" fill="white" transform="translate(0 0.437134)"/>
</clipPath>
</defs>
</svg>
