<svg width="40" height="40" viewBox="0 0 40 40" fill="none" xmlns="http://www.w3.org/2000/svg">
<rect width="40" height="40" rx="20" fill="#E8EDF6"/>
<circle cx="20.5" cy="20" r="10" fill="white"/>
<path d="M30.5 20.0611C30.5 14.5045 26.0228 10 20.5 10C14.9772 10 10.5 14.5045 10.5 20.0611C10.5 25.0829 14.1569 29.2453 18.9375 30V22.9694H16.3984V20.0611H18.9375V17.8445C18.9375 15.323 20.4305 13.9301 22.7147 13.9301C23.8088 13.9301 24.9531 14.1266 24.9531 14.1266V16.6026H23.6922C22.4499 16.6026 22.0625 17.3782 22.0625 18.1739V20.0611H24.8359L24.3926 22.9694H22.0625V30C26.8431 29.2453 30.5 25.0829 30.5 20.0611Z" fill="#1877F2"/>
</svg>
