<svg width="329" height="78" viewBox="0 0 329 78" fill="none" xmlns="http://www.w3.org/2000/svg">
<path d="M90.7056 70.7501C90.7056 72.1052 90.3393 73.0784 89.6127 73.6759C88.8861 74.2672 87.7139 74.5629 86.102 74.5629H81.248V61.2765H86.0776C87.5307 61.2765 88.5687 61.5229 89.1853 62.0156C89.802 62.5084 90.1073 63.3584 90.1073 64.5596C90.1073 65.4219 89.9546 66.0872 89.6554 66.5492C89.3563 67.0173 88.8495 67.3314 88.1352 67.5039C88.9899 67.6148 89.631 67.9412 90.0584 68.4771C90.4858 69.013 90.6995 69.7707 90.6995 70.7439L90.7056 70.7501ZM88.4588 64.8183C88.4588 64.0853 88.2817 63.574 87.9337 63.2845C87.5857 62.995 86.9751 62.8472 86.1081 62.8472H83.0431V66.9988H86.1081C86.9507 66.9988 87.549 66.8263 87.9154 66.4876C88.2817 66.1488 88.4588 65.5883 88.4588 64.8121V64.8183ZM88.9838 70.6453C88.9838 69.8569 88.7701 69.3025 88.3305 68.9946C87.897 68.6804 87.1583 68.5264 86.1081 68.5264H83.0431V72.9552H86.1081C87.1583 72.9552 87.9031 72.7828 88.3305 72.444C88.764 72.1052 88.9838 71.5077 88.9838 70.6453Z" fill="#1C4DA1"/>
<path d="M97.8244 74.7354C96.6766 74.7354 95.8157 74.4459 95.2417 73.8669C94.6678 73.2878 94.3809 72.4193 94.3809 71.2613V64.0976H96.1026V71.0457C96.1026 71.7664 96.2858 72.29 96.646 72.6164C97.0063 72.9429 97.5863 73.1031 98.3678 73.1031C98.844 73.1031 99.3264 73.0415 99.8026 72.9244C100.285 72.8074 100.773 72.6164 101.262 72.3639V64.1038H102.984V74.5691H101.408L101.323 73.7005H101.28C100.554 74.0824 99.9186 74.3535 99.3935 74.5075C98.8624 74.6615 98.3373 74.7415 97.8183 74.7415L97.8244 74.7354Z" fill="#1C4DA1"/>
<path d="M109.12 62.2743H107.27V60.4696H109.12V62.2743ZM109.058 74.5629H107.337V64.0976H109.058V74.5629Z" fill="#1C4DA1"/>
<path d="M115.128 60.4696V74.5629H113.406V60.4696H115.128Z" fill="#1C4DA1"/>
<path d="M126.339 60.4696H128.06V74.5629H126.571L126.442 73.5897H126.4C125.991 73.9716 125.502 74.2549 124.916 74.4459C124.336 74.6368 123.664 74.7292 122.907 74.7292C121.491 74.7292 120.483 74.3042 119.873 73.4603C119.262 72.6103 118.957 71.2305 118.957 69.3087C118.957 67.3869 119.329 66.0009 120.068 65.1571C120.807 64.307 122.046 63.882 123.787 63.882C124.275 63.882 124.733 63.919 125.16 63.9991C125.588 64.0791 125.978 64.1838 126.326 64.3255V60.4696H126.339ZM124.012 65.4527C122.712 65.4527 121.833 65.7299 121.375 66.2781C120.917 66.8263 120.691 67.8365 120.691 69.3087C120.691 70.7809 120.893 71.7294 121.289 72.2838C121.686 72.8443 122.431 73.1215 123.524 73.1215C124.043 73.1215 124.538 73.0538 125.014 72.9183C125.49 72.7828 125.93 72.5856 126.339 72.3146V65.8778C126.003 65.7361 125.649 65.6314 125.27 65.5575C124.892 65.4835 124.47 65.4527 124.012 65.4527Z" fill="#1C4DA1"/>
<path d="M138.079 76.4293C138.611 76.4293 139.014 76.3123 139.288 76.0782C139.563 75.8441 139.85 75.2897 140.161 74.4151L135.918 64.0976H137.847L141.041 72.678L144.063 64.0976H145.913L141.669 75.2651C141.291 76.2815 140.851 76.9898 140.345 77.3964C139.838 77.8029 139.191 78 138.391 78C138.153 78 137.902 77.9877 137.646 77.9569C137.389 77.9261 137.133 77.8953 136.877 77.8522V76.3246C137.029 76.3677 137.2 76.3923 137.389 76.4108C137.579 76.4293 137.805 76.4293 138.073 76.4293H138.079Z" fill="#1C4DA1"/>
<path d="M158.014 69.3087C158.014 71.286 157.654 72.6842 156.933 73.5034C156.213 74.3227 154.98 74.7354 153.227 74.7354C151.475 74.7354 150.168 74.3412 149.466 73.5466C148.764 72.7581 148.416 71.3414 148.416 69.3087C148.416 67.276 148.776 65.9147 149.497 65.1016C150.217 64.2886 151.457 63.882 153.221 63.882C154.986 63.882 156.28 64.2762 156.97 65.0708C157.666 65.8654 158.008 67.276 158.008 69.3087H158.014ZM150.138 69.2902C150.138 70.8425 150.339 71.8711 150.748 72.3701C151.151 72.869 151.982 73.1215 153.227 73.1215C154.473 73.1215 155.242 72.8567 155.663 72.3269C156.085 71.7972 156.292 70.7809 156.292 69.2841C156.292 67.7873 156.091 66.7032 155.694 66.1981C155.297 65.6991 154.473 65.4466 153.227 65.4466C151.982 65.4466 151.188 65.7114 150.773 66.2289C150.351 66.7524 150.144 67.7688 150.144 69.2779L150.138 69.2902Z" fill="#1C4DA1"/>
<path d="M165.237 74.7354C164.089 74.7354 163.228 74.4459 162.654 73.8669C162.08 73.2878 161.793 72.4193 161.793 71.2613V64.0976H163.515V71.0457C163.515 71.7664 163.698 72.29 164.058 72.6164C164.418 72.9429 164.998 73.1031 165.78 73.1031C166.256 73.1031 166.739 73.0415 167.215 72.9244C167.697 72.8074 168.186 72.6164 168.674 72.3639V64.1038H170.396V74.5691H168.821L168.735 73.7005H168.692C167.966 74.0824 167.331 74.3535 166.806 74.5075C166.274 74.6615 165.749 74.7415 165.23 74.7415L165.237 74.7354Z" fill="#1C4DA1"/>
<path d="M176.472 74.5629H174.75V64.0976H176.325L176.411 64.9846H176.496C177.04 64.6581 177.589 64.4179 178.133 64.2516C178.676 64.0853 179.219 64.0052 179.75 64.0052H180.202C180.282 64.0052 180.337 64.0114 180.379 64.0237V65.6991C180.282 65.6683 180.16 65.6498 180.013 65.6437C179.866 65.6375 179.641 65.6314 179.329 65.6314C178.822 65.6314 178.328 65.693 177.846 65.81C177.363 65.9332 176.905 66.1118 176.472 66.3521V74.5506V74.5629Z" fill="#1C4DA1"/>
<path d="M195.374 60.4696H197.096V74.5629H195.606L195.478 73.5897H195.435C195.026 73.9716 194.537 74.2549 193.951 74.4459C193.365 74.6368 192.7 74.7292 191.943 74.7292C190.526 74.7292 189.519 74.3042 188.908 73.4603C188.297 72.6103 187.992 71.2305 187.992 69.3087C187.992 67.3869 188.365 66.0009 189.103 65.1571C189.842 64.307 191.082 63.882 192.822 63.882C193.31 63.882 193.768 63.919 194.195 63.9991C194.623 64.0791 195.014 64.1838 195.362 64.3255V60.4696H195.374ZM193.042 65.4527C191.741 65.4527 190.862 65.7299 190.404 66.2781C189.946 66.8263 189.72 67.8365 189.72 69.3087C189.72 70.7809 189.922 71.7294 190.318 72.2838C190.715 72.8443 191.46 73.1215 192.553 73.1215C193.072 73.1215 193.567 73.0538 194.043 72.9183C194.519 72.7828 194.959 72.5856 195.368 72.3146V65.8778C195.032 65.7361 194.678 65.6314 194.299 65.5575C193.921 65.4835 193.499 65.4527 193.042 65.4527Z" fill="#1C4DA1"/>
<path d="M203.225 62.2743H201.375V60.4696H203.225V62.2743ZM203.164 74.5629H201.442V64.0976H203.164V74.5629Z" fill="#1C4DA1"/>
<path d="M211.731 77.9938C211.029 77.9938 210.375 77.9446 209.765 77.8583C209.154 77.7659 208.654 77.6427 208.263 77.4887V75.9427C208.586 76.0659 209.057 76.1767 209.679 76.2568C210.302 76.3431 210.919 76.3862 211.535 76.3862C212.586 76.3862 213.312 76.1767 213.721 75.764C214.124 75.3452 214.332 74.6122 214.332 73.5527V72.8998C213.813 73.2078 213.263 73.448 212.671 73.6082C212.085 73.7683 211.487 73.8545 210.888 73.8545C209.502 73.8545 208.513 73.4665 207.915 72.6904C207.317 71.9142 207.023 70.6453 207.023 68.8775C207.023 67.1097 207.408 65.8038 208.165 65.04C208.928 64.2762 210.229 63.8943 212.061 63.8943C212.72 63.8943 213.428 63.9313 214.179 64.0114C214.936 64.0914 215.559 64.1838 216.048 64.2947V73.0661C216.048 74.9017 215.724 76.1829 215.083 76.9097C214.442 77.6366 213.318 78 211.725 78L211.731 77.9938ZM212.067 65.4527C210.723 65.4527 209.832 65.6868 209.399 66.1549C208.965 66.6231 208.751 67.5286 208.751 68.8652C208.751 70.1341 208.934 71.0149 209.307 71.5015C209.679 71.9882 210.394 72.2345 211.462 72.2345C211.926 72.2345 212.402 72.1668 212.903 72.0313C213.398 71.8958 213.88 71.711 214.338 71.4707V65.6868C214.002 65.6129 213.642 65.5575 213.257 65.5143C212.873 65.4712 212.476 65.4527 212.067 65.4527Z" fill="#1C4DA1"/>
<path d="M222.17 62.2743H220.32V60.4696H222.17V62.2743ZM222.103 74.5629H220.381V64.0976H222.103V74.5629Z" fill="#1C4DA1"/>
<path d="M232.545 72.9306V74.3904C232.319 74.489 232.014 74.5691 231.629 74.6368C231.245 74.7046 230.878 74.7292 230.53 74.7292C229.273 74.7292 228.369 74.4459 227.832 73.8792C227.294 73.3125 227.026 72.3393 227.026 70.9533V65.5698H225.469V64.0853H227.044L227.319 61.5413H228.747V64.0853H232.441V65.5698H228.747V70.8856C228.747 71.7479 228.906 72.3331 229.218 72.6411C229.535 72.9552 230.091 73.1092 230.884 73.1092C231.135 73.1092 231.428 73.0907 231.758 73.0476C232.087 73.0045 232.35 72.9614 232.545 72.9183V72.9306Z" fill="#1C4DA1"/>
<path d="M238.173 74.7354C237.111 74.7354 236.33 74.4767 235.829 73.9593C235.334 73.4418 235.084 72.6288 235.084 71.5139C235.084 70.399 235.383 69.5797 235.988 69.1116C236.592 68.6373 237.612 68.4032 239.053 68.4032C239.529 68.4032 239.999 68.4217 240.457 68.4648C240.921 68.5079 241.354 68.5695 241.757 68.6558V67.6394C241.757 66.8633 241.562 66.3028 241.171 65.964C240.781 65.6252 240.152 65.4527 239.279 65.4527C238.637 65.4527 238.07 65.4774 237.581 65.5267C237.093 65.5759 236.598 65.656 236.11 65.773V64.2701C236.671 64.1284 237.239 64.0299 237.825 63.9744C238.405 63.919 239.065 63.8882 239.81 63.8882C241.055 63.8882 241.977 64.1838 242.582 64.769C243.186 65.3542 243.485 66.2658 243.485 67.4916V74.5691H241.91L241.825 73.5958H241.782C241.361 73.9346 240.817 74.2118 240.158 74.4212C239.492 74.6307 238.833 74.7415 238.173 74.7415V74.7354ZM239.242 69.8199C238.289 69.8199 237.63 69.937 237.258 70.1711C236.885 70.4051 236.702 70.8178 236.702 71.4091C236.702 72.0313 236.855 72.4809 237.166 72.752C237.477 73.0291 237.978 73.1647 238.68 73.1647C239.224 73.1647 239.785 73.0784 240.359 72.9121C240.933 72.7458 241.403 72.5302 241.764 72.2777V70.0355C241.299 69.9616 240.872 69.9123 240.469 69.8754C240.072 69.8384 239.663 69.8261 239.242 69.8261V69.8199Z" fill="#1C4DA1"/>
<path d="M249.47 60.4696V74.5629H247.748V60.4696H249.47Z" fill="#1C4DA1"/>
<path d="M259.592 65.5821H258.035V64.0976H259.592V63.8451C259.592 62.6316 259.885 61.7323 260.471 61.1471C261.057 60.5619 261.961 60.2663 263.182 60.2663C263.494 60.2663 263.799 60.2786 264.11 60.3094C264.416 60.3402 264.702 60.3772 264.971 60.4326V61.9171C264.806 61.874 264.574 61.8432 264.287 61.8247C264 61.8062 263.713 61.7939 263.439 61.7939C262.639 61.7939 262.089 61.9356 261.778 62.2312C261.467 62.5207 261.314 63.0443 261.314 63.8081V64.1038H264.654V65.5883H261.314V74.5691H259.592V65.5883V65.5821Z" fill="#1C4DA1"/>
<path d="M271.291 74.7354C270.143 74.7354 269.282 74.4459 268.709 73.8669C268.135 73.2878 267.848 72.4193 267.848 71.2613V64.0976H269.569V71.0457C269.569 71.7664 269.753 72.29 270.113 72.6164C270.473 72.9429 271.053 73.1031 271.835 73.1031C272.311 73.1031 272.793 73.0415 273.269 72.9244C273.752 72.8074 274.24 72.6164 274.729 72.3639V64.1038H276.45V74.5691H274.875L274.79 73.7005H274.747C274.02 74.0824 273.385 74.3535 272.86 74.5075C272.329 74.6615 271.804 74.7415 271.285 74.7415L271.291 74.7354Z" fill="#1C4DA1"/>
<path d="M286.897 72.9306V74.3904C286.671 74.489 286.366 74.5691 285.981 74.6368C285.596 74.7046 285.23 74.7292 284.882 74.7292C283.624 74.7292 282.72 74.4459 282.183 73.8792C281.646 73.3125 281.377 72.3393 281.377 70.9533V65.5698H279.82V64.0853H281.396L281.67 61.5413H283.099V64.0853H286.793V65.5698H283.099V70.8856C283.099 71.7479 283.258 72.3331 283.569 72.6411C283.887 72.9552 284.442 73.1092 285.236 73.1092C285.486 73.1092 285.779 73.0907 286.109 73.0476C286.439 73.0045 286.701 72.9614 286.897 72.9183V72.9306Z" fill="#1C4DA1"/>
<path d="M293.533 74.7354C292.386 74.7354 291.525 74.4459 290.951 73.8669C290.377 73.2878 290.09 72.4193 290.09 71.2613V64.0976H291.812V71.0457C291.812 71.7664 291.995 72.29 292.355 72.6164C292.721 72.9429 293.295 73.1031 294.077 73.1031C294.553 73.1031 295.035 73.0415 295.512 72.9244C295.994 72.8074 296.482 72.6164 296.971 72.3639V64.1038H298.693V74.5691H297.117L297.032 73.7005H296.989C296.263 74.0824 295.628 74.3535 295.103 74.5075C294.571 74.6615 294.046 74.7415 293.527 74.7415L293.533 74.7354Z" fill="#1C4DA1"/>
<path d="M304.769 74.5629H303.047V64.0976H304.622L304.708 64.9846H304.793C305.336 64.6581 305.886 64.4179 306.429 64.2516C306.973 64.0853 307.516 64.0052 308.047 64.0052H308.499C308.579 64.0052 308.633 64.0114 308.676 64.0237V65.6991C308.579 65.6683 308.456 65.6498 308.31 65.6437C308.163 65.6375 307.937 65.6314 307.626 65.6314C307.119 65.6314 306.625 65.693 306.142 65.81C305.66 65.9332 305.202 66.1118 304.769 66.3521V74.5506V74.5629Z" fill="#1C4DA1"/>
<path d="M319.555 72.5302V73.9901C319.189 74.1872 318.658 74.3596 317.95 74.5075C317.241 74.6553 316.527 74.7292 315.794 74.7292C314.17 74.7292 313.01 74.3042 312.308 73.4603C311.606 72.6103 311.258 71.212 311.258 69.2656C311.258 67.3191 311.624 66.0194 312.351 65.1632C313.077 64.307 314.243 63.882 315.837 63.882C317.321 63.882 318.383 64.2208 319.03 64.8922C319.671 65.5636 319.995 66.6847 319.995 68.2492C319.995 68.5326 319.989 68.7913 319.977 69.0315C319.964 69.2717 319.934 69.5612 319.891 69.9H313.004C313.016 71.058 313.254 71.8834 313.706 72.3762C314.164 72.869 314.952 73.1154 316.069 73.1154C316.673 73.1154 317.302 73.0599 317.962 72.9429C318.621 72.832 319.152 72.6904 319.555 72.5179V72.5302ZM318.42 68.0152C318.407 67.0789 318.206 66.4198 317.809 66.0317C317.412 65.6437 316.759 65.4466 315.837 65.4466C314.799 65.4466 314.066 65.6683 313.645 66.1118C313.218 66.5553 313.004 67.3376 313.004 68.4525H318.401C318.401 68.4525 318.401 68.3601 318.414 68.2492C318.42 68.1445 318.426 68.0644 318.426 68.009L318.42 68.0152Z" fill="#1C4DA1"/>
<path d="M101.457 49.918C98.0803 49.918 95.003 49.0865 92.2311 47.4295C89.4592 45.7726 87.2611 43.5428 85.6432 40.7463C84.0191 37.9498 83.207 34.8268 83.207 31.3712C83.207 27.9157 84.0313 24.7927 85.6737 21.9962C87.3222 19.1997 89.5507 16.9822 92.3654 15.3499C95.1801 13.7114 98.3245 12.8922 101.792 12.8922C103.459 12.8922 105.059 13.0955 106.591 13.5082C108.124 13.9209 109.565 14.506 110.92 15.2822V1.70623L121.874 0V49.4437H111.061V46.7828C108.222 48.877 105.022 49.918 101.463 49.918H101.457ZM103.349 40.506C104.882 40.506 106.28 40.2658 107.538 39.7915C108.802 39.3111 109.925 38.5965 110.914 37.6418V25.0268C109.968 24.1151 108.844 23.4253 107.538 22.9448C106.231 22.4643 104.833 22.2303 103.349 22.2303C101.591 22.2303 100.004 22.6307 98.5809 23.4253C97.1583 24.2199 96.0349 25.3101 95.1984 26.696C94.362 28.082 93.9468 29.6404 93.9468 31.3651C93.9468 33.0898 94.362 34.6482 95.1984 36.0341C96.0288 37.42 97.1583 38.5103 98.5809 39.3049C99.9974 40.0995 101.591 40.4999 103.349 40.4999V40.506Z" fill="#F95C22"/>
<path d="M173.887 49.4437L163.617 1.70623H170.785L178.155 38.19L188.9 1.70623H195.659L206.338 38.1222L213.775 1.70623H220.735L210.392 49.4437H203.09L192.143 11.9375L181.262 49.4437H173.893H173.887Z" fill="#F95C22"/>
<path d="M296.689 49.4437V1.70623L303.448 0.412697V29.9422L320.147 14.7339H328.054L310.274 30.9647L329 49.4437H320.08L303.454 33.0775V49.4437H296.696H296.689Z" fill="#F95C22"/>
<path d="M37.8364 40.9187C36.7801 39.1817 36.0535 37.3153 35.6506 35.3258C34.576 36.3236 33.4342 37.1613 32.207 37.7835C30.2471 38.7813 28.1163 39.2864 25.8206 39.2864C23.8362 39.2864 22.0046 38.9476 20.3133 38.2639C18.6221 37.5802 17.1567 36.6193 15.9173 35.3689C14.6779 34.1185 13.7071 32.6648 13.011 31.0017C12.315 29.3447 11.9609 27.5338 11.9609 25.5811C11.9609 23.6285 12.2967 21.7375 12.9744 20.0559C13.6521 18.3743 14.5985 16.9206 15.8135 15.6887C17.0285 14.4629 18.4572 13.4959 20.1057 12.7875C21.7542 12.0853 23.5188 11.728 25.4115 11.728C27.7988 11.728 30.0212 12.2516 32.0727 13.2987C34.1242 14.3459 35.9803 15.9351 37.6471 18.0725L45.4867 10.299C44.0458 8.38948 42.2507 6.74485 40.1138 5.35276C37.9707 3.96683 35.6384 2.88889 33.1168 2.11277C30.589 1.34281 28.0247 0.95475 25.4115 0.95475C21.8519 0.95475 18.5305 1.58304 15.4411 2.82729C12.3516 4.07771 9.65295 5.81474 7.33282 8.04454C5.01269 10.2743 3.21154 12.8737 1.92326 15.855C0.641088 18.8363 0 22.0701 0 25.575C0 29.0798 0.641088 32.2459 1.92326 35.2272C3.20544 38.2085 5.00048 40.8079 7.29619 43.0377C9.59189 45.2675 12.2845 47.0045 15.3739 48.2549C18.4572 49.5053 21.8031 50.1275 25.4115 50.1275C27.9331 50.1275 30.4364 49.7517 32.9153 49.0002C35.3941 48.2488 37.6898 47.1831 39.8085 45.7972C40.2481 45.5077 40.6633 45.2059 41.0723 44.8979C39.8268 43.7337 38.74 42.4155 37.8303 40.9187H37.8364Z" fill="#F95C22"/>
<path d="M151.07 40.1981C149.855 40.6785 148.5 40.9126 147.016 40.9126C145.667 40.9126 144.403 40.6724 143.231 40.1981C142.058 39.7176 141.057 39.0524 140.221 38.1838C139.384 37.3215 138.725 36.3175 138.224 35.1841H163.709V32.4553C163.709 28.6363 162.933 25.2485 161.376 22.2919C159.82 19.3352 157.695 17.0069 154.99 15.3006C152.285 13.5944 149.177 12.7444 145.661 12.7444C142.144 12.7444 139.036 13.5759 136.197 15.2329C133.358 16.896 131.117 19.132 129.469 21.9469C127.82 24.7681 127.002 27.928 127.002 31.4267C127.002 34.9254 127.857 38.0853 129.572 40.9064C131.282 43.7276 133.614 45.9635 136.569 47.6266C139.518 49.2897 142.822 50.1151 146.473 50.1151C149.293 50.1151 151.833 49.7148 154.111 48.9325V38.2393C153.268 39.0708 152.255 39.7238 151.07 40.1919V40.1981ZM139.61 24.38C140.306 23.5423 141.155 22.8894 142.144 22.4335C143.133 21.9777 144.238 21.7498 145.453 21.7498C146.668 21.7498 147.706 21.9901 148.695 22.4643C149.684 22.9448 150.551 23.6039 151.296 24.4416C152.041 25.2855 152.591 26.2957 152.951 27.4783H138.01C138.371 26.2526 138.902 25.2177 139.598 24.3738L139.61 24.38Z" fill="#F95C22"/>
<path d="M243.998 43.438C242.466 43.9863 240.842 44.2573 239.132 44.2573C237.197 44.2573 235.389 43.8138 233.722 42.9268C232.056 42.0398 230.688 40.8571 229.632 39.3788C228.575 37.9005 227.885 36.1881 227.568 34.2293H254.744V32.3876C254.744 28.932 254.011 25.8275 252.546 23.0803C251.081 20.3331 249.096 18.1464 246.599 16.5326C244.096 14.9187 241.269 14.1118 238.118 14.1118C234.968 14.1118 231.946 14.9187 229.333 16.5326C226.719 18.1464 224.637 20.2961 223.08 22.9756C221.523 25.6612 220.748 28.6795 220.748 32.0426C220.748 35.4058 221.56 38.4672 223.184 41.2144C224.808 43.9678 226.982 46.1237 229.705 47.6944C232.428 49.2651 235.487 50.0474 238.863 50.0474C241.434 50.0474 243.797 49.6716 245.964 48.9202C246.056 48.8894 246.141 48.8462 246.233 48.8154V42.4032C245.561 42.7974 244.822 43.1424 244.004 43.4319L243.998 43.438ZM229.565 24.343C230.535 22.9818 231.738 21.8977 233.179 21.1031C234.62 20.3085 236.195 19.9081 237.911 19.9081C239.627 19.9081 241.177 20.3085 242.576 21.1031C243.974 21.8977 245.152 22.9879 246.123 24.3738C247.094 25.7598 247.735 27.3428 248.046 29.1106H227.635C227.953 27.2935 228.594 25.7043 229.558 24.3369L229.565 24.343Z" fill="#F95C22"/>
<path d="M281.725 43.438C280.192 43.9863 278.568 44.2573 276.859 44.2573C274.923 44.2573 273.116 43.8138 271.449 42.9268C269.782 42.0398 268.415 40.8571 267.358 39.3788C266.302 37.9005 265.612 36.1881 265.295 34.2293H292.471V32.3876C292.471 28.932 291.738 25.8275 290.273 23.0803C288.807 20.3331 286.823 18.1464 284.326 16.5326C281.822 14.9187 278.996 14.1118 275.845 14.1118C272.695 14.1118 269.672 14.9187 267.059 16.5326C264.446 18.1464 262.364 20.2961 260.807 22.9756C259.25 25.6612 258.475 28.6795 258.475 32.0426C258.475 35.4058 259.287 38.4672 260.911 41.2144C262.535 43.9678 264.708 46.1237 267.432 47.6944C270.155 49.2651 273.214 50.0474 276.59 50.0474C279.16 50.0474 281.523 49.6716 283.691 48.9202C283.782 48.8894 283.868 48.8462 283.959 48.8154V42.4032C283.288 42.7974 282.549 43.1424 281.731 43.4319L281.725 43.438ZM267.297 24.343C268.268 22.9818 269.471 21.8977 270.912 21.1031C272.353 20.3085 273.928 19.9081 275.644 19.9081C277.359 19.9081 278.91 20.3085 280.308 21.1031C281.706 21.8977 282.885 22.9879 283.856 24.3738C284.826 25.7598 285.467 27.3428 285.779 29.1106H265.368C265.685 27.2935 266.326 25.7043 267.291 24.3369L267.297 24.343Z" fill="#F95C22"/>
<path d="M68.4008 57.4944C68.993 57.3096 69.2739 56.8723 69.2067 56.6567L66.9599 50.1891L73.5906 50.4416L60.0117 30.4534V54.661L65.1099 50.7311L67.2591 57.2357C67.3323 57.4698 67.8147 57.6731 68.4008 57.4944Z" fill="#F95C22"/>
<path d="M77.119 21.9223C75.4033 19.0827 73.0832 16.8282 70.1586 15.1713C67.228 13.5143 63.937 12.6828 60.292 12.6828C56.647 12.6828 53.3499 13.5143 50.4254 15.1713C47.4947 16.8282 45.1746 19.0827 43.465 21.9223C41.7493 24.7619 40.8945 27.9341 40.8945 31.4328C40.8945 34.9315 41.7493 38.0914 43.465 40.9126C45.1746 43.7337 47.4947 45.9697 50.4254 47.6328C52.715 48.9325 55.2488 49.684 57.9841 49.9611V40.235C57.2453 40.0317 56.531 39.7546 55.8654 39.348C54.5344 38.5288 53.4904 37.4262 52.7211 36.0403C51.9579 34.6543 51.5732 33.1206 51.5732 31.439C51.5732 29.7574 51.9579 28.1559 52.7211 26.77C53.4843 25.384 54.5344 24.2815 55.8654 23.4622C57.1965 22.643 58.674 22.2364 60.292 22.2364C61.91 22.2364 63.3875 22.643 64.7186 23.4622C66.0496 24.2815 67.0936 25.384 67.8629 26.77C68.6261 28.1559 69.0108 29.7143 69.0108 31.439C69.0108 33.1637 68.6261 34.6543 67.8629 36.0403C67.637 36.4468 67.3684 36.7979 67.0936 37.149L72.9123 45.711C74.573 44.3558 75.9956 42.7728 77.1251 40.9126C78.8347 38.0914 79.6956 34.9377 79.6956 31.4328C79.6956 27.928 78.8408 24.7619 77.1251 21.9223H77.119Z" fill="#F95C22"/>
</svg>
