<svg xmlns="http://www.w3.org/2000/svg" width="355.305" height="405.857" viewBox="0 0 355.305 405.857"><defs><style>.a{fill:#bfadad;opacity:0.862;}.b{fill:#9b6d5c;}.c,.h{fill:#373737;}.d{fill:#fff;}.e{fill:#2b72b6;}.f{fill:#236296;}.g{fill:#80b3dd;}.h{opacity:0.1;}.i{fill:#966759;}.j{fill:#494949;opacity:0.6;}.k{fill:#616363;}.l{fill:#dfdfdf;}.m{fill:#9a9ea0;}.n{fill:#303030;}.o{fill:#202842;}.p{fill:#555656;}.q{fill:#46469b;}.r{fill:#5454b5;}.s{fill:#f4f4f4;}.t{fill:#ddd400;}.u{fill:#ccbd05;}.v{fill:#f74fbf;}.w{fill:#e247b7;}.x{fill:#ff584d;}.y{fill:#c2c7d3;}.z{fill:#afb4bf;}.aa{fill:#141313;}</style></defs><g transform="translate(-190.855 -169.294)"><path class="a" d="M571.054,1027.109c0,10.342-49.108,18.725-109.687,18.725s-109.688-8.383-109.688-18.725,49.109-18.724,109.688-18.724S571.054,1016.768,571.054,1027.109Z" transform="translate(-89.785 -470.682)"/><g transform="translate(261.579 250.863)"><path class="b" d="M417.6,720.333c0,16.885-3.791,27.592-6.051,32.472-4.931,10.647-12.275,15.823-22.453,15.823a21.98,21.98,0,0,1-14.625-5.858c-.22-.2-.454-.383-.689-.569l-2.9-2.533a5.2,5.2,0,0,0,.532-.526,5.06,5.06,0,0,0-.485-7.131,5.162,5.162,0,0,0-.411-.324,1.243,1.243,0,1,0-1.436,2.03,2.209,2.209,0,0,1,.212.166,2.569,2.569,0,1,1-3.623.247,2.538,2.538,0,0,1,1.465-.837,1.243,1.243,0,0,0-.453-2.445,5.05,5.05,0,0,0-4.108,5.419l-7.253-6.328a1.315,1.315,0,0,0-1.73,1.982l7.752,6.764-.457.659-7.116-6.208a1.315,1.315,0,1,0-1.73,1.981l7.337,6.4-.458.658-5.764-5.029a1.315,1.315,0,0,0-1.73,1.982l5.986,5.223,4.279,3.733,3.275,2.724.006,0A34.443,34.443,0,0,0,389.092,781c15.065,0,26.71-7.951,33.677-22.994,6.261-13.519,7.2-29.4,7.2-37.669Z" transform="translate(-350.966 -560.731)"/><path class="b" d="M684.508,720.333c0,16.885,3.791,27.592,6.051,32.472,4.93,10.647,12.275,15.823,22.453,15.823a21.982,21.982,0,0,0,14.625-5.858c.22-.2.454-.383.69-.569l2.9-2.533a5.2,5.2,0,0,1-.532-.526,5.06,5.06,0,0,1,.485-7.131,5.15,5.15,0,0,1,.411-.324,1.243,1.243,0,1,1,1.436,2.03,2.267,2.267,0,0,0-.212.166,2.569,2.569,0,1,0,3.624.247,2.54,2.54,0,0,0-1.466-.837,1.243,1.243,0,0,1,.453-2.445,5.052,5.052,0,0,1,4.108,5.419l7.253-6.328a1.315,1.315,0,0,1,1.73,1.982l-7.752,6.764.457.659,7.116-6.208a1.315,1.315,0,1,1,1.729,1.981l-7.336,6.4.458.658,5.764-5.029a1.315,1.315,0,0,1,1.73,1.982l-5.986,5.223-4.279,3.733-3.275,2.724-.007,0A34.442,34.442,0,0,1,713.012,781c-15.065,0-26.71-7.951-33.677-22.994-6.261-13.519-7.2-29.4-7.2-37.669Z" transform="translate(-530.272 -560.731)"/><path class="c" d="M577.551,421.155a62.331,62.331,0,1,1-62.517-62.144A62.329,62.329,0,0,1,577.551,421.155Z" transform="translate(-407.868 -359.011)"/><g transform="translate(62.114 111.265)"><path class="d" d="M571.278,681.627l16.484-6.653c-1.47-18.136-19.473-39.519-48.094-39.519s-46.612,21.384-48.082,39.519l16.527,6.653V766h63.166Z" transform="translate(-491.585 -624.609)"/><path class="b" d="M597.27,622.982a41.873,41.873,0,0,0-4.531-.788L591.7,611.322l-11.548-.42-.44,11.165a35.188,35.188,0,0,0-5.541.9,13.071,13.071,0,0,0,.022,1.666c.283,7.1,5.677,12.6,12.048,12.284s11.3-6.329,11.022-13.429C597.254,623.37,597.278,623.1,597.27,622.982Z" transform="translate(-537.677 -610.902)"/></g><g transform="translate(37.481 222.839)"><path class="e" d="M441.532,866.517c-9.957,5.585-7.686,22.086,13.094,28.7,27.526,8.764,51.715,18.7,57.983,19.6s12.318-8.568,20.825-8.568,52.806-7.744,50.048-30.566c-2.133-17.651-37.545-7.064-37.545-7.064l-36.153,9.02-25.575-7.467S456.706,858.006,441.532,866.517Z" transform="translate(-435.82 -863.494)"/><path class="f" d="M575.746,889.205s29.19-14.625,31.351-14.127c0,0-26.4,7.413-61.728,1.553Z" transform="translate(-496.979 -869.954)"/><g transform="translate(16.534 31.725)"><g transform="translate(22.229 0)"><g transform="translate(37.273 1.28)"><g transform="translate(7.365 4.22)"><g transform="translate(0 0)"><rect class="b" width="14.67" height="17.017" transform="translate(0 13.724) rotate(-69.31)"/></g></g><rect class="g" width="21.711" height="8.215" transform="translate(0 20.311) rotate(-69.311)"/></g><g transform="translate(0)"><g transform="translate(0 5.5)"><g transform="translate(0 0)"><rect class="b" width="17.017" height="14.67" transform="translate(0 6.012) rotate(-20.69)"/></g></g><rect class="g" width="8.216" height="21.711" transform="matrix(0.935, -0.353, 0.353, 0.935, 13.11, 2.903)"/></g></g><g transform="translate(0 10.499)"><rect class="d" width="6.623" height="26.103" transform="translate(0 5.763) rotate(-24.687)"/><g transform="translate(6.019)"><path class="c" d="M511.534,972.57l-.641-.807c3.52-1.618,5.163-5.212,3.6-8.6-1.542-3.357-5.379-4.464-8.9-2.855l-.281-1.22-18.434,3,10.9,23.719Z" transform="translate(-486.878 -959.085)"/></g></g><g transform="translate(75.523 10.499)"><rect class="d" width="26.103" height="6.623" transform="translate(17.307 26.714) rotate(-65.313)"/><path class="c" d="M647.779,972.57l.641-.807c-3.52-1.618-5.163-5.212-3.6-8.6,1.542-3.357,5.379-4.464,8.9-2.855l.28-1.22,18.435,3-10.9,23.719Z" transform="translate(-644.227 -959.085)"/></g></g></g><path class="h" d="M587.236,619.161s5.171,1.888,12.283-.553l-.387-4.275H587.4Z" transform="translate(-482.871 -501.553)"/><g transform="translate(69.201 35.006)"><g transform="translate(0 1.603)"><path class="i" d="M525.512,533.989a8.942,8.942,0,1,1-9.087-8.814A8.95,8.95,0,0,1,525.512,533.989Z" transform="translate(-507.63 -488.385)"/><path class="i" d="M673.124,533.989a8.942,8.942,0,1,1-9.087-8.814A8.951,8.951,0,0,1,673.124,533.989Z" transform="translate(-590.039 -488.385)"/><path class="b" d="M592.837,487.093a33.324,33.324,0,0,1-32.771,33.869h0A33.323,33.323,0,0,1,526.2,488.19l-.2-12.427a33.325,33.325,0,0,1,32.771-33.869h0a33.324,33.324,0,0,1,33.869,32.773Z" transform="translate(-517.879 -441.89)"/></g><g transform="translate(7.702)"><path class="c" d="M586.435,438.94l1.546,15.4a40.018,40.018,0,0,1,4.432-.331l-.781-15.747A31.9,31.9,0,0,0,586.435,438.94Z" transform="translate(-559.327 -438.261)"/><path class="c" d="M619.861,441.58l-2.992,14.828a39.019,39.019,0,0,1,4.138.932l3.548-13.968A36.771,36.771,0,0,0,619.861,441.58Z" transform="translate(-576.318 -440.114)"/><path class="c" d="M603.932,438.275l-.782,15.738a40.023,40.023,0,0,1,4.725.347l1.54-15.352A33.368,33.368,0,0,0,603.932,438.275Z" transform="translate(-568.659 -438.269)"/><path class="c" d="M569.675,443.2l3.554,13.99a38.9,38.9,0,0,1,4.115-.909l-3-14.88A34.92,34.92,0,0,0,569.675,443.2Z" transform="translate(-549.971 -440.016)"/><path class="c" d="M539.952,463.764l6.546,8.03a36.7,36.7,0,0,1,3.561-2.01L543.9,459.469A35.126,35.126,0,0,0,539.952,463.764Z" transform="translate(-533.377 -450.101)"/><path class="c" d="M526.232,494.019l4.116,2.13a33.442,33.442,0,0,1,3.024-3.335l-5.965-3.4A27.916,27.916,0,0,0,526.232,494.019Z" transform="translate(-525.717 -466.817)"/><path class="c" d="M634.2,448.657l-4.739,13.071a38.03,38.03,0,0,1,3.939,1.537l5.425-11.545A37.248,37.248,0,0,0,634.2,448.657Z" transform="translate(-583.347 -444.065)"/><path class="c" d="M553.559,451.569l5.391,11.474a37.891,37.891,0,0,1,3.907-1.487l-4.739-13.07A36.467,36.467,0,0,0,553.559,451.569Z" transform="translate(-540.973 -443.969)"/><path class="c" d="M530.672,478.648l6.252,4.441a35.165,35.165,0,0,1,3.187-2.508l-6.787-6.819A31.381,31.381,0,0,0,530.672,478.648Z" transform="translate(-528.196 -458.081)"/><path class="c" d="M525.226,510.34l.1,1.33a35.767,35.767,0,0,1,3.508-6.175l-3.494-1.389A24.8,24.8,0,0,0,525.226,510.34Z" transform="translate(-525.066 -475.021)"/><path class="c" d="M673.855,505.489l-3.158,1.255a31.172,31.172,0,0,1,2.8,4.9S673.877,507.028,673.855,505.489Z" transform="translate(-606.369 -475.793)"/><path class="c" d="M659.227,474.146l-6.878,6.911a35.076,35.076,0,0,1,3.2,2.6l6.293-4.469A28.384,28.384,0,0,0,659.227,474.146Z" transform="translate(-596.126 -458.295)"/><path class="c" d="M667.979,490.328l-5.944,3.391a33.367,33.367,0,0,1,2.971,3.382l3.908-2.022A24.721,24.721,0,0,0,667.979,490.328Z" transform="translate(-601.533 -467.329)"/><path class="c" d="M647.615,459.622,641.4,470.028A36.692,36.692,0,0,1,645,472.1l6.639-8.143A33.772,33.772,0,0,0,647.615,459.622Z" transform="translate(-590.013 -450.186)"/></g></g><g transform="translate(91.166 81.638)"><path d="M557.355,543.831a5.555,5.555,0,0,0,6.016,5.047,5.435,5.435,0,0,0,4.642-4.513C563.054,547.328,557.355,543.831,557.355,543.831Z" transform="translate(-557.355 -543.831)"/><path d="M628.672,543.831a5.555,5.555,0,0,0,6.016,5.047,5.434,5.434,0,0,0,4.642-4.513C634.371,547.328,628.672,543.831,628.672,543.831Z" transform="translate(-597.17 -543.831)"/><path class="d" d="M574.146,575.256l27.665-.589s-4.613,9.423-14.625,9.423A13.838,13.838,0,0,1,574.146,575.256Z" transform="translate(-566.729 -561.046)"/></g></g><g transform="translate(190.855 165.294)"><g transform="translate(27.487 49.272)"><path class="d" d="M316.882,332.806a2.454,2.454,0,0,1-1.619,3.024l-35.416,15.079a2.453,2.453,0,0,1-3.3-.928L253.223,295.2a2.454,2.454,0,0,1,1.619-3.024L290.257,277.1a2.454,2.454,0,0,1,3.3.928Z" transform="translate(-253.083 -276.841)"/><rect class="c" width="42.067" height="50.349" transform="matrix(0.92, -0.392, 0.392, 0.92, 2.539, 21.735)"/><path class="j" d="M342.189,335.062l-38.7,16.48,18.98-62.8Z" transform="translate(-281.221 -283.482)"/><path class="k" d="M299,297.38a.471.471,0,0,1-.263.611l-6.12,2.606a.47.47,0,0,1-.622-.234h0a.469.469,0,0,1,.262-.61l6.121-2.607a.47.47,0,0,1,.622.234Z" transform="translate(-274.785 -288.154)"/></g><g transform="translate(37.703 225.035)"><g transform="translate(0 0)"><g transform="translate(22.396 6.583)"><path class="l" d="M327.3,689.652a.288.288,0,0,1,.093.016.308.308,0,0,1,.16.432.4.4,0,0,1-.354.249.258.258,0,0,1-.091-.015.313.313,0,0,1-.161-.435A.4.4,0,0,1,327.3,689.652Z" transform="translate(-326.913 -689.652)"/></g><g transform="translate(22.296 6.48)"><path class="m" d="M327.306,689.437a.4.4,0,0,1,.205.562.516.516,0,0,1-.457.323.377.377,0,0,1-.119-.02.4.4,0,0,1-.206-.56.52.52,0,0,1,.459-.324A.387.387,0,0,1,327.306,689.437Zm.117.532a.308.308,0,0,0-.16-.432.289.289,0,0,0-.093-.016.4.4,0,0,0-.352.247.313.313,0,0,0,.161.435.259.259,0,0,0,.091.015.4.4,0,0,0,.354-.249Z" transform="translate(-326.687 -689.418)"/></g><g transform="translate(18.934 5.054)"><path class="n" d="M320.314,686.228a.806.806,0,0,1,.411,1.127,1.036,1.036,0,0,1-.918.644.737.737,0,0,1-.237-.037.808.808,0,0,1-.41-1.129,1.027,1.027,0,0,1,.915-.644A.77.77,0,0,1,320.314,686.228Zm-.075.966a.3.3,0,0,0-.155-.428.344.344,0,0,0-.091-.015.391.391,0,0,0-.348.246.3.3,0,0,0,.155.424.291.291,0,0,0,.092.016.39.39,0,0,0,.346-.243Z" transform="translate(-319.076 -686.19)"/></g><g transform="translate(19.472 5.615)"><path class="o" d="M320.672,687.461a.342.342,0,0,1,.091.015.3.3,0,0,1,.155.428.39.39,0,0,1-.346.243.291.291,0,0,1-.092-.016.3.3,0,0,1-.155-.424A.39.39,0,0,1,320.672,687.461Z" transform="translate(-320.294 -687.461)"/></g><g transform="translate(18.483 4.581)"><path class="p" d="M319.934,685.18a1.225,1.225,0,0,1,.629,1.712,1.583,1.583,0,0,1-1.4.982,1.146,1.146,0,0,1-.356-.058,1.224,1.224,0,0,1-.629-1.713,1.581,1.581,0,0,1,1.4-.981A1.155,1.155,0,0,1,319.934,685.18Zm.22,1.579a.806.806,0,0,0-.411-1.127.77.77,0,0,0-.238-.038,1.027,1.027,0,0,0-.915.644.808.808,0,0,0,.41,1.129.739.739,0,0,0,.237.037,1.036,1.036,0,0,0,.918-.645Z" transform="translate(-318.054 -685.121)"/></g><g transform="translate(17.258 3.7)"><path class="l" d="M321.535,684.373a1.8,1.8,0,0,1,.92,2.517,2.31,2.31,0,0,1-2.046,1.436,1.628,1.628,0,0,1-.527-.085l-3.5-1.159a1.8,1.8,0,0,1-.921-2.516,2.307,2.307,0,0,1,2.047-1.44,1.715,1.715,0,0,1,.53.087Zm-2.521,1.4a1.225,1.225,0,0,0-.629-1.712,1.153,1.153,0,0,0-.358-.059,1.581,1.581,0,0,0-1.4.981,1.224,1.224,0,0,0,.629,1.713,1.148,1.148,0,0,0,.356.058,1.583,1.583,0,0,0,1.4-.982Zm2.129.709a.4.4,0,0,0-.205-.562.387.387,0,0,0-.117-.019.52.52,0,0,0-.459.324.4.4,0,0,0,.206.56.376.376,0,0,0,.119.02.516.516,0,0,0,.457-.323Zm-1.354-.448a.139.139,0,0,0-.069-.2.148.148,0,0,0-.043-.007.181.181,0,0,0-.159.114.138.138,0,0,0,.07.195.133.133,0,0,0,.045.008.177.177,0,0,0,.157-.112Z" transform="translate(-315.281 -683.126)"/></g><path class="q" d="M310.36,680.357c-.014-.011-.077-.05-.093-.06a1.205,1.205,0,0,0-.145-.079c-.014-.007-.026-.016-.039-.021-.034-.014-.069-.027-.105-.039l-16.245-5.337a1.414,1.414,0,0,0-.441-.072,1.72,1.72,0,0,0-.492.074,2.005,2.005,0,0,0-.3.121,1.921,1.921,0,0,0-.238.138,2.124,2.124,0,0,0-.212.159,2.4,2.4,0,0,0-.2.188,2.293,2.293,0,0,0-.192.229,2.585,2.585,0,0,0-.2.306,2.381,2.381,0,0,0-.107.224L276.4,711.425a1.836,1.836,0,0,0,.4,2.207l1.592,1.2a1.837,1.837,0,0,1-.393-2.206l14.951-35.238a2.278,2.278,0,0,1,.108-.222,2.389,2.389,0,0,1,.2-.307,2.6,2.6,0,0,1,.191-.23c.063-.065.129-.128.2-.187a2.52,2.52,0,0,1,.213-.161,1.943,1.943,0,0,1,.239-.136,1.826,1.826,0,0,1,.3-.12,1.638,1.638,0,0,1,.492-.075,1.412,1.412,0,0,1,.44.072l16.246,5.338a1.325,1.325,0,0,1,.142.059,1.2,1.2,0,0,1,.152.083c.029.018.06.035.089.055Z" transform="translate(-276.211 -674.749)"/><path class="r" d="M313.587,682.867a1.706,1.706,0,0,1,.78,2.4l-14.953,35.237a2.236,2.236,0,0,1-1.936,1.437,1.377,1.377,0,0,1-.439-.071l-16.252-5.337a1.706,1.706,0,0,1-.775-2.4l14.951-35.239a2.242,2.242,0,0,1,1.938-1.437,1.41,1.41,0,0,1,.44.072Zm-10.929.858a1.8,1.8,0,0,0-.92-2.517l-3.493-1.16a1.712,1.712,0,0,0-.53-.087,2.307,2.307,0,0,0-2.046,1.44,1.8,1.8,0,0,0,.921,2.516l3.5,1.159a1.63,1.63,0,0,0,.527.085,2.31,2.31,0,0,0,2.046-1.436Z" transform="translate(-278.226 -676.261)"/></g></g><g transform="translate(0 143.482)"><rect class="s" width="58.506" height="39.004" transform="translate(0 36.15) rotate(-26.104)"/><path class="d" d="M225.705,544.066l17.688-30.384-52.538,25.743Z" transform="translate(-190.855 -503.275)"/></g><g transform="translate(199.235 27.075)"><path class="t" d="M631.318,199.162,618,220.884l-13.772-8.448-3.074-12.825,8.447-13.773Z" transform="translate(-601.149 -185.839)"/><path class="u" d="M604.223,229.843l-3.074-12.825,7.949,4.876Z" transform="translate(-601.149 -203.246)"/></g><g transform="translate(111.293 22.823)"><path class="v" d="M472.977,230.287l-13.323,21.722-13.772-8.448-3.074-12.825,8.447-13.773Z" transform="translate(-442.809 -216.964)"/><path class="w" d="M445.883,260.968l-3.074-12.825,7.949,4.876Z" transform="translate(-442.809 -234.371)"/></g><g transform="translate(162.163 4)"><path class="v" d="M536.073,178.618,522.75,200.34l-13.772-8.448L505.9,179.067l8.447-13.773Z" transform="translate(-505.905 -165.294)"/><path class="w" d="M508.979,209.3,505.9,196.474l7.949,4.876Z" transform="translate(-505.905 -182.701)"/></g><g transform="translate(283.183 161.085)"><path class="s" d="M861.934,425.665l-1.208,13.3,32.393,38.867,36.017-30.018L890.7,401.694Z" transform="translate(-857.015 -401.357)"/><path class="d" d="M853.534,424.9l-1.209,13.3,32.393,38.867,36.017-30.018L882.3,400.93Z" transform="translate(-852.325 -400.93)"/><path class="s" d="M859.58,462.454l-7.255,6.047,1.209-13.3Z" transform="translate(-852.325 -431.227)"/><g transform="translate(24.1 22.63)"><rect class="x" width="5.734" height="9.107" transform="matrix(0.768, -0.64, 0.64, 0.768, 0, 28.808)"/><rect class="y" width="5.735" height="14.504" transform="matrix(0.768, -0.64, 0.64, 0.768, 0.95, 20.99)"/><rect class="r" width="5.397" height="17.877" transform="matrix(0.768, -0.64, 0.64, 0.768, 3.195, 14.728)"/><rect class="x" width="5.735" height="9.107" transform="translate(12.956 18.009) rotate(-39.807)"/><rect class="r" width="5.397" height="23.274" transform="matrix(0.768, -0.64, 0.64, 0.768, 8.291, 3.455)"/></g></g><g transform="translate(236.532 39.434)"><path class="z" d="M899.749,285.705l1.612.96-.363,1.28Z" transform="translate(-801.149 -245.952)"/><g transform="translate(38.759 37.723)"><path class="y" d="M824.684,286.064l4.8,39.077-65.2-44.031Z" transform="translate(-764.275 -281.109)"/><g transform="translate(47.454 14.119)"><path class="aa" d="M881.357,313.074l1,5.841-3.8-2.591Z" transform="translate(-875.532 -313.074)"/><path class="aa" d="M871.706,327.733l.781-.9.279,1.657Z" transform="translate(-871.706 -320.753)"/><path class="aa" d="M875.157,323.362l1.034-1.2,4.493,3.091.928,5.393-5.874-4.043Z" transform="translate(-873.633 -318.147)"/></g><path class="z" d="M901.22,287.879l-1.722,1.556,5.474,39.485.646-.952Z" transform="translate(-839.768 -284.889)"/></g><path class="y" d="M677.2,235.936a1.472,1.472,0,0,1-.249-2.271l32.172-37.233a2.066,2.066,0,0,1,2.594-.443l63.549,39.557a1.5,1.5,0,0,1,.228,2.326L741.1,277.681a2.125,2.125,0,0,1-2.653.481Z" transform="translate(-676.53 -195.708)"/><path class="d" d="M768.381,281.321l1.543-5.739-4.316-3.84,6.469-1.094,3.275-5.3,2.455,5.06,6.336.566L779.19,275.2l.646,5.649L774.32,278.4Z" transform="translate(-726.26 -234.588)"/><path class="z" d="M677.233,286.5a1.448,1.448,0,0,0,.578.7l61.247,42.254a2.125,2.125,0,0,0,2.653-.481l34.392-39.81a1.613,1.613,0,0,0,.354-1.616q-.247-.664-.495-1.328a1.611,1.611,0,0,1-.354,1.616l-34.392,39.81a2.125,2.125,0,0,1-2.653.481L677.315,285.9a1.446,1.446,0,0,1-.579-.7Q676.985,285.847,677.233,286.5Z" transform="translate(-676.645 -245.668)"/></g></g></g></svg>