<svg xmlns="http://www.w3.org/2000/svg" width="90.982" height="230.409" viewBox="0 0 90.982 230.409"><defs><style>.a{fill:#ebeb91;opacity:0.4;}.b{fill:#e9e37d;}.c{fill:#262637;}.d{fill:#fccfb2;}.e{fill:#fff;}.f{fill:#373737;}.g{fill:#2b72b6;}.h{fill:#80b3dd;}.i{fill:#025b94;}.j{fill:#4267b2;}</style></defs><g transform="translate(-928 -2478.591)"><g transform="translate(928 2478.591)"><g transform="translate(68.83 17.688)"><g transform="translate(0.233 13.752)"><path class="a" d="M772.449,305.581H756.965s-3.155-12.9-3.155-15.432a10.96,10.96,0,0,1,21.919,0C775.729,292.386,772.449,305.581,772.449,305.581Z" transform="translate(-753.81 -279.19)"/><path class="b" d="M778.887,310.45a7.342,7.342,0,0,1-1.159,3.933,3.469,3.469,0,0,0,1.471,1.251c.343-2.393.975-4.333,2.007-5.156a1.98,1.98,0,0,1,2.113-.264c.847.358,1.164,1.344.847,2.637-.389,1.586-1.849,3.78-3.886,4.08a43.583,43.583,0,0,0,.414,11.838l-1.2.213a49.837,49.837,0,0,1-.44-12.115A4.161,4.161,0,0,1,777,315.437,4.209,4.209,0,0,1,775.1,316.9a85.845,85.845,0,0,1-.15,12.029l-1.219-.1c0-.037.311-3.814.291-7.871-.008-1.613-.064-2.958-.152-4.081a5.149,5.149,0,0,1-2.411-1.843c-.87-1.107-1.7-2.821-1.173-4.008A1.782,1.782,0,0,1,771.914,310a1.827,1.827,0,0,1,1.452.582c.851.861,1.341,2.774,1.607,5.057a4,4,0,0,0,1.3-1.258,7.27,7.27,0,0,1-1.046-3.659c.052-1.284.731-2.051,1.817-2.051A1.768,1.768,0,0,1,778.887,310.45Zm-1.218.109c-.055-.613-.34-.665-.627-.665-.168,0-.559,0-.6.877a5.629,5.629,0,0,0,.562,2.365A5.4,5.4,0,0,0,777.669,310.559Zm-5.173.883a.6.6,0,0,0-.5-.221c-.482.034-.568.225-.6.3a3.538,3.538,0,0,0,1.017,2.757,5.021,5.021,0,0,0,1.311,1.211C773.4,312.814,772.864,311.814,772.5,311.442Zm10.483,1.117c.152-.62.1-1.121-.135-1.219a.773.773,0,0,0-.875.094c-.642.512-1.175,2.059-1.515,4.2A4.584,4.584,0,0,0,782.979,312.559Z" transform="translate(-766.145 -301.49)"/><path class="c" d="M766.764,387.122l.664,5.619a4.107,4.107,0,0,0,3.985,4.125h.173v.846a1.92,1.92,0,0,0,2.079,1.834h1.819a2.024,2.024,0,0,0,2.192-1.834v-1.028c1.705-.055,3.993-1.7,3.993-3.866l.579-5.7Z" transform="translate(-763.608 -360.831)"/></g><path class="b" d="M.974,0h0a.974.974,0,0,1,.974.974V6.385a.974.974,0,0,1-.974.974h0A.974.974,0,0,1,0,6.384V.974A.974.974,0,0,1,.974,0Z" transform="translate(10.031 0)"/><path class="b" d="M820.013,246.643a.893.893,0,0,1-1.261-.045h0a.892.892,0,0,1,.045-1.261l4.123-3.839a.893.893,0,0,1,1.261.045h0a.892.892,0,0,1-.045,1.261Z" transform="translate(-802.519 -236.746)"/><path class="b" d="M754.354,241.5a.892.892,0,0,0-1.261.045h0a.893.893,0,0,0,.045,1.261l4.124,3.839a.892.892,0,0,0,1.261-.045h0a.893.893,0,0,0-.045-1.261Z" transform="translate(-752.854 -236.746)"/></g><g transform="translate(0 0)"><g transform="translate(0 16.048)"><rect class="d" width="5.846" height="7.551" transform="translate(40.852 197.553)"/><rect class="d" width="5.846" height="7.551" transform="translate(19.903 197.553)"/><g transform="translate(38.416 201.696)"><rect class="e" width="19" height="2.68" transform="translate(0 9.985)"/><path class="f" d="M637.5,1046.8v-2.786a2.672,2.672,0,0,0-2.579,2.677l-4.485,0-2.436,7.3h19v-1.6Z" transform="translate(-628 -1044.01)"/></g><g transform="translate(17.223 201.587)"><rect class="e" width="10.718" height="2.68" transform="translate(0 10.094)"/><path class="f" d="M543.679,1046.349h.5a2.563,2.563,0,1,1,5.107,0h.239l2.192,7.308H541Z" transform="translate(-541 -1043.563)"/></g><g transform="translate(0 56.066)"><path class="g" d="M530,716v11.582a11.3,11.3,0,0,0,3.761,5.649l.187,58.525h8.3l-.127-57.876,12.753.083.047,57.793h7.721V716Z" transform="translate(-515.456 -650.27)"/><rect class="h" width="9.744" height="3.654" transform="translate(38.66 138.077)"/><rect class="h" width="9.744" height="3.654" transform="translate(17.954 138.077)"/><path class="d" d="M706.891,463.921a.913.913,0,0,0-1.772-.365.887.887,0,0,0-1.653-.535c.365-4.728-.332-4.9-.866-4.95-1.471-.148-1.546,5.411-1.59,6.927h0c-.166,4.826-.735,12.057-2.21,17.3-1.422,5.054-4.067,11.078-8.593,11.078-1.676,0-6.775,0-9.672-8.1a32.8,32.8,0,0,1-1.71-9.668l-7.551-.016c0,.544.041,13.414,7.189,20.585a15.991,15.991,0,0,0,11.745,4.749c5.128,0,12.048-2.9,15.9-16.708,2.038-7.315,2.442-18.6,2.442-18.6C708.764,463.325,707.471,463.176,706.891,463.921Z" transform="translate(-622.317 -455.168)"/><path class="d" d="M471.515,590.314l7.273-.706a274.058,274.058,0,0,1-1.13-28.534c.3-11.052,3.962-29.4,4-29.587l-7.165-1.437c-.156.776-3.818,19.144-4.138,30.824A276.036,276.036,0,0,0,471.515,590.314Z" transform="translate(-470.294 -509.615)"/><path class="e" d="M526.917,473.465l9.8-3.934c-.869-10.723-11.489-23.367-28.412-23.367s-27.558,12.644-28.427,23.367l9.775,3.934v49.878h37.27Z" transform="translate(-477.54 -446.164)"/></g><path class="f" d="M537.154,247.47c-1.263-8.17-5.415-29.971-25.389-31.4v-.048s-.161-.01-.275-.014c-.452-.013-.862-.012-1.3-.006s-.861-.007-1.313.006c-.115,0-.278.009-.278.014v.046c-20.218,1.4-24.127,23.222-25.391,31.4-1.164,9.072.063,20.48.063,20.48,34.952,4.385,53.884,0,53.884,0S538.318,256.542,537.154,247.47Z" transform="translate(-479.682 -216.003)"/></g><g transform="translate(3.194 0)"><g transform="translate(2.588 18.161)"><path class="d" d="M582.156,426.983a24.769,24.769,0,0,0-2.68-.466l-.617-6.428-6.828-.248-.26,6.6a20.82,20.82,0,0,0-3.276.532,7.76,7.76,0,0,0,.013.985c.167,4.2,3.357,7.45,7.123,7.263s6.684-3.742,6.517-7.94C582.146,427.212,582.16,427.051,582.156,426.983Z" transform="translate(-550.347 -372.3)"/><path class="d" d="M553.623,255.866a19.831,19.831,0,0,1-19.5,20.155h0a19.832,19.832,0,0,1-20.155-19.5l-.122-7.395a19.832,19.832,0,0,1,19.5-20.155h0a19.831,19.831,0,0,1,20.155,19.5Z" transform="translate(-509.016 -227.921)"/><path class="d" d="M504.673,324.084a5.321,5.321,0,1,1-5.407-5.245A5.327,5.327,0,0,1,504.673,324.084Z" transform="translate(-494.031 -295.901)"/><path class="f" d="M515.432,272.218l-5.033,1.216s-.774-20.467.354-31.61c0,0,2.371-11.287,5.162-13.63,3.605-3.026,18.494-3.516,18.494-3.516S516.706,231.5,515.432,272.218Z" transform="translate(-506.216 -224.678)"/><path class="f" d="M603.395,241.6l22.57,37.076s2-17.466-4.379-26.411C612.018,238.858,603.395,241.6,603.395,241.6Z" transform="translate(-576.755 -237.305)"/></g><path class="i" d="M494.438,188.424c-1.328-6.3,5.039-24.168,5.242-30.821.147-4.817,4.234-6.559,7.183-7.169,3.748-.774,8.7-.255,10.49,3.159,2.214,4.221,7.548,8.092,9.1,9.248,4.731,3.53,11.681,11.192,12.995,17.424Z" transform="translate(-491.613 -150.122)"/><path class="j" d="M535.249,258.371a.791.791,0,0,1-.745.806l-50.154,8.042a.792.792,0,0,1-.946-.557l.368-9.269a.791.791,0,0,1,.745-.807l46.262-7.277a.791.791,0,0,1,.947.557Z" transform="translate(-483.405 -225.139)"/><g transform="translate(16.653 44.47)"><path class="e" d="M582.71,374.629l-17.194-.321s2.919,6.134,8.482,6.134C579.494,380.442,582.466,375.86,582.71,374.629Z" transform="translate(-562.167 -364.168)"/><path d="M627.815,335.645a2.248,2.248,0,1,0,1.531-2.886A2.312,2.312,0,0,0,627.815,335.645Z" transform="translate(-609.221 -332.682)"/><path d="M551.858,335.645a2.248,2.248,0,1,0,1.532-2.886A2.311,2.311,0,0,0,551.858,335.645Z" transform="translate(-551.767 -332.682)"/></g></g></g></g></g></svg>