<svg width="40" height="40" viewBox="0 0 40 40" fill="none" xmlns="http://www.w3.org/2000/svg">
<rect width="40" height="40" rx="20" fill="#E8EDF6"/>
<path fill-rule="evenodd" clip-rule="evenodd" d="M20 10C14.475 10 10 14.475 10 20C9.99826 22.0994 10.658 24.146 11.8855 25.8492C13.1129 27.5524 14.8458 28.8256 16.838 29.488C17.338 29.575 17.525 29.275 17.525 29.012C17.525 28.775 17.512 27.988 17.512 27.15C15 27.613 14.35 26.538 14.15 25.975C14.037 25.687 13.55 24.8 13.125 24.562C12.775 24.375 12.275 23.912 13.112 23.9C13.9 23.887 14.462 24.625 14.65 24.925C15.55 26.437 16.988 26.012 17.562 25.75C17.65 25.1 17.912 24.663 18.2 24.413C15.975 24.163 13.65 23.3 13.65 19.475C13.65 18.387 14.037 17.488 14.675 16.788C14.575 16.538 14.225 15.513 14.775 14.138C14.775 14.138 15.612 13.875 17.525 15.162C18.3392 14.9366 19.1802 14.8233 20.025 14.825C20.875 14.825 21.725 14.937 22.525 15.162C24.437 13.862 25.275 14.138 25.275 14.138C25.825 15.513 25.475 16.538 25.375 16.788C26.012 17.488 26.4 18.375 26.4 19.475C26.4 23.313 24.063 24.163 21.838 24.413C22.2 24.725 22.513 25.325 22.513 26.263C22.513 27.6 22.5 28.675 22.5 29.013C22.5 29.275 22.688 29.587 23.188 29.487C25.1727 28.8163 26.8973 27.5403 28.1192 25.8386C29.3411 24.1369 29.9988 22.095 30 20C30 14.475 25.525 10 20 10Z" fill="black"/>
</svg>
