<svg xmlns="http://www.w3.org/2000/svg" xmlns:xlink="http://www.w3.org/1999/xlink" width="31.84" height="31.839" viewBox="0 0 31.84 31.839"><defs><style>.a{fill:#fe6824;}.b{clip-path:url(#a);}</style><clipPath id="a"><path class="a" d="M0,21.553H31.839V-10.286H0Z" transform="translate(0 10.286)"/></clipPath></defs><g transform="translate(0 10.286)"><g class="b" transform="translate(0 -10.286)"><g transform="translate(-0.001 0.002)"><path class="a" d="M1.446,5.366A15.563,15.563,0,0,0-.69,13.356a15.567,15.567,0,0,0,2.136,7.992A15.859,15.859,0,0,0,7.24,27.143a15.591,15.591,0,0,0,7.989,2.133,15.6,15.6,0,0,0,7.992-2.133,15.874,15.874,0,0,0,5.792-5.795,15.567,15.567,0,0,0,2.136-7.992,15.563,15.563,0,0,0-2.136-7.989A15.874,15.874,0,0,0,23.222-.428,15.6,15.6,0,0,0,15.23-2.561,15.591,15.591,0,0,0,7.24-.428,15.859,15.859,0,0,0,1.446,5.366M21.8,7.988c.3.084.353.2.145.331-.028.028-.1.04-.22.031a.711.711,0,0,0-.238.012,1.145,1.145,0,0,1,.313.111.136.136,0,0,1,.062.2c.22.124.263.263.124.415a.748.748,0,0,1-.641.229c.04,0,.04.028,0,.08l-.353.229c-.028.015-.118.05-.269.105a.7.7,0,0,0-.313.186.423.423,0,0,0-.062.248,1.021,1.021,0,0,1-.022.251c-.012.053-.068.068-.164.04-.043.084-.17.149-.384.2a.688.688,0,0,0-.424.217.241.241,0,0,1-.022.331.267.267,0,0,1-.436-.04.3.3,0,0,0-.155.207.384.384,0,0,1-.155.226c.1.152.084.263-.04.331a.329.329,0,0,1,.093.043c.046.028.1.062.155.1a.284.284,0,0,0,.1.062c-.056.127-.13.189-.226.189.084.22-.022.461-.313.724a.968.968,0,0,1-.257.167c-.118.053-.226.1-.322.133a.583.583,0,0,0-.167.074,1.42,1.42,0,0,0-.31.381.435.435,0,0,0-.031.384c.046.127.176.207.384.251l.019.164v.375l.022.164c.012.1.025.186.031.26a2.257,2.257,0,0,1,0,.291q-.009.176-.093.2a.376.376,0,0,1-.229-.04c-.111-.056-.241-.359-.393-.913a1.409,1.409,0,0,0-.248-.5.647.647,0,0,1-.176.133c-.05.022-.084.025-.105.012s-.059-.046-.115-.1a1.547,1.547,0,0,0-.142-.111,1.086,1.086,0,0,0-.365-.105.685.685,0,0,1-.319-.1c-.334.248-.532.186-.6-.189a.447.447,0,0,0,.012.282,1.582,1.582,0,0,1,.05.2c-.1.18-.248.2-.455.043-.084-.084-.272-.093-.57-.031a1.209,1.209,0,0,1-.591.031c.015,0,.043.019.084.062.04.028.068.05.084.062a.273.273,0,0,1-.062.124.088.088,0,0,1-.084.031.234.234,0,0,0-.093,0,.363.363,0,0,0-.093.031,1.219,1.219,0,0,0-.207.22,1.029,1.029,0,0,1-.189.2,1.371,1.371,0,0,1,.115.508c-.006.118-.028.291-.062.52a3.931,3.931,0,0,0-.053.548,1.878,1.878,0,0,0,.2.768,1.306,1.306,0,0,0,.467.6,1.22,1.22,0,0,0,.5.105,1.2,1.2,0,0,0,.5-.043.481.481,0,0,0,.186-.145.661.661,0,0,0,.105-.238c.028-.1.046-.176.062-.217a.572.572,0,0,1,.539-.415.6.6,0,0,1,.362.053.176.176,0,0,1,.093.2,1,1,0,0,1-.08.26c-.043.09-.1.189-.158.3a1.283,1.283,0,0,0-.115.251,3.66,3.66,0,0,0-.071.464,2.345,2.345,0,0,1-.053.362,1.106,1.106,0,0,0,.313.022.447.447,0,0,1,.031-.133.98.98,0,0,0,.031-.115.4.4,0,0,0,.331.186.313.313,0,0,0,.331-.167c.028.043.111.145.248.313a.865.865,0,0,1,.229.415q.023.084.084.269a.508.508,0,0,1,.04.26c-.012.046-.08.071-.207.071a.094.094,0,0,0-.1.062.261.261,0,0,0,0,.155,1.061,1.061,0,0,0,.053.176,1.088,1.088,0,0,0,.08.176.356.356,0,0,1,.053.115.7.7,0,0,0,1.015.375c0,.4-.1.619-.288.662-.111.028-.235-.043-.375-.207s-.186-.3-.145-.415a.3.3,0,0,1-.145.186,1.878,1.878,0,0,0-.371-.31,1.909,1.909,0,0,1-.375-.313c-.028-.04-.065-.1-.115-.176s-.108-.176-.186-.3a2.03,2.03,0,0,1-.167-.322c-.034-.09-.037-.139-.009-.155a1.421,1.421,0,0,1-1.139-.226,2.116,2.116,0,0,1-.436-.436.669.669,0,0,0-.6-.31c-.068.012-.161.037-.279.071a1.135,1.135,0,0,1-.3.053A.963.963,0,0,1,12.617,19a2.746,2.746,0,0,1-.446-.238,3.025,3.025,0,0,0-.381-.217,3.068,3.068,0,0,0-.272-.145c-.136-.071-.248-.124-.331-.167a1.024,1.024,0,0,1-.257-.2.668.668,0,0,1-.176-.282,4.194,4.194,0,0,1-.105-.5,1.564,1.564,0,0,0-.164-.539,1.984,1.984,0,0,0-.353-.415.664.664,0,0,0-.415-.207q.167,0,0-.279a2.206,2.206,0,0,0-.291-.405c-.028-.025-.111-.115-.248-.269s-.257-.282-.353-.393a1.668,1.668,0,0,1-.248-.384A.437.437,0,0,1,8.534,14c.015-.012,0-.034-.04-.062a1.164,1.164,0,0,0-.155-.084c-.065-.028-.124-.053-.176-.071a.383.383,0,0,0-.127-.031,1.717,1.717,0,0,1,.1.3,1.26,1.26,0,0,0,.111.322c.028.053.145.254.353.6a2.44,2.44,0,0,1,.5,1.285c-.084.028-.139.012-.167-.04a.83.83,0,0,1-.062-.229,1.351,1.351,0,0,0-.04-.207.759.759,0,0,0-.322-.269.717.717,0,0,1-.322-.291.091.091,0,0,0,.053-.022.108.108,0,0,1,.053-.019.72.72,0,0,0-.217-.477c-.161-.2-.226-.331-.2-.415a1.01,1.01,0,0,1-.291-.489,1.8,1.8,0,0,0-.207-.464.928.928,0,0,0-.207-.22c-.084-.062-.186-.13-.31-.2l-.251-.158a.768.768,0,0,1-.164-.186c-.455-.551-.594-.851-.415-.891-.18.04-.328-.093-.446-.405a1.3,1.3,0,0,1-.115-.715l-.04-.019a3.489,3.489,0,0,0,.019-.489A4.8,4.8,0,0,1,5.5,9.316c.034-.223.1-.331.2-.331-.1.012-.17-.074-.22-.26a.572.572,0,0,1-.009-.384q.023-.06.186.084a1.117,1.117,0,0,1,.189.186c.18-.1.248-.22.207-.375A3.043,3.043,0,0,0,5.612,7.8a7.72,7.72,0,0,0-.913-.56.29.29,0,0,0-.062-.393c-.136.084-.217.1-.238.062a.968.968,0,0,1-.053-.229c-.012-.108-.046-.173-.1-.186A.523.523,0,0,1,4,6.329a13.076,13.076,0,0,1,4.869-4.6,3.023,3.023,0,0,1,.458-.022.855.855,0,0,1,.31.105,1.523,1.523,0,0,1,.3.226,2.717,2.717,0,0,0,.238.207.5.5,0,0,0-.1-.371q.042-.125.455-.251a1.182,1.182,0,0,1,.622.022,5.838,5.838,0,0,0-.415-.517l-.1.1c-.111-.1-.4-.05-.873.145-.028.012-.1.053-.207.115a2.11,2.11,0,0,1-.269.133.521.521,0,0,1-.248.022A11.789,11.789,0,0,1,10.98.794a1.8,1.8,0,0,1,.207.176c.1.09.173.158.229.2-.04-.028-.068-.012-.084.04a.53.53,0,0,0,0,.415.386.386,0,0,0,.282.167,1.6,1.6,0,0,0,.424-.022,2.388,2.388,0,0,1,.331-.04l.207.019c.443.043.616,0,.517-.124a1.284,1.284,0,0,1,.145.344.881.881,0,0,0,.189.362c.068-.056.08-.152.04-.291a.352.352,0,0,1,0-.291.252.252,0,0,1,.124-.08c.068-.028.149-.059.238-.093s.149-.059.176-.074c.084-.056.028-.152-.167-.291a1.688,1.688,0,0,0-.173-.062c-.093-.028-.17-.056-.238-.084a1.225,1.225,0,0,1-.22-.111c-.074-.05-.111-.105-.1-.167a.526.526,0,0,1,.115-.238.568.568,0,0,1,.4-.084,1.042,1.042,0,0,1,.424.105c.375.207.43.393.167.56a1.474,1.474,0,0,1,.5.164c.192.1.269.2.226.313.111-.207.223-.313.334-.313.068.015.133.108.2.282a1.481,1.481,0,0,0,.115.279c.111.152.22.186.331.1a1.627,1.627,0,0,0,.344-.362c.115-.158.183-.229.2-.217-.136-.056-.152-.111-.04-.167a.665.665,0,0,1,.56-.1.813.813,0,0,1,.164.186c.124.251.105.365-.062.353a.449.449,0,0,1,.155.415c-.019.164-.127.241-.319.229a.761.761,0,0,1-.3-.105.988.988,0,0,0-.3-.115.5.5,0,0,0-.288.115,2.377,2.377,0,0,0-.22.353,1.545,1.545,0,0,1-.238.353,1.221,1.221,0,0,1-1.037.226c.043,0,.04.043-.009.127a2.55,2.55,0,0,1-.2.279c-.08.105-.13.164-.142.176a1.06,1.06,0,0,0-.251.477q0,.042-.019.279a1.116,1.116,0,0,1-.084.365c.164-.043.3.04.393.248.084.192.084.3,0,.31a2.454,2.454,0,0,1,1.2.084c.5.18.783.359.851.539.084-.124.282-.13.6-.019.124.068.235.275.331.619a1.354,1.354,0,0,0,.282.542.339.339,0,0,0,.424.124l.062-.043c.056-.028.1-.05.136-.071a1.041,1.041,0,0,0,.111-.084.187.187,0,0,0,.074-.093.088.088,0,0,0-.031-.084.766.766,0,0,1-.22-.34.434.434,0,0,1,.034-.384,1.36,1.36,0,0,1,.331-.251.745.745,0,0,0,.331-.331.367.367,0,0,0-.207-.446c-.2-.118-.291-.223-.291-.319a.406.406,0,0,1,.136-.251.319.319,0,0,0,.111-.269.962.962,0,0,0-.071-.26,1.278,1.278,0,0,1-.084-.288.321.321,0,0,1,.093-.22,1.328,1.328,0,0,1,.684.012,2.353,2.353,0,0,1,.706.2,1.625,1.625,0,0,0,.269.127,2.2,2.2,0,0,1,.362.173q.158.1.176.176h-.1a.509.509,0,0,1,.176.291.215.215,0,0,1-.158.248.683.683,0,0,1,.334.065c.22.08.226.158.019.226A1.562,1.562,0,0,1,21.065,5a.483.483,0,0,0,.176-.062.87.87,0,0,0,.105-.074.39.39,0,0,1,.093-.062.594.594,0,0,1,.093-.019.157.157,0,0,1,.124.031c.012,0,.043-.037.093-.105s.1-.139.155-.207.105-.1.145-.1a.155.155,0,0,1,.115.05.568.568,0,0,1,.084.115c.022.043.04.087.062.136s.037.087.053.115a.575.575,0,0,0,.2.217.542.542,0,0,1,.2.217c.012.043.04.145.084.313A.682.682,0,0,0,23,5.9a.817.817,0,0,0,.313.155.3.3,0,0,0,.186-.019.516.516,0,0,1,.238-.022q.093.019.093.167c.084-.084.124-.139.124-.167a.888.888,0,0,0,.136.436.364.364,0,0,0,.362.142l-.04.458a.472.472,0,0,1-.313.155,1.089,1.089,0,0,0-.31.093,1.4,1.4,0,0,0-.3.248c-.161.155-.226.245-.2.272A1.006,1.006,0,0,0,22.238,7.6a5.284,5.284,0,0,0-1.08.248,1.491,1.491,0,0,0-.455.313.535.535,0,0,0-.071.145c-.037.08-.071.158-.105.226s-.065.105-.093.105a.537.537,0,0,0,.279-.2,1.326,1.326,0,0,1,.2-.2,1.135,1.135,0,0,1,.891-.248m-4.312,18.1a.769.769,0,0,1,.145-.446.938.938,0,0,0,.164-.424c-.22-.056-.3-.235-.248-.539a1.725,1.725,0,0,1,.6-.83.96.96,0,0,0,.251-1,5.464,5.464,0,0,1-.105-.786,7.009,7.009,0,0,0-.084-.724c0,.04.068.077.2.111s.21.08.238.136a1.3,1.3,0,0,0,.105-.229.962.962,0,0,1,.124-.248.725.725,0,0,1,.176-.155,1.735,1.735,0,0,1,.176-.115,2.05,2.05,0,0,0,.186-.136c.1-.074.176-.133.238-.176a.74.74,0,0,1,.248-.093.18.18,0,0,1,.217.093c.071.084.056.214-.04.384s-.1.294,0,.365A1.685,1.685,0,0,0,20.12,21a.493.493,0,0,1,.127-.31.466.466,0,0,1,.238-.145.316.316,0,0,1,.207.031,2.037,2.037,0,0,1,.217.145.609.609,0,0,0,.229.115,2.538,2.538,0,0,1,.746.455c-.015-.012-.015-.031,0-.053a.232.232,0,0,1,.08-.062.791.791,0,0,0,.115-.062.639.639,0,0,1,.115-.05l.062-.022a.663.663,0,0,0,.207-.022.237.237,0,0,1,.176.043,1.085,1.085,0,0,1,.155.093c.028.019.077.059.145.115a1.629,1.629,0,0,1,.145.124c.04.028.118.074.229.145s.2.124.257.164a.578.578,0,0,1,.167.186.409.409,0,0,1,.053.269,3.575,3.575,0,0,1,.5.167.729.729,0,0,0,.26.071.487.487,0,0,1,.26.1,12.809,12.809,0,0,1-7.277,3.916,1.718,1.718,0,0,1-.04-.331" transform="translate(0.69 2.561)"/></g></g></g></svg>