<svg width="40" height="40" viewBox="0 0 40 40" fill="none" xmlns="http://www.w3.org/2000/svg">
<rect width="40" height="40" rx="20" fill="#E8EDF6"/>
<path d="M17.0888 11.0314C15.1704 11.6969 13.516 12.96 12.3686 14.6353C11.2211 16.3106 10.6412 18.3096 10.7138 20.3388C10.7865 22.3681 11.508 24.3205 12.7724 25.9094C14.0367 27.4983 15.7772 28.6398 17.7383 29.1664C19.3282 29.5766 20.9939 29.5947 22.5923 29.2189C24.0403 28.8937 25.379 28.1979 26.4773 27.1999C27.6204 26.1294 28.4501 24.7676 28.8773 23.2609C29.3416 21.6224 29.4242 19.8993 29.1188 18.2239H20.1908V21.9274H25.3613C25.2579 22.5181 25.0365 23.0818 24.7102 23.5849C24.3839 24.0881 23.9595 24.5202 23.4623 24.8554C22.8309 25.273 22.1192 25.5541 21.3728 25.6804C20.6242 25.8196 19.8564 25.8196 19.1078 25.6804C18.3491 25.5235 17.6313 25.2104 17.0003 24.7609C15.9865 24.0433 15.2253 23.0238 14.8253 21.8479C14.4185 20.65 14.4185 19.3513 14.8253 18.1534C15.11 17.3137 15.5807 16.5492 16.2023 15.9169C16.9136 15.18 17.8141 14.6533 18.805 14.3945C19.796 14.1357 20.839 14.1549 21.8198 14.4499C22.5859 14.6851 23.2866 15.096 23.8658 15.6499C24.4488 15.0699 25.0308 14.4884 25.6118 13.9054C25.9118 13.5919 26.2388 13.2934 26.5343 12.9724C25.6501 12.1496 24.6123 11.5094 23.4803 11.0884C21.4188 10.3399 19.1633 10.3198 17.0888 11.0314Z" fill="white"/>
<path d="M17.0889 11.0314C19.1632 10.3193 21.4187 10.3389 23.4804 11.0869C24.6126 11.5107 25.6499 12.1541 26.5329 12.9799C26.2329 13.3009 25.9164 13.6009 25.6104 13.9129C25.0284 14.4939 24.4469 15.0729 23.8659 15.6499C23.2866 15.096 22.586 14.6851 21.8199 14.4499C20.8394 14.1539 19.7964 14.1336 18.8052 14.3913C17.814 14.649 16.9129 15.1748 16.2009 15.9109C15.5793 16.5432 15.1086 17.3077 14.8239 18.1474L11.7144 15.7399C12.8274 13.5327 14.7545 11.8444 17.0889 11.0314Z" fill="#E33629"/>
<path d="M10.8891 18.125C11.0563 17.2967 11.3337 16.4945 11.7141 15.74L14.8236 18.1535C14.4168 19.3514 14.4168 20.6501 14.8236 21.848C13.7876 22.648 12.7511 23.452 11.7141 24.26C10.7618 22.3645 10.4714 20.2047 10.8891 18.125Z" fill="#F8BD00"/>
<path d="M20.1909 18.2224H29.1189C29.4242 19.8978 29.3416 21.6209 28.8774 23.2594C28.4502 24.7661 27.6205 26.1279 26.4774 27.1984C25.4739 26.4154 24.4659 25.6384 23.4624 24.8554C23.9599 24.5198 24.3845 24.0873 24.7108 23.5836C25.0371 23.08 25.2584 22.5156 25.3614 21.9244H20.1909C20.1894 20.6914 20.1909 19.4569 20.1909 18.2224Z" fill="#587DBD"/>
<path d="M11.7126 24.2599C12.7496 23.4599 13.7861 22.6559 14.8221 21.8479C15.223 23.0242 15.9853 24.0437 17.0001 24.7609C17.6332 25.2083 18.3524 25.5189 19.1121 25.6729C19.8607 25.8121 20.6286 25.8121 21.3771 25.6729C22.1235 25.5466 22.8353 25.2655 23.4666 24.8479C24.4701 25.6309 25.4781 26.4079 26.4816 27.1909C25.3835 28.1895 24.0448 28.8857 22.5966 29.2114C20.9983 29.5872 19.3325 29.5691 17.7426 29.1589C16.4852 28.8232 15.3107 28.2313 14.2926 27.4204C13.2151 26.5649 12.3351 25.4869 11.7126 24.2599Z" fill="#319F43"/>
</svg>
