<?xml version="1.0" encoding="UTF-8" standalone="no"?>
<svg
   xmlns:dc="http://purl.org/dc/elements/1.1/"
   xmlns:cc="http://creativecommons.org/ns#"
   xmlns:rdf="http://www.w3.org/1999/02/22-rdf-syntax-ns#"
   xmlns:svg="http://www.w3.org/2000/svg"
   xmlns="http://www.w3.org/2000/svg"
   xmlns:sodipodi="http://sodipodi.sourceforge.net/DTD/sodipodi-0.dtd"
   xmlns:inkscape="http://www.inkscape.org/namespaces/inkscape"
   viewBox="0 0 512 512"
   version="1.1"
   id="svg4"
   sodipodi:docname="google_white.svg"
   inkscape:version="0.92.4 (5da689c313, 2019-01-14)">
  <metadata
     id="metadata10">
    <rdf:RDF>
      <cc:Work
         rdf:about="">
        <dc:format>image/svg+xml</dc:format>
        <dc:type
           rdf:resource="http://purl.org/dc/dcmitype/StillImage" />
      </cc:Work>
    </rdf:RDF>
  </metadata>
  <defs
     id="defs8" />
  <sodipodi:namedview
     pagecolor="#ffffff"
     bordercolor="#666666"
     borderopacity="1"
     objecttolerance="10"
     gridtolerance="10"
     guidetolerance="10"
     inkscape:pageopacity="0"
     inkscape:pageshadow="2"
     inkscape:window-width="640"
     inkscape:window-height="480"
     id="namedview6"
     showgrid="false"
     inkscape:zoom="0.4609375"
     inkscape:cx="218.0339"
     inkscape:cy="256"
     inkscape:window-x="3570"
     inkscape:window-y="532"
     inkscape:window-maximized="0"
     inkscape:current-layer="svg4" />
  <path
     d="M457.6 224l-2.1-8.9H262V297h115.6c-12 57-67.7 87-113.2 87-33.1 0-68-13.9-91.1-36.3-23.7-23-38.8-56.9-38.8-91.8 0-34.5 15.5-69 38.1-91.7 22.5-22.6 56.6-35.4 90.5-35.4 38.8 0 66.6 20.6 77 30l58.2-57.9c-17.1-15-64-52.8-137.1-52.8-56.4 0-110.5 21.6-150 61C72.2 147.9 52 204 52 256s19.1 105.4 56.9 144.5c40.4 41.7 97.6 63.5 156.5 63.5 53.6 0 104.4-21 140.6-59.1 35.6-37.5 54-89.4 54-143.8 0-22.9-2.3-36.5-2.4-37.1z"
     id="path2"
     style="fill:#ffffff" />
</svg>
