<svg width="33" height="32" viewBox="0 0 33 32" fill="none" xmlns="http://www.w3.org/2000/svg">
<path d="M15.1641 22.6666H17.8307V14.6666H15.1641V22.6666ZM16.4974 12C16.8752 12 17.1921 11.872 17.4481 11.616C17.7041 11.36 17.8316 11.0435 17.8307 10.6666C17.8298 10.2897 17.7018 9.97329 17.4467 9.71729C17.1916 9.46129 16.8752 9.33329 16.4974 9.33329C16.1196 9.33329 15.8032 9.46129 15.5481 9.71729C15.293 9.97329 15.165 10.2897 15.1641 10.6666C15.1632 11.0435 15.2912 11.3604 15.5481 11.6173C15.805 11.8742 16.1214 12.0017 16.4974 12ZM16.4974 29.3333C14.653 29.3333 12.9196 28.9831 11.2974 28.2826C9.67518 27.5822 8.26406 26.6324 7.06406 25.4333C5.86406 24.2342 4.91429 22.8231 4.21473 21.2C3.51518 19.5768 3.16495 17.8435 3.16406 16C3.16318 14.1564 3.5134 12.4231 4.21473 10.8C4.91606 9.17685 5.86584 7.76574 7.06406 6.56663C8.26229 5.36751 9.6734 4.41774 11.2974 3.71729C12.9214 3.01685 14.6547 2.66663 16.4974 2.66663C18.3401 2.66663 20.0734 3.01685 21.6974 3.71729C23.3214 4.41774 24.7325 5.36751 25.9307 6.56663C27.129 7.76574 28.0792 9.17685 28.7814 10.8C29.4836 12.4231 29.8334 14.1564 29.8307 16C29.8281 17.8435 29.4778 19.5768 28.7801 21.2C28.0823 22.8231 27.1325 24.2342 25.9307 25.4333C24.729 26.6324 23.3178 27.5826 21.6974 28.284C20.077 28.9853 18.3436 29.3351 16.4974 29.3333Z" fill="#1C4DA1"/>
</svg>
