<svg width="64" height="64" viewBox="0 0 64 64" fill="none" xmlns="http://www.w3.org/2000/svg">
<path d="M32 63.999C49.6728 63.999 63.9995 49.6724 63.9995 31.9995C63.9995 14.3267 49.6728 0 32 0C14.3272 0 0.000488281 14.3267 0.000488281 31.9995C0.000488281 49.6724 14.3272 63.999 32 63.999Z" fill="#A4B8D9"/>
<path d="M32.1129 45.8628C26.9044 45.8628 21.696 45.8628 16.4876 45.8628C16.2332 45.8628 15.9755 45.8628 15.72 45.836C14.416 45.7116 13.8918 44.8144 14.4478 43.6013C14.9304 42.554 15.4568 41.5335 15.9678 40.4974C18.3805 35.6189 20.7931 30.7411 23.2058 25.864C23.2803 25.7151 23.3582 25.5661 23.4448 25.4238C24.0524 24.4292 25.0394 24.2891 25.8169 25.1472C26.3653 25.7476 26.8291 26.4219 27.3183 27.0727C29.804 30.3905 32.2898 33.7098 34.7755 37.0306C35.8612 38.4756 37.2288 38.554 38.5042 37.2546C39.137 36.6095 39.7555 35.9475 40.3959 35.3079C41.5507 34.1541 42.8612 34.2236 43.8044 35.5688C45.6972 38.2684 47.5429 41.0037 49.3973 43.7301C49.5423 43.944 49.6533 44.1799 49.7263 44.4291C49.9062 45.0552 49.6518 45.5593 49.0299 45.7262C48.64 45.8215 48.2398 45.8656 47.839 45.8572C42.5999 45.8662 37.3578 45.8681 32.1129 45.8628Z" fill="white"/>
<path d="M43.7934 19.131C43.792 20.1723 43.488 21.1897 42.9199 22.0543C42.3517 22.9189 41.545 23.5917 40.6021 23.9875C39.6591 24.3832 38.6223 24.4841 37.6232 24.2772C36.624 24.0704 35.7075 23.5652 34.9898 22.8257C34.272 22.0861 33.7855 21.1456 33.5917 20.1233C33.398 19.101 33.5058 18.0429 33.9015 17.0833C34.2972 16.1236 34.963 15.3056 35.8144 14.7329C36.6658 14.1602 37.6646 13.8586 38.684 13.8664C40.0415 13.884 41.3379 14.4457 42.2936 15.4305C43.2494 16.4153 43.788 17.7443 43.7934 19.131Z" fill="white"/>
</svg>
