<svg width="20" height="21" viewBox="0 0 20 21" fill="none" xmlns="http://www.w3.org/2000/svg">
<path d="M9 15.5996H11V9.59961H9V15.5996ZM10 7.59961C10.2833 7.59961 10.521 7.50361 10.713 7.31161C10.905 7.11961 11.0007 6.88228 11 6.59961C10.9993 6.31694 10.9033 6.07961 10.712 5.88761C10.5207 5.69561 10.2833 5.59961 10 5.59961C9.71667 5.59961 9.47933 5.69561 9.288 5.88761C9.09667 6.07961 9.00067 6.31694 9 6.59961C8.99933 6.88228 9.09533 7.11994 9.288 7.31261C9.48067 7.50528 9.718 7.60094 10 7.59961ZM10 20.5996C8.61667 20.5996 7.31667 20.3369 6.1 19.8116C4.88334 19.2863 3.825 18.5739 2.925 17.6746C2.025 16.7753 1.31267 15.7169 0.788001 14.4996C0.263335 13.2823 0.000667933 11.9823 1.26582e-06 10.5996C-0.000665401 9.21694 0.262001 7.91694 0.788001 6.69961C1.314 5.48228 2.02633 4.42394 2.925 3.52461C3.82367 2.62528 4.882 1.91294 6.1 1.38761C7.318 0.862276 8.618 0.599609 10 0.599609C11.382 0.599609 12.682 0.862276 13.9 1.38761C15.118 1.91294 16.1763 2.62528 17.075 3.52461C17.9737 4.42394 18.6863 5.48228 19.213 6.69961C19.7397 7.91694 20.002 9.21694 20 10.5996C19.998 11.9823 19.7353 13.2823 19.212 14.4996C18.6887 15.7169 17.9763 16.7753 17.075 17.6746C16.1737 18.5739 15.1153 19.2866 13.9 19.8126C12.6847 20.3386 11.3847 20.6009 10 20.5996Z" fill="#E30519"/>
</svg>
