<?xml version="1.0" encoding="UTF-8" standalone="no"?>
<!-- Generator: Adobe Illustrator 19.0.0, SVG Export Plug-In . SVG Version: 6.00 Build 0)  -->

<svg
   xmlns:dc="http://purl.org/dc/elements/1.1/"
   xmlns:cc="http://creativecommons.org/ns#"
   xmlns:rdf="http://www.w3.org/1999/02/22-rdf-syntax-ns#"
   xmlns:svg="http://www.w3.org/2000/svg"
   xmlns="http://www.w3.org/2000/svg"
   xmlns:sodipodi="http://sodipodi.sourceforge.net/DTD/sodipodi-0.dtd"
   xmlns:inkscape="http://www.inkscape.org/namespaces/inkscape"
   version="1.1"
   id="Capa_1"
   x="0px"
   y="0px"
   viewBox="0 0 20.702999 21.664"
   xml:space="preserve"
   sodipodi:docname="instagram.svg"
   inkscape:version="0.92.4 (5da689c313, 2019-01-14)"
   width="20.702999"
   height="21.664"><metadata
   id="metadata55"><rdf:RDF><cc:Work
       rdf:about=""><dc:format>image/svg+xml</dc:format><dc:type
         rdf:resource="http://purl.org/dc/dcmitype/StillImage" /><dc:title></dc:title></cc:Work></rdf:RDF></metadata><defs
   id="defs53" /><sodipodi:namedview
   pagecolor="#ffffff"
   bordercolor="#666666"
   borderopacity="1"
   objecttolerance="10"
   gridtolerance="10"
   guidetolerance="10"
   inkscape:pageopacity="0"
   inkscape:pageshadow="2"
   inkscape:window-width="1413"
   inkscape:window-height="859"
   id="namedview51"
   showgrid="false"
   inkscape:zoom="4.7469683"
   inkscape:cx="47.728814"
   inkscape:cy="14.101695"
   inkscape:window-x="1013"
   inkscape:window-y="325"
   inkscape:window-maximized="0"
   inkscape:current-layer="Capa_1" />


<g
   id="g844"
   transform="matrix(0.03643359,0,0,0.03643359,1.0245005,19.369702)"><g
     transform="translate(0,-490.336)"
     style="fill:#a2a2a2;fill-opacity:1"
     id="g6">
	<g
   style="fill:#a2a2a2;fill-opacity:1"
   id="g4">
		<path
   inkscape:connector-curvature="0"
   style="fill:#a2a2a2;fill-opacity:1"
   id="path2"
   d="M 352,0 H 160 C 71.648,0 0,71.648 0,160 v 192 c 0,88.352 71.648,160 160,160 h 192 c 88.352,0 160,-71.648 160,-160 V 160 C 512,71.648 440.352,0 352,0 Z m 112,352 c 0,61.76 -50.24,112 -112,112 H 160 C 98.24,464 48,413.76 48,352 V 160 C 48,98.24 98.24,48 160,48 h 192 c 61.76,0 112,50.24 112,112 z" />
	</g>
</g><g
     transform="translate(0,-490.336)"
     style="fill:#a2a2a2;fill-opacity:1;stroke:none;stroke-opacity:1"
     id="g12">
	<g
   style="fill:#a2a2a2;fill-opacity:1;stroke:none;stroke-opacity:1"
   id="g10">
		<path
   inkscape:connector-curvature="0"
   style="fill:#a2a2a2;fill-opacity:1;stroke:none;stroke-opacity:1"
   id="path8"
   d="m 256,128 c -70.688,0 -128,57.312 -128,128 0,70.688 57.312,128 128,128 70.688,0 128,-57.312 128,-128 0,-70.688 -57.312,-128 -128,-128 z m 0,208 c -44.096,0 -80,-35.904 -80,-80 0,-44.128 35.904,-80 80,-80 44.096,0 80,35.872 80,80 0,44.096 -35.904,80 -80,80 z" />
	</g>
</g><g
     transform="translate(0,-490.336)"
     style="fill:#a2a2a2;fill-opacity:1"
     id="g18">
	<g
   style="fill:#a2a2a2;fill-opacity:1"
   id="g16">
		<circle
   style="fill:#a2a2a2;fill-opacity:1"
   id="circle14"
   r="17.056"
   cy="118.4"
   cx="393.60001" />
	</g>
</g></g>
<g
   id="g20"
   transform="translate(0,-490.336)">
</g>
<g
   id="g22"
   transform="translate(0,-490.336)">
</g>
<g
   id="g24"
   transform="translate(0,-490.336)">
</g>
<g
   id="g26"
   transform="translate(0,-490.336)">
</g>
<g
   id="g28"
   transform="translate(0,-490.336)">
</g>
<g
   id="g30"
   transform="translate(0,-490.336)">
</g>
<g
   id="g32"
   transform="translate(0,-490.336)">
</g>
<g
   id="g34"
   transform="translate(0,-490.336)">
</g>
<g
   id="g36"
   transform="translate(0,-490.336)">
</g>
<g
   id="g38"
   transform="translate(0,-490.336)">
</g>
<g
   id="g40"
   transform="translate(0,-490.336)">
</g>
<g
   id="g42"
   transform="translate(0,-490.336)">
</g>
<g
   id="g44"
   transform="translate(0,-490.336)">
</g>
<g
   id="g46"
   transform="translate(0,-490.336)">
</g>
<g
   id="g48"
   transform="translate(0,-490.336)">
</g>
</svg>