<svg width="83" height="240" viewBox="0 0 83 240" fill="none" xmlns="http://www.w3.org/2000/svg">
<g clip-path="url(#clip0_1638_51869)">
<path d="M15.4762 142.259C15.1985 142.259 14.9199 142.252 14.6406 142.237C6.16041 141.789 -0.373223 134.561 0.0765883 126.123C0.294361 122.036 2.09937 118.278 5.15841 115.541C8.21785 112.805 12.1668 111.423 16.2731 111.633C20.3814 111.85 24.1591 113.646 26.9098 116.689C29.6609 119.733 31.0557 123.66 30.8375 127.747C30.6197 131.834 28.8151 135.593 25.7557 138.329C22.9046 140.88 19.2815 142.259 15.4762 142.259ZM15.4525 119.09C11.294 119.09 7.80556 122.341 7.58289 126.519C7.35248 130.839 10.6974 134.54 15.039 134.769C17.145 134.886 19.1633 134.169 20.7297 132.768C22.2957 131.367 23.2194 129.443 23.3312 127.351V127.351C23.4429 125.258 22.7288 123.248 21.3202 121.69C19.912 120.132 17.9782 119.212 15.8746 119.101C15.7335 119.094 15.5924 119.09 15.4525 119.09Z" fill="#19B5FE"/>
<path d="M80.9724 36.2771L80.9642 36.2788C80.8218 36.2919 80.7063 36.3504 80.6337 36.4507C80.6273 36.4605 80.6192 36.4622 80.6145 36.4803L74.5835 39.9049C73.3649 40.5958 71.819 39.9543 71.4455 38.6061C70.8559 36.4457 69.9647 34.2725 67.3988 32.3345C60.9494 27.4461 57.105 32.4727 50.6491 27.594C44.1997 22.7056 48.0441 17.6791 41.5963 12.7987C39.9294 11.5386 38.4385 10.9382 37.0312 10.6563C35.2589 10.3013 34.2737 8.4165 35.0485 6.79148L37.5312 1.58461C37.987 0.62866 38.9555 0.0138134 40.019 0.0198128C42.998 0.0365812 45.8514 -0.43197 49.5557 2.3741C56.0052 7.26254 52.1608 12.2891 58.6103 17.1775C65.0679 22.0643 68.9105 17.0296 75.3681 21.9163C80.6454 25.9144 79.3526 29.1355 81.781 33.3877C82.3568 34.4043 81.9924 35.6961 80.9724 36.2771Z" fill="#19B5FE"/>
<path d="M12.9916 236.228L13.3855 230.243C13.4927 228.615 14.7636 227.261 16.3996 227.142C16.992 227.099 17.6172 227.002 18.2814 226.84C26.1544 224.922 24.6448 218.784 32.5178 216.866C40.3893 214.937 41.9055 221.081 49.7719 219.159C54.5513 217.997 55.8709 215.284 57.9297 212.897C60.1495 210.33 64.3704 211.414 65.0477 214.733L65.8752 218.839C66.229 220.547 65.4366 222.279 63.9251 223.155C59.5201 225.727 59.4751 230.265 52.9125 231.865C45.041 233.794 43.5249 227.65 35.6585 229.573C27.7738 231.491 29.29 237.635 21.417 239.553C18.8623 240.177 17.051 240.078 15.4949 239.681C13.9346 239.282 12.8864 237.827 12.9916 236.228Z" fill="#FFCA28"/>
<path d="M17.5972 76.131C19.9474 74.6827 20.6724 71.6133 19.2167 69.2752C17.7609 66.9371 14.6757 66.2157 12.3256 67.664C9.97546 69.1123 9.25042 72.1818 10.7061 74.5199C12.1619 76.858 15.2471 77.5793 17.5972 76.131Z" fill="#19B5FE"/>
<path d="M60.8941 173.007C64.1639 169.754 64.1639 164.48 60.8941 161.227C57.6243 157.973 52.323 157.973 49.0532 161.227C45.7835 164.48 45.7835 169.754 49.0532 173.007C52.323 176.26 57.6243 176.26 60.8941 173.007Z" fill="#FF5722"/>
<path d="M70.6715 102.461C71.6418 101.045 71.274 99.1135 69.85 98.1481C68.426 97.1828 66.485 97.5487 65.5147 98.9654C64.5444 100.382 64.9122 102.313 66.3362 103.279C67.7602 104.244 69.7012 103.878 70.6715 102.461Z" fill="#FF5722"/>
</g>
<defs>
<clipPath id="clip0_1638_51869">
<rect width="82" height="240" fill="white" transform="translate(0.0546875)"/>
</clipPath>
</defs>
</svg>
