<svg width="170" height="40" viewBox="0 0 170 40" fill="none" xmlns="http://www.w3.org/2000/svg">
<path d="M46.6928 36.2821C46.6928 36.977 46.5042 37.4761 46.1302 37.7825C45.7561 38.0858 45.1527 38.2374 44.3229 38.2374H41.8242V31.4238H44.3103C45.0584 31.4238 45.5927 31.5502 45.9101 31.8029C46.2276 32.0556 46.3847 32.4915 46.3847 33.1075C46.3847 33.5497 46.3062 33.8909 46.1522 34.1278C45.9981 34.3678 45.7373 34.5289 45.3695 34.6174C45.8096 34.6742 46.1396 34.8417 46.3596 35.1165C46.5796 35.3913 46.6896 35.7798 46.6896 36.2789L46.6928 36.2821ZM45.5361 33.2401C45.5361 32.8642 45.445 32.6021 45.2658 32.4536C45.0867 32.3051 44.7724 32.2293 44.3261 32.2293H42.7483V34.3584H44.3261C44.7598 34.3584 45.0678 34.2699 45.2564 34.0962C45.445 33.9224 45.5361 33.635 45.5361 33.237V33.2401ZM45.8064 36.2284C45.8064 35.824 45.6964 35.5398 45.4701 35.3818C45.247 35.2207 44.8667 35.1417 44.3261 35.1417H42.7483V37.4129H44.3261C44.8667 37.4129 45.2501 37.3245 45.4701 37.1507C45.6933 36.977 45.8064 36.6706 45.8064 36.2284Z" fill="#1C4DA1"/>
<path d="M50.3586 38.3259C49.7677 38.3259 49.3245 38.1774 49.0291 37.8805C48.7337 37.5835 48.5859 37.1382 48.5859 36.5443V32.8706H49.4723V36.4337C49.4723 36.8033 49.5666 37.0718 49.752 37.2392C49.9374 37.4067 50.236 37.4888 50.6383 37.4888C50.8835 37.4888 51.1318 37.4572 51.3769 37.3972C51.6252 37.3372 51.8767 37.2392 52.1281 37.1097V32.8738H53.0145V38.2406H52.2036L52.1596 37.7952H52.1376C51.7635 37.991 51.4367 38.13 51.1664 38.209C50.8929 38.288 50.6226 38.329 50.3555 38.329L50.3586 38.3259Z" fill="#1C4DA1"/>
<path d="M56.173 31.9358H55.2207V31.0103H56.173V31.9358ZM56.1416 38.2376H55.2553V32.8708H56.1416V38.2376Z" fill="#1C4DA1"/>
<path d="M59.2652 31.0103V38.2376H58.3789V31.0103H59.2652Z" fill="#1C4DA1"/>
<path d="M65.0362 31.0103H65.9226V38.2376H65.1557L65.0897 37.7385H65.0677C64.8571 37.9344 64.6056 38.0797 64.3039 38.1776C64.0053 38.2755 63.6596 38.3229 63.2699 38.3229C62.5407 38.3229 62.0221 38.1049 61.7078 37.6722C61.3935 37.2363 61.2363 36.5287 61.2363 35.5431C61.2363 34.5576 61.428 33.8469 61.8084 33.4141C62.1887 32.9782 62.8267 32.7602 63.7225 32.7602C63.9739 32.7602 64.2096 32.7792 64.4296 32.8203C64.6497 32.8613 64.8508 32.915 65.03 32.9877V31.0103H65.0362ZM63.8387 33.5657C63.1693 33.5657 62.7167 33.7079 62.481 33.989C62.2452 34.2701 62.1289 34.7882 62.1289 35.5431C62.1289 36.2981 62.2327 36.7846 62.437 37.0689C62.6413 37.3563 63.0247 37.4984 63.5873 37.4984C63.8545 37.4984 64.109 37.4637 64.3542 37.3942C64.5994 37.3247 64.8257 37.2236 65.0362 37.0846V33.7837C64.8634 33.711 64.6811 33.6573 64.4862 33.6194C64.2913 33.5815 64.0745 33.5657 63.8387 33.5657Z" fill="#1C4DA1"/>
<path d="M71.0794 39.1945C71.3529 39.1945 71.5603 39.1345 71.7017 39.0145C71.8432 38.8945 71.9909 38.6102 72.1512 38.1616L69.9668 32.8706H70.96L72.6038 37.2708L74.1596 32.8706H75.1119L72.9275 38.5975C72.7327 39.1187 72.5064 39.482 72.2455 39.6905C71.9846 39.899 71.6515 40 71.2397 40C71.1171 40 70.9883 39.9937 70.8563 39.9779C70.7243 39.9621 70.5923 39.9463 70.4602 39.9242V39.1408C70.5388 39.163 70.6268 39.1756 70.7243 39.1851C70.8217 39.1945 70.938 39.1945 71.0763 39.1945H71.0794Z" fill="#1C4DA1"/>
<path d="M81.3412 35.5432C81.3412 36.5571 81.1558 37.2742 80.7849 37.6943C80.414 38.1144 79.7791 38.3261 78.8771 38.3261C77.975 38.3261 77.3024 38.1239 76.941 37.7164C76.5795 37.3121 76.4004 36.5856 76.4004 35.5432C76.4004 34.5008 76.5858 33.8027 76.9567 33.3857C77.3276 32.9687 77.9656 32.7603 78.8739 32.7603C79.7823 32.7603 80.4486 32.9624 80.8038 33.3699C81.1621 33.7774 81.3381 34.5008 81.3381 35.5432H81.3412ZM77.2867 35.5337C77.2867 36.3297 77.3904 36.8572 77.601 37.1131C77.8085 37.369 78.2359 37.4985 78.8771 37.4985C79.5183 37.4985 79.9143 37.3626 80.1312 37.091C80.348 36.8193 80.4549 36.2981 80.4549 35.5305C80.4549 34.7629 80.3512 34.207 80.1469 33.948C79.9426 33.6921 79.5183 33.5626 78.8771 33.5626C78.2359 33.5626 77.8273 33.6984 77.6136 33.9638C77.3967 34.2323 77.2899 34.7535 77.2899 35.5274L77.2867 35.5337Z" fill="#1C4DA1"/>
<path d="M85.0598 38.3259C84.4689 38.3259 84.0257 38.1774 83.7303 37.8805C83.4348 37.5835 83.2871 37.1382 83.2871 36.5443V32.8706H84.1734V36.4337C84.1734 36.8033 84.2677 37.0718 84.4532 37.2392C84.6386 37.4067 84.9372 37.4888 85.3395 37.4888C85.5847 37.4888 85.833 37.4572 86.0781 37.3972C86.3264 37.3372 86.5779 37.2392 86.8293 37.1097V32.8738H87.7156V38.2406H86.9047L86.8607 37.7952H86.8387C86.4647 37.991 86.1378 38.13 85.8675 38.209C85.5941 38.288 85.3238 38.329 85.0566 38.329L85.0598 38.3259Z" fill="#1C4DA1"/>
<path d="M90.8434 38.2374H89.957V32.8706H90.7679L90.8119 33.3255H90.8559C91.1357 33.1581 91.4185 33.0349 91.6983 32.9496C91.978 32.8643 92.2577 32.8232 92.5312 32.8232H92.7638C92.8046 32.8232 92.8329 32.8264 92.8549 32.8327V33.6919C92.8046 33.6761 92.7417 33.6666 92.6663 33.6635C92.5909 33.6603 92.4746 33.6572 92.3143 33.6572C92.0534 33.6572 91.7988 33.6888 91.5505 33.7488C91.3022 33.8119 91.0665 33.9036 90.8434 34.0267V38.2311V38.2374Z" fill="#1C4DA1"/>
<path d="M100.573 31.0103H101.46V38.2376H100.693L100.627 37.7385H100.605C100.394 37.9344 100.143 38.0797 99.841 38.1776C99.5393 38.2755 99.1967 38.3229 98.807 38.3229C98.0778 38.3229 97.5592 38.1049 97.2449 37.6722C96.9306 37.2363 96.7734 36.5287 96.7734 35.5431C96.7734 34.5576 96.9652 33.8469 97.3455 33.4141C97.7258 32.9782 98.3638 32.7602 99.2596 32.7602C99.511 32.7602 99.7467 32.7792 99.9667 32.8203C100.187 32.8613 100.388 32.915 100.567 32.9877V31.0103H100.573ZM99.3727 33.5657C98.7033 33.5657 98.2507 33.7079 98.0149 33.989C97.7792 34.2701 97.6629 34.7882 97.6629 35.5431C97.6629 36.2981 97.7666 36.7846 97.9709 37.0689C98.1752 37.3563 98.5587 37.4984 99.1213 37.4984C99.3884 37.4984 99.643 37.4637 99.8882 37.3942C100.133 37.3247 100.36 37.2236 100.57 37.0846V33.7837C100.397 33.711 100.215 33.6573 100.02 33.6194C99.8253 33.5815 99.6084 33.5657 99.3727 33.5657Z" fill="#1C4DA1"/>
<path d="M104.616 31.9358H103.664V31.0103H104.616V31.9358ZM104.585 38.2376H103.699V32.8708H104.585V38.2376Z" fill="#1C4DA1"/>
<path d="M108.994 39.9971C108.632 39.9971 108.296 39.9718 107.982 39.9276C107.667 39.8802 107.409 39.8171 107.208 39.7381V38.9452C107.375 39.0084 107.617 39.0653 107.938 39.1063C108.258 39.1506 108.576 39.1727 108.893 39.1727C109.434 39.1727 109.808 39.0653 110.018 38.8536C110.226 38.6388 110.333 38.2629 110.333 37.7196V37.3848C110.065 37.5427 109.782 37.6659 109.478 37.748C109.176 37.8302 108.868 37.8744 108.56 37.8744C107.846 37.8744 107.337 37.6754 107.029 37.2774C106.721 36.8794 106.57 36.2287 106.57 35.3221C106.57 34.4155 106.768 33.7458 107.158 33.3541C107.551 32.9624 108.22 32.7666 109.163 32.7666C109.503 32.7666 109.867 32.7856 110.254 32.8266C110.644 32.8677 110.964 32.9151 111.216 32.9719V37.4701C111.216 38.4114 111.049 39.0684 110.719 39.4412C110.389 39.8139 109.811 40.0003 108.99 40.0003L108.994 39.9971ZM109.166 33.5658C108.475 33.5658 108.016 33.6858 107.793 33.9259C107.57 34.166 107.46 34.6303 107.46 35.3158C107.46 35.9665 107.554 36.4182 107.746 36.6677C107.938 36.9173 108.305 37.0436 108.855 37.0436C109.094 37.0436 109.339 37.0089 109.597 36.9394C109.852 36.8699 110.1 36.7751 110.336 36.6519V33.6858C110.163 33.6479 109.977 33.6195 109.779 33.5974C109.581 33.5753 109.377 33.5658 109.166 33.5658Z" fill="#1C4DA1"/>
<path d="M114.368 31.9358H113.416V31.0103H114.368V31.9358ZM114.334 38.2376H113.447V32.8708H114.334V38.2376Z" fill="#1C4DA1"/>
<path d="M119.709 37.4002V38.1488C119.593 38.1994 119.436 38.2405 119.238 38.2752C119.04 38.3099 118.851 38.3226 118.672 38.3226C118.025 38.3226 117.559 38.1773 117.283 37.8867C117.006 37.5961 116.868 37.097 116.868 36.3862V33.6254H116.066V32.8642H116.877L117.019 31.5596H117.754V32.8642H119.656V33.6254H117.754V36.3515C117.754 36.7937 117.836 37.0938 117.996 37.2517C118.16 37.4128 118.446 37.4918 118.854 37.4918C118.983 37.4918 119.134 37.4823 119.304 37.4602C119.473 37.4381 119.609 37.416 119.709 37.3939V37.4002Z" fill="#1C4DA1"/>
<path d="M122.606 38.3258C122.059 38.3258 121.657 38.1932 121.399 37.9278C121.144 37.6625 121.016 37.2455 121.016 36.6738C121.016 36.102 121.17 35.6819 121.481 35.4419C121.792 35.1986 122.317 35.0786 123.059 35.0786C123.304 35.0786 123.546 35.0881 123.781 35.1102C124.02 35.1323 124.244 35.1639 124.451 35.2081V34.6869C124.451 34.2889 124.35 34.0014 124.149 33.8277C123.948 33.654 123.624 33.5655 123.175 33.5655C122.845 33.5655 122.553 33.5782 122.301 33.6034C122.05 33.6287 121.795 33.6698 121.544 33.7298V32.959C121.833 32.8864 122.125 32.8358 122.427 32.8074C122.725 32.779 123.065 32.7632 123.448 32.7632C124.09 32.7632 124.564 32.9148 124.875 33.2149C125.186 33.515 125.34 33.9825 125.34 34.6111V38.2406H124.53L124.486 37.7415H124.464C124.247 37.9152 123.967 38.0573 123.627 38.1647C123.285 38.2721 122.945 38.329 122.606 38.329V38.3258ZM123.156 35.8051C122.666 35.8051 122.326 35.8651 122.135 35.9852C121.943 36.1052 121.849 36.3168 121.849 36.6201C121.849 36.9391 121.927 37.1697 122.087 37.3087C122.248 37.4509 122.505 37.5204 122.867 37.5204C123.147 37.5204 123.436 37.4761 123.731 37.3908C124.027 37.3056 124.269 37.195 124.454 37.0655V35.9157C124.215 35.8778 123.995 35.8525 123.788 35.8335C123.583 35.8146 123.373 35.8083 123.156 35.8083V35.8051Z" fill="#1C4DA1"/>
<path d="M128.421 31.0103V38.2376H127.535V31.0103H128.421Z" fill="#1C4DA1"/>
<path d="M133.632 33.6318H132.83V32.8705H133.632V32.741C133.632 32.1187 133.782 31.6576 134.084 31.3575C134.386 31.0574 134.851 30.9058 135.48 30.9058C135.64 30.9058 135.797 30.9121 135.957 30.9279C136.115 30.9437 136.262 30.9626 136.401 30.9911V31.7523C136.316 31.7302 136.196 31.7144 136.049 31.7049C135.901 31.6955 135.753 31.6891 135.612 31.6891C135.2 31.6891 134.917 31.7618 134.757 31.9134C134.596 32.0619 134.518 32.3304 134.518 32.7221V32.8737H136.237V33.635H134.518V38.2405H133.632V33.635V33.6318Z" fill="#1C4DA1"/>
<path d="M139.654 38.3259C139.063 38.3259 138.619 38.1774 138.324 37.8805C138.029 37.5835 137.881 37.1382 137.881 36.5443V32.8706H138.767V36.4337C138.767 36.8033 138.861 37.0718 139.047 37.2392C139.232 37.4067 139.531 37.4888 139.933 37.4888C140.178 37.4888 140.427 37.4572 140.672 37.3972C140.92 37.3372 141.172 37.2392 141.423 37.1097V32.8738H142.309V38.2406H141.498L141.454 37.7952H141.432C141.058 37.991 140.732 38.13 140.461 38.209C140.188 38.288 139.918 38.329 139.65 38.329L139.654 38.3259Z" fill="#1C4DA1"/>
<path d="M147.688 37.4002V38.1488C147.571 38.1994 147.414 38.2405 147.216 38.2752C147.018 38.3099 146.83 38.3226 146.65 38.3226C146.003 38.3226 145.538 38.1773 145.261 37.8867C144.985 37.5961 144.846 37.097 144.846 36.3862V33.6254H144.045V32.8642H144.856L144.997 31.5596H145.733V32.8642H147.634V33.6254H145.733V36.3515C145.733 36.7937 145.814 37.0938 145.975 37.2517C146.138 37.4128 146.424 37.4918 146.833 37.4918C146.962 37.4918 147.113 37.4823 147.282 37.4602C147.452 37.4381 147.587 37.416 147.688 37.3939V37.4002Z" fill="#1C4DA1"/>
<path d="M151.105 38.3259C150.514 38.3259 150.071 38.1774 149.775 37.8805C149.48 37.5835 149.332 37.1382 149.332 36.5443V32.8706H150.218V36.4337C150.218 36.8033 150.313 37.0718 150.498 37.2392C150.687 37.4067 150.982 37.4888 151.384 37.4888C151.63 37.4888 151.878 37.4572 152.123 37.3972C152.371 37.3372 152.623 37.2392 152.874 37.1097V32.8738H153.761V38.2406H152.95L152.906 37.7952H152.884C152.51 37.991 152.183 38.13 151.912 38.209C151.639 38.288 151.369 38.329 151.102 38.329L151.105 38.3259Z" fill="#1C4DA1"/>
<path d="M156.886 38.2374H156V32.8706H156.811L156.855 33.3255H156.899C157.179 33.1581 157.462 33.0349 157.741 32.9496C158.021 32.8643 158.301 32.8232 158.574 32.8232H158.807C158.848 32.8232 158.876 32.8264 158.898 32.8327V33.6919C158.848 33.6761 158.785 33.6666 158.709 33.6635C158.634 33.6603 158.518 33.6572 158.357 33.6572C158.096 33.6572 157.842 33.6888 157.594 33.7488C157.345 33.8119 157.109 33.9036 156.886 34.0267V38.2311V38.2374Z" fill="#1C4DA1"/>
<path d="M164.5 37.1952V37.9439C164.311 38.0449 164.038 38.1334 163.673 38.2092C163.309 38.285 162.941 38.3229 162.564 38.3229C161.728 38.3229 161.131 38.105 160.769 37.6722C160.408 37.2363 160.229 36.5192 160.229 35.5211C160.229 34.5229 160.417 33.8564 160.791 33.4173C161.165 32.9782 161.765 32.7603 162.586 32.7603C163.35 32.7603 163.896 32.934 164.23 33.2783C164.56 33.6226 164.726 34.1975 164.726 34.9999C164.726 35.1452 164.723 35.2778 164.717 35.401C164.71 35.5242 164.695 35.6727 164.673 35.8464H161.127C161.134 36.4403 161.256 36.8635 161.489 37.1163C161.725 37.369 162.13 37.4953 162.705 37.4953C163.016 37.4953 163.34 37.4669 163.68 37.4069C164.019 37.35 164.292 37.2774 164.5 37.1889V37.1952ZM163.915 34.8798C163.909 34.3997 163.805 34.0617 163.601 33.8627C163.397 33.6637 163.06 33.5626 162.586 33.5626C162.051 33.5626 161.674 33.6763 161.457 33.9037C161.237 34.1312 161.127 34.5323 161.127 35.1041H163.906C163.906 35.1041 163.906 35.0567 163.912 34.9999C163.915 34.9462 163.918 34.9051 163.918 34.8767L163.915 34.8798Z" fill="#1C4DA1"/>
<path d="M52.2285 25.599C50.4904 25.599 48.9063 25.1726 47.4794 24.3228C46.0524 23.4731 44.921 22.3296 44.0881 20.8955C43.252 19.4614 42.834 17.8599 42.834 16.0878C42.834 14.3157 43.2583 12.7142 44.1038 11.2801C44.9524 9.84601 46.0996 8.70884 47.5485 7.87175C48.9974 7.03151 50.6161 6.61139 52.4013 6.61139C53.2594 6.61139 54.0829 6.71563 54.8718 6.92727C55.6607 7.13891 56.4024 7.439 57.1002 7.83701V0.87499L62.7387 0V25.3558H57.1724V23.9912C55.7109 25.0652 54.064 25.599 52.2316 25.599H52.2285ZM53.2028 20.7723C53.9917 20.7723 54.7115 20.6491 55.3589 20.4059C56.0095 20.1595 56.5878 19.7931 57.097 19.3035V12.8342C56.6098 12.3667 56.0315 12.013 55.3589 11.7666C54.6863 11.5202 53.9666 11.4001 53.2028 11.4001C52.2976 11.4001 51.4804 11.6055 50.7481 12.013C50.0158 12.4204 49.4375 12.9795 49.0069 13.6903C48.5763 14.401 48.3626 15.2002 48.3626 16.0847C48.3626 16.9691 48.5763 17.7683 49.0069 18.479C49.4343 19.1898 50.0158 19.7489 50.7481 20.1564C51.4773 20.5638 52.2976 20.7692 53.2028 20.7692V20.7723Z" fill="#F95C22"/>
<path d="M89.5131 25.3558L84.2266 0.875H87.9165L91.7101 19.5846L97.2418 0.875H100.721L106.218 19.5499L110.046 0.875H113.63L108.305 25.3558H104.546L98.9108 6.12178L93.3099 25.3558H89.5163H89.5131Z" fill="#F95C22"/>
<path d="M152.729 25.3555V0.874776L156.208 0.211426V15.3548L164.804 7.55566H168.874L159.722 15.8791L169.361 25.3555H164.769L156.211 16.9626V25.3555H152.732H152.729Z" fill="#F95C22"/>
<path d="M19.4773 20.9841C18.9336 20.0933 18.5595 19.1362 18.3521 18.1159C17.7989 18.6276 17.2112 19.0572 16.5794 19.3763C15.5705 19.888 14.4736 20.147 13.2918 20.147C12.2704 20.147 11.3274 19.9733 10.4568 19.6227C9.58622 19.272 8.83189 18.7792 8.19386 18.138C7.55582 17.4968 7.05608 16.7513 6.69778 15.8984C6.33947 15.0487 6.15718 14.12 6.15718 13.1187C6.15718 12.1173 6.33004 11.1476 6.67892 10.2852C7.0278 9.42286 7.51496 8.67738 8.14042 8.04562C8.76589 7.41701 9.50135 6.92108 10.35 6.55782C11.1986 6.19771 12.1069 6.0145 13.0813 6.0145C14.3102 6.0145 15.4542 6.283 16.5103 6.82C17.5663 7.357 18.5218 8.17197 19.3799 9.26808L23.4155 5.28166C22.6738 4.30243 21.7497 3.45903 20.6496 2.74514C19.5464 2.0344 18.3458 1.48161 17.0477 1.0836C15.7465 0.688751 14.4265 0.489746 13.0813 0.489746C11.2489 0.489746 9.53907 0.811945 7.9487 1.45002C6.35833 2.09126 4.96912 2.98205 3.77477 4.12554C2.58042 5.26902 1.65323 6.60204 0.990052 8.13091C0.330017 9.65977 0 11.3181 0 13.1155C0 14.9129 0.330017 16.5365 0.990052 18.0654C1.65009 19.5942 2.57413 20.9272 3.75591 22.0707C4.93769 23.2142 6.32376 24.105 7.91413 24.7462C9.50135 25.3875 11.2237 25.7065 13.0813 25.7065C14.3793 25.7065 15.668 25.5138 16.944 25.1285C18.2201 24.7431 19.4019 24.1966 20.4925 23.4859C20.7188 23.3374 20.9325 23.1826 21.1431 23.0247C20.5019 22.4277 19.9425 21.7517 19.4742 20.9841H19.4773Z" fill="#F95C22"/>
<path d="M77.7687 20.6145C77.1432 20.8608 76.4455 20.9809 75.6817 20.9809C74.9871 20.9809 74.3365 20.8577 73.7331 20.6145C73.1296 20.3681 72.6141 20.0269 72.1836 19.5815C71.753 19.1393 71.4135 18.6244 71.1558 18.0432H84.2748V16.6438C84.2748 14.6854 83.8756 12.948 83.0741 11.4318C82.2727 9.91557 81.1789 8.72154 79.7865 7.84655C78.3942 6.97156 76.7944 6.53564 74.984 6.53564C73.1736 6.53564 71.5738 6.96208 70.1123 7.8118C68.6508 8.66468 67.4973 9.81133 66.6487 11.2549C65.8001 12.7016 65.3789 14.3221 65.3789 16.1163C65.3789 17.9105 65.8189 19.531 66.7021 20.9777C67.5822 22.4245 68.7828 23.5711 70.304 24.424C71.8221 25.2769 73.5225 25.7001 75.402 25.7001C76.8541 25.7001 78.1616 25.4948 79.3339 25.0936V19.61C78.9002 20.0364 78.3784 20.3712 77.7687 20.6113V20.6145ZM71.8693 12.5026C72.2276 12.073 72.6644 11.7382 73.1736 11.5045C73.6828 11.2707 74.2517 11.1538 74.8771 11.1538C75.5026 11.1538 76.0369 11.277 76.5461 11.5202C77.0552 11.7666 77.5015 12.1046 77.885 12.5342C78.2684 12.967 78.5513 13.485 78.7368 14.0915H71.0458C71.2312 13.4629 71.5047 12.9322 71.863 12.4995L71.8693 12.5026Z" fill="#F95C22"/>
<path d="M125.605 22.2759C124.816 22.557 123.98 22.696 123.1 22.696C122.104 22.696 121.174 22.4686 120.316 22.0137C119.458 21.5589 118.754 20.9524 118.21 20.1943C117.666 19.4361 117.311 18.558 117.147 17.5535H131.137V16.609C131.137 14.8369 130.76 13.2449 130.006 11.836C129.251 10.4272 128.23 9.30584 126.944 8.47823C125.656 7.65062 124.2 7.23682 122.579 7.23682C120.957 7.23682 119.401 7.65062 118.056 8.47823C116.711 9.30584 115.639 10.4083 114.837 11.7823C114.036 13.1596 113.637 14.7074 113.637 16.4321C113.637 18.1568 114.055 19.7267 114.891 21.1356C115.727 22.5476 116.846 23.6531 118.248 24.4586C119.649 25.2641 121.224 25.6653 122.962 25.6653C124.285 25.6653 125.502 25.4726 126.617 25.0872C126.665 25.0715 126.709 25.0493 126.756 25.0335V21.7452C126.41 21.9474 126.03 22.1243 125.608 22.2727L125.605 22.2759ZM118.175 12.4836C118.675 11.7855 119.294 11.2296 120.036 10.8221C120.778 10.4146 121.589 10.2093 122.472 10.2093C123.355 10.2093 124.153 10.4146 124.873 10.8221C125.593 11.2296 126.199 11.7887 126.699 12.4994C127.199 13.2101 127.529 14.0219 127.689 14.9285H117.182C117.345 13.9967 117.676 13.1817 118.172 12.4804L118.175 12.4836Z" fill="#F95C22"/>
<path d="M145.025 22.2759C144.236 22.557 143.4 22.696 142.52 22.696C141.524 22.696 140.594 22.4686 139.736 22.0137C138.878 21.5589 138.173 20.9524 137.63 20.1943C137.086 19.4361 136.731 18.558 136.567 17.5535H150.557V16.609C150.557 14.8369 150.18 13.2449 149.426 11.836C148.671 10.4272 147.65 9.30584 146.364 8.47823C145.076 7.65062 143.62 7.23682 141.999 7.23682C140.377 7.23682 138.821 7.65062 137.476 8.47823C136.131 9.30584 135.059 10.4083 134.257 11.7823C133.456 13.1596 133.057 14.7074 133.057 16.4321C133.057 18.1568 133.475 19.7267 134.311 21.1356C135.147 22.5476 136.266 23.6531 137.667 24.4586C139.069 25.2641 140.644 25.6653 142.382 25.6653C143.705 25.6653 144.922 25.4726 146.037 25.0872C146.084 25.0715 146.128 25.0493 146.176 25.0335V21.7452C145.83 21.9474 145.45 22.1243 145.028 22.2727L145.025 22.2759ZM137.598 12.4836C138.098 11.7855 138.717 11.2296 139.459 10.8221C140.201 10.4146 141.012 10.2093 141.895 10.2093C142.778 10.2093 143.576 10.4146 144.296 10.8221C145.016 11.2296 145.622 11.7887 146.122 12.4994C146.622 13.2101 146.952 14.0219 147.112 14.9285H136.605C136.769 13.9967 137.099 13.1817 137.595 12.4804L137.598 12.4836Z" fill="#F95C22"/>
<path d="M35.2111 29.4844C35.516 29.3896 35.6605 29.1653 35.626 29.0548L34.4693 25.738L37.8827 25.8675L30.8926 15.6172V28.0313L33.517 26.016L34.6233 29.3517C34.6611 29.4717 34.9094 29.576 35.2111 29.4844Z" fill="#F95C22"/>
<path d="M39.7003 11.2421C38.8171 9.78591 37.6227 8.62978 36.1172 7.78006C34.6086 6.93035 32.9145 6.50391 31.0381 6.50391C29.1617 6.50391 27.4645 6.93035 25.959 7.78006C24.4503 8.62978 23.256 9.78591 22.3759 11.2421C21.4928 12.6983 21.0527 14.3251 21.0527 16.1193C21.0527 17.9135 21.4928 19.534 22.3759 20.9807C23.256 22.4275 24.4503 23.5741 25.959 24.427C27.1376 25.0935 28.442 25.4789 29.85 25.621V20.6333C29.4697 20.529 29.102 20.3869 28.7594 20.1784C28.0742 19.7583 27.5368 19.1928 27.1408 18.4821C26.7479 17.7714 26.5499 16.9848 26.5499 16.1225C26.5499 15.2601 26.7479 14.4388 27.1408 13.7281C27.5336 13.0174 28.0742 12.4519 28.7594 12.0318C29.4446 11.6117 30.2052 11.4032 31.0381 11.4032C31.871 11.4032 32.6316 11.6117 33.3168 12.0318C34.002 12.4519 34.5394 13.0174 34.9355 13.7281C35.3283 14.4388 35.5263 15.238 35.5263 16.1225C35.5263 17.0069 35.3283 17.7714 34.9355 18.4821C34.8192 18.6906 34.6809 18.8706 34.5394 19.0507L37.5347 23.4414C38.3896 22.7465 39.122 21.9347 39.7034 20.9807C40.5835 19.534 41.0266 17.9167 41.0266 16.1193C41.0266 14.322 40.5866 12.6983 39.7034 11.2421H39.7003Z" fill="#F95C22"/>
</svg>
