<svg xmlns="http://www.w3.org/2000/svg" xmlns:xlink="http://www.w3.org/1999/xlink" width="241" height="50.063" viewBox="0 0 241 50.063"><defs><style>.a{fill:none;}.b{clip-path:url(#a);}.c{fill:#fe6824;}</style><clipPath id="a"><rect class="a" width="241" height="50.063"/></clipPath></defs><g class="b" transform="translate(0)"><g transform="translate(0 10.293)"><path class="c" d="M544.292,321.8a1.808,1.808,0,1,0-1.3,1.3,1.811,1.811,0,0,0,1.3-1.3" transform="translate(-367.435 -295.344)"/><path class="c" d="M190.129,287.56l-.146.613a7.443,7.443,0,0,1-2.373,4,9.019,9.019,0,0,1-6.094,2.006,7.634,7.634,0,0,1-6.989-3.791,17.943,17.943,0,0,1,.073-16.659,7.813,7.813,0,0,1,7.1-3.829c4.25,0,6.868,1.665,8,5.089l.181.548,2.035-1.049-.147-.407a8.9,8.9,0,0,0-2.907-4,10.843,10.843,0,0,0-6.946-2.272c-3.991,0-7.04,1.478-9.062,4.4a17.335,17.335,0,0,0-2.615,9.922c0,4.045.856,7.335,2.544,9.778,2,2.892,5,4.358,8.914,4.358a10.711,10.711,0,0,0,7.443-2.584A9.38,9.38,0,0,0,192,288.961l.1-.382Z" transform="translate(-170.241 -267.808)"/><path class="c" d="M238.748,287.085a8.019,8.019,0,0,0-6.813-3.206,7.916,7.916,0,0,0-6.778,3.207,11.853,11.853,0,0,0-2.077,7.26,12.01,12.01,0,0,0,2.08,7.3,7.981,7.981,0,0,0,6.775,3.133,8.154,8.154,0,0,0,6.814-3.135,12.018,12.018,0,0,0,2.076-7.3A11.86,11.86,0,0,0,238.748,287.085Zm-.084,7.3a10.068,10.068,0,0,1-1.558,5.886,5.906,5.906,0,0,1-5.171,2.531,5.813,5.813,0,0,1-5.133-2.527v0a10.059,10.059,0,0,1-1.56-5.887,10.167,10.167,0,0,1,1.564-5.894,5.76,5.76,0,0,1,5.131-2.524,5.9,5.9,0,0,1,5.168,2.527A10.173,10.173,0,0,1,238.664,294.384Z" transform="translate(-198.364 -276.362)"/><path class="c" d="M281.548,269.063v10.005c-1.423-2.042-3.666-3.074-6.694-3.074a8.017,8.017,0,0,0-6.813,3.2,13.794,13.794,0,0,0,0,14.563,8.027,8.027,0,0,0,6.813,3.133,7.58,7.58,0,0,0,6.694-3.2v2.724h2.161V269.063Zm-6.694,25.851a5.851,5.851,0,0,1-5.171-2.528,10.071,10.071,0,0,1-1.559-5.888,9.9,9.9,0,0,1,1.6-5.894,6.476,6.476,0,0,1,10.261,0l0,0a11.9,11.9,0,0,1,0,11.785A5.763,5.763,0,0,1,274.854,294.914Z" transform="translate(-221.189 -268.476)"/><path class="c" d="M327.58,293.725a11.021,11.021,0,0,0-2.007-6.9,7.676,7.676,0,0,0-6.48-2.944,7.552,7.552,0,0,0-6.6,3.292,12.364,12.364,0,0,0-1.923,7.176,12.545,12.545,0,0,0,1.925,7.215,7.611,7.611,0,0,0,6.6,3.216,8.223,8.223,0,0,0,5.219-1.72,7.764,7.764,0,0,0,2.466-3.4l.152-.4-1.827-.986-.2.526a5.69,5.69,0,0,1-5.81,4.008,5.465,5.465,0,0,1-4.8-2.5,9.415,9.415,0,0,1-1.558-5.383H327.58Zm-14.734-.9a9.091,9.091,0,0,1,1.719-4.7,5.727,5.727,0,0,1,4.785-2.165,5.257,5.257,0,0,1,4.554,2.223,8.2,8.2,0,0,1,1.47,4.638Z" transform="translate(-244.929 -276.363)"/></g><path class="c" d="M377.154,269.063l-6.113,23.02L364.9,275.334h-1.863l-6.11,16.748-6.149-23.019h-2.266l7.3,27.353h1.976l6.177-17.392,6.18,17.392h1.973l7.3-27.353Z" transform="translate(-265.123 -258.183)"/><g transform="translate(114.373 17.811)"><path class="c" d="M431.769,293.725a11.029,11.029,0,0,0-2.007-6.9,7.679,7.679,0,0,0-6.481-2.944,7.551,7.551,0,0,0-6.6,3.292,12.368,12.368,0,0,0-1.922,7.176,12.545,12.545,0,0,0,1.925,7.214,7.608,7.608,0,0,0,6.6,3.217,8.229,8.229,0,0,0,5.219-1.72,7.765,7.765,0,0,0,2.466-3.4l.152-.4-1.828-.985-.2.524a5.691,5.691,0,0,1-5.81,4.009,5.465,5.465,0,0,1-4.8-2.5,9.414,9.414,0,0,1-1.559-5.383h14.85Zm-14.736-.9a9.1,9.1,0,0,1,1.719-4.7,5.728,5.728,0,0,1,4.784-2.165,5.256,5.256,0,0,1,4.554,2.223,8.188,8.188,0,0,1,1.47,4.637Z" transform="translate(-414.756 -283.881)"/><path class="c" d="M472.768,293.725a11.016,11.016,0,0,0-2.006-6.9,7.678,7.678,0,0,0-6.481-2.944,7.554,7.554,0,0,0-6.6,3.292,12.365,12.365,0,0,0-1.922,7.176,12.543,12.543,0,0,0,1.925,7.215,7.612,7.612,0,0,0,6.6,3.216,8.22,8.22,0,0,0,5.218-1.72,7.77,7.77,0,0,0,2.467-3.4l.152-.4-1.828-.985-.2.525a5.69,5.69,0,0,1-5.81,4.008,5.463,5.463,0,0,1-4.8-2.5,9.4,9.4,0,0,1-1.56-5.382h14.85Zm-14.733-.9a9.073,9.073,0,0,1,1.719-4.7,5.726,5.726,0,0,1,4.784-2.165,5.25,5.25,0,0,1,4.552,2.223,8.183,8.183,0,0,1,1.472,4.637Z" transform="translate(-436.579 -283.881)"/></g><path class="c" d="M506.561,283.869l7.487-7.5h-2.823l-10.269,10.179V269.063H498.8v27.353h2.16v-7.069l4.082-3.953,7.336,11.021h2.5Z" transform="translate(-345.114 -258.183)"/><path class="c" d="M569.636,245.8,548.144,267.3l10.192,10.191,1.532-1.532-8.661-8.66,8.284-8.283,5.5,5.5,1.862-1.863-5.5-5.5,8.283-8.283,8.29,8.29,1.531-1.533Z" transform="translate(-371.378 -245.804)"/><g transform="translate(188.99 12.225)"><path class="c" d="M593.6,306.367a15.4,15.4,0,0,1-10.911-4.526l-8.409-8.409,1.532-1.533,8.41,8.41a13.129,13.129,0,0,0,18.544.116,12.9,12.9,0,0,0,3.819-9.244,13.107,13.107,0,0,0-3.889-9.254l-8.455-8.456,1.531-1.532,8.457,8.455a15.272,15.272,0,0,1,4.524,10.776,15.135,15.135,0,0,1-15.153,15.2" transform="translate(-574.278 -271.939)"/><path class="c" d="M652.289,342.947A8.015,8.015,0,0,1,646.6,340.6l-3.72-3.72,1.532-1.533,3.721,3.721a5.873,5.873,0,0,0,8.294.012l4.845-4.818L662.8,335.8l-4.845,4.817a8.012,8.012,0,0,1-5.669,2.333" transform="translate(-610.793 -305.109)"/></g></g></svg>