<?xml version="1.0" encoding="UTF-8" standalone="no"?>
<svg
   xmlns:dc="http://purl.org/dc/elements/1.1/"
   xmlns:cc="http://creativecommons.org/ns#"
   xmlns:rdf="http://www.w3.org/1999/02/22-rdf-syntax-ns#"
   xmlns:svg="http://www.w3.org/2000/svg"
   xmlns="http://www.w3.org/2000/svg"
   xmlns:sodipodi="http://sodipodi.sourceforge.net/DTD/sodipodi-0.dtd"
   xmlns:inkscape="http://www.inkscape.org/namespaces/inkscape"
   width="241"
   height="50.063"
   viewBox="0 0 241 50.063"
   version="1.1"
   id="svg41"
   sodipodi:docname="logo.svg"
   inkscape:version="0.92.4 (5da689c313, 2019-01-14)">
  <metadata
     id="metadata45">
    <rdf:RDF>
      <cc:Work
         rdf:about="">
        <dc:format>image/svg+xml</dc:format>
        <dc:type
           rdf:resource="http://purl.org/dc/dcmitype/StillImage" />
      </cc:Work>
    </rdf:RDF>
  </metadata>
  <sodipodi:namedview
     pagecolor="#ffffff"
     bordercolor="#666666"
     borderopacity="1"
     objecttolerance="10"
     gridtolerance="10"
     guidetolerance="10"
     inkscape:pageopacity="0"
     inkscape:pageshadow="2"
     inkscape:window-width="1440"
     inkscape:window-height="959"
     id="namedview43"
     showgrid="false"
     inkscape:zoom="3.2565029"
     inkscape:cx="137.5891"
     inkscape:cy="16.971831"
     inkscape:window-x="3052"
     inkscape:window-y="239"
     inkscape:window-maximized="0"
     inkscape:current-layer="svg41" />
  <defs
     id="defs7">
    <style
       id="style2">.a{fill:none;}.b{clip-path:url(#a);}.c{fill:#fe6824;}</style>
    <clipPath
       id="a">
      <rect
         class="a"
         width="241"
         height="50.063"
         id="rect4" />
    </clipPath>
  </defs>
  <path
     id="path35"
     style="fill:#fe6824;stroke:none"
     d="m 230.486,50.063 a 8.015,8.015 0 0 1 -5.689,-2.347 l -3.72,-3.72 1.532,-1.533 3.721,3.721 a 5.873,5.873 0 0 0 8.294,0.012 l 4.845,-4.818 1.528,1.538 -4.845,4.817 a 8.012,8.012 0 0 1 -5.669,2.333 m -22.171,-3.413 a 15.4,15.4 0 0 1 -10.911,-4.526 l -8.409,-8.409 1.532,-1.533 8.41,8.41 a 13.129,13.129 0 0 0 18.544,0.116 12.9,12.9 0 0 0 3.819,-9.244 13.107,13.107 0 0 0 -3.889,-9.254 l -8.455,-8.456 1.531,-1.532 8.457,8.455 a 15.272,15.272 0 0 1 4.524,10.776 15.135,15.135 0 0 1 -15.153,15.2 m -10.054,-46.66 -21.492,21.5 10.192,10.191 1.532,-1.532 -8.661,-8.66 8.284,-8.283 5.5,5.5 1.862,-1.863 -5.5,-5.5 8.283,-8.283 8.29,8.29 1.531,-1.533 z m -36.811,25.69 7.487,-7.5 h -2.823 L 155.842,28.365 V 10.88 h -2.156 v 27.353 h 2.16 v -7.069 l 4.082,-3.953 7.336,11.021 h 2.5 z m -10.885,1.969 a 11.016,11.016 0 0 0 -2.006,-6.9 7.678,7.678 0 0 0 -6.481,-2.944 7.554,7.554 0 0 0 -6.6,3.292 12.365,12.365 0 0 0 -1.922,7.176 12.543,12.543 0 0 0 1.925,7.215 7.612,7.612 0 0 0 6.6,3.216 8.22,8.22 0 0 0 5.218,-1.72 7.77,7.77 0 0 0 2.467,-3.4 l 0.152,-0.4 -1.828,-0.985 -0.2,0.525 a 5.69,5.69 0 0 1 -5.81,4.008 5.463,5.463 0 0 1 -4.8,-2.5 9.4,9.4 0 0 1 -1.56,-5.382 h 14.85 z m -14.733,-0.9 a 9.073,9.073 0 0 1 1.719,-4.7 5.726,5.726 0 0 1 4.784,-2.165 5.25,5.25 0 0 1 4.552,2.223 8.183,8.183 0 0 1 1.472,4.637 z m -4.443,0.9 a 11.029,11.029 0 0 0 -2.007,-6.9 7.679,7.679 0 0 0 -6.481,-2.944 7.551,7.551 0 0 0 -6.6,3.292 12.368,12.368 0 0 0 -1.922,7.176 12.545,12.545 0 0 0 1.925,7.214 7.608,7.608 0 0 0 6.6,3.217 8.229,8.229 0 0 0 5.219,-1.72 7.765,7.765 0 0 0 2.466,-3.4 l 0.152,-0.4 -1.828,-0.985 -0.2,0.524 a 5.691,5.691 0 0 1 -5.81,4.009 5.465,5.465 0 0 1 -4.8,-2.5 9.414,9.414 0 0 1 -1.559,-5.383 h 14.85 z m -14.736,-0.9 a 9.1,9.1 0 0 1 1.719,-4.7 5.728,5.728 0 0 1 4.784,-2.165 5.256,5.256 0 0 1 4.554,2.223 8.188,8.188 0 0 1 1.47,4.637 z M 112.031,10.88 105.918,33.9 99.777,17.151 H 97.914 L 91.804,33.899 85.655,10.88 h -2.266 l 7.3,27.353 h 1.976 l 6.177,-17.392 6.18,17.392 h 1.973 l 7.3,-27.353 z m -29.38,16.775 a 11.021,11.021 0 0 0 -2.007,-6.9 7.676,7.676 0 0 0 -6.48,-2.944 7.552,7.552 0 0 0 -6.6,3.292 12.364,12.364 0 0 0 -1.923,7.176 12.545,12.545 0 0 0 1.925,7.215 7.611,7.611 0 0 0 6.6,3.216 8.223,8.223 0 0 0 5.219,-1.72 7.764,7.764 0 0 0 2.466,-3.4 l 0.152,-0.4 -1.827,-0.986 -0.2,0.526 a 5.69,5.69 0 0 1 -5.81,4.008 5.465,5.465 0 0 1 -4.8,-2.5 9.415,9.415 0 0 1 -1.558,-5.383 h 14.843 z m -14.734,-0.9 a 9.091,9.091 0 0 1 1.719,-4.7 5.727,5.727 0 0 1 4.785,-2.165 5.257,5.257 0 0 1 4.554,2.223 8.2,8.2 0 0 1 1.47,4.638 z M 60.359,10.88 v 10.005 c -1.423,-2.042 -3.666,-3.074 -6.694,-3.074 a 8.017,8.017 0 0 0 -6.813,3.2 13.794,13.794 0 0 0 0,14.563 8.027,8.027 0 0 0 6.813,3.133 7.58,7.58 0 0 0 6.694,-3.2 v 2.724 H 62.52 V 10.88 Z m -6.694,25.851 a 5.851,5.851 0 0 1 -5.171,-2.528 10.071,10.071 0 0 1 -1.559,-5.888 9.9,9.9 0 0 1 1.6,-5.894 6.476,6.476 0 0 1 10.261,0 v 0 a 11.9,11.9 0 0 1 0,11.785 5.763,5.763 0 0 1 -5.131,2.525 z M 40.384,21.016 a 8.019,8.019 0 0 0 -6.813,-3.206 7.916,7.916 0 0 0 -6.778,3.207 11.853,11.853 0 0 0 -2.077,7.26 12.01,12.01 0 0 0 2.08,7.3 7.981,7.981 0 0 0 6.775,3.133 8.154,8.154 0 0 0 6.814,-3.135 12.018,12.018 0 0 0 2.076,-7.3 11.86,11.86 0 0 0 -2.077,-7.259 z m -0.084,7.3 a 10.068,10.068 0 0 1 -1.558,5.886 5.906,5.906 0 0 1 -5.171,2.531 5.813,5.813 0 0 1 -5.133,-2.527 v 0 a 10.059,10.059 0 0 1 -1.56,-5.887 10.167,10.167 0 0 1 1.564,-5.894 5.76,5.76 0 0 1 5.131,-2.524 5.9,5.9 0 0 1 5.168,2.527 10.173,10.173 0 0 1 1.559,5.887 z m -20.412,1.729 -0.146,0.613 a 7.443,7.443 0 0 1 -2.373,4 9.019,9.019 0 0 1 -6.094,2.006 7.634,7.634 0 0 1 -6.989,-3.791 17.943,17.943 0 0 1 0.073,-16.659 7.813,7.813 0 0 1 7.1,-3.829 c 4.25,0 6.868,1.665 8,5.089 l 0.181,0.548 2.035,-1.049 -0.147,-0.407 a 8.9,8.9 0 0 0 -2.907,-4 10.843,10.843 0 0 0 -6.946,-2.272 c -3.991,0 -7.04,1.478 -9.062,4.4 a 17.335,17.335 0 0 0 -2.615,9.922 c 0,4.045 0.856,7.335 2.544,9.778 2,2.892 5,4.358 8.914,4.358 a 10.711,10.711 0 0 0 7.443,-2.584 9.38,9.38 0 0 0 2.86,-4.722 l 0.1,-0.382 z m 156.969,6.704 a 1.808,1.808 0 1 0 -1.3,1.3 1.811,1.811 0 0 0 1.3,-1.3" />
</svg>
