<svg xmlns="http://www.w3.org/2000/svg" xmlns:xlink="http://www.w3.org/1999/xlink" width="32.703" height="25.696" viewBox="0 0 32.703 25.696"><defs><style>.a{fill:#fe6824;}.b{clip-path:url(#a);}</style><clipPath id="a"><path class="a" d="M0,16.267H32.7v-25.7H0Z" transform="translate(0 9.429)"/></clipPath></defs><g transform="translate(0 9.429)"><g class="b" transform="translate(0 -9.429)"><g transform="translate(0.001 0.001)"><path class="a" d="M19.114,14.679a.567.567,0,0,1-.412.174H-8.16a.561.561,0,0,1-.409-.174.556.556,0,0,1-.174-.412V.251a10.5,10.5,0,0,0,1.259,1.2Q-2.6,5.216.291,7.626c.619.523,1.126.929,1.513,1.221a8.222,8.222,0,0,0,1.581.886,4.545,4.545,0,0,0,1.87.447h.035a4.557,4.557,0,0,0,1.872-.447,8.274,8.274,0,0,0,1.578-.886q.585-.437,1.515-1.221,2.882-2.408,7.775-6.17a10.5,10.5,0,0,0,1.259-1.2V14.267a.567.567,0,0,1-.174.412M18.438-2.512A8.477,8.477,0,0,1,16.6-.406Q13.085,2.37,9.287,5.38c-.074.063-.286.24-.638.54s-.635.526-.839.684-.48.349-.812.575a4.925,4.925,0,0,1-.924.5,2.155,2.155,0,0,1-.785.164H5.253a2.177,2.177,0,0,1-.785-.164,4.911,4.911,0,0,1-.921-.5c-.335-.226-.605-.417-.812-.575S2.248,6.217,1.9,5.92s-.567-.477-.638-.54q-3.8-3.009-7.32-5.786A6.382,6.382,0,0,1-8.743-5.587.556.556,0,0,1-8.569-6a.561.561,0,0,1,.409-.174H18.7a.672.672,0,0,1,.256.046.327.327,0,0,1,.164.136l.1.166a.479.479,0,0,1,.055.226c.005.1.011.183.011.237v.447a4.553,4.553,0,0,1-.85,2.4M20.766-7.65A2.812,2.812,0,0,0,18.7-8.508H-8.16a2.816,2.816,0,0,0-2.063.858,2.82,2.82,0,0,0-.856,2.063V14.267a2.82,2.82,0,0,0,.856,2.063,2.816,2.816,0,0,0,2.063.858H18.7a2.931,2.931,0,0,0,2.921-2.921V-5.587a2.812,2.812,0,0,0-.858-2.063" transform="translate(11.079 8.508)"/></g></g></g></svg>