<svg xmlns="http://www.w3.org/2000/svg" width="44" height="62" viewBox="0 0 44 62" fill="none">
              <path d="M21.6982 0C9.71943 0 0 8.91045 0 19.89C0 37.57 21.6982 61.88 21.6982 61.88C21.6982 61.88 43.3964 37.57 43.3964 19.89C43.3964 8.91045 33.6769 0 21.6982 0ZM21.6982 30.94C19.9816 30.94 18.3035 30.4215 16.8762 29.4502C15.4489 28.4788 14.3365 27.0982 13.6796 25.4829C13.0227 23.8676 12.8508 22.0902 13.1857 20.3754C13.5206 18.6606 14.3472 17.0855 15.561 15.8492C16.7748 14.6129 18.3213 13.771 20.0049 13.4299C21.6886 13.0888 23.4337 13.2638 25.0196 13.9329C26.6055 14.602 27.961 15.735 28.9147 17.1888C29.8684 18.6425 30.3775 20.3516 30.3775 22.1C30.3749 24.4437 29.4597 26.6907 27.8326 28.348C26.2054 30.0053 23.9993 30.9374 21.6982 30.94Z" fill="#F95C22"/>
          </svg>