<svg xmlns="http://www.w3.org/2000/svg" width="44" height="62" viewBox="0 0 44 62" fill="none">
    <path d="M21.6982 0C9.71943 0 0 8.79472 0 19.6317C0 37.0821 21.6982 61.0764 21.6982 61.0764C21.6982 61.0764 43.3964 37.0821 43.3964 19.6317C43.3964 8.79472 33.6769 0 21.6982 0ZM21.6982 30.5382C19.9816 30.5382 18.3035 30.0265 16.8762 29.0677C15.4489 28.109 14.3365 26.7463 13.6796 25.152C13.0227 23.5577 12.8508 21.8033 13.1857 20.1108C13.5206 18.4183 14.3472 16.8636 15.561 15.6433C16.7748 14.4231 18.3213 13.5921 20.0049 13.2554C21.6886 12.9188 23.4337 13.0916 25.0196 13.752C26.6055 14.4123 27.961 15.5307 28.9147 16.9655C29.8684 18.4004 30.3775 20.0873 30.3775 21.813C30.3749 24.1263 29.4597 26.3441 27.8326 27.9798C26.2054 29.6156 23.9993 30.5357 21.6982 30.5382Z" fill="#1254C5"/>
</svg>