<?xml version="1.0" encoding="UTF-8" standalone="no"?>
<svg
   xmlns:dc="http://purl.org/dc/elements/1.1/"
   xmlns:cc="http://creativecommons.org/ns#"
   xmlns:rdf="http://www.w3.org/1999/02/22-rdf-syntax-ns#"
   xmlns:svg="http://www.w3.org/2000/svg"
   xmlns="http://www.w3.org/2000/svg"
   xmlns:sodipodi="http://sodipodi.sourceforge.net/DTD/sodipodi-0.dtd"
   xmlns:inkscape="http://www.inkscape.org/namespaces/inkscape"
   width="64.231003"
   height="50.070019"
   viewBox="0 0 64.231003 50.070019"
   version="1.1"
   id="svg41"
   sodipodi:docname="minilogo.svg"
   inkscape:version="0.92.4 (5da689c313, 2019-01-14)">
  <metadata
     id="metadata45">
    <rdf:RDF>
      <cc:Work
         rdf:about="">
        <dc:format>image/svg+xml</dc:format>
        <dc:type
           rdf:resource="http://purl.org/dc/dcmitype/StillImage" />
        <dc:title></dc:title>
      </cc:Work>
    </rdf:RDF>
  </metadata>
  <sodipodi:namedview
     pagecolor="#ffffff"
     bordercolor="#666666"
     borderopacity="1"
     objecttolerance="10"
     gridtolerance="10"
     guidetolerance="10"
     inkscape:pageopacity="0"
     inkscape:pageshadow="2"
     inkscape:window-width="1440"
     inkscape:window-height="959"
     id="namedview43"
     showgrid="false"
     inkscape:zoom="3.2565029"
     inkscape:cx="-44.550763"
     inkscape:cy="16.97485"
     inkscape:window-x="3052"
     inkscape:window-y="239"
     inkscape:window-maximized="0"
     inkscape:current-layer="svg41"
     fit-margin-top="0"
     fit-margin-left="0"
     fit-margin-right="0"
     fit-margin-bottom="0" />
  <defs
     id="defs7">
    <style
       id="style2">.a{fill:none;}.b{clip-path:url(#a);}.c{fill:#fe6824;}</style>
    <clipPath
       id="a">
      <rect
         class="a"
         width="241"
         height="50.063"
         id="rect4"
         x="0"
         y="0"
         style="fill:none" />
    </clipPath>
  </defs>
  <path
     id="path35"
     style="fill:#fe6824;stroke:none"
     d="m 53.72,50.067 c -2.13309,0.0059 -4.18053,-0.838805 -5.689,-2.347 l -3.72,-3.72 1.532,-1.533 3.721,3.721 c 2.2889,2.289096 5.99849,2.294463 8.294,0.012 l 4.845,-4.818 1.528,1.538 -4.845,4.817 c -1.50567,1.498431 -3.54478,2.337596 -5.669,2.333 M 31.546,46.657 c -4.09402,0.0016 -8.02019,-1.626988 -10.911,-4.526 l -8.409,-8.409 1.532,-1.533 8.41,8.41 c 5.09249,5.143936 13.38755,5.195825 18.544,0.116 2.46434,-2.442368 3.84094,-5.774469 3.819,-9.244 -0.017,-3.478517 -1.41604,-6.807612 -3.889,-9.254 l -8.455,-8.456 1.531,-1.532 8.457,8.455 c 2.87713,2.850087 4.50443,6.726248 4.524,10.776 0.036,8.391243 -6.76169,15.210057 -15.153,15.2 M 21.492,0 0,21.5 l 10.192,10.191 1.532,-1.532 -8.661,-8.66 8.284,-8.283 5.5,5.5 1.862,-1.863 -5.5,-5.5 8.283,-8.283 8.29,8.29 1.531,-1.533 z"
     inkscape:connector-curvature="0"
     sodipodi:nodetypes="cccccccccccccccccccccccccccccccccccc" />
</svg>
