<?xml version="1.0" encoding="UTF-8" standalone="no"?>
<svg
   xmlns:dc="http://purl.org/dc/elements/1.1/"
   xmlns:cc="http://creativecommons.org/ns#"
   xmlns:rdf="http://www.w3.org/1999/02/22-rdf-syntax-ns#"
   xmlns:svg="http://www.w3.org/2000/svg"
   xmlns="http://www.w3.org/2000/svg"
   xmlns:sodipodi="http://sodipodi.sourceforge.net/DTD/sodipodi-0.dtd"
   xmlns:inkscape="http://www.inkscape.org/namespaces/inkscape"
   width="254.94128"
   height="391.18918"
   viewBox="0 0 254.94128 391.18917"
   version="1.1"
   id="svg148"
   sodipodi:docname="organize_you_activity_boy.svg"
   inkscape:version="0.92.4 (5da689c313, 2019-01-14)">
  <metadata
     id="metadata152">
    <rdf:RDF>
      <cc:Work
         rdf:about="">
        <dc:format>image/svg+xml</dc:format>
        <dc:type
           rdf:resource="http://purl.org/dc/dcmitype/StillImage" />
        <dc:title></dc:title>
      </cc:Work>
    </rdf:RDF>
  </metadata>
  <sodipodi:namedview
     pagecolor="#ffffff"
     bordercolor="#666666"
     borderopacity="1"
     objecttolerance="10"
     gridtolerance="10"
     guidetolerance="10"
     inkscape:pageopacity="0"
     inkscape:pageshadow="2"
     inkscape:window-width="1468"
     inkscape:window-height="1056"
     id="namedview150"
     showgrid="false"
     fit-margin-top="0"
     fit-margin-left="0"
     fit-margin-right="0"
     fit-margin-bottom="0"
     inkscape:zoom="0.62421641"
     inkscape:cx="65.789337"
     inkscape:cy="202.15224"
     inkscape:window-x="819"
     inkscape:window-y="155"
     inkscape:window-maximized="0"
     inkscape:current-layer="svg148" />
  <defs
     id="defs4">
    <style
       id="style2">.a{fill:#faae45;}.b{fill:#fff;}.c{fill:#5b3d90;}.d{fill:#2a2a2a;}.e{fill:#0061a9;}.f{fill:#68a5d6;}.g{fill:#fdc3a3;}.h{fill:#ac4e28;}.i{fill:#954123;}.j{fill:#893a18;}.k{fill:#040505;}.l{fill:#232627;}.m{fill:#e1dedd;}.n{fill:#53baab;}</style>
    <style
       id="style680">.a{fill:#223a4b;}.b{fill:#c8caca;}.c{fill:#53baab;}.d{fill:#23998c;}.e{fill:#fff;}.f{fill:#091e2a;}.g{fill:#e1f2fc;}.h{fill:#d7e5f5;}.i{fill:#37485a;}.j{fill:#ced0d0;}.k{fill:#6dc2b5;}.l{fill:#48a399;}.m{fill:#202e3a;}</style>
  </defs>
  <g
     id="g146"
     transform="translate(-6.6379894e-4,-7.7216177e-5)">
    <path
       class="a"
       d="m 363.76,304.291 c 5.091,-1.1 7.247,-9.741 14.047,-11.206 a 7.994,7.994 0 0 1 3.369,15.629 c -6.799,1.466 -12.325,-5.52 -17.416,-4.423 z"
       transform="translate(-292.635,-180.845)"
       id="path6"
       inkscape:connector-curvature="0"
       style="fill:#faae45" />
    <g
       transform="translate(18.401,342.032)"
       id="g24">
      <rect
         class="b"
         width="10.679"
         height="12.014"
         transform="translate(56.066)"
         id="rect8"
         x="0"
         y="0"
         style="fill:#ffffff" />
      <rect
         class="b"
         width="10.679"
         height="12.014"
         transform="translate(21.358)"
         id="rect10"
         x="0"
         y="0"
         style="fill:#ffffff" />
      <g
         transform="translate(0,6.263)"
         id="g16">
        <path
           class="c"
           d="m 335.168,481.974 c 1.363,-0.135 5.115,-0.6 5.115,-0.6 v -11.5 c 2.67,0.179 5.34,2.156 5.34,4.575 v 1.176 h 13.349 v 6.489 c 2.67,0.394 4,2.1 4,4.152 v 8.048 h -38.708 v -1.155 c 0,-6.199 3.666,-10.464 10.904,-11.185 z"
           transform="translate(-324.264,-469.873)"
           id="path12"
           inkscape:connector-curvature="0"
           style="fill:#5b3d90" />
        <path
           class="d"
           d="m 324.264,488.181 h 38.712 v 5.34 H 356.3 v -0.946 c 0,-1.283 -1.27,-1.723 -2.555,-1.723 h -0.027 c -1.285,0 -1.423,0.441 -1.423,1.723 v 0.946 h -6.675 v -0.946 c 0,-1.283 -1.755,-1.723 -3.04,-1.723 h -0.027 c -1.286,0 -2.273,0.441 -2.273,1.723 v 0.946 h -6.674 v -0.946 c 0,-1.283 -0.905,-1.723 -2.191,-1.723 h -0.025 c -1.286,0 -1.789,0.441 -1.789,1.723 v 0.946 h -5.34 z"
           transform="translate(-324.264,-463.742)"
           id="path14"
           inkscape:connector-curvature="0"
           style="fill:#2a2a2a" />
      </g>
      <g
         transform="translate(50.726,6.263)"
         id="g22">
        <path
           class="c"
           d="m 366.269,482.113 v -6.489 h 2.67 v -1.176 a 4.673,4.673 0 0 1 9.344,0 v 1.176 h 2.67 v 6.489 c 2.67,0.394 4,2.1 4,4.152 v 8.048 h -22.689 v -8.048 c 0,-2.048 1.336,-3.758 4.005,-4.152 z"
           transform="translate(-362.264,-469.873)"
           id="path18"
           inkscape:connector-curvature="0"
           style="fill:#5b3d90" />
        <path
           class="d"
           d="m 384.957,488.181 v 5.34 h -4 v -0.946 c 0,-1.283 -1.406,-1.723 -2.691,-1.723 h -0.025 c -1.286,0 -1.288,0.441 -1.288,1.723 v 0.946 h -6.674 v -0.946 c 0,-1.283 -1.168,-1.723 -2.456,-1.723 h -0.025 c -1.283,0 -1.523,0.441 -1.523,1.723 v 0.946 h -4 v -5.34 z"
           transform="translate(-362.264,-463.742)"
           id="path20"
           inkscape:connector-curvature="0"
           style="fill:#2a2a2a" />
      </g>
    </g>
    <path
       class="e"
       d="M 395.665,368.181 V 392.8 c 0,3.656 -3.86,7.753 -6.61,9.9 l -0.4,97.637 h -14.433 l 0.222,-96.508 -22.182,0.187 -0.08,96.321 H 338.264 V 368.181 Z"
       transform="translate(-301.174,-155.634)"
       id="path26"
       inkscape:connector-curvature="0"
       style="fill:#0061a9" />
    <rect
       class="f"
       width="17.354"
       height="6.6750002"
       transform="translate(35.755,338.027)"
       id="rect28"
       x="0"
       y="0"
       style="fill:#68a5d6" />
    <rect
       class="f"
       width="17.354"
       height="6.6750002"
       transform="translate(71.797,338.027)"
       id="rect30"
       x="0"
       y="0"
       style="fill:#68a5d6" />
    <g
       transform="translate(20.837,0.054)"
       id="g76">
      <path
         class="g"
         d="m 326.1,254.46 a 9.3,9.3 0 1 0 8.9,-9.71 9.31,9.31 0 0 0 -8.9,9.71 z"
         transform="translate(-326.089,-197.029)"
         id="path32"
         inkscape:connector-curvature="0"
         style="fill:#fdc3a3" />
      <path
         class="g"
         d="m 332.813,265.858 a 34.671,34.671 0 0 0 36.113,33.163 v 0 a 34.671,34.671 0 0 0 33.164,-36.113 l -0.553,-12.919 c -0.326,-7.712 0.076,-18.615 -4.432,-24.19 -6.674,-8.251 -20.261,-9.456 -31.679,-8.971 v 0 a 34.672,34.672 0 0 0 -33.164,36.112 z"
         transform="translate(-324.031,-206.408)"
         id="path34"
         inkscape:connector-curvature="0"
         style="fill:#fdc3a3" />
      <path
         class="g"
         d="m 377.88,253.291 a 9.3,9.3 0 1 0 8.9,-9.71 9.315,9.315 0 0 0 -8.9,9.71 z"
         transform="translate(-308.746,-197.42)"
         id="path36"
         inkscape:connector-curvature="0"
         style="fill:#fdc3a3" />
      <path
         class="h"
         d="m 384.942,255.441 a 13.586,13.586 0 0 0 1.851,-1.486 c 0,0 4.453,-10.646 2.393,-18.2 -0.748,-3.348 -2.935,-7.566 -5.777,-11.7 l -8.7,7.811 c 3.558,5.018 8.463,11.401 10.233,23.575 z"
         transform="translate(-309.807,-203.956)"
         id="path38"
         inkscape:connector-curvature="0"
         style="fill:#ac4e28" />
      <path
         class="h"
         d="M 342.324,228.395 335.5,225.8 c 0,0 -6.576,9.352 -3.389,25.534 l 0.808,0.278 c 0,0 0.397,-16.193 9.405,-23.217 z"
         transform="translate(-324.362,-203.372)"
         id="path40"
         inkscape:connector-curvature="0"
         style="fill:#ac4e28" />
      <path
         class="i"
         d="m 398.615,228.774 -8.754,7.764 c 0,0 -34.132,3.423 -49.782,-2.871 -7.564,-3.041 -9.587,-4.722 -11.475,-21.892 10.457,15.744 70.22,-25.194 70.011,16.999 z"
         transform="translate(-325.247,-208.999)"
         id="path42"
         inkscape:connector-curvature="0"
         style="fill:#954123" />
      <g
         transform="translate(28.233,60.423)"
         id="g62">
        <path
           class="j"
           d="m 355.438,256.934 a 0.811,0.811 0 1 1 -0.678,-0.91 0.8,0.8 0 0 1 0.678,0.91 z"
           transform="translate(-345.032,-253.676)"
           id="path44"
           inkscape:connector-curvature="0"
           style="fill:#893a18" />
        <path
           class="j"
           d="m 358.349,255.1 a 0.6,0.6 0 1 1 -0.5,-0.663 0.59,0.59 0 0 1 0.5,0.663 z"
           transform="translate(-343.913,-254.208)"
           id="path46"
           inkscape:connector-curvature="0"
           style="fill:#893a18" />
        <path
           class="j"
           d="m 360.77,257.763 a 0.811,0.811 0 1 1 -0.681,-0.908 0.8,0.8 0 0 1 0.681,0.908 z"
           transform="translate(-343.247,-253.398)"
           id="path48"
           inkscape:connector-curvature="0"
           style="fill:#893a18" />
        <path
           class="j"
           d="m 362.2,255.061 a 0.706,0.706 0 1 1 -0.591,-0.79 0.7,0.7 0 0 1 0.591,0.79 z"
           transform="translate(-342.696,-254.263)"
           id="path50"
           inkscape:connector-curvature="0"
           style="fill:#893a18" />
        <path
           class="j"
           d="m 364.894,257.226 a 0.834,0.834 0 1 1 -0.7,-0.934 0.822,0.822 0 0 1 0.7,0.934 z"
           transform="translate(-341.88,-253.587)"
           id="path52"
           inkscape:connector-curvature="0"
           style="fill:#893a18" />
        <path
           class="j"
           d="m 367.7,258.7 a 0.661,0.661 0 1 1 -0.553,-0.74 0.653,0.653 0 0 1 0.553,0.74 z"
           transform="translate(-340.826,-253.027)"
           id="path54"
           inkscape:connector-curvature="0"
           style="fill:#893a18" />
        <path
           class="j"
           d="m 352.045,258.665 a 0.718,0.718 0 1 1 -0.6,-0.8 0.707,0.707 0 0 1 0.6,0.8 z"
           transform="translate(-346.106,-253.061)"
           id="path56"
           inkscape:connector-curvature="0"
           style="fill:#893a18" />
        <path
           class="j"
           d="m 352.489,255.8 a 0.716,0.716 0 1 1 -0.6,-0.8 0.705,0.705 0 0 1 0.6,0.8 z"
           transform="translate(-345.956,-254.02)"
           id="path58"
           inkscape:connector-curvature="0"
           style="fill:#893a18" />
        <path
           class="j"
           d="m 348.664,258.138 a 0.718,0.718 0 1 1 -0.6,-0.8 0.706,0.706 0 0 1 0.6,0.8 z"
           transform="translate(-347.238,-253.237)"
           id="path60"
           inkscape:connector-curvature="0"
           style="fill:#893a18" />
      </g>
      <g
         transform="translate(7.183,46.051)"
         id="g66">
        <path
           class="k"
           d="m 331.475,249.284 0.005,0.116 0.027,0.113 c 0.067,0.291 1.683,8.521 2.583,10.8 0.727,1.847 2.87,5.342 5.761,5.334 l 15.373,-0.037 c 5.348,-0.015 7.05,-13.119 7.363,-15.844 a 2.736,2.736 0 0 1 2.492,-1.725 3.045,3.045 0 0 1 2.708,1.858 c 0.607,3.009 3.411,15.669 8.666,15.656 l 15.373,-0.039 c 2.889,-0.008 4.74,-3.512 5.312,-5.364 a 93.924,93.924 0 0 0 1.65,-10.81 v -0.115 l -0.005,-0.116 a 5.617,5.617 0 0 0 -5.394,-5.617 l -20.608,0.192 h -0.164 l -15.415,-0.1 -20.772,-0.017 c -2.865,0.007 -5.088,2.531 -4.955,5.715 z m 38.876,-0.607 a 3.2,3.2 0 0 1 2.542,-1.327 l 20.006,0.021 c 1.683,-0.005 2.292,1.488 2.422,3.347 -0.135,0.936 -0.589,6.9 -1.191,8.849 -0.5,1.613 -1.053,3.886 -3.17,3.718 l -14.6,-0.033 c -3.072,0.008 -5.635,-8.425 -6.456,-12.626 a 2.483,2.483 0 0 1 0.448,-1.95 z m -35.727,2.192 c -0.025,-1.857 0.814,-3.425 2.5,-3.431 l 20,0.023 a 3.5,3.5 0 0 1 2.656,1.315 2.647,2.647 0 0 1 0.613,1.945 c -0.469,4.206 -2.192,12.576 -5.269,12.583 l -14.6,-0.033 c -2.364,-0.081 -3.089,-2.556 -3.726,-4.165 -0.765,-1.944 -1.959,-7.301 -2.173,-8.238 z"
           transform="translate(-331.47,-243.497)"
           id="path64"
           inkscape:connector-curvature="0"
           style="fill:#040505" />
      </g>
      <g
         transform="translate(21.538,55.107)"
         id="g74">
        <path
           class="b"
           d="m 345.441,263.1 29.9,-0.559 c 0,0 -5.077,10.671 -14.752,10.671 -9.553,-0.002 -14.723,-7.973 -15.148,-10.112 z"
           transform="translate(-341.146,-246.175)"
           id="path68"
           inkscape:connector-curvature="0"
           style="fill:#ffffff" />
        <path
           class="k"
           d="m 349.911,255.435 a 3.912,3.912 0 1 1 -2.664,-5.021 4.024,4.024 0 0 1 2.664,5.021 z"
           transform="translate(-342.223,-250.28)"
           id="path70"
           inkscape:connector-curvature="0"
           style="fill:#040505" />
        <path
           class="k"
           d="m 374.017,255.435 a 3.91,3.91 0 1 1 -2.664,-5.021 4.023,4.023 0 0 1 2.664,5.021 z"
           transform="translate(-334.149,-250.28)"
           id="path72"
           inkscape:connector-curvature="0"
           style="fill:#040505" />
      </g>
    </g>
    <path
       class="l"
       d="m 403.044,332.046 17.033,-6.795 a 0.043,0.043 0 0 0 0.028,-0.045 c -1.527,-18.579 -19.875,-40.473 -49.193,-40.473 -29.318,0 -47.555,21.894 -49.082,40.473 a 0.045,0.045 0 0 0 0.029,0.045 l 17.077,6.795 a 0.045,0.045 0 0 1 0.028,0.041 v 86.69 a 0.044,0.044 0 0 0 0.044,0.044 h 63.962 a 0.044,0.044 0 0 0 0.044,-0.044 v -86.69 a 0.045,0.045 0 0 1 0.03,-0.041 z"
       transform="translate(-306.677,-183.581)"
       id="path78"
       inkscape:connector-curvature="0"
       style="fill:#232627" />
    <path
       class="g"
       d="m 376.532,346.319 c -0.561,1.288 5.91,-2.168 3.957,-2.495 -1.953,-0.327 -9.052,-4.5 -9.973,-5.1 -0.921,-0.6 -2.656,0.055 -2.116,1.466 0.54,1.411 9.38,3.25 8.132,6.125"
       transform="translate(-291.116,-165.572)"
       id="path80"
       inkscape:connector-curvature="0"
       style="fill:#fdc3a3" />
    <path
       class="m"
       d="m 378.032,341.575 h -2.138 a 0.983,0.983 0 1 0 0,-1.966 h -3.732 a 0.983,0.983 0 1 0 0,1.966 h -11.127 a 0.983,0.983 0 0 0 0,-1.966 H 357.3 a 0.983,0.983 0 0 0 0,1.966 h -1.841 a 4.748,4.748 0 0 0 -4.84,4.344 4.551,4.551 0 0 0 4.545,4.754 h 22.576 a 4.749,4.749 0 0 0 4.84,-4.345 4.547,4.547 0 0 0 -4.545,-4.752"
       transform="translate(-297.039,-165.203)"
       id="path82"
       inkscape:connector-curvature="0"
       style="fill:#e1dedd" />
    <path
       class="g"
       d="m 344.969,347.668 c 0,0 4.663,-9.2 11.883,-7.684 4.639,0.976 -0.148,2.685 -0.852,2.685 -1.344,0 -5.271,4.513 -1.627,5.7 3.084,1 11.925,-2.331 12.388,0.6 0.258,1.633 -2.548,2.48 -2.548,2.48 0,0 2.169,0.033 2.317,0.894 0.239,1.384 -2.373,1.722 -2.373,1.722 0,0 1.629,0.622 1.193,1.491 -0.436,0.869 -9.478,4.188 -15.5,2.195 -8.909,-2.935 -4.879,-10.084 -4.879,-10.084"
       transform="translate(-299.233,-165.134)"
       id="path84"
       inkscape:connector-curvature="0"
       style="fill:#fdc3a3" />
    <path
       class="g"
       d="m 377.174,345.037 a 4.712,4.712 0 0 1 -3.416,2.331 c -0.92,0 -4.553,-2.874 -5.744,-1.167 -1.191,1.707 1.679,3.172 1.679,3.172 0,0 -2.6,-1.408 -3.2,0 -0.6,1.408 1.734,2.494 1.734,2.494 0,0 -1.7,-0.21 -1.834,0.542 -0.37,2.187 5.584,3.284 10.8,3.954 5.057,0.654 8.718,-1.958 9.3,-5.234 0.626,-3.483 -0.43,-7.43 -5.369,-8.586 -1.924,-0.451 -2.708,-0.379 -3.957,2.495"
       transform="translate(-291.758,-164.29)"
       id="path86"
       inkscape:connector-curvature="0"
       style="fill:#fdc3a3" />
    <path
       class="g"
       d="m 402.98,369.235 a 76.294,76.294 0 0 1 -9.574,-0.724 166.633,166.633 0 0 1 -18.709,-3.576 c -0.024,-0.007 -0.028,-0.028 -0.021,-0.052 l 3.158,-12.174 c 0.007,-0.024 0.02,-0.04 0.044,-0.035 0.521,0.133 7.055,1.789 14.331,2.883 9.378,1.412 13.734,0.969 15.514,0.569 a 0.038,0.038 0 0 0 0.032,-0.048 c -0.419,-2.3 -2.188,-8.218 -9.459,-21.294 -3.241,-5.824 -6.578,-11.291 -8.68,-14.641 a 0.043,0.043 0 0 1 0.021,-0.063 l 11.851,-4.727 a 0.043,0.043 0 0 1 0.053,0.017 c 2.255,3.646 5.341,8.746 8.328,14.171 11.041,20.041 11.383,26.889 10.257,30.946 -1.988,7.176 -10.016,8.748 -17.15,8.748"
       transform="translate(-288.981,-173.328)"
       id="path88"
       inkscape:connector-curvature="0"
       style="fill:#fdc3a3" />
    <path
       class="g"
       d="m 333.034,368.482 c -12.6,0 -17.105,-3.217 -19.428,-5.864 -5.516,-6.3 -3.786,-17.005 5.613,-34.7 2.431,-4.583 5.013,-9 7.231,-12.557 a 0.043,0.043 0 0 1 0.053,-0.017 l 11.931,4.747 a 0.043,0.043 0 0 1 0.021,0.063 c -2.109,3.309 -4.8,7.716 -7.287,12.289 -8.538,15.693 -8.112,20.943 -7.919,21.9 a 0.036,0.036 0 0 0 0.019,0.025 c 0.722,0.449 4.687,2.352 18.487,0.965 a 164.2,164.2 0 0 0 17.007,-2.7 0.039,0.039 0 0 1 0.047,0.035 l 2.75,12.274 c 0.005,0.024 0,0.045 -0.023,0.051 a 173.831,173.831 0 0 1 -18.976,2.988 c -3.607,0.351 -6.763,0.506 -9.527,0.506"
       transform="translate(-310.479,-173.333)"
       id="path90"
       inkscape:connector-curvature="0"
       style="fill:#fdc3a3" />
    <path
       class="n"
       d="m 371.175,327.914 a 2.837,2.837 0 0 1 -4.01,0 7,7 0 0 0 -9.738,-0.148 3.019,3.019 0 0 1 -3.914,0.372 2.838,2.838 0 0 1 -0.251,-4.234 12.682,12.682 0 0 1 17.913,0 2.834,2.834 0 0 1 0,4.01"
       transform="translate(-296.429,-171.703)"
       id="path92"
       inkscape:connector-curvature="0"
       style="fill:#53baab" />
    <path
       class="n"
       d="m 389.237,318.6 a 2.837,2.837 0 0 1 -4.01,0 27.448,27.448 0 0 0 -38.592,-0.178 3,3 0 0 1 -3.981,0.366 2.839,2.839 0 0 1 -0.21,-4.2 33.125,33.125 0 0 1 46.792,0 2.839,2.839 0 0 1 0,4.01"
       transform="translate(-300.051,-176.824)"
       id="path94"
       inkscape:connector-curvature="0"
       style="fill:#53baab" />
    <path
       class="n"
       d="m 379.872,323.427 a 2.837,2.837 0 0 1 -4.01,0 16.846,16.846 0 0 0 -23.716,-0.079 2.941,2.941 0 0 1 -3.871,0.278 2.837,2.837 0 0 1 -0.22,-4.209 22.527,22.527 0 0 1 31.817,0 2.839,2.839 0 0 1 0,4.01"
       transform="translate(-298.173,-174.168)"
       id="path96"
       inkscape:connector-curvature="0"
       style="fill:#53baab" />
    <path
       class="g"
       d="m 349.734,288.775 a 43.024,43.024 0 0 1 4.625,-0.8 0.05,0.05 0 0 0 0.04,-0.04 l 1.064,-11.108 a 0.043,0.043 0 0 1 0.043,-0.04 l 11.794,-0.429 a 0.044,0.044 0 0 1 0.045,0.043 l 0.45,11.4 a 0.047,0.047 0 0 0 0.041,0.043 36.2,36.2 0 0 1 5.657,0.92 13.4,13.4 0 0 1 -0.024,1.714 c -0.291,7.3 -5.838,12.958 -12.389,12.632 -6.551,-0.326 -11.626,-6.508 -11.336,-13.81 0.006,-0.126 -0.018,-0.406 -0.01,-0.525 z"
       transform="translate(-297.333,-186.387)"
       id="path98"
       inkscape:connector-curvature="0"
       style="fill:#fdc3a3" />
    <g
       transform="translate(20.426)"
       id="g144">
      <path
         class="g"
         d="m 325.789,254.421 a 9.3,9.3 0 1 0 8.9,-9.711 9.31,9.31 0 0 0 -8.9,9.711 z"
         transform="translate(-325.781,-196.988)"
         id="path100"
         inkscape:connector-curvature="0"
         style="fill:#fdc3a3" />
      <path
         class="g"
         d="m 332.506,265.817 a 34.669,34.669 0 0 0 36.112,33.163 v 0 a 34.67,34.67 0 0 0 33.164,-36.113 l -0.553,-12.918 c -0.326,-7.713 0.076,-18.617 -4.432,-24.19 -6.674,-8.252 -20.261,-9.456 -31.679,-8.972 v 0 A 34.671,34.671 0 0 0 331.956,252.9 Z"
         transform="translate(-323.723,-206.367)"
         id="path102"
         inkscape:connector-curvature="0"
         style="fill:#fdc3a3" />
      <path
         class="g"
         d="m 377.573,253.252 a 9.3,9.3 0 1 0 8.9,-9.711 9.314,9.314 0 0 0 -8.9,9.711 z"
         transform="translate(-308.438,-197.38)"
         id="path104"
         inkscape:connector-curvature="0"
         style="fill:#fdc3a3" />
      <path
         class="h"
         d="m 384.636,255.4 a 13.687,13.687 0 0 0 1.85,-1.487 c 0,0 4.453,-10.645 2.393,-18.2 -0.748,-3.347 -2.935,-7.566 -5.777,-11.7 l -8.7,7.81 c 3.557,5.02 8.464,11.403 10.234,23.577 z"
         transform="translate(-309.499,-203.915)"
         id="path106"
         inkscape:connector-curvature="0"
         style="fill:#ac4e28" />
      <path
         class="h"
         d="M 342.017,228.354 335.2,225.76 c 0,0 -6.576,9.352 -3.389,25.534 l 0.809,0.278 c 0,0 0.389,-16.194 9.397,-23.218 z"
         transform="translate(-324.054,-203.331)"
         id="path108"
         inkscape:connector-curvature="0"
         style="fill:#ac4e28" />
      <path
         class="i"
         d="m 398.307,228.734 -8.754,7.762 c 0,0 -34.131,3.424 -49.783,-2.87 -7.563,-3.042 -9.587,-4.722 -11.475,-21.894 10.458,15.746 70.221,-25.192 70.012,17.002 z"
         transform="translate(-324.938,-208.958)"
         id="path110"
         inkscape:connector-curvature="0"
         style="fill:#954123" />
      <g
         transform="translate(28.233,60.423)"
         id="g130">
        <path
           class="j"
           d="m 355.13,256.893 a 0.811,0.811 0 1 1 -0.678,-0.909 0.8,0.8 0 0 1 0.678,0.909 z"
           transform="translate(-344.724,-253.636)"
           id="path112"
           inkscape:connector-curvature="0"
           style="fill:#893a18" />
        <path
           class="j"
           d="m 358.041,255.055 a 0.595,0.595 0 1 1 -0.5,-0.663 0.59,0.59 0 0 1 0.5,0.663 z"
           transform="translate(-343.605,-254.168)"
           id="path114"
           inkscape:connector-curvature="0"
           style="fill:#893a18" />
        <path
           class="j"
           d="m 360.462,257.722 a 0.812,0.812 0 1 1 -0.681,-0.906 0.8,0.8 0 0 1 0.681,0.906 z"
           transform="translate(-342.939,-253.358)"
           id="path116"
           inkscape:connector-curvature="0"
           style="fill:#893a18" />
        <path
           class="j"
           d="m 361.9,255.021 a 0.706,0.706 0 1 1 -0.591,-0.79 0.7,0.7 0 0 1 0.591,0.79 z"
           transform="translate(-342.388,-254.222)"
           id="path118"
           inkscape:connector-curvature="0"
           style="fill:#893a18" />
        <path
           class="j"
           d="m 364.586,257.185 a 0.834,0.834 0 1 1 -0.7,-0.934 0.822,0.822 0 0 1 0.7,0.934 z"
           transform="translate(-341.572,-253.547)"
           id="path120"
           inkscape:connector-curvature="0"
           style="fill:#893a18" />
        <path
           class="j"
           d="m 367.391,258.659 a 0.661,0.661 0 1 1 -0.553,-0.74 0.652,0.652 0 0 1 0.553,0.74 z"
           transform="translate(-340.518,-252.987)"
           id="path122"
           inkscape:connector-curvature="0"
           style="fill:#893a18" />
        <path
           class="j"
           d="m 351.737,258.623 a 0.718,0.718 0 1 1 -0.6,-0.8 0.708,0.708 0 0 1 0.6,0.8 z"
           transform="translate(-345.798,-253.02)"
           id="path124"
           inkscape:connector-curvature="0"
           style="fill:#893a18" />
        <path
           class="j"
           d="m 352.181,255.759 a 0.716,0.716 0 1 1 -0.6,-0.8 0.7,0.7 0 0 1 0.6,0.8 z"
           transform="translate(-345.648,-253.98)"
           id="path126"
           inkscape:connector-curvature="0"
           style="fill:#893a18" />
        <path
           class="j"
           d="m 348.356,258.1 a 0.718,0.718 0 0 1 -1.418,-0.222 0.718,0.718 0 0 1 1.418,0.222 z"
           transform="translate(-346.93,-253.197)"
           id="path128"
           inkscape:connector-curvature="0"
           style="fill:#893a18" />
      </g>
      <g
         transform="translate(7.183,46.051)"
         id="g134">
        <path
           class="k"
           d="m 331.167,249.243 0.005,0.116 0.027,0.113 c 0.068,0.291 1.683,8.521 2.583,10.8 0.728,1.849 2.871,5.342 5.763,5.334 l 15.371,-0.036 c 5.348,-0.016 7.051,-13.119 7.363,-15.844 a 2.734,2.734 0 0 1 2.493,-1.726 3.042,3.042 0 0 1 2.708,1.857 c 0.607,3.009 3.411,15.669 8.668,15.657 l 15.371,-0.04 c 2.889,-0.007 4.74,-3.511 5.312,-5.362 a 93.985,93.985 0 0 0 1.65,-10.811 v -0.115 l -0.005,-0.116 a 5.617,5.617 0 0 0 -5.394,-5.617 l -20.607,0.192 h -0.164 l -15.417,-0.1 -20.772,-0.019 c -2.865,0.009 -5.087,2.533 -4.955,5.717 z m 38.876,-0.607 a 3.2,3.2 0 0 1 2.543,-1.327 l 20,0.023 c 1.685,-0.005 2.292,1.487 2.422,3.345 -0.135,0.937 -0.589,6.9 -1.191,8.849 -0.5,1.613 -1.053,3.887 -3.17,3.719 l -14.6,-0.035 c -3.07,0.008 -5.633,-8.423 -6.456,-12.625 a 2.492,2.492 0 0 1 0.453,-1.95 z m -35.726,2.193 c -0.027,-1.858 0.813,-3.427 2.5,-3.432 l 20,0.023 a 3.5,3.5 0 0 1 2.656,1.315 2.641,2.641 0 0 1 0.613,1.945 c -0.469,4.208 -2.192,12.576 -5.269,12.583 l -14.6,-0.033 c -2.365,-0.081 -3.09,-2.555 -3.726,-4.164 -0.766,-1.943 -1.96,-7.302 -2.173,-8.237 z"
           transform="translate(-331.162,-243.456)"
           id="path132"
           inkscape:connector-curvature="0"
           style="fill:#040505" />
      </g>
      <g
         transform="translate(21.538,55.106)"
         id="g142">
        <path
           class="b"
           d="m 345.133,263.057 29.9,-0.559 c 0,0 -5.075,10.671 -14.751,10.671 -9.554,0 -14.725,-7.969 -15.149,-10.112 z"
           transform="translate(-340.838,-246.134)"
           id="path136"
           inkscape:connector-curvature="0"
           style="fill:#ffffff" />
        <path
           class="k"
           d="m 349.6,255.394 a 3.912,3.912 0 1 1 -2.664,-5.021 4.022,4.022 0 0 1 2.664,5.021 z"
           transform="translate(-341.915,-250.239)"
           id="path138"
           inkscape:connector-curvature="0"
           style="fill:#040505" />
        <path
           class="k"
           d="m 373.71,255.394 a 3.91,3.91 0 1 1 -2.666,-5.021 4.024,4.024 0 0 1 2.666,5.021 z"
           transform="translate(-333.841,-250.239)"
           id="path140"
           inkscape:connector-curvature="0"
           style="fill:#040505" />
      </g>
    </g>
  </g>
  <g
     id="g943"
     transform="matrix(0.82736357,0,0,0.82736357,116.74261,289.96289)">
    <rect
       id="rect684"
       transform="rotate(-45.002,37.318945,-47.584664)"
       height="26.139999"
       width="1.77"
       class="a"
       x="0"
       y="0"
       style="fill:#223a4b" />
    <path
       id="path686"
       transform="translate(-832.622,-890.653)"
       d="m 880.638,900.9 a 4.073,4.073 0 1 1 -4.076,-4.071 4.075,4.075 0 0 1 4.076,4.071"
       class="a"
       inkscape:connector-curvature="0"
       style="fill:#223a4b" />
    <rect
       id="rect688"
       transform="rotate(-44.996,87.192881,-109.16525)"
       height="1.7690001"
       width="26.139"
       class="a"
       x="0"
       y="0"
       style="fill:#223a4b" />
    <path
       id="path690"
       transform="translate(-812.765,-890.653)"
       d="m 931.782,900.9 a 4.073,4.073 0 1 0 4.073,-4.071 4.074,4.074 0 0 0 -4.073,4.071"
       class="a"
       inkscape:connector-curvature="0"
       style="fill:#223a4b" />
    <path
       id="path692"
       transform="translate(-823.753,-892.203)"
       d="m 915.572,900.5 a 8.3,8.3 0 1 1 -8.3,-8.3 8.3,8.3 0 0 1 8.3,8.3"
       class="a"
       inkscape:connector-curvature="0"
       style="fill:#223a4b" />
    <rect
       id="rect694"
       transform="translate(120.208,74.94)"
       height="4.7680001"
       width="26.364"
       class="b"
       x="0"
       y="0"
       style="fill:#c8caca" />
    <rect
       id="rect696"
       transform="translate(147.333,80.759)"
       height="26.362"
       width="4.7680001"
       class="b"
       x="0"
       y="0"
       style="fill:#c8caca" />
    <path
       id="path698"
       transform="translate(-806.827,-874.568)"
       d="m 963.579,951.894 a 7.034,7.034 0 1 1 -7.034,-7.033 7.034,7.034 0 0 1 7.034,7.033"
       class="c"
       inkscape:connector-curvature="0"
       style="fill:#53baab" />
    <path
       id="path700"
       transform="translate(-809.406,-865.852)"
       d="M 959.126,970.887 A 17.316,17.316 0 0 0 941.812,988.2 h 4.619 a 12.7,12.7 0 1 1 25.391,0 h 4.619 a 17.318,17.318 0 0 0 -17.315,-17.315"
       class="a"
       inkscape:connector-curvature="0"
       style="fill:#223a4b" />
    <path
       id="path702"
       transform="translate(-806.827,-867.093)"
       d="m 963.579,974.215 a 7.034,7.034 0 1 1 -7.034,-7.034 7.034,7.034 0 0 1 7.034,7.034"
       class="c"
       inkscape:connector-curvature="0"
       style="fill:#53baab" />
    <rect
       id="rect704"
       transform="translate(20.462,74.94)"
       height="4.7680001"
       width="26.362"
       class="b"
       x="0"
       y="0"
       style="fill:#c8caca" />
    <rect
       id="rect706"
       transform="translate(14.93,80.759)"
       height="26.362"
       width="4.7680001"
       class="b"
       x="0"
       y="0"
       style="fill:#c8caca" />
    <path
       id="path708"
       transform="translate(-840.045,-874.568)"
       d="m 850.326,951.894 a 7.033,7.033 0 1 0 7.032,-7.033 7.033,7.033 0 0 0 -7.032,7.033"
       class="c"
       inkscape:connector-curvature="0"
       style="fill:#53baab" />
    <path
       id="path710"
       transform="translate(-842.624,-865.852)"
       d="m 859.937,970.887 a 17.318,17.318 0 0 1 17.317,17.313 h -4.619 a 12.7,12.7 0 1 0 -25.391,0 h -4.619 a 17.314,17.314 0 0 1 17.312,-17.315"
       class="a"
       inkscape:connector-curvature="0"
       style="fill:#223a4b" />
    <path
       id="path712"
       transform="translate(-840.045,-867.093)"
       d="m 850.326,974.215 a 7.033,7.033 0 1 0 7.032,-7.034 7.034,7.034 0 0 0 -7.032,7.034"
       class="c"
       inkscape:connector-curvature="0"
       style="fill:#53baab" />
    <path
       id="path714"
       transform="translate(-816.224,-875.694)"
       d="M 945.73,953.636 A 12.138,12.138 0 1 1 933.593,941.5 12.136,12.136 0 0 1 945.73,953.637"
       class="a"
       inkscape:connector-curvature="0"
       style="fill:#223a4b" />
    <path
       id="path716"
       transform="translate(-833.21,-875.694)"
       d="M 895.014,953.636 A 12.14,12.14 0 1 1 882.877,941.5 12.136,12.136 0 0 1 895.014,953.637"
       class="a"
       inkscape:connector-curvature="0"
       style="fill:#223a4b" />
    <path
       id="path718"
       transform="translate(-830.222,-890.121)"
       d="m 913.774,898.421 h -0.067 a 34.051,34.051 0 0 0 -34.052,34.049 v 60.376 H 947.82 V 932.47 a 34.048,34.048 0 0 0 -34.047,-34.049"
       class="c"
       inkscape:connector-curvature="0"
       style="fill:#53baab" />
    <rect
       id="rect720"
       transform="translate(47.684,100.438)"
       height="5.296"
       width="71.667999"
       class="d"
       x="0"
       y="0"
       style="fill:#23998c" />
    <rect
       id="rect722"
       transform="translate(49.432,49.463)"
       height="10.711"
       width="68.165001"
       class="d"
       x="0"
       y="0"
       style="fill:#23998c" />
    <rect
       id="rect724"
       transform="translate(59.052,42.343)"
       height="12.828"
       width="8.8269997"
       class="c"
       x="0"
       y="0"
       style="fill:#53baab" />
    <rect
       id="rect726"
       transform="translate(79.104,42.343)"
       height="12.828"
       width="8.8269997"
       class="c"
       x="0"
       y="0"
       style="fill:#53baab" />
    <rect
       id="rect728"
       transform="translate(99.156,42.343)"
       height="12.828"
       width="8.8269997"
       class="c"
       x="0"
       y="0"
       style="fill:#53baab" />
    <rect
       id="rect730"
       transform="translate(69.076,55.172)"
       height="12.828"
       width="8.8269997"
       class="c"
       x="0"
       y="0"
       style="fill:#53baab" />
    <rect
       id="rect732"
       transform="translate(89.128,55.172)"
       height="12.828"
       width="8.8269997"
       class="c"
       x="0"
       y="0"
       style="fill:#53baab" />
    <path
       id="path734"
       transform="translate(-827.265,-886.201)"
       d="m 902.843,917.306 a 7.179,7.179 0 1 1 -7.181,-7.18 7.178,7.178 0 0 1 7.181,7.18"
       class="a"
       inkscape:connector-curvature="0"
       style="fill:#223a4b" />
    <path
       id="path736"
       transform="translate(-826.521,-885.456)"
       d="m 899.132,916.562 a 4.212,4.212 0 1 1 -4.212,-4.213 4.213,4.213 0 0 1 4.212,4.213"
       class="e"
       inkscape:connector-curvature="0"
       style="fill:#ffffff" />
    <path
       id="path738"
       transform="translate(-825.832,-884.767)"
       d="m 895.7,915.873 a 1.466,1.466 0 1 1 -1.466,-1.466 1.468,1.468 0 0 1 1.466,1.466"
       class="f"
       inkscape:connector-curvature="0"
       style="fill:#091e2a" />
    <path
       id="path740"
       transform="translate(-819.679,-886.201)"
       d="m 925.494,917.306 a 7.178,7.178 0 1 1 -7.182,-7.18 7.18,7.18 0 0 1 7.182,7.18"
       class="a"
       inkscape:connector-curvature="0"
       style="fill:#223a4b" />
    <path
       id="path742"
       transform="translate(-818.936,-885.456)"
       d="m 921.784,916.562 a 4.214,4.214 0 1 1 -4.213,-4.214 4.213,4.213 0 0 1 4.213,4.214"
       class="e"
       inkscape:connector-curvature="0"
       style="fill:#ffffff" />
    <path
       id="path744"
       transform="translate(-818.247,-884.767)"
       d="m 918.349,915.873 a 1.468,1.468 0 1 1 -1.47,-1.467 1.467,1.467 0 0 1 1.47,1.467"
       class="f"
       inkscape:connector-curvature="0"
       style="fill:#091e2a" />
    <path
       id="path746"
       transform="translate(-823.753,-890.105)"
       d="m 898.972,898.531 z m 0,-0.066 z"
       class="e"
       inkscape:connector-curvature="0"
       style="fill:#ffffff" />
    <path
       id="path748"
       transform="translate(-840.045,-889.622)"
       d="m 850.347,967.514 v 0 m 0,-0.035 v 0 m -0.005,-0.069 v 0 m 0,-0.04 v 0.013 -0.013 m 0,-0.043 v 0.019 -0.019 m 0,-0.045 v 0 m 0,-0.051 v 0 m 0,-0.044 v 0 m 0,-0.048 v 0 m 0,-0.051 a 0.2,0.2 0 0 0 0,0.04 0.2,0.2 0 0 1 0,-0.04 m 0,-0.04 v 0 m 0,-0.043 v 0 m 0,-0.056 v 0 m 28.846,-5.412 -0.005,0.008 0.005,-0.008 m 0.035,-0.059 a 0.16,0.16 0 0 0 -0.013,0.021 0.16,0.16 0 0 1 0.013,-0.021 m 0.035,-0.065 -0.016,0.032 0.016,-0.032 m 0.047,-0.072 -0.031,0.045 a 0.408,0.408 0 0 0 0.031,-0.045 m 0.08,-0.131 c -0.027,0.04 -0.051,0.08 -0.075,0.123 0.024,-0.043 0.048,-0.083 0.075,-0.123 m -21.133,-1.239 v 0 m -0.1,-0.013 v 0 m -0.04,-0.005 h 0.011 -0.011 m -0.037,0 v 0 m -0.1,-0.008 v 0 m -0.04,-0.005 h 0.016 -0.016 m -0.043,0 h 0.021 -0.021 m -0.056,0 v 0 m -0.04,0 v 0 m -0.043,0 v 0 m -0.053,0 a 0.175,0.175 0 0 1 0.037,0 0.175,0.175 0 0 0 -0.037,0 m -0.042,0 h 0.028 -0.028 m -0.043,0 v 0 m -0.048,0 a 0.136,0.136 0 0 1 0.032,0 0.136,0.136 0 0 0 -0.032,0 m -0.048,0 v 0 m -0.043,0 v 0 m -0.043,0 a 0.11,0.11 0 0 0 0.029,0 0.11,0.11 0 0 1 -0.029,0 m -0.053,0 a 7.034,7.034 0 0 0 -7.034,7.034 7.034,7.034 0 0 1 7.034,-7.034 v 0 m 29.24,-4.085 a 12.15,12.15 0 0 0 -7.231,5.377 12.158,12.158 0 0 1 7.231,-5.377 m 0.067,-0.019 c -0.016,0.005 -0.035,0.008 -0.053,0.013 0.019,-0.005 0.037,-0.008 0.053,-0.013 m 0.068,-0.016 c -0.016,0 -0.032,0.008 -0.047,0.011 0.015,0 0.031,-0.008 0.047,-0.011 m 0.064,-0.016 -0.04,0.008 0.04,-0.008 m 0.15,-0.039 h -0.005 0.005 m 0.061,-0.013 v 0 m -2.982,-51.785 v 0 m 0.032,0 v 0 m 0.032,0 v 0 m 0.04,0 h -0.011 0.011 m 0.032,0 v 0 m 0.029,0 h -0.011 0.011 m 0.035,0 v 0 m 0.037,0 v 0 m 0.029,0 h -0.013 0.013 m 0.033,0 h -0.015 0.015 m 0.04,0 v 0 m 0.029,0 v 0 m 0.029,0 v 0 m 0.04,-0.005 h -0.021 0.021 m 0.032,-0.005 h -0.016 0.016 m 0.029,0 h -0.016 0.016 m 0.029,0 v 0 m 0.037,-0.008 h -0.013 0.013 m 0.032,0 h -0.016 0.016 m 0.027,-0.005 h -0.013 0.013 m 0.039,-0.005 h -0.019 0.019 m 0.032,-0.005 h -0.013 0.013 m 0.029,-0.005 h -0.013 0.013 m 0.029,-0.008 h -0.013 0.013 m 0.035,-0.005 v 0 m 0.032,-0.008 h -0.011 0.011 m 0.029,-0.005 h -0.011 0.011 m 0.027,-0.005 v 0 m 0.037,-0.011 h -0.008 0.008 m 0.029,-0.005 v 0 m 0.029,-0.008 v 0 m 0.033,-0.008 v 0 m 0.032,-0.011 h -0.005 0.005 m 0.029,-0.008 v 0 0 m 0.881,-0.364 v 0 l 9.4,9.394 v 0 l -9.4,-9.394 m 1.4,-1.292 c -0.025,0.037 -0.052,0.075 -0.079,0.109 l 5.645,5.643 -5.643,-5.643 0.076,-0.109 m 0.013,-0.021 -0.008,0.011 0.008,-0.011 m 0.665,-1.994 v 0 m 0.005,-0.083 v 0 m 0,-0.044 v 0 m 0,-0.037 v 0 m 0,-0.045 v 0"
       class="g"
       inkscape:connector-curvature="0"
       style="fill:#e1f2fc" />
    <path
       id="path750"
       transform="translate(-842.597,-864.339)"
       d="m 870.083,979.089 0.005,0.008 -0.005,-0.008 m -0.043,-0.059 v 0.005 -0.005 m -0.053,-0.069 0.011,0.016 -0.011,-0.016 m -0.045,-0.056 0.016,0.019 -0.016,-0.019 m -0.056,-0.072 0.021,0.024 -0.021,-0.024 m -0.043,-0.055 c 0.008,0.008 0.016,0.02 0.024,0.029 l -0.024,-0.029 m -0.068,-0.085 a 0.762,0.762 0 0 1 0.055,0.069 0.762,0.762 0 0 0 -0.055,-0.069 m -0.035,-0.043 0.032,0.04 -0.032,-0.04 m -9.9,-0.155 v 0 m 0.137,0 v 0 m -0.193,0 v 0 m 0.247,0 v 0 m -0.3,0 v 0 m 0.351,0 v 0 m -0.4,0 v 0 m 0.461,0 v 0 m -0.529,0 v 0 m 0.59,0 v 0 m -0.643,0 v 0 m 0.7,0 v 0 m -0.747,0 v 0 m 0.8,0 v 0 m 0.068,-0.005 v 0 m -0.976,0 v 0 m 1.032,0 a 0.073,0.073 0 0 0 -0.024,0 0.073,0.073 0 0 1 0.024,0 m -1.088,0 v 0 m 1.139,0 v 0 m 0.051,-0.005 a 0.062,0.062 0 0 0 -0.027,0 0.062,0.062 0 0 1 0.027,0 m 0.075,-0.008 a 0.328,0.328 0 0 1 -0.053,0.005 0.328,0.328 0 0 0 0.053,-0.005 m 0.051,-0.005 -0.032,0.005 0.032,-0.005 m 0.049,-0.005 -0.032,0.005 0.032,-0.005 m 0.051,-0.005 c -0.013,0 -0.024,0 -0.035,0.005 0.011,0 0.021,0 0.035,-0.005 m 0.128,-0.016 -0.125,0.016 0.125,-0.016 m 0.045,-0.008 -0.04,0.008 0.04,-0.008 m -15.7,-0.926 a 17.2,17.2 0 0 0 -2.536,7.263 17.2,17.2 0 0 1 2.536,-7.263 m 0.051,-0.082 c -0.016,0.024 -0.032,0.051 -0.048,0.076 0.016,-0.025 0.032,-0.052 0.048,-0.076 m 0.029,-0.045 a 0.406,0.406 0 0 1 -0.024,0.035 0.406,0.406 0 0 0 0.024,-0.035 m 0.032,-0.051 c -0.008,0.011 -0.013,0.021 -0.019,0.029 0.005,-0.008 0.011,-0.019 0.019,-0.029 m 0.045,-0.069 a 0.1,0.1 0 0 0 -0.013,0.021 0.1,0.1 0 0 1 0.013,-0.021 m 0.035,-0.056 -0.008,0.013 0.008,-0.013 m 10.328,-0.048 v 0 m -10.287,-0.011 v 0 m 10.241,-0.025 0.005,0.005 -0.005,-0.005 m -0.04,-0.029 0.005,0.005 -0.005,-0.005 m -0.043,-0.032 v 0 0 m -0.052,-0.04 0.017,0.013 -0.017,-0.013 m -0.04,-0.032 0.019,0.016 -0.019,-0.016 m -0.04,-0.029 0.024,0.019 -0.024,-0.019 m -1.415,-1.539 a 12.727,12.727 0 0 0 -6.537,8.385 12.716,12.716 0 0 1 6.537,-8.382 7.065,7.065 0 0 0 1.415,1.534 7.018,7.018 0 0 1 -1.415,-1.536 m 11.65,0 a 7.028,7.028 0 0 1 -4.8,3.016 7.034,7.034 0 0 0 4.8,-3.013 12.742,12.742 0 0 1 4,3.241 12.787,12.787 0 0 0 -4,-3.244"
       class="h"
       inkscape:connector-curvature="0"
       style="fill:#d7e5f5" />
    <path
       id="path752"
       transform="translate(-834.15,-862.858)"
       d="m 868.086,980.348 0.005,0.013 -0.005,-0.013 m -0.019,-0.072 v 0.013 -0.013 m -0.024,-0.079 v 0.011 -0.011 m -0.021,-0.072 v 0.013 -0.013 m -0.048,-0.147 v 0.005 -0.005 m -0.045,-0.151 v 0"
       class="g"
       inkscape:connector-curvature="0"
       style="fill:#e1f2fc" />
    <path
       id="path754"
       transform="translate(-834.104,-862.707)"
       d="m 868.484,982.117 c 0,0.015 0,0.025 0.005,0.036 a 0.178,0.178 0 0 0 -0.005,-0.036 m -0.011,-0.067 a 0.179,0.179 0 0 0 0.005,0.035 0.179,0.179 0 0 1 -0.005,-0.035 m -0.016,-0.091 a 0.139,0.139 0 0 0 0.005,0.032 0.139,0.139 0 0 1 -0.005,-0.032 m -0.013,-0.069 a 0.189,0.189 0 0 1 0.005,0.037 0.189,0.189 0 0 0 -0.005,-0.037 m -0.016,-0.088 a 0.41,0.41 0 0 0 0.011,0.053 0.41,0.41 0 0 1 -0.011,-0.053 m -0.013,-0.071 0.005,0.037 -0.005,-0.037 m -0.019,-0.085 a 0.268,0.268 0 0 1 0.011,0.045 0.268,0.268 0 0 0 -0.011,-0.045 m -0.013,-0.067 0.008,0.029 -0.008,-0.029 m -0.016,-0.088 0.008,0.04 -0.008,-0.04 m -0.016,-0.071 a 0.151,0.151 0 0 1 0.005,0.031 0.151,0.151 0 0 0 -0.005,-0.031 m -0.019,-0.088 a 0.345,0.345 0 0 0 0.011,0.048 0.345,0.345 0 0 1 -0.011,-0.048 m -0.016,-0.069 0.008,0.035 -0.008,-0.035 m -0.019,-0.083 c 0,0.016 0.008,0.032 0.011,0.048 0,-0.016 -0.008,-0.032 -0.011,-0.048 m -0.016,-0.072 0.008,0.032 -0.008,-0.032 m -0.019,-0.081 a 0.193,0.193 0 0 0 0.011,0.043 0.237,0.237 0 0 1 -0.011,-0.043 m -0.019,-0.072 0.008,0.03 -0.008,-0.03 m -0.017,-0.072 a 0.132,0.132 0 0 1 0.005,0.032 0.132,0.132 0 0 0 -0.005,-0.032 m -0.021,-0.08 0.005,0.027 a 0.079,0.079 0 0 0 -0.005,-0.027 m -0.016,-0.068 0.005,0.021 -0.005,-0.021 m -0.024,-0.088 0.008,0.027 -0.008,-0.027 m -0.016,-0.067 a 0.117,0.117 0 0 0 0.005,0.027 0.117,0.117 0 0 1 -0.005,-0.027 m -0.024,-0.083 a 0.061,0.061 0 0 1 0.005,0.021 0.061,0.061 0 0 0 -0.005,-0.021 m -0.019,-0.069 0.005,0.021 -0.005,-0.021 m -0.021,-0.081 0.005,0.019 -0.005,-0.019 m -0.021,-0.069 0.005,0.016 -0.005,-0.016"
       class="g"
       inkscape:connector-curvature="0"
       style="fill:#e1f2fc" />
    <path
       id="path756"
       transform="translate(-841.391,-862.235)"
       d="m 846.342,981.686 c -0.013,0.053 -0.024,0.1 -0.035,0.158 0.011,-0.053 0.021,-0.1 0.035,-0.158"
       class="h"
       inkscape:connector-curvature="0"
       style="fill:#d7e5f5" />
    <path
       id="path758"
       transform="translate(-833.995,-862.222)"
       d="m 868.4,981.792 c 0,0.011 0,0.024 0.005,0.035 0,-0.011 0,-0.024 -0.005,-0.035 m -0.011,-0.067 0.005,0.032 -0.005,-0.032"
       class="g"
       inkscape:connector-curvature="0"
       style="fill:#e1f2fc" />
    <path
       id="path760"
       transform="translate(-841.394,-862.195)"
       d="m 846.309,981.807 c 0,0.016 -0.009,0.035 -0.012,0.051 0,-0.016 0.009,-0.035 0.012,-0.051"
       class="h"
       inkscape:connector-curvature="0"
       style="fill:#d7e5f5" />
    <path
       id="path762"
       transform="translate(-833.988,-862.182)"
       d="m 868.41,981.844 0.005,0.032 -0.005,-0.032"
       class="g"
       inkscape:connector-curvature="0"
       style="fill:#e1f2fc" />
    <path
       id="path764"
       transform="translate(-841.4,-862.181)"
       d="m 846.3,981.849 c -0.009,0.035 -0.013,0.069 -0.023,0.105 0.009,-0.036 0.013,-0.071 0.023,-0.105"
       class="h"
       inkscape:connector-curvature="0"
       style="fill:#d7e5f5" />
    <path
       id="path766"
       transform="translate(-833.986,-862.165)"
       d="m 868.418,981.9 c 0,0.011 0,0.024 0.005,0.035 0,-0.011 0,-0.024 -0.005,-0.035"
       class="g"
       inkscape:connector-curvature="0"
       style="fill:#e1f2fc" />
    <path
       id="path768"
       transform="translate(-841.402,-862.154)"
       d="m 846.283,981.928 a 0.272,0.272 0 0 1 -0.011,0.045 0.272,0.272 0 0 0 0.011,-0.045"
       class="h"
       inkscape:connector-curvature="0"
       style="fill:#d7e5f5" />
    <path
       id="path770"
       transform="translate(-841.41,-862.138)"
       d="m 846.277,981.976 c -0.008,0.048 -0.019,0.094 -0.027,0.142 0.008,-0.048 0.019,-0.094 0.027,-0.142"
       class="h"
       inkscape:connector-curvature="0"
       style="fill:#d7e5f5" />
    <path
       id="path772"
       transform="translate(-833.98,-862.125)"
       d="m 868.447,982.09 0.008,0.052 -0.008,-0.052 m -0.011,-0.075 0.005,0.035 -0.005,-0.035"
       class="g"
       inkscape:connector-curvature="0"
       style="fill:#e1f2fc" />
    <path
       id="path774"
       transform="translate(-833.974,-862.085)"
       d="m 868.452,982.135 a 0.156,0.156 0 0 0 0.005,0.035 0.135,0.135 0 0 1 -0.005,-0.035"
       class="g"
       inkscape:connector-curvature="0"
       style="fill:#e1f2fc" />
    <path
       id="path776"
       transform="translate(-841.417,-862.081)"
       d="m 846.241,982.145 c -0.005,0.024 -0.008,0.051 -0.013,0.075 0.005,-0.024 0.008,-0.051 0.013,-0.075"
       class="h"
       inkscape:connector-curvature="0"
       style="fill:#d7e5f5" />
    <path
       id="path778"
       transform="translate(-833.972,-862.064)"
       d="m 868.46,982.2 0.005,0.037 c 0,-0.013 0,-0.027 -0.005,-0.037"
       class="g"
       inkscape:connector-curvature="0"
       style="fill:#e1f2fc" />
    <path
       id="path780"
       transform="translate(-841.42,-862.057)"
       d="m 846.227,982.219 -0.008,0.04 z"
       class="h"
       inkscape:connector-curvature="0"
       style="fill:#d7e5f5" />
    <path
       id="path782"
       transform="translate(-833.969,-862.044)"
       d="m 868.468,982.257 v 0.032 -0.032"
       class="g"
       inkscape:connector-curvature="0"
       style="fill:#e1f2fc" />
    <path
       id="path784"
       transform="translate(-841.424,-862.04)"
       d="m 846.219,982.268 c 0,0.024 -0.008,0.045 -0.011,0.069 0,-0.024 0.008,-0.045 0.011,-0.069"
       class="h"
       inkscape:connector-curvature="0"
       style="fill:#d7e5f5" />
    <path
       id="path786"
       transform="translate(-833.967,-862.024)"
       d="m 868.475,982.316 a 0.2,0.2 0 0 0 0.005,0.039 0.2,0.2 0 0 1 -0.005,-0.039"
       class="g"
       inkscape:connector-curvature="0"
       style="fill:#e1f2fc" />
    <path
       id="path788"
       transform="translate(-841.426,-862.016)"
       d="m 846.206,982.34 c 0,0.013 0,0.027 -0.005,0.037 l 0.005,-0.037"
       class="h"
       inkscape:connector-curvature="0"
       style="fill:#d7e5f5" />
    <path
       id="path790"
       transform="translate(-833.964,-862.003)"
       d="m 868.482,982.378 v 0.029 -0.029"
       class="g"
       inkscape:connector-curvature="0"
       style="fill:#e1f2fc" />
    <path
       id="path792"
       transform="translate(-842.6,-861.999)"
       d="m 842.708,982.419 c 0,0.032 -0.008,0.068 -0.011,0.1 0,-0.035 0.008,-0.068 0.011,-0.1 m 4.661,-0.027 c 0,0.011 0,0.024 -0.005,0.035 0,-0.011 0,-0.024 0.005,-0.035"
       class="h"
       inkscape:connector-curvature="0"
       style="fill:#d7e5f5" />
    <path
       id="path794"
       transform="translate(-833.962,-861.984)"
       d="m 868.488,982.437 v 0.032 -0.032"
       class="e"
       inkscape:connector-curvature="0"
       style="fill:#ffffff" />
    <path
       id="path796"
       transform="translate(-842.601,-861.977)"
       d="m 842.7,982.5 c 0,0.016 0,0.035 -0.005,0.053 0,-0.019 0,-0.037 0.005,-0.053 m 4.661,-0.045 -0.008,0.04 0.008,-0.04"
       class="h"
       inkscape:connector-curvature="0"
       style="fill:#d7e5f5" />
    <path
       id="path798"
       transform="translate(-833.96,-861.962)"
       d="m 868.5,982.5 v 0.027 -0.027"
       class="e"
       inkscape:connector-curvature="0"
       style="fill:#ffffff" />
    <path
       id="path800"
       transform="translate(-842.604,-861.958)"
       d="m 842.695,982.541 c 0,0.032 -0.005,0.067 -0.011,0.1 0.005,-0.035 0.008,-0.067 0.011,-0.1 m 4.656,-0.029 a 0.191,0.191 0 0 0 -0.005,0.035 0.191,0.191 0 0 1 0.005,-0.035"
       class="h"
       inkscape:connector-curvature="0"
       style="fill:#d7e5f5" />
    <path
       id="path802"
       transform="translate(-833.958,-861.943)"
       d="m 868.5,982.559 v 0.027 -0.027"
       class="e"
       inkscape:connector-curvature="0"
       style="fill:#ffffff" />
    <path
       id="path804"
       transform="translate(-842.605,-861.939)"
       d="m 842.684,982.63 c 0,0.016 0,0.029 0,0.045 0,-0.016 0,-0.029 0,-0.045 m 4.656,-0.061 -0.008,0.048 0.008,-0.048"
       class="h"
       inkscape:connector-curvature="0"
       style="fill:#d7e5f5" />
    <path
       id="path806"
       transform="translate(-833.956,-861.922)"
       d="m 868.507,982.622 v 0.029 -0.029"
       class="e"
       inkscape:connector-curvature="0"
       style="fill:#ffffff" />
    <path
       id="path808"
       transform="translate(-842.608,-861.917)"
       d="m 842.681,982.676 -0.008,0.075 0.008,-0.075 m 29.836,-0.027 v 0 m -25.188,-0.013 v 0.029 -0.029"
       class="h"
       inkscape:connector-curvature="0"
       style="fill:#d7e5f5" />
    <path
       id="path810"
       transform="translate(-833.954,-861.903)"
       d="m 868.513,982.679 v 0.016 -0.016"
       class="e"
       inkscape:connector-curvature="0"
       style="fill:#ffffff" />
    <path
       id="path812"
       transform="translate(-842.624,-861.899)"
       d="m 842.625,984.157 v 0 m 34.629,0 v 0 m -30.01,0 v 0 m 25.391,0 v 0 m -30.01,-0.073 v 0 m 34.629,0 v 0 m -30.01,0 v 0 m 25.391,0 v 0 m 0,-0.088 v 0 m -30,0 v 0.019 -0.019 m 4.616,0 v 0 m 30.007,0 v 0 m -34.623,-0.072 v 0 m 34.623,0 v 0 m -4.619,0 v 0 m -25.386,0 v 0 m 25.383,-0.083 v 0 m -25.38,0 v 0 m 30,-0.005 v 0 m -34.618,0 v 0 m 0,-0.076 v 0 m 30,0 v 0 m 4.619,0 v 0 m -29.994,0 v 0 m 0,-0.078 v 0 m -4.622,-0.011 v 0 m 34.61,0 a 0.059,0.059 0 0 0 0,0.021 v -0.021 m -4.624,-0.072 v 0 m -29.983,0 v 0 m 34.6,0 v 0 m -29.981,0 v 0 m 25.354,-0.069 v 0 m -25.351,0 v 0 m 29.975,-0.016 v 0 m -34.6,0 a 0.086,0.086 0 0 1 0,0.025 0.086,0.086 0 0 0 0,-0.025 m 29.967,-0.067 v 0.013 -0.013 m -25.338,-0.005 v 0.021 -0.021 m 29.965,0 v 0 m -34.591,0 v 0 m 29.959,-0.069 v 0.011 -0.011 m -25.33,-0.005 v 0 m 29.956,-0.013 v 0 m -34.581,-0.005 a 0.082,0.082 0 0 1 0,0.027 0.09,0.09 0 0 0 0,-0.027 m 29.948,-0.056 v 0 m -25.316,-0.013 v 0.021 -0.021 m 29.943,0 a 0.074,0.074 0 0 1 0,0.024 0.074,0.074 0 0 0 0,-0.024 m -34.573,0 v 0 m 29.941,-0.067 v 0 m -25.306,-0.005 a 0.073,0.073 0 0 1 0,0.024 0.073,0.073 0 0 0 0,-0.024 m 29.932,-0.017 a 0.07,0.07 0 0 1 0,0.023 0.07,0.07 0 0 0 0,-0.023 m -34.561,0 v 0 m 4.636,-0.057 a 0.051,0.051 0 0 0 0,0.021 0.051,0.051 0 0 1 0,-0.021 m 29.922,-0.013 v 0 m -34.554,0 a 0.135,0.135 0 0 1 0,0.032 0.135,0.135 0 0 0 0,-0.032 m 29.914,-0.061 v 0.011 -0.011 M 847.3,983.053 a 0.074,0.074 0 0 0 0,0.024 0.074,0.074 0 0 1 0,-0.024 M 877.208,983 a 0.067,0.067 0 0 1 0,0.021 0.067,0.067 0 0 0 0,-0.021 m -34.538,-0.008 a 0.257,0.257 0 0 0 0,0.032 0.257,0.257 0 0 1 0,-0.032 m 29.9,-0.043 v 0 m -25.263,-0.005 a 0.058,0.058 0 0 1 0,0.021 0.058,0.058 0 0 0 0,-0.021 m 29.9,-0.019 v 0.024 -0.024 m -34.526,-0.005 a 0.156,0.156 0 0 0 0,0.035 0.156,0.156 0 0 1 0,-0.035 m 29.883,-0.053 v 0.005 -0.005 m -25.242,-0.013 a 0.086,0.086 0 0 0 0,0.027 0.086,0.086 0 0 1 0,-0.027 m 29.879,-0.013 v 0 m -34.515,-0.013 c 0,0.016 0,0.032 0,0.048 0,-0.016 0,-0.032 0,-0.048 m 29.87,-0.039 v 0 m -25.226,-0.008 a 0.1,0.1 0 0 0 0,0.027 0.1,0.1 0 0 1 0,-0.027 m 29.863,-0.019 a 0.073,0.073 0 0 1 0,0.024 0.073,0.073 0 0 0 0,-0.024 m -34.5,-0.005 a 0.176,0.176 0 0 1 0,0.037 0.175,0.175 0 0 0 0,-0.037 m 34.5,-0.064 v 0 m -29.847,0 a 0.1,0.1 0 0 0 0,0.027 0.09,0.09 0 0 1 0,-0.027"
       class="h"
       inkscape:connector-curvature="0"
       style="fill:#d7e5f5" />
    <path
       id="path814"
       transform="translate(-831.1,-889.036)"
       d="m 878.355,901.659 a 4.142,4.142 0 0 1 -1.322,1.181 l 9.394,9.395 c 0.338,-0.5 0.686,-0.978 1.049,-1.455 L 884,907.3 l -5.641,-5.643"
       class="i"
       inkscape:connector-curvature="0"
       style="fill:#37485a" />
    <path
       id="path816"
       transform="translate(-832.622,-890.653)"
       d="m 876.565,896.831 a 4.0715,4.0715 0 1 0 0,8.143 h 0.1 0.029 0.043 0.019 0.048 0.021 0.016 0.016 0.013 0.016 0.013 0.028 0.016 0.013 0.016 0.016 0.013 0.019 a 0.046,0.046 0 0 1 0.019,0 h 0.019 0.013 0.016 0.016 0.011 0.016 a 0.09,0.09 0 0 0 0.027,0 h 0.013 0.016 0.013 0.016 0.013 0.017 0.021 l 0.019,-0.005 h 0.013 0.013 0.016 0.016 0.011 l 0.029,-0.005 h 0.005 a 0.077,0.077 0 0 1 0.024,-0.005 h 0.008 a 0.063,0.063 0 0 0 0.021,-0.005 h 0.008 l 0.029,-0.008 0.027,-0.005 h 0.011 l 0.021,-0.005 h 0.008 a 0.078,0.078 0 0 0 0.024,-0.005 v 0 l 0.029,-0.008 h 0.005 l 0.027,-0.005 v 0 l 0.027,-0.008 v 0 a 4.062,4.062 0 0 0 2.2,-1.547 c 0.027,-0.035 0.051,-0.072 0.076,-0.11 l 0.008,-0.011 0.008,-0.011 a 4.1,4.1 0 0 0 0.665,-1.992 v 0 c 0,-0.027 0,-0.051 0,-0.078 v -0.005 c 0,-0.013 0,-0.024 0,-0.037 v -0.089 c 0,-0.013 0,-0.024 0,-0.037 a 4.075,4.075 0 0 0 -4.074,-4.071"
       class="i"
       inkscape:connector-curvature="0"
       style="fill:#37485a" />
    <path
       id="path818"
       transform="translate(-823.754,-892.203)"
       d="m 907.272,892.2 a 8.3,8.3 0 0 0 -8.3,8.3 v 0.072 a 0.307,0.307 0 0 1 0,0.051 v 0.008 a 7.687,7.687 0 0 0 0.059,0.862 34.153,34.153 0 0 1 8.206,-0.993 h 0.035 v -8.3"
       class="i"
       inkscape:connector-curvature="0"
       style="fill:#37485a" />
    <path
       id="path820"
       transform="translate(-836.62,-873.401)"
       d="m 874.52,948.344 h -13.967 a 7.053,7.053 0 0 1 0,4.768 h 13.721 a 12.313,12.313 0 0 1 0.246,-4.768"
       class="j"
       inkscape:connector-curvature="0"
       style="fill:#ced0d0" />
    <path
       id="path822"
       transform="translate(-838.879,-871.142)"
       d="m 853.808,955.089 v 16.557 a 7.032,7.032 0 0 1 4.768,0 v -16.557 a 7.051,7.051 0 0 1 -4.768,0"
       class="j"
       inkscape:connector-curvature="0"
       style="fill:#ced0d0" />
    <path
       id="path824"
       transform="translate(-840.045,-874.568)"
       d="m 857.358,944.861 a 7.034,7.034 0 0 0 -7.032,7.033 v 0.14 a 0.2,0.2 0 0 0 0,0.04 v 0.056 0.024 0.04 a 0.1,0.1 0 0 0 0,0.029 v 0.048 0.019 0.024 0.013 0.033 a 0.475,0.475 0 0 1 0.005,0.064 v 0.035 a 7.041,7.041 0 0 0 4.625,6.052 v 0 a 7.108,7.108 0 0 0 4.772,0 v 0 a 7.036,7.036 0 0 0 -1.507,-13.6 v 0 l -0.1,-0.011 v 0 a 0.1,0.1 0 0 0 -0.029,0 h -0.011 -0.027 -0.011 l -0.087,-0.008 h -0.016 -0.021 -0.016 a 0.071,0.071 0 0 1 -0.024,0 h -0.021 -0.03 a 0.076,0.076 0 0 1 -0.024,0 h -0.04 -0.021 -0.021 -0.019 -0.039 -0.013 -0.043 -0.027 -0.056 a 0.211,0.211 0 0 1 -0.04,0 h -0.14"
       class="k"
       inkscape:connector-curvature="0"
       style="fill:#6dc2b5" />
    <path
       id="path826"
       transform="translate(-842.624,-865.48)"
       d="m 852.931,972 a 17.38,17.38 0 0 0 -7.427,6.275 l -0.04,0.059 -0.008,0.013 c -0.011,0.013 -0.021,0.029 -0.031,0.043 l -0.013,0.021 -0.032,0.048 c -0.005,0.011 -0.013,0.019 -0.019,0.029 l -0.013,0.021 a 0.348,0.348 0 0 0 -0.021,0.035 l -0.008,0.009 a 0.736,0.736 0 0 1 -0.048,0.077 v 0.005 a 17.208,17.208 0 0 0 -2.536,7.263 v 0 c 0,0.035 -0.008,0.069 -0.011,0.1 v 0.005 a 0.4,0.4 0 0 0 -0.005,0.053 v 0 c -0.005,0.035 -0.008,0.067 -0.011,0.1 v 0.008 a 0.231,0.231 0 0 0 -0.005,0.045 v 0.021 c 0,0.024 0,0.048 -0.005,0.076 v 0.024 c 0,0.013 0,0.027 0,0.037 a 0.155,0.155 0 0 0 0,0.032 c 0,0.016 0,0.032 -0.005,0.048 a 0.257,0.257 0 0 1 0,0.045 v 0.035 c 0,0.013 0,0.027 0,0.037 a 0.119,0.119 0 0 1 0,0.032 c 0,0.023 0,0.044 0,0.063 a 0.135,0.135 0 0 0 0,0.032 v 0.04 0.029 c 0,0.021 0,0.043 0,0.064 a 0.1,0.1 0 0 1 0,0.027 0.274,0.274 0 0 1 0,0.045 v 0.027 c 0,0.024 0,0.047 0,0.068 v 0.021 a 0.32,0.32 0 0 1 0,0.051 v 0.024 c 0,0.024 0,0.045 0,0.069 v 0.016 c 0,0.019 0,0.04 0,0.059 v 0.019 c 0,0.024 0,0.048 0,0.073 v 0.013 c 0,0.019 0,0.04 0,0.059 v 0.021 a 0.619,0.619 0 0 1 0,0.072 v 0.239 0.019 0.075 h 4.619 v -0.168 a 0.691,0.691 0 0 0 0,-0.073 v -0.019 a 0.376,0.376 0 0 1 0,-0.056 v -0.091 -0.013 -0.059 -0.021 a 0.522,0.522 0 0 1 0,-0.065 v -0.011 c 0,-0.024 0,-0.045 0,-0.069 v -0.021 c 0,-0.019 0,-0.035 0.005,-0.053 v -0.019 a 0.6,0.6 0 0 1 0.005,-0.069 V 987 c 0,-0.016 0,-0.036 0,-0.052 v -0.024 c 0,-0.021 0,-0.045 0.005,-0.067 v -0.019 c 0,-0.019 0,-0.035 0.005,-0.053 a 0.077,0.077 0 0 1 0,-0.024 c 0,-0.019 0,-0.037 0,-0.056 a 0.056,0.056 0 0 0 0,-0.021 0.5,0.5 0 0 0 0.005,-0.06 0.1,0.1 0 0 0 0,-0.027 c 0,-0.016 0,-0.035 0.005,-0.051 a 0.066,0.066 0 0 1 0,-0.021 c 0,-0.021 0,-0.043 0.005,-0.064 a 0.09,0.09 0 0 0 0,-0.027 0.259,0.259 0 0 0 0.005,-0.045 0.091,0.091 0 0 0 0,-0.027 l 0.008,-0.064 a 0.1,0.1 0 0 0 0,-0.028 0.205,0.205 0 0 0 0.005,-0.043 c 0,-0.008 0,-0.019 0.005,-0.029 a 0.2,0.2 0 0 1 0.005,-0.04 0.312,0.312 0 0 0 0.005,-0.051 0.179,0.179 0 0 0 0.005,-0.037 l 0.005,-0.037 c 0,-0.008 0,-0.019 0.005,-0.029 0.005,-0.01 0,-0.029 0.005,-0.044 l 0.008,-0.051 0.005,-0.037 0.005,-0.029 c 0,-0.013 0,-0.027 0.005,-0.04 l 0.005,-0.024 c 0,-0.024 0.008,-0.045 0.011,-0.069 a 0.1,0.1 0 0 1 0.005,-0.027 0.234,0.234 0 0 1 0.005,-0.041 l 0.005,-0.024 a 0.734,0.734 0 0 1 0.013,-0.075 v -0.019 l 0.008,-0.043 0.007,-0.021 c 0.008,-0.048 0.016,-0.093 0.027,-0.141 v -0.016 a 0.22,0.22 0 0 1 0.011,-0.047 v 0 c 0.005,-0.035 0.013,-0.069 0.021,-0.1 v -0.005 a 0.269,0.269 0 0 0 0.011,-0.051 v 0 c 0.011,-0.053 0.024,-0.107 0.035,-0.159 v 0 a 12.732,12.732 0 0 1 6.537,-8.383 7.015,7.015 0 0 1 -1.224,-3.958 c 0,-0.2 0.008,-0.4 0.027,-0.606 m 14.015,0 c 0.016,0.2 0.024,0.4 0.024,0.606 a 7,7 0 0 1 -1.208,3.943 12.785,12.785 0 0 1 4,3.243 v 0 l 0.032,0.04 v 0 c 0.019,0.021 0.037,0.047 0.056,0.071 l 0.011,0.016 a 0.131,0.131 0 0 1 0.024,0.029 l 0.019,0.021 a 0.22,0.22 0 0 0 0.021,0.027 c 0.011,0.016 0.024,0.032 0.037,0.048 l 0.013,0.019 0.029,0.037 0.013,0.016 0.04,0.053 0.005,0.005 c 0.011,0.019 0.025,0.035 0.039,0.055 l 0.005,0.008 a 12.613,12.613 0 0 1 2.417,5.974 v 0 c 0.005,0.053 0.011,0.105 0.019,0.156 v 0.005 l 0.008,0.075 v 0 l 0.008,0.077 v 0 l 0.008,0.072 v 0.011 c 0.005,0.052 0.011,0.1 0.013,0.151 v 0.013 a 0.687,0.687 0 0 0 0.005,0.069 v 0.005 c 0,0.024 0,0.048 0.005,0.075 v 0.011 c 0,0.021 0,0.044 0.005,0.065 v 0.013 c 0,0.024 0,0.051 0.005,0.075 v 0.008 c 0,0.021 0,0.043 0,0.064 v 0.019 c 0,0.048 0,0.1 0.005,0.146 v 0.019 a 0.513,0.513 0 0 1 0,0.064 v 0.011 a 0.618,0.618 0 0 1 0,0.072 v 0.019 c 0,0.019 0,0.04 0,0.059 v 0.1 c 0,0.021 0,0.04 0,0.062 v 0.093 h 4.616 v -0.26 c 0,-0.021 0,-0.04 0,-0.062 v -0.1 a 0.47,0.47 0 0 1 0,-0.061 v -0.016 a 0.672,0.672 0 0 1 0,-0.071 v -0.021 a 0.342,0.342 0 0 1 0,-0.053 v -0.019 a 0.6,0.6 0 0 1 0,-0.069 v -0.021 -0.053 a 0.069,0.069 0 0 1 0,-0.021 c 0,-0.024 0,-0.047 0,-0.071 v -0.019 a 0.356,0.356 0 0 0 0,-0.053 v -0.024 a 0.558,0.558 0 0 1 0,-0.067 0.052,0.052 0 0 1 0,-0.021 0.309,0.309 0 0 1 0,-0.051 v -0.024 a 0.582,0.582 0 0 0 -0.005,-0.068 v -0.019 c 0,-0.019 0,-0.035 -0.005,-0.053 v -0.024 c 0,-0.021 0,-0.043 -0.005,-0.067 v -0.019 c 0,-0.019 0,-0.035 0,-0.053 v -0.024 a 0.516,0.516 0 0 1 -0.005,-0.066 v -0.005 -0.016 a 0.291,0.291 0 0 0 0,-0.048 0.074,0.074 0 0 0 0,-0.029 0.394,0.394 0 0 0 -0.005,-0.056 0.109,0.109 0 0 0 0,-0.029 0.292,0.292 0 0 0 -0.005,-0.048 0.115,0.115 0 0 0 0,-0.029 0.363,0.363 0 0 0 -0.005,-0.051 v -0.033 c 0,-0.016 0,-0.032 -0.005,-0.048 v -0.029 a 0.3,0.3 0 0 1 -0.005,-0.046 c 0,-0.013 0,-0.027 -0.005,-0.037 a 0.292,0.292 0 0 0 -0.005,-0.048 v -0.032 a 0.214,0.214 0 0 1 -0.005,-0.043 0.19,0.19 0 0 1 -0.005,-0.039 0.292,0.292 0 0 1 -0.005,-0.048 0.134,0.134 0 0 1 -0.005,-0.035 l -0.005,-0.035 a 0.292,0.292 0 0 1 -0.005,-0.048 l -0.008,-0.043 c 0,-0.011 0,-0.021 0,-0.035 a 0.138,0.138 0 0 1 -0.005,-0.035 l -0.005,-0.032 -0.008,-0.057 a 0.18,0.18 0 0 1 -0.005,-0.035 l -0.005,-0.037 c 0,-0.011 0,-0.021 -0.005,-0.029 a 0.381,0.381 0 0 0 -0.011,-0.059 v -0.035 L 877.071,985 a 0.134,0.134 0 0 0 -0.005,-0.032 l -0.008,-0.057 a 0.2,0.2 0 0 1 -0.005,-0.035 l -0.008,-0.035 a 0.181,0.181 0 0 0 -0.005,-0.035 l -0.008,-0.056 -0.008,-0.032 -0.005,-0.032 -0.008,-0.037 a 0.155,0.155 0 0 0 -0.005,-0.035 c 0,-0.019 -0.008,-0.039 -0.011,-0.057 l -0.005,-0.032 -0.008,-0.035 -0.008,-0.04 -0.008,-0.045 -0.008,-0.037 -0.005,-0.032 c 0,-0.016 -0.008,-0.029 -0.011,-0.045 l -0.008,-0.041 -0.008,-0.04 -0.008,-0.032 -0.008,-0.04 -0.008,-0.045 a 0.075,0.075 0 0 1 -0.008,-0.037 0.1,0.1 0 0 1 -0.009,-0.032 l -0.008,-0.037 c -0.005,-0.016 -0.008,-0.032 -0.013,-0.048 l -0.008,-0.039 a 0.139,0.139 0 0 1 -0.005,-0.032 0.291,0.291 0 0 1 -0.011,-0.037 0.2,0.2 0 0 0 -0.011,-0.043 0.207,0.207 0 0 0 -0.011,-0.043 0.133,0.133 0 0 0 -0.005,-0.032 c 0,-0.013 -0.008,-0.027 -0.011,-0.04 l -0.008,-0.029 a 0.419,0.419 0 0 0 -0.013,-0.056 l -0.005,-0.028 c -0.005,-0.013 -0.008,-0.029 -0.013,-0.045 l -0.005,-0.021 -0.016,-0.059 a 0.113,0.113 0 0 0 -0.005,-0.029 0.218,0.218 0 0 1 -0.011,-0.04 l -0.008,-0.027 -0.016,-0.059 a 0.089,0.089 0 0 1 -0.005,-0.025 0.289,0.289 0 0 1 -0.013,-0.045 0.063,0.063 0 0 1 -0.005,-0.021 c -0.005,-0.021 -0.013,-0.043 -0.019,-0.064 l -0.005,-0.019 a 0.357,0.357 0 0 1 -0.013,-0.051 l -0.005,-0.019 a 0.577,0.577 0 0 1 -0.019,-0.064 l -0.005,-0.013 -0.016,-0.056 -0.005,-0.017 c -0.005,-0.021 -0.013,-0.045 -0.019,-0.067 v -0.011 a 0.33,0.33 0 0 1 -0.019,-0.059 l -0.007,-0.013 c -0.013,-0.048 -0.029,-0.093 -0.043,-0.141 v -0.005 c -0.016,-0.049 -0.029,-0.1 -0.045,-0.148 v 0 A 17.362,17.362 0 0 0 866.946,972"
       class="i"
       inkscape:connector-curvature="0"
       style="fill:#37485a" />
    <path
       id="path828"
       transform="translate(-840.045,-867.093)"
       d="m 857.358,967.181 a 7.021,7.021 0 0 0 -7,6.425 h -0.005 c -0.016,0.2 -0.024,0.4 -0.024,0.606 a 7,7 0 0 0 1.208,3.943 7.08,7.08 0 0 0 1.412,1.535 v 0 a 0.159,0.159 0 0 1 0.024,0.019 l 0.017,0.011 0.019,0.016 0.021,0.016 0.016,0.013 0.035,0.027 v 0 l 0.037,0.031 0.008,0.005 0.035,0.024 0.005,0.005 a 0.2,0.2 0 0 1 0.037,0.029 v 0 a 7.04,7.04 0 0 0 3.584,1.332 h 0.005 0.051 v 0 l 0.109,0.008 h 0.008 0.043 0.013 a 0.205,0.205 0 0 1 0.041,0 h 0.013 a 0.336,0.336 0 0 1 0.051,0 h 0.1 a 0.045,0.045 0 0 0 0.019,0 h 0.21 0.019 0.093 0.016 0.043 0.021 0.053 0.031 0.021 a 0.128,0.128 0 0 1 0.032,0 h 0.032 a 0.135,0.135 0 0 0 0.032,0 h 0.024 a 0.1,0.1 0 0 1 0.026,0 h 0.027 a 0.073,0.073 0 0 0 0.024,0 h 0.027 a 0.054,0.054 0 0 1 0.021,0 l 0.055,-0.005 h 0.019 0.029 0.019 0.032 0.016 0.032 0.005 l 0.125,-0.016 v 0 c 0.013,0 0.029,0 0.044,-0.005 v 0 a 7.032,7.032 0 0 0 6,-6.959 c 0,-0.2 -0.008,-0.407 -0.027,-0.606 v 0 a 7.021,7.021 0 0 0 -7,-6.425"
       class="k"
       inkscape:connector-curvature="0"
       style="fill:#6dc2b5" />
    <path
       id="path830"
       transform="translate(-833.209,-875.693)"
       d="m 882.643,941.5 a 12.016,12.016 0 0 0 -2.468,0.3 v 0 l -0.059,0.012 h -0.007 c -0.051,0.015 -0.1,0.026 -0.144,0.036 a 0.219,0.219 0 0 1 -0.04,0.011 l -0.024,0.005 c -0.016,0.005 -0.032,0.008 -0.045,0.013 a 0.063,0.063 0 0 0 -0.021,0.005 0.507,0.507 0 0 0 -0.053,0.013 h -0.015 a 12.167,12.167 0 0 0 -7.231,5.377 v 0 c -0.027,0.043 -0.051,0.083 -0.075,0.123 l -0.005,0.008 c -0.011,0.016 -0.019,0.032 -0.029,0.048 l -0.016,0.027 -0.016,0.029 -0.019,0.033 -0.013,0.021 c -0.009,0.013 -0.013,0.027 -0.021,0.037 l -0.007,0.011 a 12.058,12.058 0 0 0 -1.594,6.018 12.468,12.468 0 0 0 0.125,1.769 h 0.005 a 12.14,12.14 0 0 0 11.775,10.368 V 941.5"
       class="i"
       inkscape:connector-curvature="0"
       style="fill:#37485a" />
    <path
       id="path832"
       transform="translate(-824.717,-865.675)"
       d="m 896.1,971.413 a 12.048,12.048 0 0 0 0.3,2.469 v 0 c 0.005,0.021 0.008,0.04 0.014,0.059 v 0.005 c 0.013,0.051 0.024,0.1 0.035,0.144 a 0.223,0.223 0 0 1 0.011,0.04 l 0.005,0.024 c 0.005,0.016 0.008,0.032 0.013,0.047 a 0.066,0.066 0 0 0 0.005,0.021 0.49,0.49 0 0 0 0.014,0.053 v 0.013 a 12.178,12.178 0 0 0 5.377,7.231 v 0 c 0.043,0.027 0.084,0.051 0.124,0.075 l 0.008,0.005 c 0.016,0.011 0.032,0.019 0.048,0.031 l 0.027,0.016 0.029,0.016 0.032,0.019 0.021,0.013 c 0.013,0.008 0.027,0.013 0.037,0.021 l 0.011,0.005 a 12.083,12.083 0 0 0 6.018,1.6 12.438,12.438 0 0 0 1.769,-0.127 v -0.005 a 12.138,12.138 0 0 0 10.368,-11.775 H 896.1"
       class="i"
       inkscape:connector-curvature="0"
       style="fill:#37485a" />
    <path
       id="path834"
       transform="translate(-830.222,-890.121)"
       d="m 913.74,950.294 h -5.616 v 7.828 H 899.3 v -7.828 h -19.644 v 40.269 H 913.74 V 950.294 M 898.62,928.4 a 7.178,7.178 0 1 1 7.18,-7.179 7.179,7.179 0 0 1 -7.18,7.179 m 15.12,-29.983 h -0.035 a 34.077,34.077 0 0 0 -8.206,1 v 0.011 a 34.086,34.086 0 0 0 -18.894,12.448 l -0.011,-0.011 c -0.365,0.474 -0.713,0.96 -1.048,1.452 v 0 l 0.011,0.008 a 33.962,33.962 0 0 0 -5.9,19.176 v 7.079 h 9.617 v -7.119 h 8.826 v 7.119 h 11.229 v -7.119 h 4.412 v -34.04"
       class="k"
       inkscape:connector-curvature="0"
       style="fill:#6dc2b5" />
    <path
       id="path836"
       transform="translate(-830.661,-867.004)"
       d="m 914.179,967.446 h -35.834 v 5.3 h 35.834 z"
       class="l"
       inkscape:connector-curvature="0"
       style="fill:#48a399" />
    <path
       id="path838"
       transform="translate(-830.222,-879.793)"
       d="M 909.327,929.258 H 898.1 v 5.709 h -8.826 v -5.709 h -9.617 v 10.711 H 899.3 v -5 h 8.827 v 5 h 5.613 v -5 h -4.412 z"
       class="l"
       inkscape:connector-curvature="0"
       style="fill:#48a399" />
    <path
       id="path840"
       transform="translate(-827.809,-881.58)"
       d="m 895.687,923.924 h -8.827 v 12.828 h 8.827 z"
       class="k"
       inkscape:connector-curvature="0"
       style="fill:#6dc2b5" />
    <path
       id="path842"
       transform="translate(-822.778,-881.58)"
       d="m 906.3,923.924 h -4.412 v 12.828 h 4.412 z"
       class="k"
       inkscape:connector-curvature="0"
       style="fill:#6dc2b5" />
    <path
       id="path844"
       transform="translate(-825.294,-878.361)"
       d="m 903.2,933.534 h -8.827 v 12.828 h 8.827 z"
       class="k"
       inkscape:connector-curvature="0"
       style="fill:#6dc2b5" />
    <path
       id="path846"
       transform="translate(-827.266,-886.2)"
       d="m 895.665,921.519 a 4.214,4.214 0 1 1 4.21,-4.213 4.213,4.213 0 0 1 -4.21,4.213 m 0,-11.392 a 7.178,7.178 0 1 0 7.18,7.179 7.179,7.179 0 0 0 -7.18,-7.179"
       class="i"
       inkscape:connector-curvature="0"
       style="fill:#37485a" />
    <path
       id="path848"
       transform="translate(-826.521,-885.456)"
       d="m 894.92,918.028 a 1.466,1.466 0 1 1 1.466,-1.466 1.465,1.465 0 0 1 -1.466,1.466 m 0,-5.68 a 4.214,4.214 0 1 0 4.21,4.214 4.213,4.213 0 0 0 -4.21,-4.214"
       class="e"
       inkscape:connector-curvature="0"
       style="fill:#ffffff" />
    <path
       id="path850"
       transform="translate(-825.832,-884.767)"
       d="m 894.231,914.406 a 1.466,1.466 0 1 0 1.466,1.466 1.465,1.465 0 0 0 -1.466,-1.466"
       class="m"
       inkscape:connector-curvature="0"
       style="fill:#202e3a" />
  </g>
</svg>
