<svg width="98" height="240" viewBox="0 0 98 240" fill="none" xmlns="http://www.w3.org/2000/svg">
<g clip-path="url(#clip0_1638_51886)">
<path d="M71.997 142.723C68.4805 142.723 65.0899 141.549 62.2914 139.333C59.0075 136.732 56.9325 133.008 56.4495 128.847C55.4516 120.257 61.6287 112.457 70.2188 111.459C78.8085 110.461 86.6088 116.639 87.6063 125.228C88.6042 133.818 82.4272 141.619 73.837 142.616C73.2216 142.688 72.6074 142.723 71.997 142.723ZM72.0339 119.008C71.7258 119.008 71.4148 119.026 71.1017 119.062C66.704 119.573 63.5418 123.566 64.0522 127.964C64.2996 130.094 65.3619 132.001 67.0433 133.332C68.7251 134.664 70.8255 135.262 72.9542 135.014C75.0845 134.766 76.9909 133.704 78.3223 132.022C79.654 130.341 80.2507 128.241 80.0037 126.111C79.529 122.027 76.0504 119.008 72.0339 119.008Z" fill="#3EDC81"/>
<path d="M1.27727 39.652L1.28564 39.6533C1.43119 39.6576 1.55238 39.7099 1.63251 39.8077C1.63963 39.8174 1.64805 39.8187 1.65399 39.8367L8.00233 42.9507C9.285 43.5788 10.815 42.825 11.1082 41.4241C11.5691 39.1796 12.3356 36.903 14.8191 34.7599C21.0603 29.3555 25.2891 34.2452 31.5375 28.8504C37.7788 23.446 33.55 18.5564 39.7901 13.1604C41.4034 11.767 42.8801 11.0587 44.2922 10.6811C46.0706 10.2056 46.9511 8.21748 46.0597 6.60691L43.2032 1.44636C42.6787 0.498894 41.6551 -0.0674274 40.5747 0.00644355C37.5483 0.213377 34.6184 -0.0834333 31.0336 3.01894C24.7924 8.42333 29.0211 13.3129 22.7798 18.7173C16.5301 24.1205 12.3026 19.2225 6.05294 24.6256C0.945912 29.0458 2.46601 32.2538 0.270409 36.752C-0.249664 37.8272 0.203393 39.1235 1.27727 39.652Z" fill="#3EDC81"/>
<path d="M97.8967 235.57L96.8691 229.519C96.5895 227.872 95.1599 226.626 93.4904 226.676C92.8858 226.694 92.2423 226.661 91.5525 226.565C83.3767 225.436 84.2608 219.028 76.085 217.899C67.9095 216.758 67.0192 223.172 58.8496 222.037C53.8865 221.353 52.265 218.73 49.9289 216.514C47.4107 214.132 43.2493 215.677 42.9121 219.128L42.5053 223.394C42.3263 225.17 43.3109 226.85 44.9339 227.585C49.6657 229.742 50.1882 234.358 57.0033 235.301C65.1788 236.442 66.0691 230.029 74.2388 231.164C82.4266 232.293 81.5363 238.706 89.7121 239.836C92.3654 240.204 94.1896 239.914 95.724 239.347C97.2625 238.778 98.1713 237.187 97.8967 235.57Z" fill="#FF5722"/>
<path d="M70.3235 69.2846C73.1384 69.2846 75.4203 67.0026 75.4203 64.1877C75.4203 61.3728 73.1384 59.0908 70.3235 59.0908C67.5085 59.0908 65.2266 61.3728 65.2266 64.1877C65.2266 67.0026 67.5085 69.2846 70.3235 69.2846Z" fill="#19B5FE"/>
<path d="M42.1438 179.206C46.7793 178.379 49.8671 173.952 49.0407 169.316C48.2143 164.681 43.7866 161.593 39.1511 162.419C34.5156 163.246 31.4277 167.673 32.2541 172.309C33.0806 176.944 37.5083 180.032 42.1438 179.206Z" fill="#FFCA28"/>
<path d="M28.409 94.7118C30.3984 93.7253 31.2113 91.3128 30.2248 89.3234C29.2383 87.3341 26.8258 86.5211 24.8364 87.5077C22.8471 88.4942 22.0341 90.9066 23.0207 92.896C24.0072 94.8854 26.4196 95.6983 28.409 94.7118Z" fill="#3EDC81"/>
</g>
<defs>
<clipPath id="clip0_1638_51886">
<rect width="97.8931" height="240" fill="white" transform="translate(0.0546875)"/>
</clipPath>
</defs>
</svg>
