<?xml version="1.0" encoding="UTF-8" standalone="no"?>
<svg
   xmlns:dc="http://purl.org/dc/elements/1.1/"
   xmlns:cc="http://creativecommons.org/ns#"
   xmlns:rdf="http://www.w3.org/1999/02/22-rdf-syntax-ns#"
   xmlns:svg="http://www.w3.org/2000/svg"
   xmlns="http://www.w3.org/2000/svg"
   xmlns:sodipodi="http://sodipodi.sourceforge.net/DTD/sodipodi-0.dtd"
   xmlns:inkscape="http://www.inkscape.org/namespaces/inkscape"
   width="340.41928"
   height="253.82704"
   viewBox="0 0 340.41928 253.82704"
   version="1.1"
   id="svg148"
   sodipodi:docname="robot_error.svg"
   inkscape:version="0.92.4 (5da689c313, 2019-01-14)">
  <metadata
     id="metadata152">
    <rdf:RDF>
      <cc:Work
         rdf:about="">
        <dc:format>image/svg+xml</dc:format>
        <dc:type
           rdf:resource="http://purl.org/dc/dcmitype/StillImage" />
        <dc:title></dc:title>
      </cc:Work>
    </rdf:RDF>
  </metadata>
  <sodipodi:namedview
     pagecolor="#ffffff"
     bordercolor="#666666"
     borderopacity="1"
     objecttolerance="10"
     gridtolerance="10"
     guidetolerance="10"
     inkscape:pageopacity="0"
     inkscape:pageshadow="2"
     inkscape:window-width="1468"
     inkscape:window-height="1056"
     id="namedview150"
     showgrid="false"
     fit-margin-top="0"
     fit-margin-left="0"
     fit-margin-right="0"
     fit-margin-bottom="0"
     inkscape:zoom="1.5051315"
     inkscape:cx="115.3012"
     inkscape:cy="149.10866"
     inkscape:window-x="724"
     inkscape:window-y="137"
     inkscape:window-maximized="0"
     inkscape:current-layer="svg148" />
  <defs
     id="defs4">
    <style
       id="style2">.a{fill:#faae45;}.b{fill:#fff;}.c{fill:#5b3d90;}.d{fill:#2a2a2a;}.e{fill:#0061a9;}.f{fill:#68a5d6;}.g{fill:#fdc3a3;}.h{fill:#ac4e28;}.i{fill:#954123;}.j{fill:#893a18;}.k{fill:#040505;}.l{fill:#232627;}.m{fill:#e1dedd;}.n{fill:#53baab;}</style>
    <style
       id="style680">.a{fill:#223a4b;}.b{fill:#c8caca;}.c{fill:#53baab;}.d{fill:#23998c;}.e{fill:#fff;}.f{fill:#091e2a;}.g{fill:#e1f2fc;}.h{fill:#d7e5f5;}.i{fill:#37485a;}.j{fill:#ced0d0;}.k{fill:#6dc2b5;}.l{fill:#48a399;}.m{fill:#202e3a;}</style>
    <filter
       inkscape:collect="always"
       style="color-interpolation-filters:sRGB"
       id="filter1616"
       x="-0.10480263"
       width="1.2096053"
       y="-0.021732606"
       height="1.0434652">
      <feGaussianBlur
         inkscape:collect="always"
         stdDeviation="0.57448026"
         id="feGaussianBlur1618" />
    </filter>
  </defs>
  <rect
     style="opacity:1;fill:#e6e6e6;fill-opacity:0.94117647;stroke:none;stroke-width:1.1056546;stroke-linecap:round;stroke-linejoin:round;stroke-miterlimit:4;stroke-dasharray:none;stroke-dashoffset:0;stroke-opacity:1"
     id="rect969"
     width="216.72137"
     height="207.5302"
     x="8.5937501e-08"
     y="7.2021486e-08"
     ry="16.720243" />
  <path
     style="opacity:0.2;stroke-width:0.90117633"
     inkscape:connector-curvature="0"
     d="m 55.901871,101.12857 c 0,30.31199 24.659792,54.97176 54.971789,54.97176 30.31195,0 54.97172,-24.65977 54.97172,-54.97176 0,-30.311953 -24.65977,-54.971746 -54.97172,-54.971746 -30.311997,0 -54.971789,24.659793 -54.971789,54.971746 z"
     id="path1073" />
  <path
     style="opacity:0.56800022;fill:#ff0000;stroke-width:0.90117633"
     inkscape:connector-curvature="0"
     d="m 55.578595,101.12857 c 0,30.80944 25.064429,55.87295 55.872955,55.87295 30.8094,0 55.87291,-25.06442 55.87291,-55.87295 0,-30.808486 -25.06442,-55.872914 -55.87291,-55.872914 -30.808526,0 -55.872955,25.064428 -55.872955,55.872914 z"
     id="path1075" />
  <path
     style="fill:url(#XMLID_7_);stroke-width:0.90117633"
     inkscape:connector-curvature="0"
     d="m 55.901871,100.22741 c 0,30.31195 24.659792,54.97172 54.971789,54.97172 30.31195,0 54.97172,-24.65977 54.97172,-54.97172 0,-30.311961 -24.65977,-54.971754 -54.97172,-54.971754 -30.311997,0 -54.971789,24.659793 -54.971789,54.971754 z"
     id="path1082" />
  <circle
     style="fill:url(#XMLID_8_);stroke-width:0.90117633"
     cx="110.87364"
     cy="100.22739"
     r="54.07058"
     id="circle1093" />
  <path
     style="fill:url(#XMLID_9_);stroke-width:0.90117633"
     inkscape:connector-curvature="0"
     d="m 104.34012,94.369756 c 22.46993,-7.638369 59.38568,-5.610711 59.38568,-5.610711 -5.26015,-24.353386 -26.9244,-42.602221 -52.85214,-42.602221 -29.862303,0 -54.070582,24.208317 -54.070582,54.070586 0,7.46534 1.513073,14.57744 4.24904,21.04608 0,0 20.818953,-19.26537 43.288002,-26.903734 z"
     id="path1100" />
  <path
     style="fill:url(#XMLID_10_);stroke-width:0.90117633"
     inkscape:connector-curvature="0"
     d="m 110.87366,153.39682 c -29.711812,0 -53.815565,-23.96589 -54.0589,-53.61998 -0.0017,0.150572 -0.01138,0.3 -0.01138,0.45057 0,29.8623 24.208279,54.07056 54.07058,54.07056 29.86226,0 54.07056,-24.20826 54.07056,-54.07056 0,-0.15057 -0.0121,-0.300002 -0.0121,-0.45057 -0.24349,29.65409 -24.34707,53.61998 -54.05885,53.61998 z"
     id="path1115" />
  <path
     style="fill:url(#XMLID_11_);stroke-width:0.90117633"
     inkscape:connector-curvature="0"
     d="m 110.87366,47.149015 c 29.71177,0 53.81552,23.965892 54.05885,53.620015 8.8e-4,-0.15057 0.0121,-0.3 0.0121,-0.4506 0,-29.862266 -24.20831,-54.070583 -54.07057,-54.070583 -29.862298,0 -54.070579,24.208317 -54.070579,54.070583 0,0.15057 0.01138,0.3 0.01138,0.4506 C 57.058329,71.114907 81.16193,47.149015 110.87374,47.149015 Z"
     id="path1138" />
  <path
     style="fill:url(#XMLID_12_);stroke-width:0.90117633"
     inkscape:connector-curvature="0"
     d="m 75.727759,87.610938 c -0.497441,0 -0.901168,0.403725 -0.901168,0.901168 v 21.628264 c 0,0.49835 0.403727,0.90117 0.901168,0.90117 h 70.291761 c 0.49835,0 0.90118,-0.40282 0.90118,-0.90117 V 88.512106 c 0,-0.497443 -0.40283,-0.901168 -0.90118,-0.901168 z"
     id="path1151" />
  <text
     id="text1606"
     y="132.84943"
     x="96.911011"
     style="font-style:normal;font-weight:normal;font-size:88.62791443px;line-height:125%;font-family:sans-serif;letter-spacing:0px;word-spacing:0px;fill:#666666;fill-opacity:1;stroke:none;stroke-width:2.21569777px;stroke-linecap:butt;stroke-linejoin:miter;stroke-opacity:1;filter:url(#filter1616);"
     xml:space="preserve"><tspan
       style="font-style:normal;font-variant:normal;font-weight:bold;font-stretch:normal;font-family:Arial;-inkscape-font-specification:'Arial Bold';fill:#666666;stroke-width:2.21569777px;"
       y="132.84943"
       x="96.911011"
       id="tspan1604"
       sodipodi:role="line">!</tspan></text>
  <text
     xml:space="preserve"
     style="font-style:normal;font-weight:normal;font-size:88.62791443px;line-height:125%;font-family:sans-serif;letter-spacing:0px;word-spacing:0px;fill:#000000;fill-opacity:1;stroke:none;stroke-width:2.21569777px;stroke-linecap:butt;stroke-linejoin:miter;stroke-opacity:1"
     x="96.911011"
     y="132.84943"
     id="text1602"><tspan
       sodipodi:role="line"
       id="tspan1600"
       x="96.911011"
       y="132.84943"
       style="font-style:normal;font-variant:normal;font-weight:bold;font-stretch:normal;font-family:Arial;-inkscape-font-specification:'Arial Bold';fill:#ffffff;stroke-width:2.21569777px">!</tspan></text>
  <g
     id="g943"
     transform="matrix(1.4263511,0,0,1.4263511,102.16873,79.315837)">
    <rect
       id="rect684"
       transform="rotate(-45.002,37.318945,-47.584664)"
       height="26.139999"
       width="1.77"
       class="a"
       x="0"
       y="0"
       style="fill:#223a4b" />
    <path
       id="path686"
       transform="translate(-832.622,-890.653)"
       d="m 880.638,900.9 a 4.073,4.073 0 1 1 -4.076,-4.071 4.075,4.075 0 0 1 4.076,4.071"
       class="a"
       inkscape:connector-curvature="0"
       style="fill:#223a4b" />
    <rect
       id="rect688"
       transform="rotate(-44.996,87.192881,-109.16525)"
       height="1.7690001"
       width="26.139"
       class="a"
       x="0"
       y="0"
       style="fill:#223a4b" />
    <path
       id="path690"
       transform="translate(-812.765,-890.653)"
       d="m 931.782,900.9 a 4.073,4.073 0 1 0 4.073,-4.071 4.074,4.074 0 0 0 -4.073,4.071"
       class="a"
       inkscape:connector-curvature="0"
       style="fill:#223a4b" />
    <path
       id="path692"
       transform="translate(-823.753,-892.203)"
       d="m 915.572,900.5 a 8.3,8.3 0 1 1 -8.3,-8.3 8.3,8.3 0 0 1 8.3,8.3"
       class="a"
       inkscape:connector-curvature="0"
       style="fill:#223a4b" />
    <rect
       id="rect694"
       transform="translate(120.208,74.94)"
       height="4.7680001"
       width="26.364"
       class="b"
       x="0"
       y="0"
       style="fill:#c8caca" />
    <rect
       id="rect696"
       transform="translate(147.333,80.759)"
       height="26.362"
       width="4.7680001"
       class="b"
       x="0"
       y="0"
       style="fill:#c8caca" />
    <path
       id="path698"
       transform="translate(-806.827,-874.568)"
       d="m 963.579,951.894 a 7.034,7.034 0 1 1 -7.034,-7.033 7.034,7.034 0 0 1 7.034,7.033"
       class="c"
       inkscape:connector-curvature="0"
       style="fill:#53baab" />
    <path
       id="path700"
       transform="translate(-809.406,-865.852)"
       d="M 959.126,970.887 A 17.316,17.316 0 0 0 941.812,988.2 h 4.619 a 12.7,12.7 0 1 1 25.391,0 h 4.619 a 17.318,17.318 0 0 0 -17.315,-17.315"
       class="a"
       inkscape:connector-curvature="0"
       style="fill:#223a4b" />
    <path
       id="path702"
       transform="translate(-806.827,-867.093)"
       d="m 963.579,974.215 a 7.034,7.034 0 1 1 -7.034,-7.034 7.034,7.034 0 0 1 7.034,7.034"
       class="c"
       inkscape:connector-curvature="0"
       style="fill:#53baab" />
    <rect
       id="rect704"
       transform="translate(20.462,74.94)"
       height="4.7680001"
       width="26.362"
       class="b"
       x="0"
       y="0"
       style="fill:#c8caca" />
    <rect
       id="rect706"
       transform="translate(14.93,80.759)"
       height="26.362"
       width="4.7680001"
       class="b"
       x="0"
       y="0"
       style="fill:#c8caca" />
    <path
       id="path708"
       transform="translate(-840.045,-874.568)"
       d="m 850.326,951.894 a 7.033,7.033 0 1 0 7.032,-7.033 7.033,7.033 0 0 0 -7.032,7.033"
       class="c"
       inkscape:connector-curvature="0"
       style="fill:#53baab" />
    <path
       id="path710"
       transform="translate(-842.624,-865.852)"
       d="m 859.937,970.887 a 17.318,17.318 0 0 1 17.317,17.313 h -4.619 a 12.7,12.7 0 1 0 -25.391,0 h -4.619 a 17.314,17.314 0 0 1 17.312,-17.315"
       class="a"
       inkscape:connector-curvature="0"
       style="fill:#223a4b" />
    <path
       id="path712"
       transform="translate(-840.045,-867.093)"
       d="m 850.326,974.215 a 7.033,7.033 0 1 0 7.032,-7.034 7.034,7.034 0 0 0 -7.032,7.034"
       class="c"
       inkscape:connector-curvature="0"
       style="fill:#53baab" />
    <path
       id="path714"
       transform="translate(-816.224,-875.694)"
       d="M 945.73,953.636 A 12.138,12.138 0 1 1 933.593,941.5 12.136,12.136 0 0 1 945.73,953.637"
       class="a"
       inkscape:connector-curvature="0"
       style="fill:#223a4b" />
    <path
       id="path716"
       transform="translate(-833.21,-875.694)"
       d="M 895.014,953.636 A 12.14,12.14 0 1 1 882.877,941.5 12.136,12.136 0 0 1 895.014,953.637"
       class="a"
       inkscape:connector-curvature="0"
       style="fill:#223a4b" />
    <path
       id="path718"
       transform="translate(-830.222,-890.121)"
       d="m 913.774,898.421 h -0.067 a 34.051,34.051 0 0 0 -34.052,34.049 v 60.376 H 947.82 V 932.47 a 34.048,34.048 0 0 0 -34.047,-34.049"
       class="c"
       inkscape:connector-curvature="0"
       style="fill:#53baab" />
    <rect
       id="rect720"
       transform="translate(47.684,100.438)"
       height="5.296"
       width="71.667999"
       class="d"
       x="0"
       y="0"
       style="fill:#23998c" />
    <rect
       id="rect722"
       transform="translate(49.432,49.463)"
       height="10.711"
       width="68.165001"
       class="d"
       x="0"
       y="0"
       style="fill:#23998c" />
    <rect
       id="rect724"
       transform="translate(59.052,42.343)"
       height="12.828"
       width="8.8269997"
       class="c"
       x="0"
       y="0"
       style="fill:#53baab" />
    <rect
       id="rect726"
       transform="translate(79.104,42.343)"
       height="12.828"
       width="8.8269997"
       class="c"
       x="0"
       y="0"
       style="fill:#53baab" />
    <rect
       id="rect728"
       transform="translate(99.156,42.343)"
       height="12.828"
       width="8.8269997"
       class="c"
       x="0"
       y="0"
       style="fill:#53baab" />
    <rect
       id="rect730"
       transform="translate(69.076,55.172)"
       height="12.828"
       width="8.8269997"
       class="c"
       x="0"
       y="0"
       style="fill:#53baab" />
    <rect
       id="rect732"
       transform="translate(89.128,55.172)"
       height="12.828"
       width="8.8269997"
       class="c"
       x="0"
       y="0"
       style="fill:#53baab" />
    <path
       id="path734"
       transform="translate(-827.265,-886.201)"
       d="m 902.843,917.306 a 7.179,7.179 0 1 1 -7.181,-7.18 7.178,7.178 0 0 1 7.181,7.18"
       class="a"
       inkscape:connector-curvature="0"
       style="fill:#223a4b" />
    <path
       id="path736"
       transform="translate(-826.521,-885.456)"
       d="m 899.132,916.562 a 4.212,4.212 0 1 1 -4.212,-4.213 4.213,4.213 0 0 1 4.212,4.213"
       class="e"
       inkscape:connector-curvature="0"
       style="fill:#ffffff" />
    <path
       id="path738"
       transform="translate(-825.832,-884.767)"
       d="m 895.7,915.873 a 1.466,1.466 0 1 1 -1.466,-1.466 1.468,1.468 0 0 1 1.466,1.466"
       class="f"
       inkscape:connector-curvature="0"
       style="fill:#091e2a" />
    <path
       id="path740"
       transform="translate(-819.679,-886.201)"
       d="m 925.494,917.306 a 7.178,7.178 0 1 1 -7.182,-7.18 7.18,7.18 0 0 1 7.182,7.18"
       class="a"
       inkscape:connector-curvature="0"
       style="fill:#223a4b" />
    <path
       id="path742"
       transform="translate(-818.936,-885.456)"
       d="m 921.784,916.562 a 4.214,4.214 0 1 1 -4.213,-4.214 4.213,4.213 0 0 1 4.213,4.214"
       class="e"
       inkscape:connector-curvature="0"
       style="fill:#ffffff" />
    <path
       id="path744"
       transform="translate(-818.247,-884.767)"
       d="m 918.349,915.873 a 1.468,1.468 0 1 1 -1.47,-1.467 1.467,1.467 0 0 1 1.47,1.467"
       class="f"
       inkscape:connector-curvature="0"
       style="fill:#091e2a" />
    <path
       id="path746"
       transform="translate(-823.753,-890.105)"
       d="m 898.972,898.531 z m 0,-0.066 z"
       class="e"
       inkscape:connector-curvature="0"
       style="fill:#ffffff" />
    <path
       id="path748"
       transform="translate(-840.045,-889.622)"
       d="m 850.347,967.514 v 0 m 0,-0.035 v 0 m -0.005,-0.069 v 0 m 0,-0.04 v 0.013 -0.013 m 0,-0.043 v 0.019 -0.019 m 0,-0.045 v 0 m 0,-0.051 v 0 m 0,-0.044 v 0 m 0,-0.048 v 0 m 0,-0.051 a 0.2,0.2 0 0 0 0,0.04 0.2,0.2 0 0 1 0,-0.04 m 0,-0.04 v 0 m 0,-0.043 v 0 m 0,-0.056 v 0 m 28.846,-5.412 -0.005,0.008 0.005,-0.008 m 0.035,-0.059 a 0.16,0.16 0 0 0 -0.013,0.021 0.16,0.16 0 0 1 0.013,-0.021 m 0.035,-0.065 -0.016,0.032 0.016,-0.032 m 0.047,-0.072 -0.031,0.045 a 0.408,0.408 0 0 0 0.031,-0.045 m 0.08,-0.131 c -0.027,0.04 -0.051,0.08 -0.075,0.123 0.024,-0.043 0.048,-0.083 0.075,-0.123 m -21.133,-1.239 v 0 m -0.1,-0.013 v 0 m -0.04,-0.005 h 0.011 -0.011 m -0.037,0 v 0 m -0.1,-0.008 v 0 m -0.04,-0.005 h 0.016 -0.016 m -0.043,0 h 0.021 -0.021 m -0.056,0 v 0 m -0.04,0 v 0 m -0.043,0 v 0 m -0.053,0 a 0.175,0.175 0 0 1 0.037,0 0.175,0.175 0 0 0 -0.037,0 m -0.042,0 h 0.028 -0.028 m -0.043,0 v 0 m -0.048,0 a 0.136,0.136 0 0 1 0.032,0 0.136,0.136 0 0 0 -0.032,0 m -0.048,0 v 0 m -0.043,0 v 0 m -0.043,0 a 0.11,0.11 0 0 0 0.029,0 0.11,0.11 0 0 1 -0.029,0 m -0.053,0 a 7.034,7.034 0 0 0 -7.034,7.034 7.034,7.034 0 0 1 7.034,-7.034 v 0 m 29.24,-4.085 a 12.15,12.15 0 0 0 -7.231,5.377 12.158,12.158 0 0 1 7.231,-5.377 m 0.067,-0.019 c -0.016,0.005 -0.035,0.008 -0.053,0.013 0.019,-0.005 0.037,-0.008 0.053,-0.013 m 0.068,-0.016 c -0.016,0 -0.032,0.008 -0.047,0.011 0.015,0 0.031,-0.008 0.047,-0.011 m 0.064,-0.016 -0.04,0.008 0.04,-0.008 m 0.15,-0.039 h -0.005 0.005 m 0.061,-0.013 v 0 m -2.982,-51.785 v 0 m 0.032,0 v 0 m 0.032,0 v 0 m 0.04,0 h -0.011 0.011 m 0.032,0 v 0 m 0.029,0 h -0.011 0.011 m 0.035,0 v 0 m 0.037,0 v 0 m 0.029,0 h -0.013 0.013 m 0.033,0 h -0.015 0.015 m 0.04,0 v 0 m 0.029,0 v 0 m 0.029,0 v 0 m 0.04,-0.005 h -0.021 0.021 m 0.032,-0.005 h -0.016 0.016 m 0.029,0 h -0.016 0.016 m 0.029,0 v 0 m 0.037,-0.008 h -0.013 0.013 m 0.032,0 h -0.016 0.016 m 0.027,-0.005 h -0.013 0.013 m 0.039,-0.005 h -0.019 0.019 m 0.032,-0.005 h -0.013 0.013 m 0.029,-0.005 h -0.013 0.013 m 0.029,-0.008 h -0.013 0.013 m 0.035,-0.005 v 0 m 0.032,-0.008 h -0.011 0.011 m 0.029,-0.005 h -0.011 0.011 m 0.027,-0.005 v 0 m 0.037,-0.011 h -0.008 0.008 m 0.029,-0.005 v 0 m 0.029,-0.008 v 0 m 0.033,-0.008 v 0 m 0.032,-0.011 h -0.005 0.005 m 0.029,-0.008 v 0 0 m 0.881,-0.364 v 0 l 9.4,9.394 v 0 l -9.4,-9.394 m 1.4,-1.292 c -0.025,0.037 -0.052,0.075 -0.079,0.109 l 5.645,5.643 -5.643,-5.643 0.076,-0.109 m 0.013,-0.021 -0.008,0.011 0.008,-0.011 m 0.665,-1.994 v 0 m 0.005,-0.083 v 0 m 0,-0.044 v 0 m 0,-0.037 v 0 m 0,-0.045 v 0"
       class="g"
       inkscape:connector-curvature="0"
       style="fill:#e1f2fc" />
    <path
       id="path750"
       transform="translate(-842.597,-864.339)"
       d="m 870.083,979.089 0.005,0.008 -0.005,-0.008 m -0.043,-0.059 v 0.005 -0.005 m -0.053,-0.069 0.011,0.016 -0.011,-0.016 m -0.045,-0.056 0.016,0.019 -0.016,-0.019 m -0.056,-0.072 0.021,0.024 -0.021,-0.024 m -0.043,-0.055 c 0.008,0.008 0.016,0.02 0.024,0.029 l -0.024,-0.029 m -0.068,-0.085 a 0.762,0.762 0 0 1 0.055,0.069 0.762,0.762 0 0 0 -0.055,-0.069 m -0.035,-0.043 0.032,0.04 -0.032,-0.04 m -9.9,-0.155 v 0 m 0.137,0 v 0 m -0.193,0 v 0 m 0.247,0 v 0 m -0.3,0 v 0 m 0.351,0 v 0 m -0.4,0 v 0 m 0.461,0 v 0 m -0.529,0 v 0 m 0.59,0 v 0 m -0.643,0 v 0 m 0.7,0 v 0 m -0.747,0 v 0 m 0.8,0 v 0 m 0.068,-0.005 v 0 m -0.976,0 v 0 m 1.032,0 a 0.073,0.073 0 0 0 -0.024,0 0.073,0.073 0 0 1 0.024,0 m -1.088,0 v 0 m 1.139,0 v 0 m 0.051,-0.005 a 0.062,0.062 0 0 0 -0.027,0 0.062,0.062 0 0 1 0.027,0 m 0.075,-0.008 a 0.328,0.328 0 0 1 -0.053,0.005 0.328,0.328 0 0 0 0.053,-0.005 m 0.051,-0.005 -0.032,0.005 0.032,-0.005 m 0.049,-0.005 -0.032,0.005 0.032,-0.005 m 0.051,-0.005 c -0.013,0 -0.024,0 -0.035,0.005 0.011,0 0.021,0 0.035,-0.005 m 0.128,-0.016 -0.125,0.016 0.125,-0.016 m 0.045,-0.008 -0.04,0.008 0.04,-0.008 m -15.7,-0.926 a 17.2,17.2 0 0 0 -2.536,7.263 17.2,17.2 0 0 1 2.536,-7.263 m 0.051,-0.082 c -0.016,0.024 -0.032,0.051 -0.048,0.076 0.016,-0.025 0.032,-0.052 0.048,-0.076 m 0.029,-0.045 a 0.406,0.406 0 0 1 -0.024,0.035 0.406,0.406 0 0 0 0.024,-0.035 m 0.032,-0.051 c -0.008,0.011 -0.013,0.021 -0.019,0.029 0.005,-0.008 0.011,-0.019 0.019,-0.029 m 0.045,-0.069 a 0.1,0.1 0 0 0 -0.013,0.021 0.1,0.1 0 0 1 0.013,-0.021 m 0.035,-0.056 -0.008,0.013 0.008,-0.013 m 10.328,-0.048 v 0 m -10.287,-0.011 v 0 m 10.241,-0.025 0.005,0.005 -0.005,-0.005 m -0.04,-0.029 0.005,0.005 -0.005,-0.005 m -0.043,-0.032 v 0 0 m -0.052,-0.04 0.017,0.013 -0.017,-0.013 m -0.04,-0.032 0.019,0.016 -0.019,-0.016 m -0.04,-0.029 0.024,0.019 -0.024,-0.019 m -1.415,-1.539 a 12.727,12.727 0 0 0 -6.537,8.385 12.716,12.716 0 0 1 6.537,-8.382 7.065,7.065 0 0 0 1.415,1.534 7.018,7.018 0 0 1 -1.415,-1.536 m 11.65,0 a 7.028,7.028 0 0 1 -4.8,3.016 7.034,7.034 0 0 0 4.8,-3.013 12.742,12.742 0 0 1 4,3.241 12.787,12.787 0 0 0 -4,-3.244"
       class="h"
       inkscape:connector-curvature="0"
       style="fill:#d7e5f5" />
    <path
       id="path752"
       transform="translate(-834.15,-862.858)"
       d="m 868.086,980.348 0.005,0.013 -0.005,-0.013 m -0.019,-0.072 v 0.013 -0.013 m -0.024,-0.079 v 0.011 -0.011 m -0.021,-0.072 v 0.013 -0.013 m -0.048,-0.147 v 0.005 -0.005 m -0.045,-0.151 v 0"
       class="g"
       inkscape:connector-curvature="0"
       style="fill:#e1f2fc" />
    <path
       id="path754"
       transform="translate(-834.104,-862.707)"
       d="m 868.484,982.117 c 0,0.015 0,0.025 0.005,0.036 a 0.178,0.178 0 0 0 -0.005,-0.036 m -0.011,-0.067 a 0.179,0.179 0 0 0 0.005,0.035 0.179,0.179 0 0 1 -0.005,-0.035 m -0.016,-0.091 a 0.139,0.139 0 0 0 0.005,0.032 0.139,0.139 0 0 1 -0.005,-0.032 m -0.013,-0.069 a 0.189,0.189 0 0 1 0.005,0.037 0.189,0.189 0 0 0 -0.005,-0.037 m -0.016,-0.088 a 0.41,0.41 0 0 0 0.011,0.053 0.41,0.41 0 0 1 -0.011,-0.053 m -0.013,-0.071 0.005,0.037 -0.005,-0.037 m -0.019,-0.085 a 0.268,0.268 0 0 1 0.011,0.045 0.268,0.268 0 0 0 -0.011,-0.045 m -0.013,-0.067 0.008,0.029 -0.008,-0.029 m -0.016,-0.088 0.008,0.04 -0.008,-0.04 m -0.016,-0.071 a 0.151,0.151 0 0 1 0.005,0.031 0.151,0.151 0 0 0 -0.005,-0.031 m -0.019,-0.088 a 0.345,0.345 0 0 0 0.011,0.048 0.345,0.345 0 0 1 -0.011,-0.048 m -0.016,-0.069 0.008,0.035 -0.008,-0.035 m -0.019,-0.083 c 0,0.016 0.008,0.032 0.011,0.048 0,-0.016 -0.008,-0.032 -0.011,-0.048 m -0.016,-0.072 0.008,0.032 -0.008,-0.032 m -0.019,-0.081 a 0.193,0.193 0 0 0 0.011,0.043 0.237,0.237 0 0 1 -0.011,-0.043 m -0.019,-0.072 0.008,0.03 -0.008,-0.03 m -0.017,-0.072 a 0.132,0.132 0 0 1 0.005,0.032 0.132,0.132 0 0 0 -0.005,-0.032 m -0.021,-0.08 0.005,0.027 a 0.079,0.079 0 0 0 -0.005,-0.027 m -0.016,-0.068 0.005,0.021 -0.005,-0.021 m -0.024,-0.088 0.008,0.027 -0.008,-0.027 m -0.016,-0.067 a 0.117,0.117 0 0 0 0.005,0.027 0.117,0.117 0 0 1 -0.005,-0.027 m -0.024,-0.083 a 0.061,0.061 0 0 1 0.005,0.021 0.061,0.061 0 0 0 -0.005,-0.021 m -0.019,-0.069 0.005,0.021 -0.005,-0.021 m -0.021,-0.081 0.005,0.019 -0.005,-0.019 m -0.021,-0.069 0.005,0.016 -0.005,-0.016"
       class="g"
       inkscape:connector-curvature="0"
       style="fill:#e1f2fc" />
    <path
       id="path756"
       transform="translate(-841.391,-862.235)"
       d="m 846.342,981.686 c -0.013,0.053 -0.024,0.1 -0.035,0.158 0.011,-0.053 0.021,-0.1 0.035,-0.158"
       class="h"
       inkscape:connector-curvature="0"
       style="fill:#d7e5f5" />
    <path
       id="path758"
       transform="translate(-833.995,-862.222)"
       d="m 868.4,981.792 c 0,0.011 0,0.024 0.005,0.035 0,-0.011 0,-0.024 -0.005,-0.035 m -0.011,-0.067 0.005,0.032 -0.005,-0.032"
       class="g"
       inkscape:connector-curvature="0"
       style="fill:#e1f2fc" />
    <path
       id="path760"
       transform="translate(-841.394,-862.195)"
       d="m 846.309,981.807 c 0,0.016 -0.009,0.035 -0.012,0.051 0,-0.016 0.009,-0.035 0.012,-0.051"
       class="h"
       inkscape:connector-curvature="0"
       style="fill:#d7e5f5" />
    <path
       id="path762"
       transform="translate(-833.988,-862.182)"
       d="m 868.41,981.844 0.005,0.032 -0.005,-0.032"
       class="g"
       inkscape:connector-curvature="0"
       style="fill:#e1f2fc" />
    <path
       id="path764"
       transform="translate(-841.4,-862.181)"
       d="m 846.3,981.849 c -0.009,0.035 -0.013,0.069 -0.023,0.105 0.009,-0.036 0.013,-0.071 0.023,-0.105"
       class="h"
       inkscape:connector-curvature="0"
       style="fill:#d7e5f5" />
    <path
       id="path766"
       transform="translate(-833.986,-862.165)"
       d="m 868.418,981.9 c 0,0.011 0,0.024 0.005,0.035 0,-0.011 0,-0.024 -0.005,-0.035"
       class="g"
       inkscape:connector-curvature="0"
       style="fill:#e1f2fc" />
    <path
       id="path768"
       transform="translate(-841.402,-862.154)"
       d="m 846.283,981.928 a 0.272,0.272 0 0 1 -0.011,0.045 0.272,0.272 0 0 0 0.011,-0.045"
       class="h"
       inkscape:connector-curvature="0"
       style="fill:#d7e5f5" />
    <path
       id="path770"
       transform="translate(-841.41,-862.138)"
       d="m 846.277,981.976 c -0.008,0.048 -0.019,0.094 -0.027,0.142 0.008,-0.048 0.019,-0.094 0.027,-0.142"
       class="h"
       inkscape:connector-curvature="0"
       style="fill:#d7e5f5" />
    <path
       id="path772"
       transform="translate(-833.98,-862.125)"
       d="m 868.447,982.09 0.008,0.052 -0.008,-0.052 m -0.011,-0.075 0.005,0.035 -0.005,-0.035"
       class="g"
       inkscape:connector-curvature="0"
       style="fill:#e1f2fc" />
    <path
       id="path774"
       transform="translate(-833.974,-862.085)"
       d="m 868.452,982.135 a 0.156,0.156 0 0 0 0.005,0.035 0.135,0.135 0 0 1 -0.005,-0.035"
       class="g"
       inkscape:connector-curvature="0"
       style="fill:#e1f2fc" />
    <path
       id="path776"
       transform="translate(-841.417,-862.081)"
       d="m 846.241,982.145 c -0.005,0.024 -0.008,0.051 -0.013,0.075 0.005,-0.024 0.008,-0.051 0.013,-0.075"
       class="h"
       inkscape:connector-curvature="0"
       style="fill:#d7e5f5" />
    <path
       id="path778"
       transform="translate(-833.972,-862.064)"
       d="m 868.46,982.2 0.005,0.037 c 0,-0.013 0,-0.027 -0.005,-0.037"
       class="g"
       inkscape:connector-curvature="0"
       style="fill:#e1f2fc" />
    <path
       id="path780"
       transform="translate(-841.42,-862.057)"
       d="m 846.227,982.219 -0.008,0.04 z"
       class="h"
       inkscape:connector-curvature="0"
       style="fill:#d7e5f5" />
    <path
       id="path782"
       transform="translate(-833.969,-862.044)"
       d="m 868.468,982.257 v 0.032 -0.032"
       class="g"
       inkscape:connector-curvature="0"
       style="fill:#e1f2fc" />
    <path
       id="path784"
       transform="translate(-841.424,-862.04)"
       d="m 846.219,982.268 c 0,0.024 -0.008,0.045 -0.011,0.069 0,-0.024 0.008,-0.045 0.011,-0.069"
       class="h"
       inkscape:connector-curvature="0"
       style="fill:#d7e5f5" />
    <path
       id="path786"
       transform="translate(-833.967,-862.024)"
       d="m 868.475,982.316 a 0.2,0.2 0 0 0 0.005,0.039 0.2,0.2 0 0 1 -0.005,-0.039"
       class="g"
       inkscape:connector-curvature="0"
       style="fill:#e1f2fc" />
    <path
       id="path788"
       transform="translate(-841.426,-862.016)"
       d="m 846.206,982.34 c 0,0.013 0,0.027 -0.005,0.037 l 0.005,-0.037"
       class="h"
       inkscape:connector-curvature="0"
       style="fill:#d7e5f5" />
    <path
       id="path790"
       transform="translate(-833.964,-862.003)"
       d="m 868.482,982.378 v 0.029 -0.029"
       class="g"
       inkscape:connector-curvature="0"
       style="fill:#e1f2fc" />
    <path
       id="path792"
       transform="translate(-842.6,-861.999)"
       d="m 842.708,982.419 c 0,0.032 -0.008,0.068 -0.011,0.1 0,-0.035 0.008,-0.068 0.011,-0.1 m 4.661,-0.027 c 0,0.011 0,0.024 -0.005,0.035 0,-0.011 0,-0.024 0.005,-0.035"
       class="h"
       inkscape:connector-curvature="0"
       style="fill:#d7e5f5" />
    <path
       id="path794"
       transform="translate(-833.962,-861.984)"
       d="m 868.488,982.437 v 0.032 -0.032"
       class="e"
       inkscape:connector-curvature="0"
       style="fill:#ffffff" />
    <path
       id="path796"
       transform="translate(-842.601,-861.977)"
       d="m 842.7,982.5 c 0,0.016 0,0.035 -0.005,0.053 0,-0.019 0,-0.037 0.005,-0.053 m 4.661,-0.045 -0.008,0.04 0.008,-0.04"
       class="h"
       inkscape:connector-curvature="0"
       style="fill:#d7e5f5" />
    <path
       id="path798"
       transform="translate(-833.96,-861.962)"
       d="m 868.5,982.5 v 0.027 -0.027"
       class="e"
       inkscape:connector-curvature="0"
       style="fill:#ffffff" />
    <path
       id="path800"
       transform="translate(-842.604,-861.958)"
       d="m 842.695,982.541 c 0,0.032 -0.005,0.067 -0.011,0.1 0.005,-0.035 0.008,-0.067 0.011,-0.1 m 4.656,-0.029 a 0.191,0.191 0 0 0 -0.005,0.035 0.191,0.191 0 0 1 0.005,-0.035"
       class="h"
       inkscape:connector-curvature="0"
       style="fill:#d7e5f5" />
    <path
       id="path802"
       transform="translate(-833.958,-861.943)"
       d="m 868.5,982.559 v 0.027 -0.027"
       class="e"
       inkscape:connector-curvature="0"
       style="fill:#ffffff" />
    <path
       id="path804"
       transform="translate(-842.605,-861.939)"
       d="m 842.684,982.63 c 0,0.016 0,0.029 0,0.045 0,-0.016 0,-0.029 0,-0.045 m 4.656,-0.061 -0.008,0.048 0.008,-0.048"
       class="h"
       inkscape:connector-curvature="0"
       style="fill:#d7e5f5" />
    <path
       id="path806"
       transform="translate(-833.956,-861.922)"
       d="m 868.507,982.622 v 0.029 -0.029"
       class="e"
       inkscape:connector-curvature="0"
       style="fill:#ffffff" />
    <path
       id="path808"
       transform="translate(-842.608,-861.917)"
       d="m 842.681,982.676 -0.008,0.075 0.008,-0.075 m 29.836,-0.027 v 0 m -25.188,-0.013 v 0.029 -0.029"
       class="h"
       inkscape:connector-curvature="0"
       style="fill:#d7e5f5" />
    <path
       id="path810"
       transform="translate(-833.954,-861.903)"
       d="m 868.513,982.679 v 0.016 -0.016"
       class="e"
       inkscape:connector-curvature="0"
       style="fill:#ffffff" />
    <path
       id="path812"
       transform="translate(-842.624,-861.899)"
       d="m 842.625,984.157 v 0 m 34.629,0 v 0 m -30.01,0 v 0 m 25.391,0 v 0 m -30.01,-0.073 v 0 m 34.629,0 v 0 m -30.01,0 v 0 m 25.391,0 v 0 m 0,-0.088 v 0 m -30,0 v 0.019 -0.019 m 4.616,0 v 0 m 30.007,0 v 0 m -34.623,-0.072 v 0 m 34.623,0 v 0 m -4.619,0 v 0 m -25.386,0 v 0 m 25.383,-0.083 v 0 m -25.38,0 v 0 m 30,-0.005 v 0 m -34.618,0 v 0 m 0,-0.076 v 0 m 30,0 v 0 m 4.619,0 v 0 m -29.994,0 v 0 m 0,-0.078 v 0 m -4.622,-0.011 v 0 m 34.61,0 a 0.059,0.059 0 0 0 0,0.021 v -0.021 m -4.624,-0.072 v 0 m -29.983,0 v 0 m 34.6,0 v 0 m -29.981,0 v 0 m 25.354,-0.069 v 0 m -25.351,0 v 0 m 29.975,-0.016 v 0 m -34.6,0 a 0.086,0.086 0 0 1 0,0.025 0.086,0.086 0 0 0 0,-0.025 m 29.967,-0.067 v 0.013 -0.013 m -25.338,-0.005 v 0.021 -0.021 m 29.965,0 v 0 m -34.591,0 v 0 m 29.959,-0.069 v 0.011 -0.011 m -25.33,-0.005 v 0 m 29.956,-0.013 v 0 m -34.581,-0.005 a 0.082,0.082 0 0 1 0,0.027 0.09,0.09 0 0 0 0,-0.027 m 29.948,-0.056 v 0 m -25.316,-0.013 v 0.021 -0.021 m 29.943,0 a 0.074,0.074 0 0 1 0,0.024 0.074,0.074 0 0 0 0,-0.024 m -34.573,0 v 0 m 29.941,-0.067 v 0 m -25.306,-0.005 a 0.073,0.073 0 0 1 0,0.024 0.073,0.073 0 0 0 0,-0.024 m 29.932,-0.017 a 0.07,0.07 0 0 1 0,0.023 0.07,0.07 0 0 0 0,-0.023 m -34.561,0 v 0 m 4.636,-0.057 a 0.051,0.051 0 0 0 0,0.021 0.051,0.051 0 0 1 0,-0.021 m 29.922,-0.013 v 0 m -34.554,0 a 0.135,0.135 0 0 1 0,0.032 0.135,0.135 0 0 0 0,-0.032 m 29.914,-0.061 v 0.011 -0.011 M 847.3,983.053 a 0.074,0.074 0 0 0 0,0.024 0.074,0.074 0 0 1 0,-0.024 M 877.208,983 a 0.067,0.067 0 0 1 0,0.021 0.067,0.067 0 0 0 0,-0.021 m -34.538,-0.008 a 0.257,0.257 0 0 0 0,0.032 0.257,0.257 0 0 1 0,-0.032 m 29.9,-0.043 v 0 m -25.263,-0.005 a 0.058,0.058 0 0 1 0,0.021 0.058,0.058 0 0 0 0,-0.021 m 29.9,-0.019 v 0.024 -0.024 m -34.526,-0.005 a 0.156,0.156 0 0 0 0,0.035 0.156,0.156 0 0 1 0,-0.035 m 29.883,-0.053 v 0.005 -0.005 m -25.242,-0.013 a 0.086,0.086 0 0 0 0,0.027 0.086,0.086 0 0 1 0,-0.027 m 29.879,-0.013 v 0 m -34.515,-0.013 c 0,0.016 0,0.032 0,0.048 0,-0.016 0,-0.032 0,-0.048 m 29.87,-0.039 v 0 m -25.226,-0.008 a 0.1,0.1 0 0 0 0,0.027 0.1,0.1 0 0 1 0,-0.027 m 29.863,-0.019 a 0.073,0.073 0 0 1 0,0.024 0.073,0.073 0 0 0 0,-0.024 m -34.5,-0.005 a 0.176,0.176 0 0 1 0,0.037 0.175,0.175 0 0 0 0,-0.037 m 34.5,-0.064 v 0 m -29.847,0 a 0.1,0.1 0 0 0 0,0.027 0.09,0.09 0 0 1 0,-0.027"
       class="h"
       inkscape:connector-curvature="0"
       style="fill:#d7e5f5" />
    <path
       id="path814"
       transform="translate(-831.1,-889.036)"
       d="m 878.355,901.659 a 4.142,4.142 0 0 1 -1.322,1.181 l 9.394,9.395 c 0.338,-0.5 0.686,-0.978 1.049,-1.455 L 884,907.3 l -5.641,-5.643"
       class="i"
       inkscape:connector-curvature="0"
       style="fill:#37485a" />
    <path
       id="path816"
       transform="translate(-832.622,-890.653)"
       d="m 876.565,896.831 a 4.0715,4.0715 0 1 0 0,8.143 h 0.1 0.029 0.043 0.019 0.048 0.021 0.016 0.016 0.013 0.016 0.013 0.028 0.016 0.013 0.016 0.016 0.013 0.019 a 0.046,0.046 0 0 1 0.019,0 h 0.019 0.013 0.016 0.016 0.011 0.016 a 0.09,0.09 0 0 0 0.027,0 h 0.013 0.016 0.013 0.016 0.013 0.017 0.021 l 0.019,-0.005 h 0.013 0.013 0.016 0.016 0.011 l 0.029,-0.005 h 0.005 a 0.077,0.077 0 0 1 0.024,-0.005 h 0.008 a 0.063,0.063 0 0 0 0.021,-0.005 h 0.008 l 0.029,-0.008 0.027,-0.005 h 0.011 l 0.021,-0.005 h 0.008 a 0.078,0.078 0 0 0 0.024,-0.005 v 0 l 0.029,-0.008 h 0.005 l 0.027,-0.005 v 0 l 0.027,-0.008 v 0 a 4.062,4.062 0 0 0 2.2,-1.547 c 0.027,-0.035 0.051,-0.072 0.076,-0.11 l 0.008,-0.011 0.008,-0.011 a 4.1,4.1 0 0 0 0.665,-1.992 v 0 c 0,-0.027 0,-0.051 0,-0.078 v -0.005 c 0,-0.013 0,-0.024 0,-0.037 v -0.089 c 0,-0.013 0,-0.024 0,-0.037 a 4.075,4.075 0 0 0 -4.074,-4.071"
       class="i"
       inkscape:connector-curvature="0"
       style="fill:#37485a" />
    <path
       id="path818"
       transform="translate(-823.754,-892.203)"
       d="m 907.272,892.2 a 8.3,8.3 0 0 0 -8.3,8.3 v 0.072 a 0.307,0.307 0 0 1 0,0.051 v 0.008 a 7.687,7.687 0 0 0 0.059,0.862 34.153,34.153 0 0 1 8.206,-0.993 h 0.035 v -8.3"
       class="i"
       inkscape:connector-curvature="0"
       style="fill:#37485a" />
    <path
       id="path820"
       transform="translate(-836.62,-873.401)"
       d="m 874.52,948.344 h -13.967 a 7.053,7.053 0 0 1 0,4.768 h 13.721 a 12.313,12.313 0 0 1 0.246,-4.768"
       class="j"
       inkscape:connector-curvature="0"
       style="fill:#ced0d0" />
    <path
       id="path822"
       transform="translate(-838.879,-871.142)"
       d="m 853.808,955.089 v 16.557 a 7.032,7.032 0 0 1 4.768,0 v -16.557 a 7.051,7.051 0 0 1 -4.768,0"
       class="j"
       inkscape:connector-curvature="0"
       style="fill:#ced0d0" />
    <path
       id="path824"
       transform="translate(-840.045,-874.568)"
       d="m 857.358,944.861 a 7.034,7.034 0 0 0 -7.032,7.033 v 0.14 a 0.2,0.2 0 0 0 0,0.04 v 0.056 0.024 0.04 a 0.1,0.1 0 0 0 0,0.029 v 0.048 0.019 0.024 0.013 0.033 a 0.475,0.475 0 0 1 0.005,0.064 v 0.035 a 7.041,7.041 0 0 0 4.625,6.052 v 0 a 7.108,7.108 0 0 0 4.772,0 v 0 a 7.036,7.036 0 0 0 -1.507,-13.6 v 0 l -0.1,-0.011 v 0 a 0.1,0.1 0 0 0 -0.029,0 h -0.011 -0.027 -0.011 l -0.087,-0.008 h -0.016 -0.021 -0.016 a 0.071,0.071 0 0 1 -0.024,0 h -0.021 -0.03 a 0.076,0.076 0 0 1 -0.024,0 h -0.04 -0.021 -0.021 -0.019 -0.039 -0.013 -0.043 -0.027 -0.056 a 0.211,0.211 0 0 1 -0.04,0 h -0.14"
       class="k"
       inkscape:connector-curvature="0"
       style="fill:#6dc2b5" />
    <path
       id="path826"
       d="m 852.931,972 a 17.38,17.38 0 0 0 -7.427,6.275 l -0.04,0.059 -0.008,0.013 c -0.011,0.013 -0.021,0.029 -0.031,0.043 l -0.013,0.021 -0.032,0.048 c -0.005,0.011 -0.013,0.019 -0.019,0.029 l -0.013,0.021 a 0.348,0.348 0 0 0 -0.021,0.035 l -0.008,0.009 a 0.736,0.736 0 0 1 -0.048,0.077 v 0.005 a 17.208,17.208 0 0 0 -2.536,7.263 v 0 c 0,0.035 -0.008,0.069 -0.011,0.1 v 0.005 a 0.4,0.4 0 0 0 -0.005,0.053 v 0 c -0.005,0.035 -0.008,0.067 -0.011,0.1 v 0.008 a 0.231,0.231 0 0 0 -0.005,0.045 v 0.021 c 0,0.024 0,0.048 -0.005,0.076 v 0.024 c 0,0.013 0,0.027 0,0.037 a 0.155,0.155 0 0 0 0,0.032 c 0,0.016 0,0.032 -0.005,0.048 a 0.257,0.257 0 0 1 0,0.045 v 0.035 c 0,0.013 0,0.027 0,0.037 a 0.119,0.119 0 0 1 0,0.032 c 0,0.023 0,0.044 0,0.063 a 0.135,0.135 0 0 0 0,0.032 v 0.04 0.029 c 0,0.021 0,0.043 0,0.064 a 0.1,0.1 0 0 1 0,0.027 0.274,0.274 0 0 1 0,0.045 v 0.027 c 0,0.024 0,0.047 0,0.068 v 0.021 a 0.32,0.32 0 0 1 0,0.051 v 0.024 c 0,0.024 0,0.045 0,0.069 v 0.016 c 0,0.019 0,0.04 0,0.059 v 0.019 c 0,0.024 0,0.048 0,0.073 v 0.013 c 0,0.019 0,0.04 0,0.059 v 0.021 a 0.619,0.619 0 0 1 0,0.072 v 0.239 0.019 0.075 h 4.619 v -0.168 a 0.691,0.691 0 0 0 0,-0.073 v -0.019 a 0.376,0.376 0 0 1 0,-0.056 v -0.091 -0.013 -0.059 -0.021 a 0.522,0.522 0 0 1 0,-0.065 v -0.011 c 0,-0.024 0,-0.045 0,-0.069 v -0.021 c 0,-0.019 0,-0.035 0.005,-0.053 v -0.019 a 0.6,0.6 0 0 1 0.005,-0.069 V 987 c 0,-0.016 0,-0.036 0,-0.052 v -0.024 c 0,-0.021 0,-0.045 0.005,-0.067 v -0.019 c 0,-0.019 0,-0.035 0.005,-0.053 a 0.077,0.077 0 0 1 0,-0.024 c 0,-0.019 0,-0.037 0,-0.056 a 0.056,0.056 0 0 0 0,-0.021 0.5,0.5 0 0 0 0.005,-0.06 0.1,0.1 0 0 0 0,-0.027 c 0,-0.016 0,-0.035 0.005,-0.051 a 0.066,0.066 0 0 1 0,-0.021 c 0,-0.021 0,-0.043 0.005,-0.064 a 0.09,0.09 0 0 0 0,-0.027 0.259,0.259 0 0 0 0.005,-0.045 0.091,0.091 0 0 0 0,-0.027 l 0.008,-0.064 a 0.1,0.1 0 0 0 0,-0.028 0.205,0.205 0 0 0 0.005,-0.043 c 0,-0.008 0,-0.019 0.005,-0.029 a 0.2,0.2 0 0 1 0.005,-0.04 0.312,0.312 0 0 0 0.005,-0.051 0.179,0.179 0 0 0 0.005,-0.037 l 0.005,-0.037 c 0,-0.008 0,-0.019 0.005,-0.029 0.005,-0.01 0,-0.029 0.005,-0.044 l 0.008,-0.051 0.005,-0.037 0.005,-0.029 c 0,-0.013 0,-0.027 0.005,-0.04 l 0.005,-0.024 c 0,-0.024 0.008,-0.045 0.011,-0.069 a 0.1,0.1 0 0 1 0.005,-0.027 0.234,0.234 0 0 1 0.005,-0.041 l 0.005,-0.024 a 0.734,0.734 0 0 1 0.013,-0.075 v -0.019 l 0.008,-0.043 0.007,-0.021 c 0.008,-0.048 0.016,-0.093 0.027,-0.141 v -0.016 a 0.22,0.22 0 0 1 0.011,-0.047 v 0 c 0.005,-0.035 0.013,-0.069 0.021,-0.1 v -0.005 a 0.269,0.269 0 0 0 0.011,-0.051 v 0 c 0.011,-0.053 0.024,-0.107 0.035,-0.159 v 0 a 12.732,12.732 0 0 1 6.537,-8.383 7.015,7.015 0 0 1 -1.224,-3.958 c 0,-0.2 0.008,-0.4 0.027,-0.606 m 14.015,0 c 0.016,0.2 0.024,0.4 0.024,0.606 a 7,7 0 0 1 -1.208,3.943 12.785,12.785 0 0 1 4,3.243 v 0 l 0.032,0.04 v 0 c 0.019,0.021 0.037,0.047 0.056,0.071 l 0.011,0.016 a 0.131,0.131 0 0 1 0.024,0.029 l 0.019,0.021 a 0.22,0.22 0 0 0 0.021,0.027 c 0.011,0.016 0.024,0.032 0.037,0.048 l 0.013,0.019 0.029,0.037 0.013,0.016 0.04,0.053 0.005,0.005 c 0.011,0.019 0.025,0.035 0.039,0.055 l 0.005,0.008 a 12.613,12.613 0 0 1 2.417,5.974 v 0 c 0.005,0.053 0.011,0.105 0.019,0.156 v 0.005 l 0.008,0.075 v 0 l 0.008,0.077 v 0 l 0.008,0.072 v 0.011 c 0.005,0.052 0.011,0.1 0.013,0.151 v 0.013 a 0.687,0.687 0 0 0 0.005,0.069 v 0.005 c 0,0.024 0,0.048 0.005,0.075 v 0.011 c 0,0.021 0,0.044 0.005,0.065 v 0.013 c 0,0.024 0,0.051 0.005,0.075 v 0.008 c 0,0.021 0,0.043 0,0.064 v 0.019 c 0,0.048 0,0.1 0.005,0.146 v 0.019 a 0.513,0.513 0 0 1 0,0.064 v 0.011 a 0.618,0.618 0 0 1 0,0.072 v 0.019 c 0,0.019 0,0.04 0,0.059 v 0.1 c 0,0.021 0,0.04 0,0.062 v 0.093 h 4.616 v -0.26 c 0,-0.021 0,-0.04 0,-0.062 v -0.1 a 0.47,0.47 0 0 1 0,-0.061 v -0.016 a 0.672,0.672 0 0 1 0,-0.071 v -0.021 a 0.342,0.342 0 0 1 0,-0.053 v -0.019 a 0.6,0.6 0 0 1 0,-0.069 v -0.021 -0.053 a 0.069,0.069 0 0 1 0,-0.021 c 0,-0.024 0,-0.047 0,-0.071 v -0.019 a 0.356,0.356 0 0 0 0,-0.053 v -0.024 a 0.558,0.558 0 0 1 0,-0.067 0.052,0.052 0 0 1 0,-0.021 0.309,0.309 0 0 1 0,-0.051 v -0.024 a 0.582,0.582 0 0 0 -0.005,-0.068 v -0.019 c 0,-0.019 0,-0.035 -0.005,-0.053 v -0.024 c 0,-0.021 0,-0.043 -0.005,-0.067 v -0.019 c 0,-0.019 0,-0.035 0,-0.053 v -0.024 a 0.516,0.516 0 0 1 -0.005,-0.066 v -0.005 -0.016 a 0.291,0.291 0 0 0 0,-0.048 0.074,0.074 0 0 0 0,-0.029 0.394,0.394 0 0 0 -0.005,-0.056 0.109,0.109 0 0 0 0,-0.029 0.292,0.292 0 0 0 -0.005,-0.048 0.115,0.115 0 0 0 0,-0.029 0.363,0.363 0 0 0 -0.005,-0.051 v -0.033 c 0,-0.016 0,-0.032 -0.005,-0.048 v -0.029 a 0.3,0.3 0 0 1 -0.005,-0.046 c 0,-0.013 0,-0.027 -0.005,-0.037 a 0.292,0.292 0 0 0 -0.005,-0.048 v -0.032 a 0.214,0.214 0 0 1 -0.005,-0.043 0.19,0.19 0 0 1 -0.005,-0.039 0.292,0.292 0 0 1 -0.005,-0.048 0.134,0.134 0 0 1 -0.005,-0.035 l -0.005,-0.035 a 0.292,0.292 0 0 1 -0.005,-0.048 l -0.008,-0.043 c 0,-0.011 0,-0.021 0,-0.035 a 0.138,0.138 0 0 1 -0.005,-0.035 l -0.005,-0.032 -0.008,-0.057 a 0.18,0.18 0 0 1 -0.005,-0.035 l -0.005,-0.037 c 0,-0.011 0,-0.021 -0.005,-0.029 a 0.381,0.381 0 0 0 -0.011,-0.059 v -0.035 L 877.071,985 a 0.134,0.134 0 0 0 -0.005,-0.032 l -0.008,-0.057 a 0.2,0.2 0 0 1 -0.005,-0.035 l -0.008,-0.035 a 0.181,0.181 0 0 0 -0.005,-0.035 l -0.008,-0.056 -0.008,-0.032 -0.005,-0.032 -0.008,-0.037 a 0.155,0.155 0 0 0 -0.005,-0.035 c 0,-0.019 -0.008,-0.039 -0.011,-0.057 l -0.005,-0.032 -0.008,-0.035 -0.008,-0.04 -0.008,-0.045 -0.008,-0.037 -0.005,-0.032 c 0,-0.016 -0.008,-0.029 -0.011,-0.045 l -0.008,-0.041 -0.008,-0.04 -0.008,-0.032 -0.008,-0.04 -0.008,-0.045 a 0.075,0.075 0 0 1 -0.008,-0.037 0.1,0.1 0 0 1 -0.009,-0.032 l -0.008,-0.037 c -0.005,-0.016 -0.008,-0.032 -0.013,-0.048 l -0.008,-0.039 a 0.139,0.139 0 0 1 -0.005,-0.032 0.291,0.291 0 0 1 -0.011,-0.037 0.2,0.2 0 0 0 -0.011,-0.043 0.207,0.207 0 0 0 -0.011,-0.043 0.133,0.133 0 0 0 -0.005,-0.032 c 0,-0.013 -0.008,-0.027 -0.011,-0.04 l -0.008,-0.029 a 0.419,0.419 0 0 0 -0.013,-0.056 l -0.005,-0.028 c -0.005,-0.013 -0.008,-0.029 -0.013,-0.045 l -0.005,-0.021 -0.016,-0.059 a 0.113,0.113 0 0 0 -0.005,-0.029 0.218,0.218 0 0 1 -0.011,-0.04 l -0.008,-0.027 -0.016,-0.059 a 0.089,0.089 0 0 1 -0.005,-0.025 0.289,0.289 0 0 1 -0.013,-0.045 0.063,0.063 0 0 1 -0.005,-0.021 c -0.005,-0.021 -0.013,-0.043 -0.019,-0.064 l -0.005,-0.019 a 0.357,0.357 0 0 1 -0.013,-0.051 l -0.005,-0.019 a 0.577,0.577 0 0 1 -0.019,-0.064 l -0.005,-0.013 -0.016,-0.056 -0.005,-0.017 c -0.005,-0.021 -0.013,-0.045 -0.019,-0.067 v -0.011 a 0.33,0.33 0 0 1 -0.019,-0.059 l -0.007,-0.013 c -0.013,-0.048 -0.029,-0.093 -0.043,-0.141 v -0.005 c -0.016,-0.049 -0.029,-0.1 -0.045,-0.148 v 0 A 17.362,17.362 0 0 0 866.946,972"
       class="i"
       inkscape:connector-curvature="0"
       style="fill:#37485a"
       transform="translate(-842.624,-865.48)" />
    <path
       id="path828"
       transform="translate(-840.045,-867.093)"
       d="m 857.358,967.181 a 7.021,7.021 0 0 0 -7,6.425 h -0.005 c -0.016,0.2 -0.024,0.4 -0.024,0.606 a 7,7 0 0 0 1.208,3.943 7.08,7.08 0 0 0 1.412,1.535 v 0 a 0.159,0.159 0 0 1 0.024,0.019 l 0.017,0.011 0.019,0.016 0.021,0.016 0.016,0.013 0.035,0.027 v 0 l 0.037,0.031 0.008,0.005 0.035,0.024 0.005,0.005 a 0.2,0.2 0 0 1 0.037,0.029 v 0 a 7.04,7.04 0 0 0 3.584,1.332 h 0.005 0.051 v 0 l 0.109,0.008 h 0.008 0.043 0.013 a 0.205,0.205 0 0 1 0.041,0 h 0.013 a 0.336,0.336 0 0 1 0.051,0 h 0.1 a 0.045,0.045 0 0 0 0.019,0 h 0.21 0.019 0.093 0.016 0.043 0.021 0.053 0.031 0.021 a 0.128,0.128 0 0 1 0.032,0 h 0.032 a 0.135,0.135 0 0 0 0.032,0 h 0.024 a 0.1,0.1 0 0 1 0.026,0 h 0.027 a 0.073,0.073 0 0 0 0.024,0 h 0.027 a 0.054,0.054 0 0 1 0.021,0 l 0.055,-0.005 h 0.019 0.029 0.019 0.032 0.016 0.032 0.005 l 0.125,-0.016 v 0 c 0.013,0 0.029,0 0.044,-0.005 v 0 a 7.032,7.032 0 0 0 6,-6.959 c 0,-0.2 -0.008,-0.407 -0.027,-0.606 v 0 a 7.021,7.021 0 0 0 -7,-6.425"
       class="k"
       inkscape:connector-curvature="0"
       style="fill:#6dc2b5" />
    <path
       id="path830"
       transform="translate(-833.209,-875.693)"
       d="m 882.643,941.5 a 12.016,12.016 0 0 0 -2.468,0.3 v 0 l -0.059,0.012 h -0.007 c -0.051,0.015 -0.1,0.026 -0.144,0.036 a 0.219,0.219 0 0 1 -0.04,0.011 l -0.024,0.005 c -0.016,0.005 -0.032,0.008 -0.045,0.013 a 0.063,0.063 0 0 0 -0.021,0.005 0.507,0.507 0 0 0 -0.053,0.013 h -0.015 a 12.167,12.167 0 0 0 -7.231,5.377 v 0 c -0.027,0.043 -0.051,0.083 -0.075,0.123 l -0.005,0.008 c -0.011,0.016 -0.019,0.032 -0.029,0.048 l -0.016,0.027 -0.016,0.029 -0.019,0.033 -0.013,0.021 c -0.009,0.013 -0.013,0.027 -0.021,0.037 l -0.007,0.011 a 12.058,12.058 0 0 0 -1.594,6.018 12.468,12.468 0 0 0 0.125,1.769 h 0.005 a 12.14,12.14 0 0 0 11.775,10.368 V 941.5"
       class="i"
       inkscape:connector-curvature="0"
       style="fill:#37485a" />
    <path
       id="path832"
       transform="translate(-824.717,-865.675)"
       d="m 896.1,971.413 a 12.048,12.048 0 0 0 0.3,2.469 v 0 c 0.005,0.021 0.008,0.04 0.014,0.059 v 0.005 c 0.013,0.051 0.024,0.1 0.035,0.144 a 0.223,0.223 0 0 1 0.011,0.04 l 0.005,0.024 c 0.005,0.016 0.008,0.032 0.013,0.047 a 0.066,0.066 0 0 0 0.005,0.021 0.49,0.49 0 0 0 0.014,0.053 v 0.013 a 12.178,12.178 0 0 0 5.377,7.231 v 0 c 0.043,0.027 0.084,0.051 0.124,0.075 l 0.008,0.005 c 0.016,0.011 0.032,0.019 0.048,0.031 l 0.027,0.016 0.029,0.016 0.032,0.019 0.021,0.013 c 0.013,0.008 0.027,0.013 0.037,0.021 l 0.011,0.005 a 12.083,12.083 0 0 0 6.018,1.6 12.438,12.438 0 0 0 1.769,-0.127 v -0.005 a 12.138,12.138 0 0 0 10.368,-11.775 H 896.1"
       class="i"
       inkscape:connector-curvature="0"
       style="fill:#37485a" />
    <path
       id="path834"
       transform="translate(-830.222,-890.121)"
       d="m 913.74,950.294 h -5.616 v 7.828 H 899.3 v -7.828 h -19.644 v 40.269 H 913.74 V 950.294 M 898.62,928.4 a 7.178,7.178 0 1 1 7.18,-7.179 7.179,7.179 0 0 1 -7.18,7.179 m 15.12,-29.983 h -0.035 a 34.077,34.077 0 0 0 -8.206,1 v 0.011 a 34.086,34.086 0 0 0 -18.894,12.448 l -0.011,-0.011 c -0.365,0.474 -0.713,0.96 -1.048,1.452 v 0 l 0.011,0.008 a 33.962,33.962 0 0 0 -5.9,19.176 v 7.079 h 9.617 v -7.119 h 8.826 v 7.119 h 11.229 v -7.119 h 4.412 v -34.04"
       class="k"
       inkscape:connector-curvature="0"
       style="fill:#6dc2b5" />
    <path
       id="path836"
       transform="translate(-830.661,-867.004)"
       d="m 914.179,967.446 h -35.834 v 5.3 h 35.834 z"
       class="l"
       inkscape:connector-curvature="0"
       style="fill:#48a399" />
    <path
       id="path838"
       transform="translate(-830.222,-879.793)"
       d="M 909.327,929.258 H 898.1 v 5.709 h -8.826 v -5.709 h -9.617 v 10.711 H 899.3 v -5 h 8.827 v 5 h 5.613 v -5 h -4.412 z"
       class="l"
       inkscape:connector-curvature="0"
       style="fill:#48a399" />
    <path
       id="path840"
       transform="translate(-827.809,-881.58)"
       d="m 895.687,923.924 h -8.827 v 12.828 h 8.827 z"
       class="k"
       inkscape:connector-curvature="0"
       style="fill:#6dc2b5" />
    <path
       id="path842"
       transform="translate(-822.778,-881.58)"
       d="m 906.3,923.924 h -4.412 v 12.828 h 4.412 z"
       class="k"
       inkscape:connector-curvature="0"
       style="fill:#6dc2b5" />
    <path
       id="path844"
       transform="translate(-825.294,-878.361)"
       d="m 903.2,933.534 h -8.827 v 12.828 h 8.827 z"
       class="k"
       inkscape:connector-curvature="0"
       style="fill:#6dc2b5" />
    <path
       id="path846"
       transform="translate(-827.266,-886.2)"
       d="m 895.665,921.519 a 4.214,4.214 0 1 1 4.21,-4.213 4.213,4.213 0 0 1 -4.21,4.213 m 0,-11.392 a 7.178,7.178 0 1 0 7.18,7.179 7.179,7.179 0 0 0 -7.18,-7.179"
       class="i"
       inkscape:connector-curvature="0"
       style="fill:#37485a" />
    <path
       id="path848"
       transform="translate(-826.521,-885.456)"
       d="m 894.92,918.028 a 1.466,1.466 0 1 1 1.466,-1.466 1.465,1.465 0 0 1 -1.466,1.466 m 0,-5.68 a 4.214,4.214 0 1 0 4.21,4.214 4.213,4.213 0 0 0 -4.21,-4.214"
       class="e"
       inkscape:connector-curvature="0"
       style="fill:#ffffff" />
    <path
       id="path850"
       transform="translate(-825.832,-884.767)"
       d="m 894.231,914.406 a 1.466,1.466 0 1 0 1.466,1.466 1.465,1.465 0 0 0 -1.466,-1.466"
       class="m"
       inkscape:connector-curvature="0"
       style="fill:#202e3a" />
  </g>
</svg>
