<svg width="1060" height="594" viewBox="0 0 1060 594" fill="none" xmlns="http://www.w3.org/2000/svg">
<ellipse cx="595.5" cy="488" rx="417.5" ry="26" fill="#FFEF99"/>
<path d="M953.425 57H248.575C239.973 57 233 63.9713 233 72.5708V472.429C233 481.029 239.973 488 248.575 488H953.425C962.027 488 969 481.029 969 472.429V72.5708C969 63.9713 962.027 57 953.425 57Z" fill="#F4F6FA"/>
<path d="M969 72.5707C969 63.9731 962.025 57 953.425 57H248.575C239.975 57 233 63.9731 233 72.5707V106.708H969V72.5707Z" fill="#F95C22"/>
<path d="M275.068 86.9527C277.885 86.9527 280.168 84.67 280.168 81.8543C280.168 79.0385 277.885 76.7559 275.068 76.7559C272.252 76.7559 269.969 79.0385 269.969 81.8543C269.969 84.67 272.252 86.9527 275.068 86.9527Z" fill="white"/>
<path d="M306.764 86.9527C309.58 86.9527 311.864 84.67 311.864 81.8543C311.864 79.0385 309.58 76.7559 306.764 76.7559C303.947 76.7559 301.664 79.0385 301.664 81.8543C301.664 84.67 303.947 86.9527 306.764 86.9527Z" fill="white"/>
<path d="M298 276.01L298 281.872L384.532 281.862L384.532 276L298 276.01Z" fill="#1C4DA1"/>
<g clip-path="url(#clip0_4438_30513)">
<ellipse cx="143.5" cy="566.5" rx="93.5" ry="13.5" fill="#FFEF99"/>
<path d="M140.648 161.456V121.228C140.648 120.061 141.063 119.049 141.894 118.245C142.724 117.415 143.709 117 144.877 117C146.044 117 147.03 117.415 147.86 118.245C148.69 119.075 149.105 120.061 149.105 121.228V161.456H140.648Z" fill="#D1D1D1"/>
<path d="M161.968 158.085H127.805V182.077H161.968V158.085Z" fill="#ED7149"/>
<path d="M76.7922 314.538L15.6016 375.722L19.747 379.867L80.9376 318.683L76.7922 314.538Z" fill="#D1D1D1"/>
<path d="M10.3737 369.888C12.1117 369.473 13.8756 369.422 15.6395 369.707C17.4035 369.992 19.0377 370.615 20.5682 371.548C22.0986 372.482 23.3697 373.675 24.4073 375.128C25.4449 376.58 26.1713 378.162 26.5863 379.9C27.0014 381.638 27.0532 383.402 26.7679 385.165C26.4825 386.929 25.86 388.563 24.9261 390.094C23.9923 391.624 22.799 392.895 21.3464 393.932C19.8937 394.97 18.3114 395.696 16.5734 396.111C14.8354 396.526 13.0715 396.578 11.3075 396.293C9.54358 396.007 7.90935 395.385 6.37888 394.451C4.8484 393.517 3.57733 392.324 2.53972 390.872C1.50212 389.419 0.77579 387.837 0.360746 386.099C-0.0542973 384.361 -0.106178 382.598 0.179165 380.834C0.464507 379.07 1.08707 377.436 2.02092 375.906C2.95477 374.376 4.14802 373.105 5.60067 372.067C7.05332 371.03 8.63568 370.303 10.3737 369.888Z" fill="#ED7149"/>
<path d="M199.249 305.459L201.062 311.033L283.347 284.257L281.534 278.682L199.249 305.459Z" fill="#D1D1D1"/>
<path d="M280.267 290.399C278.906 289.24 277.803 287.864 277.002 286.292C276.178 284.708 275.704 283.011 275.554 281.247C275.416 279.459 275.603 277.72 276.149 276.019C276.695 274.318 277.541 272.769 278.699 271.408C279.857 270.048 281.234 268.944 282.806 268.143C284.39 267.319 286.087 266.844 287.851 266.694C289.638 266.556 291.377 266.743 293.078 267.289C294.78 267.834 296.328 268.681 297.688 269.839C299.049 270.997 300.152 272.374 300.953 273.946C301.777 275.529 302.252 277.227 302.401 278.991C302.539 280.779 302.352 282.517 301.807 284.219C301.261 285.92 300.414 287.469 299.256 288.829C298.098 290.19 296.721 291.294 295.149 292.094C293.565 292.918 291.868 293.394 290.104 293.543C288.34 293.693 286.578 293.495 284.877 292.949C283.176 292.403 281.627 291.557 280.267 290.399Z" fill="#ED7149"/>
<path d="M110.633 426.535H101.477V543.357H110.633V426.535Z" fill="#D1D1D1"/>
<path d="M106.044 501.753C108.145 501.753 110.246 501.961 112.321 502.376C114.396 502.791 116.394 503.387 118.339 504.192C120.285 504.996 122.153 505.981 123.891 507.148C125.654 508.316 127.263 509.664 128.767 511.143C130.272 512.621 131.595 514.255 132.762 516.019C133.929 517.783 134.915 519.624 135.719 521.569C136.523 523.515 137.146 525.538 137.535 527.587C137.95 529.662 138.158 531.737 138.158 533.864C138.158 535.991 137.95 538.066 137.535 540.141C137.12 542.216 136.523 544.213 135.719 546.158C134.915 548.103 133.929 549.945 132.762 551.709C131.595 553.472 130.246 555.08 128.767 556.585C127.263 558.089 125.654 559.412 123.891 560.579C122.127 561.746 120.285 562.732 118.339 563.536C116.394 564.34 114.37 564.963 112.321 565.352C110.272 565.741 108.171 565.974 106.044 565.974C103.917 565.974 101.841 565.767 99.7661 565.352C97.6909 564.937 95.6935 564.34 93.748 563.536C91.8025 562.732 89.9348 561.746 88.1968 560.579C86.4329 559.412 84.8246 558.063 83.32 556.585C81.8155 555.106 80.4926 553.472 79.3253 551.709C78.1579 549.945 77.1722 548.103 76.3681 546.158C75.5639 544.213 74.9414 542.19 74.5523 540.141C74.1372 538.066 73.9297 535.991 73.9297 533.864C73.9297 531.737 74.1372 529.662 74.5523 527.587C74.9673 525.512 75.5639 523.515 76.3681 521.569C77.1722 519.624 78.1579 517.757 79.3253 516.019C80.4926 514.281 81.8415 512.647 83.32 511.143C84.8246 509.638 86.4329 508.316 88.1968 507.148C89.9607 505.981 91.8025 504.996 93.748 504.192C95.6935 503.387 97.7169 502.765 99.7661 502.376C101.815 501.987 103.917 501.753 106.044 501.753Z" fill="#34495E"/>
<path d="M106.043 516.201C108.377 516.201 110.634 516.641 112.813 517.549C114.966 518.457 116.886 519.728 118.546 521.388C120.206 523.048 121.477 524.967 122.385 527.12C123.293 529.273 123.734 531.529 123.734 533.89C123.734 536.25 123.293 538.481 122.385 540.659C121.477 542.812 120.206 544.732 118.546 546.392C116.886 548.052 114.966 549.322 112.813 550.23C110.66 551.138 108.403 551.579 106.043 551.579C103.682 551.579 101.451 551.138 99.2724 550.23C97.1194 549.322 95.1998 548.052 93.5396 546.392C91.8794 544.732 90.6084 542.812 89.7005 540.659C88.7925 538.507 88.3516 536.25 88.3516 533.89C88.3516 531.529 88.7925 529.299 89.7005 527.12C90.6084 524.967 91.8794 523.048 93.5396 521.388C95.1998 519.728 97.1194 518.457 99.2724 517.549C101.425 516.641 103.682 516.201 106.043 516.201Z" fill="white"/>
<path d="M187.212 426.535H178.055V543.357H187.212V426.535Z" fill="#D1D1D1"/>
<path d="M182.622 501.753C184.723 501.753 186.824 501.961 188.899 502.376C190.975 502.791 192.972 503.387 194.917 504.192C196.863 504.996 198.731 505.981 200.469 507.148C202.233 508.316 203.841 509.664 205.345 511.143C206.85 512.621 208.173 514.255 209.34 516.019C210.508 517.783 211.493 519.624 212.297 521.569C213.102 523.515 213.724 525.538 214.113 527.587C214.528 529.662 214.736 531.737 214.736 533.864C214.736 535.991 214.528 538.066 214.113 540.141C213.698 542.216 213.102 544.213 212.297 546.158C211.493 548.103 210.508 549.945 209.34 551.709C208.173 553.472 206.824 555.08 205.345 556.585C203.841 558.089 202.233 559.412 200.469 560.579C198.705 561.746 196.863 562.732 194.917 563.536C192.972 564.34 190.949 564.963 188.899 565.352C186.85 565.741 184.749 565.974 182.622 565.974C180.495 565.974 178.419 565.767 176.344 565.352C174.269 564.937 172.272 564.34 170.326 563.536C168.381 562.732 166.513 561.746 164.775 560.579C163.011 559.412 161.403 558.063 159.898 556.585C158.394 555.08 157.071 553.472 155.903 551.709C154.736 549.945 153.75 548.103 152.946 546.158C152.142 544.213 151.519 542.19 151.13 540.141C150.715 538.066 150.508 535.991 150.508 533.864C150.508 531.737 150.715 529.662 151.13 527.587C151.545 525.512 152.142 523.515 152.946 521.569C153.75 519.624 154.736 517.757 155.903 516.019C157.071 514.281 158.42 512.647 159.898 511.143C161.403 509.638 163.011 508.316 164.775 507.148C166.539 505.981 168.381 504.996 170.326 504.192C172.272 503.387 174.295 502.765 176.344 502.376C178.394 501.987 180.495 501.753 182.622 501.753Z" fill="#34495E"/>
<path d="M188.906 329.808C186.461 327.749 184.496 325.263 183.032 322.422C181.567 319.581 180.696 316.547 180.429 313.355C180.162 310.163 180.533 307.033 181.506 303.978C182.48 300.922 183.996 298.172 186.09 295.716C188.184 293.26 190.635 291.305 193.476 289.841C196.317 288.376 199.351 287.505 202.543 287.237C205.735 286.97 208.864 287.341 211.919 288.314C214.975 289.287 217.724 290.803 220.18 292.897C222.624 294.956 224.59 297.441 226.054 300.283C227.518 303.124 228.39 306.158 228.656 309.35C228.923 312.542 228.553 315.672 227.579 318.727C226.606 321.783 225.067 324.521 222.995 326.989C220.936 329.434 218.451 331.4 215.61 332.864C212.769 334.329 209.735 335.2 206.543 335.468C203.351 335.735 200.222 335.364 197.166 334.391C194.111 333.418 191.361 331.902 188.906 329.808Z" fill="#ED7149"/>
<path d="M158.752 443.395C159.271 440.23 160.36 437.273 162.047 434.55C163.733 431.827 165.886 429.518 168.48 427.651C171.074 425.783 173.953 424.46 177.066 423.734C180.179 423.008 183.344 422.878 186.508 423.397C189.673 423.916 192.63 425.005 195.354 426.691C198.078 428.377 200.386 430.53 202.254 433.123C204.122 435.717 205.445 438.596 206.171 441.709C206.897 444.821 207.027 447.985 206.508 451.15C205.989 454.314 204.9 457.271 203.214 459.994C201.528 462.718 199.375 465.026 196.781 466.894C194.187 468.761 191.307 470.084 188.194 470.81C185.082 471.536 181.917 471.666 178.752 471.147C175.587 470.629 172.63 469.539 169.906 467.853C167.183 466.167 164.874 464.015 163.006 461.421C161.139 458.827 159.816 455.948 159.089 452.836C158.363 449.723 158.233 446.585 158.752 443.395Z" fill="#ED7149"/>
<path d="M88.9489 430.167C91.2057 427.91 93.8256 426.146 96.7828 424.927C99.74 423.708 102.827 423.086 106.043 423.086C109.26 423.086 112.347 423.708 115.304 424.927C118.261 426.146 120.881 427.91 123.138 430.167C125.395 432.423 127.159 435.043 128.378 438C129.597 440.956 130.22 444.043 130.22 447.259C130.22 450.475 129.597 453.562 128.378 456.519C127.159 459.476 125.395 462.095 123.138 464.378C120.881 466.634 118.261 468.398 115.304 469.617C112.347 470.836 109.26 471.459 106.043 471.459C102.827 471.459 99.74 470.836 96.7828 469.617C93.8256 468.398 91.2057 466.634 88.9489 464.378C86.6921 462.121 84.9281 459.502 83.7089 456.519C82.4898 453.562 81.8672 450.475 81.8672 447.259C81.8672 444.043 82.4898 440.956 83.7089 438C84.9281 435.043 86.6921 432.423 88.9489 430.167Z" fill="#ED7149"/>
<path d="M71.2828 299.572C74.24 298.353 77.3269 297.731 80.5435 297.731C83.7601 297.731 86.8469 298.353 89.8041 299.572C92.7613 300.791 95.3813 302.555 97.6381 304.812C99.8949 307.068 101.659 309.688 102.878 312.645C104.097 315.602 104.72 318.688 104.72 321.904C104.72 325.121 104.097 328.207 102.878 331.164C101.659 334.121 99.8949 336.74 97.6381 339.023C95.3813 341.279 92.7613 343.043 89.8041 344.262C86.8469 345.481 83.7601 346.104 80.5435 346.104C77.3269 346.104 74.24 345.481 71.2828 344.262C68.3256 343.043 65.7057 341.279 63.4489 339.023C61.1921 336.766 59.4281 334.147 58.2089 331.164C56.9898 328.207 56.3672 325.121 56.3672 321.904C56.3672 318.688 56.9898 315.602 58.2089 312.645C59.4281 309.688 61.1921 307.068 63.4489 304.812C65.7057 302.555 68.3256 300.791 71.2828 299.572Z" fill="#ED7149"/>
<path d="M182.621 516.201C184.956 516.201 187.212 516.641 189.391 517.549C191.544 518.457 193.464 519.728 195.124 521.388C196.784 523.048 198.055 524.967 198.963 527.12C199.871 529.273 200.312 531.529 200.312 533.89C200.312 536.25 199.871 538.481 198.963 540.659C198.055 542.812 196.784 544.732 195.124 546.392C193.464 548.052 191.544 549.322 189.391 550.23C187.238 551.138 184.981 551.579 182.621 551.579C180.26 551.579 178.029 551.138 175.851 550.23C173.697 549.322 171.778 548.052 170.118 546.392C168.458 544.732 167.186 542.812 166.279 540.659C165.371 538.507 164.93 536.25 164.93 533.89C164.93 531.529 165.371 529.299 166.279 527.12C167.186 524.967 168.458 523.048 170.118 521.388C171.778 519.728 173.697 518.457 175.851 517.549C178.004 516.641 180.26 516.201 182.621 516.201Z" fill="white"/>
<path d="M98.9062 340.787V216.028C98.9062 213.02 99.1916 210.011 99.7882 207.054C100.385 204.097 101.241 201.218 102.408 198.443C103.575 195.642 104.976 192.996 106.662 190.506C108.348 187.99 110.242 185.682 112.369 183.555C114.496 181.428 116.831 179.509 119.347 177.849C121.863 176.163 124.509 174.762 127.285 173.595C130.086 172.428 132.94 171.572 135.897 170.975C138.854 170.379 141.837 170.094 144.872 170.094C147.907 170.094 150.89 170.379 153.848 170.975C156.805 171.572 159.684 172.428 162.46 173.595C165.235 174.762 167.907 176.163 170.397 177.849C172.914 179.535 175.222 181.428 177.375 183.555C179.503 185.682 181.422 188.016 183.082 190.506C184.768 193.022 186.169 195.668 187.336 198.443C188.504 201.244 189.36 204.097 189.956 207.054C190.553 210.011 190.838 212.994 190.838 216.028V340.787H98.9062Z" fill="#FFE23B"/>
<path d="M190.838 265.906H98.9062V277.422H190.838V265.906Z" fill="#F5CF36"/>
<path d="M145.238 187.057C148.818 187.057 152.268 187.731 155.562 189.106C158.883 190.48 161.788 192.426 164.33 194.967C166.872 197.509 168.818 200.414 170.193 203.734C171.567 207.054 172.242 210.478 172.242 214.057C172.242 217.637 171.567 221.086 170.193 224.38C168.818 227.7 166.872 230.605 164.33 233.147C161.788 235.689 158.883 237.634 155.562 239.009C152.242 240.384 148.818 241.058 145.238 241.058C141.658 241.058 138.208 240.384 134.914 239.009C131.594 237.634 128.688 235.689 126.146 233.147C123.604 230.605 121.658 227.7 120.284 224.38C118.909 221.06 118.234 217.637 118.234 214.057C118.234 210.478 118.909 207.028 120.284 203.734C121.658 200.414 123.604 197.509 126.146 194.967C128.688 192.426 131.594 190.48 134.914 189.106C138.234 187.731 141.658 187.057 145.238 187.057Z" fill="#34495E"/>
<path d="M145.238 193.696C147.936 193.696 150.53 194.215 153.02 195.253C155.51 196.29 157.715 197.769 159.635 199.662C161.554 201.581 163.007 203.786 164.045 206.276C165.082 208.766 165.601 211.36 165.601 214.057C165.601 216.755 165.082 219.348 164.045 221.838C163.007 224.328 161.529 226.533 159.635 228.452C157.715 230.372 155.51 231.824 153.02 232.862C150.53 233.899 147.936 234.418 145.238 234.418C142.54 234.418 139.946 233.899 137.456 232.862C134.966 231.824 132.761 230.346 130.841 228.452C128.922 226.533 127.469 224.328 126.431 221.838C125.394 219.348 124.875 216.755 124.875 214.057C124.875 211.36 125.394 208.766 126.431 206.276C127.469 203.786 128.948 201.581 130.841 199.662C132.761 197.743 134.966 196.29 137.456 195.253C139.946 194.215 142.54 193.696 145.238 193.696Z" fill="white"/>
<path d="M145.236 207.236C147.13 207.236 148.738 207.91 150.061 209.233C151.384 210.556 152.059 212.19 152.059 214.057C152.059 215.925 151.384 217.559 150.061 218.882C148.712 220.204 147.104 220.879 145.236 220.879C143.369 220.879 141.734 220.204 140.411 218.882C139.089 217.533 138.414 215.925 138.414 214.057C138.414 212.19 139.089 210.556 140.411 209.233C141.76 207.91 143.369 207.236 145.236 207.236Z" fill="#34495E"/>
<path d="M190.476 195.279C192.966 195.279 195.353 195.746 197.661 196.705C199.97 197.665 201.993 199.014 203.757 200.777C205.521 202.541 206.87 204.564 207.83 206.873C208.79 209.181 209.257 211.567 209.257 214.057C209.257 216.547 208.79 218.933 207.83 221.242C206.87 223.55 205.521 225.573 203.757 227.337C201.993 229.101 199.97 230.45 197.661 231.409C195.353 232.369 192.966 232.836 190.476 232.836C187.986 232.836 185.599 232.369 183.291 231.409C180.982 230.45 178.959 229.101 177.195 227.337C175.431 225.573 174.082 223.55 173.122 221.242C172.162 218.933 171.695 216.547 171.695 214.057C171.695 211.567 172.162 209.181 173.122 206.873C174.082 204.564 175.431 202.541 177.195 200.777C178.959 199.014 180.982 197.665 183.291 196.705C185.599 195.746 187.986 195.279 190.476 195.279Z" fill="#34495E"/>
<path d="M190.476 199.895C192.344 199.895 194.159 200.259 195.897 200.985C197.635 201.711 199.166 202.723 200.489 204.045C201.812 205.368 202.849 206.898 203.55 208.636C204.276 210.374 204.639 212.19 204.639 214.057C204.639 215.925 204.276 217.74 203.55 219.478C202.823 221.216 201.812 222.746 200.489 224.069C199.166 225.392 197.635 226.429 195.897 227.13C194.159 227.856 192.344 228.219 190.476 228.219C188.608 228.219 186.792 227.856 185.054 227.13C183.316 226.403 181.786 225.392 180.463 224.069C179.14 222.746 178.102 221.216 177.402 219.478C176.676 217.74 176.312 215.925 176.312 214.057C176.312 212.19 176.676 210.374 177.402 208.636C178.128 206.898 179.14 205.368 180.463 204.045C181.786 202.723 183.316 201.685 185.054 200.985C186.792 200.259 188.608 199.895 190.476 199.895Z" fill="white"/>
<path d="M190.507 209.311C191.83 209.311 192.946 209.778 193.88 210.711C194.813 211.645 195.28 212.76 195.28 214.083C195.28 215.406 194.813 216.521 193.88 217.455C192.946 218.389 191.83 218.856 190.507 218.856C189.184 218.856 188.069 218.389 187.135 217.455C186.201 216.521 185.734 215.406 185.734 214.083C185.734 212.76 186.201 211.645 187.135 210.711C188.069 209.778 189.184 209.311 190.507 209.311Z" fill="#34495E"/>
<path d="M99.1401 195.279C101.63 195.279 104.017 195.746 106.326 196.705C108.634 197.665 110.658 199.014 112.421 200.777C114.185 202.541 115.534 204.564 116.494 206.873C117.454 209.181 117.921 211.567 117.921 214.057C117.921 216.547 117.454 218.933 116.494 221.242C115.534 223.55 114.185 225.573 112.421 227.337C110.658 229.101 108.634 230.45 106.326 231.409C104.017 232.369 101.63 232.836 99.1401 232.836C96.6498 232.836 94.2633 232.369 91.9547 231.409C89.646 230.45 87.6226 229.101 85.8587 227.337C84.0948 225.573 82.7459 223.55 81.7861 221.242C80.8263 218.933 80.3594 216.547 80.3594 214.057C80.3594 211.567 80.8263 209.181 81.7861 206.873C82.7459 204.564 84.0948 202.541 85.8587 200.777C87.6226 199.014 89.646 197.665 91.9547 196.705C94.2633 195.746 96.6498 195.279 99.1401 195.279Z" fill="#34495E"/>
<path d="M99.1399 199.895C101.008 199.895 102.823 200.259 104.561 200.985C106.299 201.711 107.83 202.723 109.153 204.045C110.476 205.368 111.513 206.898 112.214 208.636C112.94 210.374 113.303 212.19 113.303 214.057C113.303 215.925 112.94 217.74 112.214 219.478C111.487 221.216 110.476 222.746 109.153 224.069C107.83 225.392 106.299 226.429 104.561 227.13C102.823 227.856 101.008 228.219 99.1399 228.219C97.2722 228.219 95.4564 227.856 93.7184 227.13C91.9804 226.403 90.45 225.392 89.127 224.069C87.8041 222.746 86.7664 221.216 86.0661 219.478C85.3397 217.74 84.9766 215.925 84.9766 214.057C84.9766 212.19 85.3397 210.374 86.0661 208.636C86.7924 206.898 87.8041 205.368 89.127 204.045C90.45 202.723 91.9804 201.685 93.7184 200.985C95.4564 200.259 97.2722 199.895 99.1399 199.895Z" fill="white"/>
<path d="M99.1402 209.311C100.463 209.311 101.579 209.778 102.512 210.711C103.446 211.645 103.913 212.76 103.913 214.083C103.913 215.406 103.446 216.521 102.512 217.455C101.579 218.389 100.463 218.856 99.1402 218.856C97.8172 218.856 96.7018 218.389 95.768 217.455C94.8341 216.521 94.3672 215.406 94.3672 214.083C94.3672 212.76 94.8341 211.645 95.768 210.711C96.7018 209.778 97.8172 209.311 99.1402 209.311Z" fill="#34495E"/>
<path d="M144.899 332.279C149.128 332.279 153.33 332.694 157.454 333.524C161.605 334.354 165.625 335.573 169.542 337.181C173.459 338.79 177.169 340.787 180.671 343.121C184.199 345.481 187.441 348.153 190.424 351.136C193.407 354.118 196.079 357.387 198.44 360.888C200.8 364.416 202.772 368.125 204.38 372.015C205.988 375.932 207.208 379.952 208.038 384.102C208.868 388.252 209.283 392.428 209.283 396.656C209.283 400.883 208.868 405.085 208.038 409.209C207.208 413.359 205.988 417.379 204.38 421.296C202.772 425.213 200.774 428.922 198.44 432.423C196.079 435.951 193.407 439.193 190.424 442.175C187.441 445.158 184.173 447.83 180.671 450.19C177.143 452.55 173.433 454.522 169.542 456.13C165.625 457.738 161.605 458.983 157.454 459.787C153.304 460.617 149.128 461.032 144.899 461.032C140.671 461.032 136.469 460.617 132.344 459.787C128.194 458.957 124.173 457.738 120.256 456.13C116.339 454.522 112.63 452.524 109.128 450.19C105.6 447.83 102.357 445.158 99.3742 442.175C96.391 439.193 93.7192 435.925 91.3586 432.423C88.9981 428.896 87.0266 425.187 85.4183 421.296C83.81 417.379 82.5908 413.359 81.7608 409.209C80.9307 405.059 80.5156 400.883 80.5156 396.656C80.5156 392.428 80.9307 388.226 81.7608 384.102C82.5908 379.952 83.81 375.932 85.4183 372.015C87.0266 368.099 89.024 364.39 91.3586 360.888C93.7192 357.361 96.391 354.118 99.3742 351.136C102.357 348.153 105.626 345.481 109.128 343.121C112.656 340.761 116.365 338.79 120.256 337.181C124.173 335.573 128.194 334.328 132.344 333.524C136.495 332.694 140.671 332.279 144.899 332.279Z" fill="#FFE23B"/>
<path d="M80.7812 396.681V320.763C80.7812 317.91 81.0666 315.109 81.6113 312.308C82.1561 309.506 82.9862 306.809 84.0757 304.189C85.1651 301.57 86.4881 299.054 88.0705 296.693C89.6528 294.333 91.4427 292.128 93.466 290.131C95.4894 288.108 97.6683 286.318 100.029 284.736C102.389 283.154 104.88 281.831 107.526 280.742C110.146 279.653 112.869 278.823 115.645 278.278C118.446 277.733 121.248 277.448 124.101 277.448H165.969C168.822 277.448 171.624 277.733 174.425 278.278C177.227 278.823 179.925 279.653 182.545 280.742C185.165 281.831 187.681 283.154 190.041 284.736C192.402 286.318 194.607 288.108 196.604 290.131C198.628 292.154 200.418 294.333 202 296.693C203.582 299.054 204.905 301.544 205.995 304.189C207.084 306.809 207.914 309.532 208.459 312.308C209.004 315.109 209.289 317.91 209.289 320.763V396.681H80.7812Z" fill="#FFE23B"/>
<path d="M209.05 384.206H80.75V391.157H209.05V384.206Z" fill="#F5CF36"/>
<path d="M182.567 299.521H107.211V362.185H182.567V299.521Z" fill="#F5CF36"/>
<path d="M177.25 304.215H113.203V357.49H177.25V304.215Z" fill="white"/>
<path d="M150.091 309.766H117.328V317.287H150.091V309.766Z" fill="#D1D1D1"/>
<path d="M150.091 321.1H117.328V328.622H150.091V321.1Z" fill="#D1D1D1"/>
<path d="M150.091 332.409H117.328V339.931H150.091V332.409Z" fill="#D1D1D1"/>
<path d="M150.091 343.744H117.328V351.265H150.091V343.744Z" fill="#D1D1D1"/>
<path d="M161.351 309.766H153.828V317.287H161.351V309.766Z" fill="#D1D1D1"/>
<path d="M173.07 309.766H165.547V317.287H173.07V309.766Z" fill="#D1D1D1"/>
<path d="M161.351 321.048H153.828V328.57H161.351V321.048Z" fill="#D1D1D1"/>
<path d="M173.07 321.048H165.547V328.57H173.07V321.048Z" fill="#D1D1D1"/>
<path d="M161.351 332.305H153.828V339.827H161.351V332.305Z" fill="#D1D1D1"/>
<path d="M173.07 332.305H165.547V339.827H173.07V332.305Z" fill="#D1D1D1"/>
<path d="M161.351 343.588H153.828V351.11H161.351V343.588Z" fill="#D1D1D1"/>
<path d="M173.07 343.588H165.547V351.11H173.07V343.588Z" fill="#D1D1D1"/>
<path opacity="0.15" d="M127.445 458.698C132.892 460.228 138.651 461.058 144.565 461.11V117C142.412 117.182 140.726 118.997 140.726 121.202V158.059H127.886V173.336C117.302 177.564 108.664 185.63 103.683 195.797C102.257 195.46 100.752 195.253 99.2216 195.253C88.8456 195.253 80.4409 203.656 80.4409 214.031C80.4409 224.406 88.7418 232.68 99.0141 232.81V277.396H91.9324C85.8106 277.396 80.856 282.35 80.856 288.471V297.679C80.856 297.679 80.7003 297.679 80.6225 297.679C67.2633 297.679 56.4462 308.495 56.4462 321.853C56.4462 325.639 57.3282 329.245 58.8846 332.435L20.1559 371.159C18.2103 370.07 15.9535 369.447 13.567 369.447C6.1222 369.447 0.078125 375.491 0.078125 382.935C0.078125 390.379 6.1222 396.422 13.567 396.422C21.0119 396.422 27.056 390.379 27.056 382.935C27.056 380.004 26.1221 377.28 24.5398 375.076L62.179 337.441C66.6148 342.68 73.2295 346.026 80.6484 346.026C80.7263 346.026 80.8041 346.026 80.8819 346.026V384.128H80.856V390.768C80.6744 392.687 80.5966 394.632 80.5966 396.604C80.5966 408.639 83.891 419.895 89.6497 429.518C84.9545 433.927 81.9973 440.204 81.9973 447.155C81.9973 458.931 90.4279 468.761 101.608 470.888V501.961C86.0181 504.191 74.0596 517.575 74.0596 533.76C74.0596 551.501 88.4565 565.87 106.2 565.87C123.943 565.87 138.34 551.501 138.34 533.76C138.34 517.575 126.355 504.191 110.791 501.961V470.888C118.054 469.513 124.15 464.871 127.522 458.568L127.445 458.698Z" fill="white"/>
</g>
<defs>
<clipPath id="clip0_4438_30513">
<rect width="307" height="477" fill="white" transform="translate(0 117)"/>
</clipPath>
</defs>
</svg>
