<svg width="22" height="22" viewBox="0 0 22 22" fill="none" xmlns="http://www.w3.org/2000/svg">
  <path d="M16.8738 15.4598L21.1568 19.7418L19.7418 21.1568L15.4598 16.8738C13.8665 18.151 11.8848 18.8457 9.84277 18.8428C4.87477 18.8428 0.842773 14.8108 0.842773 9.84277C0.842773 4.87477 4.87477 0.842773 9.84277 0.842773C14.8108 0.842773 18.8428 4.87477 18.8428 9.84277C18.8457 11.8848 18.151 13.8665 16.8738 15.4598ZM14.8678 14.7178C16.1369 13.4127 16.8456 11.6632 16.8428 9.84277C16.8428 5.97477 13.7098 2.84277 9.84277 2.84277C5.97477 2.84277 2.84277 5.97477 2.84277 9.84277C2.84277 13.7098 5.97477 16.8428 9.84277 16.8428C11.6632 16.8456 13.4127 16.1369 14.7178 14.8678L14.8678 14.7178Z" fill="currentColor"/>
</svg>
