<?xml version="1.0" encoding="UTF-8" standalone="no"?>
<svg
   xmlns:dc="http://purl.org/dc/elements/1.1/"
   xmlns:cc="http://creativecommons.org/ns#"
   xmlns:rdf="http://www.w3.org/1999/02/22-rdf-syntax-ns#"
   xmlns:svg="http://www.w3.org/2000/svg"
   xmlns="http://www.w3.org/2000/svg"
   xmlns:sodipodi="http://sodipodi.sourceforge.net/DTD/sodipodi-0.dtd"
   xmlns:inkscape="http://www.inkscape.org/namespaces/inkscape"
   viewBox="0 0 24.054237 24.054238"
   version="1.1"
   id="svg6"
   sodipodi:docname="sign-in.svg"
   width="24.054237"
   height="24.054237"
   inkscape:version="0.92.4 (5da689c313, 2019-01-14)">
  <metadata
     id="metadata12">
    <rdf:RDF>
      <cc:Work
         rdf:about="">
        <dc:format>image/svg+xml</dc:format>
        <dc:type
           rdf:resource="http://purl.org/dc/dcmitype/StillImage" />
        <dc:title></dc:title>
      </cc:Work>
    </rdf:RDF>
  </metadata>
  <defs
     id="defs10" />
  <sodipodi:namedview
     pagecolor="#ffffff"
     bordercolor="#666666"
     borderopacity="1"
     objecttolerance="10"
     gridtolerance="10"
     guidetolerance="10"
     inkscape:pageopacity="0"
     inkscape:pageshadow="2"
     inkscape:window-width="871"
     inkscape:window-height="946"
     id="namedview8"
     showgrid="false"
     inkscape:pagecheckerboard="false"
     fit-margin-top="0"
     fit-margin-left="0"
     fit-margin-right="0"
     fit-margin-bottom="0"
     inkscape:zoom="4.0972222"
     inkscape:cx="-25.342373"
     inkscape:cy="4.1756932"
     inkscape:window-x="2992"
     inkscape:window-y="341"
     inkscape:window-maximized="0"
     inkscape:current-layer="svg6" />
  <path
     d="M 12.027119,0 C 9.5465249,0 7.1584933,0.75169537 5.1346996,2.1683509 3.1571641,3.5560954 1.6536836,5.4757862 0.79212607,7.7250882 L 0.57822705,8.326467 H 3.2206784 L 3.3305643,8.0373535 C 3.8047102,7.0081096 4.4523243,6.0771639 5.2676238,5.2618645 7.0716921,3.4577962 9.4713561,2.4632238 12.027119,2.4632238 c 2.555762,0 4.955426,0.9945724 6.759495,2.7986407 1.804067,1.8040672 2.798639,4.2037312 2.798639,6.7594945 0,2.54998 -0.994572,4.955427 -2.798639,6.759494 -1.804069,1.804069 -4.203733,2.798641 -6.759495,2.798641 -2.5499809,0 -4.9496449,-0.994572 -6.7594952,-2.798641 C 4.4581063,17.971336 3.8047102,17.040368 3.3305643,16.011125 L 3.2206784,15.722011 H 0.57822705 l 0.20813867,0.601378 c 0.86155858,2.249303 2.36492558,4.168994 4.34246118,5.556738 2.0295766,1.428221 4.4119163,2.17411 6.8982921,2.17411 6.632262,0 12.027118,-5.394856 12.027118,-12.027118 C 24.054237,5.3948567 18.659381,0 12.027119,0 Z M 10.176792,6.4761407 8.3842891,8.2050615 10.968918,10.789691 H 0 v 2.474856 h 10.968918 l -2.5210465,2.584629 1.7289205,1.728921 5.550978,-5.550978 z"
     id="path2"
     inkscape:connector-curvature="0"
     style="stroke-width:0.05782268;fill:#fe6824;fill-opacity:1" />
</svg>
