<svg width="14" height="13" viewBox="0 0 14 13" fill="none" xmlns="http://www.w3.org/2000/svg">
<path d="M5.74299 1.2328C6.08378 0.409306 7.25021 0.409307 7.591 1.2328L8.62736 3.7371C8.77197 4.08654 9.10135 4.32451 9.47853 4.35206L12.1959 4.5505C13.0932 4.61603 13.4543 5.74066 12.7629 6.31634L10.7011 8.03298C10.406 8.2787 10.2776 8.67169 10.3709 9.04422L11.0178 11.6297C11.2351 12.4979 10.2898 13.1924 9.52616 12.7256L7.18855 11.2967C6.86838 11.101 6.4656 11.101 6.14544 11.2967L3.80782 12.7256C3.0442 13.1924 2.09893 12.4979 2.31618 11.6297L2.96312 9.04422C3.05634 8.67169 2.928 8.2787 2.63288 8.03298L0.571108 6.31634C-0.12031 5.74066 0.240816 4.61603 1.13813 4.5505L3.85546 4.35206C4.23264 4.32451 4.56202 4.08654 4.70663 3.7371L5.74299 1.2328Z" fill="white"/>
</svg>
