<svg width="14" height="13" viewBox="0 0 14 13" fill="none" xmlns="http://www.w3.org/2000/svg">
<path d="M6.076 1.2328C6.41678 0.409306 7.58322 0.409307 7.924 1.2328L8.96037 3.7371C9.10498 4.08654 9.43435 4.32451 9.81154 4.35206L12.5289 4.5505C13.4262 4.61603 13.7873 5.74066 13.0959 6.31634L11.0341 8.03298C10.739 8.2787 10.6107 8.67169 10.7039 9.04422L11.3508 11.6297C11.5681 12.4979 10.6228 13.1924 9.85917 12.7256L7.52155 11.2967C7.20139 11.101 6.79861 11.101 6.47845 11.2967L4.14083 12.7256C3.37721 13.1924 2.43194 12.4979 2.64919 11.6297L3.29613 9.04422C3.38934 8.67169 3.261 8.2787 2.96589 8.03298L0.904115 6.31634C0.212698 5.74066 0.573824 4.61603 1.47114 4.5505L4.18847 4.35206C4.56565 4.32451 4.89502 4.08654 5.03963 3.7371L6.076 1.2328Z" fill="white"/>
</svg>
