<svg xmlns="http://www.w3.org/2000/svg" xmlns:xlink="http://www.w3.org/1999/xlink" width="20.703" height="21.664" viewBox="0 0 20.703 21.664"><defs><style>.a{fill:#a2a2a2;}.b{clip-path:url(#a);}</style><clipPath id="a"><path class="a" d="M0,10.521H20.7V-11.143H0Z" transform="translate(0 11.143)"/></clipPath></defs><g class="b" transform="translate(0)"><g transform="translate(-22.8 0.877)"><path class="a" d="M2.54,0A4.039,4.039,0,0,0-.421,1.1,4.139,4.139,0,0,0-1.532,4.179V6.51H-4.259V9.674h2.727v8.115H1.739V9.674H4.454L4.871,6.51H1.739V4.491A1.773,1.773,0,0,1,2.06,3.335,1.572,1.572,0,0,1,3.3,2.95H4.978V.128A17.865,17.865,0,0,0,2.54,0M35.371,4.9a3.364,3.364,0,0,0,1.518-1.9,6.775,6.775,0,0,1-2.192.833,3.462,3.462,0,0,0-4.967-.08,3.326,3.326,0,0,0-1.009,2.443,3.81,3.81,0,0,0,.085.792,9.625,9.625,0,0,1-3.972-1.065,9.765,9.765,0,0,1-3.148-2.55,3.466,3.466,0,0,0-.053,3.389,3.435,3.435,0,0,0,1.122,1.229,3.435,3.435,0,0,1-1.561-.437v.042a3.338,3.338,0,0,0,.785,2.2,3.4,3.4,0,0,0,1.984,1.191,3.6,3.6,0,0,1-.91.118,4.227,4.227,0,0,1-.651-.054,3.454,3.454,0,0,0,3.228,2.395,6.764,6.764,0,0,1-4.286,1.477,7.317,7.317,0,0,1-.833-.043,9.588,9.588,0,0,0,5.3,1.55,10.1,10.1,0,0,0,3.453-.583,8.8,8.8,0,0,0,2.759-1.561A10.426,10.426,0,0,0,34,12.026,10.019,10.019,0,0,0,35.232,9.37,9.839,9.839,0,0,0,35.638,6.6c0-.2,0-.35-.011-.45a7.22,7.22,0,0,0,1.732-1.785,6.872,6.872,0,0,1-1.988.535M66.565,15.709a.635.635,0,0,1-.46.188H54.677a.641.641,0,0,1-.651-.653V8.317h1.507a4.614,4.614,0,0,0-.214,1.4,4.7,4.7,0,0,0,1.5,3.5,4.993,4.993,0,0,0,3.6,1.45A5.131,5.131,0,0,0,62.983,14a4.99,4.99,0,0,0,1.861-1.8,4.743,4.743,0,0,0,.683-2.486,4.566,4.566,0,0,0-.214-1.4h1.443v6.927a.623.623,0,0,1-.192.465m-6.148-2.966a3.221,3.221,0,0,1-2.324-.936,3.125,3.125,0,0,1,0-4.521,3.369,3.369,0,0,1,4.66,0,3.125,3.125,0,0,1,0,4.521,3.234,3.234,0,0,1-2.336.936m6.126-6.521a.706.706,0,0,1-.524.214H64.16a.73.73,0,0,1-.738-.738V3.934a.715.715,0,0,1,.214-.517.7.7,0,0,1,.524-.22h1.86a.7.7,0,0,1,.524.22.709.709,0,0,1,.214.517V5.7a.706.706,0,0,1-.214.524M68,1.989a2.027,2.027,0,0,0-1.486-.621H54.3a2.027,2.027,0,0,0-1.486.621A2.025,2.025,0,0,0,52.2,3.474v12.21A2.118,2.118,0,0,0,54.3,17.789H66.511a2.118,2.118,0,0,0,2.106-2.106V3.474A2.025,2.025,0,0,0,68,1.989" transform="translate(4.259 0)"/></g></g></svg>