<?xml version="1.0" encoding="UTF-8" standalone="no"?>
<svg
   xmlns:dc="http://purl.org/dc/elements/1.1/"
   xmlns:cc="http://creativecommons.org/ns#"
   xmlns:rdf="http://www.w3.org/1999/02/22-rdf-syntax-ns#"
   xmlns:svg="http://www.w3.org/2000/svg"
   xmlns="http://www.w3.org/2000/svg"
   xmlns:sodipodi="http://sodipodi.sourceforge.net/DTD/sodipodi-0.dtd"
   xmlns:inkscape="http://www.inkscape.org/namespaces/inkscape"
   width="20.703"
   height="21.664"
   viewBox="0 0 20.703 21.664"
   version="1.1"
   id="svg15"
   sodipodi:docname="twitter.svg"
   inkscape:version="0.92.4 (5da689c313, 2019-01-14)">
  <metadata
     id="metadata19">
    <rdf:RDF>
      <cc:Work
         rdf:about="">
        <dc:format>image/svg+xml</dc:format>
        <dc:type
           rdf:resource="http://purl.org/dc/dcmitype/StillImage" />
      </cc:Work>
    </rdf:RDF>
  </metadata>
  <sodipodi:namedview
     pagecolor="#ffffff"
     bordercolor="#666666"
     borderopacity="1"
     objecttolerance="10"
     gridtolerance="10"
     guidetolerance="10"
     inkscape:pageopacity="0"
     inkscape:pageshadow="2"
     inkscape:window-width="1154"
     inkscape:window-height="766"
     id="namedview17"
     showgrid="false"
     inkscape:zoom="10.893649"
     inkscape:cx="-1.2253694"
     inkscape:cy="10.832"
     inkscape:window-x="2897"
     inkscape:window-y="450"
     inkscape:window-maximized="0"
     inkscape:current-layer="svg15" />
  <defs
     id="defs7">
    <style
       id="style2">.a{fill:#a2a2a2;}.b{clip-path:url(#a);}</style>
    <clipPath
       id="a">
      <path
         class="a"
         d="M0,10.521H20.7V-11.143H0Z"
         transform="translate(0 11.143)"
         id="path4" />
    </clipPath>
  </defs>
  <g
     class="b"
     transform="translate(0)"
     clip-path="url(#a)"
     id="g13"
     style="fill:#a2a2a2;fill-opacity:1">
    <g
       transform="translate(-22.8 0.877)"
       id="g11"
       style="fill:#a2a2a2;fill-opacity:1">
      <path
         class="a"
         d="M 35.371,4.9 C 36.096233,4.4781283 36.637643,3.8004741 36.889,3 36.212305,3.4029652 35.47053,3.6848533 34.697,3.833 33.359959,2.4108213 31.112148,2.3746174 29.73,3.753 c -0.65936,0.6399915 -1.024574,1.5242495 -1.009,2.443 5.83e-4,0.2662448 0.02907,0.5316951 0.085,0.792 C 27.420738,6.9232888 26.065817,6.5599982 24.834,5.923 23.617945,5.3024087 22.545536,4.4337167 21.686,3.373 21.079516,4.4163976 21.059439,5.7001479 21.633,6.762 21.900613,7.2574381 22.285919,7.6794897 22.755,7.991 22.207255,7.9719531 21.672019,7.8221144 21.194,7.554 v 0.042 c -0.01183,0.8039426 0.266914,1.5851417 0.785,2.2 0.501737,0.616762 1.203755,1.038185 1.984,1.191 -0.297058,0.07799 -0.602875,0.117645 -0.91,0.118 -0.218068,-0.0012 -0.435718,-0.01923 -0.651,-0.054 0.452865,1.406673 1.750448,2.369408 3.228,2.395 -1.216237,0.970689 -2.729969,1.492336 -4.286,1.477 -0.278258,0.0015 -0.556377,-0.01284 -0.833,-0.043 1.576439,1.025232 3.419559,1.564257 5.3,1.55 1.176166,0.0082 2.344727,-0.18909 3.453,-0.583 1.006576,-0.349034 1.941407,-0.877947 2.759,-1.561 0.764596,-0.653994 1.4305,-1.41522 1.977,-2.26 0.538508,-0.820229 0.953606,-1.715115 1.232,-2.656 0.266676,-0.8992608 0.403393,-1.8320345 0.406,-2.77 0,-0.2 0,-0.35 -0.011,-0.45 0.676242,-0.4903304 1.262269,-1.0942899 1.732,-1.785 -0.632043,0.2771464 -1.302228,0.4575031 -1.988,0.535"
         transform="translate(4.259)"
         id="path9"
         inkscape:connector-curvature="0"
         style="fill:#a2a2a2;stroke:none;fill-opacity:1"
         sodipodi:nodetypes="cccccccccccccccccccccccccccc" />
    </g>
  </g>
</svg>
