<?xml version="1.0" encoding="UTF-8" standalone="no"?>
<svg
   xmlns:dc="http://purl.org/dc/elements/1.1/"
   xmlns:cc="http://creativecommons.org/ns#"
   xmlns:rdf="http://www.w3.org/1999/02/22-rdf-syntax-ns#"
   xmlns:svg="http://www.w3.org/2000/svg"
   xmlns="http://www.w3.org/2000/svg"
   xmlns:sodipodi="http://sodipodi.sourceforge.net/DTD/sodipodi-0.dtd"
   xmlns:inkscape="http://www.inkscape.org/namespaces/inkscape"
   width="19.683"
   height="19.683"
   viewBox="0 0 19.683 19.683"
   version="1.1"
   id="svg18"
   sodipodi:docname="user_menu_pending_events.svg"
   inkscape:version="0.92.4 (5da689c313, 2019-01-14)">
  <metadata
     id="metadata22">
    <rdf:RDF>
      <cc:Work
         rdf:about="">
        <dc:format>image/svg+xml</dc:format>
        <dc:type
           rdf:resource="http://purl.org/dc/dcmitype/StillImage" />
      </cc:Work>
    </rdf:RDF>
  </metadata>
  <sodipodi:namedview
     pagecolor="#ffffff"
     bordercolor="#666666"
     borderopacity="1"
     objecttolerance="10"
     gridtolerance="10"
     guidetolerance="10"
     inkscape:pageopacity="0"
     inkscape:pageshadow="2"
     inkscape:window-width="640"
     inkscape:window-height="480"
     id="namedview20"
     showgrid="false"
     inkscape:zoom="11.990042"
     inkscape:cx="9.8415003"
     inkscape:cy="9.8415003"
     inkscape:window-x="3312"
     inkscape:window-y="457"
     inkscape:window-maximized="0"
     inkscape:current-layer="svg18" />
  <defs
     id="defs4">
    <style
       id="style2">.a{fill:#fe6824;}</style>
  </defs>
  <path
     style="fill:#fe6824;stroke:none"
     d="M 4.8964844 0 A 0.82 0.82 0 0 0 4.1015625 0.8203125 L 4.1015625 1.640625 L 3.28125 1.640625 A 3.28 3.28 0 0 0 0 4.921875 L 0 16.400391 A 3.28 3.28 0 0 0 3.28125 19.683594 L 16.400391 19.683594 A 3.28 3.28 0 0 0 19.683594 16.400391 L 19.683594 4.921875 A 3.28 3.28 0 0 0 16.400391 1.640625 L 15.580078 1.640625 L 15.580078 0.8203125 A 0.82 0.82 0 0 0 13.939453 0.8203125 L 13.939453 1.640625 L 10.662109 1.640625 L 10.662109 0.8203125 A 0.82 0.82 0 0 0 9.0214844 0.8203125 L 9.0214844 1.640625 L 5.7402344 1.640625 L 5.7402344 0.8203125 A 0.82 0.82 0 0 0 4.8964844 0 z M 5.7402344 3.2792969 L 9.0214844 3.2792969 L 9.0214844 4.0996094 A 0.82 0.82 0 0 0 10.660156 4.0996094 L 10.660156 3.2792969 L 13.941406 3.2792969 L 13.941406 4.0996094 A 0.82 0.82 0 0 0 15.582031 4.0996094 L 15.582031 3.2792969 L 16.402344 3.2792969 A 1.64 1.64 0 0 1 18.042969 4.9199219 L 18.042969 6.5605469 L 1.640625 6.5605469 L 1.640625 4.921875 A 1.64 1.64 0 0 1 3.28125 3.28125 L 4.0996094 3.28125 L 4.0996094 4.0996094 A 0.82 0.82 0 0 0 5.7402344 4.0996094 L 5.7402344 3.2792969 z M 1.640625 8.1992188 L 18.039062 8.1992188 L 18.039062 16.400391 A 1.64 1.64 0 0 1 16.400391 18.042969 L 3.28125 18.042969 A 1.64 1.64 0 0 1 1.640625 16.400391 L 1.640625 8.1992188 z M 7.2734375 9.0527344 A 0.44 0.44 0 0 0 6.8378906 9.4882812 L 6.8378906 10.433594 A 1.318 1.318 0 0 0 7.2167969 11.349609 L 9.2578125 13.390625 L 7.2265625 15.431641 A 1.278 1.278 0 0 0 6.8476562 16.347656 L 6.8476562 17.28125 A 0.44 0.44 0 0 0 6.9179688 17.515625 L 6.84375 17.716797 L 7.2597656 17.716797 A 0.44 0.44 0 0 0 7.2617188 17.716797 L 7.2832031 17.716797 L 12.482422 17.716797 A 0.44 0.44 0 0 0 12.525391 17.714844 A 0.44 0.44 0 0 0 12.527344 17.714844 L 12.912109 17.714844 L 12.835938 17.533203 A 0.44 0.44 0 0 0 12.917969 17.28125 L 12.917969 16.347656 A 1.278 1.278 0 0 0 12.539062 15.431641 L 10.490234 13.390625 L 12.521484 11.353516 A 1.287 1.287 0 0 0 12.908203 10.431641 L 12.908203 9.4882812 A 0.44 0.44 0 0 0 12.472656 9.0527344 L 7.2734375 9.0527344 z M 7.7128906 9.9335938 L 12.042969 9.9335938 L 12.042969 10.431641 A 0.437 0.437 0 0 1 11.919922 10.732422 L 9.875 12.775391 L 7.8359375 10.744141 A 0.414 0.414 0 0 1 7.7128906 10.443359 L 7.7128906 9.9335938 z "
     id="path6" />
</svg>
