<?xml version="1.0" encoding="UTF-8" standalone="no"?>
<svg
   xmlns:dc="http://purl.org/dc/elements/1.1/"
   xmlns:cc="http://creativecommons.org/ns#"
   xmlns:rdf="http://www.w3.org/1999/02/22-rdf-syntax-ns#"
   xmlns:svg="http://www.w3.org/2000/svg"
   xmlns="http://www.w3.org/2000/svg"
   xmlns:sodipodi="http://sodipodi.sourceforge.net/DTD/sodipodi-0.dtd"
   xmlns:inkscape="http://www.inkscape.org/namespaces/inkscape"
   width="24.011"
   height="20.672"
   viewBox="0 0 24.011 20.672"
   version="1.1"
   id="svg22"
   sodipodi:docname="user_menu_volunteers.svg"
   inkscape:version="0.92.4 (5da689c313, 2019-01-14)">
  <metadata
     id="metadata26">
    <rdf:RDF>
      <cc:Work
         rdf:about="">
        <dc:format>image/svg+xml</dc:format>
        <dc:type
           rdf:resource="http://purl.org/dc/dcmitype/StillImage" />
      </cc:Work>
    </rdf:RDF>
  </metadata>
  <sodipodi:namedview
     pagecolor="#ffffff"
     bordercolor="#666666"
     borderopacity="1"
     objecttolerance="10"
     gridtolerance="10"
     guidetolerance="10"
     inkscape:pageopacity="0"
     inkscape:pageshadow="2"
     inkscape:window-width="640"
     inkscape:window-height="480"
     id="namedview24"
     showgrid="false"
     inkscape:zoom="11.416408"
     inkscape:cx="12.0055"
     inkscape:cy="10.336"
     inkscape:window-x="3244"
     inkscape:window-y="557"
     inkscape:window-maximized="0"
     inkscape:current-layer="svg22" />
  <defs
     id="defs4">
    <style
       id="style2">.a{fill:#fe6824;}</style>
  </defs>
  <path
     style="fill:#fe6824;stroke:none"
     d="M 18.25 0 A 3.011 3.011 0 0 0 16.09375 0.90039062 A 5.336 5.336 0 0 1 16.835938 3.5410156 A 5.76 5.76 0 0 1 16.449219 5.5039062 A 2.943 2.943 0 0 0 18.248047 6.0820312 A 3.04 3.04 0 0 0 20.4375 5.1503906 C 20.5345 5.0533906 20.599516 4.957125 20.728516 4.828125 A 3.064 3.064 0 0 0 21.306641 3.0585938 A 3.056 3.056 0 0 0 18.25 0 z M 5.9804688 0.05859375 A 2.827 2.827 0 0 0 5.6972656 0.0625 A 3.056 3.056 0 0 0 2.6386719 3.1191406 A 2.85 2.85 0 0 0 3.21875 4.890625 A 1.4 1.4 0 0 1 3.5078125 5.2441406 A 3.114 3.114 0 0 0 5.7285156 6.1777344 A 2.62 2.62 0 0 0 7.3066406 5.6933594 A 5.944 5.944 0 0 1 6.8886719 3.5703125 A 4.82 4.82 0 0 1 7.7578125 0.76953125 A 2.827 2.827 0 0 0 5.9804688 0.05859375 z M 11.84375 0.09765625 A 3.408 3.408 0 0 0 8.4960938 3.4433594 A 3.347 3.347 0 1 0 11.84375 0.09765625 z M 5.7617188 7.5 C 3.3477187 7.532 0 10.653922 0 15.669922 A 1.943 1.943 0 0 0 0.67578125 17.246094 A 6.082 6.082 0 0 0 3.9902344 18.40625 A 2.585 2.585 0 0 1 3.8613281 17.537109 A 13.413 13.413 0 0 1 5.953125 10.585938 A 9.625 9.625 0 0 1 8.046875 8.3007812 A 4.192 4.192 0 0 0 5.7617188 7.5 z M 18.21875 7.5957031 A 4.618 4.618 0 0 0 15.771484 8.4648438 A 9.037 9.037 0 0 1 17.707031 10.621094 A 13.122 13.122 0 0 1 19.800781 17.574219 A 6.418 6.418 0 0 1 19.736328 18.443359 A 6.356 6.356 0 0 0 23.335938 17.283203 A 2.045 2.045 0 0 0 24.011719 15.707031 C 24.011719 10.654031 20.63275 7.5317031 18.21875 7.5957031 z M 11.876953 8.5273438 A 3.286 3.286 0 0 0 10.652344 8.7539062 A 4.966 4.966 0 0 0 9.3652344 9.4296875 A 9.609 9.609 0 0 0 5.5058594 17.572266 A 2.2 2.2 0 0 0 5.6992188 18.505859 A 2.126 2.126 0 0 0 6.2460938 19.277344 A 3.467 3.467 0 0 0 7.3085938 19.921875 A 14.827 14.827 0 0 0 16.607422 19.921875 A 3.787 3.787 0 0 0 17.638672 19.277344 A 6.244 6.244 0 0 0 18.121094 18.505859 A 2.1 2.1 0 0 0 18.314453 17.572266 A 9.682 9.682 0 0 0 14.578125 9.5585938 A 4.465 4.465 0 0 0 13.324219 8.8496094 A 4.071 4.071 0 0 0 11.876953 8.5273438 z M 13.517578 12.099609 A 2.109 2.109 0 0 1 15.353516 13.099609 A 1.87 1.87 0 0 1 15.384766 15.0625 A 5.324 5.324 0 0 1 14.173828 16.507812 C 13.750828 16.957813 12.463828 18.020344 12.173828 18.277344 L 12.011719 18.40625 L 11.851562 18.277344 C 11.621563 18.052344 10.334563 17.022063 9.8515625 16.539062 A 5.113 5.113 0 0 1 8.6601562 15.091797 A 2.555 2.555 0 0 1 8.4023438 14.0625 A 2.168 2.168 0 0 1 8.6601562 13.095703 A 2.14 2.14 0 0 1 10.460938 12.130859 A 2.434 2.434 0 0 1 11.972656 12.998047 A 2.555 2.555 0 0 1 13.517578 12.099609 z "
     id="path6" />
</svg>
