<?xml version="1.0" encoding="UTF-8" standalone="no"?>
<svg
   xmlns:dc="http://purl.org/dc/elements/1.1/"
   xmlns:cc="http://creativecommons.org/ns#"
   xmlns:rdf="http://www.w3.org/1999/02/22-rdf-syntax-ns#"
   xmlns:svg="http://www.w3.org/2000/svg"
   xmlns="http://www.w3.org/2000/svg"
   xmlns:sodipodi="http://sodipodi.sourceforge.net/DTD/sodipodi-0.dtd"
   xmlns:inkscape="http://www.inkscape.org/namespaces/inkscape"
   width="15.615"
   height="22.75"
   viewBox="0 0 15.615 22.75"
   version="1.1"
   id="svg22"
   sodipodi:docname="user_menu_certificates.svg"
   inkscape:version="0.92.4 (5da689c313, 2019-01-14)">
  <metadata
     id="metadata26">
    <rdf:RDF>
      <cc:Work
         rdf:about="">
        <dc:format>image/svg+xml</dc:format>
        <dc:type
           rdf:resource="http://purl.org/dc/dcmitype/StillImage" />
      </cc:Work>
    </rdf:RDF>
  </metadata>
  <sodipodi:namedview
     pagecolor="#ffffff"
     bordercolor="#666666"
     borderopacity="1"
     objecttolerance="10"
     gridtolerance="10"
     guidetolerance="10"
     inkscape:pageopacity="0"
     inkscape:pageshadow="2"
     inkscape:window-width="640"
     inkscape:window-height="480"
     id="namedview24"
     showgrid="false"
     inkscape:zoom="10.373626"
     inkscape:cx="7.8074999"
     inkscape:cy="11.375"
     inkscape:window-x="3392"
     inkscape:window-y="415"
     inkscape:window-maximized="0"
     inkscape:current-layer="svg22" />
  <defs
     id="defs4">
    <style
       id="style2">.a{fill:#fe6824;}</style>
  </defs>
  <path
     style="fill:#fe6824;stroke:none"
     d="M 7.7929688 0 A 1.163 1.163 0 0 0 6.9824219 0.34179688 A 1.174 1.174 0 0 1 5.7167969 0.59570312 A 1.146 1.146 0 0 0 4.1953125 1.2285156 A 1.169 1.169 0 0 1 3.1054688 1.9394531 A 1.179 1.179 0 0 0 1.9394531 3.1054688 A 1.2 1.2 0 0 1 1.2285156 4.1953125 A 1.175 1.175 0 0 0 0.59570312 5.7167969 A 1.174 1.174 0 0 1 0.34179688 6.9824219 A 1.163 1.163 0 0 0 0.34179688 8.6308594 A 1.174 1.174 0 0 1 0.59570312 9.8984375 A 1.146 1.146 0 0 0 1.2285156 11.419922 A 1.169 1.169 0 0 1 1.9394531 12.509766 A 1.179 1.179 0 0 0 3.1054688 13.675781 A 1.2 1.2 0 0 1 4.1953125 14.384766 A 1.175 1.175 0 0 0 5.7167969 15.019531 A 1.174 1.174 0 0 1 6.9824219 15.271484 A 1.163 1.163 0 0 0 8.6308594 15.271484 A 1.174 1.174 0 0 1 9.8984375 15.019531 A 1.146 1.146 0 0 0 11.419922 14.384766 A 1.169 1.169 0 0 1 12.509766 13.675781 A 1.179 1.179 0 0 0 13.675781 12.509766 A 1.2 1.2 0 0 1 14.384766 11.419922 A 1.175 1.175 0 0 0 15.019531 9.8984375 A 1.174 1.174 0 0 1 15.271484 8.6308594 A 1.163 1.163 0 0 0 15.271484 6.9824219 A 1.174 1.174 0 0 1 15.019531 5.7167969 A 1.146 1.146 0 0 0 14.384766 4.1953125 A 1.169 1.169 0 0 1 13.675781 3.1054688 A 1.179 1.179 0 0 0 12.509766 1.9394531 A 1.2 1.2 0 0 1 11.419922 1.2285156 A 1.175 1.175 0 0 0 9.8984375 0.59570312 A 1.174 1.174 0 0 1 8.6308594 0.34179688 A 1.163 1.163 0 0 0 7.7929688 0 z M 7.5527344 1.8945312 A 5.855 5.855 0 0 1 13.650391 7.7441406 A 5.874 5.874 0 0 1 7.7949219 13.599609 A 5.855 5.855 0 0 1 7.5527344 1.8945312 z M 7.7949219 2.6738281 A 5.0700002 5.0700002 0 0 0 2.7246094 7.7441406 A 5.0700002 5.0700002 0 0 0 7.7949219 12.814453 A 5.0700002 5.0700002 0 0 0 12.865234 7.7441406 A 5.0700002 5.0700002 0 0 0 7.7949219 2.6738281 z M 9.2949219 15.707031 A 0.249 0.249 0 0 0 9.1132812 15.78125 A 2 2 0 0 1 7.6679688 16.490234 A 1.7 1.7 0 0 1 6.4003906 15.958984 L 6.2246094 15.78125 C 6.0476094 15.60425 5.8437969 15.806031 5.7167969 15.832031 A 1.483 1.483 0 0 1 5.1582031 15.960938 L 11.951172 22.753906 L 12.28125 20.167969 L 14.841797 19.867188 L 10.859375 15.855469 A 1.751 1.751 0 0 1 9.6191406 15.830078 L 9.3925781 15.730469 A 0.249 0.249 0 0 0 9.2949219 15.707031 z M 4.3476562 16.236328 L 0.74804688 19.861328 L 3.3085938 20.160156 L 3.6074219 22.746094 L 7.2324219 19.121094 L 4.3476562 16.236328 z "
     id="path6" />
</svg>
