<?xml version="1.0" encoding="UTF-8" standalone="no"?>
<svg
   xmlns:dc="http://purl.org/dc/elements/1.1/"
   xmlns:cc="http://creativecommons.org/ns#"
   xmlns:rdf="http://www.w3.org/1999/02/22-rdf-syntax-ns#"
   xmlns:svg="http://www.w3.org/2000/svg"
   xmlns="http://www.w3.org/2000/svg"
   xmlns:sodipodi="http://sodipodi.sourceforge.net/DTD/sodipodi-0.dtd"
   xmlns:inkscape="http://www.inkscape.org/namespaces/inkscape"
   width="14.77"
   height="20.818"
   viewBox="0 0 14.77 20.818"
   version="1.1"
   id="svg14"
   sodipodi:docname="user_menu_activities.svg"
   inkscape:version="0.92.4 (5da689c313, 2019-01-14)">
  <metadata
     id="metadata18">
    <rdf:RDF>
      <cc:Work
         rdf:about="">
        <dc:format>image/svg+xml</dc:format>
        <dc:type
           rdf:resource="http://purl.org/dc/dcmitype/StillImage" />
      </cc:Work>
    </rdf:RDF>
  </metadata>
  <sodipodi:namedview
     pagecolor="#ffffff"
     bordercolor="#666666"
     borderopacity="1"
     objecttolerance="10"
     gridtolerance="10"
     guidetolerance="10"
     inkscape:pageopacity="0"
     inkscape:pageshadow="2"
     inkscape:window-width="980"
     inkscape:window-height="691"
     id="namedview16"
     showgrid="false"
     inkscape:zoom="11.336343"
     inkscape:cx="7.3850002"
     inkscape:cy="10.409"
     inkscape:window-x="3236"
     inkscape:window-y="421"
     inkscape:window-maximized="0"
     inkscape:current-layer="svg14" />
  <defs
     id="defs4">
    <style
       id="style2">.a{fill:#fe6824;fill-rule:evenodd;}</style>
  </defs>
  <path
     style="fill:#fe6824;fill-rule:evenodd;stroke:none"
     d="M 7.3710938 -0.041015625 A 1.768 1.768 0 0 0 5.6132812 1.7695312 L 5.6132812 1.8007812 A 0.269 0.269 0 0 1 5.4277344 2.0449219 L 5.3535156 2.0644531 A 7.072 7.072 0 0 0 0.31445312 8.8398438 L 0.31445312 12.175781 C 0.31445312 13.043781 0.24039063 14.449594 0.15039062 15.308594 L 0.001953125 16.699219 A 0.694 0.694 0 0 0 0.70117188 17.482422 L 14.060547 17.482422 A 0.693 0.693 0 0 0 14.761719 16.699219 L 14.615234 15.3125 C 14.524234 14.4505 14.451172 13.046687 14.451172 12.179688 L 14.451172 8.8398438 A 7.075 7.075 0 0 0 9.40625 2.0625 L 9.3398438 2.0429688 A 0.275 0.275 0 0 1 9.1484375 1.796875 L 9.1484375 1.7695312 A 1.768 1.768 0 0 0 7.3710938 -0.041015625 z M 4.6347656 18.068359 A 2.75 2.75 0 0 0 10.134766 18.068359 L 4.6347656 18.068359 z "
     id="path6" />
</svg>
