<?xml version="1.0" encoding="UTF-8" standalone="no"?>
<svg
   xmlns:dc="http://purl.org/dc/elements/1.1/"
   xmlns:cc="http://creativecommons.org/ns#"
   xmlns:rdf="http://www.w3.org/1999/02/22-rdf-syntax-ns#"
   xmlns:svg="http://www.w3.org/2000/svg"
   xmlns="http://www.w3.org/2000/svg"
   xmlns:sodipodi="http://sodipodi.sourceforge.net/DTD/sodipodi-0.dtd"
   xmlns:inkscape="http://www.inkscape.org/namespaces/inkscape"
   width="20"
   height="20"
   viewBox="0 0 20 20"
   version="1.1"
   id="svg10"
   sodipodi:docname="user_menu_statistics.svg"
   inkscape:version="0.92.4 (5da689c313, 2019-01-14)">
  <metadata
     id="metadata14">
    <rdf:RDF>
      <cc:Work
         rdf:about="">
        <dc:format>image/svg+xml</dc:format>
        <dc:type
           rdf:resource="http://purl.org/dc/dcmitype/StillImage" />
      </cc:Work>
    </rdf:RDF>
  </metadata>
  <sodipodi:namedview
     pagecolor="#ffffff"
     bordercolor="#666666"
     borderopacity="1"
     objecttolerance="10"
     gridtolerance="10"
     guidetolerance="10"
     inkscape:pageopacity="0"
     inkscape:pageshadow="2"
     inkscape:window-width="640"
     inkscape:window-height="480"
     id="namedview12"
     showgrid="false"
     inkscape:zoom="11.8"
     inkscape:cx="10"
     inkscape:cy="10"
     inkscape:window-x="3301"
     inkscape:window-y="464"
     inkscape:window-maximized="0"
     inkscape:current-layer="svg10" />
  <defs
     id="defs4">
    <style
       id="style2">.a{fill:#fe6824;}</style>
  </defs>
  <path
     style="fill:#fe6824;stroke:none"
     d="M 1 0 A 1 1 0 0 0 0 1 L 0 16 A 1 1 0 0 0 1 17 L 7 17 L 7 18 L 6 18 A 1 1 0 0 0 6 20 L 14 20 A 1 1 0 0 0 14 18 L 13 18 L 13 17 L 19 17 A 1 1 0 0 0 20 16 L 20 1 A 1 1 0 0 0 19 0 L 1 0 z M 10.458984 4 A 1 1 0 0 1 10.5 4 L 13.5 4 A 1 1 0 0 1 14.150391 4.2402344 A 0.947 0.947 0 0 1 14.289062 4.390625 A 1 1 0 0 1 14.5 4.9296875 L 14.5 8 A 1 1 0 0 1 12.5 8 L 12.5 7.4101562 L 7.2109375 12.710938 A 1 1 0 0 1 5.796875 12.716797 L 5.7890625 12.710938 A 1 1 0 0 1 5.7832031 11.300781 L 5.7890625 11.294922 L 11.089844 6 L 10.5 6 A 1 1 0 0 1 10.458984 4 z "
     id="path6" />
</svg>
