<?xml version="1.0" encoding="UTF-8" standalone="no"?>
<svg
   xmlns:dc="http://purl.org/dc/elements/1.1/"
   xmlns:cc="http://creativecommons.org/ns#"
   xmlns:rdf="http://www.w3.org/1999/02/22-rdf-syntax-ns#"
   xmlns:svg="http://www.w3.org/2000/svg"
   xmlns="http://www.w3.org/2000/svg"
   xmlns:sodipodi="http://sodipodi.sourceforge.net/DTD/sodipodi-0.dtd"
   xmlns:inkscape="http://www.inkscape.org/namespaces/inkscape"
   width="19.615"
   height="19.615"
   viewBox="0 0 19.615 19.615"
   version="1.1"
   id="svg12"
   sodipodi:docname="user_menu_report_events.svg"
   inkscape:version="0.92.4 (5da689c313, 2019-01-14)">
  <metadata
     id="metadata16">
    <rdf:RDF>
      <cc:Work
         rdf:about="">
        <dc:format>image/svg+xml</dc:format>
        <dc:type
           rdf:resource="http://purl.org/dc/dcmitype/StillImage" />
      </cc:Work>
    </rdf:RDF>
  </metadata>
  <sodipodi:namedview
     pagecolor="#ffffff"
     bordercolor="#666666"
     borderopacity="1"
     objecttolerance="10"
     gridtolerance="10"
     guidetolerance="10"
     inkscape:pageopacity="0"
     inkscape:pageshadow="2"
     inkscape:window-width="640"
     inkscape:window-height="480"
     id="namedview14"
     showgrid="false"
     inkscape:zoom="12.031609"
     inkscape:cx="9.8074999"
     inkscape:cy="9.8074999"
     inkscape:window-x="3011"
     inkscape:window-y="328"
     inkscape:window-maximized="0"
     inkscape:current-layer="svg12" />
  <defs
     id="defs4">
    <style
       id="style2">.a{fill:#fe6824;}</style>
  </defs>
  <path
     style="fill:#fe6824;stroke:none"
     d="M 4.8789062 0 A 0.8175 0.8175 0 0 0 4.0859375 0.81640625 L 4.0859375 1.6347656 L 3.2695312 1.6347656 A 3.269 3.269 0 0 0 0 4.9003906 L 0 16.345703 A 3.269 3.269 0 0 0 3.2695312 19.615234 L 16.345703 19.615234 A 3.269 3.269 0 0 0 19.613281 16.345703 L 19.613281 4.9003906 A 3.269 3.269 0 0 0 16.345703 1.6308594 L 15.527344 1.6308594 L 15.527344 0.81640625 A 0.8175 0.8175 0 1 0 13.892578 0.81640625 L 13.892578 1.6347656 L 10.625 1.6347656 L 10.625 0.81640625 A 0.8175 0.8175 0 1 0 8.9902344 0.81640625 L 8.9902344 1.6347656 L 5.7207031 1.6347656 L 5.7207031 0.81640625 A 0.8175 0.8175 0 0 0 4.8789062 0 z M 3.2695312 3.2695312 L 4.0859375 3.2695312 L 4.0859375 4.0859375 A 0.8175 0.8175 0 0 0 5.7207031 4.0859375 L 5.7207031 3.2695312 L 8.9902344 3.2695312 L 8.9902344 4.0859375 A 0.8175 0.8175 0 0 0 10.625 4.0859375 L 10.625 3.2695312 L 13.894531 3.2695312 L 13.894531 4.0859375 A 0.8175 0.8175 0 1 0 15.529297 4.0859375 L 15.529297 3.2695312 L 16.345703 3.2695312 A 1.635 1.635 0 0 1 17.980469 4.9003906 L 17.980469 6.5371094 L 1.6347656 6.5371094 L 1.6347656 4.9003906 A 1.635 1.635 0 0 1 3.2695312 3.2695312 z M 1.6347656 8.1738281 L 17.980469 8.1738281 L 17.980469 16.345703 A 1.635 1.635 0 0 1 16.345703 17.980469 L 3.2695312 17.980469 A 1.635 1.635 0 0 1 1.6347656 16.345703 L 1.6347656 8.1738281 z M 12.255859 10.646484 A 0.818 0.818 0 0 0 11.683594 10.863281 L 11.681641 10.863281 L 8.9902344 13.554688 L 7.9335938 12.498047 A 0.818 0.818 0 0 0 6.7773438 13.654297 L 8.4121094 15.289062 A 0.817 0.817 0 0 0 9.5683594 15.289062 L 12.839844 12.019531 A 0.818 0.818 0 0 0 12.255859 10.646484 z "
     id="path6" />
</svg>
