<?xml version="1.0" encoding="UTF-8" standalone="no"?>
<svg
   xmlns:dc="http://purl.org/dc/elements/1.1/"
   xmlns:cc="http://creativecommons.org/ns#"
   xmlns:rdf="http://www.w3.org/1999/02/22-rdf-syntax-ns#"
   xmlns:svg="http://www.w3.org/2000/svg"
   xmlns="http://www.w3.org/2000/svg"
   xmlns:sodipodi="http://sodipodi.sourceforge.net/DTD/sodipodi-0.dtd"
   xmlns:inkscape="http://www.inkscape.org/namespaces/inkscape"
   width="23.519"
   height="21.536"
   viewBox="0 0 23.519 21.536"
   version="1.1"
   id="svg10"
   sodipodi:docname="user_menu_logout.svg"
   inkscape:version="0.92.4 (5da689c313, 2019-01-14)">
  <metadata
     id="metadata14">
    <rdf:RDF>
      <cc:Work
         rdf:about="">
        <dc:format>image/svg+xml</dc:format>
        <dc:type
           rdf:resource="http://purl.org/dc/dcmitype/StillImage" />
      </cc:Work>
    </rdf:RDF>
  </metadata>
  <sodipodi:namedview
     pagecolor="#ffffff"
     bordercolor="#666666"
     borderopacity="1"
     objecttolerance="10"
     gridtolerance="10"
     guidetolerance="10"
     inkscape:pageopacity="0"
     inkscape:pageshadow="2"
     inkscape:window-width="640"
     inkscape:window-height="480"
     id="namedview12"
     showgrid="false"
     inkscape:zoom="10.958396"
     inkscape:cx="11.7595"
     inkscape:cy="10.768"
     inkscape:window-x="3142"
     inkscape:window-y="412"
     inkscape:window-maximized="0"
     inkscape:current-layer="svg10" />
  <defs
     id="defs4">
    <style
       id="style2">.a{fill:#fe6824;fill-rule:evenodd;}</style>
  </defs>
  <path
     style="fill:#fe6824;fill-rule:evenodd;stroke:none"
     d="M 9.2011719 0.001953125 A 0.909 0.909 0 0 0 8.7695312 0.12890625 L 0.51757812 4.0820312 L 0.51757812 4.0859375 A 0.9 0.9 0 0 0 0.00390625 4.9003906 L 0.00390625 16.644531 A 0.909 0.909 0 0 0 0.59765625 17.496094 L 8.8476562 21.449219 A 0.905 0.905 0 0 0 10.142578 20.634766 L 10.142578 19.445312 L 16.279297 19.445312 A 0.907 0.907 0 0 0 17.1875 18.537109 L 17.1875 14.753906 A 0.908 0.908 0 0 0 15.373047 14.753906 L 15.373047 17.628906 L 10.142578 17.628906 L 10.142578 3.9121094 L 15.373047 3.9121094 L 15.373047 6.7871094 A 0.908 0.908 0 0 0 17.1875 6.7871094 L 17.1875 3.0039062 A 0.908 0.908 0 0 0 16.279297 2.0957031 L 10.142578 2.0957031 L 10.142578 0.90820312 A 0.909 0.909 0 0 0 9.2011719 0.001953125 z M 19.083984 6.3867188 A 1.149 1.149 0 0 0 18.300781 8.3183594 L 19.601562 9.6191406 L 12.894531 9.6191406 A 1.15 1.15 0 0 0 12.894531 11.919922 L 19.595703 11.919922 L 18.294922 13.21875 A 1.149 1.149 0 0 0 19.921875 14.837891 L 23.179688 11.587891 A 1.148 1.148 0 0 0 23.179688 9.9492188 L 19.925781 6.6953125 A 1.149 1.149 0 0 0 19.083984 6.3867188 z "
     id="path6" />
</svg>
