<svg width="474" height="422" viewBox="0 0 474 422" fill="none" xmlns="http://www.w3.org/2000/svg">
<g clip-path="url(#clip0_3131_1353)">
<path d="M31.2969 261.204C31.2969 261.204 -5.76464 305.827 1.5511 312.933C9.73234 320.877 34.3398 293.528 34.3398 293.528L31.2969 261.204Z" fill="#DEDFDE"/>
<path d="M159.418 299.121C159.418 299.121 182.44 287.506 184.864 246.144L175.589 240.86C175.589 240.86 169.257 263.408 158.48 264.957L159.418 299.121Z" fill="#DEDFDE"/>
<path d="M35.5788 387.32C37.5649 381.134 45.1084 377.262 52.907 375.449C55.3031 374.894 57.8449 374.593 60.4778 374.593C68.6864 374.593 76.0021 377.836 80.7669 382.592C82.2702 384.095 83.7552 385.908 84.6116 387.758C86.1968 391.183 83.245 393.242 81.2771 394.08C70.5905 398.599 48.8346 399.182 38.4942 393.834C37.0274 393.069 34.3307 391.183 35.5788 387.311V387.32Z" fill="#F9F8F8"/>
<path d="M101.12 387.32C103.106 381.134 110.649 377.262 118.448 375.449C120.844 374.894 123.386 374.593 126.019 374.593C134.227 374.593 141.543 377.836 146.308 382.592C147.811 384.095 149.296 385.908 150.153 387.758C151.738 391.183 148.786 393.242 146.818 394.08C136.132 398.599 114.376 399.182 104.044 393.834C102.578 393.069 99.8808 391.183 101.129 387.311L101.12 387.32Z" fill="#F9F8F8"/>
<path d="M66.9464 363.086L52.9071 375.459C55.9318 377.171 59.7764 378.893 63.4662 380.059C69.7433 382.045 75.4465 382.956 80.7671 382.61L83.8828 366.922L66.9464 363.086Z" fill="#D1D1D1"/>
<path d="M119.077 363.086L133.025 375.513C130 377.226 126.247 378.893 122.557 380.068C116.28 382.055 109.502 382.811 104.19 382.465L102.149 366.94L119.086 363.105L119.077 363.086Z" fill="#D1D1D1"/>
<path d="M124.115 123.398C111.479 137.738 102.122 161.826 100.163 172.695C100.163 172.695 105.529 173.333 106.076 173.196C114.895 145.09 133.344 133.201 134.674 130.103C136.004 126.997 134.938 123.289 132.287 121.831C129.636 120.364 126.356 120.865 124.115 123.407V123.398Z" fill="#F9F8F8"/>
<path d="M35.9068 215.924C39.7333 180.011 71.9572 154 107.871 157.827L108.171 157.863C144.085 161.689 170.105 193.913 166.269 229.827C163.873 252.266 156.694 319.593 156.694 319.593C152.868 355.507 120.644 381.526 84.7301 377.691L84.4294 377.663C48.5158 373.837 22.4962 341.613 26.3317 305.699C26.3317 305.699 33.5108 238.373 35.9068 215.933V215.924Z" fill="#F9F8F8"/>
<g opacity="0.04">
<path d="M70.4539 352.427L70.7546 352.482C106.322 358.759 140.25 335.017 146.527 299.45C146.527 299.45 158.297 232.77 162.215 210.549C162.734 207.625 163.044 204.709 163.162 201.821C166.142 210.558 167.317 220.061 166.278 229.845C163.882 252.284 156.703 319.611 156.703 319.611C152.877 355.525 120.653 381.535 84.7392 377.709L84.4385 377.682C54.5834 374.502 31.5794 351.698 26.8601 323.474C36.3806 338.233 51.7865 349.147 70.4539 352.436V352.427Z" fill="#131213"/>
</g>
<path d="M145.761 214.786C144.577 228.606 121.546 237.926 94.3052 235.603C67.0648 233.28 45.9466 220.188 47.1218 206.358C48.3062 192.538 71.3376 183.218 98.578 185.541C125.818 187.864 146.946 200.965 145.761 214.786Z" fill="#3F3F3F"/>
<path d="M74.7359 201.229C74.3715 201.202 74.0344 201.102 73.7064 200.928C73.3875 200.764 73.1051 200.537 72.8682 200.263C72.6314 199.981 72.4583 199.671 72.3489 199.325C72.2396 198.979 72.2032 198.624 72.2305 198.259C72.2578 197.895 72.358 197.548 72.5311 197.23C72.6951 196.911 72.9229 196.628 73.1962 196.391C73.4786 196.155 73.7884 195.981 74.1346 195.872C74.4808 195.763 74.8361 195.726 75.2005 195.754C75.5649 195.781 75.902 195.881 76.23 196.054C76.5489 196.218 76.8313 196.446 77.0682 196.719C77.3051 197.002 77.4782 197.312 77.5875 197.658C77.6968 198.004 77.7333 198.359 77.7059 198.724C77.6786 199.088 77.5784 199.434 77.4053 199.753C77.2322 200.072 77.0135 200.354 76.7402 200.591C76.4578 200.828 76.148 201.001 75.8018 201.111C75.4556 201.22 75.1003 201.256 74.7359 201.229Z" fill="#6CC3CB"/>
<path d="M74.2256 207.242C73.8612 207.215 73.5241 207.115 73.1962 206.941C72.8773 206.777 72.5949 206.55 72.358 206.276C72.1211 205.994 71.948 205.684 71.8387 205.338C71.7294 204.992 71.6929 204.636 71.7202 204.272C71.7476 203.908 71.8478 203.561 72.0209 203.243C72.1849 202.924 72.4126 202.641 72.686 202.404C72.9684 202.167 73.2781 201.994 73.6243 201.885C73.9705 201.776 74.3259 201.739 74.6903 201.767C75.0547 201.794 75.3918 201.894 75.7198 202.067C76.0386 202.231 76.3211 202.459 76.5579 202.732C76.7948 203.015 76.9679 203.325 77.0772 203.671C77.1866 204.017 77.223 204.372 77.1957 204.737C77.1683 205.101 77.0681 205.438 76.895 205.766C76.7219 206.094 76.5033 206.367 76.2299 206.604C75.9475 206.841 75.6378 207.014 75.2916 207.124C74.9454 207.233 74.5901 207.269 74.2256 207.242Z" fill="#6CC3CB"/>
<path d="M68.2127 206.723C67.8483 206.695 67.5112 206.595 67.1832 206.422C66.8552 206.249 66.5819 206.03 66.345 205.757C66.1082 205.474 65.9351 205.165 65.8257 204.819C65.7164 204.472 65.68 204.117 65.7073 203.753C65.7346 203.388 65.8349 203.042 66.008 202.723C66.1811 202.404 66.3997 202.122 66.673 201.885C66.9554 201.648 67.2652 201.475 67.6114 201.366C67.9576 201.256 68.3129 201.22 68.6773 201.247C69.0418 201.275 69.3788 201.375 69.7068 201.548C70.0257 201.712 70.3081 201.94 70.545 202.213C70.7819 202.495 70.955 202.805 71.0643 203.151C71.1736 203.498 71.2101 203.853 71.1827 204.217C71.1554 204.582 71.0552 204.928 70.8821 205.247C70.7181 205.566 70.4903 205.848 70.217 206.085C69.9437 206.322 69.6248 206.495 69.2786 206.604C68.9324 206.714 68.5771 206.75 68.2127 206.723Z" fill="#6CC3CB"/>
<path d="M68.723 200.71C68.3585 200.682 68.0214 200.582 67.6935 200.409C67.3746 200.245 67.0922 200.017 66.8553 199.744C66.6184 199.462 66.4453 199.152 66.336 198.806C66.2267 198.459 66.1902 198.104 66.2176 197.74C66.2449 197.375 66.3451 197.029 66.5182 196.71C66.6913 196.391 66.91 196.109 67.1833 195.872C67.4657 195.635 67.7755 195.462 68.1217 195.353C68.4679 195.243 68.8232 195.207 69.1876 195.234C69.552 195.262 69.8891 195.362 70.2171 195.535C70.5359 195.699 70.8184 195.927 71.0552 196.2C71.2921 196.482 71.4652 196.792 71.5745 197.138C71.6839 197.485 71.7203 197.84 71.693 198.204C71.6656 198.569 71.5654 198.906 71.3923 199.234C71.2283 199.553 71.0006 199.835 70.7273 200.072C70.4448 200.309 70.1351 200.482 69.7889 200.591C69.4427 200.701 69.0874 200.737 68.723 200.71Z" fill="#6CC3CB"/>
<path d="M73.7155 213.255C73.3511 213.228 73.014 213.127 72.686 212.954C72.358 212.781 72.0847 212.562 71.8478 212.289C71.611 212.007 71.4379 211.697 71.3285 211.351C71.2192 211.005 71.1828 210.649 71.2101 210.285C71.2374 209.92 71.3377 209.574 71.5108 209.255C71.6747 208.936 71.9025 208.654 72.1758 208.417C72.4583 208.18 72.768 208.007 73.1142 207.898C73.4604 207.789 73.8157 207.752 74.1801 207.779C74.5446 207.807 74.8816 207.907 75.2096 208.08C75.5285 208.244 75.8109 208.472 76.0478 208.745C76.2847 209.028 76.4578 209.337 76.5671 209.684C76.6764 210.03 76.7129 210.385 76.6855 210.749C76.6582 211.114 76.558 211.46 76.3849 211.779C76.2118 212.098 75.9931 212.38 75.7198 212.617C75.4374 212.854 75.1276 213.027 74.7814 213.136C74.4352 213.246 74.0799 213.282 73.7155 213.255Z" fill="#6CC3CB"/>
<path d="M80.2386 207.752C79.8742 207.725 79.5371 207.625 79.2091 207.452C78.8902 207.288 78.6078 207.06 78.3709 206.786C78.1341 206.504 77.961 206.194 77.8516 205.848C77.7423 205.502 77.7059 205.147 77.7332 204.782C77.7605 204.418 77.8607 204.072 78.0338 203.753C78.1978 203.434 78.4256 203.151 78.6989 202.915C78.9813 202.678 79.2911 202.505 79.6373 202.395C79.9835 202.286 80.3388 202.249 80.7032 202.277C81.0676 202.304 81.4047 202.404 81.7327 202.577C82.0516 202.741 82.334 202.969 82.5709 203.242C82.8077 203.516 82.9808 203.835 83.0902 204.181C83.1995 204.527 83.2359 204.882 83.2086 205.247C83.1813 205.611 83.0811 205.948 82.908 206.276C82.744 206.595 82.5162 206.878 82.2429 207.114C81.9696 207.351 81.6507 207.524 81.3045 207.634C80.9583 207.743 80.603 207.78 80.2386 207.752Z" fill="#6CC3CB"/>
<path d="M79.7284 213.765C79.364 213.738 79.0269 213.638 78.699 213.464C78.3801 213.3 78.0977 213.073 77.8608 212.799C77.6239 212.517 77.4508 212.207 77.3415 211.861C77.2322 211.515 77.1957 211.16 77.2231 210.795C77.2504 210.431 77.3506 210.094 77.5237 209.766C77.6877 209.447 77.9155 209.164 78.1888 208.927C78.4712 208.691 78.7809 208.517 79.1271 208.408C79.4733 208.299 79.8287 208.262 80.1931 208.29C80.5575 208.317 80.8946 208.417 81.2226 208.59C81.5414 208.754 81.8239 208.982 82.0607 209.255C82.2976 209.538 82.4707 209.848 82.58 210.194C82.6894 210.54 82.7258 210.895 82.6985 211.26C82.6711 211.624 82.5709 211.961 82.3978 212.289C82.2247 212.617 82.0061 212.891 81.7328 213.127C81.4503 213.364 81.1406 213.537 80.7944 213.647C80.4482 213.756 80.0929 213.792 79.7284 213.765Z" fill="#6CC3CB"/>
<path d="M73.1962 219.268C72.8318 219.24 72.4947 219.14 72.1667 218.967C71.8387 218.794 71.5654 218.575 71.3286 218.302C71.0917 218.02 70.9186 217.71 70.8093 217.364C70.6999 217.018 70.6635 216.662 70.6908 216.298C70.7182 215.933 70.8184 215.596 70.9915 215.268C71.1555 214.949 71.3832 214.667 71.6565 214.43C71.939 214.193 72.2487 214.02 72.5949 213.911C72.9411 213.802 73.2964 213.765 73.6608 213.792C74.0253 213.82 74.3624 213.92 74.6903 214.093C75.0092 214.257 75.2916 214.485 75.5285 214.758C75.7654 215.041 75.9385 215.35 76.0478 215.696C76.1571 216.043 76.1936 216.398 76.1662 216.762C76.1389 217.127 76.0387 217.464 75.8656 217.792C75.7016 218.111 75.4738 218.393 75.2005 218.63C74.9181 218.867 74.6083 219.04 74.2621 219.149C73.9159 219.259 73.5606 219.295 73.1962 219.268Z" fill="#6CC3CB"/>
<path d="M67.1833 218.749C66.8189 218.721 66.4818 218.621 66.1538 218.448C65.8349 218.284 65.5525 218.056 65.3156 217.783C65.0788 217.5 64.9057 217.191 64.7963 216.844C64.687 216.498 64.6506 216.143 64.6779 215.778C64.7052 215.414 64.8054 215.068 64.9785 214.749C65.1425 214.43 65.3703 214.148 65.6436 213.911C65.926 213.674 66.2358 213.501 66.582 213.392C66.9282 213.282 67.2835 213.246 67.6479 213.273C68.0123 213.3 68.3494 213.401 68.6774 213.574C68.9963 213.738 69.2787 213.966 69.5156 214.239C69.7524 214.521 69.9255 214.831 70.0349 215.177C70.1442 215.523 70.1806 215.879 70.1533 216.243C70.126 216.608 70.0258 216.945 69.8527 217.273C69.6887 217.591 69.4609 217.874 69.1876 218.111C68.9052 218.348 68.5954 218.521 68.2492 218.63C67.903 218.739 67.5477 218.776 67.1833 218.749Z" fill="#6CC3CB"/>
<path d="M67.7026 212.736C67.3381 212.708 67.0011 212.608 66.6731 212.435C66.3451 212.262 66.0718 212.043 65.8349 211.77C65.598 211.487 65.4249 211.178 65.3156 210.831C65.2063 210.485 65.1698 210.13 65.1972 209.766C65.2245 209.401 65.3247 209.055 65.4978 208.736C65.6618 208.417 65.8896 208.135 66.1629 207.898C66.4362 207.661 66.7551 207.488 67.1013 207.379C67.4475 207.269 67.8028 207.233 68.1672 207.26C68.5316 207.287 68.8687 207.388 69.1967 207.561C69.5247 207.734 69.798 207.953 70.0349 208.226C70.2717 208.508 70.4448 208.818 70.5542 209.164C70.6635 209.51 70.6999 209.866 70.6726 210.23C70.6453 210.595 70.545 210.932 70.3719 211.26C70.1988 211.588 69.9802 211.861 69.7069 212.098C69.4244 212.335 69.1147 212.508 68.7685 212.617C68.4223 212.726 68.067 212.763 67.7026 212.736Z" fill="#6CC3CB"/>
<path d="M62.1998 206.213C61.8353 206.185 61.4982 206.085 61.1703 205.912C60.8514 205.748 60.569 205.52 60.3321 205.247C60.0952 204.973 59.9221 204.655 59.8128 204.308C59.7035 203.962 59.667 203.607 59.6944 203.242C59.7217 202.878 59.8219 202.541 59.995 202.213C60.159 201.894 60.3868 201.612 60.6601 201.375C60.9425 201.138 61.2523 200.965 61.5985 200.856C61.9447 200.746 62.3 200.71 62.6644 200.737C63.0288 200.764 63.3659 200.865 63.6939 201.038C64.0127 201.202 64.2952 201.429 64.532 201.703C64.7689 201.985 64.942 202.295 65.0513 202.641C65.1607 202.987 65.1971 203.343 65.1698 203.707C65.1424 204.072 65.0422 204.409 64.8691 204.737C64.7051 205.055 64.4774 205.338 64.2041 205.575C63.9216 205.812 63.6119 205.985 63.2657 206.094C62.9195 206.203 62.5642 206.24 62.1998 206.213Z" fill="#6CC3CB"/>
<path d="M61.6896 212.225C61.3252 212.198 60.9881 212.098 60.6601 211.925C60.3413 211.761 60.0588 211.533 59.822 211.26C59.5851 210.977 59.412 210.668 59.3027 210.321C59.1933 209.975 59.1569 209.62 59.1842 209.255C59.2116 208.891 59.3118 208.554 59.4849 208.226C59.6489 207.907 59.8766 207.625 60.15 207.388C60.4233 207.151 60.7421 206.978 61.0883 206.868C61.4345 206.759 61.7898 206.723 62.1543 206.75C62.5187 206.777 62.8558 206.878 63.1837 207.051C63.5026 207.215 63.785 207.442 64.0219 207.716C64.2588 207.998 64.4319 208.308 64.5412 208.654C64.6505 209 64.687 209.356 64.6597 209.72C64.6323 210.084 64.5321 210.422 64.359 210.75C64.195 211.068 63.9673 211.351 63.6939 211.588C63.4115 211.825 63.1018 211.998 62.7556 212.107C62.4094 212.216 62.054 212.253 61.6896 212.225Z" fill="#6CC3CB"/>
<path d="M140.559 194.861C152.066 203.99 153.997 220.735 144.859 232.241C135.731 243.757 118.995 245.679 107.479 236.55C95.9724 227.422 94.041 210.686 103.17 199.17C112.298 187.654 129.034 185.732 140.55 194.861H140.559Z" fill="#3F3F3F"/>
<path d="M125.973 207.26C125.536 207.224 125.126 207.105 124.743 206.905C124.361 206.704 124.024 206.44 123.741 206.103C123.459 205.766 123.249 205.393 123.122 204.983C122.985 204.564 122.94 204.144 122.976 203.707C123.012 203.27 123.131 202.86 123.331 202.468C123.532 202.076 123.796 201.748 124.133 201.466C124.47 201.184 124.844 200.974 125.254 200.846C125.673 200.71 126.092 200.664 126.529 200.701C126.966 200.737 127.376 200.856 127.759 201.056C128.151 201.256 128.479 201.521 128.761 201.858C129.044 202.195 129.253 202.568 129.381 202.978C129.508 203.388 129.563 203.816 129.526 204.254C129.49 204.691 129.372 205.101 129.171 205.493C128.971 205.885 128.707 206.213 128.369 206.495C128.032 206.777 127.659 206.987 127.249 207.114C126.83 207.251 126.411 207.297 125.973 207.26Z" fill="#6CC3CB"/>
<path d="M125.372 214.366C124.935 214.33 124.525 214.212 124.142 214.011C123.75 213.811 123.422 213.546 123.14 213.209C122.858 212.872 122.648 212.499 122.52 212.089C122.384 211.67 122.338 211.251 122.375 210.813C122.411 210.376 122.53 209.966 122.73 209.574C122.93 209.183 123.195 208.855 123.532 208.572C123.869 208.29 124.242 208.08 124.652 207.953C125.071 207.816 125.491 207.77 125.928 207.807C126.365 207.843 126.775 207.962 127.158 208.162C127.549 208.363 127.877 208.627 128.16 208.964C128.442 209.301 128.652 209.675 128.779 210.084C128.916 210.504 128.962 210.923 128.925 211.36C128.889 211.797 128.77 212.207 128.57 212.59C128.369 212.982 128.105 213.31 127.768 213.592C127.431 213.874 127.058 214.084 126.648 214.212C126.228 214.348 125.809 214.394 125.372 214.357V214.366Z" fill="#6CC3CB"/>
<path d="M118.266 213.756C117.829 213.72 117.419 213.601 117.036 213.401C116.644 213.2 116.316 212.936 116.034 212.599C115.751 212.262 115.542 211.888 115.414 211.478C115.278 211.059 115.232 210.64 115.269 210.203C115.305 209.766 115.423 209.356 115.624 208.964C115.824 208.572 116.088 208.244 116.426 207.962C116.763 207.679 117.136 207.47 117.546 207.342C117.965 207.206 118.384 207.16 118.822 207.196C119.259 207.233 119.669 207.351 120.052 207.552C120.443 207.752 120.771 208.016 121.054 208.354C121.336 208.691 121.546 209.064 121.673 209.474C121.81 209.893 121.855 210.312 121.819 210.75C121.783 211.187 121.664 211.597 121.464 211.98C121.263 212.362 120.999 212.699 120.662 212.982C120.325 213.264 119.951 213.474 119.541 213.601C119.122 213.738 118.703 213.783 118.266 213.747V213.756Z" fill="#6CC3CB"/>
<path d="M118.867 206.65C118.43 206.613 118.02 206.495 117.637 206.294C117.246 206.094 116.918 205.83 116.635 205.493C116.353 205.156 116.143 204.782 116.016 204.372C115.888 203.953 115.833 203.534 115.87 203.097C115.906 202.659 116.025 202.249 116.225 201.858C116.426 201.466 116.69 201.138 117.027 200.855C117.364 200.573 117.738 200.363 118.147 200.236C118.567 200.108 118.986 200.054 119.423 200.09C119.86 200.127 120.27 200.245 120.653 200.445C121.045 200.646 121.373 200.91 121.655 201.247C121.937 201.584 122.147 201.958 122.275 202.368C122.411 202.787 122.457 203.206 122.42 203.643C122.384 204.081 122.265 204.491 122.065 204.873C121.865 205.265 121.6 205.593 121.263 205.875C120.926 206.158 120.553 206.367 120.143 206.495C119.724 206.622 119.305 206.677 118.867 206.641V206.65Z" fill="#6CC3CB"/>
<path d="M124.716 222.019C124.279 221.983 123.869 221.864 123.486 221.664C123.094 221.464 122.766 221.199 122.484 220.862C122.202 220.525 121.992 220.152 121.864 219.742C121.728 219.323 121.682 218.904 121.719 218.466C121.755 218.029 121.874 217.619 122.074 217.236C122.274 216.845 122.539 216.517 122.876 216.234C123.213 215.952 123.586 215.742 123.996 215.615C124.415 215.478 124.835 215.432 125.272 215.469C125.709 215.505 126.119 215.624 126.502 215.824C126.893 216.025 127.221 216.289 127.504 216.626C127.786 216.963 127.996 217.336 128.123 217.746C128.26 218.166 128.306 218.585 128.269 219.022C128.233 219.459 128.114 219.869 127.914 220.261C127.713 220.653 127.449 220.981 127.112 221.263C126.775 221.546 126.402 221.755 125.992 221.883C125.572 222.019 125.153 222.065 124.716 222.028V222.019Z" fill="#6CC3CB"/>
<path d="M132.478 214.968C132.041 214.931 131.631 214.813 131.248 214.612C130.866 214.412 130.529 214.148 130.246 213.811C129.964 213.474 129.754 213.1 129.627 212.69C129.499 212.271 129.444 211.852 129.481 211.415C129.517 210.977 129.636 210.567 129.836 210.176C130.037 209.784 130.301 209.456 130.638 209.173C130.975 208.891 131.349 208.691 131.759 208.554C132.178 208.417 132.597 208.372 133.034 208.408C133.471 208.445 133.881 208.563 134.264 208.763C134.647 208.964 134.984 209.228 135.266 209.565C135.549 209.902 135.758 210.276 135.886 210.686C136.013 211.105 136.068 211.524 136.031 211.961C135.995 212.399 135.877 212.809 135.676 213.2C135.476 213.592 135.211 213.92 134.874 214.202C134.537 214.485 134.164 214.694 133.754 214.822C133.335 214.95 132.916 215.004 132.478 214.968Z" fill="#6CC3CB"/>
<path d="M131.822 222.621C131.385 222.584 130.975 222.466 130.592 222.265C130.201 222.065 129.873 221.801 129.59 221.464C129.308 221.126 129.098 220.753 128.971 220.343C128.843 219.924 128.788 219.505 128.825 219.067C128.861 218.63 128.98 218.22 129.18 217.828C129.381 217.437 129.645 217.109 129.982 216.826C130.319 216.544 130.693 216.334 131.103 216.207C131.522 216.079 131.941 216.025 132.378 216.061C132.815 216.097 133.225 216.216 133.608 216.416C134 216.617 134.328 216.881 134.61 217.218C134.893 217.555 135.102 217.929 135.23 218.339C135.357 218.758 135.412 219.177 135.375 219.614C135.339 220.051 135.221 220.461 135.02 220.844C134.82 221.236 134.555 221.564 134.218 221.846C133.881 222.129 133.508 222.338 133.098 222.466C132.679 222.593 132.26 222.648 131.822 222.611V222.621Z" fill="#6CC3CB"/>
<path d="M124.115 229.116C123.677 229.08 123.267 228.961 122.885 228.761C122.493 228.561 122.165 228.296 121.883 227.959C121.6 227.622 121.391 227.249 121.263 226.839C121.127 226.42 121.081 226.001 121.117 225.563C121.154 225.126 121.272 224.716 121.473 224.324C121.673 223.932 121.937 223.604 122.274 223.322C122.612 223.04 122.985 222.83 123.395 222.702C123.814 222.566 124.233 222.52 124.671 222.557C125.108 222.593 125.518 222.712 125.9 222.912C126.292 223.112 126.62 223.377 126.903 223.714C127.185 224.051 127.395 224.424 127.522 224.834C127.659 225.253 127.704 225.673 127.668 226.11C127.631 226.547 127.513 226.957 127.313 227.34C127.112 227.722 126.848 228.059 126.511 228.342C126.174 228.624 125.8 228.834 125.39 228.961C124.971 229.098 124.552 229.144 124.115 229.107V229.116Z" fill="#6CC3CB"/>
<path d="M117.009 228.515C116.571 228.479 116.161 228.36 115.779 228.16C115.387 227.959 115.059 227.695 114.776 227.358C114.494 227.021 114.285 226.647 114.157 226.237C114.029 225.827 113.975 225.399 114.011 224.962C114.048 224.525 114.166 224.115 114.367 223.723C114.567 223.331 114.831 223.003 115.168 222.721C115.505 222.438 115.879 222.229 116.289 222.101C116.708 221.965 117.127 221.919 117.564 221.955C118.002 221.992 118.412 222.11 118.794 222.311C119.186 222.511 119.514 222.775 119.796 223.112C120.079 223.45 120.288 223.823 120.416 224.233C120.553 224.652 120.598 225.071 120.562 225.509C120.525 225.946 120.407 226.356 120.206 226.748C120.006 227.139 119.742 227.467 119.405 227.75C119.068 228.032 118.694 228.242 118.284 228.369C117.865 228.506 117.446 228.551 117.009 228.515Z" fill="#6CC3CB"/>
<path d="M117.61 221.409C117.173 221.372 116.763 221.254 116.38 221.053C115.988 220.853 115.66 220.589 115.378 220.252C115.095 219.915 114.886 219.541 114.758 219.131C114.631 218.721 114.576 218.293 114.613 217.856C114.649 217.418 114.767 217.008 114.968 216.617C115.168 216.225 115.432 215.897 115.77 215.614C116.107 215.332 116.48 215.123 116.89 214.995C117.3 214.867 117.728 214.813 118.166 214.849C118.603 214.886 119.013 215.004 119.396 215.205C119.787 215.405 120.115 215.669 120.398 216.006C120.68 216.343 120.89 216.717 121.017 217.127C121.154 217.546 121.199 217.965 121.163 218.402C121.127 218.84 121.008 219.25 120.808 219.632C120.607 220.015 120.343 220.352 120.006 220.634C119.669 220.917 119.295 221.126 118.885 221.254C118.466 221.391 118.047 221.436 117.61 221.4V221.409Z" fill="#6CC3CB"/>
<path d="M111.16 213.146C110.722 213.109 110.312 212.991 109.93 212.79C109.547 212.59 109.21 212.326 108.928 211.989C108.645 211.652 108.436 211.278 108.308 210.868C108.181 210.458 108.126 210.03 108.162 209.593C108.199 209.155 108.317 208.745 108.518 208.363C108.718 207.98 108.982 207.643 109.319 207.36C109.656 207.078 110.03 206.869 110.44 206.741C110.859 206.613 111.278 206.559 111.715 206.595C112.153 206.632 112.563 206.75 112.945 206.95C113.337 207.151 113.665 207.415 113.948 207.752C114.23 208.089 114.439 208.463 114.567 208.873C114.695 209.292 114.749 209.711 114.713 210.148C114.676 210.586 114.558 210.996 114.357 211.387C114.157 211.779 113.893 212.107 113.556 212.389C113.219 212.672 112.845 212.881 112.435 213.009C112.016 213.137 111.597 213.191 111.16 213.155V213.146Z" fill="#6CC3CB"/>
<path d="M110.504 220.798C110.066 220.762 109.656 220.644 109.274 220.443C108.882 220.243 108.554 219.978 108.272 219.641C107.989 219.304 107.78 218.931 107.652 218.521C107.525 218.102 107.47 217.683 107.506 217.245C107.543 216.808 107.661 216.398 107.862 216.006C108.062 215.615 108.326 215.287 108.663 215.004C109 214.722 109.374 214.512 109.784 214.385C110.203 214.257 110.622 214.202 111.059 214.239C111.497 214.275 111.907 214.394 112.289 214.594C112.681 214.795 113.009 215.059 113.291 215.396C113.574 215.733 113.783 216.107 113.911 216.526C114.039 216.945 114.093 217.364 114.057 217.801C114.02 218.238 113.902 218.648 113.701 219.04C113.501 219.423 113.237 219.76 112.9 220.042C112.563 220.325 112.189 220.525 111.779 220.662C111.36 220.789 110.941 220.844 110.504 220.808V220.798Z" fill="#6CC3CB"/>
<path opacity="0.2" d="M140.559 194.861C152.066 203.99 153.997 220.735 144.859 232.241C135.731 243.757 118.995 245.679 107.479 236.55C95.9724 227.422 94.041 210.686 103.17 199.17C112.298 187.654 129.034 185.732 140.55 194.861H140.559Z" fill="#F9F8F8"/>
<path d="M105.466 200.628C97.2935 210.923 99.0244 225.955 109.328 234.127C119.623 242.299 134.656 240.568 142.828 230.273C151 219.978 149.269 204.946 138.965 196.774C128.661 188.602 113.638 190.333 105.466 200.637V200.628ZM147.119 233.672C137.07 246.344 118.585 248.467 105.912 238.418C93.2393 228.369 91.1165 209.884 101.165 197.211C111.214 184.539 129.7 182.416 142.372 192.465C155.045 202.514 157.168 220.999 147.119 233.672Z" fill="#EA5951"/>
<path d="M150.235 226.347L187.761 256.12C191.032 258.716 191.514 263.463 188.909 266.743L188.818 266.861C186.221 270.132 181.484 270.751 178.213 268.155L140.687 238.382L150.235 226.347Z" fill="#EA5951"/>
<path d="M142.691 204.764C141.161 200.947 137.972 198.305 134.282 197.312L131.103 203.78C134.947 204.691 138.3 207.388 139.885 211.323C140.687 213.337 140.942 215.432 140.705 217.446C143.547 214.011 144.459 209.183 142.691 204.764Z" fill="#F9F8F8"/>
<path d="M171.562 237.58C170.879 238.036 165.322 249.433 170.305 252.339C175.289 255.245 184.873 246.153 184.873 246.153C184.873 246.153 175.48 234.993 171.562 237.58Z" fill="#E8E8E9"/>
</g>
<path d="M59.2085 157.951C79.9532 139.077 63.6158 120.973 43.206 126.374C42.3061 126.425 41.3995 126.346 40.5244 126.122C54.1609 106.987 77.1793 98.8352 102.149 102.385C137.732 107.441 166.001 137.662 160.539 176.061L59.2124 157.942L59.2085 157.951Z" fill="#FF0000"/>
<path d="M44.789 131.972C43.6407 140.046 36.1643 145.662 28.0903 144.514C20.0163 143.365 14.4004 135.889 15.5487 127.815C16.697 119.741 24.1734 114.125 32.2474 115.273C40.3214 116.422 45.9285 123.894 44.789 131.972Z" fill="white"/>
<path d="M54.7368 155.31C53.2725 160.718 56.464 166.29 61.8727 167.754C62.2029 167.845 62.5408 167.919 62.8776 167.971L155.15 193.428C162.113 195.159 169.158 190.919 170.889 183.956C172.62 176.993 168.38 169.949 161.417 168.218L67.7105 148.511C60.7436 146.789 56.0574 150.06 54.7368 155.31Z" fill="white"/>
<path d="M310.92 384.841C310.92 408.25 291.942 416.631 268.533 416.631C245.124 416.631 226.145 408.25 226.145 384.841L236.742 289.469C236.742 266.071 245.124 268.275 268.533 268.275C291.942 268.275 300.323 266.071 300.323 289.469L310.92 384.841Z" fill="#662113"/>
<path d="M410.583 324.412C336.803 261.206 306.923 170.711 268.533 170.711C230.143 170.711 200.263 261.218 126.483 324.412C95.4777 350.975 110.248 366.343 152.753 363.26C190.639 360.529 226.075 351.936 268.533 351.936C310.991 351.936 346.439 360.529 384.302 363.26C426.818 366.343 441.576 350.963 410.583 324.412Z" fill="#5C913B"/>
<path d="M386.623 299.362C329.922 247.374 298.061 172.915 268.533 172.915C239.028 172.915 207.155 247.374 150.455 299.362C105.395 340.671 209.5 349.944 268.533 299.362C327.543 349.955 431.671 340.671 386.623 299.362Z" fill="#3E721D"/>
<path d="M386.623 257.244C329.922 208.679 298.061 139.119 268.533 139.119C239.028 139.119 207.155 208.679 150.455 257.244C105.395 295.834 209.5 304.496 268.533 257.244C327.543 304.508 431.671 295.834 386.623 257.244Z" fill="#5C913B"/>
<path d="M360.717 222.757C316.465 184.836 291.591 130.527 268.533 130.527C245.499 130.527 220.613 184.824 176.349 222.757C141.183 252.884 222.441 259.647 268.533 222.757C314.601 259.636 395.895 252.884 360.717 222.757Z" fill="#3E721D"/>
<path d="M360.717 191.201C316.465 153.28 291.591 98.9824 268.533 98.9824C245.499 98.9824 220.613 153.28 176.349 191.201C141.183 221.339 222.441 228.091 268.533 191.201C314.601 228.091 395.895 221.339 360.717 191.201Z" fill="#5C913B"/>
<path d="M342.922 163.173C307.205 132.578 287.124 88.7489 268.521 88.7489C249.93 88.7489 229.85 132.578 194.12 163.173C165.729 187.497 231.327 192.948 268.521 163.173C305.728 192.948 371.325 187.497 342.922 163.173Z" fill="#3E721D"/>
<path d="M342.922 139.424C307.205 108.829 287.124 64.9998 268.521 64.9998C249.93 64.9998 229.85 108.829 194.12 139.424C165.729 163.748 231.327 169.199 268.521 139.424C305.728 169.199 371.325 163.748 342.922 139.424Z" fill="#5C913B"/>
<path d="M325.139 104.457C297.967 81.1764 282.693 47.8267 268.533 47.8267C254.372 47.8267 239.098 81.1764 211.915 104.457C190.311 122.966 240.224 127.116 268.533 104.457C296.83 127.116 346.755 122.966 325.139 104.457Z" fill="#3E721D"/>
<path d="M325.139 91.8084C297.967 68.5163 282.693 35.1666 268.533 35.1666C254.372 35.1666 239.098 68.5163 211.915 91.8084C190.311 110.318 240.224 114.467 268.533 91.8084C296.83 114.456 346.755 110.306 325.139 91.8084Z" fill="#5C913B"/>
<path d="M245.417 158.742C255.128 158.742 263 150.87 263 141.159C263 131.448 255.128 123.576 245.417 123.576C235.706 123.576 227.833 131.448 227.833 141.159C227.833 150.87 235.706 158.742 245.417 158.742Z" fill="#FFCC4D"/>
<path d="M286.444 316.5C299.392 316.5 309.889 306.004 309.889 293.056C309.889 280.108 299.392 269.611 286.444 269.611C273.496 269.611 263 280.108 263 293.056C263 306.004 273.496 316.5 286.444 316.5Z" fill="#FFCC4D"/>
<path d="M315.75 211C331.935 211 345.056 197.879 345.056 181.694C345.056 165.509 331.935 152.389 315.75 152.389C299.565 152.389 286.444 165.509 286.444 181.694C286.444 197.879 299.565 211 315.75 211Z" fill="#DD2E44"/>
<path d="M169.222 328.222C182.17 328.222 192.667 317.726 192.667 304.778C192.667 291.83 182.17 281.333 169.222 281.333C156.274 281.333 145.778 291.83 145.778 304.778C145.778 317.726 156.274 328.222 169.222 328.222Z" fill="#DD2E44"/>
<path d="M216.111 246.167C229.059 246.167 239.556 235.67 239.556 222.722C239.556 209.774 229.059 199.278 216.111 199.278C203.163 199.278 192.667 209.774 192.667 222.722C192.667 235.67 203.163 246.167 216.111 246.167Z" fill="#A6D388"/>
<path d="M356.778 293.056C369.726 293.056 380.222 282.559 380.222 269.611C380.222 256.663 369.726 246.167 356.778 246.167C343.83 246.167 333.333 256.663 333.333 269.611C333.333 282.559 343.83 293.056 356.778 293.056Z" fill="#A6D388"/>
<path d="M279.165 19.6816C280.841 22.9052 285.167 26.1171 288.742 26.8204L304.907 29.9737C308.482 30.677 309.326 33.3732 306.771 35.9755L295.248 47.7446C292.704 50.3469 290.969 55.4461 291.426 59.0565L293.419 75.3973C293.865 79.0195 291.555 80.6489 288.285 79.0312L273.55 71.7048C270.279 70.0872 264.899 70.0168 261.593 71.5524L246.659 78.5154C243.354 80.0393 241.079 78.3513 241.619 74.7409L244.022 58.447C244.549 54.8483 242.955 49.7139 240.482 47.0413L229.24 35.0025C226.755 32.3416 227.657 29.6455 231.256 29.0477L247.491 26.3047C251.09 25.7068 255.474 22.6004 257.244 19.412L265.227 5.00538C266.997 1.81694 269.846 1.8521 271.522 5.07571L279.165 19.6816Z" fill="#FFAC33"/>
<path d="M394.997 414.688H330.003C328.995 414.697 327.994 414.506 327.059 414.127C326.125 413.749 325.274 413.189 324.556 412.48C323.839 411.771 323.268 410.927 322.878 409.997C322.487 409.067 322.285 408.069 322.281 407.061V359.844L362.05 348.656L402.719 359.844V407.061C402.719 411.251 399.282 414.688 394.997 414.688Z" fill="#FCD53F"/>
<path d="M402.719 326.378C402.719 314.005 387.929 307.709 379.077 316.276L362.5 332.345L345.926 316.276C337.071 307.669 322.281 314.005 322.281 326.378C322.281 330.74 325.78 334.25 330.113 334.25L362.5 342.184L394.887 334.25C396.967 334.236 398.956 333.4 400.423 331.926C401.89 330.452 402.715 328.458 402.719 326.378Z" fill="#F8312F"/>
<path d="M405.139 334.25H319.857C317.162 334.25 314.969 336.444 314.969 339.157V354.937C314.969 357.65 317.162 359.844 319.861 359.844H405.139C407.838 359.844 410.031 357.65 410.031 354.937V339.157C410.031 336.444 407.838 334.25 405.139 334.25Z" fill="#FFB02E"/>
<path d="M362.518 315.969C356.449 315.969 351.531 320.978 351.531 327.157V414.688H373.469V327.157C373.505 320.978 368.591 315.969 362.518 315.969Z" fill="#CA0B4A"/>
<path d="M212.22 416H167.78C167.09 416.006 166.406 415.876 165.767 415.617C165.128 415.358 164.546 414.975 164.056 414.491C163.565 414.006 163.175 413.429 162.908 412.793C162.641 412.157 162.502 411.475 162.5 410.785V378.5L189.692 370.85L217.5 378.5V410.785C217.5 413.65 215.15 416 212.22 416Z" fill="#FCD53F"/>
<path d="M217.5 355.618C217.5 347.158 207.388 342.853 201.335 348.71L190 359.698L178.667 348.71C172.613 342.825 162.5 347.158 162.5 355.618C162.5 358.6 164.893 361 167.855 361L190 366.425L212.145 361C213.567 360.99 214.927 360.419 215.93 359.411C216.933 358.403 217.497 357.04 217.5 355.618Z" fill="#F8312F"/>
<path d="M219.155 361H160.842C159 361 157.5 362.5 157.5 364.355V375.145C157.5 377 159 378.5 160.845 378.5H219.155C221 378.5 222.5 377 222.5 375.145V364.355C222.5 362.5 221 361 219.155 361Z" fill="#FFB02E"/>
<path d="M190.012 348.5C185.862 348.5 182.5 351.925 182.5 356.15V416H197.5V356.15C197.525 351.925 194.165 348.5 190.012 348.5Z" fill="#CA0B4A"/>
<defs>
<clipPath id="clip0_3131_1353">
<rect width="189.991" height="276.659" fill="white" transform="translate(0.594482 121.011)"/>
</clipPath>
</defs>
</svg>
