<svg width="369" height="240" viewBox="0 0 369 240" fill="none" xmlns="http://www.w3.org/2000/svg">
<g clip-path="url(#clip0_2987_40914)">
<rect width="369" height="240" fill="#E8EDF6"/>
<circle cx="139.865" cy="139.865" r="139.865" transform="matrix(-0.952889 0.30332 0.30332 0.952889 50.5508 51)" fill="#D2DBEC"/>
<circle cx="58.9248" cy="58.9248" r="58.9248" transform="matrix(-0.952889 0.30332 0.30332 0.952889 317.297 178)" fill="#D2DBEC"/>
<circle cx="58.9248" cy="58.9248" r="58.9248" transform="matrix(-0.952889 0.30332 0.30332 0.952889 391.297 -74)" fill="#D2DBEC"/>
<path d="M205.906 177.477C207.432 177.005 208.156 175.887 207.983 175.337L202.192 158.814L219.281 159.459L184.285 108.397V170.238L197.424 160.199L202.963 176.816C203.152 177.414 204.395 177.933 205.906 177.477Z" fill="#D2DBEC"/>
<path d="M228.375 86.6035C223.954 79.3493 217.974 73.5901 210.437 69.3572C202.884 65.1243 194.402 63 184.992 63C175.582 63 167.101 65.1243 159.563 69.3572C152.01 73.5901 146.031 79.3493 141.625 86.6035C137.203 93.8733 135 101.961 135 110.915C135 119.869 137.203 127.925 141.625 135.132C146.031 142.339 152.01 148.051 159.563 152.3C165.464 155.62 171.994 157.54 179.044 158.248V133.401C177.14 132.882 175.299 132.174 173.584 131.135C170.153 129.042 167.463 126.226 165.48 122.685C163.513 119.145 162.522 115.227 162.522 110.931C162.522 106.635 163.513 102.544 165.48 99.0031C167.447 95.4626 170.153 92.6459 173.584 90.5531C177.014 88.4603 180.822 87.4217 184.992 87.4217C189.162 87.4217 192.97 88.4603 196.4 90.5531C199.831 92.6459 202.522 95.4626 204.504 99.0031C206.471 102.544 207.463 106.525 207.463 110.931C207.463 115.337 206.471 119.145 204.504 122.685C203.922 123.724 203.23 124.621 202.522 125.518L217.518 147.39C221.798 143.928 225.464 139.884 228.375 135.132C232.781 127.925 235 119.869 235 110.915C235 101.961 232.797 93.8733 228.375 86.6192V86.6035Z" fill="#D2DBEC"/>
</g>
<defs>
<clipPath id="clip0_2987_40914">
<rect width="369" height="240" fill="white"/>
</clipPath>
</defs>
</svg>
