<?xml version="1.0" encoding="utf-8"?>
<!-- Generator: Adobe Illustrator 24.1.3, SVG Export Plug-In . SVG Version: 6.00 Build 0)  -->
<svg version="1.1" id="Layer_1" xmlns="http://www.w3.org/2000/svg" xmlns:xlink="http://www.w3.org/1999/xlink" x="0px"
	 y="0px"
	 viewBox="0 0 500 500" style="enable-background:new 0 0 500 500;" xml:space="preserve">
<style type="text/css">
	.st0{opacity:0.1;fill:#010101;}
	.st1{fill:#78574E;}
	.st2{fill:#2C73B6;}
	.st3{fill:#79C2C5;}
	.st4{fill:#E0DFDF;}
	.st5{fill:#9A9D9F;}
	.st6{fill:#303030;}
	.st7{fill:#1F2842;}
	.st8{fill:#555656;}
	.st9{fill:#216296;}
	.st10{fill:#9C6E5D;}
	.st11{fill:#503A35;}
	.st12{fill:#FFFFFF;}
	.st13{fill:#010101;}
	.st14{fill:#BE2026;}
	.st15{fill:#4A494A;}
	.st16{fill:#373737;}
	.st17{fill:#F3AC89;}
	.st18{fill:#EF509C;}
	.st19{fill:#D84D96;}
	.st20{fill:#DDD323;}
	.st21{opacity:0.07;fill:#2B2B2B;enable-background:new    ;}
	.st22{fill:#FCCFB3;}
	.st23{opacity:0.1;fill:#1E1E1E;enable-background:new    ;}
	.st24{fill:#F37135;}
	.st25{fill:#EBF7F8;}
	.st26{fill:#F2ECE0;}
	.st27{fill:#25556D;}
	.st28{fill:#C8C9C9;}
	.st29{fill:#6EB5B5;}
	.st30{fill:#6666AF;}
	.st31{fill:#F2C6AE;}
	.st32{fill:#2E73B6;}
	.st33{fill:#69BF66;}
	.st34{fill:#2971B8;}
	.st35{opacity:0.5;fill:#AF928B;}
	.st36{fill:#716154;}
	.st37{fill:#F7C054;}
	.st38{fill:#3E2F14;}
	.st39{fill:#FBD5BB;}
	.st40{fill:#BE602D;}
	.st41{fill:#A95128;}
	.st42{fill:#9F4B23;}
	.st43{fill:#151310;}
	.st44{fill:#121D10;}
	.st45{fill:#6AC0B8;}
	.st46{fill:#E2E2E2;}
	.st47{fill:#223C75;}
	.st48{fill:#EAEAEA;}
	.st49{fill:#F4F4F4;}
	.st50{fill:#404040;}
	.st51{fill:#71CCD8;}
	.st52{fill:#232323;}
	.st53{fill:#82B3DD;}
	.st54{fill:#E9BDA9;}
	.st55{fill:#BB6438;}
	.st56{fill:#A65531;}
	.st57{fill:#9B4D23;}
	.st58{fill:#ECBEA5;}
	.st59{fill:#FDD0B3;}
	.st60{fill:#444592;}
	.st61{fill:#E1B59F;}
	.st62{opacity:0.5;fill:#69BF66;}
	.st63{opacity:0.4;fill:#FFFFFF;}
	.st64{fill:#91695B;}
	.st65{fill:#FBE0CE;}
	.st66{fill:#FBDFCE;}
	.st67{fill:#CFCAC8;}
	.st68{fill:#545352;}
	.st69{fill:#8162AA;}
	.st70{fill:#886DB0;}
	.st71{fill:#2F3234;}
	.st72{fill:#DEEAF3;}
	.st73{fill:#2F78B8;}
	.st74{fill:#256999;}
	.st75{fill:#75AED9;}
	.st76{fill:#0099DA;}
	.st77{fill:#A6D05D;}
	.st78{opacity:0.1;fill:#2B2B2B;enable-background:new    ;}
</style>
	<g>
	<g>
		<g>
			<g>
				<rect x="243.55" y="358.37" class="st25" width="9.24" height="141.63"/>
			</g>
			<g>
				<polygon class="st25"
						 points="339.47,500 247.98,363.92 156.99,500 145.88,500 241.19,357.45 254.75,357.44 350.6,500 				"/>
			</g>
		</g>
		<g>
			<rect x="132.69" y="142.09" class="st26" width="232.04" height="211.93"/>
			<g>
				<rect x="132.69" y="131.77" class="st27" width="232.04" height="10.87"/>
				<rect x="124.54" y="127.42" class="st13" width="8.15" height="20.11"/>
				<rect x="364.73" y="127.42" class="st13" width="8.15" height="20.11"/>
			</g>
			<g>
				<rect x="132.69" y="352.94" class="st27" width="232.04" height="11.41"/>
				<rect x="124.54" y="349.14" class="st13" width="8.15" height="19.56"/>
				<rect x="364.73" y="349.14" class="st13" width="8.15" height="19.56"/>
			</g>
		</g>
	</g>
		<g>
		<path class="st28" d="M181.34,173.72c0,2.27-1.84,4.1-4.1,4.1h-22.77c-2.27,0-4.1-1.84-4.1-4.1l0,0c0-2.27,1.84-4.1,4.1-4.1h22.77
			C179.51,169.62,181.34,171.46,181.34,173.72L181.34,173.72z"/>
			<path class="st29" d="M193.95,184.84c0,2.27-1.84,4.1-4.1,4.1h-22.77c-2.27,0-4.1-1.84-4.1-4.1l0,0c0-2.27,1.84-4.1,4.1-4.1h22.77
			C192.11,180.74,193.95,182.58,193.95,184.84L193.95,184.84z"/>
			<path class="st12" d="M270.36,195.96c0,2.27-1.84,4.1-4.1,4.1h-81.02c-2.27,0-4.1-1.84-4.1-4.1l0,0c0-2.27,1.84-4.1,4.1-4.1h81.02
			C268.52,191.86,270.36,193.7,270.36,195.96L270.36,195.96z"/>
			<path class="st30" d="M312.72,207.09c0,2.27-1.84,4.1-4.1,4.1H185.23c-2.27,0-4.1-1.84-4.1-4.1l0,0c0-2.27,1.84-4.1,4.1-4.1
			h123.38C310.88,202.98,312.72,204.82,312.72,207.09L312.72,207.09z"/>
			<path class="st28" d="M344.49,218.21c0,2.27-1.84,4.1-4.1,4.1H185.23c-2.27,0-4.1-1.84-4.1-4.1l0,0c0-2.27,1.84-4.1,4.1-4.1
			h155.16C342.65,214.1,344.49,215.94,344.49,218.21L344.49,218.21z"/>
			<path class="st29" d="M220.43,229.33c0,2.27-1.84,4.1-4.1,4.1h-49.25c-2.27,0-4.1-1.84-4.1-4.1l0,0c0-2.27,1.84-4.1,4.1-4.1h49.25
			C218.59,225.22,220.43,227.06,220.43,229.33L220.43,229.33z"/>
			<g>
			<path class="st28" d="M212.11,240.45c0,2.27-1.84,4.1-4.1,4.1h-22.77c-2.27,0-4.1-1.84-4.1-4.1l0,0c0-2.27,1.84-4.1,4.1-4.1H208
				C210.27,236.34,212.11,238.18,212.11,240.45L212.11,240.45z"/>
				<path class="st12" d="M245.33,240.45c0,2.27-1.84,4.1-4.1,4.1h-22.77c-2.27,0-4.1-1.84-4.1-4.1l0,0c0-2.27,1.84-4.1,4.1-4.1
				h22.77C243.49,236.34,245.33,238.18,245.33,240.45L245.33,240.45z"/>
		</g>
			<path class="st30" d="M233.29,251.57c0,2.27-1.84,4.1-4.1,4.1h-43.95c-2.27,0-4.1-1.84-4.1-4.1l0,0c0-2.27,1.84-4.1,4.1-4.1h43.95
			C231.45,247.46,233.29,249.3,233.29,251.57L233.29,251.57z"/>
			<path class="st12" d="M254.47,262.69c0,2.27-1.84,4.1-4.1,4.1h-65.13c-2.27,0-4.1-1.84-4.1-4.1l0,0c0-2.27,1.84-4.1,4.1-4.1h65.13
			C252.63,258.58,254.47,260.42,254.47,262.69L254.47,262.69z"/>
			<path class="st28" d="M212.11,273.81c0,2.27-1.84,4.1-4.1,4.1h-22.77c-2.27,0-4.1-1.84-4.1-4.1l0,0c0-2.27,1.84-4.1,4.1-4.1H208
			C210.27,269.7,212.11,271.54,212.11,273.81L212.11,273.81z"/>
			<g>
			<path class="st29" d="M212.11,284.93c0,2.27-1.84,4.1-4.1,4.1h-22.77c-2.27,0-4.1-1.84-4.1-4.1l0,0c0-2.27,1.84-4.1,4.1-4.1H208
				C210.27,280.82,212.11,282.66,212.11,284.93L212.11,284.93z"/>
				<path class="st30" d="M316.82,284.93c0,2.27-1.84,4.1-4.1,4.1h-94.26c-2.27,0-4.1-1.84-4.1-4.1l0,0c0-2.27,1.84-4.1,4.1-4.1
				h94.26C314.98,280.82,316.82,282.66,316.82,284.93L316.82,284.93z"/>
				<path class="st12" d="M355.21,284.93c0,2.27-1.84,4.1-4.1,4.1h-28.07c-2.27,0-4.1-1.84-4.1-4.1l0,0c0-2.27,1.84-4.1,4.1-4.1
				h28.07C353.37,280.82,355.21,282.66,355.21,284.93L355.21,284.93z"/>
		</g>
			<path class="st28" d="M193.95,296.05c0,2.27-1.84,4.1-4.1,4.1h-22.77c-2.27,0-4.1-1.84-4.1-4.1l0,0c0-2.27,1.84-4.1,4.1-4.1h22.77
			C192.11,291.94,193.95,293.78,193.95,296.05L193.95,296.05z"/>
			<path class="st30" d="M212.11,307.17c0,2.27-1.84,4.1-4.1,4.1h-22.77c-2.27,0-4.1-1.84-4.1-4.1l0,0c0-2.27,1.84-4.1,4.1-4.1H208
			C210.27,303.07,212.11,304.9,212.11,307.17L212.11,307.17z"/>
			<path class="st28" d="M270.36,318.29c0,2.27-1.84,4.1-4.1,4.1h-81.02c-2.27,0-4.1-1.84-4.1-4.1l0,0c0-2.27,1.84-4.1,4.1-4.1h81.02
			C268.52,314.19,270.36,316.02,270.36,318.29L270.36,318.29z"/>
	</g>
</g>
	<g id="character_11_">
	<g>
		<path class="st31" d="M134.16,304.46c3.8,0,7.61-0.86,11.29-2.57c18.02-8.37,20.46-30.12,19.33-46.89
			c-1.11-16.48-5.67-31.11-5.87-31.72l-14.6,4.6c4.09,13.05,11.91,52.12-5.32,60.12c-3.04,1.41-5.84,1.52-8.83,0.36
			c-9.72-3.8-18.05-19.61-20.21-24.84l-14.16,5.82c1.11,2.69,11.3,26.44,28.79,33.28C127.73,303.84,130.95,304.46,134.16,304.46z"/>
		<g>
			<path class="st31" d="M139.4,221.65c0,6.45,5.23,11.67,11.67,11.67c6.45,0,11.67-5.23,11.67-11.67c0-6.45-5.23-11.67-11.67-11.67
				C144.63,209.98,139.4,215.2,139.4,221.65z"/>
		</g>
	</g>
		<g id="Body_10_">
		<g>
			<path class="st32" d="M20.82,363.74v25.96c0.72,4.65,4.82,9.83,8.31,12.56L29.54,500H47.9l-0.28-96.3l28.21,0.22l0.1,96.09h17.01
				V363.74H20.82z"/>
		</g>
	</g>
		<g>
		<g>
			<path class="st16" d="M57.95,218.18c-5.34,0-10.42,0.57-15.16,1.63C22.45,224.33,9.14,235-0.05,250
				c-0.05,0.09-0.1,0.18-0.16,0.26v21.97l17.42,5.86v109.46h82.22V278.09l21.07-8.63C118.59,245.93,95.08,218.18,57.95,218.18z"/>
		</g>
			<g>
			<g>
				<path class="st33" d="M27.77,363.62c5.4,4.74,7.61,8.37,6.86,9.23c-0.75,0.85-4.64-0.86-10.04-5.6
					c-3.75-3.29-6.86-9.22-6.86-9.22S23.96,360.28,27.77,363.62z"/>
			</g>
		</g>
			<g>
			<g>
				<path class="st31" d="M9.3,309.01c0.24-13.27,3.46-24.64,5.9-31.75l-15.38-5.12c-0.01,0.03-0.02,0.07-0.03,0.1v71.04
					c5.82,16.07,17.22,32.74,38.39,47.2l8.51-12.17C21.36,361,8.78,337.69,9.3,309.01z"/>
			</g>
				<polygon class="st34"
						 points="23.03,387.82 43.24,373.34 83.07,382.72 90.69,395.78 39.3,395.78 			"/>
				<path class="st16"
					  d="M41.21,374.1c0,0,13.18,20.03,35.64,19.84c20.09-0.17,22.62-6.41,22.62-6.41l-32.41-31.67L41.21,374.1z"/>
		</g>
	</g>
		<g>
		<path class="st31" d="M71.79,220.29c-2.11-0.5-3.32-0.66-5.93-1.03l-1.36-14.22l-15.11-0.55l-0.58,14.6
			c-3.1,0.31-4.77,0.57-7.25,1.18c-0.06,0.75,0,1.4,0.03,2.18c0.37,9.29,7.43,16.48,15.76,16.07c8.33-0.41,14.79-8.28,14.42-17.57
			C71.77,220.79,71.8,220.44,71.79,220.29z"/>
			<g>
			<g>
				<path class="st31" d="M103.68,170.62c-0.03,5.65-4.62,10.21-10.26,10.18c-5.64-0.02-10.19-4.63-10.16-10.28
					c0.03-5.65,4.62-10.21,10.26-10.18C99.16,160.37,103.71,164.97,103.68,170.62z"/>
				<path class="st31" d="M94.85,170.05c0.01,22.03-17.42,39.91-38.7,39.92l0,0c-21.28,0.01-38.74-17.84-38.76-39.87l0.46-10.86
					c-0.02-22.03,16.95-39.91,38.23-39.92l0,0c21.28-0.01,38.27,17.84,38.29,39.87L94.85,170.05z"/>
				<path class="st31" d="M28.19,172.22c-0.03,5.65-4.62,10.21-10.26,10.18c-5.64-0.03-10.19-4.63-10.16-10.28
					c0.03-5.65,4.62-10.21,10.26-10.18C23.67,161.97,28.22,166.57,28.19,172.22z"/>
				<path class="st35" d="M56.14,209.98c-21.28,0.01-38.74-17.84-38.76-39.87l0-1.82c0.01-0.26,0.01-0.53,0.01-0.79l4.23,0.28
					c0,0,0.93,19.99,14.89,19.68c4.92-0.11,11.4-6.64,19.94-6.77c8.94-0.13,14.64,6.39,19.84,6.38
					c13.96-0.02,14.28-20.25,14.28-20.25l4.21-0.32c0,0.33,0.02,0.67,0.06,1.01l0,2.55C94.86,192.09,77.42,209.96,56.14,209.98z"/>
				<path class="st36" d="M17.62,151.93c0.77-12.16,10.68-33.2,37.78-34.43c27,0.93,38.18,21.27,39.08,33.43
					c0.29,3.91,0.31,15.55,0.31,15.55l-4.21,0.32c0,0,1.59-35.83-19.97-29.64c-4.79,1.38-10.59,2.77-14.97,2.85
					c-4.71-0.01-9.49-0.78-14.29-2.1c-21.63-5.97-19.71,29.85-19.71,29.85l-4.24-0.28C17.39,167.49,17.37,155.85,17.62,151.93z"/>
			</g>
				<g>
				<path class="st12"
					  d="M74.36,189.26l-32.99-0.62c0,0,5.6,11.77,16.27,11.77C68.19,200.41,73.89,191.62,74.36,189.26z"/>
					<path class="st13" d="M70.62,176.28c0.67,2.42,3.07,3.88,5.36,3.25c2.29-0.63,3.61-3.11,2.94-5.54
					c-0.67-2.43-3.07-3.88-5.36-3.25C71.26,171.38,69.95,173.86,70.62,176.28z"/>
					<path class="st13" d="M35.12,176.28c0.67,2.42,3.07,3.88,5.36,3.25c2.29-0.63,3.61-3.11,2.94-5.54
					c-0.67-2.43-3.07-3.88-5.36-3.25C35.77,171.38,34.45,173.86,35.12,176.28z"/>
			</g>
				<path class="st16" d="M24.72,133.03l5.61,5.77c0,0,37.08,6.52,54.71,0.91c8.52-2.71,10.55-5.89,15.63-22.91
				c-19.91,7.13-21.07,8.65-21.07,8.65s9.85-10.24,18.53-14.05c-9.76-4.59-27.26-3.62-37.3,2.58c0.61-2.19,3.13-5.12,15.99-9.66
				c-11.37-0.52-40.2,0.43-44.1,16.35c0,0-3.93-1.59-0.32-7.15C26.18,115.68,17.99,121.81,24.72,133.03z"/>
		</g>
	</g>
</g>
	<g id="character_10_">
	<path class="st10" d="M367.71,408.79l14.83-1.44c-0.03-0.31-3.03-31.66-2.3-58.18c0.62-22.53,8.08-59.95,8.15-60.32l-14.61-2.93
		c-0.32,1.58-7.78,39.03-8.44,62.84C364.59,376.23,367.58,407.48,367.71,408.79z"/>
		<path class="st10" d="M490.01,408.79l-14.83-1.44c0.03-0.31,3.03-31.66,2.3-58.18c-0.62-22.53-8.08-59.95-8.15-60.32l14.61-2.93
		c0.32,1.58,7.78,39.03,8.44,62.84C493.13,376.23,490.14,407.48,490.01,408.79z"/>
		<g>
		<g>
			<g id="Character_4_">
				<g>
					<path class="st16" d="M448.02,94.43c-41.77-0.13-75.73,33.63-75.85,75.4c-0.13,41.77,33.63,75.73,75.4,75.85
						c20.5,0.06,39.1-8.05,52.76-21.25V115.68C486.78,102.59,468.36,94.49,448.02,94.43z"/>
				</g>
				<g>
					<g>
						<path class="st10" d="M387.73,187.78c-1.64,22.27,15.09,41.65,37.36,43.29l0,0c22.27,1.64,41.65-15.09,43.29-37.36l1.1-15.04
							c1.64-22.27-15.09-41.65-37.36-43.28l0,0c-22.27-1.63-41.65,15.09-43.28,37.36L387.73,187.78z"/>
						<path class="st10" d="M460.03,192.72c-0.44,5.99,4.05,11.2,10.02,11.64c5.98,0.44,11.18-4.06,11.62-10.05
							c0.44-5.99-4.05-11.2-10.02-11.64C465.67,182.23,460.47,186.73,460.03,192.72z"/>
					</g>
				</g>
				<g>
					<path class="st16" d="M449.52,139.26L438,155.47c-1.96-0.93-4.73-1.97-6.83-2.66l9.21-17.04
						C443.28,136.58,446.93,137.91,449.52,139.26z"/>
					<path class="st16" d="M459.91,146.91l-13.33,13.72c-1.67-1.18-5.22-3.43-7.07-4.41l12.99-15.24
						C454.92,142.57,457.9,144.88,459.91,146.91z"/>
					<path class="st16" d="M437.12,135.06l-7.57,17.27c-1.69-0.47-3.98-0.87-5.74-1.19c1.21-3.61,4.24-10.95,6.2-16.77
						C432.45,134.41,434.82,134.65,437.12,135.06z"/>
					<path class="st16" d="M426.93,134.39l-4.58,16.43c-0.17-0.02-0.34-0.06-0.51-0.08c-1.52-0.2-2.96-0.31-4.36-0.34
						c0.12-3.75-0.55-9.53-0.38-14.71C419.57,135.16,424.23,134.55,426.93,134.39z"/>
					<path class="st16" d="M467.45,157.72l-15.51,7.6c-1.36-1.39-2.82-2.7-4.37-3.92l15.13-11.35
						C464.45,152.24,466.23,155.22,467.45,157.72z"/>
					<path class="st16" d="M470.91,173.34c-0.02,8.4-2.91,16.15-7.78,22.49c0.12-1.18,0.19-2.38,0.2-3.59
						c0.02-6.06-1.76-12.33-4.39-17.46l11.97-1.6C470.91,173.23,470.91,173.28,470.91,173.34z"/>
					<path class="st16" d="M470.73,169.66l-12.68,3.56c-1.23-2.07-3.3-4.76-4.89-6.61l15.39-6.29
						C469.55,163.1,470.44,166.63,470.73,169.66z"/>
					<path class="st16"
						  d="M398.38,156.67c-2.79,2.34-5.97,5.73-8.36,8.84c0.53-5.27,2.73-11.12,5.07-15.15L398.38,156.67z"/>
					<path class="st16" d="M403.44,141.69l3.46,10.25c-2.34,0.87-5.11,2.26-7.09,3.67c-0.96-2.27-2.07-4.87-3.16-7.44
						C398.42,145.87,401.09,143.43,403.44,141.69z"/>
					<path class="st16" d="M414.01,136.54l1.96,13.85c-2.39,0.09-5.33,0.47-7.38,1.03c-0.68-3.23-1.58-7.5-2.41-11.49
						C408.58,138.55,411.2,137.41,414.01,136.54z"/>
					<path class="st10" d="M429.41,134.36c0.21,0,0.41,0.01,0.62,0.02c-1.96,5.82-5,13.16-6.2,16.77c-0.68-0.12-0.79-0.23-1.47-0.32
						l4.58-16.43C428.14,134.32,428.16,134.35,429.41,134.36z"/>
					<path class="st10" d="M417.1,135.69c-0.17,5.18,0.5,10.95,0.38,14.71c-0.76-0.02-0.78-0.04-1.51-0.01l-1.96-13.85
						C415.29,136.14,415.74,135.99,417.1,135.69z"/>
					<path class="st10" d="M406.18,139.93c0.83,3.99,1.73,8.26,2.41,11.49c-0.79,0.22-0.94,0.24-1.68,0.52l-3.46-10.25
						C404.49,140.91,405.02,140.6,406.18,139.93z"/>
					<path class="st10" d="M396.65,148.17c1.09,2.57,2.2,5.17,3.16,7.44c-0.73,0.52-0.75,0.48-1.43,1.06l-3.29-6.31
						C395.77,149.18,395.83,149.23,396.65,148.17z"/>
					<path class="st10" d="M440.38,135.76l-9.21,17.04c-0.77-0.25-0.82-0.26-1.61-0.48l7.57-17.27
						C438.53,135.31,439.03,135.39,440.38,135.76z"/>
					<path class="st10" d="M452.5,140.97l-12.99,15.24c-0.74-0.4-0.75-0.38-1.51-0.75l11.53-16.21
						C450.81,139.93,451.3,140.19,452.5,140.97z"/>
					<path class="st10" d="M462.71,150.06l-15.13,11.35c-0.67-0.53-0.65-0.54-1.35-1.04l13.68-13.45
						C460.9,147.91,461.84,148.96,462.71,150.06z"/>
					<path class="st10" d="M468.55,160.32l-15.39,6.29c-0.6-0.69-0.57-0.63-1.22-1.29l15.51-7.6
						C468.06,158.96,468.09,159.01,468.55,160.32z"/>
					<path class="st10" d="M470.91,173.17l-11.97,1.6c-0.37-0.72-0.47-0.85-0.88-1.55l12.68-3.56
						C470.85,170.81,470.91,171.99,470.91,173.17z"/>
				</g>
				<g>
					<path class="st13" d="M400.83,188.3c-1.11,2.43-3.87,3.56-6.17,2.51c-2.3-1.05-3.27-3.87-2.16-6.3
						c1.11-2.43,3.87-3.56,6.17-2.52C400.97,183.04,401.94,185.86,400.83,188.3z"/>
					<path class="st13" d="M438.09,194.21c-1.11,2.43-3.87,3.56-6.17,2.51c-2.3-1.05-3.27-3.87-2.16-6.3
						c1.11-2.43,3.87-3.56,6.17-2.52C438.22,188.96,439.19,191.78,438.09,194.21z"/>
				</g>
			</g>
			<g id="Black_man_3_">
				<g id="Body_9_">
					<g>
						<path class="st32" d="M462.64,375.47v23.26c-0.66,4.29-4.21,9.06-7.44,11.58l-0.15,89.7h-16.92l0.26-88.38l-26,0.2L406.34,500
							h-15.98l5.96-124.53H462.64z"/>
					</g>
				</g>
				<path class="st19" d="M390.18,296.76l-19.77-8.02c1.77-21.86,23.53-47.64,58.03-47.64c34.5,0,56.26,25.78,58.03,47.64
					l-19.85,8.02v92h-76.44V296.76z"/>
				<path class="st10" d="M414.62,242.59c1.95-0.46,3.06-0.61,5.46-0.95l1.26-13.11l13.92-0.51l0.53,13.46
					c2.86,0.29,4.4,0.53,6.68,1.08c0.06,0.7,0,1.29-0.03,2.01c-0.34,8.56-6.84,15.19-14.52,14.81c-7.68-0.38-13.63-7.63-13.29-16.19
					C414.64,243.06,414.62,242.73,414.62,242.59z"/>
			</g>
		</g>
			<path class="st12"
				  d="M397.68,203.36c0,4.85,5.21,11.48,10.73,12.66c6.09,1.3,15.54-0.86,18.41-7.53L397.68,203.36z"/>
	</g>
		<circle class="st10" cx="376.81" cy="407.91" r="11.38"/>
		<circle class="st10" cx="482.71" cy="407.91" r="9.79"/>
</g>
</svg>
