<?xml version="1.0" encoding="utf-8"?>
<!-- Generator: Adobe Illustrator 24.1.3, SVG Export Plug-In . SVG Version: 6.00 Build 0)  -->
<svg version="1.1" id="Layer_1" xmlns="http://www.w3.org/2000/svg" xmlns:xlink="http://www.w3.org/1999/xlink" x="0px"
     y="0px"
     viewBox="0 0 500 500" style="enable-background:new 0 0 500 500;" xml:space="preserve">
<style type="text/css">
	.st0{opacity:0.1;fill:#010101;}
	.st1{fill:#78574E;}
	.st2{fill:#2C73B6;}
	.st3{fill:#79C2C5;}
	.st4{fill:#E0DFDF;}
	.st5{fill:#9A9D9F;}
	.st6{fill:#303030;}
	.st7{fill:#1F2842;}
	.st8{fill:#555656;}
	.st9{fill:#216296;}
	.st10{fill:#9C6E5D;}
	.st11{fill:#503A35;}
	.st12{fill:#FFFFFF;}
	.st13{fill:#010101;}
	.st14{fill:#BE2026;}
	.st15{fill:#4A494A;}
	.st16{fill:#373737;}
	.st17{fill:#F3AC89;}
	.st18{fill:#EF509C;}
	.st19{fill:#D84D96;}
	.st20{fill:#DDD323;}
	.st21{opacity:0.07;fill:#2B2B2B;enable-background:new    ;}
	.st22{fill:#FCCFB3;}
	.st23{opacity:0.1;fill:#1E1E1E;enable-background:new    ;}
	.st24{fill:#F37135;}
	.st25{fill:#EBF7F8;}
	.st26{fill:#F2ECE0;}
	.st27{fill:#25556D;}
	.st28{fill:#C8C9C9;}
	.st29{fill:#6EB5B5;}
	.st30{fill:#6666AF;}
	.st31{fill:#F2C6AE;}
	.st32{fill:#2E73B6;}
	.st33{fill:#69BF66;}
	.st34{fill:#2971B8;}
	.st35{opacity:0.5;fill:#AF928B;}
	.st36{fill:#716154;}
	.st37{fill:#F7C054;}
	.st38{fill:#3E2F14;}
	.st39{fill:#FBD5BB;}
	.st40{fill:#BE602D;}
	.st41{fill:#A95128;}
	.st42{fill:#9F4B23;}
	.st43{fill:#151310;}
	.st44{fill:#121D10;}
	.st45{fill:#6AC0B8;}
	.st46{fill:#E2E2E2;}
	.st47{fill:#223C75;}
	.st48{fill:#EAEAEA;}
	.st49{fill:#F4F4F4;}
	.st50{fill:#404040;}
	.st51{fill:#71CCD8;}
	.st52{fill:#232323;}
	.st53{fill:#82B3DD;}
	.st54{fill:#E9BDA9;}
	.st55{fill:#BB6438;}
	.st56{fill:#A65531;}
	.st57{fill:#9B4D23;}
	.st58{fill:#ECBEA5;}
	.st59{fill:#FDD0B3;}
	.st60{fill:#444592;}
	.st61{fill:#E1B59F;}
	.st62{opacity:0.5;fill:#69BF66;}
	.st63{opacity:0.4;fill:#FFFFFF;}
	.st64{fill:#91695B;}
	.st65{fill:#FBE0CE;}
	.st66{fill:#FBDFCE;}
	.st67{fill:#CFCAC8;}
	.st68{fill:#545352;}
	.st69{fill:#8162AA;}
	.st70{fill:#886DB0;}
	.st71{fill:#2F3234;}
	.st72{fill:#DEEAF3;}
	.st73{fill:#2F78B8;}
	.st74{fill:#256999;}
	.st75{fill:#75AED9;}
	.st76{fill:#0099DA;}
	.st77{fill:#A6D05D;}
	.st78{opacity:0.1;fill:#2B2B2B;enable-background:new    ;}
</style>
    <g>
	<path class="st31" d="M407.11,306.8c0.97-3.19,25.28-78.46,28.04-118l-10.78-0.75c-2.64,37.83-31.51,113.57-31.75,114.34
		L407.11,306.8z"/>
        <g>
		<g>
			<g id="Character_2_">
				<g id="Body_1_">
					<g id="Body_3_">
						<g>
							<polygon class="st31"
                                     points="430.79,463.95 418.84,463.95 416.85,448.52 428.8,448.52 							"/>
                            <g>
								<rect x="396.94" y="477.39" class="st12" width="38.82" height="5.47"/>
                                <path class="st52"
                                      d="M416.35,462.68v-5.69c3.48,0.23,5.3,2.98,5.3,5.47l9.18,0.01l4.99,14.92h-38.88v-3.27L416.35,462.68z"
                                />
							</g>
                            <path class="st32" d="M431.29,330.44c0,0-4.52,46.88-4.53,62.51c-0.01,13.89,4.43,55.58,4.43,55.58h-15.84
								c0,0-4.48-41.81-4.48-55.74c0-15.54,4.48-62.17,4.48-62.17L431.29,330.44z"/>
                            <rect x="413.37" y="442.05" class="st53" width="19.91" height="7.47"/>
						</g>
                        <g>
							<rect x="451.19" y="448.52" class="st31" width="11.94" height="15.43"/>
                            <g>
								<rect x="429.29" y="477.39" class="st12" width="38.82" height="5.47"/>
                                <path class="st16"
                                      d="M448.7,462.68v-5.69c3.48,0.23,5.3,2.98,5.3,5.47l9.18,0.01l4.99,14.92h-38.88v-3.27L448.7,462.68z"/>
							</g>
                            <polygon class="st32"
                                     points="465.63,330.44 465.54,448.52 449.7,448.52 449.7,330.61 							"/>
                            <rect x="447.71" y="442.05" class="st53" width="19.91" height="7.47"/>
						</g>
                        <path class="st32"
                              d="M474.63,289.76v32.35c0,8.25-6.68,14.93-14.93,14.93h-6.97H414.9v-47.28H474.63z"/>
                        <path class="st16"
                              d="M411.87,246.95c0,0-0.07-71.58,33.5-84.53c35.02,0.92,34.19,55.78,34.19,55.78v101.91h-67.69V246.95z"/>
					</g>
                    <path class="st54" d="M398.04,112.21c0,5.88,4.77,10.65,10.65,10.65c5.88,0,10.65-4.77,10.65-10.65
						c0-5.88-4.77-10.65-10.65-10.65C402.81,101.56,398.04,106.33,398.04,112.21z"/>
                    <g id="Head_4_">
						<g>
							<polygon class="st31"
                                     points="437.01,165.95 438.27,149.83 452.22,149.33 453.71,163.35 							"/>
						</g>
					</g>
				</g>
                <g>
					<path class="st31" d="M448.91,335.28l-14.19-4.65c0.1-0.3,9.88-30.3,14.96-56.4c3.2-16.45,4.52-41.72,4.98-53.83
						c0.16-4.22,15.08-3.52,14.92,0.66c-0.48,12.54-1.83,38.45-5.25,56.03C459.07,304.12,449.32,334.02,448.91,335.28z"/>
				</g>
                <path class="st55"
                      d="M402.28,96.96c0,0-2.68-14.36,5.29-22.99c7.96-8.63,11.28,6.91,11.28,6.91L402.28,96.96z"/>
                <g>
					<path class="st31" d="M401.35,116.1c-0.85,22.36,16.6,41.18,38.96,42.02l0,0c22.36,0.84,41.18-16.6,42.02-38.96l0.57-15.1
						c0.34-9.02,1.83-21.68-2.9-28.6c-7-10.24-22.72-12.92-36.06-13.42l0,0c-22.36-0.84-41.18,16.6-42.02,38.96L401.35,116.1z"/>
                    <path class="st56" d="M480.19,73.53l-19.05,14.16c0,0-33.76-1.29-52.43-7.63c-9.02-3.07-10.68-8.69-10.68-21.59
						C412.09,73.21,473.98,23.73,480.19,73.53z"/>
				</g>
			</g>
            <path class="st55"
                  d="M461.15,88.06c0,0,16,18.62,14.43,35.98l2.99-0.99c0,0,23.06-29.06,1.94-49.07L461.15,88.06z"/>
            <g id="Head_1_">
				<g>
					<path class="st57" d="M432.06,121.83c0.01,0.51,0.44,0.92,0.97,0.91c0.52-0.01,0.94-0.43,0.93-0.95
						c-0.01-0.51-0.44-0.92-0.97-0.91C432.46,120.89,432.05,121.31,432.06,121.83z"/>
                    <path class="st57" d="M427.77,118.45c0.01,0.38,0.32,0.67,0.71,0.67c0.38-0.01,0.69-0.32,0.68-0.69
						c-0.01-0.37-0.32-0.67-0.71-0.66C428.06,117.76,427.76,118.07,427.77,118.45z"/>
                    <path class="st57" d="M423.64,121.99c0.01,0.51,0.44,0.92,0.97,0.91c0.52-0.01,0.94-0.43,0.93-0.95
						c-0.01-0.51-0.44-0.92-0.97-0.91C424.05,121.05,423.63,121.48,423.64,121.99z"/>
                    <path class="st57" d="M421.9,117.55c0.01,0.44,0.38,0.8,0.84,0.79c0.46-0.01,0.82-0.38,0.81-0.82
						c-0.01-0.44-0.38-0.8-0.84-0.79C422.26,116.73,421.9,117.1,421.9,117.55z"/>
                    <path class="st57" d="M417.4,120.28c0.01,0.53,0.45,0.94,0.99,0.93c0.54-0.01,0.97-0.45,0.96-0.97
						c-0.01-0.53-0.45-0.94-0.99-0.93C417.81,119.32,417.39,119.76,417.4,120.28z"/>
                    <path class="st57" d="M412.61,122.03c0.01,0.42,0.36,0.75,0.79,0.74c0.43-0.01,0.77-0.35,0.76-0.77
						c-0.01-0.42-0.36-0.75-0.79-0.74C412.94,121.27,412.6,121.61,412.61,122.03z"/>
                    <path class="st57" d="M436.86,125.25c0.01,0.45,0.39,0.81,0.85,0.8c0.46-0.01,0.83-0.38,0.82-0.84
						c-0.01-0.45-0.39-0.81-0.85-0.8C437.22,124.42,436.85,124.8,436.86,125.25z"/>
                    <path class="st57" d="M436.77,120.72c0.01,0.45,0.39,0.81,0.85,0.8c0.46-0.01,0.83-0.38,0.82-0.83
						c-0.01-0.45-0.39-0.81-0.85-0.8C437.13,119.9,436.76,120.27,436.77,120.72z"/>
                    <path class="st57" d="M442.2,125.14c0.01,0.45,0.39,0.81,0.85,0.8c0.46-0.01,0.83-0.38,0.82-0.84
						c-0.01-0.45-0.39-0.81-0.85-0.8C442.56,124.32,442.19,124.69,442.2,125.14z"/>
				</g>
                <g>
					<g>
						<path class="st13" d="M400.96,99.33c0.16,0,0.33,0.01,0.5,0.03l21.09,2.42l15.64,1.8l0.17,0.02l20.92,2.41
							c2.91,0.33,5.02,3.62,4.74,7.61c-0.02,0.34-2.01,9.79-3.01,12.36c-0.77,1.99-2.92,5.61-5.67,5.62c-0.12,0-0.25-0.01-0.37-0.02
							l-15.61-1.79c-5.33-0.62-6.62-15.66-6.86-19.23c-0.38-1.34-1.34-2.35-2.52-2.48c-0.09-0.01-0.19-0.02-0.28-0.02
							c-1.02,0-1.94,0.68-2.47,1.72c-0.64,3.06-3.86,17.53-9.09,17.55c-0.11,0-0.22-0.01-0.34-0.02l-15.6-1.8
							c-2.93-0.34-4.68-4.65-5.19-6.89c-0.63-2.76-1.25-12.51-1.29-13.13C395.97,101.99,398.27,99.34,400.96,99.33z M399.91,117.54
							c0.45,1.95,0.88,4.41,3.27,4.79l14.81,1.79c0.06,0.01,0.12,0.01,0.18,0.01c3.05-0.01,5.75-8.76,6.72-13.5
							c0.21-0.99-0.1-1.82-0.38-2.34c-0.56-1.02-1.54-1.73-2.53-1.85l-20.29-2.42c-0.09-0.01-0.18-0.02-0.27-0.02
							c-1.55,0.01-2.5,1.65-2.69,3.7C398.83,108.82,399.38,115.19,399.91,117.54L399.91,117.54z M434.55,111.65
							c0.31,4.98,1.87,14.59,4.99,14.94l14.81,1.79c0.17,0.04,0.33,0.05,0.48,0.05c1.78-0.01,2.54-1.82,3.19-3.49
							c0.85-2.19,2.05-9.07,2.31-10.14c0.1-2.18-0.34-3.98-2.05-4.18l-20.29-2.42c-0.1-0.01-0.2-0.02-0.3-0.02
							c-0.91,0-1.81,0.47-2.44,1.26C434.9,109.88,434.49,110.63,434.55,111.65L434.55,111.65z"/>
					</g>
                    <polygon class="st13"
                             points="463.83,110.9 476.34,107.48 474.99,111.25 462.85,119.11 					"/>
				</g>
                <path class="st13" d="M485.57,117.25h2.99c0-5.54-4.44-10.05-9.91-10.05c-1.87,0-3.68,0.53-5.26,1.53l1.6,2.52
					c1.09-0.7,2.36-1.06,3.65-1.06C482.46,110.19,485.57,113.35,485.57,117.25z"/>
			</g>
            <path class="st31" d="M473.49,121.56c0,5.88,4.77,10.65,10.65,10.65c5.88,0,10.65-4.77,10.65-10.65
				c0-5.88-4.77-10.65-10.65-10.65C478.26,110.9,473.49,115.67,473.49,121.56z"/>
            <g>
				<g>
					<path class="st13" d="M411.97,108.98c-0.25-0.09-0.51-0.15-0.78-0.18c-2.2-0.25-4,1.69-4.03,4.32
						c-0.02,2.31,1.33,4.39,3.15,5.03c0.25,0.09,0.52,0.15,0.78,0.18c2.19,0.25,4-1.68,4.02-4.31
						C415.15,111.7,413.79,109.62,411.97,108.98z"/>
				</g>
                <g>
					<path class="st13" d="M447.75,113.46c-0.25-0.09-0.51-0.15-0.78-0.18c-2.2-0.25-4,1.69-4.03,4.32
						c-0.02,2.31,1.33,4.39,3.15,5.03c0.25,0.09,0.52,0.15,0.78,0.18c2.19,0.25,4-1.68,4.02-4.31
						C450.92,116.18,449.57,114.1,447.75,113.46z"/>
				</g>
                <path class="st12"
                      d="M441.73,132.85l-29.64-2.79c0,0,3.76,9.53,11.06,11.28C433.08,143.71,441.09,135.14,441.73,132.85z"/>
			</g>
            <path class="st31" d="M453.71,163.35c0,0-9.34,12.08-21.61,8.79l6.9-8.79H453.71z"/>
		</g>
            <path class="st31" d="M454.86,326.8c0,5.65-4.92,10.24-10.98,10.24c-6.07,0-10.98-4.58-10.98-10.24c0-5.65,4.92-10.24,10.98-10.24
			C449.95,316.57,454.86,321.15,454.86,326.8z"/>
	</g>
</g>
    <g>
	<path class="st58" d="M290.87,294.18l-12.89-4.15c11.15-34.61,18.25-107.62,18.29-108.36l13.52,0.85
		C309.6,185.59,302.54,257.96,290.87,294.18z"/>
        <path class="st58" d="M293.85,293.95c0,5.65-4.92,10.24-10.98,10.24c-6.07,0-10.98-4.58-10.98-10.24c0-5.65,4.92-10.24,10.98-10.24
		C288.94,283.71,293.85,288.29,293.85,293.95z"/>
</g>
    <g>
	<path class="st59" d="M395.86,303.05c-0.88-3.21-23.59-79.1-25.26-118.71l15.12-0.64c1.6,37.88,24.52,114.56,24.74,115.33
		L395.86,303.05z"/>
        <path class="st59" d="M411.34,294.84c0.24,5.65-4.48,10.43-10.54,10.69c-6.06,0.26-11.17-4.12-11.41-9.76
		c-0.24-5.65,4.48-10.43,10.54-10.69C406,284.82,411.1,289.19,411.34,294.84z"/>
        <path class="st31" d="M394.92,304.97c-0.28,1.13-1.42,1.82-2.55,1.54l0,0c-1.13-0.28-1.82-1.42-1.54-2.55l1.33-5.39
		c0.28-1.13,1.42-1.82,2.55-1.54l0,0c1.13,0.28,1.82,1.42,1.54,2.55L394.92,304.97z"/>
        <path class="st31" d="M401.01,306.47c-0.28,1.13-1.42,1.82-2.55,1.54l0,0c-1.13-0.28-1.82-1.42-1.54-2.55l1.33-5.39
		c0.28-1.13,1.42-1.82,2.55-1.54l0,0c1.13,0.28,1.82,1.42,1.54,2.55L401.01,306.47z"/>
        <path class="st31" d="M407.04,306.51c-0.28,1.13-1.42,1.82-2.55,1.54l0,0c-1.13-0.28-1.82-1.42-1.54-2.55l1.33-5.39
		c0.28-1.13,1.42-1.82,2.55-1.54l0,0c1.13,0.28,1.82,1.42,1.54,2.55L407.04,306.51z"/>
</g>
    <g>
	<g id="Blonde_girl_1_">
		<g>
			<path class="st16" d="M363.31,55.46c-8.13-6.87-18.65-11.08-30.13-11.08h0c-8.51,0-16.49,2.34-23.37,6.32
				c-13.96,8.08-21.9,23.27-23.35,40.49c-1.38,16.36-8.9,55.16-13.5,86.23c-1.84,12.39,36.58,19.31,54.92,19.31
				c18.99,0,66.05-5.45,64.03-19.56c-4.56-31.92-12.01-71.2-12.01-85.97C379.9,76.88,373.46,64.03,363.31,55.46z"/>
		</g>
        <g>
			<g>
				<path class="st59" d="M372.76,101.3c0.36,21.65-16.91,39.49-38.56,39.85l0,0c-21.65,0.36-39.49-16.91-39.85-38.56l-0.24-14.62
					c-0.36-21.65,16.91-39.49,38.56-39.85l0,0c21.65-0.36,39.5,16.91,39.85,38.56L372.76,101.3z"/>
                <g>
					<path class="st12"
                          d="M353.46,116.54l-34-0.63c0,0,5.77,12.13,16.77,12.13C347.1,128.04,352.98,118.98,353.46,116.54z"/>
				</g>
			</g>
            <g>
				<path class="st16" d="M319.7,60.08c0,0,16.27,39.83,54.05,32.28c4.07-11.08,0.46-19.75-5.57-28.74
					c-4.24-6.34-30.78-29.58-53.04-13.43C312.56,52.06,318.13,59.32,319.7,60.08z"/>
                <path class="st16"
                      d="M323.07,61.04c0,0-34.36,18.62-24.4,72.08l-4.82-6.89c0,0-19.76-60.84,24.67-77L323.07,61.04z"/>
			</g>
            <path class="st59" d="M307.4,105.62c0.1,5.82-4.54,10.62-10.35,10.72c-5.81,0.1-10.6-4.55-10.69-10.37
				c-0.1-5.82,4.54-10.62,10.35-10.72C302.52,95.16,307.31,99.8,307.4,105.62z"/>
		</g>
	</g>
        <g id="Girl_1_">
		<g id="Body_5_">
			<g>
				<g>
					<rect x="312.05" y="428.24" class="st59" width="11.56" height="14.93"/>
                    <rect x="306.75" y="456.17" class="st12" width="21.19" height="5.3"/>
                    <path class="st16" d="M311.99,441.72h0.99c0-2.89,2.06-5.51,5.05-5.51c2.96,0,5.04,2.62,5.05,5.51h0.47l4.33,14.45h-21.19
						L311.99,441.72z"/>
				</g>
                <g>
					<rect x="352.99" y="428.24" class="st59" width="11.56" height="14.93"/>
                    <rect x="348.65" y="456.17" class="st12" width="21.19" height="5.3"/>
                    <path class="st16" d="M364.37,441.72h-0.99c0-2.89-2.06-5.51-5.05-5.51c-2.96,0-5.04,2.62-5.05,5.51h-0.47l-4.33,14.45h21.19
						L364.37,441.72z"/>
				</g>
			</g>
            <g>
				<path class="st32" d="M301.94,278.45v23c0.96,4.16,4.04,8.68,7.17,11.12l0.1,115.67h16.41l-0.25-114.38l25.22,0.14l0.09,114.24
					h15.81V278.45H301.94z"/>
                <rect x="349.14" y="421.01" class="st53" width="19.27" height="7.22"/>
                <rect x="308.2" y="421.01" class="st53" width="19.27" height="7.22"/>
                <path class="st60" d="M370.81,202.57l19.1-7.78c-1.72-21.2-22.85-46.2-56.31-46.2c-33.46,0-54.28,25-56,46.2l19.53,7.78v98.52
					h73.69V202.57z"/>
			</g>
		</g>
            <path class="st59" d="M346.96,150.03c-1.89-0.45-2.97-0.59-5.3-0.92l-1.22-12.71l-13.5-0.49l-0.51,13.05
			c-2.77,0.28-4.27,0.51-6.48,1.05c-0.06,0.67,0,1.25,0.03,1.95c0.33,8.3,6.64,14.73,14.08,14.36c7.45-0.37,13.22-7.4,12.89-15.7
			C346.95,150.49,346.97,150.17,346.96,150.03z"/>
	</g>
        <path class="st13" d="M323.79,101.98c0,1.06-0.86,1.93-1.93,1.93h-8.67c-1.06,0-1.93-0.86-1.93-1.93l0,0
		c0-1.06,0.86-1.93,1.93-1.93h8.67C322.92,100.06,323.79,100.92,323.79,101.98L323.79,101.98z"/>
        <path class="st13" d="M360.38,101.98c0,1.06-0.86,1.93-1.93,1.93h-8.67c-1.06,0-1.93-0.86-1.93-1.93l0,0
		c0-1.06,0.86-1.93,1.93-1.93h8.67C359.52,100.06,360.38,100.92,360.38,101.98L360.38,101.98z"/>
</g>
    <g id="character_2_">
	<g>
		<g>
			<g>
				<rect x="250.52" y="431.08" class="st31" width="11.21" height="14.33"/>
                <rect x="246.16" y="457.87" class="st12" width="36.13" height="4.98"/>
                <path class="st16"
                      d="M264.22,444.02v-5.32c-3.11,0.21-4.67,2.79-4.67,5.12l-8.44,0.05l-4.52,14h35.69v-3.15L264.22,444.02z"/>
			</g>
            <g>
				<rect x="206.29" y="431.08" class="st31" width="11.21" height="14.33"/>
                <rect x="201.3" y="457.87" class="st12" width="19.93" height="4.98"/>
                <g>
					<path class="st16" d="M206.57,443.54h0.96c0-2.49,1.99-5.32,4.88-5.32c2.86,0,4.87,2.83,4.88,5.32h0.46l4.19,14.33h-20.48
						L206.57,443.54z"/>
				</g>
			</g>
            <path class="st32" d="M195.7,285.93v22.23c1.25,4.02,4.48,8.58,7.5,10.94l0.67,111.97h15.86l-0.24-110.73l24.37,0.24l4.74,110.5
				h14.56l-4.65-145.14H195.7z"/>
            <rect x="246.78" y="423.6" class="st53" width="18.69" height="7.48"/>
            <rect x="202.55" y="423.6" class="st53" width="18.69" height="7.48"/>
		</g>
        <path class="st50" d="M191.34,211.68l-18.64-7.52c1.66-20.49,21.99-44.65,54.32-44.65c32.34,0,52.5,24.16,54.16,44.65l-18.83,7.52
			v95.44h-71.01V211.68z"/>
	</g>
        <g>
		<path class="st31" d="M264.22,261.27c3.98,0,7.8-1.08,11.15-3.27c7.24-4.73,10.63-13.54,8.63-22.44
			c-1.35-6.01-4.92-22.56-6.48-29.86l-13.92,5.6c1.66,7.74,4.71,21.83,5.98,27.49c0.64,2.86-0.24,5.47-2.29,6.82
			c-2.53,1.65-6.33,0.95-10.18-1.89c-11.84-8.71-52.52-36.12-78.93-22.98l6.58,13.24c14.09-7,42.09,5.83,63.59,21.65
			C253.4,259.38,258.95,261.27,264.22,261.27z"/>
            <path class="st61" d="M190.42,259.67c5.27,0,10.82-1.9,15.88-5.62c21.5-15.82,49.5-28.65,63.59-21.65l6.58-13.24
			c-26.42-13.14-67.1,14.27-78.93,22.98c-3.85,2.83-7.66,3.54-10.18,1.89c-2.06-1.34-2.94-3.96-2.29-6.82
			c1.23-5.47,3.92-18.01,5.6-25.86l-13.89-5.58c-1.55,7.24-4.78,22.16-6.14,28.2c-2,8.9,1.39,17.71,8.63,22.44
			C182.62,258.6,186.44,259.67,190.42,259.67z"/>
            <path class="st61" d="M271.1,234.75c-5.79,0-10.49-4.7-10.49-10.49s4.7-10.49,10.49-10.49c5.79,0,10.49,4.7,10.49,10.49
			S276.89,234.75,271.1,234.75"/>
            <path class="st31" d="M243.66,234.7v8.87H229.8c-7.81-4.36-16.04-7.58-22.89-9.6v-15.24C219.37,221.68,233.7,228.57,243.66,234.7z
			"/>
	</g>
        <path class="st31" d="M214.01,160.91c1.83-0.43,2.87-0.57,5.12-0.89l1.18-12.28l13.05-0.47l0.5,12.61c2.68,0.27,4.12,0.5,6.26,1.02
		c0.05,0.65,0,1.21-0.02,1.88c-0.32,8.02-6.41,14.23-13.61,13.88c-7.2-0.36-12.77-7.15-12.45-15.17
		C214.02,161.35,214,161.04,214.01,160.91z"/>
        <g>
		<g>
			<path class="st54" d="M270.86,108.66c0.57,5.63-3.52,10.65-9.14,11.22c-5.62,0.57-10.63-3.54-11.2-9.16
				c-0.57-5.63,3.52-10.65,9.14-11.22C265.28,98.93,270.29,103.04,270.86,108.66z"/>
            <path class="st31" d="M261.63,112.23c2.11,20.93-13.14,39.6-34.07,41.72l0,0c-20.93,2.11-39.6-13.14-41.72-34.07l-1.43-14.13
				c-0.85-8.44-3-20.23,1.03-27c5.96-10.02,20.55-13.46,33.04-14.72l0,0c20.93-2.11,39.61,13.14,41.72,34.07L261.63,112.23z"/>
            <path class="st31" d="M195.45,117.8c0.57,5.63-3.52,10.65-9.14,11.22c-5.61,0.56-10.63-3.54-11.19-9.17
				c-0.57-5.63,3.52-10.65,9.14-11.22C189.87,108.07,194.88,112.17,195.45,117.8z"/>
            <path class="st20" d="M188.24,113.97c0,0-1.24-0.58-2.24-1.32c0,0-6.51-10.88-5.45-19.41c0.29-3.76,2-8.69,4.45-13.63l10.69,7.13
				C192.59,92.75,188.25,100.46,188.24,113.97z"/>
            <path class="st20"
                  d="M246.07,76.26l7.01-3.89c0,0,8.62,9.14,7.69,27.23l-0.84,0.43C259.93,100.04,256.97,82.49,246.07,76.26z"/>
            <path class="st20" d="M185,79.24l10.74,7.07c0,0,37.65-1.62,53.68-10.92c7.75-4.49,9.69-6.64,9.05-25.6
				C249.56,68.54,178.17,33.4,185,79.24z"/>
		</g>
            <g>
			<path class="st13" d="M238.28,117.44c1,2.3,3.58,3.39,5.75,2.44c2.17-0.95,3.11-3.58,2.11-5.87c-1-2.3-3.58-3.39-5.75-2.44
				C238.22,112.51,237.28,115.14,238.28,117.44z"/>
                <path class="st13" d="M203.29,122.48c1,2.3,3.58,3.39,5.75,2.44c2.17-0.95,3.12-3.58,2.11-5.87c-1-2.3-3.58-3.39-5.75-2.44
				C203.23,117.55,202.29,120.18,203.29,122.48z"/>
		</g>
	</g>
        <path class="st12"
              d="M240.93,131.85c-1.42,4.74-6.34,8.69-11.59,9.35c-5.79,0.73-13.29-1.87-16.03-6.87L240.93,131.85z"/>
        <g>
		<path class="st62" d="M221.38,117.41c1.08,7.38-4.02,14.24-11.41,15.33c-7.38,1.08-14.24-4.02-15.33-11.41
			c-1.08-7.38,4.02-14.24,11.41-15.33C213.44,104.92,220.3,110.03,221.38,117.41z"/>
            <path class="st62" d="M254.16,112.6c1.08,7.38-4.02,14.24-11.41,15.33c-7.38,1.08-14.24-4.02-15.33-11.41
			c-1.08-7.38,4.02-14.24,11.4-15.33C246.21,100.11,253.07,105.22,254.16,112.6z"/>
            <path class="st16" d="M227.85,116.38c-0.9-1.11-2.29-1.71-3.72-1.61c-1.57,0.11-2.97,1.06-3.65,2.49l-1.46-0.7
			c0.93-1.95,2.85-3.25,5-3.4c1.95-0.14,3.85,0.68,5.09,2.2L227.85,116.38z"/>
            <path class="st63" d="M250.82,111.42c-0.44,0.07-0.86-0.24-0.92-0.68c-0.46-3.11-3.35-5.26-6.46-4.81
			c-0.44,0.07-0.85-0.24-0.92-0.68c-0.06-0.44,0.24-0.85,0.68-0.92c3.99-0.59,7.71,2.18,8.3,6.18
			C251.57,110.94,251.26,111.35,250.82,111.42z"/>
            <path class="st63" d="M217.11,116.36c-0.44,0.07-0.86-0.24-0.92-0.69c-0.46-3.11-3.35-5.26-6.46-4.81
			c-0.44,0.07-0.86-0.24-0.92-0.69c-0.07-0.44,0.24-0.85,0.68-0.92c3.99-0.59,7.71,2.18,8.3,6.18
			C217.86,115.89,217.55,116.3,217.11,116.36z"/>
	</g>
</g>
    <g>
	<path class="st64" d="M213.15,266.74l-7.31-10.11c-0.09,0.06-8.77,6.33-18.62,12.34c-17.05,10.41-22.3,10.78-23.07,10.76
		c-4.28-1.7-17.74-14.79-30.51-29.68c0,0-9.22,8.88-8.99,8.66c2.17,2.5,7.07,8.07,12.68,13.93c14.17,14.8,19.9,17.91,22.97,18.96
		c4.29,1.46,11.5,1.26,32.39-11.36C203.39,273.78,212.75,267.02,213.15,266.74"/>
        <path class="st64" d="M213.15,267.46c-5.79,0-10.49-4.7-10.49-10.49s4.7-10.49,10.49-10.49c5.79,0,10.49,4.7,10.49,10.49
		S218.94,267.46,213.15,267.46"/>
        <path class="st65" d="M11.15,329.61L11.15,329.61c8.87,13.66,22.58,23.44,38.38,27.38l0.42,0.1l0.14,0.03
		C44.03,340.79,28.56,329.86,11.15,329.61"/>
        <path class="st66" d="M103.67,323.56c-6.28,0-12.45,1.6-17.93,4.59c-6.38,3.49-11.81,8.89-15.33,15.88
		c-0.73,1.44-1.36,2.93-1.9,4.46l0.22-0.14c-0.37,1.1-0.7,2.18-1.05,3.37c-0.62,2.36-1.01,4.78-1.16,7.22c0,0.05-0.01,0.1-0.01,0.15
		c0.06,0,0.11,0,0.17,0c9.78-0.28,19.19-2.77,27.64-7.09c4.87-2.5,9.42-5.61,13.53-9.26l-4.08-7.07c0.08-0.04,6.75-3.91,14.58-9.07
		C113.58,324.54,108.59,323.56,103.67,323.56"/>
        <rect x="81.65" y="370.2" class="st67" width="9.97" height="40.29"/>
        <path class="st68" d="M120.64,363.49c0,5.62-4.56,10.18-10.18,10.18H62.37c-5.62,0-10.18-4.56-10.18-10.18
		c0-5.62,4.56-10.18,10.18-10.18h48.09C116.08,353.31,120.64,357.87,120.64,363.49"/>
        <rect x="78.88" y="403.13" class="st68" width="15.95" height="38.12"/>
        <polygon class="st67" points="79.04,424.32 29.44,435.3 29.44,441.32 79.04,434.94 	"/>
        <rect x="83.48" y="424.31" class="st67" width="6.47" height="17"/>
        <path class="st68" d="M37.59,450.35c0,3.62-2.93,6.55-6.55,6.55s-6.56-2.93-6.56-6.55c0-3.62,2.94-6.55,6.56-6.55
		S37.59,446.73,37.59,450.35"/>
        <polygon class="st67" points="94.66,424.32 144.26,435.3 144.26,441.32 94.66,434.94 	"/>
        <path class="st68" d="M136.11,450.35c0,3.62,2.93,6.55,6.55,6.55c3.62,0,6.56-2.93,6.56-6.55c0-3.62-2.94-6.55-6.56-6.55
		C139.04,443.8,136.11,446.73,136.11,450.35"/>
        <path class="st68" d="M93.27,450.35c0,3.62-2.93,6.55-6.55,6.55c-3.62,0-6.56-2.93-6.56-6.55c0-3.62,2.94-6.55,6.56-6.55
		C90.33,443.8,93.27,446.73,93.27,450.35"/>
        <path class="st69" d="M175.23,364.14H74.29c-7.51,0,15.24-20.59,15.16-28.1c-0.42-42.67-17.37-106.93-17.55-107.58
		c-0.91-3.47,1.16-7.02,4.62-7.94c3.47-0.92,7.02,1.15,7.94,4.62c0.04,0.17,4.43,16.42,8.81,38.26c5.9,29.47,8.99,53.86,9.17,72.5
		c0.08,8.4,6.89,15.23,15.16,15.23h57.62c3.59,0,6.5,2.91,6.5,6.5C181.72,361.23,178.82,364.14,175.23,364.14"/>
        <path class="st70" d="M95.95,351.14H38.33c-8.28,0-15.08-6.83-15.16-15.23c-0.18-18.64-3.27-43.04-9.17-72.5
		c-4.37-21.85-8.76-38.53-8.81-38.7c-0.69-2.61-2.67-4.43-5.19-4.78c-0.02,0.09,0.03,0.18,0,0.28c-0.07,0.27,0.04,35.78,0,36.06
		c4.87,22.78,9.93,54.99,10.17,79.77c0.07,7.51,3.02,14.55,8.28,19.84c5.3,5.32,12.36,8.26,19.88,8.26h57.62
		c3.59,0,6.5-2.91,6.5-6.5C102.45,354.05,99.54,351.14,95.95,351.14z"/>
        <rect x="80.33" y="372.37" class="st68" width="12.5" height="3.25"/>
        <path class="st71" d="M149.72,174.7c-7.2,35.22-41.58,57.94-76.8,50.74c-35.22-7.2-57.94-41.58-50.74-76.8
		c7.2-35.22,41.58-57.94,76.8-50.74C134.2,105.09,156.91,139.48,149.72,174.7"/>
        <path class="st64" d="M133.47,187.11c-2.52,19.06-20,32.46-39.06,29.95c-19.05-2.52-32.46-20-29.94-39.05l1.7-12.87
		c2.51-19.05,20-32.46,39.05-29.94c19.05,2.52,32.46,20,29.95,39.05L133.47,187.11z"/>
        <path class="st64" d="M71.67,178.63c-0.68,5.12-5.37,8.73-10.48,8.06c-5.11-0.67-8.71-5.38-8.03-10.5
		c0.68-5.12,5.37-8.73,10.48-8.05C68.75,168.8,72.35,173.5,71.67,178.63"/>
        <path class="st71"
              d="M89.87,135.42l6.88,15.67c1.82-0.44,4.33-0.83,6.22-1.05l-4.78-15.97C95.61,134.25,92.3,134.73,89.87,135.42"
        />
        <path class="st71"
              d="M79.78,140.05l8.84,13.89c1.62-0.7,5-1.98,6.73-2.49l-8.28-15.12C84.74,137.26,81.83,138.68,79.78,140.05"/>
        <path class="st71" d="M101.06,134.04l3.36,15.88c1.51-0.1,3.51-0.04,5.04,0c-0.39-3.25-1.66-9.97-2.3-15.22
		C105.11,134.31,103.07,134.1,101.06,134.04"/>
        <path class="st71" d="M109.76,135.26l0.99,14.65l0.45,0.02c1.31,0.1,2.55,0.26,3.73,0.47c0.56-3.18,2.13-7.93,2.9-12.33
		C115.83,137.2,112.01,135.87,109.76,135.26"/>
        <path class="st71"
              d="M71.53,147.84l11.74,9.12c1.39-0.93,2.85-1.78,4.37-2.54l-10.77-12.21C75.03,143.74,73,145.95,71.53,147.84"
        />
        <path class="st71" d="M65.89,160.39c-1.45,7.08-0.37,14.12,2.62,20.31c0.1-1.02,0.25-2.04,0.46-3.06
		c1.04-5.11,3.64-10.08,6.76-13.95l-9.81-3.44L65.89,160.39z"/>
        <path class="st71"
              d="M66.68,157.32l10.06,5.22c1.4-1.53,3.61-3.44,5.28-4.71l-11.87-7.99C68.83,152.01,67.46,154.83,66.68,157.32"
        />
        <path class="st71"
              d="M129.93,159.03c1.94,2.46,4.03,5.87,5.5,8.91c0.47-4.54-0.36-9.85-1.62-13.65L129.93,159.03z"/>
        <path class="st71" d="M128.28,145.52l-4.71,8.03c1.82,1.14,3.91,2.8,5.33,4.33c1.21-1.74,2.6-3.75,3.97-5.72
		C131.78,149.92,129.97,147.4,128.28,145.52"/>
        <path class="st71" d="M120.28,139.33l-4.07,11.33c2,0.5,4.41,1.33,6.04,2.16c1.14-2.6,2.64-6.04,4.04-9.26
		C124.5,141.97,122.5,140.56,120.28,139.33"/>
        <path class="st64" d="M107.68,134.8l-0.53-0.09c0.64,5.25,1.91,11.97,2.3,15.22c0.59,0.01,0.7-0.05,1.3-0.01l-0.99-14.65
		C108.76,134.99,108.74,135.01,107.68,134.8"/>
        <path class="st64" d="M117.82,138.08c-0.76,4.39-2.34,9.14-2.89,12.33c0.65,0.12,0.66,0.1,1.27,0.25l4.07-11.33
		C119.27,138.77,118.92,138.56,117.82,138.08"/>
        <path class="st64" d="M126.29,143.56c-1.4,3.22-2.9,6.66-4.04,9.26c0.63,0.32,0.75,0.37,1.33,0.73l4.71-8.04
		C127.53,144.67,127.15,144.32,126.29,143.56"/>
        <path class="st64" d="M132.87,152.16c-1.37,1.97-2.76,3.98-3.97,5.72c0.52,0.56,0.54,0.54,1.02,1.14l3.88-4.74
		C133.44,153.17,133.38,153.2,132.87,152.16"/>
        <path class="st64"
              d="M98.19,134.07l4.78,15.97c0.69-0.08,0.74-0.07,1.44-0.12l-3.36-15.88C99.83,134.01,99.4,133.98,98.19,134.07"
        />
        <path class="st64"
              d="M87.07,136.34l8.28,15.12c0.69-0.21,0.7-0.19,1.4-0.37l-6.88-15.67C88.67,135.75,88.21,135.89,87.07,136.34"
        />
        <path class="st64" d="M76.87,142.21l10.77,12.21c0.66-0.33,0.64-0.34,1.32-0.64l-9.18-13.73C78.77,140.72,77.8,141.44,76.87,142.21
		"/>
        <path class="st64"
              d="M70.15,149.83l11.87,7.99c0.62-0.48,0.59-0.43,1.25-0.87l-11.74-9.12C70.8,148.78,70.78,148.81,70.15,149.83"
        />
        <path class="st64"
              d="M65.92,160.25l9.81,3.44c0.44-0.54,0.54-0.64,1.01-1.15l-10.06-5.22C66.39,158.28,66.13,159.25,65.92,160.25"
        />
        <path class="st12"
              d="M126.07,190.18l-29.61,5.81c0,0,7.28,9.44,16.82,7.38C122.7,201.34,126.11,192.38,126.07,190.18"/>
        <path class="st13" d="M119.9,176.98c0.31,2.28,2.3,3.9,4.46,3.61c2.16-0.29,3.66-2.37,3.35-4.65c-0.31-2.28-2.3-3.9-4.46-3.61
		C121.09,172.61,119.6,174.7,119.9,176.98"/>
        <path class="st13" d="M87.73,181.14c0.31,2.28,2.3,3.9,4.46,3.61c2.16-0.29,3.66-2.37,3.35-4.65c-0.31-2.28-2.3-3.9-4.46-3.61
		C88.93,176.78,87.42,178.86,87.73,181.14"/>
        <path class="st72" d="M125.98,267.58l16.53-6.67c-1.47-18.18-19.51-39.61-48.2-39.61s-46.7,21.43-48.17,39.61l16.58,6.67v84.62
		h63.26V267.58z"/>
        <path class="st64" d="M105.85,222.54c-1.62-0.39-2.54-0.51-4.54-0.79l-1.04-10.9l-11.58-0.42l-0.44,11.19
		c-2.37,0.24-3.66,0.44-5.55,0.9c-0.05,0.58,0,1.07,0.02,1.67c0.28,7.12,5.69,12.63,12.07,12.31c6.38-0.32,11.33-6.34,11.05-13.46
		L105.85,222.54z"/>
        <path class="st73" d="M31.4,330.12c-9.64,5.4-7.44,21.37,12.67,27.78c26.64,8.48,50.05,18.1,56.11,18.96
		c6.07,0.87,11.92-8.29,20.15-8.29c8.23,0,51.1-7.49,48.43-29.58c-2.06-17.08-36.33-6.83-36.33-6.83l-34.99,8.73l-24.75-7.23
		C72.7,333.65,46.08,321.88,31.4,330.12"/>
        <path class="st74" d="M102.1,345.82c0,0,28.25-14.15,30.34-13.67c0,0-25.55,7.17-59.74,1.5L102.1,345.82z"/>

        <rect x="109.69" y="364.53" transform="matrix(0.3533 -0.9355 0.9355 0.3533 -273.1938 350.3084)" class="st64"
              width="14.2" height="16.47"/>

        <rect x="96.38" y="366.39" transform="matrix(0.3533 -0.9355 0.9355 0.3533 -277.3573 339.5175)" class="st75"
              width="21.01" height="7.95"/>

        <rect x="65.36" y="365.67" transform="matrix(0.9355 -0.3533 0.3533 0.9355 -126.967 50.0511)" class="st64"
              width="16.47" height="14.2"/>
        <path class="st73" d="M78.32,361.81l6.46,17.1l73.21-27.65c4.72-1.78,7.1-7.06,5.32-11.78c-1.79-4.72-7.06-7.1-11.78-5.32
		L78.32,361.81z"/>

        <rect x="79.53" y="358.62" transform="matrix(0.9355 -0.3534 0.3534 0.9355 -125.059 53.3281)" class="st75"
              width="7.95" height="21.01"/>

        <rect x="46.86" y="371.14" transform="matrix(0.9086 -0.4177 0.4177 0.9086 -155.7123 55.9862)" class="st12"
              width="6.41" height="25.26"/>
        <path class="st71" d="M71.56,381.1l-0.62-0.78c3.41-1.57,4.99-5.05,3.49-8.33c-1.49-3.25-5.21-4.32-8.62-2.76l-0.27-1.18
		l-17.84,2.9l10.55,22.95L71.56,381.1z"/>

        <rect x="127.26" y="380.56" transform="matrix(0.4177 -0.9086 0.9086 0.4177 -267.225 350.5854)" class="st12"
              width="25.26" height="6.41"/>
        <path class="st71" d="M118.4,381.1l0.62-0.78c-3.41-1.57-5-5.05-3.49-8.33c1.49-3.25,5.21-4.32,8.62-2.76l0.27-1.18l17.84,2.9
		l-10.55,22.95L118.4,381.1z"/>
        <path class="st64" d="M80.42,346.49c-1.16-0.66-28.48-16.28-40.56-28.26c-5.76-5.71-5.66-17.05,0.33-35.69
		c2.83-8.81,6.23-16.92,7.94-20.82l11.59,4.63c-1.49,3.4-4.76,11.1-7.45,19.38c-6.16,18.9-3.74,23.44-3.6,23.67
		c10.94,10.83,37.66,26.1,37.93,26.25L80.42,346.49z"/>
        <path class="st64" d="M82.92,353.86c-5.79,0-10.49-4.7-10.49-10.49c0-5.8,4.7-10.49,10.49-10.49c5.79,0,10.49,4.7,10.49,10.49
		C93.41,349.16,88.71,353.86,82.92,353.86"/>
</g>
</svg>
