<?xml version="1.0" encoding="utf-8"?>
<!-- Generator: Adobe Illustrator 24.1.3, SVG Export Plug-In . SVG Version: 6.00 Build 0)  -->
<svg version="1.1" id="Layer_1" xmlns="http://www.w3.org/2000/svg" xmlns:xlink="http://www.w3.org/1999/xlink" x="0px"
     y="0px"
     viewBox="0 0 500 500" style="enable-background:new 0 0 500 500;" xml:space="preserve">
<style type="text/css">
	.st0{opacity:0.1;fill:#010101;}
	.st1{fill:#78574E;}
	.st2{fill:#2C73B6;}
	.st3{fill:#79C2C5;}
	.st4{fill:#E0DFDF;}
	.st5{fill:#9A9D9F;}
	.st6{fill:#303030;}
	.st7{fill:#1F2842;}
	.st8{fill:#555656;}
	.st9{fill:#216296;}
	.st10{fill:#9C6E5D;}
	.st11{fill:#503A35;}
	.st12{fill:#FFFFFF;}
	.st13{fill:#010101;}
	.st14{fill:#BE2026;}
	.st15{fill:#4A494A;}
	.st16{fill:#373737;}
	.st17{fill:#F3AC89;}
	.st18{fill:#EF509C;}
	.st19{fill:#D84D96;}
	.st20{fill:#DDD323;}
	.st21{opacity:0.07;fill:#2B2B2B;enable-background:new    ;}
	.st22{fill:#FCCFB3;}
	.st23{opacity:0.1;fill:#1E1E1E;enable-background:new    ;}
	.st24{fill:#F37135;}
	.st25{fill:#EBF7F8;}
	.st26{fill:#F2ECE0;}
	.st27{fill:#25556D;}
	.st28{fill:#C8C9C9;}
	.st29{fill:#6EB5B5;}
	.st30{fill:#6666AF;}
	.st31{fill:#F2C6AE;}
	.st32{fill:#2E73B6;}
	.st33{fill:#69BF66;}
	.st34{fill:#2971B8;}
	.st35{opacity:0.5;fill:#AF928B;}
	.st36{fill:#716154;}
	.st37{fill:#F7C054;}
	.st38{fill:#3E2F14;}
	.st39{fill:#FBD5BB;}
	.st40{fill:#BE602D;}
	.st41{fill:#A95128;}
	.st42{fill:#9F4B23;}
	.st43{fill:#151310;}
	.st44{fill:#121D10;}
	.st45{fill:#6AC0B8;}
	.st46{fill:#E2E2E2;}
	.st47{fill:#223C75;}
	.st48{fill:#EAEAEA;}
	.st49{fill:#F4F4F4;}
	.st50{fill:#404040;}
	.st51{fill:#71CCD8;}
	.st52{fill:#232323;}
	.st53{fill:#82B3DD;}
	.st54{fill:#E9BDA9;}
	.st55{fill:#BB6438;}
	.st56{fill:#A65531;}
	.st57{fill:#9B4D23;}
	.st58{fill:#ECBEA5;}
	.st59{fill:#FDD0B3;}
	.st60{fill:#444592;}
	.st61{fill:#E1B59F;}
	.st62{opacity:0.5;fill:#69BF66;}
	.st63{opacity:0.4;fill:#FFFFFF;}
	.st64{fill:#91695B;}
	.st65{fill:#FBE0CE;}
	.st66{fill:#FBDFCE;}
	.st67{fill:#CFCAC8;}
	.st68{fill:#545352;}
	.st69{fill:#8162AA;}
	.st70{fill:#886DB0;}
	.st71{fill:#2F3234;}
	.st72{fill:#DEEAF3;}
	.st73{fill:#2F78B8;}
	.st74{fill:#256999;}
	.st75{fill:#75AED9;}
	.st76{fill:#0099DA;}
	.st77{fill:#A6D05D;}
	.st78{opacity:0.1;fill:#2B2B2B;enable-background:new    ;}
</style>
    <ellipse class="st0" cx="257.74" cy="487.73" rx="123.73" ry="12.27"/>
    <g id="Group_47_1_" transform="translate(-60.987 245.797) rotate(-9)">
	<g id="Body_2_" transform="translate(0 309.101)">
		<path id="Path_69_1_" class="st1" d="M296.68-135.1c6.74-55.8-7.08-94.2-19.86-116.59c-14.11-24.71-30.09-36.02-30.76-36.48
			L235.9-273.6l5.08-7.29l-5.11,7.26c0.14,0.1,13.9,10.01,26.02,31.62c11.19,19.96,23.25,54.33,17.16,104.77L296.68-135.1z"/>
        <g id="Group_35_1_" transform="translate(99.443 39.787)">
			<path class="st2"
                  d="M161.96-157.34c3.1-4.18,4.98-11.5,5.67-17.34l-7.99-28.93l-82.38,22.76l8.86,32.08L161.96-157.34z"/>
            <path id="Path_73_1_" class="st3" d="M45.38-275.42l-27.09-3.1c-5.23-27.4,12.63-66.33,54.92-78.01s77.49,12.6,87.06,38.79
				l-21.81,16.61l34.51,124.92l-93.08,25.71L45.38-275.42z"/>
		</g>
        <g id="Group_42_1_" transform="translate(10.124 26.187)">
			<g id="Group_36_1_" transform="translate(42.03 20.855)">
				<path id="Path_74_1_" class="st4" d="M31.58-336.07c-0.04,0.01-0.08,0.03-0.12,0.05c-0.18,0.14-0.22,0.39-0.08,0.57
					c0.01,0.01,0.02,0.02,0.03,0.04c0.13,0.16,0.34,0.24,0.54,0.19c0.04-0.01,0.08-0.03,0.11-0.05c0.18-0.14,0.22-0.39,0.08-0.58
					c-0.01-0.01-0.02-0.02-0.03-0.03C31.98-336.05,31.78-336.12,31.58-336.07z"/>
			</g>
            <g id="Group_37_1_" transform="translate(41.72 20.528)">
				<path id="Path_75_1_" class="st5" d="M31.68-335.81c-0.23,0.18-0.28,0.51-0.1,0.75c0.01,0.02,0.02,0.03,0.04,0.04
					c0.16,0.21,0.43,0.31,0.7,0.25c0.05-0.01,0.1-0.04,0.14-0.07c0.23-0.17,0.28-0.5,0.11-0.73c-0.01-0.02-0.03-0.04-0.04-0.05
					c-0.16-0.21-0.44-0.31-0.7-0.25C31.77-335.86,31.73-335.84,31.68-335.81z M31.72-335.09c-0.15-0.16-0.15-0.42,0.02-0.58
					c0.01-0.01,0.02-0.02,0.04-0.03c0.04-0.02,0.07-0.04,0.12-0.05c0.2-0.05,0.41,0.03,0.53,0.19c0.16,0.17,0.15,0.43-0.02,0.58
					c-0.01,0.01-0.02,0.02-0.03,0.03c-0.03,0.02-0.07,0.04-0.11,0.05C32.06-334.85,31.85-334.92,31.72-335.09L31.72-335.09z"/>
			</g>
            <g id="Group_38_1_" transform="translate(49.624 16.012)">
				<path id="Path_76_1_" class="st6" d="M26.78-334.05c-0.47,0.36-0.56,1.03-0.2,1.5c0.02,0.03,0.05,0.06,0.07,0.09
					c0.33,0.43,0.88,0.62,1.4,0.5c0.1-0.03,0.2-0.07,0.29-0.13c0.47-0.36,0.56-1.03,0.2-1.5c-0.02-0.03-0.05-0.06-0.07-0.09
					c-0.33-0.43-0.87-0.62-1.39-0.5C26.97-334.16,26.87-334.11,26.78-334.05z M27.22-332.85c-0.15-0.16-0.15-0.42,0.01-0.57
					c0.01-0.01,0.02-0.02,0.03-0.03c0.03-0.02,0.07-0.04,0.11-0.05c0.2-0.05,0.41,0.03,0.53,0.19c0.15,0.16,0.14,0.42-0.02,0.57
					c-0.01,0.01-0.02,0.02-0.03,0.03c-0.03,0.02-0.07,0.04-0.11,0.05C27.55-332.61,27.34-332.69,27.22-332.85L27.22-332.85z"/>
			</g>
            <g id="Group_39_1_" transform="translate(51.326 17.789)">
				<path id="Path_77_1_" class="st7" d="M25.67-335.27c-0.04,0.01-0.08,0.03-0.11,0.05c-0.18,0.14-0.21,0.39-0.08,0.57
					c0.01,0.01,0.02,0.02,0.03,0.03c0.12,0.16,0.33,0.23,0.53,0.19c0.04-0.01,0.08-0.03,0.11-0.05c0.18-0.14,0.21-0.39,0.07-0.56
					c-0.01-0.01-0.02-0.02-0.03-0.03C26.08-335.25,25.87-335.32,25.67-335.27z"/>
			</g>
            <g id="Group_40_1_" transform="translate(48.198 14.513)">
				<path id="Path_78_1_" class="st8" d="M27.81-333.06c-0.76,0.51-0.85,1.59-0.2,2.4c0.5,0.65,1.33,0.94,2.13,0.76
					c0.15-0.04,0.3-0.11,0.43-0.2c0.76-0.51,0.85-1.59,0.2-2.41c-0.5-0.65-1.33-0.94-2.13-0.76
					C28.09-333.22,27.94-333.15,27.81-333.06z M28.08-330.97c-0.41-0.43-0.39-1.1,0.04-1.51c0.03-0.03,0.06-0.05,0.09-0.07
					c0.09-0.06,0.19-0.1,0.29-0.13c0.52-0.12,1.07,0.07,1.39,0.5c0.41,0.43,0.39,1.11-0.04,1.51c-0.03,0.03-0.06,0.05-0.09,0.07
					c-0.09,0.06-0.19,0.1-0.29,0.13C28.96-330.35,28.41-330.54,28.08-330.97L28.08-330.97z"/>
			</g>
            <g id="Group_41_1_" transform="translate(37.104 11.721)">
				<path id="Path_79_1_" class="st4" d="M34.99-328.77c-1.12,0.75-1.25,2.33-0.29,3.54c0.73,0.95,1.95,1.39,3.12,1.11
					c0.23-0.06,0.44-0.16,0.64-0.29l4.05-2.71c1.11-0.75,1.25-2.33,0.29-3.53c-0.73-0.95-1.95-1.39-3.12-1.12
					c-0.23,0.06-0.45,0.17-0.64,0.3L34.99-328.77z M38.7-327.86c-0.65-0.82-0.56-1.89,0.2-2.4c0.13-0.09,0.28-0.16,0.43-0.2
					c0.8-0.18,1.63,0.11,2.13,0.76c0.65,0.82,0.57,1.9-0.2,2.41c-0.13,0.09-0.28,0.16-0.43,0.2
					C40.03-326.92,39.2-327.22,38.7-327.86L38.7-327.86z M36.23-326.21c-0.2-0.21-0.19-0.55,0.02-0.75
					c0.01-0.01,0.03-0.03,0.04-0.04c0.04-0.03,0.09-0.05,0.14-0.06c0.26-0.06,0.54,0.04,0.7,0.25c0.2,0.21,0.2,0.54-0.01,0.74
					c-0.02,0.02-0.03,0.03-0.05,0.04c-0.04,0.03-0.09,0.05-0.14,0.07C36.67-325.9,36.4-326,36.23-326.21L36.23-326.21z M37.8-327.26
					c-0.07-0.07-0.07-0.19,0.01-0.27c0,0,0.01-0.01,0.01-0.01c0.02-0.01,0.03-0.02,0.05-0.02c0.09-0.02,0.19,0.01,0.24,0.09
					c0.07,0.07,0.07,0.19,0,0.26c-0.01,0.01-0.01,0.01-0.02,0.02c-0.02,0.01-0.03,0.02-0.05,0.03
					C37.95-327.15,37.86-327.18,37.8-327.26L37.8-327.26z"/>
			</g>
            <path id="Path_80_1_" class="st9" d="M58.75-312.46c0.01-0.02,0.08-0.09,0.1-0.11c0.05-0.05,0.1-0.1,0.16-0.15
				c0.02-0.01,0.03-0.03,0.04-0.04c0.04-0.03,0.08-0.06,0.12-0.09l18.84-12.54c0.17-0.11,0.35-0.19,0.54-0.25
				c0.21-0.06,0.43-0.08,0.66-0.08c0.14,0,0.29,0.02,0.43,0.05c0.12,0.02,0.24,0.05,0.35,0.09c0.11,0.04,0.22,0.08,0.33,0.13
				c0.23,0.11,0.45,0.24,0.65,0.4c0.13,0.1,0.24,0.21,0.36,0.32c0.07,0.08,0.15,0.16,0.22,0.25l31.49,39.69
				c0.78,0.98,0.86,2.19,0.27,2.96l-1.61,2.09c0.59-0.76,0.5-1.97-0.27-2.95l-31.5-39.69c-0.07-0.09-0.14-0.17-0.21-0.25
				c-0.11-0.12-0.23-0.22-0.36-0.32c-0.1-0.08-0.21-0.16-0.33-0.23c-0.1-0.06-0.21-0.12-0.32-0.17c-0.11-0.05-0.22-0.09-0.33-0.13
				c-0.11-0.04-0.23-0.07-0.35-0.09c-0.14-0.03-0.28-0.04-0.43-0.05c-0.22-0.01-0.44,0.02-0.66,0.08c-0.19,0.05-0.37,0.14-0.54,0.25
				l-18.85,12.54c-0.12,0.08-0.23,0.18-0.33,0.29c-0.03,0.03-0.06,0.07-0.09,0.1L58.75-312.46z"/>
            <path id="Path_81_1_" class="st2" d="M57.56-310.76c-1.01,0.67-1.08,2.16-0.15,3.34l31.49,39.69c0.78,0.98,2.01,1.42,2.98,1.15
				c0.19-0.05,0.37-0.13,0.53-0.24l18.85-12.54c1.01-0.67,1.07-2.17,0.14-3.34l-31.5-39.69c-0.68-0.93-1.85-1.38-2.98-1.15
				c-0.19,0.05-0.37,0.14-0.54,0.25L57.56-310.76z M71.81-313.51c-0.96-1.2-0.83-2.79,0.29-3.54l4.05-2.71
				c0.2-0.13,0.42-0.23,0.64-0.3c1.17-0.27,2.39,0.16,3.12,1.12c0.96,1.2,0.83,2.78-0.29,3.53l-4.05,2.71
				c-0.2,0.13-0.41,0.23-0.64,0.29C73.76-312.13,72.54-312.56,71.81-313.51L71.81-313.51z"/>
		</g>
        <path id="Path_82_1_" class="st1" d="M122.6-177.81c0.16-0.04,0.32-0.08,0.49-0.13c4.72-1.3,8.58-4.65,11.47-9.96
			c1.99-3.66,3.53-8.25,4.69-14.02c1.75-8.63,2.58-20.27,2.59-34.14l-18.26-2.06c0.15,30.97-4.18,39.52-5.56,41.45
			c-1.03-0.49-3.03-1.83-5.78-4.9c-3.47-3.87-7.14-9.4-10.33-15.59c-6.93-13.43-10.93-28.24-10.48-38.78c0.52-0.46,1.99-1.38,5-2.19
			c2.9-0.72,5.86-1.2,8.84-1.46c0.82-0.09,1.46-0.15,2.03-0.24l-3.04-18.85c-0.17,0.02-0.72,0.08-1.16,0.13
			c-3.23,0.33-9.25,0.95-14.96,3.02c-3.75,1.36-6.85,3.18-9.22,5.41c-3.46,3.19-5.53,7.61-5.76,12.31
			c-0.64,11.96,2.52,26.7,8.92,41.5c6.01,13.91,13.94,25.71,21.75,32.37C108.3-180.11,115.15-176.01,122.6-177.81z"/>
        <path id="Path_83_1_" class="st1" d="M156.14-310.21c2.07-1.12,4.2-2.13,6.37-3.01l-2.9-16.49l16.89-5.33l5.21,16.32
			c2.82-0.54,5.68-0.85,8.55-0.93c0.27,0.81,0.48,1.63,0.65,2.47c2.48,10.61-3.25,20.93-12.79,23.07
			c-9.54,2.13-19.29-4.74-21.77-15.34C156.32-309.65,156.17-310.04,156.14-310.21z"/>
	</g>
        <g>
		<g>
			<path class="st10" d="M215.84-76.6c1.71,6.85-2.45,13.79-9.29,15.49c-6.83,1.7-13.76-2.47-15.47-9.32
				c-1.71-6.85,2.45-13.78,9.29-15.49C207.21-87.63,214.14-83.45,215.84-76.6z"/>
            <path class="st10" d="M204.97-74.57c6.79,26.68-8.83,53.68-34.6,60.24l0,0c-25.77,6.56-52.4-9.69-59.19-36.37L108.4-64
				c-6.79-26.68,8.26-53.54,34.03-60.1l0,0c25.77-6.56,51.83,9.83,58.62,36.51L204.97-74.57z"/>
            <path class="st10" d="M124.92-51.46c1.7,6.85-2.45,13.78-9.29,15.49c-6.83,1.7-13.76-2.47-15.46-9.32
				c-1.71-6.85,2.45-13.78,9.29-15.49C116.29-62.48,123.21-58.31,124.92-51.46z"/>
            <path class="st1" d="M170.37-14.33c-25.77,6.56-52.4-9.69-59.19-36.37l-0.56-2.21c-0.07-0.32-0.14-0.64-0.23-0.96l5.21-0.97
				c0,0,7.28,23.93,24.08,19.26c5.93-1.65,11.77-11.55,22.07-14.32c10.78-2.9,19.7,3.23,25.99,1.63
				c16.89-4.32,11.06-28.92,11.06-28.92l5-1.69c0.1,0.4,0.23,0.8,0.38,1.21l0.79,3.09C211.76-47.9,196.14-20.89,170.37-14.33z"/>
            <path class="st11" d="M105.87-72.78c-2.8-14.97,2.72-43.49,35.16-53.3c32.98-7.17,52.78,14.02,57.6,28.47
				c1.55,4.65,5.15,18.74,5.15,18.74l-5,1.69c0,0-9.09-43.88-33.3-29.75c-5.38,3.14-11.97,6.61-17.25,8.05
				c-5.71,1.44-11.73,1.98-17.96,1.85c-28.02-0.58-14.69,42.21-14.69,42.21l-5.22,0.97C110.38-53.86,106.77-67.96,105.87-72.78z"/>
		</g>
            <g>
			<path class="st12"
                  d="M186.06-45.02l-40.14,9.4c0,0,10.4,12.53,23.32,9.25C182.02-29.61,186.22-42.01,186.06-45.02z"/>
                <path class="st13" d="M177.54-59.59c1.56,2.73,4.91,3.76,7.49,2.28c2.58-1.47,3.41-4.88,1.86-7.61
				c-1.56-2.73-4.91-3.76-7.49-2.29C176.81-65.72,175.98-62.32,177.54-59.59z"/>
                <path class="st13" d="M134.55-48.67c1.56,2.73,4.91,3.76,7.49,2.28c2.58-1.47,3.41-4.88,1.86-7.61
				c-1.56-2.73-4.91-3.76-7.49-2.29C133.83-54.81,133-51.41,134.55-48.67z"/>
		</g>
	</g>
</g>
    <g id="Beanie_1_" transform="translate(784.949 50.769) rotate(16)">
	<g id="Body-2_1_" transform="translate(101.357 210.046)">
		<g id="Group_21_1_" transform="translate(0 338.633)">
			<path id="Path_48_1_" class="st14" d="M-390.79-215.63l22.52-6.7c0.32-24.03-20.69-54.39-58.33-57.94s-64.1,22.32-68.28,45.98
				l20.76,10.79l-8.86,93.83l85.59-16.03L-390.79-215.63z"/>
		</g>
        <g id="Group_28_1_" transform="translate(333.231 324.792)">
			<g id="Group_22_1_" transform="translate(72.206 21.225)">
				<path id="Path_49_1_" class="st4" d="M-752.42-277.52c0.04,0,0.07,0.01,0.1,0.03c0.17,0.09,0.24,0.3,0.15,0.48
					c-0.01,0.01-0.01,0.02-0.02,0.03c-0.08,0.16-0.25,0.25-0.43,0.25c-0.04,0-0.07-0.01-0.1-0.03c-0.17-0.09-0.24-0.3-0.15-0.48
					c0.01-0.01,0.01-0.02,0.02-0.03C-752.77-277.43-752.6-277.53-752.42-277.52z"/>
			</g>
            <g id="Group_23_1_" transform="translate(71.881 20.891)">
				<path id="Path_50_1_" class="st5" d="M-751.93-277.26c0.23,0.12,0.31,0.4,0.2,0.62c-0.01,0.01-0.01,0.03-0.02,0.04
					c-0.11,0.21-0.32,0.33-0.55,0.32c-0.24-0.02-0.41-0.24-0.39-0.48c0.01-0.08,0.04-0.15,0.08-0.22c0.11-0.21,0.32-0.33,0.56-0.32
					C-752.02-277.29-751.97-277.28-751.93-277.26z M-751.86-276.65c0.11-0.16,0.06-0.38-0.1-0.49c-0.01-0.01-0.02-0.01-0.03-0.02
					c-0.03-0.01-0.07-0.02-0.1-0.03c-0.18-0.01-0.34,0.09-0.42,0.24c-0.11,0.16-0.06,0.38,0.1,0.49c0.01,0.01,0.02,0.01,0.03,0.02
					c0.03,0.02,0.07,0.02,0.1,0.03C-752.11-276.39-751.94-276.49-751.86-276.65L-751.86-276.65z"/>
			</g>
            <g id="Group_24_1_" transform="translate(61.044 16.295)">
				<path id="Path_51_1_" class="st6" d="M-744.06-274.56c0.45,0.23,0.63,0.79,0.4,1.24c-0.02,0.03-0.03,0.06-0.05,0.09
					c-0.21,0.41-0.65,0.66-1.11,0.63c-0.09-0.01-0.18-0.03-0.26-0.07c-0.45-0.23-0.63-0.79-0.4-1.24c0.01-0.03,0.03-0.06,0.05-0.08
					c0.21-0.41,0.65-0.66,1.11-0.63C-744.23-274.62-744.14-274.6-744.06-274.56z M-744.25-273.47c0.11-0.16,0.06-0.37-0.09-0.48
					c-0.01-0.01-0.02-0.01-0.04-0.02c-0.03-0.01-0.07-0.02-0.1-0.03c-0.18-0.01-0.34,0.08-0.42,0.24c-0.1,0.16-0.06,0.37,0.1,0.48
					c0.01,0.01,0.02,0.01,0.03,0.02c0.03,0.01,0.07,0.02,0.1,0.03C-744.49-273.22-744.33-273.32-744.25-273.47z"/>
			</g>
            <g id="Group_25_1_" transform="translate(62.776 18.104)">
				<path id="Path_52_1_" class="st7" d="M-746.21-275.81c0.04,0,0.07,0.01,0.1,0.03c0.17,0.09,0.24,0.3,0.15,0.47
					c-0.01,0.01-0.01,0.02-0.02,0.04c-0.08,0.16-0.24,0.25-0.42,0.24c-0.04,0-0.07-0.01-0.1-0.03c-0.17-0.09-0.24-0.3-0.15-0.47
					c0.01-0.01,0.01-0.02,0.02-0.03C-746.55-275.72-746.39-275.82-746.21-275.81z"/>
			</g>
            <g id="Group_26_1_" transform="translate(59.588 14.773)">
				<path id="Path_53_1_" class="st8" d="M-742.34-273.53c0.72,0.32,0.96,1.22,0.53,2.01c-0.33,0.62-0.99,1-1.69,0.96
					c-0.14-0.01-0.27-0.05-0.4-0.1c-0.72-0.32-0.96-1.22-0.53-2.01c0.33-0.62,0.99-1,1.69-0.96
					C-742.6-273.62-742.46-273.59-742.34-273.53z M-742.26-271.71c0.28-0.42,0.16-0.99-0.26-1.27c-0.03-0.02-0.06-0.03-0.09-0.05
					c-0.08-0.04-0.17-0.06-0.27-0.07c-0.46-0.03-0.9,0.22-1.11,0.63c-0.28,0.43-0.16,1,0.26,1.28c0.03,0.02,0.06,0.03,0.08,0.05
					c0.08,0.04,0.17,0.06,0.26,0.07C-742.91-271.06-742.47-271.3-742.26-271.71L-742.26-271.71z"/>
			</g>
            <g id="Group_27_1_" transform="translate(55.639 11.93)">
				<path id="Path_54_1_" class="st4" d="M-734.85-270c1.06,0.47,1.41,1.79,0.77,2.96c-0.48,0.92-1.45,1.47-2.48,1.41
					c-0.2-0.02-0.4-0.07-0.59-0.15l-3.85-1.69c-1.06-0.47-1.41-1.79-0.78-2.96c0.48-0.92,1.45-1.47,2.48-1.42
					c0.2,0.02,0.4,0.07,0.59,0.16L-734.85-270z M-737.86-268.68c0.43-0.79,0.19-1.69-0.53-2.01c-0.13-0.06-0.26-0.09-0.4-0.1
					c-0.7-0.04-1.36,0.34-1.69,0.96c-0.43,0.79-0.2,1.69,0.53,2.01c0.13,0.06,0.26,0.09,0.4,0.1
					C-738.85-267.67-738.19-268.05-737.86-268.68L-737.86-268.68z M-735.52-267.64c0.15-0.19,0.11-0.46-0.08-0.61
					c-0.06-0.05-0.14-0.08-0.22-0.09c-0.23-0.01-0.45,0.11-0.56,0.32c-0.14,0.19-0.1,0.47,0.09,0.61c0.06,0.05,0.14,0.08,0.22,0.08
					C-735.84-267.31-735.62-267.44-735.52-267.64L-735.52-267.64z M-737.01-268.3c0.05-0.07,0.03-0.17-0.04-0.22
					c0,0-0.01-0.01-0.01-0.01c-0.02-0.01-0.03-0.01-0.05-0.01c-0.08,0-0.16,0.04-0.19,0.11c-0.05,0.07-0.03,0.17,0.04,0.22
					c0.01,0,0.01,0.01,0.02,0.01c0.02,0.01,0.03,0.01,0.05,0.01C-737.12-268.18-737.04-268.23-737.01-268.3L-737.01-268.3z"/>
			</g>
            <path id="Path_55_1_" class="st15" d="M-667.2-256.18c-0.01-0.01-0.08-0.06-0.1-0.08c-0.05-0.04-0.1-0.07-0.16-0.1
				c-0.02-0.01-0.03-0.02-0.04-0.03c-0.04-0.02-0.08-0.04-0.12-0.06l-17.88-7.8c-0.16-0.07-0.32-0.11-0.49-0.13
				c-0.19-0.02-0.38-0.01-0.57,0.03c-0.12,0.02-0.24,0.06-0.36,0.1c-0.1,0.04-0.19,0.08-0.29,0.13c-0.09,0.05-0.18,0.1-0.26,0.16
				c-0.09,0.06-0.17,0.12-0.25,0.19c-0.09,0.08-0.17,0.16-0.24,0.24c-0.09,0.1-0.18,0.21-0.25,0.33c-0.05,0.08-0.1,0.16-0.15,0.24
				l-20.76,38.41c-0.51,0.95-0.4,1.99,0.21,2.55l1.68,1.53c-0.61-0.56-0.72-1.6-0.21-2.55l20.76-38.41
				c0.04-0.08,0.09-0.16,0.15-0.24c0.08-0.12,0.16-0.22,0.26-0.33c0.08-0.09,0.16-0.17,0.24-0.24c0.08-0.07,0.16-0.13,0.24-0.19
				c0.08-0.06,0.17-0.11,0.26-0.16c0.09-0.05,0.19-0.09,0.29-0.13c0.12-0.04,0.23-0.08,0.35-0.1c0.19-0.04,0.38-0.05,0.57-0.03
				c0.17,0.02,0.34,0.06,0.49,0.13l17.88,7.8c0.05,0.02,0.1,0.05,0.15,0.08c0.06,0.03,0.11,0.07,0.16,0.11
				c0.03,0.02,0.07,0.05,0.09,0.07L-667.2-256.18z"/>
            <path id="Path_56_1_" class="st16" d="M-665.93-254.92c0.96,0.42,1.24,1.68,0.63,2.81l-20.76,38.41
				c-0.52,0.95-1.49,1.51-2.35,1.42c-0.17-0.02-0.33-0.06-0.49-0.13l-17.89-7.8c-0.96-0.42-1.23-1.68-0.62-2.81l20.76-38.41
				c0.52-0.95,1.49-1.51,2.35-1.43c0.17,0.02,0.34,0.06,0.49,0.13L-665.93-254.92z M-678.43-255.11c0.63-1.17,0.29-2.49-0.77-2.96
				l-3.84-1.69c-0.19-0.08-0.39-0.13-0.59-0.16c-1.03-0.06-2,0.5-2.48,1.42c-0.63,1.16-0.28,2.49,0.78,2.96l3.85,1.69
				c0.19,0.08,0.39,0.13,0.59,0.15C-679.88-253.65-678.91-254.2-678.43-255.11L-678.43-255.11z"/>
		</g>
        <path id="Path_57_1_" class="st17" d="M-363.24,168.72c-0.14-0.01-0.29-0.02-0.43-0.03c-4.2-0.39-7.98-2.66-11.23-6.72
			c-2.24-2.81-4.23-6.47-6.09-11.19c-2.78-7.06-5.23-16.81-7.33-28.58l15.18-4.49c4.53,26.3,9.49,32.9,10.95,34.34
			c0.8-0.57,2.3-2.01,4.17-5.02c2.36-3.8,4.64-9.05,6.42-14.78c3.86-12.44,5.03-25.61,3.07-34.49c-0.51-0.31-1.9-0.87-4.57-1.11
			c-2.57-0.17-5.15-0.14-7.72,0.09c-0.71,0.05-1.27,0.09-1.76,0.1l-0.25-16.45c0.14-0.01,0.62-0.04,1-0.07
			c2.79-0.2,7.99-0.58,13.15,0.31c3.38,0.59,6.29,1.67,8.64,3.2c3.42,2.19,5.84,5.63,6.74,9.58c2.35,10.05,1.87,23.03-1.33,36.56
			c-3.01,12.7-7.96,23.91-13.59,30.73C-351.46,164.62-356.65,169.13-363.24,168.72z"/>
        <path id="Path_58_1_" class="st16" d="M-362.53,14.68c-1.09-18.44-5.88-67.81-49.81-75.15l0.01-0.11c0-0.01-0.42-0.06-0.67-0.09
			c-1-0.12-1.95-0.21-2.92-0.29c-0.97-0.11-1.92-0.2-2.92-0.26c-0.26-0.02-0.62-0.04-0.62-0.03l-0.01,0.1
			c-45.1-1.12-58.55,46.58-63.08,64.5c-4.49,19.93-4.17,45.56-4.17,45.56C-409.9,66-366.85,60.23-366.85,60.23
			S-361.84,35.1-362.53,14.68z"/>
	</g>
        <g id="Head_2_" transform="translate(107.093 108.713)">
		<g id="Group_29_1_" transform="translate(16.345 117.565)">
			<path id="Path_59_1_" class="st17" d="M-433.69,45.18c-1.92-0.64-3.88-1.17-5.86-1.6l-0.02-14.43l-15.13-1.99l-1.96,14.63
				c-2.48-0.03-4.95,0.13-7.4,0.49c-0.11,0.73-0.17,1.46-0.18,2.19c-0.51,9.37,5.9,17.27,14.32,17.65
				c8.41,0.38,15.65-6.92,16.16-16.29C-433.76,45.69-433.69,45.33-433.69,45.18z"/>
            <path id="Path_60_1_" class="st17" d="M-400.12-6.18c-1.9,24.39-23.21,42.63-47.61,40.73c0,0,0,0,0,0l0,0
				c-24.39-1.9-42.63-23.21-40.73-47.6c0,0,0,0,0,0l1.28-16.47c1.9-24.39,23.21-42.63,47.61-40.73l0,0
				c24.39,1.9,42.63,23.21,40.73,47.61c0,0,0,0,0,0L-400.12-6.18z"/>
            <path id="Path_61_1_" class="st17" d="M-475.71-12.78c-0.52,6.54-6.25,11.42-12.8,10.9c-6.54-0.52-11.42-6.25-10.9-12.8
				c0.52-6.53,6.24-11.41,12.77-10.9C-480.09-25.07-475.2-19.34-475.71-12.78C-475.71-12.78-475.71-12.78-475.71-12.78z"/>
            <path id="Path_62_1_" class="st16" d="M-479.94,31.28l-11.45,1.65c0,0,0.95-45.83,5.8-70.38c0,0,9.27-24.45,15.97-29.08
				c8.65-5.97,41.87-3.94,41.87-3.94S-468.55-59.01-479.94,31.28z"/>
            <path id="Path_63_1_" class="st16" d="M-435.12-62.55l44.11,76.31c0,0,6.43-27.53-5.89-48.77
				C-415.36-66.84-435.12-62.55-435.12-62.55z"/>
		</g>
            <g id="Group_30_1_">
			<path id="Path_64_1_" class="st18" d="M-480.82,84.71c-1.63-14.3,16.28-52.69,18.13-67.45c1.34-10.68,10.79-13.7,17.48-14.44
				c8.5-0.93,19.4,1.26,22.67,9.23c4.04,9.85,15.09,19.58,18.29,22.48c9.78,8.84,23.63,27.34,25.24,41.48L-480.82,84.71z"/>
                <path id="Path_65_1_" class="st19" d="M-370.73,83.73c0.05,0.92-0.87,1.59-1.82,1.64l-113.23,7.35
				c-0.96,0.05-1.94-0.52-1.99-1.44l2.77-20.54c-0.05-0.92,0.87-1.59,1.82-1.64l104.42-6.47c0.96-0.05,1.94,0.52,1.99,1.44
				L-370.73,83.73z"/>
		</g>
            <g id="Group_31_1_" transform="translate(125.145 280.798)">
			<path id="Path_66_1_" class="st12" d="M-527.07-152.97l-38.17-4.32c0,0,5.2,14.25,17.58,15.42
				C-535.44-140.71-527.87-150.28-527.07-152.97z"/>
                <path id="Path_67_1_" d="M-528.73-168.3c0.51,2.88,3.13,4.83,5.86,4.35c2.73-0.48,4.52-3.21,4.01-6.1
				c-0.51-2.88-3.13-4.84-5.86-4.35S-529.25-171.19-528.73-168.3z"/>
                <path id="Path_68_1_" d="M-569.88-172.19c0.51,2.88,3.13,4.83,5.86,4.35s4.52-3.21,4.01-6.1c-0.51-2.88-3.13-4.84-5.86-4.35
				S-570.4-175.08-569.88-172.19z"/>
		</g>
	</g>
</g>
    <g id="Body-3_1_" transform="translate(-18.365 -147.536)">
	<g id="Head-2_1_">
		<g id="Group_4_1_">
			<path id="Path_1_1_" class="st20" d="M340.41,223c-4.57-25.64-22.25-51.48-64.72-54.51v-0.15c-0.26-0.03-0.52-0.04-0.78-0.04
				c-1.43-0.04-2.68-0.04-4.07-0.02c-1.39-0.02-2.79-0.02-4.22,0.02c-0.36,0.01-0.95,0.03-0.95,0.04v0.15
				c-47.28,3.23-62.97,25.26-66.65,54.15c-4.13,32.5-4.23,157.96-4.02,171.95c4.25,21.79,14.24,24.39,27.79,37.87
				c13.42,13.36,30.4,21.34,48.82,21.34c17.98,0,34.56-7.59,47.82-20.37c12.68-12.21,22.29-29.17,27.25-48.77
				C346.95,367.1,346.66,257.99,340.41,223z"/>
            <path id="Path_2_1_" class="st19" d="M332.19,423.82l31.15-12.45c-2.75-33.92-36.26-73.92-89.79-73.92s-87.25,40-90,73.92
				l30.85,12.45v155.02h117.8V423.82z"/>
            <path id="Path_3_1_" class="st21" d="M214.39,551.23v8.27c18.03,4.78,34.86-11.48,34.86-11.48l82.94,1.2v-12.62l-117.8,3.15
				V551.23z"/>
            <path id="Path_4_1_" class="st22" d="M295.22,339.77c-2.8-0.65-5.62-1.14-8.47-1.47l-1.95-20.33l-21.6-0.79l-0.82,20.88
				c-3.49,0.28-6.96,0.85-10.36,1.68c-0.05,1.04-0.04,2.08,0.04,3.12c0.53,13.28,10.62,23.57,22.53,22.97s21.15-11.84,20.62-25.12
				C295.19,340.5,295.24,339.99,295.22,339.77z"/>
            <path id="Path_5_1_" class="st23" d="M285.16,321.73l0.92,9.54c-3.8,0.6-8.27,1.16-12.64,1.08c-3.62-0.05-7.23-0.35-10.8-0.91
				l0.4-10.22L285.16,321.73z"/>
            <g id="Girl_2_">
				<g id="Head-3_1_">
					<g id="Group_1_1_">
						<path id="Path_6_1_" class="st22" d="M335.38,263.35c0.57,34.64-27.05,63.18-61.69,63.75c0,0,0,0,0,0l0,0
							c-34.64,0.57-63.18-27.05-63.75-61.69c0,0,0,0,0,0l-0.39-23.39c-0.57-34.64,27.05-63.19,61.69-63.76l0,0
							c34.64-0.57,63.19,27.05,63.76,61.69c0,0,0,0,0,0L335.38,263.35z"/>
                        <path id="Path_7_1_" class="st22" d="M224.67,264.1c0.13,9.3-7.3,16.94-16.59,17.07c-9.3,0.13-16.94-7.3-17.07-16.59
							c-0.13-9.28,7.27-16.91,16.55-17.07C216.86,247.36,224.52,254.79,224.67,264.1C224.67,264.09,224.67,264.09,224.67,264.1z"/>
					</g>
				</g>
                <path id="Path_8_1_" class="st20" d="M234.32,222.26c0,0-12.67,49.35-16.88,103.07l-9.72-1.54c0,0-4.59-67.33,1.83-101.53
					L234.32,222.26z"/>
                <path id="Path_9_1_" class="st23" d="M199.15,222.63l142.11,5.75l-0.85-5.46l-86.61-4.41L199.15,222.63z"/>
                <g id="Group_2_1_">
					<path id="Path_10_1_" class="st24" d="M146.36,213.71c-0.01,4.85,3.2,8.8,7.17,8.81l59.42,0.14c3.97,0.01,7.2-3.92,7.21-8.77
						l0,0c0.01-4.85-3.2-8.8-7.17-8.81l-59.42-0.13C149.6,204.93,146.37,208.86,146.36,213.71L146.36,213.71z"/>
                    <path id="Path_11_1_" class="st24" d="M340.52,222.92c0.08-34.53-28.02-62.58-62.55-62.65l-16.57-0.04
						c-34.53-0.08-62.17,27.87-62.25,62.4L340.52,222.92z"/>
                    <path id="Path_12_1_" class="st22" d="M266.1,212.95l37.11-0.15l0,0c0.19-9.34-6.98-16.89-16.03-16.85l-4.34,0.02
						C273.79,196,266.29,203.61,266.1,212.95L266.1,212.95z"/>
				</g>
			</g>
            <g id="Group_3_1_">
				<path id="Path_13_1_" class="st12" d="M304.52,287.73l-54.39-1.01c0,0,9.23,19.4,26.83,19.4
					C294.34,306.12,303.74,291.62,304.52,287.73z"/>
                <path id="Path_14_1_" d="M298.35,266.33c1.1,4,5.06,6.4,8.84,5.35c3.78-1.04,5.95-5.13,4.85-9.13c-1.1-4-5.06-6.4-8.85-5.36
					C299.41,258.24,297.24,262.33,298.35,266.33z"/>
                <path id="Path_15_1_" d="M239.82,266.33c1.1,4,5.06,6.4,8.84,5.35c3.78-1.04,5.95-5.13,4.85-9.13c-1.1-4-5.06-6.4-8.84-5.36
					C240.88,258.24,238.71,262.33,239.82,266.33z"/>
			</g>
		</g>
	</g>
</g>
    <g>
	
		<ellipse transform="matrix(0.7071 -0.7071 0.7071 0.7071 -177.9928 283.2559)" class="st76" cx="252.92"
                 cy="356.48" rx="137.18" ry="137.18"/>
        <path class="st77" d="M309.36,301.73c1.49,1.55,2.63,3.58,4.05,5.08c1.21,1.28,3.08,2.2,4.21,3.74c2.48,3.37,3.55,8.28,5.81,11.94
		c1.92,3.11,5.92,5.23,6.93,8.86c1.59,5.68,1.05,6.65,6.41,1.76c1.2-1.1,2.06-1.8,3.3-3.39c1.4-1.81,3.41-3.35,5.02-4.97
		c2.26-2.28,4.96-4.16,5.85-6.9c0.46-1.43,1.35-8.46,0.93-10.02c-0.45-1.67-3.75-3.86-5.69-3.31c-0.67-1.39-1.55-2.83-2.44-4.02
		c-1.84,1.45-1.33,3.36-4.08,3.8c-3.05,0.48-3.99-1.74-5.41-3.8c-2.13-3.1-5.53-6.84-5.78-10.44c2.72,0.73,5.14,1.5,7.13,3.44
		c1.38,1.34,1.95,3.36,3.71,4.27c2,1.04,5.54,1.36,7.03-0.58c1.47,3.34,4.2,4.88,7.87,4c2.37-0.57,4.54-3.68,7.07-1.63
		c1.43,1.16,2.52,5.09,4.09,6.77c6.58,7.02,9.1,15.49,11.55,24.71c0.84,3.17,2.09,6.53,2.3,9.83c0.14,2.04-0.66,4.16,0.13,6.05
		c5.62-0.5,0.25-22.53-0.56-25.38c-1.49-5.3-1.73-8.38-1.11-13.92c0.27-2.39,0.39-4.89,0.33-7.37
		c-17.68-39.26-53.26-68.7-96.36-77.89c2.28,1.41,5.09,3.31,5.18,4.35c0.28,3.17-3.98,1.41-5.46,1.36
		c-3.14-0.12-2.91,1.36-5.35,2.34c0.57-5.63-11.91-7.06-15.77-5.69c-3.37,1.2-5.5,3.72-8.33,5.3c-3.99,2.22-8.14,0.63-12.07,4.17
		c2.16,0.43,3.93,1.45,6,2.04c1.18,0.34,2.79,0.1,3.68,0.66c1.98,1.26,1.4,3.64,4.25,2.53c1.79-0.69,3.23-3.68,3.74-4.93
		c0.15-0.38-0.58-1.01-0.03-2.01c0.39-0.72,3.22-2.11,3.87-2.34c-1.35,3.45,1.33,4.94,4.39,4.05c-0.29,1.5-1.47,1.84-2.25,3.37
		c-0.61,1.2-0.28,3.04-1,4.04c-2.09,2.9-4-0.16-6.37,0.03c-2.69,0.21-3.18,2.72-6.4,1.47c-2.08-0.8-3.88-3.08-5.26-4.58
		c-1.34,1.29-1.22,3.16-2.68,4.58c-2.06,2-4.84,2.69-7.41,3.49c-4.16,1.29-9.39,2.16-13.9,2.85c-2.11,3.75,3.96,3.16,3.67,6.75
		c-0.11,1.39-0.38,1.08-1.1,2.03c-0.22,0.29-3.02,2.27-3.68,2.77c-1.65-1.76-3.34-2.34-5.67-2.14c-1.45,0.12-5.67,0.74-7.01,1.57
		c-4.83,2.98-2.01,9.39-2.17,13.63c2.5,0.87,4.34-0.13,6.72-0.27c1.07-0.06,1.37-0.45,2.45-0.31c0.74,0.09,1.17,1.25,2,1.35
		c2.4,0.31,5.28-2.05,6.78-3.59c1.61-1.64,2.4-5.31,4.1-6.56c1.18-0.87,1.31-0.29,2.72-0.72c1.66-0.51,7.1-0.92,4.8-4.01
		c2.47,0.46,8.58,2.05,8.39-2.38c2.75-0.47,6.87,6.12,8.59,8.04c2.03,2.26,5.93,3.82,4.63,7.47c1.27-1.13,1.76-3.2,1.99-4.89
		c0.37-2.69,0.98-1.99-1.53-3.57c-1.36-0.86-12.65-4.75-6.53-7.71c2.06-1,5.54,2.28,7.63,2.66c3.53,0.64,5.77,0.11,7.75,4.06
		c1.03,2.05,1.18,4.88,1.81,7.07c1.27,4.41,2.35,3.87,6.7,3.1c-3.64-1.11-3.78-6-0.25-7.09c0.85-0.26,4.92,0.29,6.04,1.36
		c0.98,0.93,0.35,2.67,1.12,3.68c1.35,1.78,3.98,1.76,5.82,2.69c1.37,0.69,2.61,2.12,4.13,2.34c2.92,0.42,4.93-4.14,6.91-4.73
		c4.53-1.35,3.8,3.73,3.13,7.5c-0.67,3.79-4.54,8.18-8.39,8.7c-3.25,0.45-7.85-0.75-10.98-1.32c-4.03-0.73-7.1-2.63-10.68-3.96
		c-5.54-2.06-3.92,0.85-3.6,4.67c-3.24-0.65-6.25-2.9-9.54-3.75c-2.06-0.53-3.97-0.65-5.98-1.34c-1.64-0.57-4.45-0.68-5.9-1.3
		c-3.72-1.6-1.18-0.98-1.47-4.23c-0.27-3.06-0.28-1.72-3.18-2.48c-2.37-0.63-4.53-1.72-7.11-1.46c-3.64,0.37-6.91,2.34-10.47,2.51
		c-5.37,0.25-10.07,0.61-15.26,1.85c-3.37,0.8-3.4,2.63-5.31,6.09c-1.04,1.88-2.19,2.96-3.79,4.3c-2.71,2.27-4.03,4.62-6.48,7.37
		c-1.22,1.38-3.18,4.89-4.5,5.84c-1.37,0.99-2.79,0.14-4.29,0.86c-2.56,1.23-4.64,6.97-5.87,9.33c-1.71,3.26-4.09,6.52-4.03,10.31
		c0.08,4.5,1.38,7.88,0.1,12.15c-0.63,2.09-1.92,2.29-1.02,5.19c1.27,4.11,3.39,3.13,6.1,5.02c3.44,2.4,2.23,7.32,6.17,10.68
		c3.71,3.16,5.93,5.79,10.4,5.17c3.12-0.44,4.96-0.74,8.09-0.29c3.3,0.47,3.18,0.55,6.62-0.59c5.6-1.86,11.89-3.67,17.79-2.14
		c3.69,0.96,4.63,4.13,7.46,5.84c3.15,1.9,5.38,1.21,5.1,6.39c-0.51,0.21-0.74,0.2-1.3,0.4c-0.34,5.81-0.05,12.36,3.58,17.24
		c3.38,4.53,8.22,6.27,8.88,12.34c0.34,3.16,0.12,5.46-0.74,8.58c-0.52,1.89-2.11,5.26-2.56,7.51c-0.39,1.93-0.53,7.34,0.57,8.98
		c1.16,1.73,3.53,2.21,4.45,4.54c0.58,1.47,1.15,3.99,1.44,5.41c1.06,5.29,1.48,9.7,4.31,14.78c2.53,4.53,6.04,6.53,7.17,11.61
		c4.83,0.41,10.54-0.76,15.15-1.63c0.5-0.1,3.78-0.46,4.06-0.7c1.24-1.06,0.4-3.11,1.6-4.24c0.93-0.88,2.27,0,3.16-0.65
		c0.96-0.7,1.43-2.2,1.98-3.21c1.79-3.33,2.94-6.86,5.59-9.61c2.52-2.62,5.81-5.08,8.07-7.99c1.15-1.49,2.28-3.22,3.3-4.65
		c0.62-0.87,1.31-0.16,1.78-1.43c0.59-1.57-1.29-4.94-1.69-6.41c3.15-1.19,5.49-1.42,7.73-4.09c1.3-1.54,1.55-3.46,2.4-5.05
		c0.55-1.03,1.6-2.12,2.04-3.14c1.53-3.61,1.77-8.12,0.75-11.84c-0.95-3.49-2.72-5.9-2.14-9.78c0.78-5.27,4.42-8.87,7.13-13.23
		c1.44-2.31,2.07-3.67,4.08-5.09c2.28-1.61,4-2.19,5.74-4.79c4.43-6.61,10.16-15.94,9.09-24.28c-2.19-1.62-2.51,0.24-4.4,1.04
		c-2.24,0.95-9.61,3.02-11.88,2.31c-3.1-0.96-2.23-3.8-3.64-6.09c-1.55-2.49-5.16-4.73-7.2-7.2c-2.3-2.79-5.29-5.53-6.89-8.76
		c-1.8-3.6-2.26-7.39-4.88-10.47c-3.82-4.5-7.3-9.6-6.75-15.96C303.39,296.06,306.63,298.87,309.36,301.73z"/>
        <path class="st77" d="M284.46,256.18c-4.14-5.52-3.26,7.39-3.34,9.1c2.18-0.58,2.87-1.76,5.38-1.93c0.69-0.05,2.43,0.34,3.22,0.31
		c0.6-0.02,1.31-0.82,2.27-0.79c1.49,0.05,3.48,1.45,5,1.79c1.37,0.31,4.73,1.8,5.74,1.69c2.65-0.28,2.78-2.48,0.83-3.66
		c-2.53-1.53-4.85,0.16-6.93-2.74c-1.45-2.02-3.35-12.46-5.75-4.36c-0.63,2.14,0.69,3.99-2.45,3.38
		C287.55,258.8,285.98,257.03,284.46,256.18z"/>
        <path class="st77" d="M313.93,254.82c-1.16-0.03-3.55,0.81-3.88,2.2c-0.49,2.08,0.95,1.7,2.28,2.79c2.09,1.71,4.42,3.82,5.59,6.53
		c0.49,1.14,0.96,2.61,1.35,3.82c0.21,0.66,0.64,3.54,1.08,3.92c0.85,0.75,7.46,0.73,8.78,1.02c0.44-3.35-4.83-4.8-5.96-7.49
		c-0.37-0.89,0.45-2.56-0.06-3.32c-0.72-1.06-2.38-0.98-3.41-1.65c-1.47-0.96-4.56-3.3-4.74-5.11c-0.14-1.36,1.72-1.24,1.37-2.54
		C315.95,253.59,314.43,253.74,313.93,254.82z"/>
        <path class="st77" d="M339.33,405.88c-1.91-0.18-2.02,1.86-2.57,3.4c-0.15,0.42-0.72,2.88-0.97,3.05c-1.01,0.67-1.11-0.6-2.05-0.37
		c-1.67,0.41-5.91,1.05-6.96,2.21c-2.89,3.2,1.25,4.05,1.7,6.62c0.71,4-3.42,2.58-4.99,4.81c-0.83,1.17-1.41,7.64-1.05,9.02
		c7.6,3.4,9.73-8.96,11.97-13.53C335.65,418.57,342.1,406.23,339.33,405.88z"/>
        <path class="st77" d="M147.3,439.91c-1.07-3.13-5.12-4.92-6.78-7.76c-1.37-2.35-2.47-6.9-2.67-9.62c3.6-0.44,5.24-2.6,3.97-5.76
		c-1.36-3.38-3.47-6.59-3.65-10.37c-0.15-3.13,0.23-6.41-0.04-9.68c-0.19-2.24,0.11-4.01,0.86-6.08c0.76-2.1,2.43-3.96,1.84-6.33
		c-0.94-3.73-5.28-6.84-8.19-9c-2.55-1.9-5.76-3.53-7.18-6.48c-1.56-3.25-1.53-7.31-2.66-10.71c-0.65-1.97-2.03-3.37-2.63-5.29
		c-0.98-3.14,0.16-6.26-0.98-9.56c-0.75-2.18-1.47-4.14-2.08-6.06c-0.89,6.3-1.38,12.73-1.38,19.28c0,33.38,11.93,63.96,31.75,87.75
		C147.42,442.76,147.73,441.17,147.3,439.91z"/>
        <path class="st0" d="M284.65,488c-77.45,0-140.24-62.79-140.24-140.24c0-54.14,30.7-101.09,75.62-124.46
		c-59.87,14.74-104.29,68.76-104.29,133.18c0,75.76,61.42,137.18,137.18,137.18c13.91,0,27.33-2.09,39.98-5.94
		C290.17,487.89,287.43,488,284.65,488z"/>
</g>
    <g id="Group_148" transform="translate(-18.365 -178.536)">
	<path id="Path_44" class="st22" d="M368.77,409.8l-2.4,26.6c0,0-13.47-12.92-15.09-12.88C349.65,423.55,368.77,409.8,368.77,409.8z
		"/>
        <path id="Path_45" class="st78" d="M355.08,424.39l12.91-5.99l0.43-7.59l-12.65,7.93L355.08,424.39z"/>
        <path id="Path_46" class="st22" d="M325.3,404.44c-3.74,4.4-17.17,19.09-17.17,19.09c-2.11,2.52-1.93,6.48,0.58,8.58
		c2.43,2.03,6.04,1.8,8.18-0.54c0.06-0.07,11.43-12.39,11.49-12.46c-2.13,2.5-1.82,6.25,0.67,8.37c2.5,2.13,6.25,1.82,8.37-0.67
		c0.02-0.03,0.04-0.05,0.07-0.08c-2.08,2.49-1.75,6.19,0.74,8.27c0.02,0.01,0.03,0.03,0.05,0.04c2.55,2.09,6.3,1.73,8.41-0.8
		l1.9-2.29c0.29-0.34,3.32-3.86,7.19-8.37c4.46-4.58,8.2-8.29,10.78-10.33c0,0-0.01,0.04-0.01,0.03
		c9.83-8.3-12.29-31.74-23.03-25.88C337.2,390.76,330.72,397.56,325.3,404.44z"/>
</g>
</svg>
