<?xml version="1.0" encoding="utf-8"?>
<!-- Generator: Adobe Illustrator 24.1.3, SVG Export Plug-In . SVG Version: 6.00 Build 0)  -->
<svg version="1.1" id="Layer_1" xmlns="http://www.w3.org/2000/svg" xmlns:xlink="http://www.w3.org/1999/xlink" x="0px"
     y="0px"
     viewBox="0 0 500 500" style="enable-background:new 0 0 500 500;" xml:space="preserve">
<style type="text/css">
	.st0{fill:#D84D96;}
	.st1{fill:#8DCECD;}
	.st2{fill:#F4B742;}
	.st3{fill:#FDF2DC;}
	.st4{opacity:0.1;fill:#010101;}
	.st5{fill:#78574E;}
	.st6{fill:#2C73B6;}
	.st7{fill:#79C2C5;}
	.st8{fill:#E0DFDF;}
	.st9{fill:#9A9D9F;}
	.st10{fill:#303030;}
	.st11{fill:#1F2842;}
	.st12{fill:#555656;}
	.st13{fill:#216296;}
	.st14{fill:#9C6E5D;}
	.st15{fill:#503A35;}
	.st16{fill:#FFFFFF;}
	.st17{fill:#010101;}
	.st18{fill:#BE2026;}
	.st19{fill:#4A494A;}
	.st20{fill:#373737;}
	.st21{fill:#F3AC89;}
	.st22{fill:#EF509C;}
	.st23{fill:#DDD323;}
	.st24{opacity:0.07;fill:#2B2B2B;enable-background:new    ;}
	.st25{fill:#FCCFB3;}
	.st26{opacity:0.1;fill:#1E1E1E;enable-background:new    ;}
	.st27{fill:#F37135;}
	.st28{fill:#EBF7F8;}
	.st29{fill:#F2ECE0;}
	.st30{fill:#25556D;}
	.st31{fill:#C8C9C9;}
	.st32{fill:#6EB5B5;}
	.st33{fill:#6666AF;}
	.st34{fill:#F2C6AE;}
	.st35{fill:#2E73B6;}
	.st36{fill:#69BF66;}
	.st37{fill:#2971B8;}
	.st38{opacity:0.5;fill:#AF928B;}
	.st39{fill:#716154;}
	.st40{fill:#F7C054;}
	.st41{fill:#3E2F14;}
	.st42{fill:#FBD5BB;}
	.st43{fill:#BE602D;}
	.st44{fill:#A95128;}
	.st45{fill:#9F4B23;}
	.st46{fill:#151310;}
	.st47{fill:#121D10;}
	.st48{fill:#6AC0B8;}
	.st49{fill:#E2E2E2;}
	.st50{fill:#223C75;}
	.st51{fill:#EAEAEA;}
	.st52{fill:#F4F4F4;}
	.st53{fill:#404040;}
	.st54{fill:#71CCD8;}
	.st55{fill:#232323;}
	.st56{fill:#82B3DD;}
	.st57{fill:#E9BDA9;}
	.st58{fill:#BB6438;}
	.st59{fill:#A65531;}
	.st60{fill:#9B4D23;}
	.st61{fill:#ECBEA5;}
	.st62{fill:#FDD0B3;}
	.st63{fill:#444592;}
	.st64{fill:#E1B59F;}
	.st65{opacity:0.5;fill:#69BF66;}
	.st66{opacity:0.4;fill:#FFFFFF;}
	.st67{fill:#91695B;}
	.st68{fill:#FBE0CE;}
	.st69{fill:#FBDFCE;}
	.st70{fill:#CFCAC8;}
	.st71{fill:#545352;}
	.st72{fill:#8162AA;}
	.st73{fill:#886DB0;}
	.st74{fill:#2F3234;}
	.st75{fill:#DEEAF3;}
	.st76{fill:#2F78B8;}
	.st77{fill:#256999;}
	.st78{fill:#75AED9;}
	.st79{fill:#0099DA;}
	.st80{fill:#A6D05D;}
	.st81{opacity:0.1;fill:#2B2B2B;enable-background:new    ;}
</style>
    <rect class="st1" width="500" height="500"/>
    <g>
	<path class="st40" d="M137.13,250.63c8.27-1.78,11.77-15.83,22.82-18.21c7.01-1.51,13.92,2.95,15.44,9.96s-2.95,13.92-9.96,15.44
		C154.38,260.2,145.4,248.85,137.13,250.63z"/>
        <path class="st41" d="M175.09,370l-1.45,3.65c0,5.94-4.82,48.88-9.29,52.37L163.71,500h-23.46l0.36-74.78l-36.04,0.3L104.44,500
		H81.83V370H175.09z"/>
        <g>
		<g id="Front_5_">
			<g id="Head_6_">
				<g id="teen_4_">
					<g>
						<path class="st42" d="M55.43,143.46c0.36,8.36,7.41,14.85,15.74,14.49c8.34-0.35,14.81-7.42,14.46-15.78
							c-0.36-8.36-7.41-14.85-15.75-14.49C61.55,128.04,55.08,135.1,55.43,143.46z"/>
                        <path class="st42" d="M69.69,146.74c1.33,31.08,27.6,55.21,58.68,53.88l0,0c31.09-1.33,55.21-27.59,53.89-58.68l-0.9-20.99
							c-0.53-12.53,0.12-30.25-7.2-39.3c-10.84-13.41-32.92-15.37-51.47-14.58l0,0c-31.08,1.33-55.21,27.6-53.89,58.68L69.69,146.74
							z"/>
                        <path class="st42" d="M167.75,140.92c0.36,8.36,7.41,14.85,15.75,14.49c8.34-0.36,14.81-7.42,14.45-15.78
							c-0.36-8.36-7.41-14.85-15.75-14.49C173.87,125.5,167.39,132.56,167.75,140.92z"/>
                        <path class="st43" d="M177.5,133.8c0,0,1.7-1.11,3.01-2.41c0,0,7.24-17.3,3.89-29.57c-1.22-5.44-4.77-12.29-9.39-19.01
							L160.86,95.5C166.65,103.64,174.62,114.02,177.5,133.8z"/>
                        <path class="st43"
                              d="M84.6,90.8l-11.08-4.21c0,0-10.68,15.2-5.51,41.49l1.31,0.45C69.33,128.52,69.97,102.21,84.6,90.8z"/>
                        <path class="st44" d="M174.63,82.27L160.4,94.89c0,0-55.46,5.56-80.89-4.66"/>
					</g>
				</g>
                <g>
					<path class="st45" d="M118.2,153.61c-0.11,0.7-0.78,1.18-1.5,1.07c-0.72-0.11-1.22-0.78-1.11-1.48c0.11-0.7,0.78-1.18,1.5-1.07
						C117.82,152.25,118.31,152.91,118.2,153.61z"/>
                    <path class="st45" d="M124.75,149.76c-0.08,0.51-0.58,0.87-1.11,0.78c-0.52-0.08-0.89-0.57-0.8-1.08
						c0.08-0.51,0.57-0.86,1.1-0.78C124.46,148.76,124.82,149.25,124.75,149.76z"/>
                    <path class="st45" d="M129.76,155.41c-0.11,0.71-0.78,1.19-1.5,1.07c-0.72-0.11-1.22-0.77-1.1-1.48
						c0.11-0.7,0.78-1.18,1.5-1.07C129.38,154.05,129.87,154.71,129.76,155.41z"/>
                    <path class="st45" d="M132.99,149.62c-0.1,0.61-0.68,1.03-1.3,0.93c-0.63-0.1-1.05-0.67-0.96-1.28c0.1-0.61,0.68-1.03,1.3-0.93
						C132.65,148.43,133.08,149.01,132.99,149.62z"/>
                    <path class="st45" d="M138.68,154.23c-0.11,0.72-0.8,1.22-1.54,1.1c-0.74-0.12-1.25-0.8-1.14-1.52c0.11-0.72,0.8-1.22,1.54-1.1
						C138.29,152.83,138.8,153.51,138.68,154.23z"/>
                    <path class="st45" d="M144.95,157.54c-0.08,0.57-0.64,0.96-1.22,0.87c-0.58-0.09-0.99-0.63-0.9-1.2
						c0.09-0.57,0.64-0.96,1.22-0.87C144.64,156.43,145.04,156.97,144.95,157.54z"/>
                    <path class="st45" d="M110.94,157.42c-0.1,0.62-0.69,1.04-1.33,0.94c-0.64-0.1-1.08-0.68-0.98-1.3
						c0.1-0.62,0.69-1.04,1.33-0.94C110.6,156.22,111.04,156.8,110.94,157.42z"/>
                    <path class="st45" d="M111.91,151.21c-0.09,0.62-0.69,1.04-1.33,0.94c-0.64-0.1-1.07-0.68-0.97-1.3
						c0.09-0.62,0.69-1.05,1.33-0.94C111.57,150,112,150.59,111.91,151.21z"/>
                    <path class="st45" d="M103.61,156.28c-0.1,0.62-0.69,1.05-1.33,0.94c-0.64-0.1-1.07-0.68-0.98-1.3
						c0.1-0.62,0.69-1.04,1.33-0.94C103.27,155.07,103.7,155.66,103.61,156.28z"/>
				</g>
			</g>
            <g>
				<path class="st46" d="M67.1,134.37l0.01,0.19l0.04,0.18c0.11,0.47,2.74,13.84,4.2,17.55c1.18,3,4.66,8.68,9.36,8.67l24.98-0.06
					c8.69-0.03,11.45-21.32,11.96-25.74c0.72-1.66,2.24-2.8,4.05-2.8c1.89-0.01,3.58,1.23,4.4,3.02
					c0.99,4.89,5.54,25.46,14.08,25.44l24.98-0.06c4.69-0.01,7.7-5.71,8.63-8.71c1.15-3.71,2.71-17.09,2.68-17.57l0-0.19l-0.01-0.19
					c-0.22-5.17-4.11-9.14-8.77-9.13l-33.48,0.31h-0.27l-25.05-0.17l-33.75-0.03C70.49,125.09,66.88,129.2,67.1,134.37z
					 M130.27,133.38c0.95-1.33,2.53-2.15,4.13-2.16l32.5,0.04c2.74-0.01,3.72,2.42,3.94,5.44c-0.22,1.52-0.96,11.22-1.94,14.38
					c-0.81,2.62-1.71,6.31-5.15,6.04l-23.73-0.06c-4.99,0.01-9.15-13.69-10.49-20.51C129.26,135.15,129.78,134.06,130.27,133.38z
					 M72.22,136.95c-0.04-3.02,1.32-5.57,4.06-5.57l32.5,0.04c1.6,0,3.25,0.82,4.32,2.14c0.54,0.67,1.15,1.77,1,3.16
					c-0.76,6.84-3.56,20.43-8.56,20.44l-23.72-0.06c-3.84-0.13-5.02-4.15-6.05-6.77C74.5,147.17,72.56,138.47,72.22,136.95z"/>
			</g>
		</g>
            <g>
			<path class="st16"
                  d="M97.39,167.18l48.59-0.91c0,0-8.25,17.34-23.97,17.34C106.48,183.61,98.08,170.66,97.39,167.18z"/>
                <path class="st46" d="M102.9,148.05c-0.99,3.57-4.52,5.72-7.9,4.78c-3.38-0.93-5.32-4.58-4.33-8.16
				c0.99-3.57,4.52-5.72,7.91-4.78C101.95,140.83,103.89,144.48,102.9,148.05z"/>
                <path class="st46" d="M155.19,148.05c-0.99,3.57-4.52,5.72-7.9,4.78c-3.38-0.93-5.31-4.58-4.33-8.16
				c0.99-3.57,4.52-5.72,7.9-4.78C154.24,140.83,156.18,144.48,155.19,148.05z"/>
		</g>
	</g>
        <path class="st18" d="M178.14,291.28l27.68-11.04c0.03-0.01,0.05-0.04,0.05-0.07c-2.48-30.19-32.3-65.76-79.93-65.76
		c-47.64,0-77.27,35.57-79.75,65.76c0,0.03,0.02,0.06,0.05,0.07l27.75,11.04c0.03,0.01,0.05,0.04,0.05,0.07v86.93
		c0,0.04,0.03,0,0.07,0h103.92c0.04,0,0.07,0.04,0.07,0v-86.93C178.09,291.32,178.11,291.29,178.14,291.28z"/>
        <path class="st42" d="M160.35,343.74c-0.91,2.09,9.6-3.52,6.43-4.05c-3.17-0.53-14.71-7.31-16.21-8.28
		c-1.5-0.97-4.32,0.09-3.44,2.38C148.02,336.07,162.38,339.07,160.35,343.74"/>
        <path class="st47" d="M153.16,336.63h-3.47c0.88,0,1.6-0.71,1.6-1.6c0-0.88-0.71-1.6-1.6-1.6h-6.07c-0.88,0-1.6,0.71-1.6,1.6
		c0,0.88,0.71,1.6,1.6,1.6h-3.52h-4.42h-10.14c0.88,0,1.6-0.71,1.6-1.6c0-0.88-0.71-1.6-1.6-1.6h-6.07c-0.88,0-1.59,0.71-1.59,1.6
		c0,0.88,0.71,1.6,1.59,1.6h-2.99c-4.04,0-7.69,3.02-7.86,7.06c-0.19,4.23,3.19,7.72,7.38,7.72h19.68h4.42h12.58
		c4.04,0,7.69-3.02,7.86-7.06C160.73,340.11,157.36,336.63,153.16,336.63"/>
        <path class="st42" d="M95.87,346.64c0,0,7.58-14.96,19.31-12.48c7.54,1.58-0.24,4.36-1.38,4.36c-2.18,0-8.56,7.33-2.64,9.26
		c5.01,1.63,19.37-3.79,20.13,0.98c0.42,2.65-4.14,4.03-4.14,4.03s3.53,0.05,3.77,1.45c0.39,2.25-3.86,2.8-3.86,2.8
		s2.65,1.01,1.94,2.42c-0.7,1.41-15.4,6.8-25.19,3.57C89.33,358.25,95.87,346.64,95.87,346.64"/>
        <path class="st42" d="M160.35,343.74c-0.91,2.09-4.06,3.79-5.55,3.79c-1.49,0-7.4-4.67-9.33-1.9c-1.94,2.78,2.73,5.15,2.73,5.15
		s-4.23-2.29-5.2,0c-0.97,2.29,2.82,4.05,2.82,4.05s-2.77-0.34-2.98,0.88c-0.6,3.55,9.07,5.34,17.55,6.43
		c8.22,1.06,14.16-3.18,15.12-8.51c1.02-5.66-0.7-12.07-8.72-13.95C163.65,338.95,162.38,339.07,160.35,343.74"/>
        <path class="st42" d="M206.79,368.37c-6.16,0-11.91-0.72-15.56-1.18c-15.01-1.88-29.27-5.52-30.4-5.81
		c-0.04-0.01-0.04-0.04-0.03-0.08l5.13-19.78c0.01-0.04,0.03-0.07,0.07-0.06c0.85,0.22,11.46,2.9,23.29,4.68
		c15.24,2.3,22.31,1.57,25.21,0.93c0.04-0.01,0.06-0.04,0.05-0.08c-0.68-3.73-3.56-13.35-15.37-34.6
		c-5.27-9.46-10.69-18.35-14.1-23.79c-0.02-0.04-0.01-0.08,0.04-0.1l19.26-7.68c0.03-0.01,0.07,0,0.09,0.03
		c3.66,5.92,8.68,14.21,13.53,23.03c17.94,32.56,18.49,43.69,16.67,50.28C231.43,365.81,218.38,368.37,206.79,368.37"/>
        <path class="st42" d="M58.21,367.14c-20.47,0-27.79-5.23-31.57-9.53c-8.96-10.24-6.15-27.63,9.12-56.39
		c3.95-7.45,8.14-14.62,11.75-20.4c0.02-0.03,0.05-0.04,0.09-0.03l19.39,7.71c0.04,0.02,0.06,0.06,0.04,0.1
		c-3.43,5.38-7.8,12.54-11.84,19.97C41.3,334.07,42,342.6,42.31,344.15c0,0.02,0.01,0.03,0.03,0.04c1.17,0.73,7.62,3.82,30.04,1.57
		c13.9-1.4,26.64-4.16,27.63-4.38c0.04-0.01,0.07,0.02,0.08,0.06l4.47,19.95c0.01,0.04,0,0.07-0.04,0.08
		c-1.13,0.25-15.17,3.34-30.83,4.85C67.83,366.89,62.7,367.14,58.21,367.14"/>
        <path class="st48" d="M143.01,303.87c-1.8,1.8-4.71,1.8-6.52,0c-4.35-4.35-11.38-4.43-15.82-0.24c-1.75,1.65-4.47,2.11-6.36,0.61
		c-2.2-1.75-2.33-4.96-0.41-6.88c8.03-8.02,21.08-8.02,29.11,0C144.81,299.15,144.81,302.07,143.01,303.87"/>
        <path class="st48" d="M166.47,280.41c-1.8,1.8-4.71,1.8-6.52,0c-17.27-17.27-45.31-17.37-62.7-0.29c-1.76,1.73-4.57,2.17-6.47,0.6
		c-2.13-1.76-2.24-4.92-0.34-6.82c20.96-20.96,55.07-20.96,76.03,0C168.27,275.69,168.27,278.61,166.47,280.41"/>
        <path class="st48" d="M154.31,292.57c-1.8,1.8-4.71,1.8-6.52,0c-10.62-10.62-27.87-10.66-38.53-0.13
		c-1.69,1.67-4.45,1.95-6.29,0.45c-2.15-1.75-2.27-4.93-0.36-6.84c14.25-14.25,37.45-14.25,51.7,0
		C156.1,287.86,156.1,290.78,154.31,292.57"/>
        <path class="st42" d="M106.7,216.42c2.69-0.64,4.22-0.85,7.51-1.31c0.03,0,0.06-0.03,0.07-0.06l1.73-18.05
		c0-0.04,0.03-0.06,0.07-0.07l19.16-0.7c0.04,0,0.07,0.03,0.07,0.07l0.73,18.52c0,0.04,0.03,0.07,0.07,0.07
		c3.92,0.39,6.05,0.73,9.19,1.5c0.08,0.97,0,1.79-0.04,2.78c-0.47,11.87-9.48,21.05-20.13,20.53
		c-10.65-0.53-18.89-10.57-18.42-22.44C106.73,217.06,106.69,216.61,106.7,216.42z"/>
        <g>
		<g id="Front_4_">
			<g id="Head_5_">
				<g id="teen_3_">
					<g>
						<path class="st42" d="M54.76,143.37c0.36,8.36,7.41,14.85,15.74,14.49c8.34-0.35,14.81-7.42,14.46-15.78
							c-0.36-8.36-7.41-14.85-15.75-14.49C60.88,127.95,54.41,135.01,54.76,143.37z"/>
                        <path class="st42" d="M69.02,146.65c1.33,31.08,27.6,55.21,58.68,53.88l0,0c31.09-1.33,55.21-27.59,53.89-58.68l-0.9-20.99
							c-0.53-12.53,0.12-30.25-7.2-39.3c-10.84-13.41-32.92-15.37-51.47-14.58l0,0c-31.08,1.33-55.21,27.6-53.89,58.68L69.02,146.65
							z"/>
                        <path class="st42" d="M167.08,140.83c0.36,8.36,7.41,14.85,15.75,14.49c8.34-0.36,14.81-7.42,14.45-15.78
							c-0.36-8.36-7.41-14.85-15.75-14.49C173.2,125.41,166.73,132.48,167.08,140.83z"/>
                        <path class="st43" d="M176.83,133.71c0,0,1.7-1.11,3.01-2.41c0,0,7.24-17.3,3.89-29.57c-1.22-5.44-4.77-12.29-9.39-19.01
							L160.2,95.41C165.98,103.56,173.96,113.93,176.83,133.71z"/>
                        <path class="st43"
                              d="M83.94,90.71L72.85,86.5c0,0-10.68,15.2-5.51,41.49l1.31,0.45C68.66,128.44,69.3,102.12,83.94,90.71z"/>
					</g>
				</g>
			</g>
		</g>
            <g>
			<path class="st16"
                  d="M96.72,167.09l48.59-0.91c0,0-8.25,17.34-23.97,17.34C105.82,183.52,97.42,170.57,96.72,167.09z"/>
                <path class="st46" d="M102.24,147.97c-0.99,3.57-4.52,5.72-7.9,4.78c-3.38-0.93-5.32-4.58-4.33-8.16
				c0.99-3.57,4.52-5.72,7.91-4.78C101.28,140.74,103.22,144.39,102.24,147.97z"/>
                <path class="st46" d="M154.52,147.97c-0.99,3.57-4.52,5.72-7.9,4.78c-3.38-0.93-5.31-4.58-4.33-8.16
				c0.99-3.57,4.52-5.72,7.9-4.78C153.57,140.74,155.51,144.39,154.52,147.97z"/>
		</g>
	</g>
        <path class="st44" d="M160.86,95.5c-12.29-4.94-103.05-0.67-106.11-28.57C71.74,92.5,174.97,13.72,174.63,82.27"/>
        <g>
		<path class="st49" d="M472.74,1.25h-7.98v188.12c-1.28-0.34-2.61-0.57-3.99-0.57s-2.71,0.23-3.99,0.57V1.25h-7.98V192.8h-95.77
			v-11.97c0-2.21-1.79-3.99-3.99-3.99h-11.97v-3.99v-19.95c0-6.6-5.37-11.97-11.97-11.97s-11.97,5.37-11.97,11.97v15.96h-19.95
			h-43.9c-6.6,0-11.97,5.37-11.97,11.97c0,3.08,1.2,5.86,3.11,7.98c-1.91,2.12-3.11,4.9-3.11,7.98s1.2,5.86,3.11,7.98
			c-1.91,2.12-3.11,4.9-3.11,7.98s1.2,5.86,3.11,7.98c-1.91,2.12-3.11,4.9-3.11,7.98c0,6.6,5.37,11.97,11.97,11.97h43.9h39.91
			c2.2,0,3.99-1.78,3.99-3.99v-3.99h11.97c2.2,0,3.99-1.78,3.99-3.99v-11.97h97.3c2.81,2.45,6.43,3.99,10.45,3.99
			c8.8,0,15.96-7.16,15.96-15.96c0-4.01-1.54-7.64-3.99-10.45V1.25z M321.1,152.89c0-2.2,1.79-3.99,3.99-3.99s3.99,1.79,3.99,3.99
			v15.96h-7.98V152.89z M245.28,212.75c0-2.2,1.79-3.99,3.99-3.99h39.91v7.98h-39.91C247.08,216.74,245.28,214.95,245.28,212.75z
			 M245.28,196.79c0-2.2,1.79-3.99,3.99-3.99h39.91v7.98h-39.91C247.08,200.78,245.28,198.99,245.28,196.79z M249.27,176.83h39.91
			v7.98h-39.91c-2.2,0-3.99-1.79-3.99-3.99C245.28,178.62,247.08,176.83,249.27,176.83z M245.28,228.71c0-2.2,1.79-3.99,3.99-3.99
			h39.91v7.98h-39.91C247.08,232.7,245.28,230.91,245.28,228.71z M345.05,224.72h-7.98v-39.91h7.98V224.72z M353.03,200.78h92.35
			c-0.34,1.28-0.57,2.61-0.57,3.99s0.23,2.71,0.57,3.99h-92.35V200.78z M460.77,212.75c-4.4,0-7.98-3.58-7.98-7.98
			c0-4.4,3.58-7.98,7.98-7.98s7.98,3.58,7.98,7.98C468.75,209.17,465.17,212.75,460.77,212.75z"/>
            <path class="st49" d="M209.14,1.25v85.32c-2.45,2.81-3.99,6.44-3.99,10.45c0,8.8,7.16,15.96,15.96,15.96
			c4.01,0,7.64-1.54,10.45-3.99h61.38v11.97c0,2.21,1.79,3.99,3.99,3.99h11.97v3.99c0,2.21,1.79,3.99,3.99,3.99h39.91h43.9
			c6.6,0,11.97-5.37,11.97-11.97c0-3.08-1.2-5.86-3.11-7.98c1.92-2.12,3.11-4.9,3.11-7.98c0-3.08-1.2-5.86-3.11-7.98
			c1.92-2.12,3.11-4.9,3.11-7.98c0-3.08-1.2-5.86-3.11-7.98c1.92-2.12,3.11-4.9,3.11-7.98c0-6.6-5.37-11.97-11.97-11.97h-43.9
			h-19.95V45.15c0-6.6-5.37-11.97-11.97-11.97s-11.97,5.37-11.97,11.97V65.1v3.99h-11.97c-2.2,0-3.99,1.78-3.99,3.99v11.97h-59.86
			V1.25h-7.98v80.38c-1.28-0.34-2.61-0.57-3.99-0.57s-2.71,0.23-3.99,0.57V1.25H209.14z M400.68,89.04c0,2.2-1.79,3.99-3.99,3.99
			h-39.91v-7.98h39.91C398.89,85.05,400.68,86.84,400.68,89.04z M400.68,105c0,2.2-1.79,3.99-3.99,3.99h-39.91v-7.98h39.91
			C398.89,101.01,400.68,102.8,400.68,105z M396.69,124.96h-39.91v-7.98h39.91c2.2,0,3.99,1.79,3.99,3.99
			C400.68,123.17,398.89,124.96,396.69,124.96z M400.68,73.08c0,2.2-1.79,3.99-3.99,3.99h-39.91v-7.98h39.91
			C398.89,69.09,400.68,70.88,400.68,73.08z M316.88,45.15c0-2.2,1.79-3.99,3.99-3.99s3.99,1.79,3.99,3.99v15.96h-7.98V45.15z
			 M300.92,77.07h7.98v39.91h-7.98V77.07z M292.94,101.01H236.5c0.34-1.28,0.57-2.61,0.57-3.99c0-1.38-0.23-2.71-0.57-3.99h56.43
			V101.01z M229.09,97.02c0,4.4-3.58,7.98-7.98,7.98c-4.4,0-7.98-3.58-7.98-7.98c0-4.4,3.58-7.98,7.98-7.98
			C225.51,89.04,229.09,92.62,229.09,97.02z"/>
            <rect x="333.64" y="76.27" class="st50" width="7.98" height="7.98"/>
            <rect x="333.64" y="92.24" class="st50" width="7.98" height="7.98"/>
            <rect x="333.64" y="108.2" class="st50" width="7.98" height="7.98"/>
            <rect x="305.94" y="184.02" class="st50" width="7.98" height="7.98"/>
            <rect x="305.94" y="199.98" class="st50" width="7.98" height="7.98"/>
            <rect x="305.94" y="215.94" class="st50" width="7.98" height="7.98"/>
	</g>
</g>
    <g>
	<g>
		<g>
			<g>
				<path class="st51" d="M319.58,362.59c5.12-4.4,16.93-11.11,21.33-5.99c4.4,5.12-1.42,12.08-6.55,16.48
					c-3.48,2.99-16.39,14.63-24.27,17.9c-2.07,0.86-6.64,1.97-8.92-0.68c-2.28-2.65-0.5-7.02,0.68-8.92
					C306.34,374.16,316.12,365.56,319.58,362.59z"/>
                <path class="st51" d="M439.77,383.19c-2.85-6.12-10.83-17.11-16.95-14.27c-6.12,2.85-3.7,11.59-0.85,17.71
					c1.93,4.16,8.88,20.1,14.7,26.34c1.53,1.64,5.23,4.54,8.4,3.07c3.17-1.47,3.36-6.18,3.07-8.4
					C447.04,399.2,441.69,387.32,439.77,383.19z"/>
                <g>
					<path class="st52" d="M356.33,466.33c-1.86,8.58-42.63-0.24-40.78-8.82c1.86-8.58,12.49-13.56,23.75-11.12
						C350.57,448.82,358.19,457.75,356.33,466.33z"/>
                    <path class="st52" d="M407.18,477.33c-1.86,8.58-42.63-0.24-40.78-8.82c1.86-8.58,12.49-13.56,23.75-11.12
						C401.41,459.82,409.04,468.75,407.18,477.33z"/>
                    <g>
						<path class="st51" d="M346.34,438.44l-13.12,7.33c2.08,1.86,4.81,3.86,7.51,5.41c4.59,2.63,9.29,4.26,13.53,4.89l4.73-11.73
							L346.34,438.44z"/>
					</g>
                    <g>
						<path class="st51" d="M387.27,447.29l8.84,12.12c-2.67,0.83-5.89,1.5-8.99,1.8c-5.27,0.49-10.51,0.04-14.63-1.13l0.83-12.65
							L387.27,447.29z"/>
					</g>
                    <path class="st52" d="M441.15,345c6.14-28.35-11.68-56.11-40.03-62.25l-0.24-0.05c-28.36-6.14-56.66,11.64-62.8,40
						c-3.83,17.72-15.33,70.87-15.33,70.87c-6.14,28.35,12.25,56.41,40.61,62.55l0.24,0.05c28.35,6.14,56.08-11.94,62.22-40.3
						C425.81,415.86,437.31,362.71,441.15,345z"/>
                    <path class="st53" d="M430.63,332.98c-2.36,10.89-21.66,15.95-43.13,11.31c-21.46-4.64-36.95-17.24-34.59-28.13
						c2.36-10.89,21.66-15.96,43.13-11.31C417.5,309.49,432.99,322.09,430.63,332.98z"/>
				</g>
			</g>
            <g>
				<g>
					<path class="st54" d="M405.79,324.37c0.16-0.69,0.85-1.13,1.54-0.97l1.13,0.26c0.69,0.16,1.13,0.85,0.97,1.54l-0.26,1.12
						c-0.16,0.69-0.85,1.13-1.54,0.97l-1.12-0.26c-0.69-0.16-1.13-0.85-0.97-1.54L405.79,324.37z"/>
                    <path class="st54" d="M410.45,325.46c0.16-0.7,0.85-1.13,1.54-0.97l1.12,0.25c0.69,0.16,1.13,0.85,0.97,1.54l-0.26,1.12
						c-0.16,0.69-0.85,1.13-1.54,0.97l-1.12-0.25c-0.69-0.16-1.13-0.85-0.97-1.54L410.45,325.46z"/>
                    <path class="st54" d="M401.26,327.57c0.16-0.69,0.85-1.13,1.54-0.97l1.12,0.26c0.69,0.16,1.13,0.85,0.97,1.54l-0.26,1.12
						c-0.16,0.7-0.85,1.13-1.54,0.97l-1.12-0.25c-0.69-0.16-1.13-0.85-0.97-1.54L401.26,327.57z"/>
                    <path class="st54" d="M413.16,330.27c0.16-0.7,0.85-1.13,1.54-0.97l1.12,0.25c0.7,0.16,1.13,0.85,0.97,1.54l-0.26,1.12
						c-0.16,0.69-0.85,1.13-1.54,0.97l-1.12-0.26c-0.69-0.16-1.13-0.85-0.97-1.54L413.16,330.27z"/>
				</g>
                <g>
					<path class="st54" d="M370.92,316.51c0.16-0.69,0.85-1.13,1.54-0.97l1.12,0.25c0.7,0.16,1.13,0.85,0.97,1.54l-0.25,1.12
						c-0.16,0.69-0.85,1.13-1.54,0.97l-1.12-0.26c-0.7-0.16-1.13-0.85-0.97-1.54L370.92,316.51z"/>
                    <path class="st54" d="M375.58,317.61c0.16-0.7,0.85-1.13,1.54-0.97l1.12,0.25c0.7,0.16,1.13,0.85,0.97,1.54l-0.26,1.12
						c-0.16,0.69-0.85,1.13-1.54,0.97l-1.13-0.26c-0.69-0.16-1.13-0.85-0.97-1.54L375.58,317.61z"/>
                    <path class="st54" d="M366.39,319.72c0.16-0.7,0.85-1.13,1.54-0.97l1.13,0.26c0.69,0.16,1.13,0.85,0.97,1.54l-0.26,1.12
						c-0.16,0.69-0.85,1.13-1.54,0.97l-1.12-0.26c-0.69-0.16-1.13-0.85-0.97-1.54L366.39,319.72z"/>
                    <path class="st54" d="M378.29,322.41c0.16-0.69,0.85-1.13,1.54-0.97l1.12,0.26c0.69,0.16,1.13,0.85,0.97,1.54l-0.25,1.12
						c-0.16,0.69-0.85,1.13-1.54,0.97l-1.12-0.26c-0.69-0.16-1.13-0.85-0.97-1.54L378.29,322.41z"/>
				</g>
			</g>
		</g>
	</g>
</g>
</svg>
