<?xml version="1.0" encoding="utf-8"?>
<!-- Generator: Adobe Illustrator 16.0.0, SVG Export Plug-In . SVG Version: 6.00 Build 0)  -->
<!DOCTYPE svg PUBLIC "-//W3C//DTD SVG 1.1//EN" "http://www.w3.org/Graphics/SVG/1.1/DTD/svg11.dtd">
<svg version="1.1" id="Layer_1" xmlns="http://www.w3.org/2000/svg" xmlns:xlink="http://www.w3.org/1999/xlink" x="0px" y="0px"
	 width="323.75px" height="103.224px" viewBox="0 0 323.75 103.224" enable-background="new 0 0 323.75 103.224"
	 xml:space="preserve">
<g>
	<g>
		<path fill="#4C565E" d="M158.369,37.512l-5.405,6.578c-2.82-3.232-6.874-5.348-10.694-5.348c-7.049,0-12.516,5.465-12.516,12.633
			c0,7.17,5.467,12.692,12.516,12.692c3.702,0,7.755-1.88,10.694-4.819l5.464,5.934c-4.348,4.465-10.634,7.346-16.628,7.346
			c-12.279,0-21.563-9.107-21.563-21.033c0-11.871,9.459-20.803,21.917-20.803C148.086,30.692,154.314,33.337,158.369,37.512z"/>
		<path fill="#4C565E" d="M189.612,72.118h-9.286V59.073L165.11,30.991h9.344l10.519,18.446l10.28-18.446h9.344l-14.984,27.847
			V72.118z"/>
		<path fill="#4C565E" d="M233.552,60.364h-0.886h-8.579v11.753h-9.28V30.991h17.859c10.753,0,16.864,5.169,16.864,14.274
			c0,6.344-2.702,10.927-7.699,13.28l8.757,13.572h-10.516L233.552,60.364z M232.666,52.611c5.111,0,8.049-2.352,8.049-7.05
			c0-4.586-2.938-6.876-8.049-6.876h-8.579v13.926H232.666z"/>
		<path fill="#4C565E" d="M263.208,72.118V30.991h9.28v41.126H263.208z"/>
		<path fill="#4C565E" d="M322.661,37.512l-5.404,6.578c-2.824-3.232-6.878-5.348-10.695-5.348c-7.05,0-12.518,5.465-12.518,12.633
			c0,7.17,5.468,12.692,12.518,12.692c3.704,0,7.757-1.88,10.695-4.819l5.462,5.934c-4.348,4.465-10.631,7.346-16.629,7.346
			c-12.276,0-21.562-9.107-21.562-21.033c0-11.871,9.458-20.803,21.919-20.803C312.381,30.692,318.608,33.337,322.661,37.512z"/>
	</g>
	<g>
		<polygon fill="#3080BA" points="44.729,0 89.351,25.759 44.729,51.706 0.11,25.759 		"/>
		<polygon fill="#E54C25" points="44.729,103.224 89.351,77.277 89.351,25.759 44.729,51.706 		"/>
		<polygon fill="#76B843" points="44.738,103.224 0.11,77.277 0.11,25.759 44.738,51.706 		"/>
		<path fill="#FFFFFF" d="M38.459,41.913c4.405-1.67,5.954-12.492,6.715-20.335c0.771,7.732,2.989,17.904,6.775,19.845
			c1.281,0.66,2.913,0.997,4.851,0.997c5.953,0,30.223-15.969,32.553-16.661c-2.964,2.451-30.986,17.139-30.986,27.878
			c0,5.341,6,11.771,12.283,16.565c-5.338-2.553-11.186-4.774-15.335-4.774c-1.507,0-2.744,0.283-3.655,0.892
			c-7.722,5.149-6.249,32.88-7.04,36.903c-0.688-3.875,0.975-32.173-6.071-36.894c-1.058-0.71-2.44-1.137-4.177-1.137
			c-3.833-0.004-8.888,2.294-13.713,4.57c5.663-4.436,11.406-11.008,11.406-16.119c0-10.186-26.613-23.962-31.955-27.885
			c4.828,2.021,25.402,16.597,35.511,16.597C36.526,42.356,38.459,41.913,38.459,41.913"/>
	</g>
</g>
</svg>
