<?xml version="1.0" encoding="UTF-8"?>
<svg id="Livello_1" xmlns="http://www.w3.org/2000/svg" version="1.1" viewBox="0 0 380.82 119.06">
  <!-- Generator: Adobe Illustrator 30.1.0, SVG Export Plug-In . SVG Version: 2.1.1 Build 136)  -->
  <defs>
    <style>
      .st0 {
        fill: #1d1d1b;
      }

      .st1 {
        fill: #65b65a;
      }
    </style>
  </defs>
  <path class="st1" d="M352.47,22.68l-20.33,20.33-20.33-20.33c-15.66,0-28.35,12.69-28.35,28.35s12.69,28.35,28.35,28.35l20.33-20.33,20.33,20.33c15.66,0,28.35-12.69,28.35-28.35s-12.69-28.35-28.35-28.35ZM307.65,67.5c-7.38-1.86-12.85-8.52-12.85-16.47s5.47-14.61,12.85-16.47l16.47,16.47-16.47,16.47ZM356.63,67.5l-16.47-16.47,16.47-16.47c7.38,1.86,12.85,8.52,12.85,16.47s-5.47,14.61-12.85,16.47Z"/>
  <g>
    <path class="st0" d="M123.31,22.68h-11.34v17.01l-17.01-17.01c-15.66,0-28.35,12.69-28.35,28.35s12.69,28.35,28.35,28.35l17.01-17.01v17.01h11.34V22.68ZM90.8,67.5c-7.38-1.86-12.85-8.52-12.85-16.47s5.47-14.61,12.85-16.47l16.47,16.47-16.47,16.47Z"/>
    <path class="st0" d="M214.02,0h-11.34v39.69l-17.01-17.01c-15.66,0-28.35,12.69-28.35,28.35s12.69,28.35,28.35,28.35l17.01-17.01v17.01h11.34V0ZM181.51,67.5c-7.38-1.86-12.85-8.52-12.85-16.47s5.47-14.61,12.85-16.47l16.47,16.47-16.47,16.47Z"/>
    <path class="st0" d="M56.69,22.68h-11.34v17.01l-17.01-17.01C12.69,22.68,0,35.37,0,51.02s12.69,28.35,28.35,28.35l17.01-17.01v23.65l-25.03,25.03,8.02,8.02,28.35-28.35V22.68ZM24.18,67.5c-7.38-1.86-12.85-8.52-12.85-16.47s5.47-14.61,12.85-16.47l16.47,16.47-16.47,16.47Z"/>
    <rect class="st0" x="137.48" width="11.34" height="79.37"/>
    <rect class="st0" x="228.19" y="22.68" width="11.34" height="56.69"/>
    <rect class="st0" x="228.19" width="11.34" height="11.34"/>
  </g>
</svg>