<svg width="185" height="37" viewBox="0 0 185 37" fill="none" xmlns="http://www.w3.org/2000/svg">
<path d="M72 35.4193H66.7C66.4 35.4193 66.1 35.1193 66.1 34.8193V22.1193C66.1 21.4193 66 20.7193 65.8 20.0193C65.6 19.3193 65.3 18.7193 64.9 18.2193C64.5 17.7193 64 17.3193 63.4 17.0193C62.8 16.7193 62.1 16.5193 61.2 16.5193C59.7 16.5193 58.5 17.0193 57.7 18.1193C56.8 19.2193 56.4 20.5193 56.4 22.1193V34.8193C56.4 35.1193 56.1 35.4193 55.8 35.4193H50.5C50.2 35.4193 49.9 35.1193 49.9 34.8193V22.1193C49.9 20.5193 49.4 19.2193 48.5 18.2193C47.6 17.1193 46.3 16.6193 44.8 16.6193C43.2 16.6193 42 17.1193 41.1 18.2193C40.2 19.3193 39.7 20.6193 39.7 22.2193V34.9193C39.7 35.2193 39.4 35.5193 39.1 35.5193H34.1C33.8 35.5193 33.5 35.2193 33.5 34.9193V11.5193C33.5 11.2193 33.8 10.9193 34.1 10.9193H40V13.7193C40.7 12.9193 41.6 12.1193 42.8 11.5193C44 10.8193 45.3 10.5193 46.8 10.5193C48.2 10.5193 49.5 10.8193 50.7 11.5193C51.9 12.1193 52.9 13.0193 53.8 14.0193C54.9 12.9193 56.2 12.1193 57.5 11.5193C58.9 10.9193 60.3 10.6193 61.8 10.6193C63.4 10.6193 64.9 10.9193 66.2 11.5193C67.5 12.1193 68.7 12.9193 69.6 14.0193C70.5 15.1193 71.3 16.3193 71.8 17.7193C72.3 19.1193 72.6 20.6193 72.6 22.3193V35.0193C72.6 35.1193 72.3 35.4193 72 35.4193Z" fill="white"/>
<path d="M75.2998 23.1194C75.2998 21.4194 75.5998 19.8194 76.1998 18.3194C76.7998 16.8194 77.5998 15.5194 78.6998 14.4194C79.7998 13.3194 80.9998 12.4194 82.3998 11.8194C83.7998 11.2194 85.3998 10.8194 87.0998 10.8194C88.2998 10.8194 89.4998 11.0194 90.6998 11.5194C91.8998 12.0194 92.8998 12.6194 93.6998 13.4194V0.619381C93.6998 0.219381 94.0998 -0.0806185 94.4998 0.0193815L99.8998 1.61938V34.8194C99.8998 35.1194 99.5998 35.4194 99.2998 35.4194H94.2998C93.9998 35.4194 93.6998 35.1194 93.6998 34.8194V32.7194C92.8998 33.5194 91.8998 34.2194 90.6998 34.6194C89.4998 35.1194 88.2998 35.3194 87.0998 35.3194C85.3998 35.3194 83.7998 35.0194 82.3998 34.3194C80.9998 33.7194 79.6998 32.8194 78.6998 31.7194C77.5998 30.6194 76.7998 29.3194 76.1998 27.8194C75.5998 26.4194 75.2998 24.8194 75.2998 23.1194ZM94.6998 23.1194C94.6998 22.2194 94.4998 21.3194 94.1998 20.5194C93.8998 19.7194 93.3998 19.0194 92.7998 18.4194C92.1998 17.8194 91.4998 17.3194 90.6998 17.0194C89.8998 16.7194 88.9998 16.5194 88.0998 16.5194C87.1998 16.5194 86.2998 16.7194 85.4998 17.0194C84.6998 17.3194 83.9998 17.8194 83.3998 18.4194C82.7998 19.0194 82.2998 19.7194 81.9998 20.5194C81.6998 21.3194 81.4998 22.2194 81.4998 23.1194C81.4998 24.0194 81.6998 24.9194 81.9998 25.7194C82.2998 26.5194 82.7998 27.2194 83.3998 27.8194C83.9998 28.4194 84.6998 28.9194 85.4998 29.2194C86.2998 29.5194 87.1998 29.7194 88.0998 29.7194C88.9998 29.7194 89.8998 29.5194 90.6998 29.2194C91.4998 28.9194 92.1998 28.4194 92.7998 27.8194C93.3998 27.2194 93.8998 26.5194 94.1998 25.7194C94.4998 24.9194 94.6998 24.1194 94.6998 23.1194Z" fill="white"/>
<path d="M133.3 11.1194V14.1194C132.6 13.3194 131.8 12.7194 130.9 12.2194C129.3 11.3194 127.5 10.9194 125.5 10.9194C123.2 10.9194 121.1 11.4194 119.2 12.5194C117.3 13.5194 115.9 15.0194 114.8 16.8194C113.7 18.7194 113.2 20.8194 113.2 23.4194C113.2 25.9194 113.7 28.1194 114.8 30.0194C115.9 31.9194 117.3 33.3194 119.2 34.4194C121.1 35.4194 123.2 36.0194 125.5 36.0194C127.6 36.0194 129.4 35.5194 131 34.6194C132 34.0194 132.8 33.3194 133.5 32.4194V35.1194C133.5 35.4194 133.8 35.7194 134.1 35.7194H138.4C138.7 35.7194 139 35.4194 139 35.1194V11.6194C139 11.3194 138.7 11.0194 138.4 11.0194H133.3V11.1194ZM132.5 27.3194C131.9 28.5194 131 29.3194 129.9 29.9194C128.8 30.5194 127.6 30.8194 126.2 30.8194C124.8 30.8194 123.6 30.5194 122.5 29.9194C121.4 29.3194 120.6 28.4194 119.9 27.3194C119.3 26.1194 118.9 24.8194 118.9 23.2194C118.9 21.6194 119.2 20.3194 119.9 19.1194C120.5 18.0194 121.4 17.1194 122.5 16.5194C123.6 15.9194 124.8 15.6194 126.2 15.6194C127.6 15.6194 128.8 15.9194 129.9 16.5194C131 17.1194 131.9 18.0194 132.5 19.1194C133.1 20.2194 133.5 21.6194 133.5 23.2194C133.4 24.8194 133.1 26.1194 132.5 27.3194Z" fill="white"/>
<path d="M109.6 10.9194V34.8194C109.6 35.1194 109.3 35.4194 109 35.4194H104C103.7 35.4194 103.4 35.1194 103.4 34.8194V10.9194H109.6Z" fill="white"/>
<path d="M109.6 8.31934H103.4V3.31934L109.2 5.11934C109.4 5.21934 109.6 5.41934 109.6 5.71934V8.31934Z" fill="white"/>
<path d="M144.4 15.3194V10.9194H145.1L147 14.1194H146.6L148.5 10.9194H149.2V15.3194H148.4V12.1194H148.6L147 14.8194H146.6L145 12.1194H145.2V15.3194H144.4Z" fill="white"/>
<path d="M149.8 15.3194L151.8 10.9194H152.6L154.6 15.3194H153.7L152 11.3194H152.3L150.6 15.3194H149.8ZM150.7 14.2194L150.9 13.6194H153.3L153.5 14.2194H150.7Z" fill="white"/>
<path d="M155.1 15.3194V10.9194H155.9V14.6194H158.2V15.3194H155.1Z" fill="white"/>
<path d="M159.3 15.3194V11.5194H157.8V10.9194H161.6V11.5194H160.1V15.3194H159.3Z" fill="white"/>
<path d="M161.1 15.3194L163.1 10.9194H163.9L165.9 15.3194H165L163.3 11.3194H163.6L161.9 15.3194H161.1ZM162 14.2194L162.2 13.6194H164.6L164.8 14.2194H162Z" fill="white"/>
<path d="M144.4 22.0194V17.6194H146.3C146.8 17.6194 147.2 17.7194 147.6 17.9194C148 18.1194 148.2 18.3194 148.4 18.7194C148.6 19.0194 148.7 19.4194 148.7 19.9194C148.7 20.3194 148.6 20.7194 148.4 21.1194C148.2 21.4194 147.9 21.7194 147.6 21.9194C147.3 22.1194 146.8 22.2194 146.3 22.2194H144.4V22.0194ZM145.2 21.3194H146.3C146.6 21.3194 146.9 21.2194 147.2 21.1194C147.4 21.0194 147.6 20.8194 147.8 20.6194C147.9 20.4194 148 20.1194 148 19.8194C148 19.5194 147.9 19.2194 147.8 19.0194C147.7 18.8194 147.5 18.6194 147.2 18.5194C146.9 18.4194 146.7 18.3194 146.3 18.3194H145.2V21.3194Z" fill="white"/>
<path d="M150.4 17.6194H149.6V22.0194H150.4V17.6194Z" fill="white"/>
<path d="M153.6 22.0194C153.3 22.0194 152.9 21.9194 152.6 21.8194C152.3 21.7194 152.1 21.5194 151.8 21.3194C151.6 21.1194 151.4 20.9194 151.3 20.6194C151.2 20.3194 151.1 20.0194 151.1 19.7194C151.1 19.4194 151.2 19.1194 151.3 18.8194C151.4 18.5194 151.6 18.3194 151.8 18.1194C152 17.9194 152.3 17.7194 152.6 17.6194C152.9 17.5194 153.2 17.4194 153.6 17.4194C154 17.4194 154.3 17.5194 154.6 17.6194C154.9 17.7194 155.2 17.9194 155.4 18.1194L154.9 18.6194C154.7 18.4194 154.5 18.3194 154.3 18.2194C154.1 18.1194 153.9 18.1194 153.6 18.1194C153.4 18.1194 153.2 18.1194 153 18.2194C152.8 18.3194 152.6 18.4194 152.5 18.5194C152.4 18.6194 152.2 18.8194 152.2 19.0194C152.2 19.2194 152.1 19.4194 152.1 19.6194C152.1 19.8194 152.1 20.0194 152.2 20.2194C152.3 20.4194 152.4 20.6194 152.5 20.7194C152.6 20.8194 152.8 20.9194 153 21.0194C153.2 21.1194 153.4 21.1194 153.6 21.1194C153.8 21.1194 154 21.1194 154.2 21.0194C154.4 20.9194 154.6 20.8194 154.8 20.7194L155.3 21.3194C155.1 21.5194 154.8 21.6194 154.5 21.7194C154.2 22.0194 153.9 22.0194 153.6 22.0194ZM154.6 21.4194V19.7194H155.4V21.5194L154.6 21.4194Z" fill="white"/>
<path d="M157.2 17.6194H156.4V22.0194H157.2V17.6194Z" fill="white"/>
<path d="M159.2 22.0194V18.3194H157.8V17.6194H161.5V18.3194H160V22.0194H159.2Z" fill="white"/>
<path d="M161 22.0194L163 17.6194H163.8L165.8 22.0194H165L163.3 18.0194H163.6L161.9 22.0194H161ZM162 21.0194L162.2 20.4194H164.6L164.8 21.0194H162Z" fill="white"/>
<path d="M166.4 22.0194V17.6194H167.2V21.3194H169.5V22.0194H166.4Z" fill="white"/>
<path d="M145.2 24.3193H144.4V28.7193H145.2V24.3193Z" fill="white"/>
<path d="M146.3 28.7193V24.3193H147L149.8 27.7193H149.4V24.3193H150.3V28.7193H149.6L146.8 25.3193H147.1V28.7193H146.3Z" fill="white"/>
<path d="M151.4 28.7193V24.3193H152.1L154.8 27.7193H154.5V24.3193H155.3V28.7193H154.6L151.9 25.3193H152.2V28.7193H151.4Z" fill="white"/>
<path d="M158.5 28.8195C158.2 28.8195 157.8 28.7195 157.5 28.6195C157.2 28.5195 157 28.3195 156.7 28.1195C156.5 27.9195 156.3 27.7195 156.2 27.4195C156.1 27.1195 156 26.8195 156 26.5195C156 26.2195 156.1 25.9195 156.2 25.6195C156.3 25.3195 156.5 25.1195 156.7 24.9195C156.9 24.7195 157.2 24.5195 157.5 24.4195C157.8 24.3195 158.1 24.2195 158.4 24.2195C158.7 24.2195 159.1 24.3195 159.4 24.4195C159.7 24.5195 159.9 24.7195 160.2 24.9195C160.4 25.1195 160.6 25.3195 160.7 25.6195C160.8 25.9195 160.9 26.2195 160.9 26.5195C160.9 26.8195 160.8 27.1195 160.7 27.4195C160.6 27.7195 160.4 27.9195 160.2 28.1195C160 28.3195 159.7 28.5195 159.4 28.6195C159.2 28.7195 158.9 28.8195 158.5 28.8195ZM158.5 28.0195C158.7 28.0195 158.9 28.0195 159.1 27.9195C159.3 27.8195 159.5 27.7195 159.6 27.6195C159.7 27.5195 159.8 27.3195 159.9 27.1195C160 26.9195 160 26.7195 160 26.5195C160 26.3195 160 26.1195 159.9 25.9195C159.8 25.7195 159.7 25.5195 159.6 25.4195C159.5 25.3195 159.3 25.2195 159.1 25.1195C158.9 25.0195 158.7 25.0195 158.5 25.0195C158.3 25.0195 158.1 25.0195 157.9 25.1195C157.7 25.2195 157.5 25.3195 157.4 25.4195C157.3 25.5195 157.2 25.7195 157.1 25.9195C157 26.1195 157 26.3195 157 26.5195C157 26.7195 157 26.9195 157.1 27.1195C157.2 27.3195 157.3 27.5195 157.4 27.6195C157.5 27.7195 157.7 27.8195 157.9 27.9195C158.1 28.0195 158.3 28.0195 158.5 28.0195Z" fill="white"/>
<path d="M162.9 28.7193L161 24.3193H161.9L163.6 28.3193H163.1L164.8 24.3193H165.6L163.7 28.7193H162.9Z" fill="white"/>
<path d="M165.2 28.7193L167.2 24.3193H168L170 28.7193H169.1L167.4 24.7193H167.7L166 28.7193H165.2ZM166.1 27.7193L166.3 27.1193H168.7L168.9 27.7193H166.1Z" fill="white"/>
<path d="M171 28.7193V25.0193H169.5V24.3193H173.3V25.0193H171.8V28.7193H171Z" fill="white"/>
<path d="M174.6 24.3193H173.8V28.7193H174.6V24.3193Z" fill="white"/>
<path d="M177.9 28.8195C177.6 28.8195 177.2 28.7195 176.9 28.6195C176.6 28.5195 176.4 28.3195 176.1 28.1195C175.9 27.9195 175.7 27.7195 175.6 27.4195C175.5 27.1195 175.4 26.8195 175.4 26.5195C175.4 26.2195 175.5 25.9195 175.6 25.6195C175.7 25.3195 175.9 25.1195 176.1 24.9195C176.3 24.7195 176.6 24.5195 176.9 24.4195C177.2 24.3195 177.5 24.2195 177.8 24.2195C178.1 24.2195 178.5 24.3195 178.8 24.4195C179.1 24.5195 179.3 24.7195 179.6 24.9195C179.8 25.1195 180 25.3195 180.1 25.6195C180.2 25.9195 180.3 26.2195 180.3 26.5195C180.3 26.8195 180.2 27.1195 180.1 27.4195C180 27.7195 179.8 27.9195 179.6 28.1195C179.4 28.3195 179.1 28.5195 178.8 28.6195C178.5 28.7195 178.2 28.8195 177.9 28.8195ZM177.9 28.0195C178.1 28.0195 178.3 28.0195 178.5 27.9195C178.7 27.8195 178.9 27.7195 179 27.6195C179.1 27.5195 179.2 27.3195 179.3 27.1195C179.4 26.9195 179.4 26.7195 179.4 26.5195C179.4 26.3195 179.4 26.1195 179.3 25.9195C179.2 25.7195 179.1 25.5195 179 25.4195C178.9 25.3195 178.7 25.2195 178.5 25.1195C178.3 25.0195 178.1 25.0195 177.9 25.0195C177.7 25.0195 177.5 25.0195 177.3 25.1195C177.1 25.2195 176.9 25.3195 176.8 25.4195C176.7 25.5195 176.6 25.7195 176.5 25.9195C176.4 26.1195 176.4 26.3195 176.4 26.5195C176.4 26.7195 176.4 26.9195 176.5 27.1195C176.6 27.3195 176.7 27.5195 176.8 27.6195C176.9 27.7195 177.1 27.8195 177.3 27.9195C177.4 28.0195 177.7 28.0195 177.9 28.0195Z" fill="white"/>
<path d="M181.1 28.7193V24.3193H181.8L184.5 27.7193H184.2V24.3193H185V28.7193H184.3L181.6 25.3193H181.9V28.7193H181.1Z" fill="white"/>
<path d="M143.8 35.4193L145.8 31.0193H146.6L148.6 35.4193H147.7L146 31.4193H146.3L144.6 35.4193H143.8ZM144.7 34.4193L144.9 33.8193H147.3L147.5 34.4193H144.7Z" fill="white"/>
<path d="M150.8 35.5193C150.2 35.5193 149.7 35.3193 149.4 35.0193C149.1 34.7193 148.9 34.2193 148.9 33.5193V31.0193H149.7V33.5193C149.7 34.0193 149.8 34.3193 150 34.5193C150.2 34.7193 150.5 34.8193 150.8 34.8193C151.1 34.8193 151.4 34.7193 151.6 34.5193C151.8 34.3193 151.9 34.0193 151.9 33.5193V31.0193H152.7V33.5193C152.7 34.1193 152.5 34.6193 152.2 35.0193C151.8 35.3193 151.4 35.5193 150.8 35.5193Z" fill="white"/>
<path d="M154.7 35.4193V31.7193H153.3V31.0193H157V31.7193H155.6V35.4193H154.7Z" fill="white"/>
<path d="M158.4 35.4193H157.6V31.0193H158.4V35.4193ZM160.8 33.5193H158.4V32.8193H160.8V33.5193ZM160.7 31.0193H161.5V35.4193H160.7V31.0193Z" fill="white"/>
<path d="M164.8 35.5194C164.5 35.5194 164.1 35.4194 163.8 35.3194C163.5 35.2194 163.3 35.0194 163 34.8194C162.8 34.6194 162.6 34.4194 162.5 34.1194C162.4 33.8194 162.3 33.5194 162.3 33.2194C162.3 32.9194 162.4 32.6194 162.5 32.3194C162.6 32.0194 162.8 31.8194 163 31.6194C163.2 31.4194 163.5 31.2194 163.8 31.1194C164.1 31.0194 164.4 30.9194 164.7 30.9194C165 30.9194 165.4 31.0194 165.6 31.1194C165.9 31.2194 166.1 31.4194 166.4 31.6194C166.6 31.8194 166.8 32.0194 166.9 32.3194C167 32.6194 167.1 32.9194 167.1 33.2194C167.1 33.5194 167 33.8194 166.9 34.1194C166.8 34.4194 166.6 34.6194 166.4 34.8194C166.2 35.0194 165.9 35.2194 165.6 35.3194C165.4 35.4194 165.1 35.5194 164.8 35.5194ZM164.7 34.7194C164.9 34.7194 165.1 34.7194 165.3 34.6194C165.5 34.5194 165.7 34.4194 165.8 34.3194C165.9 34.2194 166 34.0194 166.1 33.8194C166.2 33.6194 166.2 33.4194 166.2 33.2194C166.2 33.0194 166.2 32.8194 166.1 32.6194C166 32.4194 165.9 32.2194 165.8 32.1194C165.7 32.0194 165.5 31.9194 165.3 31.8194C165.1 31.7194 164.9 31.7194 164.7 31.7194C164.5 31.7194 164.3 31.7194 164.1 31.8194C163.9 31.9194 163.7 32.0194 163.6 32.1194C163.5 32.2194 163.4 32.4194 163.3 32.6194C163.2 32.8194 163.2 33.0194 163.2 33.2194C163.2 33.4194 163.2 33.6194 163.3 33.8194C163.4 34.0194 163.5 34.2194 163.6 34.3194C163.7 34.4194 163.9 34.5194 164.1 34.6194C164.3 34.7194 164.5 34.7194 164.7 34.7194Z" fill="white"/>
<path d="M168 35.4193V31.0193H169.8C170.2 31.0193 170.5 31.1193 170.8 31.2193C171.1 31.3193 171.3 31.5193 171.4 31.7193C171.6 31.9193 171.6 32.2193 171.6 32.5193C171.6 32.8193 171.5 33.1193 171.4 33.3193C171.2 33.5193 171 33.7193 170.8 33.8193C170.5 33.9193 170.2 34.0193 169.8 34.0193H168.4L168.8 33.6193V35.3193H168V35.4193ZM168.8 33.8193L168.4 33.4193H169.7C170.1 33.4193 170.3 33.3193 170.5 33.2193C170.7 33.0193 170.8 32.8193 170.8 32.6193C170.8 32.3193 170.7 32.1193 170.5 31.9193C170.3 31.7193 170 31.7193 169.7 31.7193H168.4L168.8 31.3193V33.8193ZM170.9 35.4193L169.8 33.8193H170.7L171.8 35.4193H170.9Z" fill="white"/>
<path d="M173.3 31.0193H172.5V35.4193H173.3V31.0193Z" fill="white"/>
<path d="M175.4 35.4193V31.7193H173.9V31.0193H177.7V31.7193H176.2V35.4193H175.4Z" fill="white"/>
<path d="M179.7 35.4193V33.6193L179.9 34.2193L177.9 31.0193H178.8L180.4 33.5193H179.9L181.4 31.0193H182.2L180.3 34.2193L180.5 33.6193V35.4193H179.7Z" fill="white"/>
<path d="M15.6 32.0195L14.5 35.5195H8.3C7.5 35.5195 6.7 35.1195 6.3 34.4195L0.3 24.3195C0.1 24.0195 0 23.6195 0 23.2195L5 21.7195L13 24.4195L15.6 32.0195Z" fill="#D1D3D4"/>
<path d="M15.6001 31.8193L20.4001 17.0193L15.6001 31.8193Z" fill="#6752A2"/>
<path d="M28.2 24.3193L22.2 34.4193C22 34.7193 21.7 35.0193 21.4 35.2193C21.1 35.4193 20.7 35.5193 20.3 35.5193H14.5L15.6 32.0193L15.7 31.8193L17.3 26.8193L20.5 17.0193L23.8 16.0193L24.6 15.8193L28.4 22.1193C28.6 22.8193 28.6 23.6193 28.2 24.3193Z" fill="#A7A9AC"/>
<path d="M24.5 15.8193L23.7 16.0193L20.4 17.0193L5 21.7193L0 23.2193C0 23.1193 0 23.1193 0 23.0193V22.9193C0 22.8193 0 22.8193 0 22.7193V22.6193C0 22.5193 0 22.5193 0.1 22.4193C0.1 22.4193 0.1 22.4193 0.1 22.3193C0.1 22.2193 0.2 22.1193 0.2 22.0193L6.2 11.9193C6.4 11.6193 6.6 11.4193 6.9 11.2193C7.3 11.0193 7.7 10.8193 8.2 10.8193H20.2C20.5 10.8193 20.8 10.9193 21.1 11.0193C21.3 11.1193 21.5 11.2193 21.6 11.3193C21.7 11.4193 21.8 11.4193 21.8 11.5193C21.9 11.6193 21.9 11.7193 22 11.7193C22 11.8193 22.1 11.8193 22.2 11.9193L24.5 15.8193Z" fill="white"/>
</svg>
