<?xml version="1.0" encoding="UTF-8"?>
<svg id="Livello_1" data-name="Livello 1" xmlns="http://www.w3.org/2000/svg" xmlns:xlink="http://www.w3.org/1999/xlink" viewBox="0 0 199.37 182">
  <defs>
    <style>
      .cls-1 {
        fill: url(#Sfumatura_senza_nome);
        stroke-width: 0px;
      }
    </style>
    <linearGradient id="Sfumatura_senza_nome" data-name="Sfumatura senza nome" x1="0" y1="-82.92" x2="199.37" y2="-82.92" gradientTransform="translate(0 8.08) scale(1 -1)" gradientUnits="userSpaceOnUse">
      <stop offset="0" stop-color="#323232"/>
      <stop offset="1" stop-color="#646464"/>
    </linearGradient>
  </defs>
  <g id="Livello_2" data-name="Livello 2">
    <g id="Livello_1-2" data-name="Livello 1-2">
      <path class="cls-1" d="m36.21,126.15l-6.21,25.85h-7.74l-4.14-17.32-4.12,17.32h-7.81L0,126.15h6.81l3.33,18.74,4.54-18.74h6.85l4.54,18.74,3.37-18.74h6.77Zm34.73,2.12c2.09,1.56,3.49,3.87,3.92,6.44h-6.62c-.44-.92-1.13-1.69-2-2.21-2.63-1.44-5.89-.96-8,1.17-1.26,1.51-1.89,3.44-1.79,5.4-.14,2.06.54,4.1,1.88,5.67,1.43,1.39,3.38,2.12,5.37,2,1.41.03,2.78-.41,3.92-1.23,1.16-.87,2-2.11,2.38-3.51h-7.95v-4.5h13.14v6.18c-.5,1.54-1.3,2.97-2.34,4.21-1.13,1.32-2.54,2.38-4.12,3.11-1.79.85-3.75,1.28-5.73,1.25-2.39.05-4.75-.52-6.85-1.67-1.93-1.08-3.5-2.7-4.52-4.66-2.12-4.32-2.12-9.38,0-13.7,1.02-1.96,2.58-3.57,4.5-4.66,2.08-1.15,4.43-1.73,6.8-1.67,2.86-.12,5.68.72,8.01,2.38Zm17,4.21c1.21-.72,2.59-1.1,4-1.1v6.7h-1.74c-1.37-.08-2.73.29-3.86,1.06-.99.92-1.49,2.25-1.34,3.59v9.27h-6.29v-20.4h6.29v3.84c.75-1.21,1.78-2.23,3-2.96h-.06Zm21.63.13c1.58.82,2.89,2.09,3.77,3.64,1.84,3.48,1.84,7.65,0,11.13-.88,1.55-2.19,2.82-3.77,3.64-1.68.87-3.54,1.3-5.43,1.27-1.88.02-3.74-.42-5.41-1.29-1.59-.82-2.91-2.08-3.79-3.64-1.82-3.49-1.82-7.64,0-11.13.88-1.56,2.2-2.82,3.79-3.64,1.69-.86,3.56-1.3,5.46-1.27,1.89-.02,3.75.42,5.43,1.29h-.05Zm-8.45,5.45c-.88,1.05-1.32,2.39-1.23,3.76-.1,1.36.35,2.7,1.23,3.73,1.61,1.66,4.25,1.7,5.91.09.03-.03.06-.06.09-.09.87-1.04,1.31-2.38,1.21-3.73.1-1.36-.34-2.71-1.21-3.76-1.57-1.66-4.18-1.73-5.84-.16-.06.05-.11.11-.16.16Zm37.18-6.46v20.4h-6.3v-3.7c-.58,1.19-1.49,2.18-2.62,2.86-1.21.72-2.59,1.08-4,1.06-2.12.1-4.17-.76-5.59-2.34-1.47-1.82-2.2-4.12-2.07-6.45v-11.83h6.28v11.09c-.08,1.18.31,2.34,1.08,3.24.76.79,1.82,1.21,2.91,1.16,1.13.06,2.23-.39,3-1.21.78-.97,1.17-2.2,1.1-3.44v-10.84h6.21Zm21.58,1c1.37.89,2.46,2.14,3.15,3.62,1.53,3.56,1.53,7.59,0,11.15-.68,1.49-1.78,2.75-3.15,3.64-1.35.85-2.92,1.3-4.52,1.27-1.41.03-2.8-.34-4-1.07-1.1-.68-1.96-1.69-2.45-2.89v13.44h-6.27v-30.16h6.27v3.7c.49-1.2,1.35-2.21,2.45-2.89,1.2-.73,2.59-1.1,4-1.07,1.61-.03,3.2.41,4.57,1.27h-.05Zm-9.78,5.56c-1.68,2.13-1.68,5.14,0,7.27,1.8,1.77,4.68,1.77,6.48,0,1.64-2.17,1.64-5.16,0-7.33-1.8-1.76-4.68-1.76-6.48,0v.06ZM16.51,9.77c1.54.8,2.81,2.03,3.67,3.54.92,1.66,1.38,3.53,1.33,5.42.04,1.89-.41,3.76-1.33,5.41-.86,1.51-2.13,2.74-3.67,3.54-1.63.84-3.45,1.26-5.28,1.23-1.84.03-3.67-.39-5.31-1.23-1.54-.8-2.82-2.03-3.68-3.54-.92-1.65-1.38-3.52-1.34-5.41-.04-1.89.42-3.76,1.34-5.42.86-1.51,2.14-2.74,3.68-3.54,1.64-.84,3.47-1.26,5.31-1.23,1.83-.03,3.65.39,5.28,1.23Zm-8.22,5.31c-.86,1.02-1.28,2.32-1.19,3.65-.1,1.32.33,2.63,1.19,3.63.76.81,1.83,1.27,2.94,1.24,1.1.03,2.16-.43,2.91-1.24.85-1.01,1.27-2.31,1.18-3.63.09-1.32-.33-2.63-1.18-3.65-.74-.83-1.8-1.29-2.91-1.27-1.12-.02-2.19.44-2.94,1.27Zm25.71-8.99c-.78-.07-1.55.16-2.17.64-.5.57-.77,1.3-.75,2.06h3.6v5.13h-3.6v14.74h-6.08v-14.74h-2.42v-5.13h2.42v-.21c-.14-2.12.65-4.2,2.15-5.71,1.75-1.44,3.99-2.16,6.25-2h1.28v5.25l-.68-.03Zm12.64,0c-.78-.07-1.55.16-2.17.64-.5.57-.77,1.3-.75,2.06h3.6v5.13h-3.6v14.74h-6.12v-14.74h-2.38v-5.13h2.38v-.21c-.13-2.13.65-4.21,2.16-5.71,1.74-1.45,3.98-2.17,6.24-2.02h1.28v5.27l-.64-.03Zm3.28-5.18c1.55-1.21,3.72-1.21,5.27,0,.65.58,1.02,1.42,1,2.29.02.86-.35,1.69-1,2.26-1.55,1.21-3.72,1.21-5.27,0-.65-.57-1.02-1.4-1-2.26-.02-.87.35-1.71,1-2.29Zm5.66,7.88v19.87h-6.09V8.79h6.09Zm19.15,1.87c1.77,1.47,2.93,3.54,3.27,5.82h-6.44c-.28-1.64-1.75-2.81-3.41-2.7-1.02-.03-2,.42-2.64,1.22-.75,1.08-1.1,2.38-1,3.69-.1,1.31.25,2.61,1,3.68.63.81,1.61,1.28,2.64,1.26,1.64.11,3.1-1.02,3.41-2.63h6.44c-.34,2.28-1.51,4.35-3.28,5.82-1.83,1.44-4.11,2.2-6.44,2.12-1.8.03-3.59-.39-5.18-1.23-1.5-.81-2.73-2.04-3.54-3.54-.88-1.66-1.32-3.53-1.28-5.41-.05-1.89.39-3.76,1.26-5.43.81-1.5,2.04-2.73,3.54-3.53,1.6-.84,3.39-1.26,5.2-1.23,2.33-.09,4.61.65,6.45,2.09Zm6.41-9.75c1.55-1.21,3.72-1.21,5.27,0,.65.58,1.02,1.42,1,2.29.02.86-.35,1.69-1,2.26-1.55,1.21-3.72,1.21-5.27,0-.65-.57-1.02-1.4-1-2.26-.02-.87.35-1.71,1-2.29Zm5.66,7.88v19.87h-6.09V8.79h6.09Zm21.77,2.07c1.42,1.77,2.13,4,2,6.26v11.54h-6.09v-10.82c.08-1.13-.28-2.25-1-3.12-.72-.76-1.74-1.17-2.79-1.12-1.1-.05-2.18.37-2.94,1.17-.77.94-1.16,2.14-1.08,3.35v10.54h-6.13V8.79h6.09v3.63c.55-1.17,1.44-2.14,2.54-2.81,1.21-.7,2.6-1.05,4-1,2.05-.09,4.03.73,5.4,2.25Zm17-1.28c1.08.66,1.93,1.64,2.43,2.81v-3.6h6.06v19.87h-6.06v-3.6c-.49,1.17-1.34,2.15-2.42,2.81-1.18.7-2.54,1.05-3.91,1-1.56.03-3.08-.4-4.4-1.23-1.33-.87-2.39-2.1-3.06-3.54-.78-1.69-1.16-3.54-1.12-5.41-.05-1.87.34-3.73,1.12-5.43.67-1.44,1.73-2.66,3.06-3.53,1.32-.83,2.84-1.26,4.4-1.23,1.39-.03,2.75.35,3.93,1.08h-.03Zm-5.1,5.59c-.85.99-1.28,2.26-1.2,3.56-.08,1.3.35,2.57,1.2,3.56,1.74,1.73,4.56,1.73,6.3,0,.86-.98,1.3-2.26,1.23-3.56.07-1.3-.37-2.57-1.22-3.55-.82-.86-1.96-1.34-3.15-1.3-1.18-.04-2.32.43-3.13,1.29h-.03ZM11.69,45.81c-.78-.07-1.56.16-2.17.65-.51.56-.77,1.3-.75,2.06h3.59v5.13h-3.59v14.73H2.68v-14.73H.3v-5.13h2.38v-.21c-.13-2.13.65-4.21,2.15-5.72,1.44-1.33,3.52-2,6.25-2h1.28v5.23h-.67Zm22.64,2.71v19.86h-6.12v-3.59c-.56,1.15-1.45,2.12-2.55,2.78-1.19.69-2.55,1.03-3.93,1-2.06.09-4.05-.74-5.43-2.28-1.42-1.77-2.13-4-2-6.27v-11.5h6.05v10.79c-.07,1.15.31,2.28,1.05,3.15.74.76,1.77,1.17,2.83,1.12,1.1.06,2.17-.37,2.92-1.18.77-.94,1.15-2.13,1.07-3.34v-10.54h6.11Zm15,14.63v5.23h-2.76c-1.96.12-3.89-.49-5.42-1.72-1.3-1.15-1.94-3.06-1.94-5.72v-7.29h-2.67v-5.13h2.67v-4.88h6.08v4.88h4v5.13h-4v7.4c-.06.59.11,1.18.48,1.64.46.35,1.04.52,1.62.46h1.94Zm22.67-14.63v19.86h-6.1v-3.59c-.56,1.16-1.44,2.12-2.54,2.78-1.19.69-2.55,1.03-3.93,1-2.06.1-4.05-.72-5.43-2.25-1.42-1.77-2.13-4-2-6.27v-11.53h6v10.79c-.07,1.15.31,2.28,1.05,3.15,1.63,1.52,4.16,1.49,5.75-.06.76-.94,1.14-2.13,1.06-3.34v-10.54h6.14Zm12.76.85c1.18-.7,2.53-1.07,3.9-1.06v6.51h-1.72c-1.33-.09-2.64.26-3.75,1-.98.88-1.47,2.18-1.34,3.49v9h-6.08v-19.79h6.08v3.74c.74-1.18,1.74-2.18,2.94-2.89h-.03Zm20.58.13c1.53.79,2.8,2.01,3.66,3.5,1.79,3.39,1.79,7.43,0,10.82-.85,1.51-2.12,2.74-3.66,3.55-3.34,1.63-7.25,1.63-10.59,0-1.55-.8-2.83-2.03-3.69-3.55-1.77-3.39-1.77-7.43,0-10.82.86-1.51,2.14-2.74,3.69-3.54,3.34-1.64,7.25-1.64,10.59,0v.04Zm-8.23,5.3c-.82,1.03-1.22,2.34-1.11,3.65-.09,1.32.34,2.62,1.19,3.63.76.81,1.83,1.27,2.94,1.25,1.09,0,2.13-.45,2.87-1.25.84-1.01,1.26-2.31,1.17-3.63.09-1.32-.33-2.63-1.17-3.65-.74-.82-1.81-1.28-2.92-1.26-1.12-.02-2.19.44-2.94,1.26h-.03ZM11.69,85.54c-.78-.07-1.55.16-2.17.64-.5.57-.77,1.31-.75,2.07h3.59v5.12h-3.59v14.74H2.68v-14.74H.3v-5.12h2.38v-.25c-.13-2.12.65-4.2,2.15-5.71,1.44-1.33,3.52-2,6.25-2h1.28v5.24h-.67Zm17.46,3.69c1.54.8,2.81,2.03,3.67,3.54,1.77,3.39,1.77,7.43,0,10.82-.86,1.51-2.13,2.74-3.67,3.54-1.64.84-3.45,1.26-5.29,1.23-1.84.03-3.66-.39-5.3-1.23-1.55-.8-2.83-2.03-3.69-3.54-1.77-3.39-1.77-7.43,0-10.82.86-1.51,2.14-2.75,3.69-3.54,1.64-.84,3.46-1.26,5.3-1.23,1.84-.03,3.65.39,5.29,1.23Zm-8.22,5.3c-.86,1.01-1.29,2.32-1.2,3.65-.1,1.32.33,2.63,1.2,3.63.75.82,1.82,1.27,2.93,1.25,1.11.02,2.17-.43,2.92-1.25.87-1,1.3-2.31,1.22-3.63.09-1.32-.33-2.63-1.18-3.65-.74-.82-1.81-1.28-2.92-1.26-1.13-.03-2.21.43-2.97,1.26Zm34-4.22c1.42,1.77,2.13,4,2,6.27v11.53h-6.12v-10.82c.07-1.14-.31-2.26-1.05-3.12-.72-.75-1.72-1.15-2.76-1.12-1.13-.07-2.23.36-3,1.18-.78.93-1.17,2.13-1.09,3.34v10.54h-6.05v-19.86h6.08v3.63c.55-1.17,1.44-2.15,2.55-2.81,1.21-.7,2.6-1.05,4-1,2.04-.09,4.02.73,5.4,2.24h.04Zm17-1.28c1.07.67,1.9,1.65,2.39,2.81v-10.07h6.08v26.34h-6.09v-3.59c-.49,1.16-1.32,2.14-2.39,2.81-1.18.7-2.54,1.05-3.91,1-1.56.03-3.08-.4-4.4-1.23-1.34-.87-2.4-2.09-3.06-3.54-1.49-3.46-1.49-7.38,0-10.84.66-1.44,1.73-2.66,3.06-3.52,1.32-.82,2.84-1.23,4.39-1.2,1.38-.05,2.74.3,3.92,1v.03Zm-5.11,5.59c-1.59,2.11-1.59,5.01,0,7.12.83.86,1.99,1.32,3.18,1.26,1.19.04,2.34-.44,3.15-1.32,1.64-2.07,1.64-4.99,0-7.06-1.75-1.72-4.55-1.72-6.3,0h-.03Zm28.77-5.62c1.07.68,1.91,1.67,2.41,2.84v-3.59h6v19.86h-6v-3.59c-.51,1.16-1.35,2.14-2.43,2.81-1.18.7-2.54,1.05-3.91,1-1.55.02-3.08-.4-4.4-1.23-1.33-.87-2.39-2.1-3.06-3.54-1.49-3.46-1.49-7.38,0-10.84.67-1.44,1.73-2.66,3.06-3.52,1.33-.82,2.86-1.24,4.42-1.2,1.37-.05,2.73.3,3.91,1Zm-5.1,5.59c-1.6,2.1-1.6,5.02,0,7.12,1.74,1.73,4.56,1.73,6.3,0,1.64-2.07,1.64-4.99,0-7.06-.81-.87-1.96-1.34-3.15-1.3-1.19-.06-2.34.41-3.15,1.27v-.03Zm22.69,8.4h9.19v5.09h-15.85v-4.8l8.55-10h-8.4v-5h15.33v4.8l-8.82,9.91Zm12-22.66c.73-.63,1.68-.95,2.64-.91.96-.04,1.9.28,2.63.91.65.58,1.02,1.42,1,2.3.02.86-.35,1.69-1,2.26-.73.63-1.67.95-2.63.91-.96.04-1.91-.28-2.64-.91-.64-.57-1.01-1.4-1-2.26,0-.87.37-1.7,1.03-2.27l-.03-.03Zm5.66,7.89v19.86h-6.08v-19.83l6.08-.03Zm18.32,1c1.54.8,2.81,2.03,3.67,3.54,1.77,3.39,1.77,7.43,0,10.82-.86,1.51-2.13,2.74-3.67,3.54-3.34,1.64-7.25,1.64-10.59,0-1.55-.8-2.83-2.03-3.69-3.54-1.77-3.39-1.77-7.43,0-10.82.86-1.51,2.14-2.75,3.69-3.54,3.34-1.64,7.25-1.64,10.59,0Zm-8.16,5.31c-.86,1.01-1.29,2.32-1.2,3.65-.1,1.32.33,2.63,1.2,3.63,1.51,1.62,4.04,1.7,5.65.2.07-.06.13-.13.2-.2.84-1.02,1.25-2.32,1.15-3.63.09-1.32-.33-2.63-1.18-3.65-1.51-1.62-4.04-1.7-5.65-.2-.07.06-.13.13-.2.2h.03Zm34-4.22c1.42,1.77,2.13,4,2,6.27v11.53h-6.09v-10.82c.08-1.13-.28-2.25-1-3.12-.76-.79-1.82-1.2-2.91-1.12-1.11-.06-2.18.38-2.94,1.18-.77.94-1.15,2.13-1.06,3.34v10.54h-6.1v-19.86h6.1v3.63c.55-1.17,1.44-2.15,2.55-2.81,1.21-.7,2.6-1.05,4-1,2.04-.09,4.01.73,5.38,2.24h.07Zm24.26,9h-13.85c-.05,1.18.36,2.33,1.14,3.22,1.38,1.18,3.37,1.31,4.88.31.58-.43.99-1.05,1.17-1.75h6.45c-.26,1.37-.85,2.66-1.71,3.76-.9,1.12-2.05,2.01-3.35,2.6-3.12,1.35-6.67,1.24-9.7-.29-1.5-.81-2.73-2.04-3.54-3.54-.89-1.66-1.33-3.53-1.28-5.41-.05-1.89.39-3.76,1.26-5.43.81-1.5,2.04-2.72,3.54-3.52,3.28-1.63,7.12-1.63,10.4,0,1.46.78,2.66,1.96,3.47,3.4.84,1.53,1.26,3.26,1.23,5,0,.54-.07,1.09-.18,1.62l.07.03Zm-7-5.5c-.74-.66-1.7-1.02-2.69-1-1.02-.03-2.01.32-2.78,1-.78.77-1.23,1.82-1.24,2.92h7.76c.08-1.11-.34-2.19-1.15-2.95l.1.03ZM7.26,175.94v6.06H.87v-6.08l6.39.02Zm40.1-39h-10.14v5h10.05l.09-5Z"/>
    </g>
  </g>
</svg>