<svg width="148" height="34" viewBox="0 0 148 34" fill="none" xmlns="http://www.w3.org/2000/svg">
<g id="Calque_1" clip-path="url(#clip0_2_2532)">
<g id="Group">
<path id="Vector" d="M49.6901 25.9723C48.5922 25.9723 47.5404 25.8267 46.5424 25.5279C45.5443 25.2291 44.6768 24.8076 43.9244 24.2483C43.172 23.6889 42.5962 23.007 42.197 22.2024L44.2622 19.9803C44.577 20.486 44.9916 20.9841 45.4983 21.4668C46.005 21.9495 46.6192 22.348 47.3408 22.6545C48.0625 22.961 48.884 23.1142 49.8206 23.1142C50.5807 23.1142 51.1949 22.9686 51.6478 22.6851C52.1008 22.4016 52.3311 21.9955 52.3311 21.4668C52.3311 20.8998 52.0624 20.486 51.5403 20.2332C51.0106 19.9803 50.312 19.7504 49.4444 19.5359L47.3792 19.0608C46.5731 18.8463 45.813 18.5781 45.0914 18.2333C44.3697 17.8961 43.7862 17.4364 43.3409 16.8541C42.8957 16.2717 42.673 15.5208 42.673 14.586C42.673 13.1301 43.2104 11.9884 44.2776 11.1609C45.3447 10.3334 46.7727 9.92725 48.5462 9.92725C50.1968 9.92725 51.5864 10.2644 52.7226 10.9387C53.8512 11.613 54.6573 12.3869 55.118 13.2527L53.0221 15.4748C52.4923 14.632 51.8167 13.973 51.0029 13.4903C50.1891 13.0152 49.2832 12.7777 48.2851 12.7777C47.5865 12.7777 47.0337 12.9156 46.6192 13.1914C46.2046 13.4673 45.9973 13.8581 45.9973 14.3638C45.9973 14.9155 46.2276 15.3292 46.6806 15.6127C47.1335 15.8963 47.8783 16.1644 48.9224 16.4173L50.7956 16.8924C52.5307 17.3368 53.7514 17.9191 54.4654 18.6547C55.1717 19.3826 55.5325 20.2945 55.5325 21.3979C55.5325 22.4093 55.2715 23.2598 54.7571 23.9341C54.2351 24.6084 53.5364 25.1141 52.6612 25.4589C51.786 25.7961 50.7956 25.9646 49.6901 25.9646V25.9723Z" fill="#123744"/>
<path id="Vector_2" d="M61.9122 8.0273H58.3575V4.41064H61.9122V8.0273ZM61.9122 25.6508H58.3575V10.2187H61.9122V25.6585V25.6508Z" fill="#123744"/>
<path id="Vector_3" d="M69.221 25.6504H65.6664V10.2183H69.221V25.658V25.6504ZM78.7486 25.6504H75.1939V16.0111C75.1939 14.9307 74.9636 14.1338 74.4953 13.6051C74.027 13.0764 73.2669 12.8159 72.2075 12.8159C71.5088 12.8159 70.9407 12.9921 70.5108 13.3369C70.0732 13.6894 69.7507 14.1721 69.5434 14.7928C69.3285 15.4134 69.2287 16.149 69.2287 16.9995L69.0367 15.5437C69.1442 14.5935 69.3899 13.6817 69.7814 12.8159C70.173 11.95 70.7334 11.2451 71.4628 10.7087C72.1921 10.1723 73.1211 9.89648 74.242 9.89648C75.7007 9.89648 76.8215 10.3332 77.5893 11.1991C78.3647 12.0649 78.7486 13.3063 78.7486 14.9077V25.6504ZM88.2761 25.6504H84.7215V16.0111C84.7215 14.9307 84.4912 14.1338 84.0229 13.6051C83.5546 13.0764 82.7945 12.8159 81.735 12.8159C81.0364 12.8159 80.4683 12.9921 80.0384 13.3369C79.6007 13.6894 79.2783 14.1721 79.071 14.7928C78.856 15.4134 78.7562 16.149 78.7562 16.9995L78.5643 15.5437C78.6718 14.5935 78.9175 13.6817 79.309 12.8159C79.7005 11.95 80.261 11.2451 80.9903 10.7087C81.7197 10.1723 82.6486 9.89648 83.7695 9.89648C85.2282 9.89648 86.3491 10.3332 87.1168 11.1991C87.8923 12.0649 88.2761 13.3063 88.2761 14.9077V25.6504Z" fill="#123744"/>
<path id="Vector_4" d="M95.4854 31.5508H91.9308V10.2187H95.4854V31.5508ZM100.376 25.9726C99.1705 25.9726 98.2185 25.6967 97.5199 25.145C96.8212 24.5933 96.2992 23.8961 95.9614 23.0379C95.6236 22.1797 95.4009 21.2755 95.2935 20.3254L95.4854 18.8695C95.4854 19.7124 95.6082 20.4556 95.8539 21.0916C96.0996 21.7276 96.4758 22.218 96.9978 22.5628C97.5199 22.9153 98.1955 23.0838 99.0477 23.0838C100.146 23.0838 101.074 22.6548 101.827 21.7966C102.579 20.9384 102.955 19.6434 102.955 17.9117C102.955 16.18 102.579 14.8544 101.827 14.0116C101.074 13.1687 100.146 12.7473 99.0477 12.7473C98.2032 12.7473 97.5199 12.9235 96.9978 13.2683C96.4758 13.6208 96.0996 14.1112 95.8539 14.7395C95.6082 15.3755 95.4854 16.1111 95.4854 16.9616L95.2935 15.5057C95.4009 14.5556 95.6236 13.6438 95.9767 12.7779C96.3299 11.9121 96.8596 11.2071 97.5813 10.6708C98.303 10.1344 99.255 9.86621 100.437 9.86621C101.704 9.86621 102.794 10.1957 103.708 10.847C104.621 11.506 105.328 12.4255 105.834 13.6208C106.341 14.8161 106.594 16.249 106.594 17.9194C106.594 19.5898 106.341 20.992 105.834 22.195C105.328 23.398 104.606 24.3328 103.677 24.9841C102.748 25.6431 101.643 25.9649 100.376 25.9649V25.9726Z" fill="#123744"/>
<path id="Vector_5" d="M113.112 25.6505H109.558V4.41797H113.112V25.6581V25.6505Z" fill="#123744"/>
<path id="Vector_6" d="M123.37 25.9725C121.888 25.9725 120.583 25.643 119.447 24.9764C118.31 24.3098 117.435 23.3673 116.813 22.1566C116.191 20.9383 115.877 19.5437 115.877 17.9576C115.877 16.3715 116.191 14.9233 116.813 13.728C117.435 12.5326 118.318 11.5978 119.447 10.9235C120.583 10.2493 121.888 9.91211 123.37 9.91211C124.851 9.91211 126.187 10.2493 127.323 10.9235C128.46 11.5978 129.343 12.5326 129.972 13.728C130.609 14.9233 130.924 16.3332 130.924 17.9576C130.924 19.5821 130.609 20.946 129.972 22.1566C129.335 23.3749 128.452 24.3098 127.323 24.9764C126.187 25.643 124.874 25.9725 123.37 25.9725ZM123.4 23.0225C124.183 23.0225 124.867 22.8462 125.45 22.4861C126.034 22.126 126.487 21.5743 126.817 20.8234C127.147 20.0724 127.308 19.1146 127.308 17.9576C127.308 16.8006 127.147 15.7815 126.817 15.0383C126.487 14.3027 126.034 13.751 125.45 13.3908C124.867 13.0307 124.183 12.8545 123.4 12.8545C122.656 12.8545 121.995 13.0307 121.397 13.3908C120.805 13.751 120.345 14.3027 120.015 15.0383C119.685 15.7815 119.523 16.747 119.523 17.9576C119.523 19.1683 119.685 20.0801 120.015 20.8234C120.345 21.5743 120.805 22.126 121.397 22.4861C121.988 22.8462 122.656 23.0225 123.4 23.0225Z" fill="#123744"/>
<path id="Vector_7" d="M137.534 25.6507H133.979V10.2186H137.534V25.6584V25.6507ZM147.63 25.6507H144.044V16.0114C144.044 15.0613 143.845 14.2874 143.438 13.6974C143.038 13.1074 142.232 12.8085 141.027 12.8085C140.159 12.8085 139.469 12.9848 138.962 13.3296C138.455 13.682 138.087 14.1648 137.864 14.7854C137.641 15.4061 137.534 16.1417 137.534 16.9922L137.342 15.5363C137.449 14.5862 137.703 13.6744 138.102 12.8085C138.501 11.9427 139.085 11.2377 139.852 10.7014C140.612 10.165 141.587 9.88916 142.777 9.88916C144.282 9.88916 145.465 10.3259 146.332 11.1918C147.2 12.0576 147.637 13.2989 147.637 14.9004V25.643L147.63 25.6507Z" fill="#123744"/>
</g>
<g id="Group_2">
<path id="Vector_8" d="M16.8002 0.25C7.53369 0.25 0.0175781 7.75149 0.0175781 17C0.0175781 26.2485 7.53369 33.75 16.8002 33.75C26.0668 33.75 33.5829 26.2485 33.5829 17C33.5829 7.75149 26.0668 0.25 16.8002 0.25ZM16.8002 29.3824C9.94437 29.3824 4.39366 23.8349 4.39366 17C4.39366 10.1651 9.94437 4.61757 16.8002 4.61757C23.6561 4.61757 29.2068 10.1651 29.2068 17C29.2068 23.8349 23.6484 29.3824 16.8002 29.3824Z" fill="#CE0033"/>
<path id="Vector_9" d="M18.9352 10.8931H14.6589V15.161H18.9352V10.8931Z" fill="#CE0033"/>
<path id="Vector_10" d="M18.9352 18.8394H14.6589V23.1073H18.9352V18.8394Z" fill="#CE0033"/>
</g>
</g>
<defs>
<clipPath id="clip0_2_2532">
<rect width="147.648" height="33.5" fill="white" transform="translate(0 0.25)"/>
</clipPath>
</defs>
</svg>
