<svg xmlns="http://www.w3.org/2000/svg" width="254.999" height="39" viewBox="0 0 254.999 39">
  <g id="Group_2826" data-name="Group 2826" transform="translate(20119.625 6875.416)">
    <path id="Path_1266" data-name="Path 1266" d="M23.716,0V-22.748H17.468v11.924q0,3.476-1.144,4.994a4.329,4.329,0,0,1-3.7,1.518A3.408,3.408,0,0,1,9.5-5.7a7.972,7.972,0,0,1-.88-4.2V-22.748H2.376V-8.756a18.335,18.335,0,0,0,.374,3.85,7.322,7.322,0,0,0,1.3,2.948A5.937,5.937,0,0,0,6.58-.088a10.929,10.929,0,0,0,4.114.66,9.091,9.091,0,0,0,3.872-.88,7.029,7.029,0,0,0,3.08-2.86h.132V0Zm4.752-22.748V0h6.248V-11.924q0-3.476,1.144-4.994a4.329,4.329,0,0,1,3.7-1.518,3.408,3.408,0,0,1,3.12,1.386,7.972,7.972,0,0,1,.88,4.2V0h6.248V-13.992a18.335,18.335,0,0,0-.374-3.85,7.322,7.322,0,0,0-1.3-2.948,6.1,6.1,0,0,0-2.53-1.892,10.611,10.611,0,0,0-4.114-.682,8.907,8.907,0,0,0-3.872.9,7.169,7.169,0,0,0-3.08,2.882h-.132V-22.75Zm32.516-3.52v-5.148H54.736v5.148Zm-6.248,3.52V0h6.248V-22.748Z" transform="translate(-20122 -6844)" fill="#fff"/>
    <path id="Path_1267" data-name="Path 1267" d="M19.448-7.625h-5.94a7.508,7.508,0,0,0,1.034,3.766,7.51,7.51,0,0,0,2.42,2.416A10.284,10.284,0,0,0,20.328-.136,19.042,19.042,0,0,0,24.2.26a19.557,19.557,0,0,0,3.806-.372A9.71,9.71,0,0,0,31.328-1.4a7.176,7.176,0,0,0,2.354-2.416,7.117,7.117,0,0,0,.9-3.723,5.2,5.2,0,0,0-.616-2.634,5.6,5.6,0,0,0-1.628-1.781,8.793,8.793,0,0,0-2.31-1.154,26.62,26.62,0,0,0-2.662-.74q-1.32-.3-2.6-.566A20.248,20.248,0,0,1,22.5-15a4.766,4.766,0,0,1-1.606-.849,1.688,1.688,0,0,1-.616-1.35,1.655,1.655,0,0,1,.352-1.11,2.309,2.309,0,0,1,.858-.631,3.852,3.852,0,0,1,1.122-.283,10.9,10.9,0,0,1,1.144-.065,6.29,6.29,0,0,1,2.9.631,2.7,2.7,0,0,1,1.374,2.416h5.94A7.33,7.33,0,0,0,32.89-19.7a7.086,7.086,0,0,0-2.266-2.2,9.546,9.546,0,0,0-3.1-1.176,18.207,18.207,0,0,0-3.586-.348,19.738,19.738,0,0,0-3.608.327,10,10,0,0,0-3.17,1.13,6.294,6.294,0,0,0-2.266,2.2,6.715,6.715,0,0,0-.858,3.57,4.772,4.772,0,0,0,.616,2.5A5.317,5.317,0,0,0,16.28-12a9.143,9.143,0,0,0,2.31,1.088q1.3.414,2.662.718A37.658,37.658,0,0,1,26.466-8.8q1.87.693,1.87,2.09a2.27,2.27,0,0,1-.4,1.371,2.99,2.99,0,0,1-.99.871,4.747,4.747,0,0,1-1.32.479,6.751,6.751,0,0,1-1.386.152,7.219,7.219,0,0,1-1.782-.218,4.646,4.646,0,0,1-1.518-.675A3.628,3.628,0,0,1,19.862-5.9a3.362,3.362,0,0,1-.414-1.72Zm30.008,10.1,9.5-25.3H52.492L47.52-7.407h-.088L42.284-22.82H35.64L43.6-1.7A3.682,3.682,0,0,1,43.868-.31a3.064,3.064,0,0,1-.594,1.829,2.436,2.436,0,0,1-1.826.958A13.1,13.1,0,0,1,39.6,2.433q-.924-.087-1.8-.174V7.352q.968.087,1.914.152t1.914.065A9.139,9.139,0,0,0,46.64,6.395a7.616,7.616,0,0,0,2.816-3.918Zm16.456-10.1h-5.94a7.508,7.508,0,0,0,1.034,3.766,7.51,7.51,0,0,0,2.42,2.416A10.284,10.284,0,0,0,66.792-.136a19.042,19.042,0,0,0,3.872.4A19.557,19.557,0,0,0,74.47-.112,9.709,9.709,0,0,0,77.792-1.4a7.177,7.177,0,0,0,2.354-2.416,7.117,7.117,0,0,0,.9-3.723,5.2,5.2,0,0,0-.616-2.634A5.6,5.6,0,0,0,78.8-11.953a8.793,8.793,0,0,0-2.31-1.154,26.619,26.619,0,0,0-2.662-.74q-1.32-.3-2.6-.566A20.249,20.249,0,0,1,68.964-15a4.766,4.766,0,0,1-1.606-.849,1.688,1.688,0,0,1-.616-1.35,1.655,1.655,0,0,1,.352-1.11,2.309,2.309,0,0,1,.858-.631,3.852,3.852,0,0,1,1.122-.283,10.9,10.9,0,0,1,1.144-.065,6.29,6.29,0,0,1,2.9.631,2.7,2.7,0,0,1,1.374,2.416h5.94A7.33,7.33,0,0,0,79.354-19.7a7.086,7.086,0,0,0-2.266-2.2,9.546,9.546,0,0,0-3.1-1.176,18.207,18.207,0,0,0-3.586-.348,19.738,19.738,0,0,0-3.608.327,10,10,0,0,0-3.168,1.132,6.294,6.294,0,0,0-2.266,2.2A6.715,6.715,0,0,0,60.5-16.2a4.772,4.772,0,0,0,.616,2.5A5.317,5.317,0,0,0,62.744-12a9.143,9.143,0,0,0,2.31,1.088q1.3.414,2.662.718A37.658,37.658,0,0,1,72.93-8.8q1.87.693,1.87,2.09a2.27,2.27,0,0,1-.4,1.371,2.99,2.99,0,0,1-.99.871,4.747,4.747,0,0,1-1.32.479,6.751,6.751,0,0,1-1.386.152,7.218,7.218,0,0,1-1.782-.218A4.646,4.646,0,0,1,67.4-4.729,3.627,3.627,0,0,1,66.33-5.9a3.363,3.363,0,0,1-.418-1.72ZM92.62-22.82v-6.748H86.372v6.748H82.588v4.136h3.784V-5.4a5.7,5.7,0,0,0,.572,2.743A4.052,4.052,0,0,0,88.506-1.05a6.532,6.532,0,0,0,2.288.762,18.43,18.43,0,0,0,2.75.2q.924,0,1.892-.044A15.021,15.021,0,0,0,97.2-.31V-5.1a8.84,8.84,0,0,1-.924.131q-.484.044-1.012.044a3.083,3.083,0,0,1-2.112-.522,3,3,0,0,1-.532-2.086v-11.15H97.2V-22.82Zm22.88,8.838H105.336a7.03,7.03,0,0,1,.286-1.484,4.529,4.529,0,0,1,.836-1.567,4.725,4.725,0,0,1,1.584-1.241,5.484,5.484,0,0,1,2.486-.5,4.415,4.415,0,0,1,3.41,1.219,7.108,7.108,0,0,1,1.562,3.574Zm-10.164,3.918h16.412a15.731,15.731,0,0,0-.44-5.007,12.2,12.2,0,0,0-2-4.267,10.073,10.073,0,0,0-3.542-2.982,10.913,10.913,0,0,0-5.06-1.11,11.891,11.891,0,0,0-4.73.914,11.187,11.187,0,0,0-3.674,2.5,11.018,11.018,0,0,0-2.378,3.77,13,13,0,0,0-.836,4.7A13.576,13.576,0,0,0,99.9-6.75a10.856,10.856,0,0,0,2.31,3.744,10.071,10.071,0,0,0,3.652,2.416A13.115,13.115,0,0,0,110.7.26a12.013,12.013,0,0,0,6.6-1.742,10.331,10.331,0,0,0,4.048-5.791h-5.5a3.893,3.893,0,0,1-1.672,1.979,5.613,5.613,0,0,1-3.256.936,5.623,5.623,0,0,1-4.048-1.35,6.209,6.209,0,0,1-1.54-4.356ZM125.62-22.82V-.31h6.248V-13.372a6.3,6.3,0,0,1,.484-2.678,4.326,4.326,0,0,1,1.166-1.567,3.884,3.884,0,0,1,1.408-.74,4.727,4.727,0,0,1,1.166-.2,4.185,4.185,0,0,1,2.266.5,2.785,2.785,0,0,1,1.1,1.328,5.51,5.51,0,0,1,.374,1.807q.044.98.044,1.979V-.31h6.248V-12.849a13.876,13.876,0,0,1,.154-2.068,5.193,5.193,0,0,1,.616-1.829,3.645,3.645,0,0,1,1.276-1.306,4.034,4.034,0,0,1,2.134-.5,4.255,4.255,0,0,1,2.09.435,2.914,2.914,0,0,1,1.166,1.176,4.491,4.491,0,0,1,.484,1.742q.088,1,.088,2.133V-.31h6.248V-15.375a10.056,10.056,0,0,0-.616-3.723,6.38,6.38,0,0,0-1.716-2.5,6.755,6.755,0,0,0-2.64-1.393,12.254,12.254,0,0,0-3.344-.435A7.369,7.369,0,0,0,147.95-22.3a9.64,9.64,0,0,0-2.75,2.612,5.5,5.5,0,0,0-2.706-2.917,9.239,9.239,0,0,0-3.938-.827,8.114,8.114,0,0,0-3.982.958,8.866,8.866,0,0,0-2.97,2.7h-.088V-22.82ZM170.148-7.625h-5.94a7.508,7.508,0,0,0,1.034,3.766,7.51,7.51,0,0,0,2.42,2.416,10.284,10.284,0,0,0,3.366,1.306,19.043,19.043,0,0,0,3.872.4,19.557,19.557,0,0,0,3.806-.372A9.71,9.71,0,0,0,182.028-1.4a7.177,7.177,0,0,0,2.354-2.416,7.117,7.117,0,0,0,.9-3.723,5.194,5.194,0,0,0-.616-2.634,5.6,5.6,0,0,0-1.628-1.781,8.793,8.793,0,0,0-2.31-1.154,26.618,26.618,0,0,0-2.662-.74q-1.32-.3-2.6-.566A20.25,20.25,0,0,1,173.2-15a4.766,4.766,0,0,1-1.606-.849,1.687,1.687,0,0,1-.616-1.35,1.656,1.656,0,0,1,.352-1.11,2.309,2.309,0,0,1,.858-.631,3.852,3.852,0,0,1,1.122-.283,10.9,10.9,0,0,1,1.144-.065,6.29,6.29,0,0,1,2.9.631,2.7,2.7,0,0,1,1.364,2.416h5.94A7.331,7.331,0,0,0,183.58-19.7a7.086,7.086,0,0,0-2.266-2.2,9.546,9.546,0,0,0-3.1-1.176,18.207,18.207,0,0,0-3.586-.348,19.738,19.738,0,0,0-3.608.327,10,10,0,0,0-3.168,1.132,6.294,6.294,0,0,0-2.266,2.2,6.715,6.715,0,0,0-.858,3.57,4.771,4.771,0,0,0,.616,2.5,5.317,5.317,0,0,0,1.628,1.7,9.143,9.143,0,0,0,2.31,1.088q1.3.414,2.662.718A37.658,37.658,0,0,1,177.158-8.8q1.87.693,1.87,2.09a2.27,2.27,0,0,1-.4,1.371,2.99,2.99,0,0,1-.99.871,4.747,4.747,0,0,1-1.32.479,6.751,6.751,0,0,1-1.386.152,7.219,7.219,0,0,1-1.782-.218,4.646,4.646,0,0,1-1.518-.675A3.627,3.627,0,0,1,170.554-5.9a3.362,3.362,0,0,1-.406-1.722Z" transform="translate(-20049.912 -6844)" fill="#fff"/>
    <circle id="Ellipse_91" data-name="Ellipse 91" cx="6" cy="6" r="6" transform="translate(-20054.246 -6855.293)" fill="#242424"/>
    <circle id="Ellipse_90" data-name="Ellipse 90" cx="6" cy="6" r="6" transform="translate(-20055.242 -6856.279)" fill="#fcc200"/>
  </g>
</svg>
