<svg width="526" height="80" viewBox="0 0 526 80" fill="none" xmlns="http://www.w3.org/2000/svg">
<g clip-path="url(#clip0_1638_50299)">
<path d="M26.8816 51.5896C23.068 51.5896 19.5287 50.9338 16.2648 49.6235C12.9992 48.3133 10.1517 46.4906 7.72133 44.1543C5.29029 41.8193 3.39597 39.0903 2.0377 35.9686C0.678821 32.8469 0 29.4747 0 25.8518C0 22.1828 0.678821 18.7868 2.0377 15.6639C3.39596 12.5435 5.30152 9.81447 7.75686 7.47819C10.2109 5.14315 13.0708 3.32049 16.3359 2.00899C19.6004 0.698721 23.116 0.0429688 26.8816 0.0429688C29.6449 0.0429688 32.362 0.448137 35.0318 1.25849C37.7003 2.07007 40.1669 3.20081 42.4315 4.65445C44.6942 6.10934 46.5892 7.83599 48.1151 9.83817L39.8216 17.9877C38.0581 15.7487 36.0915 14.0806 33.9235 12.9835C31.7543 11.8877 29.4074 11.3392 26.8816 11.3392C24.8794 11.3392 23.0088 11.7094 21.2691 12.4475C19.5287 13.1867 18.0165 14.1991 16.7293 15.4856C15.4427 16.7722 14.4416 18.2981 13.7266 20.0609C13.0116 21.825 12.6545 23.7549 12.6545 25.8518C12.6545 27.9026 13.0229 29.7963 13.7622 31.5354C14.5008 33.2758 15.525 34.8017 16.8365 36.112C18.1467 37.4235 19.6964 38.4346 21.4835 39.1501C23.2712 39.8645 25.2123 40.2223 27.3105 40.2223C29.7409 40.2223 31.993 39.6987 34.0663 38.649C36.1401 37.6018 38.0101 36.0521 39.6788 34.0026L47.7573 41.9377C46.2314 43.8925 44.3495 45.5967 42.1092 47.0504C39.8689 48.504 37.4379 49.6235 34.8174 50.4102C32.1956 51.1968 29.5501 51.5896 26.8816 51.5896Z" fill="#EA5E34"/>
<path d="M64.4766 51.5183C61.8068 51.5183 59.4363 51.0172 57.363 50.0173C55.2898 49.0162 53.6685 47.6337 52.5016 45.8696C51.3328 44.1081 50.75 42.081 50.75 39.7933C50.75 36.1717 52.1195 33.3716 54.8609 31.3931C57.6011 29.4159 61.426 28.426 66.3354 28.426C69.29 28.426 72.1499 28.7838 74.9144 29.4982V27.6394C74.9144 25.7332 74.3067 24.3145 73.0918 23.3857C71.8763 22.4557 70.0767 21.9919 67.6936 21.9919C66.2157 21.9919 64.5595 22.23 62.725 22.7062C60.8899 23.1837 58.7325 23.9467 56.2547 24.9939L52.1082 16.4865C55.2056 15.1052 58.1964 14.068 61.0806 13.3761C63.9636 12.6867 66.859 12.3401 69.7669 12.3401C75.0098 12.3401 79.0846 13.5905 81.9925 16.0938C84.8991 18.5959 86.3534 22.1116 86.3534 26.6383V50.8751H74.9144V48.5874C73.3885 49.6358 71.7803 50.3864 70.0885 50.8389C68.3962 51.2914 66.5255 51.5183 64.4766 51.5183ZM61.7601 39.5789C61.7601 40.7707 62.2837 41.7007 63.3328 42.3664C64.3806 43.0347 65.8349 43.3675 67.6937 43.3675C69.0756 43.3675 70.3747 43.2254 71.5902 42.9387C72.8057 42.6532 73.9134 42.2006 74.9145 41.581V36.719C73.8174 36.4335 72.6985 36.219 71.5546 36.0757C70.4102 35.9323 69.2421 35.8612 68.0515 35.8612C66.0493 35.8612 64.5003 36.1829 63.4045 36.8262C62.3074 37.4695 61.7601 38.3883 61.7601 39.5789Z" fill="#EA5E34"/>
<path d="M93.2188 50.8751V13.0545H104.8V16.8444C106.039 15.3197 107.493 14.1628 109.161 13.3761C110.829 12.5907 112.688 12.1968 114.738 12.1968C116.787 12.2454 118.241 12.5546 119.099 13.1268V23.2075C118.336 22.826 117.478 22.5405 116.525 22.3485C115.571 22.159 114.595 22.063 113.594 22.063C111.782 22.063 110.102 22.4807 108.554 23.3147C107.005 24.1487 105.754 25.3281 104.8 26.8528V50.8751L93.2188 50.8751Z" fill="#EA5E34"/>
<path d="M141.911 51.5894C138.05 51.5894 134.558 50.7205 131.437 48.9801C128.314 47.241 125.848 44.8935 124.037 41.9376C122.225 38.9829 121.32 35.6717 121.32 32.0003C121.32 28.3313 122.189 25.0188 123.93 22.063C125.669 19.1083 128.041 16.7608 131.043 15.0204C134.046 13.2813 137.382 12.4111 141.052 12.4111C144.77 12.4111 148.059 13.305 150.918 15.0928C153.778 16.8792 156.03 19.3228 157.675 22.4207C159.319 25.5187 160.141 29.0693 160.141 33.0724V35.9323H133.188C133.712 37.1241 134.415 38.1738 135.298 39.0789C136.179 39.984 137.239 40.6871 138.479 41.1871C139.718 41.6882 141.052 41.9376 142.482 41.9376C144.055 41.9376 145.485 41.6882 146.772 41.1871C148.059 40.6871 149.155 39.984 150.061 39.0789L157.71 45.8696C155.327 47.8718 152.884 49.3266 150.382 50.2317C147.88 51.1356 145.056 51.5894 141.911 51.5894ZM132.974 27.8538H148.774C148.392 26.6146 147.809 25.5549 147.022 24.6723C146.236 23.7908 145.318 23.1002 144.27 22.599C143.221 22.0991 142.077 21.8485 140.838 21.8485C139.551 21.8485 138.382 22.0879 137.335 22.5629C136.286 23.0403 135.392 23.7198 134.654 24.6012C133.914 25.4839 133.355 26.5672 132.974 27.8538Z" fill="#EA5E34"/>
<path d="M184.801 51.5894C180.94 51.5894 177.448 50.7205 174.327 48.9801C171.205 47.241 168.738 44.8935 166.927 41.9376C165.116 38.9829 164.211 35.6717 164.211 32.0003C164.211 28.3313 165.08 25.0188 166.82 22.063C168.56 19.1083 170.931 16.7608 173.934 15.0204C176.937 13.2813 180.273 12.4111 183.943 12.4111C187.661 12.4111 190.949 13.305 193.809 15.0928C196.669 16.8792 198.921 19.3228 200.565 22.4207C202.21 25.5187 203.032 29.0693 203.032 33.0724V35.9323H176.079C176.603 37.1241 177.305 38.1738 178.188 39.0789C179.07 39.984 180.129 40.6871 181.37 41.1871C182.608 41.6882 183.943 41.9376 185.373 41.9376C186.946 41.9376 188.376 41.6882 189.663 41.1871C190.949 40.6871 192.046 39.984 192.951 39.0789L200.601 45.8696C198.217 47.8718 195.775 49.3266 193.273 50.2317C190.771 51.1356 187.947 51.5894 184.801 51.5894ZM175.864 27.8538H191.664C191.283 26.6146 190.699 25.5549 189.913 24.6723C189.127 23.7908 188.208 23.1002 187.16 22.599C186.111 22.0991 184.968 21.8485 183.728 21.8485C182.442 21.8485 181.273 22.0879 180.225 22.5629C179.177 23.0403 178.283 23.7198 177.544 24.6012C176.805 25.4839 176.245 26.5672 175.864 27.8538Z" fill="#EA5E34"/>
<path d="M208.461 50.8751V13.0545H220.043V16.8444C221.281 15.3197 222.735 14.1628 224.404 13.3761C226.072 12.5907 227.93 12.1968 229.98 12.1968C232.029 12.2454 233.483 12.5546 234.341 13.1268V23.2075C233.578 22.826 232.72 22.5405 231.768 22.3485C230.813 22.159 229.837 22.063 228.836 22.063C227.025 22.063 225.344 22.4807 223.796 23.3147C222.247 24.1487 220.996 25.3281 220.043 26.8528V50.8751L208.461 50.8751Z" fill="#EA5E34"/>
<path d="M255.007 51.5896C251.431 51.5896 248.119 51.172 245.069 50.3392C242.019 49.5052 239.372 48.2772 237.133 46.6565L242.638 38.8635C245.021 40.2934 247.189 41.3307 249.143 41.9739C251.098 42.6172 253.028 42.9389 254.934 42.9389C256.84 42.9389 258.354 42.6659 259.475 42.1173C260.594 41.57 261.155 40.842 261.155 39.9369C261.155 39.2213 260.845 38.6378 260.225 38.1853C259.605 37.7327 258.628 37.4111 257.294 37.2203L249.788 36.0759C246.022 35.5037 243.149 34.2533 241.172 32.3221C239.194 30.3923 238.206 27.879 238.206 24.7797C238.206 22.2066 238.86 20.0024 240.172 18.1673C241.481 16.3322 243.353 14.9259 245.784 13.9485C248.215 12.9724 251.121 12.4824 254.505 12.4824C257.269 12.4824 260.011 12.8651 262.727 13.6269C265.444 14.3898 267.97 15.5343 270.306 17.059L264.8 24.4942C262.751 23.3036 260.797 22.4334 258.939 21.8849C257.08 21.3376 255.221 21.0621 253.362 21.0621C251.884 21.0621 250.692 21.3127 249.788 21.8126C248.882 22.3138 248.429 22.9695 248.429 23.7786C248.429 24.5416 248.762 25.15 249.43 25.6025C250.097 26.055 251.24 26.4004 252.861 26.6385L260.368 27.7829C264.086 28.3078 266.957 29.5345 268.983 31.4644C271.009 33.3943 272.021 35.8378 272.021 38.7924C272.021 41.2708 271.282 43.4637 269.806 45.3699C268.327 47.2773 266.314 48.7908 263.764 49.9103C261.214 51.0286 258.295 51.5896 255.007 51.5896Z" fill="#EA5E34"/>
<path d="M284.605 8.57892C283.652 8.57892 282.818 8.22112 282.103 7.50615C281.388 6.7918 281.031 5.93346 281.031 4.93238C281.031 3.97992 281.388 3.15772 282.103 2.46644C282.818 1.77577 283.652 1.4292 284.605 1.4292C285.607 1.4292 286.452 1.77577 287.144 2.46644C287.834 3.15772 288.18 4.00297 288.18 5.00406C288.18 5.9584 287.834 6.7918 287.144 7.50615C286.452 8.22112 285.607 8.57892 284.605 8.57892ZM281.961 51.2603V15.4419H287.251V51.2603H281.961Z" fill="#EA5E34"/>
<path d="M296.25 51.2603V15.4419H301.54V19.66C304.352 16.3713 308.118 14.7275 312.837 14.7275C315.553 14.7275 317.948 15.3116 320.021 16.4791C322.094 17.6473 323.714 19.2673 324.883 21.3406C326.05 23.4138 326.635 25.833 326.635 28.5969V51.2603H321.416V29.6697C321.416 26.4769 320.522 23.9623 318.735 22.1266C316.947 20.2927 314.504 19.3746 311.407 19.3746C309.262 19.3746 307.355 19.8514 305.687 20.8039C304.018 21.7582 302.636 23.1165 301.54 24.8793V51.2603H296.25Z" fill="#EA5E34"/>
<path d="M389.622 8.57892C388.667 8.57892 387.835 8.22112 387.12 7.50615C386.405 6.7918 386.047 5.93346 386.047 4.93238C386.047 3.97992 386.405 3.15772 387.12 2.46644C387.835 1.77577 388.667 1.4292 389.622 1.4292C390.623 1.4292 391.469 1.77577 392.159 2.46644C392.85 3.15772 393.197 4.00297 393.197 5.00406C393.197 5.9584 392.85 6.7918 392.159 7.50615C391.469 8.22112 390.623 8.57892 389.622 8.57892ZM386.977 51.2603V15.4419H392.268V51.2603H386.977Z" fill="#EA5E34"/>
<path d="M445.818 8.57892C444.863 8.57892 444.03 8.22112 443.316 7.50615C442.6 6.7918 442.242 5.93346 442.242 4.93238C442.242 3.97992 442.6 3.15772 443.316 2.46644C444.03 1.77577 444.863 1.4292 445.818 1.4292C446.819 1.4292 447.664 1.77577 448.355 2.46644C449.045 3.15772 449.392 4.00297 449.392 5.00406C449.392 5.9584 449.045 6.7918 448.355 7.50615C447.664 8.22112 446.819 8.57892 445.818 8.57892ZM443.172 51.2603V15.4419H448.463V51.2603H443.172Z" fill="#EA5E34"/>
<path d="M471.552 51.9754C468.454 51.9754 466.071 51.2367 464.402 49.7588C462.734 48.2821 461.9 46.1372 461.9 43.3247V19.9463H454.18V15.442H461.9V6.3624L467.12 5.00415V15.442H477.915V19.9463H467.12V41.9664C467.12 43.8732 467.549 45.2439 468.407 46.0773C469.265 46.9114 470.67 47.3284 472.624 47.3284C473.625 47.3284 474.519 47.2567 475.306 47.114C476.093 46.9706 476.938 46.7331 477.844 46.399V51.046C476.938 51.3789 475.924 51.6176 474.805 51.761C473.685 51.9037 472.601 51.9754 471.552 51.9754Z" fill="#EA5E34"/>
<path d="M494.86 51.9036C492.238 51.9036 489.938 51.4504 487.961 50.5454C485.982 49.6403 484.433 48.3774 483.313 46.7561C482.193 45.1366 481.633 43.2529 481.633 41.108C481.633 37.7245 482.921 35.0559 485.494 33.1012C488.068 31.147 491.546 30.1696 495.932 30.1696C499.793 30.1696 503.297 30.9805 506.442 32.6006V27.8819C506.442 25.022 505.631 22.8665 504.011 21.4116C502.391 19.9586 500.03 19.2312 496.933 19.2312C495.169 19.2312 493.394 19.4818 491.606 19.9823C489.82 20.4822 487.854 21.2814 485.708 22.3772L483.707 18.3018C486.28 17.0632 488.663 16.1569 490.856 15.5853C493.047 15.013 495.24 14.7275 497.433 14.7275C501.962 14.7275 505.453 15.7997 507.907 17.9446C510.362 20.0895 511.59 23.1632 511.59 27.1669V51.2603H506.442V47.7572C504.822 49.1404 503.046 50.177 501.116 50.867C499.185 51.5577 497.099 51.9036 494.86 51.9036ZM486.709 40.9652C486.709 42.9674 487.555 44.6006 489.248 45.8628C490.939 47.1257 493.12 47.7572 495.789 47.7572C497.934 47.7572 499.888 47.4243 501.652 46.7561C503.415 46.0891 505.012 45.0406 506.442 43.6107V36.8905C504.964 35.8894 503.392 35.1632 501.724 34.7094C500.054 34.2575 498.171 34.0306 496.076 34.0306C493.216 34.0306 490.939 34.6626 489.248 35.9249C487.555 37.1884 486.709 38.8683 486.709 40.9652Z" fill="#EA5E34"/>
<path d="M520.453 51.2605V1.21489L525.744 0V51.2605H520.453Z" fill="#EA5E34"/>
<path d="M377.358 16.2286C376.046 13.1793 374.213 10.5338 371.855 8.29288C369.493 6.05322 366.718 4.31409 363.524 3.07364C360.33 1.83507 356.828 1.21484 353.015 1.21484H336.5V51.2604H350.827L350.828 46.2556H342.005V6.21965H353.301C356.208 6.21965 358.902 6.72019 361.38 7.72128C363.858 8.72174 366.028 10.128 367.885 11.9388C369.745 13.7509 371.186 15.8715 372.211 18.3019C373.236 20.7329 373.747 23.3777 373.747 26.2376C373.747 29.0975 373.236 31.743 372.211 34.1734C371.186 36.6044 369.745 38.7257 367.885 40.5365C366.365 42.019 364.626 43.214 362.69 44.1534L365.657 48.4821C368.002 47.3473 370.096 45.9197 371.924 44.1824C374.286 41.9427 376.108 39.2979 377.395 36.2466C378.682 33.1973 379.325 29.8605 379.325 26.2377C379.325 22.616 378.669 19.2793 377.358 16.2286Z" fill="#EA5E34"/>
<path d="M361.361 60.4081C361.951 60.2256 362.234 59.7933 362.166 59.5768L359.92 53.1668L366.549 53.4191L352.972 33.6101L352.969 57.5982L358.071 53.7064L360.221 60.154C360.292 60.384 360.777 60.5889 361.361 60.4081Z" fill="#EA5E34"/>
<path d="M428.945 15.442V19.0169C427.324 17.6349 425.549 16.5864 423.619 15.8715C421.688 15.1565 419.698 14.7987 417.649 14.7987C414.264 14.7987 411.214 15.6097 408.498 17.2297C405.781 18.8504 403.623 21.0546 402.028 23.8428C400.431 26.631 399.633 29.7408 399.633 33.1723C399.633 36.6045 400.431 39.7143 402.028 42.5025C403.623 45.2907 405.781 47.4961 408.498 49.1155C411.214 50.7368 414.218 51.5466 417.507 51.5466C421.795 51.5466 425.585 50.1646 428.874 47.4001V52.4043C428.874 55.5503 427.991 57.9327 426.228 59.5534C424.611 61.0383 422.306 61.8351 419.328 61.9591V66.5404C423.984 66.4416 427.602 65.2293 430.16 62.8783C432.829 60.4229 434.163 56.9085 434.163 52.3326V15.442H428.945ZM428.874 41.9664C427.682 43.5391 426.132 44.7546 424.226 45.6124C422.32 46.4707 420.223 46.8996 417.935 46.8996C415.504 46.8996 413.299 46.2918 411.322 45.0763C409.343 43.8608 407.771 42.2164 406.603 40.1432C405.435 38.0699 404.851 35.7461 404.851 33.1723C404.851 30.5992 405.424 28.2754 406.568 26.2021C407.711 24.1289 409.272 22.497 411.251 21.3045C413.228 20.1139 415.456 19.5174 417.935 19.5174C420.174 19.5174 422.26 19.9463 424.191 20.804C426.121 21.6623 427.682 22.8542 428.874 24.3788L428.874 41.9664Z" fill="#EA5E34"/>
<path d="M177.482 79.8167H175.414L181.113 65.4088H183.135L188.765 79.8167H186.697L185.387 76.3472H178.792L177.482 79.8167ZM182.078 67.2015C181.925 67.7376 181.745 68.3036 181.538 68.902C181.331 69.4992 181.12 70.0963 180.906 70.6935L179.435 74.623H184.744L183.273 70.6935C182.966 69.852 182.725 69.17 182.549 68.6489C182.373 68.1278 182.216 67.6454 182.078 67.2015Z" fill="#1C4DA1"/>
<path d="M202.483 78.1624C203.11 78.1624 203.773 78.0901 204.47 77.9442C205.167 77.7984 205.815 77.6026 206.412 77.3583V79.1049C205.57 79.4415 204.822 79.6759 204.171 79.8055C203.52 79.9352 202.842 80 202.138 80C199.932 80 198.377 79.4303 197.473 78.2883C196.569 77.1476 196.117 75.2439 196.117 72.5785C196.117 70.0203 196.642 68.1478 197.691 66.9597C198.74 65.7729 200.415 65.1794 202.712 65.1794C203.417 65.1794 204.045 65.1944 204.597 65.2243C205.148 65.2555 205.646 65.3091 206.09 65.3852V67.1093C205.554 67.0482 205.014 67.0059 204.47 66.9834C203.926 66.9597 203.34 66.9485 202.712 66.9485C200.996 66.9485 199.802 67.3736 199.127 68.2239C198.453 69.0741 198.116 70.5252 198.116 72.5785C198.116 74.6617 198.423 76.1141 199.036 76.9332C199.648 77.7522 200.797 78.1624 202.483 78.1624Z" fill="#1C4DA1"/>
<path d="M219.876 74.1182C219.876 76.2625 219.482 77.7797 218.693 78.6673C217.904 79.5562 216.552 80.0001 214.637 80.0001C212.661 80.0001 211.29 79.5724 210.524 78.7135C209.758 77.8558 209.375 76.3236 209.375 74.1182C209.375 71.9577 209.77 70.438 210.559 69.5566C211.347 68.6752 212.707 68.2351 214.637 68.2351C216.614 68.2351 217.981 68.664 218.739 69.5217C219.497 70.3806 219.876 71.9116 219.876 74.1182ZM211.259 74.0945C211.259 75.78 211.481 76.8946 211.926 77.4381C212.37 77.9829 213.274 78.2547 214.637 78.2547C215.955 78.2547 216.843 77.9667 217.303 77.392C217.763 76.8185 217.992 75.7189 217.992 74.0945C217.992 72.4102 217.774 71.2957 217.338 70.7509C216.901 70.2074 216 69.9356 214.637 69.9356C213.305 69.9356 212.408 70.2198 211.949 70.7858C211.489 71.3531 211.259 72.4564 211.259 74.0945Z" fill="#1C4DA1"/>
<path d="M231.269 64.5349H233.154V79.8167H231.522L231.384 78.7596H231.338C230.893 79.1735 230.353 79.4839 229.718 79.6908C229.082 79.8978 228.351 80 227.524 80C225.976 80 224.869 79.5412 224.203 78.6224C223.537 77.7024 223.203 76.2014 223.203 74.1182C223.203 72.035 223.609 70.5327 224.421 69.6139C225.233 68.6951 226.589 68.2351 228.488 68.2351C229.025 68.2351 229.526 68.2775 229.994 68.361C230.461 68.4458 230.886 68.5642 231.269 68.7175V64.5349ZM228.718 69.9355C227.293 69.9355 226.332 70.2347 225.834 70.8319C225.336 71.4291 225.087 72.5249 225.087 74.1182C225.087 75.6653 225.306 76.7412 225.743 77.3471C226.179 77.9517 226.995 78.2547 228.19 78.2547C228.756 78.2547 229.301 78.1811 229.821 78.0352C230.342 77.8906 230.825 77.6725 231.269 77.3807V70.3956C230.901 70.2422 230.511 70.1275 230.097 70.0502C229.683 69.9742 229.224 69.9355 228.718 69.9355Z" fill="#1C4DA1"/>
<path d="M246.101 77.6101V79.1959C245.702 79.4116 245.116 79.5986 244.343 79.7594C243.568 79.9203 242.784 80.0001 241.987 80.0001C240.21 80.0001 238.938 79.5413 238.173 78.6225C237.406 77.7024 237.023 76.1865 237.023 74.0721C237.023 72.035 237.422 70.5527 238.218 69.6252C239.015 68.6989 240.287 68.2351 242.033 68.2351C243.657 68.2351 244.821 68.5991 245.526 69.3272C246.23 70.054 246.583 71.2683 246.583 72.9688C246.583 73.2754 246.575 73.5584 246.56 73.819C246.544 74.0796 246.514 74.3937 246.468 74.7615H238.931C238.946 76.0182 239.203 76.9133 239.701 77.4493C240.198 77.9867 241.06 78.2547 242.286 78.2547C242.945 78.2547 243.634 78.1936 244.354 78.0702C245.074 77.948 245.656 77.7947 246.101 77.6101ZM244.859 72.7157C244.844 71.7046 244.622 70.989 244.193 70.5676C243.764 70.1462 243.044 69.9356 242.033 69.9356C240.899 69.9356 240.099 70.1774 239.631 70.6599C239.165 71.1423 238.931 71.9888 238.931 73.1981H244.836C244.836 73.1682 244.84 73.0959 244.848 72.9799C244.856 72.8653 244.859 72.778 244.859 72.7157Z" fill="#1C4DA1"/>
<path d="M257.975 79.8168L253.977 65.4089H256.091L258.481 74.5321C258.542 74.7765 258.607 75.0645 258.676 75.3936C258.745 75.7227 258.902 76.5692 259.147 77.9331C259.423 76.5393 259.598 75.6803 259.676 75.3587C259.752 75.0371 259.821 74.7615 259.882 74.5321L262.502 65.4089H264.547L267.19 74.5321C267.251 74.7615 267.32 75.0296 267.396 75.3363C267.473 75.6429 267.65 76.4932 267.925 77.887C268.093 76.952 268.235 76.2052 268.35 75.6467C268.465 75.0869 268.546 74.7154 268.591 74.5321L270.958 65.4089H273.003L269.005 79.8168H266.799L264.478 72.0961C264.31 71.5289 264.149 70.9243 263.996 70.281C263.842 69.6364 263.674 68.871 263.49 67.9821C263.306 68.871 263.138 69.6364 262.984 70.281C262.831 70.9243 262.67 71.5289 262.502 72.0961L260.204 79.8168H257.975Z" fill="#1C4DA1"/>
<path d="M284.194 77.6101V79.1959C283.796 79.4116 283.209 79.5986 282.436 79.7594C281.662 79.9203 280.877 80.0001 280.081 80.0001C278.304 80.0001 277.032 79.5413 276.267 78.6225C275.5 77.7024 275.117 76.1865 275.117 74.0721C275.117 72.035 275.516 70.5527 276.312 69.6252C277.109 68.6989 278.38 68.2351 280.127 68.2351C281.751 68.2351 282.915 68.5991 283.62 69.3272C284.324 70.054 284.677 71.2683 284.677 72.9688C284.677 73.2754 284.669 73.5584 284.654 73.819C284.638 74.0796 284.608 74.3937 284.562 74.7615H277.025C277.04 76.0182 277.296 76.9133 277.794 77.4493C278.292 77.9867 279.154 78.2547 280.379 78.2547C281.038 78.2547 281.728 78.1936 282.448 78.0702C283.168 77.948 283.75 77.7947 284.194 77.6101ZM282.953 72.7157C282.938 71.7046 282.716 70.989 282.287 70.5676C281.858 70.1462 281.138 69.9356 280.127 69.9356C278.993 69.9356 278.193 70.1774 277.725 70.6599C277.258 71.1423 277.025 71.9888 277.025 73.1981H282.93C282.93 73.1682 282.934 73.0959 282.942 72.9799C282.949 72.8653 282.953 72.778 282.953 72.7157Z" fill="#1C4DA1"/>
<path d="M297.022 77.6101V79.1959C296.624 79.4116 296.038 79.5986 295.265 79.7594C294.49 79.9203 293.706 80.0001 292.909 80.0001C291.132 80.0001 289.86 79.5413 289.095 78.6225C288.328 77.7024 287.945 76.1865 287.945 74.0721C287.945 72.035 288.344 70.5527 289.14 69.6252C289.937 68.6989 291.209 68.2351 292.955 68.2351C294.579 68.2351 295.743 68.5991 296.448 69.3272C297.152 70.054 297.505 71.2683 297.505 72.9688C297.505 73.2754 297.497 73.5584 297.482 73.819C297.466 74.0796 297.436 74.3937 297.39 74.7615H289.853C289.868 76.0182 290.124 76.9133 290.623 77.4493C291.12 77.9867 291.982 78.2547 293.208 78.2547C293.866 78.2547 294.556 78.1936 295.276 78.0702C295.996 77.948 296.578 77.7947 297.022 77.6101ZM295.781 72.7157C295.766 71.7046 295.544 70.989 295.115 70.5676C294.686 70.1462 293.966 69.9356 292.955 69.9356C291.821 69.9356 291.021 70.1774 290.553 70.6599C290.086 71.1423 289.853 71.9888 289.853 73.1981H295.758C295.758 73.1682 295.762 73.0959 295.77 72.9799C295.778 72.8653 295.781 72.778 295.781 72.7157Z" fill="#1C4DA1"/>
<path d="M303.204 74.8986V79.8167H301.32V64.5349H303.204V73.2679H304.56L308.535 68.4644H310.81L306.099 73.9798L311.039 79.8167H308.673L304.629 74.8986H303.204Z" fill="#1C4DA1"/>
<path d="M321.28 66.4885H319.258V64.5349H321.28V66.4885ZM321.211 79.8167H319.328V68.4644H321.211V79.8167Z" fill="#1C4DA1"/>
<path d="M327.509 79.8168H325.625V68.4645H327.256L327.348 69.5678H327.416C328.03 69.109 328.669 68.7712 329.335 68.5567C330.002 68.3423 330.749 68.2351 331.577 68.2351C332.832 68.2351 333.786 68.5493 334.437 69.1776C335.089 69.8059 335.414 70.7322 335.414 71.9577V79.8168H333.529V72.1871C333.529 71.4216 333.315 70.8544 332.886 70.4866C332.457 70.1201 331.799 69.9356 330.91 69.9356C330.359 69.9356 329.795 70.0241 329.22 70.1999C328.646 70.3757 328.075 70.6325 327.509 70.9703V79.8168Z" fill="#1C4DA1"/>
<path d="M341.686 66.4885H339.664V64.5349H341.686V66.4885ZM341.618 79.8167H339.734V68.4644H341.618V79.8167Z" fill="#1C4DA1"/>
<path d="M352.698 78.0477V79.6335C352.452 79.7407 352.119 79.8279 351.698 79.8978C351.276 79.9663 350.874 80 350.491 80C349.112 80 348.128 79.6945 347.539 79.0812C346.949 78.4691 346.654 77.4119 346.654 75.9096V70.0739H344.953V68.4644H346.677L346.975 65.708H348.539V68.4644H352.583V70.0739H348.539V75.841C348.539 76.7761 348.711 77.4119 349.055 77.7485C349.4 78.0863 350.008 78.2546 350.882 78.2546C351.158 78.2546 351.476 78.2309 351.836 78.1848C352.195 78.1387 352.483 78.0938 352.698 78.0477Z" fill="#1C4DA1"/>
<path d="M357.889 66.4885H355.867V64.5349H357.889V66.4885ZM357.821 79.8167H355.937V68.4644H357.821V79.8167Z" fill="#1C4DA1"/>
<path d="M364.808 80.0001C363.644 80.0001 362.79 79.7208 362.246 79.1623C361.701 78.6025 361.43 77.7186 361.43 76.5081C361.43 75.2826 361.76 74.4137 362.418 73.9C363.077 73.3864 364.195 73.1296 365.773 73.1296C366.294 73.1296 366.808 73.1533 367.313 73.1981C367.819 73.2443 368.293 73.3141 368.738 73.4051V72.303C368.738 71.4603 368.523 70.8544 368.094 70.4866C367.666 70.1201 366.976 69.9356 366.026 69.9356C365.322 69.9356 364.701 69.963 364.165 70.0166C363.629 70.0702 363.093 70.1575 362.557 70.2809V68.649C363.169 68.4957 363.793 68.3885 364.429 68.3274C365.065 68.2663 365.788 68.2351 366.601 68.2351C367.964 68.2351 368.975 68.553 369.634 69.1888C370.292 69.8246 370.621 70.8095 370.621 72.1422V79.8168H368.899L368.806 78.7596H368.76C368.301 79.1274 367.707 79.4266 366.98 79.656C366.252 79.8854 365.528 80.0001 364.808 80.0001ZM365.98 74.6692C364.938 74.6692 364.215 74.7964 363.808 75.0482C363.402 75.3013 363.2 75.7489 363.2 76.3934C363.2 77.0666 363.368 77.5528 363.705 77.852C364.041 78.1512 364.594 78.2996 365.359 78.2996C365.958 78.2996 366.57 78.2086 367.198 78.0241C367.826 77.8408 368.339 77.6102 368.738 77.3346V74.8986C368.232 74.8226 367.762 74.7652 367.324 74.7266C366.888 74.6892 366.44 74.6692 365.98 74.6692Z" fill="#1C4DA1"/>
<path d="M381.471 78.0477V79.6335C381.225 79.7407 380.892 79.8279 380.471 79.8978C380.05 79.9663 379.647 80 379.264 80C377.885 80 376.902 79.6945 376.312 79.0812C375.723 78.4691 375.427 77.4119 375.427 75.9096V70.0739H373.727V68.4644H375.451L375.749 65.708H377.312V68.4644H381.356V70.0739H377.312V75.841C377.312 76.7761 377.484 77.4119 377.828 77.7485C378.173 78.0863 378.782 78.2546 379.656 78.2546C379.931 78.2546 380.249 78.2309 380.609 78.1848C380.969 78.1387 381.257 78.0938 381.471 78.0477Z" fill="#1C4DA1"/>
<path d="M386.663 66.4885H384.641V64.5349H386.663V66.4885ZM386.594 79.8167H384.71V68.4644H386.594V79.8167Z" fill="#1C4DA1"/>
<path d="M398.535 68.4644H400.603L396.237 79.8167H394.077L389.711 68.4644H391.803L395.18 78.0937L398.535 68.4644Z" fill="#1C4DA1"/>
<path d="M412.022 77.6101V79.1959C411.623 79.4116 411.038 79.5986 410.265 79.7594C409.49 79.9203 408.705 80.0001 407.91 80.0001C406.132 80.0001 404.86 79.5413 404.095 78.6225C403.328 77.7024 402.945 76.1865 402.945 74.0721C402.945 72.035 403.344 70.5527 404.141 69.6252C404.936 68.6989 406.209 68.2351 407.954 68.2351C409.579 68.2351 410.743 68.5991 411.448 69.3272C412.152 70.054 412.505 71.2683 412.505 72.9688C412.505 73.2754 412.497 73.5584 412.482 73.819C412.466 74.0796 412.436 74.3937 412.39 74.7615H404.853C404.868 76.0182 405.124 76.9133 405.623 77.4493C406.121 77.9867 406.982 78.2547 408.208 78.2547C408.866 78.2547 409.555 78.1936 410.276 78.0702C410.996 77.948 411.577 77.7947 412.022 77.6101ZM410.782 72.7157C410.766 71.7046 410.544 70.989 410.115 70.5676C409.686 70.1462 408.966 69.9356 407.954 69.9356C406.821 69.9356 406.021 70.1774 405.553 70.6599C405.086 71.1423 404.853 71.9888 404.853 73.1981H410.758C410.758 73.1682 410.762 73.0959 410.769 72.9799C410.777 72.8653 410.782 72.778 410.782 72.7157Z" fill="#1C4DA1"/>
</g>
<defs>
<clipPath id="clip0_1638_50299">
<rect width="525.746" height="80" fill="white"/>
</clipPath>
</defs>
</svg>
