<?xml version="1.0" encoding="utf-8"?>
<!-- Generator: Adobe Illustrator 23.0.1, SVG Export Plug-In . SVG Version: 6.00 Build 0)  -->
<svg version="1.1" id="Layer_1" xmlns="http://www.w3.org/2000/svg" xmlns:xlink="http://www.w3.org/1999/xlink" x="0px" y="0px"
	 viewBox="0 0 1987.5 360" style="enable-background:new 0 0 1987.5 360;" xml:space="preserve">
<style type="text/css">
	.st0{fill:#FFFFFF;}
	.st1{fill:#F39753;}
	.st2{enable-background:new    ;}
	.st3{fill:#EA5D34;}
	.st4{fill:none;stroke:#FFFFFF;stroke-width:3;stroke-linecap:round;stroke-miterlimit:10;}
	.st5{fill:none;stroke:#FFFFFF;stroke-width:3;stroke-miterlimit:10;}
</style>
<title>Artboard 2</title>
<title>Artboard 2</title>
<g>
	<g>
		<g>
			<rect class="st0" width="1987.5" height="360"/>
			<circle class="st1" cx="436.9" cy="175.2" r="148.2"/>
			<g class="st2">
				<path class="st3" d="M669.9,120.9c-0.2,0.4-0.5,0.8-1.3,0.7c-2.8-0.4-6.7-0.9-10.5-0.9c-10.1,0-12.8,8.4-14.5,17.5
					c-0.5,2.4-0.8,4.7-0.8,7c0,6,2.2,9.6,8.7,9.6c3.9,0,7.7-0.5,10.8-0.9c0.9-0.1,1.2,0.3,1.2,0.8v1.7c0,0.6-0.1,1.1-1,1.4
					c-3.4,1.3-9.4,1.7-11.9,1.7c-9.4,0-13-5.2-13-13.5c0-2.6,0.3-5.2,0.8-7.8c2-11,6-22.2,20.2-22.2c2.5,0,8.4,0.3,11.5,1.7
					c0.8,0.4,0.8,0.8,0.6,1.4L669.9,120.9z"/>
				<path class="st3" d="M678.8,157.7c-0.1,0.5-0.3,0.8-0.8,1.1c-1.2,0.4-2.6,0.6-3.7,0.6c-4.2,0-4.7-2.4-4.2-5.3l7.6-39.1
					c0.2-0.8,0.6-1.1,1.3-1.1h2.6c0.8,0,1.2,0.2,1,1.1l-7.3,37.5c-0.4,2.2,0.4,2.4,2.8,2.4c0.8,0,1,0.1,1,0.6L678.8,157.7z"/>
				<path class="st3" d="M689.6,157.9c-0.1,0.8-0.5,1.1-1.2,1.1h-2.6c-0.8,0-1.1-0.3-0.9-1.1l5.6-29.1c0.1-0.9,0.6-1.1,1.3-1.1h2.6
					c0.8,0,1,0.3,0.9,1.1L689.6,157.9z M694.1,122.3c-1.3,0-2.3-0.3-2.3-1.8c0-2.3,1-3.8,3.4-3.8c1.3,0,2.4,0.3,2.4,1.7
					C697.6,120.6,696.5,122.3,694.1,122.3z"/>
				<path class="st3" d="M725.4,131.4c-0.3,0.7-0.8,0.7-1.8,0.6c-2.6-0.3-6-0.6-8.4-0.6c-5.8,0-8.1,2.8-9.9,11.7
					c-0.4,2.5-0.7,4.5-0.7,6.2c-0.1,4.4,1.8,5.9,6,5.9c2.1,0,6.3-0.3,8.9-0.6c0.8-0.1,1.3,0,1.3,0.8v1.3c0,0.6-0.3,1-1,1.3
					c-2.6,1.1-6.8,1.5-10,1.5c-8.5,0-10.5-4.6-10.5-9.2c0-2.1,0.4-5,0.9-7.6c1.6-8.3,3.8-15.6,15.4-15.6c2.6,0,7.5,0.3,10,1.5
					c0.6,0.3,0.6,0.8,0.4,1.3L725.4,131.4z"/>
				<path class="st3" d="M741.5,141l8,16.9c0.2,0.5-0.3,1.2-0.9,1.2h-3c-0.8,0-1-0.3-1.3-0.9l-6.4-13.7l-6.1,6l-1.5,7.5
					c-0.2,0.8-0.6,1.1-1.3,1.1h-2.6c-0.7,0-1-0.3-0.8-1.1l8.3-43.1c0.2-0.8,0.5-1.1,1.3-1.1h2.6c0.8,0,1.1,0.3,0.9,1.1l-5.5,28.3
					l14.8-14.8c0,0,0.6-0.6,1.3-0.6h4.2c0.6,0,0.9,0.6,0.4,1.2L741.5,141z"/>
				<path class="st3" d="M796.6,157.9c-0.1,0.8-0.6,1.1-1.3,1.1h-2.7c-0.7,0-1-0.3-0.8-1.1l3.7-19c1.1-5.9,0.3-7.4-3.7-7.4
					c-3.1,0-9.4,2.7-11.5,3.7l-4.4,22.7c-0.1,0.8-0.6,1.1-1.3,1.1h-2.6c-0.7,0-1-0.3-0.8-1.1l8.3-43.1c0.2-0.8,0.6-1.1,1.3-1.1h2.6
					c0.8,0,1.1,0.3,1,1.1l-3.2,16.3h0.1c2.4-1.3,7.6-4,12.1-4c8.2,0,8.3,5,7,11.9L796.6,157.9z"/>
				<path class="st3" d="M807,142c1.3-5.7,4.5-14.8,16.7-14.8c5.3,0,9.8,2.6,9.8,7.6c0,10.8-15,12.6-22.6,12.8
					c-0.3,1.2-0.4,2.2-0.4,3.1c0,4.6,3.9,4.5,7.4,4.5c2.1,0,6.3-0.3,8.9-0.6c0.8-0.1,1.3,0,1.3,0.8v1.3c0,0.6-0.3,1-1,1.3
					c-3,1.2-7.4,1.5-10.8,1.5c-6.7,0-10.8-2-10.8-9C805.6,147.7,806.3,144.7,807,142z M823.3,131.5c-8.1,0-9.9,6.1-10.9,9.4
					l-0.6,2.5c5.2-0.1,16.9-1.3,16.9-8C828.6,132.6,826.2,131.5,823.3,131.5z"/>
				<path class="st3" d="M856.3,132.4c-3.6,0.7-8.6,2.2-10.4,3.1l-4.3,22.4c-0.2,0.8-0.6,1.1-1.3,1.1h-2.8c-0.7,0-1-0.3-0.8-1.1
					l5.6-29.1c0.1-0.8,0.5-1.1,1.2-1.1h2.7c0.8,0,1.1,0.3,1,1.1l-0.5,2.6l0.1,0.1c1.9-1.3,6.5-3.5,9.9-4.2c0.8-0.2,1,0,1,0.8l-0.4,3
					C857.3,131.9,857,132.4,856.3,132.4z"/>
				<path class="st3" d="M858.8,142c1.3-5.7,4.5-14.8,16.7-14.8c5.3,0,9.8,2.6,9.8,7.6c0,10.8-15,12.6-22.6,12.8
					c-0.3,1.2-0.4,2.2-0.4,3.1c0,4.6,3.9,4.5,7.4,4.5c2.1,0,6.3-0.3,8.9-0.6c0.8-0.1,1.3,0,1.3,0.8v1.3c0,0.6-0.3,1-1,1.3
					c-3,1.2-7.4,1.5-10.8,1.5c-6.7,0-10.8-2-10.8-9C857.3,147.7,858.1,144.7,858.8,142z M875,131.5c-8.1,0-9.9,6.1-10.9,9.4
					l-0.6,2.5c5.2-0.1,16.9-1.3,16.9-8C880.4,132.6,877.9,131.5,875,131.5z"/>
				<path class="st3" d="M921.7,157c-0.1,0.6-0.3,1-0.8,1.2c-1.7,0.8-5.6,1.3-7.5,1.3c-5.5,0-6.4-2.7-5.6-6.8l4.1-20.9h-3.5
					c-0.8,0-1-0.3-0.9-1.1l0.3-1.8c0.2-0.8,0.5-1.2,1.3-1.2h3.6l1.3-6.9c0.1-0.8,0.6-1,1.3-1.2l2.7-0.7c0.7-0.2,1,0.1,0.9,1
					l-1.5,7.9h7.1c0.9,0,1,0.4,0.9,1.1l-0.4,1.9c-0.1,0.8-0.4,1.1-1.3,1.1h-7.1l-3.8,19.4c-0.6,3-0.1,3.8,3.8,3.8
					c0.6,0,2.9-0.2,3.8-0.3c1-0.1,1.3,0.1,1.3,0.8L921.7,157z"/>
				<path class="st3" d="M952.9,142.8c-1.8,9.6-4.8,16.7-15.9,16.7c-7.1,0-11.2-3-11.2-10.3c0-2.1,0.3-4.2,0.7-6.4
					c1.7-8.7,5.3-15.7,15.5-15.7c7.1,0,11.5,2.8,11.5,10.2C953.5,139.2,953.2,141,952.9,142.8z M941.7,131.5c-7.5,0-9,5.5-10.3,11.7
					c-0.4,1.9-0.7,3.8-0.7,5.7c0,4.4,2.1,6,6.4,6c7.8,0,9.4-5.1,10.7-11.7c0.4-1.9,0.7-3.8,0.7-5.6
					C948.5,133,946.1,131.5,941.7,131.5z"/>
				<path class="st3" d="M999.3,157.9c-0.1,0.8-0.5,1.1-1.2,1.1h-2.6c-0.8,0-1.1-0.3-0.9-1.1l0.4-2.4c-3.3,2-7,4.1-11.8,4.1
					c-5.9,0-8.2-3-8.2-8.7c0-2.1,0.3-4.6,0.8-7.1c2.1-10.6,5.5-16.6,15.5-16.6c2.4,0,5.8,0.8,8.7,2.4l0.1-0.1l0.2-0.9
					c0.2-0.8,0.5-0.8,1.4-0.8h2.4c0.9,0,1.2,0.3,1,1.2L999.3,157.9z M990.5,131.6c-5.6,0-7.8,3.1-9.6,12.3c-0.5,2.8-0.8,5-0.8,6.5
					c0,4,1.5,4.8,4.5,4.8c3.1,0,8.8-2.4,11.2-3.6l3.5-18C996.2,132.3,993.2,131.6,990.5,131.6z"/>
				<path class="st3" d="M1034.7,131.4c-0.3,0.7-0.8,0.7-1.8,0.6c-2.6-0.3-6-0.6-8.4-0.6c-5.8,0-8.1,2.8-9.9,11.7
					c-0.4,2.5-0.7,4.5-0.7,6.2c-0.1,4.4,1.8,5.9,6,5.9c2.1,0,6.3-0.3,8.9-0.6c0.8-0.1,1.3,0,1.3,0.8v1.3c0,0.6-0.3,1-1,1.3
					c-2.6,1.1-6.8,1.5-10,1.5c-8.5,0-10.5-4.6-10.5-9.2c0-2.1,0.4-5,0.9-7.6c1.6-8.3,3.8-15.6,15.4-15.6c2.6,0,7.5,0.3,10,1.5
					c0.6,0.3,0.6,0.8,0.4,1.3L1034.7,131.4z"/>
				<path class="st3" d="M1062,131.4c-0.3,0.7-0.8,0.7-1.8,0.6c-2.6-0.3-6-0.6-8.4-0.6c-5.8,0-8.1,2.8-9.9,11.7
					c-0.4,2.5-0.7,4.5-0.7,6.2c-0.1,4.4,1.8,5.9,6,5.9c2.1,0,6.3-0.3,8.9-0.6c0.8-0.1,1.3,0,1.3,0.8v1.3c0,0.6-0.3,1-1,1.3
					c-2.6,1.1-6.8,1.5-10,1.5c-8.5,0-10.5-4.6-10.5-9.2c0-2.1,0.4-5,0.9-7.6c1.6-8.3,3.8-15.6,15.4-15.6c2.6,0,7.5,0.3,10,1.5
					c0.6,0.3,0.6,0.8,0.4,1.3L1062,131.4z"/>
				<path class="st3" d="M1064.8,142c1.3-5.7,4.5-14.8,16.7-14.8c5.3,0,9.8,2.6,9.8,7.6c0,10.8-15,12.6-22.6,12.8
					c-0.3,1.2-0.4,2.2-0.4,3.1c0,4.6,3.9,4.5,7.4,4.5c2.1,0,6.3-0.3,8.9-0.6c0.8-0.1,1.3,0,1.3,0.8v1.3c0,0.6-0.3,1-1,1.3
					c-3,1.2-7.4,1.5-10.8,1.5c-6.7,0-10.8-2-10.8-9C1063.4,147.7,1064.2,144.7,1064.8,142z M1081.1,131.5c-8.1,0-9.9,6.1-10.9,9.4
					l-0.6,2.5c5.2-0.1,16.9-1.3,16.9-8C1086.5,132.6,1084,131.5,1081.1,131.5z"/>
				<path class="st3" d="M1118.5,131.4c-0.3,0.7-0.8,0.8-1.8,0.7c-2.6-0.3-5.5-0.6-8.1-0.6c-4,0-7.2,1-7.2,5.1
					c0.1,2.8,2.9,3.7,5.8,4.2c2.8,0.4,9.2,1.9,9.2,8c0,8.5-6.3,10.7-13.5,10.7c-3.3,0-8-0.5-9.9-1.5c-0.6-0.3-0.6-0.8-0.4-1.3
					l0.5-1.3c0.3-0.8,0.8-0.9,1.6-0.8c2.5,0.3,6.7,0.7,8.9,0.7c4.4,0,8-1.1,8-5.6c0-3.1-2.4-4-5.5-4.6c-3.6-0.6-9.6-1.9-9.6-7.7
					c0-7.6,6-10.2,12.6-10.2c2.4,0,7.4,0.4,9.7,1.5c0.6,0.3,0.6,0.8,0.4,1.3L1118.5,131.4z"/>
				<path class="st3" d="M1146.5,131.4c-0.3,0.7-0.8,0.8-1.8,0.7c-2.6-0.3-5.5-0.6-8.1-0.6c-4,0-7.2,1-7.2,5.1
					c0.1,2.8,2.9,3.7,5.8,4.2c2.8,0.4,9.2,1.9,9.2,8c0,8.5-6.3,10.7-13.5,10.7c-3.3,0-8-0.5-9.9-1.5c-0.6-0.3-0.6-0.8-0.4-1.3
					l0.5-1.3c0.3-0.8,0.8-0.9,1.6-0.8c2.5,0.3,6.7,0.7,8.9,0.7c4.4,0,8-1.1,8-5.6c0-3.1-2.4-4-5.5-4.6c-3.6-0.6-9.6-1.9-9.6-7.7
					c0-7.6,6-10.2,12.6-10.2c2.4,0,7.4,0.4,9.7,1.5c0.6,0.3,0.6,0.8,0.4,1.3L1146.5,131.4z"/>
			</g>
			<g class="st2">
				<path class="st3" d="M641.2,212.1h-3.4c-1,0-1.2-0.4-0.9-1.5l0.9-4.9c0.2-1,0.6-1.4,1.5-1.4h3.5l0.5-3.1
					c1.4-7.1,5.3-11.6,13.6-11.6c2.5,0,6.2,0.4,8.5,1.5c1.3,0.6,1,1.5,0.6,2.4l-1.3,4c-0.4,1.1-0.6,1-2.2,0.8
					c-2.3-0.3-4-0.4-4.7-0.4c-3.1,0-4.2,1.5-4.7,4.2l-0.4,2.1h7.4c1.2,0,1.3,0.4,1.1,1.3l-1,5c-0.2,1-0.5,1.5-1.7,1.5h-7.4
					l-5.1,25.8c-1.3,6.9-4.9,11.4-13.1,11.4c-2.5,0-6-0.5-8.4-1.7c-1.3-0.6-1.2-1.5-0.8-2.4l1.3-4.1c0.4-1.2,0.6-1.2,2.2-0.9
					c2.4,0.4,3.5,0.5,4.3,0.5c3.3,0,4.4-1.7,5.1-5.1L641.2,212.1z"/>
				<path class="st3" d="M676.1,209.6l0.1,0.1c2.8-3,7.4-5.3,10.1-5.7c1.6-0.3,2.1-0.1,1.9,1.5l-0.5,6.5c-0.1,1.2-0.3,1.5-2.2,1.9
					c-3.9,0.7-7.8,2.1-11,3.5l-3.3,17.1c-0.1,0.6-0.4,1.4-1.6,1.4h-7.3c-1.1,0-1.3-0.6-1.2-1.4l5.6-28.9c0.2-0.8,0.6-1.4,1.7-1.4
					h7.3c1.2,0,1.2,0.8,1.1,1.4L676.1,209.6z"/>
				<path class="st3" d="M689.2,217.6c1.7-6.5,5.7-13.7,17.8-13.7c6,0,11.4,2.8,11.4,8.6c0,10.1-12.1,11.7-20,12
					c-0.2,0.5-0.3,1.1-0.3,1.6c0,2.4,2.2,2.6,5.3,2.6c2.9,0,5.4-0.2,8.9-0.6c0.9-0.1,1.6-0.1,1.6,1.1v3.1c0,1.7-0.4,2.2-2.2,2.9
					c-2.8,1-7.8,1.5-11.4,1.5c-7.3,0-12.3-3-12.3-10.8C688,223.1,688.5,220.2,689.2,217.6z M705.2,211.6c-3.8,0-5,3.5-5.8,6.5
					c3.8-0.3,8.7-1.2,8.7-4.4C708,212.4,707,211.6,705.2,211.6z"/>
				<path class="st3" d="M723.2,217.6c1.7-6.5,5.7-13.7,17.8-13.7c6,0,11.4,2.8,11.4,8.6c0,10.1-12.1,11.7-20,12
					c-0.2,0.5-0.3,1.1-0.3,1.6c0,2.4,2.2,2.6,5.3,2.6c2.9,0,5.4-0.2,8.9-0.6c0.9-0.1,1.6-0.1,1.6,1.1v3.1c0,1.7-0.4,2.2-2.2,2.9
					c-2.8,1-7.8,1.5-11.4,1.5c-7.3,0-12.3-3-12.3-10.8C722,223.1,722.5,220.2,723.2,217.6z M739.2,211.6c-3.8,0-5,3.5-5.8,6.5
					c3.8-0.3,8.7-1.2,8.7-4.4C742,212.4,741,211.6,739.2,211.6z"/>
				<path class="st3" d="M796.4,233.1c0.1,1-0.7,1.8-1.5,2.1c-3.3,1-7.6,1.3-9.6,1.3c-8.1,0-8.5-4.9-7.6-10.2l2.8-14.3h-2.8
					c-1,0-1.3-0.4-1.1-1.4l1-4.8c0.2-1,0.6-1.4,1.6-1.4h2.9l1.2-6.3c0.2-1,0.8-1.4,1.7-1.7l6.8-1.7c1-0.3,1.6,0.1,1.4,1.1l-1.7,8.6
					h6.5c1.2,0,1.3,0.4,1.1,1.3l-1,4.9c-0.2,1-0.4,1.4-1.6,1.4H790l-2.2,11.9c-0.5,2.4-0.5,3.4,3.2,3.5c1,0,2.9-0.1,4.5-0.3
					c0.8,0,1.3-0.1,1.3,1.3L796.4,233.1z"/>
				<path class="st3" d="M815.4,209.6l0.1,0.1c2.8-3,7.4-5.3,10.1-5.7c1.6-0.3,2.1-0.1,1.9,1.5l-0.5,6.5c-0.1,1.2-0.3,1.5-2.2,1.9
					c-3.9,0.7-7.8,2.1-11,3.5l-3.3,17.1c-0.1,0.6-0.4,1.4-1.6,1.4h-7.3c-1.1,0-1.3-0.6-1.2-1.4l5.6-28.9c0.2-0.8,0.6-1.4,1.7-1.4
					h7.3c1.2,0,1.2,0.8,1.1,1.4L815.4,209.6z"/>
				<path class="st3" d="M855,234.6c-0.1,0.6-0.4,1.4-1.6,1.4h-7.3c-1.1,0-1.2-0.5-1-1.3l0.3-1.6l-0.1-0.1c-3.7,2.4-6.7,3.5-9.8,3.5
					c-6.4,0-8.3-3.6-8.3-9.1c0-2.1,0.3-4.4,0.8-6.8c1.9-9.9,5.1-16.5,14.7-16.5c2.2,0,5.5,0.8,7.8,2.2l0.3-1c0.2-0.8,0.6-1,1.4-1
					h7.1c1.2,0,1.3,0.5,1.1,1.5L855,234.6z M838.3,220.2c-0.3,1.6-0.5,3-0.5,3.9c0,2.8,0.9,3.3,2.8,3.3c1.9,0,4.6-1.2,6.2-1.9
					l2.2-11.5c-1.7-0.6-3.4-0.9-4.8-0.9C840.8,213.2,839.3,215.1,838.3,220.2z"/>
				<path class="st3" d="M872.7,234.6c-0.1,0.6-0.4,1.4-1.6,1.4h-7.2c-1.1,0-1.3-0.6-1.2-1.4l5.6-28.9c0.2-0.9,0.6-1.4,1.7-1.4h7.2
					c1.2,0,1.2,0.8,1,1.4L872.7,234.6z M880.6,194.3c0,3-1.2,6.5-6.3,6.5c-3.4,0-4.4-1.4-4.4-3.3c0-3.4,1.6-6.4,6.3-6.4
					C879.5,191.1,880.6,192.3,880.6,194.3z"/>
				<path class="st3" d="M895,207.3h0.1c3.3-2.2,7.8-3.5,10.7-3.5c9,0,8.3,6.8,7.2,12.7l-3.5,18.2c-0.1,0.6-0.4,1.4-1.6,1.4h-7.2
					c-1.1,0-1.2-0.6-1.1-1.4l3.3-16.7c0.7-4-0.3-4.9-2.9-4.9c-1.9,0-4.9,1.2-6.4,1.8l-3.9,19.8c-0.1,0.6-0.4,1.4-1.7,1.4h-7.2
					c-1,0-1.2-0.6-1.1-1.4l5.6-28.9c0.2-0.8,0.6-1.4,1.7-1.4h7.2c1.2,0,1.3,0.8,1.1,1.4L895,207.3z"/>
				<path class="st3" d="M926.2,234.6c-0.1,0.6-0.4,1.4-1.6,1.4h-7.2c-1.1,0-1.3-0.6-1.2-1.4l5.6-28.9c0.2-0.9,0.6-1.4,1.7-1.4h7.2
					c1.2,0,1.2,0.8,1,1.4L926.2,234.6z M934.2,194.3c0,3-1.2,6.5-6.3,6.5c-3.4,0-4.4-1.4-4.4-3.3c0-3.4,1.6-6.4,6.3-6.4
					C933.1,191.1,934.2,192.3,934.2,194.3z"/>
				<path class="st3" d="M948.6,207.3h0.1c3.3-2.2,7.8-3.5,10.7-3.5c9,0,8.3,6.8,7.2,12.7l-3.5,18.2c-0.1,0.6-0.4,1.4-1.6,1.4h-7.3
					c-1.1,0-1.2-0.6-1.1-1.4l3.3-16.7c0.7-4-0.3-4.9-2.9-4.9c-1.9,0-4.9,1.2-6.4,1.8l-3.8,19.8c-0.1,0.6-0.4,1.4-1.7,1.4h-7.2
					c-1,0-1.2-0.6-1.1-1.4l5.6-28.9c0.2-0.8,0.6-1.4,1.7-1.4h7.2c1.2,0,1.3,0.8,1.1,1.4L948.6,207.3z"/>
				<path class="st3" d="M998.4,234c-1.7,8.5-3.4,15.4-17.6,15.4c-3.6,0.1-8-0.6-10.3-1.5c-1.3-0.5-1.7-1-1.7-1.7
					c0-0.3,0.1-0.6,0.2-0.9l1.5-3.7c0.6-1.5,1.2-1.4,2.4-1.2c3,0.5,6.2,0.7,8.5,0.7c4.7,0,5.6-1.2,6.5-4.4l0.4-1.7
					c0-0.1-0.1-0.1-0.1-0.1c-2.5,0.8-4.8,1-6.5,1c-8.5,0-10.8-4-10.8-10.1c0-2.7,0.4-6.1,1.2-8.7c2.1-8.1,6.7-13.5,17.6-13.5
					c4.2,0,9.2,0.6,12.3,1.9c1.6,0.6,1.5,1.9,1.3,3.2L998.4,234z M988.7,212.4c-3,0-5.5,1-6.7,6.5c-0.3,1.5-0.6,3.3-0.6,4.5
					c0,3.1,1.3,3.9,3.7,3.9c1.4,0,2.8-0.1,4.9-0.6l2.7-14C991.2,212.5,990,212.4,988.7,212.4z"/>
				<path class="st3" d="M1069.4,236h-7.1c-1.1,0-1.3-0.5-1.2-1.3l3.3-16.9c0.8-4-0.3-4.9-2.6-4.9c-1.5,0-4.3,1-6.1,1.9l-0.6,3
					l-3.3,16.9c-0.1,0.6-0.4,1.3-1.6,1.3h-7.1c-1,0-1.3-0.5-1.1-1.3l3.3-17.1c0.7-3.6-0.2-4.7-2.5-4.7c-1.5,0-4.2,0.9-6.2,1.9
					l-3.9,19.9c-0.1,0.6-0.5,1.3-1.7,1.3h-7.1c-1,0-1.3-0.5-1.1-1.3l5.6-28.9c0.2-0.8,0.6-1.4,1.7-1.4h7.1c1.2,0,1.2,0.8,1.1,1.4
					l-0.3,1.5l0.1,0.1c3.1-2.2,6.7-3.5,10.1-3.5c3.8,0,6.7,1.4,7.4,4.4c3.5-2.5,7.8-4.4,11.7-4.4c9,0,8.1,6.6,7,12.6l-3.5,18.3
					C1070.8,235.3,1070.5,236,1069.4,236z"/>
				<path class="st3" d="M1109.6,215.2c0,1.5-0.2,3.1-0.4,4.5c-1.3,7.9-3.7,16.8-17.4,16.8c-10.1,0-13-5.5-13-11.9
					c0-1.7,0.3-3.3,0.5-4.9c1.3-6.9,4.5-16,17.3-16C1106.4,203.7,1109.6,208.7,1109.6,215.2z M1089.3,220.1
					c-0.3,1.4-0.4,2.7-0.4,3.8c0,3,1.1,4.1,3.7,4.1c4.3,0,5.5-3,6.4-7.9c0.3-1.4,0.4-2.7,0.4-3.9c0-2.8-1.2-4-3.9-4
					C1091.5,212.3,1090.2,215.4,1089.3,220.1z"/>
				<path class="st3" d="M1137.1,204.6L1137.1,204.6l0.3-1.5l2.2-11c0.2-0.8,0.5-1.5,1.6-1.5h7.2c0.9,0,1.2,0.4,1.2,1
					c0,0.2,0,0.3-0.1,0.5l-8.3,42.4c-0.1,0.6-0.4,1.4-1.6,1.4h-7.2c-0.8,0-1.1-0.3-1.1-0.8c0-0.1,0-0.3,0.1-0.5
					c0.1-0.5,0.3-1.1,0.3-1.6h-0.1c-3.3,2.1-6.8,3.5-9.7,3.5c-6.4,0-8.4-3.7-8.3-9.2c0.1-3.2,0.7-6.7,1.3-9.8
					c2-8.6,5.6-13.9,15.6-13.9C1132.1,203.6,1135,203.9,1137.1,204.6z M1131.6,212.3c-3.5,0-5.3,0.8-6.6,5.5c-0.5,1.9-1,4.9-1,6.6
					c0,2.6,1,3.1,2.8,3.1c1.9,0,4.7-1.2,6.3-1.9l2.4-12.7C1133.9,212.5,1132.8,212.3,1131.6,212.3z"/>
				<path class="st3" d="M1167,233.1l-0.1-0.1c-3.4,2.2-7.6,3.5-10.7,3.5c-9,0-8.3-6-7.1-12.4l3.6-18.4c0.1-0.6,0.4-1.4,1.6-1.4h7.2
					c1.1,0,1.3,0.6,1.1,1.4l-3.2,16.7c-0.6,3.5,0.1,4.8,2.8,4.8c2,0,4.7-1.2,6.2-1.7l3.8-19.8c0.1-0.6,0.5-1.4,1.7-1.4h7.2
					c1.1,0,1.3,0.6,1.2,1.4l-5.6,28.9c-0.1,0.8-0.5,1.4-1.6,1.4h-7.2c-1.2,0-1.2-0.8-1.1-1.4L1167,233.1z"/>
				<path class="st3" d="M1195.2,225.5c-0.4,2.2,0.6,2.3,2.6,2.5c1.3,0.1,1.4,0.4,1.3,1.3l-0.6,4.7c-0.1,0.7-0.4,1.1-1.3,1.4
					c-1.7,0.7-4.2,0.8-5.3,0.8c-5.6,0-8.2-2.4-7.1-8.4l6.9-35.8c0.2-0.8,0.6-1.4,1.7-1.4h7.2c1.2,0,1.3,0.8,1.2,1.4L1195.2,225.5z"
					/>
				<path class="st3" d="M1204.7,217.6c1.7-6.5,5.7-13.7,17.8-13.7c6,0,11.4,2.8,11.4,8.6c0,10.1-12.1,11.7-20,12
					c-0.2,0.5-0.3,1.1-0.3,1.6c0,2.4,2.2,2.6,5.3,2.6c2.9,0,5.4-0.2,8.9-0.6c0.9-0.1,1.6-0.1,1.6,1.1v3.1c0,1.7-0.4,2.2-2.2,2.9
					c-2.8,1-7.8,1.5-11.4,1.5c-7.3,0-12.3-3-12.3-10.8C1203.5,223.1,1204,220.2,1204.7,217.6z M1220.7,211.6c-3.8,0-5,3.5-5.8,6.5
					c3.8-0.3,8.7-1.2,8.7-4.4C1223.5,212.4,1222.5,211.6,1220.7,211.6z"/>
				<path class="st3" d="M1264.4,205.1c1.6,0.6,2.4,1,1.7,2.7l-1.4,3.3c-0.4,1.2-0.6,1.3-2.2,1.2c-2.8-0.3-6.9-0.7-8.8-0.8
					c-3-0.1-3.9,0.7-4,2.2c-0.1,1.3,1.9,1.7,3.5,2c5.3,0.8,10.7,2.2,10.7,8.6c0,10-8.1,12.2-16.3,12.2c-3.1,0-7.5-0.6-9.9-1.4
					c-2-0.8-2.3-1.5-1.5-3.2l1.3-3.1c0.5-1.3,0.9-1.4,2.2-1.2c2.9,0.5,6.8,0.8,9,0.8c3.1,0,4.7-0.6,4.9-2.6c0.1-1.5-1.1-1.9-3-2.2
					c-5.8-1-11-2.6-11-8.9c0-8.7,7.3-11.2,15.3-11.2C1257.5,203.7,1261.8,204.2,1264.4,205.1z"/>
				<path class="st3" d="M1315.2,234.6c-0.1,0.6-0.4,1.4-1.6,1.4h-7.2c-1.1,0-1.2-0.5-1-1.3l0.3-1.6l-0.1-0.1
					c-3.7,2.4-6.7,3.5-9.8,3.5c-6.4,0-8.3-3.6-8.3-9.1c0-2.1,0.3-4.4,0.8-6.8c1.9-9.9,5.1-16.5,14.7-16.5c2.2,0,5.5,0.8,7.8,2.2
					l0.3-1c0.2-0.8,0.6-1,1.4-1h7.1c1.2,0,1.3,0.5,1.1,1.5L1315.2,234.6z M1298.5,220.2c-0.3,1.6-0.5,3-0.5,3.9
					c0,2.8,0.9,3.3,2.8,3.3c1.9,0,4.6-1.2,6.2-1.9l2.2-11.5c-1.7-0.6-3.4-0.9-4.8-0.9C1301,213.2,1299.5,215.1,1298.5,220.2z"/>
				<path class="st3" d="M1337.3,207.3h0.1c3.3-2.2,7.8-3.5,10.7-3.5c9,0,8.3,6.8,7.2,12.7l-3.5,18.2c-0.1,0.6-0.4,1.4-1.6,1.4h-7.3
					c-1.1,0-1.2-0.6-1.1-1.4l3.3-16.7c0.7-4-0.3-4.9-2.9-4.9c-1.9,0-4.9,1.2-6.4,1.8l-3.8,19.8c-0.1,0.6-0.4,1.4-1.7,1.4h-7.2
					c-1,0-1.2-0.6-1.1-1.4l5.6-28.9c0.2-0.8,0.6-1.4,1.7-1.4h7.2c1.2,0,1.3,0.8,1.1,1.4L1337.3,207.3z"/>
				<path class="st3" d="M1383,204.6L1383,204.6l0.3-1.5l2.2-11c0.2-0.8,0.5-1.5,1.6-1.5h7.2c0.9,0,1.2,0.4,1.2,1
					c0,0.2,0,0.3-0.1,0.5l-8.3,42.4c-0.1,0.6-0.4,1.4-1.6,1.4h-7.2c-0.8,0-1.1-0.3-1.1-0.8c0-0.1,0-0.3,0.1-0.5
					c0.1-0.5,0.3-1.1,0.3-1.6h-0.1c-3.3,2.1-6.8,3.5-9.7,3.5c-6.4,0-8.4-3.7-8.3-9.2c0.1-3.2,0.7-6.7,1.3-9.8
					c2-8.6,5.6-13.9,15.6-13.9C1377.9,203.6,1380.8,203.9,1383,204.6z M1377.4,212.3c-3.5,0-5.3,0.8-6.6,5.5c-0.5,1.9-1,4.9-1,6.6
					c0,2.6,1,3.1,2.8,3.1c1.9,0,4.7-1.2,6.3-1.9l2.4-12.7C1379.7,212.5,1378.6,212.3,1377.4,212.3z"/>
				<path class="st3" d="M1424.3,225.5c-0.4,2.2,0.6,2.3,2.6,2.5c1.3,0.1,1.4,0.4,1.3,1.3l-0.6,4.7c-0.1,0.7-0.4,1.1-1.3,1.4
					c-1.7,0.7-4.2,0.8-5.3,0.8c-5.6,0-8.2-2.4-7.1-8.4l6.9-35.8c0.2-0.8,0.6-1.4,1.7-1.4h7.2c1.2,0,1.3,0.8,1.2,1.4L1424.3,225.5z"
					/>
				<path class="st3" d="M1433.9,217.6c1.7-6.5,5.7-13.7,17.8-13.7c6,0,11.4,2.8,11.4,8.6c0,10.1-12.1,11.7-20,12
					c-0.2,0.5-0.3,1.1-0.3,1.6c0,2.4,2.2,2.6,5.3,2.6c2.9,0,5.4-0.2,8.9-0.6c0.9-0.1,1.6-0.1,1.6,1.1v3.1c0,1.7-0.4,2.2-2.2,2.9
					c-2.8,1-7.8,1.5-11.4,1.5c-7.3,0-12.3-3-12.3-10.8C1432.7,223.1,1433.2,220.2,1433.9,217.6z M1449.9,211.6c-3.8,0-5,3.5-5.8,6.5
					c3.8-0.3,8.7-1.2,8.7-4.4C1452.7,212.4,1451.7,211.6,1449.9,211.6z"/>
				<path class="st3" d="M1493.6,205.1c1.6,0.6,2.4,1,1.7,2.7l-1.4,3.3c-0.4,1.2-0.6,1.3-2.2,1.2c-2.8-0.3-6.9-0.7-8.8-0.8
					c-3-0.1-3.9,0.7-4,2.2c-0.1,1.3,1.9,1.7,3.5,2c5.3,0.8,10.7,2.2,10.7,8.6c0,10-8.1,12.2-16.3,12.2c-3.1,0-7.5-0.6-9.9-1.4
					c-2-0.8-2.3-1.5-1.5-3.2l1.3-3.1c0.5-1.3,0.9-1.4,2.2-1.2c2.9,0.5,6.8,0.8,9,0.8c3.1,0,4.7-0.6,4.9-2.6c0.1-1.5-1.1-1.9-3-2.2
					c-5.8-1-11-2.6-11-8.9c0-8.7,7.3-11.2,15.3-11.2C1486.7,203.7,1491,204.2,1493.6,205.1z"/>
				<path class="st3" d="M1524.8,205.1c1.6,0.6,2.4,1,1.7,2.7l-1.4,3.3c-0.4,1.2-0.6,1.3-2.2,1.2c-2.8-0.3-6.9-0.7-8.8-0.8
					c-3-0.1-3.9,0.7-4,2.2c-0.1,1.3,1.9,1.7,3.5,2c5.3,0.8,10.7,2.2,10.7,8.6c0,10-8.1,12.2-16.3,12.2c-3.1,0-7.5-0.6-9.9-1.4
					c-2-0.8-2.3-1.5-1.5-3.2l1.3-3.1c0.5-1.3,0.9-1.4,2.2-1.2c2.9,0.5,6.8,0.8,9,0.8c3.1,0,4.7-0.6,4.9-2.6c0.1-1.5-1.1-1.9-3-2.2
					c-5.8-1-11-2.6-11-8.9c0-8.7,7.3-11.2,15.3-11.2C1518,203.7,1522.3,204.2,1524.8,205.1z"/>
				<path class="st3" d="M1560.4,215.2c0,1.5-0.2,3.1-0.4,4.5c-1.3,7.9-3.7,16.8-17.4,16.8c-10.1,0-13-5.5-13-11.9
					c0-1.7,0.3-3.3,0.5-4.9c1.3-6.9,4.5-16,17.3-16C1557.2,203.7,1560.4,208.7,1560.4,215.2z M1540.2,220.1
					c-0.3,1.4-0.4,2.7-0.4,3.8c0,3,1.1,4.1,3.7,4.1c4.3,0,5.5-3,6.4-7.9c0.3-1.4,0.4-2.7,0.4-3.9c0-2.8-1.2-4-3.9-4
					C1542.3,212.3,1541.1,215.4,1540.2,220.1z"/>
				<path class="st3" d="M1578.1,207.3h0.1c3.3-2.2,7.8-3.5,10.7-3.5c9,0,8.3,6.8,7.2,12.7l-3.5,18.2c-0.1,0.6-0.4,1.4-1.6,1.4h-7.3
					c-1.1,0-1.2-0.6-1.1-1.4l3.3-16.7c0.7-4-0.3-4.9-2.9-4.9c-1.9,0-4.9,1.2-6.4,1.8l-3.8,19.8c-0.1,0.6-0.4,1.4-1.7,1.4h-7.2
					c-1,0-1.2-0.6-1.1-1.4l5.6-28.9c0.2-0.8,0.6-1.4,1.7-1.4h7.2c1.2,0,1.3,0.8,1.1,1.4L1578.1,207.3z"/>
				<path class="st3" d="M1650.7,212.8c0,0.7,0,1.5-0.1,2.4c-0.1,2.3-0.5,5.2-1,7.6c-1.9,8.9-6.1,13.9-15.7,13.9
					c-1.7,0-4.6-0.3-6.7-1l-2.2,11.5c-0.1,0.6-0.4,1.4-1.7,1.4h-7.1c-1,0-1.3-0.5-1.1-1.4l8-41.4c0.2-0.8,0.7-1.5,1.7-1.5h7.2
					c1.2,0,1.3,0.5,1.2,1.2l-0.3,1.7c0,0,0,0.1,0.1,0.1c3.3-2.2,6.9-3.5,9.8-3.5C1648.6,203.8,1650.6,207.4,1650.7,212.8z
					 M1631.3,214.8c-0.9,4.2-1.7,8.3-2.5,12.6c2.2,0.5,3.5,0.7,5.1,0.7c5,0,6.3-7.6,6.3-11.3c0-2.6-0.4-3.8-2.8-3.8
					C1635.6,213,1632.9,214.1,1631.3,214.8z"/>
				<path class="st3" d="M1665.1,225.5c-0.4,2.2,0.6,2.3,2.6,2.5c1.3,0.1,1.4,0.4,1.3,1.3l-0.6,4.7c-0.1,0.7-0.4,1.1-1.3,1.4
					c-1.7,0.7-4.2,0.8-5.3,0.8c-5.6,0-8.2-2.4-7.1-8.4l6.9-35.8c0.2-0.8,0.6-1.4,1.7-1.4h7.2c1.2,0,1.3,0.8,1.2,1.4L1665.1,225.5z"
					/>
				<path class="st3" d="M1701.1,234.6c-0.1,0.6-0.4,1.4-1.6,1.4h-7.2c-1.1,0-1.2-0.5-1-1.3l0.3-1.6l-0.1-0.1
					c-3.7,2.4-6.7,3.5-9.8,3.5c-6.4,0-8.3-3.6-8.3-9.1c0-2.1,0.3-4.4,0.8-6.8c1.9-9.9,5.1-16.5,14.7-16.5c2.2,0,5.5,0.8,7.8,2.2
					l0.3-1c0.2-0.8,0.6-1,1.4-1h7.1c1.2,0,1.3,0.5,1.1,1.5L1701.1,234.6z M1684.5,220.2c-0.3,1.6-0.5,3-0.5,3.9
					c0,2.8,0.9,3.3,2.8,3.3c1.9,0,4.6-1.2,6.2-1.9l2.2-11.5c-1.7-0.6-3.4-0.9-4.8-0.9C1687,213.2,1685.4,215.1,1684.5,220.2z"/>
				<path class="st3" d="M1723.3,207.3h0.1c3.3-2.2,7.8-3.5,10.7-3.5c9,0,8.3,6.8,7.2,12.7l-3.5,18.2c-0.1,0.6-0.4,1.4-1.6,1.4h-7.3
					c-1.1,0-1.2-0.6-1.1-1.4l3.3-16.7c0.7-4-0.3-4.9-2.9-4.9c-1.9,0-4.9,1.2-6.4,1.8l-3.8,19.8c-0.1,0.6-0.4,1.4-1.7,1.4h-7.2
					c-1,0-1.2-0.6-1.1-1.4l5.6-28.9c0.2-0.8,0.6-1.4,1.7-1.4h7.2c1.2,0,1.3,0.8,1.1,1.4L1723.3,207.3z"/>
				<path class="st3" d="M1772.1,205.1c1.6,0.6,2.4,1,1.7,2.7l-1.4,3.3c-0.4,1.2-0.6,1.3-2.2,1.2c-2.8-0.3-6.9-0.7-8.8-0.8
					c-3-0.1-3.9,0.7-4,2.2c-0.1,1.3,1.9,1.7,3.5,2c5.3,0.8,10.7,2.2,10.7,8.6c0,10-8.1,12.2-16.3,12.2c-3.1,0-7.5-0.6-9.9-1.4
					c-2-0.8-2.3-1.5-1.5-3.2l1.3-3.1c0.5-1.3,0.9-1.4,2.2-1.2c2.9,0.5,6.8,0.8,9,0.8c3.1,0,4.7-0.6,4.9-2.6c0.1-1.5-1.1-1.9-3-2.2
					c-5.8-1-11-2.6-11-8.9c0-8.7,7.3-11.2,15.3-11.2C1765.2,203.7,1769.5,204.2,1772.1,205.1z"/>
			</g>
			<g>
				<g>
					<path class="st0" d="M506.5,122c-0.5,0.2-0.8,0.2-1.1-0.1l-0.8-0.8c-0.4-0.5-0.4-0.6,0.1-1.1c0.7-0.7,1-1.5,1-2.2
						c0-0.6-0.2-1.3-0.7-1.8c-0.5-0.6-0.6-0.9,0.1-1.4l1.9-1.5c0.6-0.5,1-0.2,1.4,0.2c0.8,0.8,1.2,2,1.2,2.9
						C509.8,118.8,508.1,121,506.5,122z M507.3,108c-2.1,0-2.4-1.2-2.4-2.3c0-1.2,0.5-2.2,2.4-2.2c2,0,2.4,0.9,2.4,2.2
						C509.7,106.9,509.4,108,507.3,108z"/>
				</g>
			</g>
			<line class="st4" x1="385.1" y1="117" x2="399.6" y2="127.2"/>
			<line class="st4" x1="411.2" y1="233.1" x2="431" y2="188.6"/>
			<circle class="st5" cx="507.6" cy="113.4" r="16.9"/>
			<path class="st4" d="M404.3,276.7c-2.3,0-4.7-0.4-6.9-1.1c-5.7-1.8-10.3-5.8-13-11.1s-3.2-11.4-1.3-17.1
				c3-9.2,11.5-15.4,21.2-15.4c2.3,0,4.7,0.4,6.9,1.1c5.7,1.8,10.3,5.8,13,11.1s3.2,11.4,1.3,17.1
				C422.6,270.5,414,276.7,404.3,276.7z"/>
			<circle class="st5" cx="371" cy="107.8" r="16.9"/>
			<g>
				<g>
					<g>
						<g>
							<path class="st0" d="M369.9,108.3h-4.6v-2.1h4.6v-4.9h2.3v4.9h4.6v2.1h-4.6v4.9h-2.3V108.3z"/>
						</g>
					</g>
				</g>
			</g>
			<g>
				<path class="st4" d="M544.2,228.4c-8,9.4-22.1,10.5-31.5,2.5c-9.4-8-10.5-22.1-2.5-31.5c8-9.4,22.1-10.5,31.5-2.5"/>
			</g>
			<path class="st4" d="M329.6,194.5c8,9.4,22.1,10.5,31.5,2.5s10.5-22.1,2.5-31.5s-22.1-10.5-31.5-2.5"/>
			<path class="st5" d="M437.4,186.6"/>
			<g>
				<g>
					<path class="st5" d="M451.9,125.7c0,0,22.8,7.6,24.3,18.2s2.5,20.5,2.5,20.5s2.7,11.4-14.3,9.5"/>
				</g>
				<g>
					<path class="st5" d="M422.7,125.7c0,0-22.6,7.6-24.1,18.2s-2.5,20.5-2.5,20.5s-2.7,11.4,14.3,9.5"/>
					<line class="st5" x1="418.7" y1="127.2" x2="423.4" y2="139.4"/>
					<line class="st5" x1="455.9" y1="127.2" x2="451.2" y2="139.4"/>
				</g>
			</g>
			<g>
				<path class="st5" d="M440.3,74.1c7.3,0,13.2,5.9,13.2,13.2v7.3c0,0,1,21.1-16.2,21.1s-16.2-21.1-16.2-21.1v-4.3v-3
					c0-7.3,5.9-13.2,13.2-13.2H440.3z"/>
				<path class="st5" d="M421.1,90.3c7.9-3.7,8.1-3.3,16.3,0c8.2,3.3,8.4,3.8,16.3,0"/>
			</g>
			<g>
				<line class="st5" x1="428.5" y1="113.1" x2="428.5" y2="122.2"/>
				<line class="st5" x1="446.1" y1="113.1" x2="446.1" y2="122.2"/>
			</g>
			<polygon class="st5" points="437.3,130.4 444.4,134 451.9,125.7 448,121.1 437.3,123 426.6,121.1 422.7,125.7 430.2,134 			"/>
			<g>
				<rect x="410.2" y="139.4" class="st5" width="54.4" height="39.2"/>
				<line class="st4" x1="419.1" y1="184.2" x2="455.7" y2="184.2"/>
			</g>
			<line class="st4" x1="479.5" y1="181.6" x2="508.6" y2="201.5"/>
			<path class="st4" d="M480.3,131.1c1.5-0.9,13-8.5,13-8.5"/>
			<line class="st4" x1="369" y1="175.3" x2="386.5" y2="171.1"/>
		</g>
	</g>
	<g>
		<path class="st0" d="M523.6,217.8v2.5c0,0.3-0.2,0.3-0.4,0.2l-10.1-5.1c-0.2-0.1-0.4-0.2-0.4-0.6v-1.7c0-0.3,0.1-0.4,0.4-0.6
			l10.1-5.1c0.3-0.1,0.4,0.1,0.4,0.3v2.4c0,0.4-0.1,0.5-0.4,0.6l-6.2,3.3v0.1l6.3,3.2C523.5,217.3,523.6,217.4,523.6,217.8z"/>
		<path class="st0" d="M529.1,223.3c0,0.2-0.3,0.4-0.5,0.4h-2.4c-0.4,0-0.5-0.2-0.4-0.5c1-4,3.3-13.9,4.3-17.9
			c0-0.2,0.2-0.4,0.5-0.4h2.3c0.3,0,0.5,0.2,0.4,0.6L529.1,223.3z"/>
		<path class="st0" d="M542.2,214v-0.1l-6.3-3.3c-0.2-0.1-0.4-0.2-0.4-0.6v-2.4c0-0.2,0.1-0.4,0.4-0.3l10.1,5.1
			c0.2,0.1,0.3,0.2,0.3,0.6v1.7c0,0.4-0.2,0.5-0.4,0.6l-10.1,5.1c-0.2,0.1-0.5,0.1-0.5-0.2v-2.5c0-0.4,0.1-0.5,0.4-0.6L542.2,214z"
			/>
	</g>
	<g>
		<path class="st0" d="M337.8,188.3c0,0.9,0.2,1.3,1.1,1.3l0.8,0.1c0.4,0,0.6,0.1,0.6,0.6v1.9c0,0.3-0.2,0.5-0.5,0.6
			c-1,0.2-1.9,0.2-2.6,0.2c-2.7,0-3.6-1.8-3.6-3.5v-5.1c0-1.3,0-2.1-1.2-2.5c-0.3-0.1-0.5-0.3-0.5-0.6v-1.6c0-0.3,0.2-0.4,0.4-0.5
			c1.3-0.4,1.3-1.2,1.3-2.5v-4.6c0-1.8,1.2-3.6,3.7-3.6c0.7,0,1.3,0.1,2.5,0.2c0.4,0,0.5,0.2,0.5,0.6v1.9c0,0.5-0.2,0.6-0.6,0.6
			l-0.8,0.1c-0.8,0.1-1,0.5-1,1.4v3.9c0,1-0.3,2.9-2,3.5v0.1c1.9,0.7,1.9,2,1.9,3.4V188.3z"/>
		<path class="st0" d="M353.4,184.1c0-1.3,0.1-2.7,1.9-3.4v-0.1c-1.7-0.5-2-2.5-2-3.5v-3.9c0-0.9-0.2-1.3-1-1.4l-0.8-0.1
			c-0.4,0-0.5-0.1-0.5-0.6v-1.9c0-0.4,0.2-0.6,0.5-0.6c1.1-0.1,1.8-0.1,2.5-0.1c2.5,0,3.7,1.7,3.7,3.5v4.6c0,1.3,0,2.2,1.3,2.5
			c0.3,0.1,0.4,0.2,0.4,0.5v1.6c0,0.3-0.2,0.5-0.5,0.6c-1.3,0.4-1.3,1.1-1.3,2.5v5.1c0,1.7-0.9,3.5-3.5,3.5c-0.7,0-1.6,0-2.6-0.2
			c-0.3,0-0.5-0.2-0.5-0.6v-1.9c0-0.4,0.2-0.5,0.5-0.6l0.8-0.1c0.9-0.1,1.1-0.5,1.1-1.3V184.1z"/>
	</g>
	<g>
		<path class="st0" d="M399.8,265.8c0.4,0.7,0.3,0.9-0.2,1.1l-1.7,1c-0.5,0.3-0.8,0.3-1.2-0.2c-2.2-3-4.2-7.3-4.2-12.2
			c0-4.7,1.9-8.9,4.2-11.9c0.4-0.6,0.7-0.5,1.2-0.2l1.7,1c0.5,0.3,0.6,0.5,0.2,1.1c-1.7,2.8-2.6,6.3-2.6,10
			C397.1,259.4,398.1,263,399.8,265.8z"/>
		<path class="st0" d="M408.8,245.4c-0.4-0.7-0.3-0.9,0.2-1.1l1.7-1c0.5-0.3,0.8-0.3,1.2,0.2c2.2,3,4.1,7.2,4.1,11.9
			c0,4.9-1.9,9.2-4.1,12.2c-0.5,0.6-0.7,0.5-1.2,0.2l-1.7-1c-0.5-0.3-0.5-0.5-0.2-1.1c1.6-2.8,2.7-6.4,2.7-10.3
			C411.5,251.7,410.5,248.2,408.8,245.4z"/>
	</g>
</g>
</svg>
