<svg id="Layer_1" xmlns="http://www.w3.org/2000/svg" viewBox="0 0 1987.5 360">
    <defs>
        <style>
            .cls-1{fill:#fff;}.cls-2{fill:#f39753;}.cls-3,.cls-4{fill:#ea5d34;}.cls-4{font-size:52px;font-family:ECSquareSansPro-Bold,
            EC Square Sans Pro;}.cls-5{font-weight:700;}.cls-6{font-family:ECSquareSansPro-Italic, EC Square Sans
            Pro;font-style:italic;}.cls-7{letter-spacing:-0.02em;}.cls-8{letter-spacing:-0.02em;}.cls-9{letter-spacing:0em;}.cls-10{opacity:0.71;}.cls-11{fill:#f0874f;}.cls-12{fill:#ee7f4e;}.cls-13{fill:#e44225;}.cls-14{fill:#e54725;}.cls-15{fill:#eb71a6;}.cls-16{fill:#ffd552;}.cls-17{fill:#f1944c;}.cls-18{fill:#e64d25;}.cls-19{fill:#ed737d;}.cls-20{fill:#e63381;}.cls-21{fill:#ec739d;}.cls-22{fill:#eb607d;}.cls-23{fill:#f6ac4f;}.cls-24{fill:#eb75a4;}.cls-25{fill:#e7347e;}.cls-26{fill:#ea73a8;}.cls-27{fill:#e52c6c;}.cls-28{fill:#e62e47;}.cls-29{fill:#e9629d;}.cls-30{fill:#e62a87;}.cls-31{fill:#e64f25;}.cls-32{fill:#ec6a4a;}.cls-33{fill:#e43e25;}.cls-34{fill:#e6332e;}.cls-35{fill:#e52e2e;}.cls-36{fill:#e11f26;}.cls-37{fill:#e43825;}.cls-38{fill:#eb78ab;}.cls-39{fill:#ec7491;}.cls-40{fill:#f6dc55;}.cls-41{fill:#f1d311;}.cls-42{fill:#ae599d;}.cls-43{fill:#ae2a86;}.cls-44{fill:#675ba4;}.cls-45{fill:#6a70b3;}.cls-46{fill:#42378c;}.cls-47{fill:#84cef2;}.cls-48{fill:#86cff2;}.cls-49{fill:#ed734b;}.cls-50{fill:#e43525;}.cls-51,.cls-52{fill:none;stroke:#fff;stroke-width:2px;}.cls-52{stroke-miterlimit:10;}
        </style>
    </defs>
    <title>Artboard 2</title>
    <rect class="cls-1" x="0.59" y="0.94" width="1992.06" height="357.34"/>
    <circle class="cls-2" cx="437.39" cy="175.25" r="155.27"/>
    <rect class="cls-1" x="1608.19" y="28.2" width="245.71" height="55.12"/>
    <path class="cls-3" d="M1801.81,73.13A2.33,2.33,0,0,0,1799,70.3a2.3,2.3,0,0,0-1.67,1.67,2.32,2.32,0,0,0,4.5,1.16Z"/>
    <path class="cls-3"
          d="M1598.47,71.9a13.05,13.05,0,0,1-9.13,3.16q-7.26,0-10.93-5.32-3.17-4.58-3.16-12.2t3.25-12.39q3.72-5.37,11.12-5.37a13.18,13.18,0,0,1,8.52,2.78,10.65,10.65,0,0,1,3.54,4.85l-1.46.75q-2.31-7-10.88-7a10.74,10.74,0,0,0-9.66,5.21,20.5,20.5,0,0,0-2.78,11.09q0,6.72,2.68,11a10.5,10.5,0,0,0,9.52,5.17,12.09,12.09,0,0,0,8.24-2.74,10.06,10.06,0,0,0,3.25-5.46l1.37.71A11.35,11.35,0,0,1,1598.47,71.9Z"/>
    <path class="cls-3"
          d="M1609.54,53.3a9.54,9.54,0,0,1,8.2-3.87A9.63,9.63,0,0,1,1626,53.3a14.51,14.51,0,0,1,2.55,9,14.72,14.72,0,0,1-2.55,9,9.79,9.79,0,0,1-8.24,3.77,9.61,9.61,0,0,1-8.2-3.77,14.78,14.78,0,0,1-2.54-9A14.57,14.57,0,0,1,1609.54,53.3Zm1.09,16.92a8.11,8.11,0,0,0,7.11,3.52,8.24,8.24,0,0,0,7.16-3.52,13.48,13.48,0,0,0,2.12-7.93,13.66,13.66,0,0,0-2.12-7.93,8.26,8.26,0,0,0-7.16-3.51,8.05,8.05,0,0,0-7.11,3.51,13.58,13.58,0,0,0-2.12,7.93A13.41,13.41,0,0,0,1610.63,70.22Z"/>
    <path class="cls-3"
          d="M1654.3,74.4h-1.51V69q-2.4,6-9.24,6-5.41,0-8.24-3.77a14.66,14.66,0,0,1-2.54-9,14.57,14.57,0,0,1,2.54-9,9.65,9.65,0,0,1,8.24-3.87q7,0,9.24,5.89V40.53h1.51Zm-3.63-20a9,9,0,0,0-14.23,0,13.32,13.32,0,0,0-2.16,7.93,13.48,13.48,0,0,0,2.11,7.93,8.17,8.17,0,0,0,7.16,3.52,8.06,8.06,0,0,0,7.12-3.52,13.48,13.48,0,0,0,2.12-7.93A13.66,13.66,0,0,0,1650.67,54.36Z"/>
    <path class="cls-3"
          d="M1669.89,75a9.14,9.14,0,0,1-8-3.86,15.44,15.44,0,0,1-2.36-8.9,15.21,15.21,0,0,1,2.36-8.86,9.06,9.06,0,0,1,8-4,9.22,9.22,0,0,1,7.82,3.54,13.47,13.47,0,0,1,2.45,8.47v.9h-19.08v.38a12.73,12.73,0,0,0,2.12,7.53,7.66,7.66,0,0,0,6.69,3.49,7.94,7.94,0,0,0,8-5.56l1.23.66a9.31,9.31,0,0,1-3,4.1A9.91,9.91,0,0,1,1669.89,75Zm8.71-14.08a11.42,11.42,0,0,0-2-7,7.4,7.4,0,0,0-6.36-3.11,8,8,0,0,0-6.65,3,12.62,12.62,0,0,0-2.4,7.06Z"/>
    <path class="cls-3"
          d="M1682.56,40.53h1.6l8.29,31,8.39-23h1.5l8.44,23,8.24-31h1.6l-9,33.87H1710l-8.38-23.6-8.38,23.6h-1.61Z"/>
    <path class="cls-3"
          d="M1732.49,75a9.14,9.14,0,0,1-8-3.86,15.44,15.44,0,0,1-2.36-8.9,15.21,15.21,0,0,1,2.36-8.86,9.06,9.06,0,0,1,8-4,9.22,9.22,0,0,1,7.82,3.54,13.47,13.47,0,0,1,2.45,8.47v.9h-19.08v.38a12.8,12.8,0,0,0,2.12,7.53,7.66,7.66,0,0,0,6.69,3.49,8,8,0,0,0,8.06-5.56l1.22.66a9.31,9.31,0,0,1-3,4.1A9.91,9.91,0,0,1,1732.49,75Zm8.72-14.08a11.43,11.43,0,0,0-2-7,7.4,7.4,0,0,0-6.36-3.11,8,8,0,0,0-6.64,3,12.55,12.55,0,0,0-2.4,7.06Z"/>
    <path class="cls-3"
          d="M1757.13,75a9.14,9.14,0,0,1-8-3.86,15.44,15.44,0,0,1-2.36-8.9,15.21,15.21,0,0,1,2.36-8.86,9.06,9.06,0,0,1,8-4A9.22,9.22,0,0,1,1765,53a13.47,13.47,0,0,1,2.45,8.47v.9h-19.08v.38a12.8,12.8,0,0,0,2.12,7.53,7.66,7.66,0,0,0,6.69,3.49,7.93,7.93,0,0,0,8-5.56l1.23.66a9.31,9.31,0,0,1-3,4.1A9.91,9.91,0,0,1,1757.13,75Zm8.71-14.08a11.42,11.42,0,0,0-2-7,7.4,7.4,0,0,0-6.36-3.11,8,8,0,0,0-6.64,3,12.55,12.55,0,0,0-2.41,7.06Z"/>
    <path class="cls-3"
          d="M1772.67,40.53h1.51V63.88l14.09-14h1.83l-8.9,8.91,10.31,15.57h-1.69l-9.66-14.51-6,5.79V74.4h-1.51Z"/>
    <polygon class="cls-3"
             points="1814.78 66.62 1801.69 53.53 1829.3 25.92 1841.92 38.54 1839.95 40.51 1829.3 29.86 1805.63 53.53 1816.75 64.65 1814.78 66.62"/>
    <rect class="cls-3" x="1819.36" y="39.95" width="2.78" height="10.07"
          transform="translate(501.43 1300.59) rotate(-45)"/>
    <path class="cls-3"
          d="M1842.21,85.85a19.77,19.77,0,0,1-14-5.81l-10.81-10.81,2-2,10.8,10.81a16.89,16.89,0,0,0,23.83.15,16.62,16.62,0,0,0,4.9-11.88,16.85,16.85,0,0,0-5-11.89L1843,43.59l2-2,10.86,10.87a19.59,19.59,0,0,1,5.82,13.84,19.46,19.46,0,0,1-19.47,19.52Z"/>
    <path class="cls-3"
          d="M1870.7,90.23a10.29,10.29,0,0,1-7.3-3l-4.78-4.78,2-2,4.77,4.78a7.55,7.55,0,0,0,10.66,0l6.22-6.19,2,2L1878,87.23A10.28,10.28,0,0,1,1870.7,90.23Z"/>
    <text class="cls-4" transform="translate(673.99 156.63)">
        <tspan class="cls-5">Are you a teacher?</tspan>
        <tspan class="cls-6">
            <tspan x="0" y="62.4">Click here to find out how to get involved!</tspan>
        </tspan>
    </text>
    <g id="Layer_1-2" class="cls-10">
        <path class="cls-11"
              d="M144.87-.14a41.41,41.41,0,0,0-15.23-10.57,21.14,21.14,0,0,1-29.56,4.46,21.33,21.33,0,0,1-3.63-3.41l-.55.25A41.38,41.38,0,0,0,75.57,42.52,36.27,36.27,0,0,0,77.11,46a41.08,41.08,0,0,0,15.57,17,48.24,48.24,0,0,1,19.6,6,41.57,41.57,0,0,0,32.53-13.46,35.6,35.6,0,0,1-9.72-12.1c-.49-1-.93-2-1.32-3A35.68,35.68,0,0,1,144.85-.14"/>
        <path class="cls-2"
              d="M255.77,26.72a49.32,49.32,0,0,0-54-7.07,35.69,35.69,0,0,1-26.7,42.83l-.95.2a49,49,0,0,0,3.25,18.91,45.26,45.26,0,0,0,1.83,4.18,49.1,49.1,0,0,0,13.07,16.42,28.69,28.69,0,0,1,48.92,4.12c.39.81.76,1.62,1.07,2.44l.24.65c.91-.38,1.81-.8,2.71-1.24a49,49,0,0,0,21.64-20.94A44.93,44.93,0,0,1,253.41,71c-.64-1.27-1.18-2.55-1.69-3.83a45.27,45.27,0,0,1,4-40.44"/>
        <path class="cls-12"
              d="M200.38,15c-.39-1-.83-2-1.31-3l-.33-.62A40.37,40.37,0,0,1,167-7.9a35.8,35.8,0,0,0-22.1,7.78,41.37,41.37,0,0,1,6.5,9.54c.57,1.15,1.09,2.33,1.54,3.51a41.41,41.41,0,0,1-8,42.69,35.72,35.72,0,0,0,29.32,7.09,49.29,49.29,0,0,1,27.47-42.92l.19,0a34.84,34.84,0,0,0-1.44-4.66"/>
        <path class="cls-13"
              d="M152.88,12.91c-.45-1.18-1-2.35-1.54-3.51a41.55,41.55,0,0,0-6.49-9.54A35.68,35.68,0,0,0,133.77,40.5c.4,1,.84,2,1.32,3a35.6,35.6,0,0,0,9.72,12.1,41.45,41.45,0,0,0,8-42.7"/>
        <path class="cls-14"
              d="M201.82,19.67l-.18,0a49.31,49.31,0,0,0-27.48,42.93A35.68,35.68,0,0,0,202,20.54c-.06-.32-.13-.64-.2-.95"/>
        <path class="cls-15"
              d="M.69,43.84A35.3,35.3,0,0,0-29,40.8l.05.42A21.33,21.33,0,0,1-42,68.46a21.36,21.36,0,0,1-10.66.94,35.2,35.2,0,0,0,1.68,16.66l.36,1a35.57,35.57,0,0,0,4.14,7.74A42.58,42.58,0,0,1-5.66,107.63q.95-.34,1.83-.72a45.48,45.48,0,0,1-6.08-9.25,41.05,41.05,0,0,1-1.66-3.81A45.12,45.12,0,0,1,.62,44"/>
        <path class="cls-16"
              d="M379.44-30.41a29.06,29.06,0,0,0-37.58-16.66,29,29,0,0,0-12.45,9.24,39.57,39.57,0,0,1,.24,36.13,29.07,29.07,0,0,0,40.87,4.47,29,29,0,0,0,8.93-33.09"/>
        <path class="cls-17"
              d="M242.55,109.4a49.34,49.34,0,0,1-50.22-7.13,28.7,28.7,0,0,0-3.55,27.08c.32.81.67,1.62,1.06,2.43a28.64,28.64,0,0,0,3.13,5,13.71,13.71,0,0,1,18,6.49l.52,1.15a13.91,13.91,0,0,1,.81,3.23,28.67,28.67,0,0,0,30.29-38.09"/>
        <path class="cls-18"
              d="M242.31,108.77c-.31-.82-.67-1.63-1.06-2.44a28.68,28.68,0,0,0-48.92-4.12,49.32,49.32,0,0,0,50.21,7.13l-.24-.66"/>
        <path class="cls-19"
              d="M72.69,61.46A37.71,37.71,0,0,0,71,57.65,45.11,45.11,0,0,0,.69,43.86,35.23,35.23,0,0,1,15.43,61.5l.37,1A35.39,35.39,0,0,1-3.71,106.79,45.12,45.12,0,0,0,41.8,121.25a48.07,48.07,0,0,1,25.7-53.4A46.93,46.93,0,0,1,74,65.21c-.36-1.26-.78-2.53-1.26-3.78"/>
        <path class="cls-20"
              d="M15.52,61.49A35.23,35.23,0,0,0,.77,43.86,45.09,45.09,0,0,0-11.41,93.72c.48,1.29,1.05,2.57,1.66,3.82a45.34,45.34,0,0,0,6.08,9.25A35.38,35.38,0,0,0,16,62.42l-.36-1"/>
        <path class="cls-21"
              d="M59.89,218.56a17.3,17.3,0,0,0-32.46,12h0l.18.46a17.26,17.26,0,0,0,3.45,5.55,11.38,11.38,0,0,1,15.2,5.27l0,.08a17.31,17.31,0,0,0,14.52-19.71,17.56,17.56,0,0,0-.77-3.1l-.18-.47"/>
        <path class="cls-2"
              d="M269.48,46.32c-.54-1.4-1.14-2.8-1.83-4.17a49.1,49.1,0,0,0-11.87-15.41,45.27,45.27,0,0,0-4,40.44c.5,1.28,1.05,2.58,1.68,3.83A45.18,45.18,0,0,0,267,87.24a49.23,49.23,0,0,0,2.58-40.92"/>
        <path class="cls-22"
              d="M75.51,157.21a48,48,0,0,1-29.88-24.94h0a31.42,31.42,0,0,0-24.32,16.85,37.58,37.58,0,0,1,10.54,15l.37,1a37.58,37.58,0,0,1,.11,24.75A31.4,31.4,0,0,0,72.81,184l-.41-1a27.89,27.89,0,0,1,3.08-25.87"/>
        <path class="cls-23"
              d="M329.41-37.83a39.56,39.56,0,0,0-29.22-20.78,41.45,41.45,0,0,1-45,34.83A39.51,39.51,0,0,0,270.83,12.1c1-.62,2.09-1.2,3.19-1.75a45.26,45.26,0,0,1,43.68,2,39.43,39.43,0,0,0,9.68-10.19,40.63,40.63,0,0,0,2.29-3.93A29.09,29.09,0,0,1,328.06-36c.43-.64.87-1.27,1.35-1.87"/>
        <path class="cls-23"
              d="M317.68,12.33A45.25,45.25,0,0,0,274,10.4q-1.63.8-3.18,1.74.92.67,1.89,1.32a39.48,39.48,0,0,0,45-1.07"/>
        <path class="cls-24"
              d="M46.75,242.69l-.35-.81a17.29,17.29,0,0,1-15.23-5.35,11.38,11.38,0,0,0-5.77,14l0,.31A11.37,11.37,0,0,0,46.78,243l0-.32"/>
        <path class="cls-25" d="M46.4,241.88a11.37,11.37,0,0,0-15.15-5.39l-.08,0a17.29,17.29,0,0,0,15.23,5.35"/>
        <path class="cls-26"
              d="M21.26,149a38.06,38.06,0,0,0-16-8.19,42.57,42.57,0,0,1-46.46,37.65A37.74,37.74,0,0,0-39,190.19l.37,1,.3.77a21.32,21.32,0,0,1,21.84,13.57l.21.57a21.43,21.43,0,0,1,1.22,7.44,37.78,37.78,0,0,0,47.43-23.73A31.2,31.2,0,0,1,20,174.65l-.31-.86A31.27,31.27,0,0,1,21.39,149"/>
        <path class="cls-27"
              d="M31.81,164a37.56,37.56,0,0,0-10.53-15,31.32,31.32,0,0,0-1.69,24.76l.31.86a31.25,31.25,0,0,0,12.34,15.18,37.61,37.61,0,0,0-.12-24.74l-.37-1"/>
        <path class="cls-16" d="M373.91,26.28a15.43,15.43,0,1,0-1.5,14,15.43,15.43,0,0,0,1.5-14"/>
        <path class="cls-19"
              d="M124.45,163.07a25.4,25.4,0,0,0-1-2.35,27.72,27.72,0,0,0-8-9.74,49.3,49.3,0,0,1-5.35,3.11,47.87,47.87,0,0,1-29.85,4.2A31.38,31.38,0,0,1,72.81,184l.63,1.38a27.86,27.86,0,0,0,51-22.3"/>
        <path class="cls-28"
              d="M80.16,158.28c-1.57-.29-3.12-.66-4.66-1.09a27.92,27.92,0,0,0-3.07,25.87l.41,1a31.41,31.41,0,0,0,7.35-25.71"/>
        <path class="cls-12"
              d="M176.85,91.5a24.61,24.61,0,0,0-1-2.37,28,28,0,0,0-47.17-5,47.55,47.55,0,0,1,3.2,5.53c.66,1.35,1.26,2.71,1.77,4.06a47.85,47.85,0,0,1,1.2,30.9,28,28,0,0,0,42-33.14"/>
        <path class="cls-29"
              d="M2.63,120.86a42.24,42.24,0,0,0-8.22-13.35l-.14,0a35.4,35.4,0,0,1-40.64-12.9,42.77,42.77,0,0,0-16.31,7.55A46.56,46.56,0,0,1-53.56,117l.46,1.27A46.75,46.75,0,0,1-65.28,168a42.79,42.79,0,0,0,24.05,10.51A37.8,37.8,0,0,1-4.31,139.8a37.79,37.79,0,0,1,9.54,1,42.28,42.28,0,0,0-2.12-18.9l-.43-1.17"/>
        <path class="cls-30"
              d="M5.23,140.82a37.8,37.8,0,0,0-45.46,28.11,37.91,37.91,0,0,0-1,9.55A42.57,42.57,0,0,0,5.23,140.82"/>
        <path class="cls-23"
              d="M241.78-27.44a41.47,41.47,0,0,1-5.33-3,41.42,41.42,0,0,1-18.63-35.43,40.7,40.7,0,0,0-5-1.8A26.37,26.37,0,0,1,183.15-65a40.4,40.4,0,0,0-8.69,5.91,23.1,23.1,0,0,1,2.42,4,16.75,16.75,0,0,1,.87,2A23.25,23.25,0,0,1,164.42-23a23,23,0,0,1-2.89.91,40.16,40.16,0,0,0,2.12,7.76c.45,1.15.94,2.29,1.49,3.42s1.14,2.2,1.74,3.19a35.63,35.63,0,0,1,31.75,19.24,40.4,40.4,0,0,0,43-37.63c0-.41,0-.82.07-1.24"/>
        <path class="cls-31" d="M198.74,11.34A35.63,35.63,0,0,0,167-7.9a40.37,40.37,0,0,0,31.75,19.24"/>
        <path class="cls-32"
              d="M128.65,84.15A47.69,47.69,0,0,0,112.29,69a41.61,41.61,0,0,1-19.6-6A47.75,47.75,0,0,0,74,65.06,45.15,45.15,0,0,1,42.84,120.8l-1.08.29A47.72,47.72,0,0,0,43.83,128c.52,1.36,1.11,2.72,1.75,4.06A31.4,31.4,0,0,1,78.47,152l.31.86,0,.27a27.9,27.9,0,0,1,36.57-2.23,48,48,0,0,0,19.37-26.28,27.81,27.81,0,0,1-9.29-10.72,24.61,24.61,0,0,1-1-2.37,28.06,28.06,0,0,1,4.15-27.4"/>
        <path class="cls-33" d="M112.27,69a48.38,48.38,0,0,0-19.6-6,41.61,41.61,0,0,0,19.6,6"/>
        <path class="cls-34" d="M74,65.23a48.12,48.12,0,0,0-32.19,56.05A45.14,45.14,0,0,0,74.25,66.34L74,65.23"/>
        <path class="cls-35"
              d="M78.46,152.07a31.38,31.38,0,0,0-32.89-19.9h0a48,48,0,0,0,29.88,24.94,27.68,27.68,0,0,1,3.38-4l0-.27-.31-.86"/>
        <path class="cls-34"
              d="M115.46,151a27.91,27.91,0,0,0-36.58,2.23,30.87,30.87,0,0,1,1.3,5.11A47.83,47.83,0,0,0,110,154.1a49.83,49.83,0,0,0,5.44-3.14"/>
        <path class="cls-36"
              d="M78.86,153.19a27.51,27.51,0,0,0-3.37,4,38.64,38.64,0,0,0,4.65,1.09,31.38,31.38,0,0,0-1.3-5.11"/>
        <path class="cls-37"
              d="M133.63,93.78c-.52-1.37-1.12-2.73-1.78-4.06a49,49,0,0,0-3.19-5.53,28.06,28.06,0,0,0-4.16,27.4c.3.8.65,1.59,1,2.37a27.88,27.88,0,0,0,9.29,10.72,47.92,47.92,0,0,0-1.19-30.9"/>
        <path class="cls-17"
              d="M211.45,144.24l-.52-1.15a13.71,13.71,0,0,0-18-6.49,28.69,28.69,0,0,0,19.3,10.81,13.78,13.78,0,0,0-.81-3.23"/>
        <path class="cls-38"
              d="M5.44,248A8,8,0,0,0-4.73,243.3a8.15,8.15,0,0,0-1,.46A15,15,0,0,1-4.7,246l0,.4a13.87,13.87,0,0,1-1.15,11.7A8,8,0,0,0,5,254.59a8,8,0,0,0,.45-6.3l0-.23"/>
        <path class="cls-39" d="M61.16,253.39a5.69,5.69,0,1,0-10.68,3.95v.14a5.7,5.7,0,0,0,10.69-3.94l0-.17"/>
        <path class="cls-40" d="M391.21,62.31A12.16,12.16,0,0,1,381,54.69a7.87,7.87,0,1,0,10.19,7.62"/>
        <path class="cls-41"
              d="M390.69,59.37A7.86,7.86,0,0,0,381,54.69a12.16,12.16,0,0,0,10.19,7.62,7.8,7.8,0,0,0-.52-2.94"/>
        <path class="cls-19"
              d="M58.73-8.19A16.14,16.14,0,0,0,58-9.73,18.19,18.19,0,0,0,33.65-18,18.2,18.2,0,0,0,24.73,4.83c.2.52.43,1,.68,1.54A18.19,18.19,0,0,0,49.8,14.6,18.19,18.19,0,0,0,58.73-8.19"/>
        <path class="cls-40" d="M389.89,79.18a5.29,5.29,0,1,0-.52,4.8,5.28,5.28,0,0,0,.52-4.8"/>
    </g>
    <g id="Layer_1-3" class="cls-10">
        <path class="cls-11"
              d="M1978.89,214a51.45,51.45,0,0,0-19-13.18,26.34,26.34,0,0,1-41.39,1.3l-.68.32a51.6,51.6,0,0,0-25.36,64.76,46.92,46.92,0,0,0,1.92,4.38,51.42,51.42,0,0,0,19.42,21.24,60.26,60.26,0,0,1,24.45,7.5,51.79,51.79,0,0,0,40.56-16.79,44.29,44.29,0,0,1-12.12-15.08,37.71,37.71,0,0,1-1.64-3.77,44.46,44.46,0,0,1,13.8-50.68"/>
        <path class="cls-12"
              d="M2048.12,232.88c-.49-1.27-1-2.53-1.64-3.77l-.41-.78a50.33,50.33,0,0,1-39.59-24,44.67,44.67,0,0,0-27.56,9.7,51.81,51.81,0,0,1,8.1,11.9,45.79,45.79,0,0,1,1.92,4.38,51.63,51.63,0,0,1-9.94,53.24,44.58,44.58,0,0,0,36.57,8.84,61.47,61.47,0,0,1,34.26-53.53l.24,0a45.53,45.53,0,0,0-1.8-5.82"/>
        <path class="cls-13"
              d="M1988.89,230.3q-.86-2.22-1.92-4.38a51.85,51.85,0,0,0-8.11-11.9,44.49,44.49,0,0,0-13.8,50.68c.49,1.27,1,2.53,1.64,3.77a44.17,44.17,0,0,0,12.12,15.08,51.67,51.67,0,0,0,9.94-53.24"/>
        <path class="cls-15"
              d="M1799.09,268.87a44.05,44.05,0,0,0-37.09-3.79l.06.52a26.6,26.6,0,0,1-29.46,35.14,43.9,43.9,0,0,0,2.1,20.77l.45,1.2a43.81,43.81,0,0,0,5.17,9.66,53.11,53.11,0,0,1,50.85,16c.78-.28,1.54-.58,2.29-.89a56,56,0,0,1-7.58-11.54,48.5,48.5,0,0,1-2.08-4.75A56.26,56.26,0,0,1,1799,269"/>
        <path class="cls-32"
              d="M1963.28,175.84c-.3-.74-.62-1.48-1-2.22a26.2,26.2,0,0,0-14.1-12.9,13.53,13.53,0,0,1-23,1.94,26.37,26.37,0,0,0-11.08,32c.3.74.62,1.49,1,2.23a26.42,26.42,0,0,0,3.43,5.26,51.49,51.49,0,0,1,41.4-1.3,26.4,26.4,0,0,0,3.37-25"/>
        <path class="cls-33" d="M1959.9,200.84a51.47,51.47,0,0,0-41.39,1.3,26.35,26.35,0,0,0,41.39-1.3"/>
        <path class="cls-11"
              d="M1999,112.62c-.22-.59-.47-1.17-.75-1.75a20.59,20.59,0,0,0-37.67,16.49c.22.58.47,1.17.75,1.75a20.51,20.51,0,0,0,10,9.65,29,29,0,0,1,26.7-9.13,20.55,20.55,0,0,0,1-17"/>
        <path class="cls-15" d="M1762,265.05l-.24,0a44.1,44.1,0,0,0-29.12,35.52,26.6,26.6,0,0,0,29.46-35.14l-.06-.52"/>
        <path class="cls-19"
              d="M1888.88,290.84a45.44,45.44,0,0,0-2.1-4.75,56.23,56.23,0,0,0-87.69-17.19,43.93,43.93,0,0,1,18.39,22l.45,1.2a44.13,44.13,0,0,1-24.33,55.28,56.31,56.31,0,0,0,56.75,18,60,60,0,0,1,32.05-66.6,59.27,59.27,0,0,1,8.1-3.3c-.45-1.57-1-3.15-1.57-4.71"/>
        <path class="cls-20"
              d="M1817.58,290.88a43.9,43.9,0,0,0-18.39-22A56.27,56.27,0,0,0,1784,331.07c.6,1.61,1.31,3.2,2.07,4.76a56.64,56.64,0,0,0,7.58,11.54A44.14,44.14,0,0,0,1818.14,292l-.46-1.2"/>
        <path class="cls-12"
              d="M1950,101.81l-.39-.88a10.33,10.33,0,0,0-18.89,8.25l.39.88a10.33,10.33,0,0,0,18.89-8.25"/>
        <path class="cls-42"
              d="M1720.06,341.65a58.37,58.37,0,0,0-16.31-12.47,40.07,40.07,0,0,1-68.38,11A58.33,58.33,0,0,0,1622,400.4l.58,1.61a57.93,57.93,0,0,0,14.76,21.8,50.32,50.32,0,0,1,67.09,8.75,58.18,58.18,0,0,0,12.42-8.87,52.76,52.76,0,0,1-14.3-20.63l-.54-1.45a53.08,53.08,0,0,1,18-60"/>
        <path class="cls-2"
              d="M2015.89,140.49a29,29,0,0,0-17.9-10.88,20.58,20.58,0,0,1-26.7,9.12,29,29,0,0,0-5.57,29.81c.32.83.68,1.67,1.08,2.53a29,29,0,0,0,32.92,15.38,50.46,50.46,0,0,1,16.07-45.92"/>
        <path class="cls-14" d="M1998,129.61a29,29,0,0,0-26.69,9.12,20.58,20.58,0,0,0,26.69-9.12"/>
        <path class="cls-12"
              d="M2018.78,328.3c-.38-1-.81-2-1.29-3a35,35,0,0,0-58.82-6.21,60.74,60.74,0,0,1,4,6.91c.82,1.68,1.57,3.37,2.21,5a59.75,59.75,0,0,1,1.48,38.54,35,35,0,0,0,52.43-41.33"/>
        <path class="cls-29"
              d="M1801.51,364.92a52.63,52.63,0,0,0-10.25-16.65l-.18,0a44.11,44.11,0,0,1-50.67-16.09,53.51,53.51,0,0,0-20.35,9.42,58.36,58.36,0,0,1,11.38,18.43l.57,1.58a58.33,58.33,0,0,1-15.19,62,53.29,53.29,0,0,0,30,13.1,47.12,47.12,0,0,1,57.94-46.95,52.75,52.75,0,0,0-2.64-23.58l-.54-1.45"/>
        <path class="cls-30" d="M1791.26,348.27a53.08,53.08,0,0,0-50.85-16,44.15,44.15,0,0,0,50.65,16.12l.18,0"/>
        <path class="cls-43"
              d="M1731.36,360.09A57.79,57.79,0,0,0,1720,341.66a53,53,0,0,0-18,60l.54,1.45a52.76,52.76,0,0,0,14.3,20.63,58.36,58.36,0,0,0,15.2-62l-.58-1.58"/>
        <path class="cls-42" d="M1703.75,329.18a58.38,58.38,0,0,0-68.38,11,40.07,40.07,0,0,0,68.38-11"/>
        <path class="cls-44"
              d="M1607.69,362.7a41.94,41.94,0,0,0-75.23-6.34l.8,2,.58,1.58a58,58,0,0,1-.76,40.54,42,42,0,0,0,15.36,14.19,50.32,50.32,0,0,1,53.06-11.08,41.89,41.89,0,0,0,6.6-39.76l-.42-1.15"/>
        <path class="cls-45"
              d="M1532.46,356.36a58.22,58.22,0,0,0-32.72-31.5,23.54,23.54,0,0,1-43.43,3c-.32-.65-.62-1.32-.89-2h0a58.34,58.34,0,0,0-31.62,72.81l.58,1.58a57.94,57.94,0,0,0,28,31.05,70.26,70.26,0,0,1,64.85-8.1,58.4,58.4,0,0,0,16-22.76,42.28,42.28,0,0,1-3.82-7.53l-.42-1.14a41.9,41.9,0,0,1,3.43-35.41"/>
        <path class="cls-46"
              d="M1533.26,358.26l-.81-1.95a41.9,41.9,0,0,0-3.5,35.39l.42,1.14a41.58,41.58,0,0,0,3.81,7.53,57.94,57.94,0,0,0,.76-40.51l-.57-1.58"/>
        <path class="cls-32"
              d="M1958.67,319.13a59.58,59.58,0,0,0-20.4-18.93,51.85,51.85,0,0,1-24.45-7.49,59.49,59.49,0,0,0-23.37,2.62,56.3,56.3,0,0,1-38.79,69.51l-1.36.36a59.82,59.82,0,0,0,2.59,8.62q1,2.55,2.18,5.06a39.17,39.17,0,0,1,41,24.82l.38,1.07,0,.34a34.8,34.8,0,0,1,45.61-2.78,59.85,59.85,0,0,0,24.15-32.77,34.7,34.7,0,0,1-11.58-13.37c-.48-1-.91-2-1.29-3a35,35,0,0,1,5.18-34.17"/>
        <path class="cls-33" d="M1938.24,300.2a60.4,60.4,0,0,0-24.45-7.49,51.77,51.77,0,0,0,24.45,7.49"/>
        <path class="cls-34"
              d="M1890.45,295.54a60,60,0,0,0-40.15,69.9,56.28,56.28,0,0,0,40.52-68.51c-.12-.47-.24-.93-.37-1.39"/>
        <path class="cls-37"
              d="M1964.87,331.14c-.64-1.7-1.39-3.39-2.21-5.05a60.53,60.53,0,0,0-4-6.9,35,35,0,0,0-5.19,34.16c.38,1,.81,2,1.29,3a34.7,34.7,0,0,0,11.58,13.37,59.69,59.69,0,0,0-1.49-38.54"/>
        <path class="cls-47"
              d="M1352.57,353.5a13.31,13.31,0,1,0-24.84,9.56,12.49,12.49,0,0,0,1.19,2.33,36.89,36.89,0,0,1,15.66,2,38.14,38.14,0,0,1,3.56,1.48l.52-.4a13.32,13.32,0,0,0,3.91-15"/>
        <path class="cls-44" d="M1537.48,283.83l-.6-1.34a16,16,0,0,0-29.21,12.78l.6,1.36a16,16,0,0,0,29.21-12.77"/>
        <path class="cls-48" d="M1385.48,343.68a9.48,9.48,0,0,0-.68-1.35,8.09,8.09,0,1,0,.68,1.35"/>
        <path class="cls-49"
              d="M1948.71,149.84l-.5-1.14a13.52,13.52,0,0,0-18.09-6.14l-.55.27.24.45.35.79a9.28,9.28,0,0,1-7.45,12.53,13.63,13.63,0,0,0,.74,2.89l.5,1.14a13.79,13.79,0,0,0,1.21,2c.6-.35,1.21-.68,1.85-1a26.41,26.41,0,0,1,21.12-.94,13.52,13.52,0,0,0,.53-10.88"/>
        <path class="cls-50"
              d="M1948.21,160.72a26.37,26.37,0,0,0-21.12.93c-.63.32-1.25.66-1.85,1a13.53,13.53,0,0,0,23-1.95"/>
        <path class="cls-49"
              d="M1929.57,142.83a9.31,9.31,0,0,0-16.78,7.91l.35.78a9.32,9.32,0,0,0,9.6,5.11,13.52,13.52,0,0,1,6.86-13.8"/>
        <path class="cls-37" d="M1930.16,144.07l-.35-.79-.24-.45a13.53,13.53,0,0,0-6.86,13.8,9.3,9.3,0,0,0,7.45-12.54"/>
        <path class="cls-39" d="M1897.33,166.16l-.25-.61a7.09,7.09,0,0,0-13,5.68l.25.61a7.09,7.09,0,1,0,13-5.68h0"/>
        <path class="cls-32" d="M1900.74,136.49l-.21-.48a5.57,5.57,0,0,0-10.12,4.45l.22.48a5.56,5.56,0,0,0,10.11-4.45"/>
        <path class="cls-19"
              d="M1871.47,204a20.49,20.49,0,0,0-.86-1.92,22.69,22.69,0,0,0-41.54,18.16,20.4,20.4,0,0,0,.85,1.92A22.7,22.7,0,0,0,1871.47,204"/>
        <path class="cls-44"
              d="M1499.45,309a18.75,18.75,0,0,0-.89-2,23.54,23.54,0,0,0-43,18.81q2-.85,4-1.56a58,58,0,0,1,40.34.59,23.48,23.48,0,0,0-.35-15.88"/>
        <path class="cls-46"
              d="M1499.79,324.8a58,58,0,0,0-40.39-.58q-2,.7-4,1.56h0a20.56,20.56,0,0,0,.89,2,23.53,23.53,0,0,0,43.43-3"/>
        <path class="cls-44" d="M1509.88,254l-.35-.78a9.41,9.41,0,0,0-17.22,7.53l.35.81a9.41,9.41,0,0,0,17.22-7.53"/>
    </g>
    <path class="cls-1"
          d="M500.27,153.18a1.37,1.37,0,0,1-1.37-1.37V107.75H353.38a1.38,1.38,0,1,1,0-2.75H500.27a1.37,1.37,0,0,1,1.37,1.38v45.43A1.37,1.37,0,0,1,500.27,153.18Z"/>
    <path class="cls-1"
          d="M482.1,216.28H336.59a1.37,1.37,0,0,1-1.37-1.37V139.27a1.37,1.37,0,1,1,2.74,0v74.26H482.1a1.38,1.38,0,0,1,0,2.75Z"/>
    <path class="cls-1"
          d="M542.2,275.71H492.74a1.37,1.37,0,0,1-1.37-1.37V188.42a1.37,1.37,0,0,1,2.74,0V273h46.71V188.42a1.38,1.38,0,0,1,2.75,0v85.92A1.37,1.37,0,0,1,542.2,275.71Z"/>
    <path class="cls-1"
          d="M548.72,189.47H517.47a1.38,1.38,0,0,1,0-2.75h29.88V176.23H487.59v10.49H499.3a1.38,1.38,0,0,1,0,2.75H486.22a1.38,1.38,0,0,1-1.38-1.37V174.85a1.37,1.37,0,0,1,1.38-1.37h62.5a1.37,1.37,0,0,1,1.37,1.37V188.1A1.37,1.37,0,0,1,548.72,189.47Z"/>
    <path class="cls-1"
          d="M537.33,226.15H497.6a1.38,1.38,0,0,1-1.37-1.37V196.19a1.37,1.37,0,0,1,1.37-1.37h39.73a1.37,1.37,0,0,1,1.37,1.37v28.59A1.37,1.37,0,0,1,537.33,226.15ZM499,223.4h37V197.56H499Z"/>
    <path class="cls-1" d="M531,207.48H503.84a1.38,1.38,0,0,1,0-2.75H531a1.38,1.38,0,1,1,0,2.75Z"/>
    <path class="cls-1" d="M523.71,216.36H511a1.38,1.38,0,1,1,0-2.75h12.76a1.38,1.38,0,0,1,0,2.75Z"/>
    <path class="cls-1"
          d="M495.22,176.08a1.37,1.37,0,0,1-1.38-1.37V162a10.45,10.45,0,0,1,8.05-10.2L512,148.84a1.37,1.37,0,0,1,.76,2.64l-10.18,2.94h-.06a7.71,7.71,0,0,0-6,7.54v12.74A1.37,1.37,0,0,1,495.22,176.08Z"/>
    <path class="cls-1"
          d="M539.72,176.08a1.37,1.37,0,0,1-1.37-1.37V162a7.73,7.73,0,0,0-6-7.54h-.07l-10.17-2.94a1.37,1.37,0,0,1,.76-2.64L533,151.77a10.43,10.43,0,0,1,8.05,10.2v12.74A1.37,1.37,0,0,1,539.72,176.08Z"/>
    <path class="cls-1"
          d="M512.5,151.42a1.37,1.37,0,0,1-1.37-1.37v-6.54a1.37,1.37,0,0,1,2.74,0v6.54A1.37,1.37,0,0,1,512.5,151.42Z"/>
    <path class="cls-1"
          d="M522.48,151.42a1.37,1.37,0,0,1-1.37-1.37v-6.54a1.37,1.37,0,1,1,2.74,0v6.54A1.37,1.37,0,0,1,522.48,151.42Z"/>
    <path class="cls-1"
          d="M503.76,175.42a1.37,1.37,0,0,1-1.37-1.37v-5a1.37,1.37,0,1,1,2.74,0v5A1.37,1.37,0,0,1,503.76,175.42Z"/>
    <path class="cls-1"
          d="M530.89,175.42a1.37,1.37,0,0,1-1.37-1.37v-5a1.37,1.37,0,0,1,2.74,0v5A1.37,1.37,0,0,1,530.89,175.42Z"/>
    <path class="cls-1"
          d="M518.69,146.58h-2.52a5.1,5.1,0,0,1-3.61-1.49l-4-4a7,7,0,0,1-2.06-4.94v-5.33a1.38,1.38,0,1,1,2.75,0v5.33a4.25,4.25,0,0,0,1.25,3l4,4a2.32,2.32,0,0,0,1.67.69h2.52a2.41,2.41,0,0,0,1.7-.71l3.9-4a4.22,4.22,0,0,0,1.21-3v-5.07a1.38,1.38,0,0,1,2.75,0v5.07a6.91,6.91,0,0,1-2,4.88l-3.9,4A5.15,5.15,0,0,1,518.69,146.58Z"/>
    <path class="cls-1"
          d="M509.09,132.16a4.09,4.09,0,0,1-2.56-.93,1.52,1.52,0,0,1-.32-.35,9.73,9.73,0,0,1,15.62-11.52,1.37,1.37,0,1,1-2.09,1.78,7,7,0,0,0-11.35,8c1,.6,2.2-.1,4.54-1.78,2.13-1.54,4.54-3.26,7.49-3.26h0a1.38,1.38,0,0,1,0,2.75h0c-2.07,0-4,1.38-5.89,2.73C512.84,130.84,511,132.16,509.09,132.16Z"/>
    <path class="cls-1"
          d="M526.5,132.09c-2.6,0-6-1.34-10.42-3.45a1.37,1.37,0,0,1-.65-1.83,1.38,1.38,0,0,1,1.83-.65c2.47,1.18,7,3.32,9.49,3.18a5.69,5.69,0,0,0,1.46-3.82,5.75,5.75,0,0,0-5.74-5.74,5.54,5.54,0,0,0-1.86.31,1.39,1.39,0,0,1-1.75-.86,1.37,1.37,0,0,1,.86-1.74,8.48,8.48,0,0,1,11.23,8,8.39,8.39,0,0,1-2.61,6.12,1.38,1.38,0,0,1-.71.36A6.81,6.81,0,0,1,526.5,132.09Z"/>
    <path class="cls-1"
          d="M524,119.35a1.42,1.42,0,0,1-.72-.2,1.37,1.37,0,0,1-.45-1.89,3.63,3.63,0,1,0-6.72-1.91,3.42,3.42,0,0,0,.13,1,1.38,1.38,0,0,1-1,1.68,1.36,1.36,0,0,1-1.68-1,6.37,6.37,0,1,1,11.58,1.67A1.37,1.37,0,0,1,524,119.35Z"/>
    <path class="cls-1"
          d="M517.33,154.71a22.1,22.1,0,0,1-5.53-.63c-2.77-.75-3.36-2.07-3.36-3.05a1.37,1.37,0,0,1,2.74-.16c.45.41,2.56,1.09,6.15,1.09s5.7-.68,6.14-1.09a1.37,1.37,0,0,1,2.74.16C526.21,154.35,520,154.71,517.33,154.71Zm6-3.68Zm-12.27,0Z"/>
    <path class="cls-1"
          d="M491.79,221.77H332.66a1.37,1.37,0,0,1-1.37-1.37v-5.49a1.37,1.37,0,0,1,1.37-1.38H491.79a1.38,1.38,0,0,1,0,2.75H334V219H491.79a1.38,1.38,0,0,1,0,2.75Z"/>
    <path class="cls-1"
          d="M418.33,240.66a1.37,1.37,0,0,1-1.38-1.37V220.4a1.38,1.38,0,1,1,2.75,0v18.89A1.37,1.37,0,0,1,418.33,240.66Z"/>
    <path class="cls-1"
          d="M418.45,250.35a6.22,6.22,0,1,1,6.22-6.21A6.22,6.22,0,0,1,418.45,250.35Zm0-9.69a3.48,3.48,0,1,0,3.47,3.48A3.48,3.48,0,0,0,418.45,240.66Z"/>
    <path class="cls-1" d="M385.94,119.94H358.65a1.37,1.37,0,0,1,0-2.74h27.29a1.37,1.37,0,1,1,0,2.74Z"/>
    <path class="cls-1" d="M369.79,125.43H358.65a1.37,1.37,0,0,1,0-2.74h11.14a1.37,1.37,0,1,1,0,2.74Z"/>
    <rect class="cls-51" x="357.23" y="176.82" width="15.09" height="15.09"/>
    <line class="cls-51" x1="357.23" y1="191.9" x2="372.32" y2="176.82"/>
    <line class="cls-51" x1="357.23" y1="176.82" x2="372.32" y2="191.9"/>
    <line class="cls-52" x1="377" y1="178.5" x2="419.53" y2="178.5"/>
    <line class="cls-52" x1="377" y1="184.7" x2="421.77" y2="184.7"/>
    <line class="cls-52" x1="377" y1="190.88" x2="421.77" y2="190.88"/>
    <path class="cls-52" d="M459.77,157.77a22,22,0,1,1-4.43-30.8A22,22,0,0,1,459.77,157.77Z"/>
    <polyline class="cls-52" points="435.89 149.85 432.21 146.94 428.53 144.02 432.21 141.1 435.89 138.18"/>
    <polyline class="cls-52" points="448.42 149.85 452.1 146.94 455.78 144.02 452.1 141.1 448.42 138.19"/>
    <line class="cls-52" x1="445.04" y1="134.91" x2="439.74" y2="153.13"/>
</svg>