<svg id="Layer_1" data-name="Layer 1" xmlns="http://www.w3.org/2000/svg" viewBox="0 0 1988 120"><defs><style>.cls-1{isolation:isolate;}.cls-2{fill:#ea5d34;}.cls-3{fill:#f39753;}.cls-4{fill:#fff;}</style></defs><title>banner120319</title><g class="cls-1"><path class="cls-2" d="M458.46,50.82a.85.85,0,0,1-1,.55,61.23,61.23,0,0,0-8.15-.7c-7.85,0-9.95,6.55-11.3,13.65a26.2,26.2,0,0,0-.65,5.45c0,4.66,1.7,7.51,6.75,7.51a67,67,0,0,0,8.4-.7c.7-.1.9.25.9.6v1.3a1,1,0,0,1-.75,1.1,32.81,32.81,0,0,1-9.25,1.35c-7.35,0-10.1-4.05-10.1-10.55a35.56,35.56,0,0,1,.6-6.06c1.55-8.6,4.7-17.3,15.75-17.3,1.95,0,6.55.25,9,1.3.65.3.65.65.45,1.1Z"/><path class="cls-2" d="M465.41,79.48a1,1,0,0,1-.65.85,8.27,8.27,0,0,1-2.85.45c-3.3,0-3.7-1.85-3.3-4.1l5.95-30.51c.15-.65.45-.85,1-.85h2c.6,0,.9.15.75.85l-5.7,29.26c-.3,1.7.3,1.85,2.15,1.85.6,0,.75.1.75.5Z"/><path class="cls-2" d="M473.81,79.68c-.1.65-.4.85-.95.85h-2.05c-.6,0-.85-.2-.7-.85L474.51,57c.1-.7.45-.85,1.05-.85h2c.6,0,.8.2.7.85Zm3.55-27.76c-1,0-1.8-.25-1.8-1.4,0-1.8.8-3,2.65-3,1,0,1.85.2,1.85,1.35C480.06,50.62,479.26,51.92,477.36,51.92Z"/><path class="cls-2" d="M501.71,59c-.2.55-.65.55-1.4.5-2-.2-4.7-.5-6.55-.5-4.5,0-6.35,2.21-7.7,9.11a28.16,28.16,0,0,0-.55,4.8c-.05,3.45,1.4,4.6,4.65,4.6,1.65,0,4.9-.25,6.95-.5.6,0,1,0,1,.65v1a1.08,1.08,0,0,1-.75,1,23,23,0,0,1-7.8,1.15c-6.6,0-8.2-3.6-8.2-7.2a33.25,33.25,0,0,1,.7-5.91c1.25-6.45,3-12.15,12-12.15,2.05,0,5.85.25,7.8,1.15.45.2.45.65.3,1Z"/><path class="cls-2" d="M514.31,66.48l6.25,13.15a.71.71,0,0,1-.7.9h-2.35a.94.94,0,0,1-1-.7l-5-10.7-4.75,4.7-1.15,5.85a.92.92,0,0,1-1.05.85h-2.05c-.55,0-.8-.2-.65-.85l6.5-33.56c.15-.65.4-.85,1-.85h2.05c.6,0,.85.2.7.85l-4.3,22.06,11.55-11.56a1.57,1.57,0,0,1,1-.5h3.3c.5,0,.7.5.3,1Z"/><path class="cls-2" d="M557.26,79.68c-.1.65-.45.85-1,.85h-2.1c-.55,0-.8-.2-.65-.85l2.9-14.81c.85-4.6.2-5.75-2.9-5.75-2.45,0-7.3,2.11-9,2.86l-3.45,17.7c-.1.65-.45.85-1,.85h-2c-.55,0-.8-.2-.65-.85l6.5-33.56c.15-.65.45-.85,1-.85h2.05c.6,0,.85.2.75.85l-2.5,12.7h.1c1.85-1,5.95-3.15,9.45-3.15,6.4,0,6.5,3.9,5.45,9.26Z"/><path class="cls-2" d="M565.31,67.27c1-4.45,3.5-11.55,13.05-11.55,4.15,0,7.65,2.05,7.65,5.9,0,8.4-11.7,9.86-17.6,10a11.64,11.64,0,0,0-.3,2.45c0,3.6,3,3.5,5.75,3.5,1.6,0,4.9-.25,6.95-.5.6,0,1,0,1,.65v1a1.08,1.08,0,0,1-.75,1c-2.35,1-5.8,1.15-8.45,1.15-5.2,0-8.4-1.55-8.4-7A30,30,0,0,1,565.31,67.27ZM578,59.12c-6.35,0-7.75,4.75-8.5,7.36l-.5,2c4-.11,13.15-1,13.15-6.2C582.16,60,580.26,59.12,578,59.12Z"/><path class="cls-2" d="M603.76,59.82a46.63,46.63,0,0,0-8.1,2.41l-3.35,17.45a.94.94,0,0,1-1,.85h-2.15c-.56,0-.75-.2-.6-.85L592.91,57c.1-.65.4-.85,1-.85H596c.6,0,.85.2.75.85l-.4,2,.05.1a24.77,24.77,0,0,1,7.75-3.25c.65-.15.75,0,.75.6l-.3,2.3A.88.88,0,0,1,603.76,59.82Z"/><path class="cls-2" d="M605.66,67.27c1-4.45,3.5-11.55,13.05-11.55,4.15,0,7.65,2.05,7.65,5.9,0,8.4-11.7,9.86-17.6,10a11.64,11.64,0,0,0-.3,2.45c0,3.6,3,3.5,5.75,3.5,1.6,0,4.9-.25,6.95-.5.6,0,1,0,1,.65v1a1.08,1.08,0,0,1-.75,1c-2.35,1-5.8,1.15-8.45,1.15-5.2,0-8.4-1.55-8.4-7A30,30,0,0,1,605.66,67.27Zm12.7-8.15c-6.35,0-7.75,4.75-8.5,7.36l-.5,2c4-.11,13.15-1,13.15-6.2C622.51,60,620.61,59.12,618.36,59.12Z"/><path class="cls-2" d="M654.71,79a1.08,1.08,0,0,1-.61,1,17.87,17.87,0,0,1-5.84,1c-4.31,0-5-2.1-4.41-5.3l3.2-16.31H644.3c-.65,0-.8-.25-.7-.85l.25-1.4c.15-.6.4-.9,1-.9h2.8l1.06-5.4c.09-.6.5-.8,1-1l2.1-.55c.56-.15.81.1.7.75l-1.2,6.15H657c.7,0,.8.3.7.85l-.3,1.45c-.1.6-.31.85-1,.85H650.8l-2.95,15.16c-.45,2.35-.05,3,2.95,3,.5,0,2.25-.15,3-.2s1,0,1,.6Z"/><path class="cls-2" d="M679,67.93c-1.4,7.5-3.75,13-12.41,13-5.55,0-8.7-2.35-8.7-8.05a27.79,27.79,0,0,1,.55-4.95c1.3-6.81,4.1-12.26,12.06-12.26,5.5,0,9,2.15,9,7.95A24.86,24.86,0,0,1,679,67.93Zm-8.71-8.81c-5.85,0-7,4.25-8,9.15a22.3,22.3,0,0,0-.55,4.46c0,3.45,1.6,4.7,5,4.7,6,0,7.29-4,8.29-9.16a21.38,21.38,0,0,0,.56-4.4C675.61,60.23,673.71,59.12,670.3,59.12Z"/><path class="cls-2" d="M715.2,79.68c-.1.65-.4.85-1,.85h-2c-.6,0-.85-.2-.7-.85l.35-1.9c-2.55,1.55-5.45,3.2-9.2,3.2-4.6,0-6.4-2.35-6.4-6.8a29.18,29.18,0,0,1,.65-5.55c1.6-8.26,4.25-12.91,12.05-12.91a16,16,0,0,1,6.8,1.85l0,0,.15-.7c.15-.6.4-.65,1.1-.65h1.85c.7,0,.9.2.75.9Zm-6.9-20.51c-4.4,0-6,2.4-7.45,9.56a31.41,31.41,0,0,0-.65,5c0,3.15,1.2,3.75,3.5,3.75s6.85-1.9,8.75-2.8l2.75-14A17.18,17.18,0,0,0,708.3,59.17Z"/><path class="cls-2" d="M742.8,59c-.2.55-.65.55-1.4.5-2-.2-4.7-.5-6.55-.5-4.5,0-6.35,2.21-7.7,9.11a28.16,28.16,0,0,0-.55,4.8c-.05,3.45,1.4,4.6,4.65,4.6,1.65,0,4.9-.25,7-.5.6,0,1,0,1,.65v1a1.08,1.08,0,0,1-.75,1,23,23,0,0,1-7.8,1.15c-6.6,0-8.2-3.6-8.2-7.2a33.25,33.25,0,0,1,.7-5.91c1.25-6.45,3-12.15,12-12.15,2.05,0,5.85.25,7.8,1.15.45.2.45.65.31,1Z"/><path class="cls-2" d="M764.05,59c-.2.55-.65.55-1.4.5-2-.2-4.7-.5-6.55-.5-4.5,0-6.35,2.21-7.7,9.11a28.16,28.16,0,0,0-.55,4.8c-.05,3.45,1.4,4.6,4.65,4.6,1.65,0,4.9-.25,7-.5.6,0,1,0,1,.65v1a1.08,1.08,0,0,1-.75,1,23,23,0,0,1-7.8,1.15c-6.6,0-8.2-3.6-8.2-7.2a33.25,33.25,0,0,1,.7-5.91c1.25-6.45,3-12.15,12-12.15,2.05,0,5.85.25,7.8,1.15.45.2.45.65.3,1Z"/><path class="cls-2" d="M766.25,67.27c1-4.45,3.5-11.55,13-11.55,4.15,0,7.65,2.05,7.65,5.9,0,8.4-11.7,9.86-17.6,10a11.64,11.64,0,0,0-.3,2.45c0,3.6,3.05,3.5,5.75,3.5,1.6,0,4.9-.25,7-.5.6,0,1,0,1,.65v1a1.08,1.08,0,0,1-.75,1c-2.35,1-5.8,1.15-8.45,1.15-5.2,0-8.4-1.55-8.4-7A30,30,0,0,1,766.25,67.27ZM779,59.12c-6.35,0-7.75,4.75-8.5,7.36l-.5,2c4-.11,13.15-1,13.15-6.2C783.1,60,781.2,59.12,779,59.12Z"/><path class="cls-2" d="M808.1,59c-.2.55-.65.6-1.4.55-2-.2-4.3-.5-6.35-.5-3.15,0-5.6.8-5.6,4,0,2.21,2.25,2.91,4.55,3.3s7.15,1.5,7.15,6.26c0,6.6-4.9,8.35-10.55,8.35-2.55,0-6.2-.4-7.75-1.15a.76.76,0,0,1-.35-1l.4-1c.25-.65.65-.7,1.25-.65,1.95.25,5.25.55,6.9.55,3.45,0,6.2-.85,6.2-4.4,0-2.41-1.9-3.16-4.25-3.55-2.8-.45-7.45-1.45-7.45-6,0-5.9,4.65-7.95,9.85-7.95,1.9,0,5.75.3,7.55,1.15.45.2.45.6.3,1Z"/><path class="cls-2" d="M829.9,59c-.2.55-.65.6-1.4.55-2-.2-4.3-.5-6.35-.5-3.15,0-5.6.8-5.6,4,.05,2.21,2.25,2.91,4.55,3.3s7.15,1.5,7.15,6.26c0,6.6-4.9,8.35-10.55,8.35-2.55,0-6.2-.4-7.75-1.15a.76.76,0,0,1-.35-1l.4-1c.25-.65.65-.7,1.25-.65,2,.25,5.25.55,6.9.55,3.45,0,6.2-.85,6.2-4.4,0-2.41-1.9-3.16-4.25-3.55-2.8-.45-7.45-1.45-7.45-6,0-5.9,4.65-7.95,9.85-7.95,1.9,0,5.75.3,7.55,1.15.45.2.45.6.3,1Z"/></g><g class="cls-1"><path class="cls-2" d="M853.78,61.92h-2.65c-.75,0-.9-.35-.7-1.15l.7-3.85c.15-.75.45-1.1,1.2-1.1H855l.4-2.4c1.1-5.5,4.1-9.05,10.6-9.05a17,17,0,0,1,6.65,1.2c1.05.5.8,1.2.5,1.9l-1,3.15c-.3.85-.5.8-1.7.65a32.3,32.3,0,0,0-3.65-.35c-2.4,0-3.25,1.15-3.7,3.3l-.35,1.6h5.75c.9,0,1,.35.85,1l-.75,3.9c-.15.8-.4,1.15-1.3,1.15h-5.8l-4,20.11c-1.05,5.4-3.85,8.85-10.2,8.85a16,16,0,0,1-6.55-1.35c-1.05-.45-.9-1.15-.65-1.85l1-3.2c.35-.9.5-.9,1.75-.7a23.34,23.34,0,0,0,3.35.4c2.6,0,3.4-1.3,3.95-4Z"/><path class="cls-2" d="M881,59.92l0,.1a15.77,15.77,0,0,1,7.9-4.45c1.25-.2,1.6-.1,1.5,1.15l-.4,5.1c0,1-.2,1.2-1.7,1.5a37.36,37.36,0,0,0-8.6,2.75l-2.55,13.36a1.21,1.21,0,0,1-1.25,1.1h-5.65c-.85,0-1-.45-.9-1.1l4.35-22.51a1.23,1.23,0,0,1,1.3-1.1h5.65c.9,0,1,.65.85,1.1Z"/><path class="cls-2" d="M891.23,66.18c1.35-5.06,4.45-10.71,13.85-10.71,4.7,0,8.9,2.15,8.9,6.7,0,7.85-9.45,9.1-15.6,9.35a3.73,3.73,0,0,0-.2,1.26c0,1.9,1.75,2,4.1,2a60.4,60.4,0,0,0,7-.45c.7-.1,1.25,0,1.25.85v2.4c0,1.35-.3,1.7-1.75,2.25a31,31,0,0,1-8.9,1.15c-5.7,0-9.55-2.35-9.55-8.4A25.41,25.41,0,0,1,891.23,66.18Zm12.45-4.7c-2.95,0-3.9,2.75-4.55,5,3-.2,6.75-.9,6.75-3.45C905.88,62.12,905.08,61.48,903.68,61.48Z"/><path class="cls-2" d="M917.73,66.18c1.35-5.06,4.45-10.71,13.85-10.71,4.7,0,8.9,2.15,8.9,6.7,0,7.85-9.45,9.1-15.6,9.35a3.73,3.73,0,0,0-.2,1.26c0,1.9,1.75,2,4.1,2a60.4,60.4,0,0,0,7-.45c.7-.1,1.25,0,1.25.85v2.4c0,1.35-.3,1.7-1.75,2.25a31,31,0,0,1-8.9,1.15c-5.7,0-9.55-2.35-9.55-8.4A25.41,25.41,0,0,1,917.73,66.18Zm12.45-4.7c-2.95,0-3.9,2.75-4.55,5,3-.2,6.75-.9,6.75-3.45C932.38,62.12,931.58,61.48,930.18,61.48Z"/><path class="cls-2" d="M974.73,78.28a1.66,1.66,0,0,1-1.2,1.6,28.75,28.75,0,0,1-7.5,1.05c-6.3,0-6.65-3.85-5.9-8l2.2-11.16h-2.2c-.8,0-1-.34-.85-1.09L960,57c.15-.75.45-1.1,1.25-1.1h2.25l1-4.9a1.59,1.59,0,0,1,1.35-1.3l5.3-1.35c.75-.25,1.25,0,1.1.85l-1.3,6.7H976c.9,0,1,.35.85,1.05l-.75,3.81c-.15.75-.35,1.09-1.25,1.09h-5.15L968,71.13c-.4,1.9-.4,2.65,2.5,2.7.8,0,2.25-.1,3.5-.2.65,0,1-.1,1,1.05Z"/><path class="cls-2" d="M989.58,59.92l0,.1a15.77,15.77,0,0,1,7.9-4.45c1.25-.2,1.6-.1,1.5,1.15l-.4,5.1c0,1-.2,1.2-1.7,1.5a37.36,37.36,0,0,0-8.6,2.75l-2.55,13.36a1.21,1.21,0,0,1-1.25,1.1h-5.65c-.85,0-1-.45-.9-1.1l4.35-22.51a1.23,1.23,0,0,1,1.3-1.1h5.65c.9,0,1,.65.85,1.1Z"/><path class="cls-2" d="M1020.43,79.43a1.15,1.15,0,0,1-1.25,1.1h-5.65c-.85,0-.95-.4-.8-1l.25-1.25-.05,0c-2.85,1.85-5.2,2.75-7.6,2.75-5,0-6.45-2.8-6.45-7.1a30.4,30.4,0,0,1,.6-5.31c1.5-7.75,4-12.85,11.45-12.85a13.91,13.91,0,0,1,6.1,1.7l.2-.8c.15-.65.45-.8,1.1-.8h5.55c.95,0,1,.4.85,1.15Zm-13-11.2a16.91,16.91,0,0,0-.4,3c0,2.16.7,2.61,2.2,2.61a14.73,14.73,0,0,0,4.85-1.45l1.75-9a12.26,12.26,0,0,0-3.75-.7C1009.38,62.77,1008.18,64.23,1007.43,68.23Z"/><path class="cls-2" d="M1034.18,79.43a1.15,1.15,0,0,1-1.25,1.1h-5.6c-.85,0-1-.45-.9-1.1l4.35-22.51a1.21,1.21,0,0,1,1.35-1.1h5.6c.9,0,.9.65.8,1.1Zm6.2-31.41c0,2.3-.9,5.1-4.9,5.1-2.65,0-3.45-1.1-3.45-2.6,0-2.65,1.25-5,4.9-5C1039.48,45.52,1040.38,46.47,1040.38,48Z"/><path class="cls-2" d="M1051.58,58.12h.1a17,17,0,0,1,8.3-2.75c7,0,6.5,5.3,5.6,9.9l-2.75,14.16a1.18,1.18,0,0,1-1.25,1.1h-5.65c-.85,0-1-.45-.85-1.1l2.55-13c.55-3.16-.25-3.81-2.25-3.81a17.23,17.23,0,0,0-5,1.4l-3,15.41a1.2,1.2,0,0,1-1.3,1.1h-5.6c-.8,0-1-.45-.85-1.1L1044,56.92a1.23,1.23,0,0,1,1.3-1.1h5.6c1,0,1,.6.85,1.1Z"/><path class="cls-2" d="M1075.93,79.43a1.15,1.15,0,0,1-1.25,1.1h-5.6c-.85,0-1-.45-.9-1.1l4.35-22.51a1.21,1.21,0,0,1,1.35-1.1h5.6c.9,0,.9.65.8,1.1Zm6.2-31.41c0,2.3-.9,5.1-4.9,5.1-2.65,0-3.45-1.1-3.45-2.6,0-2.65,1.25-5,4.9-5C1081.23,45.52,1082.13,46.47,1082.13,48Z"/><path class="cls-2" d="M1093.33,58.12h.1a17,17,0,0,1,8.3-2.75c7,0,6.5,5.3,5.6,9.9l-2.75,14.16a1.18,1.18,0,0,1-1.25,1.1h-5.65c-.85,0-1-.45-.85-1.1l2.55-13c.55-3.16-.25-3.81-2.25-3.81a17.23,17.23,0,0,0-5,1.4l-3,15.41a1.2,1.2,0,0,1-1.3,1.1h-5.6c-.8,0-1-.45-.85-1.1l4.35-22.51a1.23,1.23,0,0,1,1.3-1.1h5.6c1,0,1,.6.85,1.1Z"/><path class="cls-2" d="M1132.18,79c-1.35,6.65-2.65,12-13.75,12a24.3,24.3,0,0,1-8-1.2c-1-.4-1.35-.75-1.35-1.3a2,2,0,0,1,.15-.7l1.15-2.85c.5-1.2.95-1.1,1.9-1a41.44,41.44,0,0,0,6.65.55c3.65,0,4.4-1,5-3.45l.35-1.3a0,0,0,0,0,0,0,17.64,17.64,0,0,1-5,.8c-6.6,0-8.45-3.1-8.45-7.9a28.61,28.61,0,0,1,.9-6.81c1.65-6.3,5.25-10.5,13.75-10.5a27.75,27.75,0,0,1,9.55,1.5c1.25.5,1.2,1.5,1,2.5Zm-7.6-16.86c-2.3,0-4.25.75-5.2,5.11a18.55,18.55,0,0,0-.45,3.5c0,2.4,1,3,2.85,3a14.93,14.93,0,0,0,3.8-.5l2.1-10.91A25.28,25.28,0,0,0,1124.58,62.12Z"/><path class="cls-2" d="M1187.48,80.53H1182c-.85,0-1-.4-.9-1l2.55-13.16c.6-3.09-.2-3.8-2.05-3.8a14.45,14.45,0,0,0-4.75,1.46l-.45,2.29-2.55,13.21a1.11,1.11,0,0,1-1.25,1h-5.5c-.8,0-1-.4-.85-1l2.55-13.3c.55-2.81-.15-3.66-2-3.66A13.65,13.65,0,0,0,1162,64l-3,15.5a1.2,1.2,0,0,1-1.3,1h-5.5c-.8,0-1-.4-.85-1L1155.73,57a1.23,1.23,0,0,1,1.3-1.1h5.5c.9,0,1,.6.85,1.1l-.2,1.15,0,.05a14.23,14.23,0,0,1,7.85-2.75c3,0,5.2,1.1,5.8,3.4,2.75-2,6.1-3.4,9.1-3.4,7,0,6.35,5.15,5.45,9.81l-2.75,14.25A1.13,1.13,0,0,1,1187.48,80.53Z"/><path class="cls-2" d="M1218.78,64.32a19.68,19.68,0,0,1-.35,3.5c-1,6.16-2.9,13.11-13.55,13.11-7.85,0-10.1-4.3-10.1-9.3a23.4,23.4,0,0,1,.4-3.81c1-5.34,3.5-12.5,13.45-12.5C1216.28,55.32,1218.78,59.27,1218.78,64.32ZM1203,68.13a17.34,17.34,0,0,0-.35,3c0,2.3.85,3.2,2.85,3.2,3.35,0,4.3-2.35,5-6.15a17.53,17.53,0,0,0,.35-3c0-2.2-.9-3.1-3-3.1C1204.68,62,1203.68,64.48,1203,68.13Z"/><path class="cls-2" d="M1240.28,56.07v0l.2-1.1,1.7-8.55c.15-.65.4-1.15,1.25-1.15h5.6c.7,0,.9.35.9.75a1.1,1.1,0,0,1,0,.4l-6.45,33.06a1.12,1.12,0,0,1-1.25,1.1h-5.65c-.65,0-.85-.25-.85-.65a1.24,1.24,0,0,1,0-.4c0-.4.2-.85.25-1.25h-.1a15.1,15.1,0,0,1-7.55,2.7c-5,0-6.55-2.85-6.45-7.2a42.66,42.66,0,0,1,1-7.6c1.55-6.71,4.35-10.86,12.15-10.86A19.4,19.4,0,0,1,1240.28,56.07Zm-4.3,6c-2.75,0-4.1.65-5.15,4.25a24.56,24.56,0,0,0-.8,5.16c0,2,.75,2.45,2.15,2.45a15,15,0,0,0,4.9-1.45l1.9-9.91A10.67,10.67,0,0,0,1236,62Z"/><path class="cls-2" d="M1263.58,78.23l-.1,0a17,17,0,0,1-8.3,2.75c-7,0-6.46-4.65-5.51-9.7l2.81-14.31a1.21,1.21,0,0,1,1.25-1.1h5.65c.85,0,1,.45.85,1.1l-2.5,13c-.5,2.75.1,3.75,2.2,3.75a15.38,15.38,0,0,0,4.8-1.35l3-15.41a1.27,1.27,0,0,1,1.3-1.1h5.6c.85,0,1.05.45.9,1.1l-4.4,22.51a1.12,1.12,0,0,1-1.25,1.1h-5.65c-.9,0-.9-.6-.85-1.1Z"/><path class="cls-2" d="M1285.48,72.38c-.35,1.75.5,1.8,2,2,1,.1,1.1.3,1,1L1288,79a1.32,1.32,0,0,1-1,1.1,12.43,12.43,0,0,1-4.15.65c-4.36,0-6.41-1.9-5.5-6.55l5.4-27.91a1.22,1.22,0,0,1,1.3-1.1h5.6c1,0,1,.6.9,1.1Z"/><path class="cls-2" d="M1292.92,66.18c1.35-5.06,4.46-10.71,13.86-10.71,4.7,0,8.9,2.15,8.9,6.7,0,7.85-9.45,9.1-15.6,9.35a3.5,3.5,0,0,0-.2,1.26c0,1.9,1.75,2,4.1,2a60.4,60.4,0,0,0,7-.45c.7-.1,1.25,0,1.25.85v2.4c0,1.35-.3,1.7-1.75,2.25a31,31,0,0,1-8.9,1.15c-5.7,0-9.56-2.35-9.56-8.4A25.87,25.87,0,0,1,1292.92,66.18Zm12.46-4.7c-3,0-3.9,2.75-4.55,5,3-.2,6.75-.9,6.75-3.45C1307.58,62.12,1306.78,61.48,1305.38,61.48Z"/><path class="cls-2" d="M1339.43,56.47c1.25.45,1.85.8,1.3,2.1l-1.1,2.6c-.35.95-.5,1.06-1.7.9-2.15-.25-5.4-.55-6.85-.59-2.3-.06-3,.54-3.1,1.75-.1,1,1.44,1.34,2.69,1.54,4.16.6,8.31,1.75,8.31,6.71,0,7.8-6.35,9.5-12.7,9.5a28.49,28.49,0,0,1-7.76-1.1c-1.55-.6-1.8-1.15-1.2-2.5l1-2.4c.4-1,.7-1.1,1.75-.9a47.54,47.54,0,0,0,7,.65c2.4,0,3.7-.45,3.8-2,.1-1.21-.85-1.46-2.35-1.75-4.51-.75-8.56-2-8.56-6.91,0-6.75,5.7-8.75,11.91-8.75A25.34,25.34,0,0,1,1339.43,56.47Z"/><path class="cls-2" d="M1379,79.43a1.15,1.15,0,0,1-1.25,1.1h-5.65c-.85,0-1-.4-.8-1l.25-1.25,0,0c-2.86,1.85-5.2,2.75-7.61,2.75-5,0-6.45-2.8-6.45-7.1a30.4,30.4,0,0,1,.6-5.31c1.5-7.75,4-12.85,11.46-12.85a13.91,13.91,0,0,1,6.1,1.7l.2-.8c.15-.65.45-.8,1.1-.8h5.55c1,0,1,.4.85,1.15Zm-13-11.2a16.91,16.91,0,0,0-.4,3c0,2.16.7,2.61,2.2,2.61a14.73,14.73,0,0,0,4.85-1.45l1.75-9a12.26,12.26,0,0,0-3.75-.7C1368,62.77,1366.78,64.23,1366,68.23Z"/><path class="cls-2" d="M1396.27,58.12h.1a17,17,0,0,1,8.3-2.75c7,0,6.5,5.3,5.6,9.9l-2.75,14.16a1.18,1.18,0,0,1-1.25,1.1h-5.65c-.85,0-.95-.45-.85-1.1l2.55-13c.55-3.16-.25-3.81-2.25-3.81a17.23,17.23,0,0,0-5,1.4l-3,15.41a1.2,1.2,0,0,1-1.3,1.1h-5.6c-.8,0-1-.45-.85-1.1l4.35-22.51a1.23,1.23,0,0,1,1.3-1.1h5.6c1,0,1,.6.85,1.1Z"/><path class="cls-2" d="M1431.82,56.07v0l.2-1.1,1.7-8.55c.15-.65.4-1.15,1.25-1.15h5.6c.7,0,.9.35.9.75a1.1,1.1,0,0,1,0,.4L1435,79.43a1.12,1.12,0,0,1-1.25,1.1h-5.65c-.65,0-.85-.25-.85-.65a1.24,1.24,0,0,1,0-.4c0-.4.2-.85.25-1.25h-.1a15.1,15.1,0,0,1-7.55,2.7c-5,0-6.55-2.85-6.45-7.2a42.66,42.66,0,0,1,1-7.6c1.55-6.71,4.35-10.86,12.15-10.86A19.4,19.4,0,0,1,1431.82,56.07Zm-4.3,6c-2.75,0-4.1.65-5.15,4.25a24.56,24.56,0,0,0-.8,5.16c0,2,.75,2.45,2.15,2.45a15,15,0,0,0,4.9-1.45l1.9-9.91A10.67,10.67,0,0,0,1427.52,62Z"/><path class="cls-2" d="M1464.07,72.38c-.35,1.75.5,1.8,2,2,1,.1,1.1.3,1,1l-.5,3.65a1.32,1.32,0,0,1-1,1.1,12.39,12.39,0,0,1-4.15.65c-4.35,0-6.4-1.9-5.5-6.55l5.4-27.91a1.23,1.23,0,0,1,1.3-1.1h5.6c1,0,1,.6.9,1.1Z"/><path class="cls-2" d="M1471.52,66.18c1.35-5.06,4.45-10.71,13.85-10.71,4.7,0,8.9,2.15,8.9,6.7,0,7.85-9.45,9.1-15.6,9.35a3.73,3.73,0,0,0-.2,1.26c0,1.9,1.75,2,4.1,2a60.4,60.4,0,0,0,7-.45c.7-.1,1.25,0,1.25.85v2.4c0,1.35-.3,1.7-1.75,2.25a31,31,0,0,1-8.9,1.15c-5.7,0-9.55-2.35-9.55-8.4A25.41,25.41,0,0,1,1471.52,66.18Zm12.45-4.7c-3,0-3.9,2.75-4.55,5,2.95-.2,6.75-.9,6.75-3.45C1486.17,62.12,1485.37,61.48,1484,61.48Z"/><path class="cls-2" d="M1518,56.47c1.25.45,1.85.8,1.3,2.1l-1.1,2.6c-.35.95-.5,1.06-1.7.9-2.15-.25-5.4-.55-6.85-.59-2.3-.06-3.05.54-3.1,1.75-.1,1,1.45,1.34,2.7,1.54,4.15.6,8.3,1.75,8.3,6.71,0,7.8-6.35,9.5-12.7,9.5a28.42,28.42,0,0,1-7.75-1.1c-1.55-.6-1.8-1.15-1.2-2.5l1-2.4c.4-1,.7-1.1,1.75-.9a47.3,47.3,0,0,0,7,.65c2.4,0,3.7-.45,3.8-2,.1-1.21-.85-1.46-2.35-1.75-4.5-.75-8.55-2-8.55-6.91,0-6.75,5.7-8.75,11.9-8.75A25.34,25.34,0,0,1,1518,56.47Z"/><path class="cls-2" d="M1542.37,56.47c1.25.45,1.85.8,1.3,2.1l-1.1,2.6c-.35.95-.5,1.06-1.7.9-2.15-.25-5.4-.55-6.85-.59-2.3-.06-3,.54-3.1,1.75-.1,1,1.45,1.34,2.7,1.54,4.15.6,8.3,1.75,8.3,6.71,0,7.8-6.35,9.5-12.7,9.5a28.42,28.42,0,0,1-7.75-1.1c-1.55-.6-1.8-1.15-1.2-2.5l1-2.4c.4-1,.7-1.1,1.75-.9a47.3,47.3,0,0,0,7,.65c2.4,0,3.7-.45,3.8-2,.1-1.21-.85-1.46-2.35-1.75-4.5-.75-8.55-2-8.55-6.91,0-6.75,5.7-8.75,11.9-8.75A25.34,25.34,0,0,1,1542.37,56.47Z"/><path class="cls-2" d="M1570.12,64.32a19.68,19.68,0,0,1-.35,3.5c-1,6.16-2.9,13.11-13.55,13.11-7.85,0-10.1-4.3-10.1-9.3a23.4,23.4,0,0,1,.4-3.81c1-5.34,3.5-12.5,13.45-12.5C1567.62,55.32,1570.12,59.27,1570.12,64.32Zm-15.75,3.81a17.34,17.34,0,0,0-.35,3c0,2.3.85,3.2,2.85,3.2,3.35,0,4.3-2.35,5-6.15a17.53,17.53,0,0,0,.35-3c0-2.2-.9-3.1-3.05-3.1C1556,62,1555,64.48,1554.37,68.13Z"/><path class="cls-2" d="M1583.92,58.12h.1a17,17,0,0,1,8.3-2.75c7,0,6.5,5.3,5.6,9.9l-2.75,14.16a1.18,1.18,0,0,1-1.25,1.1h-5.65c-.85,0-1-.45-.85-1.1l2.55-13c.55-3.16-.25-3.81-2.25-3.81a17.23,17.23,0,0,0-5,1.4l-3,15.41a1.2,1.2,0,0,1-1.3,1.1h-5.6c-.8,0-.95-.45-.85-1.1l4.35-22.51a1.23,1.23,0,0,1,1.3-1.1h5.6c1,0,1,.6.85,1.1Z"/><path class="cls-2" d="M1640.47,62.42c0,.56,0,1.2,0,1.85a35.05,35.05,0,0,1-.8,5.91c-1.45,6.9-4.75,10.85-12.2,10.85a20.38,20.38,0,0,1-5.2-.75l-1.75,9a1.23,1.23,0,0,1-1.3,1.1h-5.55c-.75,0-1-.4-.85-1.1L1619,57a1.3,1.3,0,0,1,1.3-1.15h5.6c1,0,1,.4.9,1l-.2,1.35a0,0,0,0,0,0,.05,14.74,14.74,0,0,1,7.65-2.75C1638.82,55.42,1640.37,58.22,1640.47,62.42Zm-15.1,1.6c-.7,3.3-1.3,6.5-1.95,9.81a16.45,16.45,0,0,0,4,.55c3.9,0,4.9-5.9,4.9-8.81,0-2-.35-2.95-2.15-2.95A13.94,13.94,0,0,0,1625.37,64Z"/><path class="cls-2" d="M1651.72,72.38c-.35,1.75.5,1.8,2,2,1,.1,1.1.3,1,1l-.5,3.65a1.32,1.32,0,0,1-1,1.1,12.39,12.39,0,0,1-4.15.65c-4.35,0-6.4-1.9-5.5-6.55l5.4-27.91a1.23,1.23,0,0,1,1.3-1.1h5.6c.95,0,1,.6.9,1.1Z"/><path class="cls-2" d="M1679.77,79.43a1.15,1.15,0,0,1-1.25,1.1h-5.65c-.85,0-.95-.4-.8-1l.25-1.25,0,0c-2.85,1.85-5.2,2.75-7.6,2.75-5,0-6.45-2.8-6.45-7.1a30.4,30.4,0,0,1,.6-5.31c1.5-7.75,4-12.85,11.45-12.85a13.91,13.91,0,0,1,6.1,1.7l.2-.8c.15-.65.45-.8,1.1-.8h5.55c1,0,1,.4.85,1.15Zm-13-11.2a16.91,16.91,0,0,0-.4,3c0,2.16.7,2.61,2.2,2.61a14.73,14.73,0,0,0,4.85-1.45l1.75-9a12.26,12.26,0,0,0-3.75-.7C1668.72,62.77,1667.52,64.23,1666.77,68.23Z"/><path class="cls-2" d="M1697,58.12h.1a17,17,0,0,1,8.3-2.75c7,0,6.5,5.3,5.6,9.9l-2.75,14.16a1.18,1.18,0,0,1-1.25,1.1h-5.65c-.85,0-.95-.45-.85-1.1l2.55-13c.55-3.16-.25-3.81-2.25-3.81a17.23,17.23,0,0,0-5,1.4l-3,15.41a1.2,1.2,0,0,1-1.3,1.1H1686c-.8,0-1-.45-.85-1.1l4.35-22.51a1.23,1.23,0,0,1,1.3-1.1h5.6c1,0,1,.6.85,1.1Z"/><path class="cls-2" d="M1735.07,56.47c1.25.45,1.85.8,1.3,2.1l-1.1,2.6c-.35.95-.5,1.06-1.7.9-2.15-.25-5.4-.55-6.85-.59-2.3-.06-3,.54-3.1,1.75-.1,1,1.45,1.34,2.7,1.54,4.15.6,8.3,1.75,8.3,6.71,0,7.8-6.35,9.5-12.7,9.5a28.42,28.42,0,0,1-7.75-1.1c-1.55-.6-1.8-1.15-1.2-2.5l1-2.4c.4-1,.7-1.1,1.75-.9a47.3,47.3,0,0,0,7,.65c2.4,0,3.7-.45,3.8-2,.1-1.21-.85-1.46-2.35-1.75-4.5-.75-8.55-2-8.55-6.91,0-6.75,5.7-8.75,11.9-8.75A25.34,25.34,0,0,1,1735.07,56.47Z"/></g><circle class="cls-3" cx="347.89" cy="60.24" r="55.52"/><path class="cls-4" d="M374,40.31a.34.34,0,0,1-.43-.06l-.28-.29c-.17-.18-.16-.22.05-.43a1.17,1.17,0,0,0,.37-.83,1,1,0,0,0-.26-.66c-.19-.22-.24-.34,0-.53l.73-.56c.23-.17.36-.08.54.09a1.56,1.56,0,0,1,.46,1.08A2.64,2.64,0,0,1,374,40.31Zm.29-5.24c-.8,0-.9-.44-.9-.85s.18-.85.9-.85.9.35.9.85S375,35.07,374.27,35.07Z"/><path class="cls-4" d="M333.92,42.82a.56.56,0,0,1-.33-.1l-5.43-3.82a.58.58,0,0,1-.14-.79.57.57,0,0,1,.79-.13l5.43,3.82a.56.56,0,0,1,.13.78A.53.53,0,0,1,333.92,42.82Z"/><path class="cls-4" d="M338.26,82.49a.48.48,0,0,1-.23,0,.56.56,0,0,1-.28-.74L345.17,65a.56.56,0,1,1,1,.46l-7.42,16.67A.54.54,0,0,1,338.26,82.49Z"/><path class="cls-4" d="M374.37,44a6.89,6.89,0,1,1,6.9-6.89A6.9,6.9,0,0,1,374.37,44Zm0-12.66a5.77,5.77,0,1,0,5.77,5.77A5.78,5.78,0,0,0,374.37,31.32Z"/><path class="cls-4" d="M335.68,98.82a9.45,9.45,0,0,1-2.76-.43A8.94,8.94,0,0,1,335.68,81a9.39,9.39,0,0,1,2.75.43,8.94,8.94,0,0,1-2.75,17.43Zm0-16.74a7.83,7.83,0,0,0-7,11.36,7.65,7.65,0,0,0,4.54,3.87,7.85,7.85,0,0,0,2.42.39,7.81,7.81,0,0,0,2.41-15.23A7.84,7.84,0,0,0,335.68,82.08Z"/><path class="cls-4" d="M323.2,41.88A6.89,6.89,0,1,1,330.09,35,6.9,6.9,0,0,1,323.2,41.88Zm0-12.66A5.77,5.77,0,1,0,329,35,5.78,5.78,0,0,0,323.2,29.22Z"/><path class="cls-4" d="M322.79,35.18h-1.72v-.79h1.72V32.56h.86v1.83h1.72v.79h-1.72V37h-.86Z"/><path class="cls-4" d="M381.71,83.67a8.93,8.93,0,1,1,5.8-15.73.56.56,0,0,1,.07.79.57.57,0,0,1-.8.07,7.8,7.8,0,1,0,.88,11,.56.56,0,1,1,.85.73,8.84,8.84,0,0,1-6.09,3.11C382.18,83.66,382,83.67,381.71,83.67Z"/><path class="cls-4" d="M314.07,71q-.36,0-.72,0a8.86,8.86,0,0,1-6.09-3.11.56.56,0,0,1,.86-.72,7.81,7.81,0,1,0,.87-11,.56.56,0,1,1-.72-.86A8.93,8.93,0,0,1,323,62.75a8.95,8.95,0,0,1-8.9,8.22Z"/><path class="cls-4" d="M359.53,60.39a11.49,11.49,0,0,1-1.4-.08l.12-1.12c2.08.24,3.56-.07,4.27-.88a2.48,2.48,0,0,0,.48-2v-.07s-.38-3.74-.94-7.66c-.42-3-6.44-5.6-8.72-6.36l.36-1.07c.36.12,8.87,3,9.48,7.28.53,3.74.9,7.3.93,7.67a3.53,3.53,0,0,1-.74,3A4.87,4.87,0,0,1,359.53,60.39Z"/><path class="cls-4" d="M336.62,60.39a4.89,4.89,0,0,1-3.83-1.33,3.53,3.53,0,0,1-.74-3c0-.37.4-3.93.93-7.67.61-4.27,9-7.16,9.41-7.28l.36,1.07c-2.27.76-8.23,3.39-8.65,6.36-.56,3.92-.93,7.62-.94,7.66v.07a2.48,2.48,0,0,0,.49,2c.72.8,2.19,1.11,4.26.87l.12,1.12A11.49,11.49,0,0,1,336.62,60.39Z"/><rect class="cls-4" x="341.39" y="42.09" width="1.12" height="4.9" transform="translate(6.85 125.91) rotate(-21.07)"/><rect class="cls-4" x="351.68" y="43.98" width="4.9" height="1.12" transform="translate(185.27 358.99) rotate(-68.93)"/><path class="cls-4" d="M348,38.51a5.92,5.92,0,0,1-4.46-1.77c-2.35-2.46-2.18-6.55-2.17-6.72V27.31a5.52,5.52,0,0,1,5.5-5.51h2.25a5.52,5.52,0,0,1,5.51,5.51v2.74c0,.14.17,4.23-2.17,6.69A5.93,5.93,0,0,1,348,38.51Zm-1.13-15.58a4.39,4.39,0,0,0-4.38,4.38v2.74c0,.06-.15,3.81,1.86,5.91a5.37,5.37,0,0,0,7.3,0c2-2.11,1.86-5.85,1.86-5.89V27.31a4.39,4.39,0,0,0-4.39-4.38Z"/><path class="cls-4" d="M351.26,30a8.08,8.08,0,0,1-2.9-.83l-.89-.36c-2.6-1.06-2.65-1.08-5.26.14l-.48-1c3-1.39,3.32-1.33,6.17-.17l.88.35c2.54,1,2.59,1.05,5.16-.18l.49,1A7.66,7.66,0,0,1,351.26,30Z"/><rect class="cls-4" x="344.18" y="36.98" width="1.12" height="3.41"/><rect class="cls-4" x="350.77" y="36.98" width="1.12" height="3.41"/><path class="cls-4" d="M345.25,45.5l-3.43-3.79,2-2.35,4.23.75,4.23-.75,2,2.35-3.42,3.79L348,44.09ZM348,42.83l2.53,1.28,2.19-2.43-.93-1.1-3.79.68-3.79-.68-.93,1.1,2.19,2.43Z"/><path class="cls-4" d="M358.83,62.08H337.32V46.27h21.51ZM338.45,61H357.7V47.39H338.45Z"/><path class="cls-4" d="M354.93,64.17H341.22a.56.56,0,0,1,0-1.12h13.71a.56.56,0,1,1,0,1.12Z"/><path class="cls-4" d="M374.75,70.65a.62.62,0,0,1-.32-.09l-10.9-7.46a.56.56,0,0,1,.63-.93l10.9,7.46a.56.56,0,0,1-.31,1Z"/><path class="cls-4" d="M364.15,44.28a.59.59,0,0,1-.49-.27.56.56,0,0,1,.2-.77c.54-.33,4.8-3.15,4.85-3.17a.55.55,0,0,1,.77.16.54.54,0,0,1-.15.77c-.18.12-4.33,2.86-4.89,3.2A.53.53,0,0,1,364.15,44.28Z"/><path class="cls-4" d="M322.45,60.84a.56.56,0,0,1-.13-1.11l6.56-1.57a.55.55,0,0,1,.67.41.56.56,0,0,1-.41.68l-6.56,1.57Z"/><path class="cls-4" d="M380.37,76.19v1c0,.1-.08.13-.16.08l-3.8-1.92a.2.2,0,0,1-.14-.21v-.66a.21.21,0,0,1,.14-.22l3.8-1.92c.11-.06.15,0,.15.1v.9a.2.2,0,0,1-.14.21l-2.34,1.23v0L380.23,76A.19.19,0,0,1,380.37,76.19Z"/><path class="cls-4" d="M382.43,78.24a.21.21,0,0,1-.2.15h-.89c-.14,0-.19-.07-.16-.2.36-1.49,1.25-5.22,1.61-6.71a.19.19,0,0,1,.2-.16h.87c.12,0,.17.1.15.23Z"/><path class="cls-4" d="M387.35,74.77v0L385,73.5a.21.21,0,0,1-.14-.21v-.9c0-.09,0-.16.16-.1l3.8,1.92a.22.22,0,0,1,.13.22v.66a.2.2,0,0,1-.14.21L385,77.22c-.09,0-.17,0-.17-.08v-1A.2.2,0,0,1,385,76Z"/><path class="cls-4" d="M310.77,65.16c0,.33.09.47.41.5l.3,0c.13,0,.21.06.21.21v.72a.21.21,0,0,1-.19.22,7,7,0,0,1-1,0,1.21,1.21,0,0,1-1.33-1.3v-1.9c0-.5,0-.79-.47-.92-.11,0-.19-.1-.19-.22V62a.19.19,0,0,1,.17-.19c.49-.14.49-.45.49-.95V59.07a1.29,1.29,0,0,1,1.38-1.34c.24,0,.49,0,.92.07.16,0,.19.09.19.23v.73c0,.17-.08.21-.21.21l-.31,0c-.31,0-.39.18-.39.51V61a1.29,1.29,0,0,1-.74,1.3v0c.71.26.73.76.73,1.26Z"/><path class="cls-4" d="M316.61,63.57c0-.5,0-1,.73-1.26v0a1.29,1.29,0,0,1-.74-1.3V59.5c0-.33-.08-.49-.39-.51l-.31,0c-.13,0-.2,0-.2-.21V58c0-.14.07-.22.18-.23a6.82,6.82,0,0,1,.92,0,1.28,1.28,0,0,1,1.39,1.32v1.74c0,.5,0,.81.48.95a.19.19,0,0,1,.17.19v.59a.23.23,0,0,1-.18.22c-.47.13-.47.42-.47.92v1.9a1.21,1.21,0,0,1-1.33,1.3,7.12,7.12,0,0,1-1,0,.2.2,0,0,1-.18-.22v-.72c0-.15.07-.2.2-.21l.3,0c.32,0,.41-.17.41-.5Z"/><path class="cls-4" d="M334,94.17c.14.26.12.33-.07.43l-.64.37c-.2.11-.28.12-.45-.09a7.34,7.34,0,0,1,0-9c.17-.21.25-.2.44-.09l.65.37c.19.1.22.18.07.43a7.29,7.29,0,0,0-1,3.76A7.74,7.74,0,0,0,334,94.17Z"/><path class="cls-4" d="M337.36,86.54c-.15-.25-.11-.33.07-.43l.65-.37c.2-.11.28-.12.45.09a7.38,7.38,0,0,1,0,9c-.17.21-.25.2-.45.09l-.65-.37c-.18-.1-.21-.17-.07-.43a7.64,7.64,0,0,0,1-3.87A7.2,7.2,0,0,0,337.36,86.54Z"/></svg>