<svg id="Layer_1" data-name="Layer 1" xmlns="http://www.w3.org/2000/svg" viewBox="0 0 1988 120"><defs><style>.cls-1{isolation:isolate;}.cls-2{fill:#ea5d34;}</style></defs><title>banner120319 copy</title><g class="cls-1"><path class="cls-2" d="M585.54,50.82a.85.85,0,0,1-1,.55,61.23,61.23,0,0,0-8.15-.7c-7.85,0-10,6.55-11.3,13.65a26.2,26.2,0,0,0-.65,5.45c0,4.66,1.7,7.51,6.75,7.51a67,67,0,0,0,8.4-.7c.7-.1.9.25.9.6v1.3a1,1,0,0,1-.75,1.1,32.81,32.81,0,0,1-9.25,1.35c-7.35,0-10.1-4.05-10.1-10.55a35.56,35.56,0,0,1,.6-6.06c1.55-8.6,4.7-17.3,15.75-17.3,1.95,0,6.55.25,9,1.3.65.3.65.65.45,1.1Z"/><path class="cls-2" d="M592.49,79.48a1,1,0,0,1-.65.85,8.27,8.27,0,0,1-2.85.45c-3.3,0-3.7-1.85-3.3-4.1l5.95-30.51c.15-.65.45-.85,1-.85h2c.6,0,.9.15.75.85l-5.7,29.26c-.3,1.7.3,1.85,2.15,1.85.6,0,.75.1.75.5Z"/><path class="cls-2" d="M600.89,79.68c-.1.65-.4.85-.95.85h-2.05c-.6,0-.85-.2-.7-.85L601.59,57c.1-.7.45-.85,1-.85h2c.6,0,.8.2.7.85Zm3.55-27.76c-1,0-1.8-.25-1.8-1.4,0-1.8.8-3,2.65-3,1,0,1.85.2,1.85,1.35C607.14,50.62,606.34,51.92,604.44,51.92Z"/><path class="cls-2" d="M628.79,59c-.2.55-.65.55-1.4.5-2-.2-4.7-.5-6.55-.5-4.5,0-6.35,2.21-7.7,9.11a28.16,28.16,0,0,0-.55,4.8c-.05,3.45,1.4,4.6,4.65,4.6,1.65,0,4.9-.25,7-.5.6,0,1,0,1,.65v1a1.08,1.08,0,0,1-.75,1,23,23,0,0,1-7.8,1.15c-6.6,0-8.2-3.6-8.2-7.2a33.25,33.25,0,0,1,.7-5.91c1.25-6.45,3-12.15,12-12.15,2.05,0,5.85.25,7.8,1.15.45.2.45.65.3,1Z"/><path class="cls-2" d="M641.39,66.48l6.25,13.15a.71.71,0,0,1-.7.9h-2.35a.94.94,0,0,1-1-.7l-5-10.7-4.75,4.7-1.15,5.85a.92.92,0,0,1-1.05.85h-2c-.55,0-.8-.2-.65-.85l6.5-33.56c.15-.65.4-.85,1-.85h2c.6,0,.85.2.7.85l-4.3,22.06,11.55-11.56a1.57,1.57,0,0,1,1-.5h3.3c.5,0,.7.5.3,1Z"/><path class="cls-2" d="M684.34,79.68c-.1.65-.45.85-1.05.85h-2.1c-.55,0-.8-.2-.65-.85l2.9-14.81c.85-4.6.2-5.75-2.9-5.75-2.45,0-7.3,2.11-8.95,2.86l-3.45,17.7c-.1.65-.45.85-1,.85H665c-.55,0-.8-.2-.65-.85l6.5-33.56c.15-.65.45-.85,1-.85h2.05c.6,0,.85.2.75.85l-2.5,12.7h.1c1.85-1,6-3.15,9.45-3.15,6.4,0,6.5,3.9,5.45,9.26Z"/><path class="cls-2" d="M692.39,67.27c1-4.45,3.5-11.55,13.05-11.55,4.15,0,7.65,2.05,7.65,5.9,0,8.4-11.7,9.86-17.6,10a11.64,11.64,0,0,0-.3,2.45c0,3.6,3,3.5,5.75,3.5,1.6,0,4.9-.25,6.95-.5.6,0,1,0,1,.65v1a1.08,1.08,0,0,1-.75,1c-2.35,1-5.8,1.15-8.45,1.15-5.2,0-8.4-1.55-8.4-7A30,30,0,0,1,692.39,67.27Zm12.7-8.15c-6.35,0-7.75,4.75-8.5,7.36l-.5,2c4-.11,13.15-1,13.15-6.2C709.24,60,707.34,59.12,705.09,59.12Z"/><path class="cls-2" d="M730.84,59.82a46.63,46.63,0,0,0-8.1,2.41l-3.35,17.45a.94.94,0,0,1-1,.85h-2.15c-.55,0-.75-.2-.6-.85L720,57c.1-.65.4-.85,1-.85H723c.6,0,.85.2.75.85l-.4,2,.05.1a24.77,24.77,0,0,1,7.75-3.25c.65-.15.75,0,.75.6l-.3,2.3A.88.88,0,0,1,730.84,59.82Z"/><path class="cls-2" d="M732.74,67.27c1-4.45,3.5-11.55,13-11.55,4.15,0,7.65,2.05,7.65,5.9,0,8.4-11.7,9.86-17.6,10a11.64,11.64,0,0,0-.3,2.45c0,3.6,3.05,3.5,5.75,3.5,1.6,0,4.9-.25,7-.5.6,0,1,0,1,.65v1a1.08,1.08,0,0,1-.75,1c-2.35,1-5.8,1.15-8.45,1.15-5.2,0-8.4-1.55-8.4-7A30,30,0,0,1,732.74,67.27Zm12.7-8.15c-6.35,0-7.75,4.75-8.5,7.36l-.5,2c4-.11,13.15-1,13.15-6.2C749.59,60,747.69,59.12,745.44,59.12Z"/><path class="cls-2" d="M781.79,79a1.09,1.09,0,0,1-.6,1,18,18,0,0,1-5.85,1c-4.3,0-5-2.1-4.4-5.3l3.2-16.31h-2.75c-.65,0-.8-.25-.7-.85l.25-1.4c.15-.6.4-.9,1-.9h2.8l1.05-5.4c.1-.6.5-.8,1-1l2.1-.55c.55-.15.8.1.7.75l-1.2,6.15H784c.7,0,.8.3.7.85l-.3,1.45c-.1.6-.3.85-1,.85h-5.55l-2.95,15.16c-.45,2.35-.05,3,2.95,3,.5,0,2.25-.15,3-.2s1,0,1,.6Z"/><path class="cls-2" d="M806.09,67.93c-1.4,7.5-3.75,13-12.4,13-5.55,0-8.7-2.35-8.7-8.05a27.79,27.79,0,0,1,.55-4.95c1.3-6.81,4.1-12.26,12.05-12.26,5.5,0,9,2.15,9,7.95A24.86,24.86,0,0,1,806.09,67.93Zm-8.7-8.81c-5.85,0-7,4.25-8,9.15a22.3,22.3,0,0,0-.55,4.46c0,3.45,1.6,4.7,5,4.7,6,0,7.3-4,8.3-9.16a22.07,22.07,0,0,0,.55-4.4C802.69,60.23,800.79,59.12,797.39,59.12Z"/><path class="cls-2" d="M842.29,79.68c-.1.65-.4.85-.95.85h-2.05c-.61,0-.86-.2-.7-.85l.34-1.9c-2.54,1.55-5.45,3.2-9.2,3.2-4.6,0-6.4-2.35-6.4-6.8a29.18,29.18,0,0,1,.65-5.55c1.6-8.26,4.25-12.91,12.06-12.91a16,16,0,0,1,6.8,1.85l0,0,.15-.7c.15-.6.4-.65,1.1-.65H846c.7,0,.9.2.75.9Zm-6.9-20.51c-4.41,0-6.06,2.4-7.46,9.56a31.41,31.41,0,0,0-.65,5c0,3.15,1.2,3.75,3.5,3.75s6.86-1.9,8.76-2.8l2.75-14A17.18,17.18,0,0,0,835.39,59.17Z"/><path class="cls-2" d="M869.89,59c-.2.55-.65.55-1.4.5-2-.2-4.7-.5-6.55-.5-4.51,0-6.35,2.21-7.71,9.11a29.21,29.21,0,0,0-.55,4.8c0,3.45,1.41,4.6,4.66,4.6,1.65,0,4.9-.25,6.95-.5.6,0,1,0,1,.65v1a1.08,1.08,0,0,1-.75,1,23,23,0,0,1-7.81,1.15c-6.6,0-8.2-3.6-8.2-7.2a33.25,33.25,0,0,1,.7-5.91c1.25-6.45,3-12.15,12-12.15,2,0,5.85.25,7.8,1.15.45.2.45.65.3,1Z"/><path class="cls-2" d="M891.14,59c-.21.55-.66.55-1.41.5-2-.2-4.7-.5-6.55-.5-4.5,0-6.35,2.21-7.7,9.11a28.16,28.16,0,0,0-.55,4.8c0,3.45,1.4,4.6,4.65,4.6,1.65,0,4.9-.25,6.95-.5.61,0,1,0,1,.65v1a1.08,1.08,0,0,1-.75,1,23,23,0,0,1-7.8,1.15c-6.6,0-8.2-3.6-8.2-7.2a33.25,33.25,0,0,1,.7-5.91c1.25-6.45,3-12.15,12-12.15,2,0,5.85.25,7.8,1.15.45.2.45.65.31,1Z"/><path class="cls-2" d="M893.33,67.27c1-4.45,3.5-11.55,13-11.55,4.15,0,7.66,2.05,7.66,5.9,0,8.4-11.71,9.86-17.61,10a11.64,11.64,0,0,0-.3,2.45c0,3.6,3,3.5,5.75,3.5,1.6,0,4.9-.25,7-.5.6,0,1,0,1,.65v1a1.07,1.07,0,0,1-.75,1c-2.35,1-5.8,1.15-8.45,1.15-5.2,0-8.4-1.55-8.4-7A30,30,0,0,1,893.33,67.27ZM906,59.12c-6.35,0-7.75,4.75-8.5,7.36l-.5,2c4.05-.11,13.15-1,13.15-6.2C910.18,60,908.28,59.12,906,59.12Z"/><path class="cls-2" d="M935.18,59c-.2.55-.65.6-1.4.55-2-.2-4.3-.5-6.35-.5-3.15,0-5.6.8-5.6,4,0,2.21,2.25,2.91,4.55,3.3s7.15,1.5,7.15,6.26c0,6.6-4.9,8.35-10.55,8.35-2.55,0-6.2-.4-7.75-1.15a.76.76,0,0,1-.35-1l.4-1c.25-.65.65-.7,1.25-.65,2,.25,5.25.55,6.9.55,3.45,0,6.2-.85,6.2-4.4,0-2.41-1.9-3.16-4.25-3.55-2.8-.45-7.45-1.45-7.45-6,0-5.9,4.65-7.95,9.85-7.95,1.9,0,5.75.3,7.55,1.15.45.2.45.6.3,1Z"/><path class="cls-2" d="M957,59c-.2.55-.65.6-1.4.55-2-.2-4.3-.5-6.35-.5-3.15,0-5.6.8-5.6,4,0,2.21,2.25,2.91,4.55,3.3s7.15,1.5,7.15,6.26c0,6.6-4.9,8.35-10.55,8.35-2.55,0-6.2-.4-7.75-1.15a.76.76,0,0,1-.35-1l.4-1c.25-.65.65-.7,1.25-.65,1.95.25,5.25.55,6.9.55,3.45,0,6.2-.85,6.2-4.4,0-2.41-1.9-3.16-4.25-3.55-2.8-.45-7.45-1.45-7.45-6,0-5.9,4.65-7.95,9.85-7.95,1.9,0,5.75.3,7.55,1.15.45.2.45.6.3,1Z"/></g><g class="cls-1"><path class="cls-2" d="M1000.86,61.92h-2.65c-.75,0-.9-.35-.7-1.15l.7-3.85c.15-.75.45-1.1,1.2-1.1h2.7l.4-2.4c1.1-5.5,4.1-9.05,10.6-9.05a17,17,0,0,1,6.65,1.2c1,.5.8,1.2.5,1.9l-1,3.15c-.3.85-.5.8-1.7.65a32.3,32.3,0,0,0-3.65-.35c-2.4,0-3.25,1.15-3.7,3.3l-.35,1.6h5.75c.9,0,1,.35.85,1l-.75,3.9c-.15.8-.4,1.15-1.3,1.15h-5.8l-4,20.11c-1,5.4-3.85,8.85-10.2,8.85a16,16,0,0,1-6.55-1.35c-1-.45-.9-1.15-.65-1.85l1.05-3.2c.35-.9.5-.9,1.75-.7a23.34,23.34,0,0,0,3.35.4c2.6,0,3.4-1.3,4-4Z"/><path class="cls-2" d="M1028.06,59.92l0,.1a15.77,15.77,0,0,1,7.9-4.45c1.25-.2,1.6-.1,1.5,1.15l-.4,5.1c0,1-.2,1.2-1.7,1.5a37.36,37.36,0,0,0-8.6,2.75l-2.55,13.36a1.21,1.21,0,0,1-1.25,1.1h-5.65c-.85,0-1-.45-.9-1.1l4.35-22.51a1.23,1.23,0,0,1,1.3-1.1h5.65c.9,0,1,.65.85,1.1Z"/><path class="cls-2" d="M1038.31,66.18c1.35-5.06,4.45-10.71,13.85-10.71,4.7,0,8.9,2.15,8.9,6.7,0,7.85-9.45,9.1-15.6,9.35a3.73,3.73,0,0,0-.2,1.26c0,1.9,1.75,2,4.1,2a60.4,60.4,0,0,0,7-.45c.7-.1,1.25,0,1.25.85v2.4c0,1.35-.3,1.7-1.75,2.25a31,31,0,0,1-8.9,1.15c-5.7,0-9.55-2.35-9.55-8.4A25.41,25.41,0,0,1,1038.31,66.18Zm12.45-4.7c-3,0-3.9,2.75-4.55,5,3-.2,6.75-.9,6.75-3.45C1053,62.12,1052.16,61.48,1050.76,61.48Z"/><path class="cls-2" d="M1064.81,66.18c1.35-5.06,4.45-10.71,13.85-10.71,4.7,0,8.9,2.15,8.9,6.7,0,7.85-9.45,9.1-15.6,9.35a3.73,3.73,0,0,0-.2,1.26c0,1.9,1.75,2,4.1,2a60.4,60.4,0,0,0,7-.45c.7-.1,1.25,0,1.25.85v2.4c0,1.35-.3,1.7-1.75,2.25a31,31,0,0,1-8.9,1.15c-5.7,0-9.55-2.35-9.55-8.4A25.41,25.41,0,0,1,1064.81,66.18Zm12.45-4.7c-3,0-3.9,2.75-4.55,5,3-.2,6.75-.9,6.75-3.45C1079.46,62.12,1078.66,61.48,1077.26,61.48Z"/><path class="cls-2" d="M1121.81,78.28a1.66,1.66,0,0,1-1.2,1.6,28.75,28.75,0,0,1-7.5,1.05c-6.3,0-6.65-3.85-5.9-8l2.2-11.16h-2.2c-.8,0-1-.34-.85-1.09l.75-3.76c.15-.75.45-1.1,1.25-1.1h2.25l1-4.9a1.59,1.59,0,0,1,1.35-1.3l5.3-1.35c.75-.25,1.25,0,1.1.85l-1.3,6.7h5.1c.9,0,1,.35.85,1.05l-.75,3.81c-.15.75-.35,1.09-1.25,1.09h-5.15l-1.75,9.31c-.4,1.9-.4,2.65,2.5,2.7.8,0,2.25-.1,3.5-.2.65,0,1-.1,1,1.05Z"/><path class="cls-2" d="M1136.66,59.92l0,.1a15.77,15.77,0,0,1,7.9-4.45c1.25-.2,1.6-.1,1.5,1.15l-.4,5.1c0,1-.2,1.2-1.7,1.5a37.36,37.36,0,0,0-8.6,2.75l-2.55,13.36a1.21,1.21,0,0,1-1.25,1.1H1126c-.85,0-1-.45-.9-1.1l4.35-22.51a1.23,1.23,0,0,1,1.3-1.1h5.65c.9,0,1,.65.85,1.1Z"/><path class="cls-2" d="M1167.51,79.43a1.15,1.15,0,0,1-1.25,1.1h-5.65c-.85,0-.95-.4-.8-1l.25-1.25,0,0c-2.85,1.85-5.2,2.75-7.6,2.75-5,0-6.45-2.8-6.45-7.1a30.4,30.4,0,0,1,.6-5.31c1.5-7.75,4-12.85,11.45-12.85a13.91,13.91,0,0,1,6.1,1.7l.2-.8c.15-.65.45-.8,1.1-.8H1171c1,0,1,.4.85,1.15Zm-13-11.2a16.91,16.91,0,0,0-.4,3c0,2.16.7,2.61,2.2,2.61a14.73,14.73,0,0,0,4.85-1.45l1.75-9a12.26,12.26,0,0,0-3.75-.7C1156.46,62.77,1155.26,64.23,1154.51,68.23Z"/><path class="cls-2" d="M1181.26,79.43a1.15,1.15,0,0,1-1.25,1.1h-5.6c-.85,0-1.05-.45-.9-1.1l4.35-22.51a1.21,1.21,0,0,1,1.35-1.1h5.6c.9,0,.9.65.8,1.1Zm6.2-31.41c0,2.3-.9,5.1-4.9,5.1-2.65,0-3.45-1.1-3.45-2.6,0-2.65,1.25-5,4.9-5C1186.56,45.52,1187.46,46.47,1187.46,48Z"/><path class="cls-2" d="M1198.66,58.12h.1a17,17,0,0,1,8.3-2.75c7,0,6.5,5.3,5.6,9.9l-2.75,14.16a1.18,1.18,0,0,1-1.25,1.1H1203c-.85,0-1-.45-.85-1.1l2.55-13c.55-3.16-.25-3.81-2.25-3.81a17.23,17.23,0,0,0-5,1.4l-3,15.41a1.2,1.2,0,0,1-1.3,1.1h-5.6c-.8,0-.95-.45-.85-1.1l4.35-22.51a1.23,1.23,0,0,1,1.3-1.1h5.6c1,0,1,.6.85,1.1Z"/><path class="cls-2" d="M1223,79.43a1.15,1.15,0,0,1-1.25,1.1h-5.6c-.85,0-1.05-.45-.9-1.1l4.35-22.51a1.21,1.21,0,0,1,1.35-1.1h5.6c.9,0,.9.65.8,1.1Zm6.2-31.41c0,2.3-.9,5.1-4.9,5.1-2.65,0-3.45-1.1-3.45-2.6,0-2.65,1.25-5,4.9-5C1228.31,45.52,1229.21,46.47,1229.21,48Z"/><path class="cls-2" d="M1240.41,58.12h.1a17,17,0,0,1,8.3-2.75c7,0,6.5,5.3,5.6,9.9l-2.75,14.16a1.18,1.18,0,0,1-1.25,1.1h-5.65c-.85,0-1-.45-.85-1.1l2.55-13c.55-3.16-.25-3.81-2.25-3.81a17.23,17.23,0,0,0-5,1.4l-3,15.41a1.2,1.2,0,0,1-1.3,1.1h-5.6c-.8,0-.95-.45-.85-1.1l4.35-22.51a1.23,1.23,0,0,1,1.3-1.1h5.6c1,0,1,.6.85,1.1Z"/><path class="cls-2" d="M1279.26,79c-1.35,6.65-2.65,12-13.75,12a24.3,24.3,0,0,1-8-1.2c-1-.4-1.35-.75-1.35-1.3a2,2,0,0,1,.15-.7l1.15-2.85c.5-1.2,1-1.1,1.9-1a41.44,41.44,0,0,0,6.65.55c3.65,0,4.4-1,5-3.45l.35-1.3a0,0,0,0,0-.05,0,17.64,17.64,0,0,1-5,.8c-6.6,0-8.45-3.1-8.45-7.9a28.61,28.61,0,0,1,.9-6.81c1.65-6.3,5.25-10.5,13.75-10.5a27.75,27.75,0,0,1,9.55,1.5c1.25.5,1.2,1.5,1,2.5Zm-7.6-16.86c-2.3,0-4.25.75-5.2,5.11a18.55,18.55,0,0,0-.45,3.5c0,2.4,1,3,2.85,3a14.93,14.93,0,0,0,3.8-.5l2.1-10.91A25.28,25.28,0,0,0,1271.66,62.12Z"/><path class="cls-2" d="M1334.56,80.53h-5.5c-.85,0-1-.4-.9-1l2.55-13.16c.6-3.09-.2-3.8-2-3.8a14.45,14.45,0,0,0-4.75,1.46l-.45,2.29-2.55,13.21a1.11,1.11,0,0,1-1.25,1h-5.5c-.8,0-1-.4-.85-1l2.55-13.3c.55-2.81-.15-3.66-1.95-3.66a13.65,13.65,0,0,0-4.8,1.46l-3,15.5a1.2,1.2,0,0,1-1.3,1h-5.5c-.8,0-1-.4-.85-1L1302.81,57a1.23,1.23,0,0,1,1.3-1.1h5.5c.9,0,1,.6.85,1.1l-.2,1.15,0,.05a14.23,14.23,0,0,1,7.85-2.75c3,0,5.2,1.1,5.8,3.4,2.75-2,6.1-3.4,9.1-3.4,7,0,6.35,5.15,5.45,9.81l-2.75,14.25A1.13,1.13,0,0,1,1334.56,80.53Z"/><path class="cls-2" d="M1365.86,64.32a19.68,19.68,0,0,1-.35,3.5c-1,6.16-2.9,13.11-13.55,13.11-7.85,0-10.1-4.3-10.1-9.3a23.4,23.4,0,0,1,.4-3.81c1-5.34,3.5-12.5,13.45-12.5C1363.36,55.32,1365.86,59.27,1365.86,64.32Zm-15.75,3.81a17.34,17.34,0,0,0-.35,3c0,2.3.85,3.2,2.85,3.2,3.35,0,4.3-2.35,5-6.15a17.53,17.53,0,0,0,.35-3c0-2.2-.9-3.1-3.05-3.1C1351.76,62,1350.76,64.48,1350.11,68.13Z"/><path class="cls-2" d="M1387.36,56.07v0l.2-1.1,1.7-8.55c.15-.65.4-1.15,1.25-1.15h5.6c.7,0,.9.35.9.75a1.1,1.1,0,0,1,0,.4l-6.45,33.06a1.12,1.12,0,0,1-1.25,1.1h-5.65c-.65,0-.85-.25-.85-.65a1.24,1.24,0,0,1,0-.4c0-.4.2-.85.25-1.25h-.1a15.1,15.1,0,0,1-7.55,2.7c-5,0-6.55-2.85-6.45-7.2a42.66,42.66,0,0,1,1-7.6c1.55-6.71,4.35-10.86,12.15-10.86A19.4,19.4,0,0,1,1387.36,56.07Zm-4.3,6c-2.75,0-4.1.65-5.15,4.25a24.56,24.56,0,0,0-.8,5.16c0,2,.75,2.45,2.15,2.45a15,15,0,0,0,4.9-1.45l1.9-9.91A10.67,10.67,0,0,0,1383.06,62Z"/><path class="cls-2" d="M1410.66,78.23l-.1,0a17,17,0,0,1-8.3,2.75c-7,0-6.45-4.65-5.5-9.7l2.8-14.31a1.21,1.21,0,0,1,1.25-1.1h5.65c.85,0,1,.45.85,1.1l-2.5,13c-.5,2.75.1,3.75,2.2,3.75a15.38,15.38,0,0,0,4.8-1.35l3-15.41a1.27,1.27,0,0,1,1.3-1.1h5.6c.85,0,1,.45.9,1.1l-4.4,22.51a1.12,1.12,0,0,1-1.25,1.1h-5.65c-.9,0-.9-.6-.85-1.1Z"/><path class="cls-2" d="M1432.56,72.38c-.35,1.75.5,1.8,2,2,1,.1,1.1.3,1,1l-.5,3.65a1.32,1.32,0,0,1-1,1.1,12.39,12.39,0,0,1-4.15.65c-4.35,0-6.4-1.9-5.5-6.55l5.4-27.91a1.23,1.23,0,0,1,1.3-1.1h5.6c1,0,1,.6.9,1.1Z"/><path class="cls-2" d="M1440,66.18c1.35-5.06,4.45-10.71,13.85-10.71,4.7,0,8.9,2.15,8.9,6.7,0,7.85-9.45,9.1-15.6,9.35a3.73,3.73,0,0,0-.2,1.26c0,1.9,1.75,2,4.1,2a60.4,60.4,0,0,0,7-.45c.7-.1,1.25,0,1.25.85v2.4c0,1.35-.3,1.7-1.75,2.25a31,31,0,0,1-8.9,1.15c-5.7,0-9.55-2.35-9.55-8.4A25.41,25.41,0,0,1,1440,66.18Zm12.45-4.7c-3,0-3.9,2.75-4.55,5,2.95-.2,6.75-.9,6.75-3.45C1454.66,62.12,1453.86,61.48,1452.46,61.48Z"/><path class="cls-2" d="M1486.51,56.47c1.25.45,1.85.8,1.3,2.1l-1.1,2.6c-.35.95-.5,1.06-1.7.9-2.15-.25-5.4-.55-6.85-.59-2.3-.06-3.05.54-3.1,1.75-.1,1,1.45,1.34,2.7,1.54,4.15.6,8.3,1.75,8.3,6.71,0,7.8-6.35,9.5-12.7,9.5a28.42,28.42,0,0,1-7.75-1.1c-1.55-.6-1.8-1.15-1.2-2.5l1-2.4c.4-1,.7-1.1,1.75-.9a47.3,47.3,0,0,0,7,.65c2.4,0,3.7-.45,3.8-2,.1-1.21-.85-1.46-2.35-1.75-4.5-.75-8.55-2-8.55-6.91,0-6.75,5.7-8.75,11.9-8.75A25.34,25.34,0,0,1,1486.51,56.47Z"/><path class="cls-2" d="M1526.11,79.43a1.15,1.15,0,0,1-1.25,1.1h-5.65c-.85,0-1-.4-.8-1l.25-1.25-.05,0c-2.85,1.85-5.2,2.75-7.6,2.75-5,0-6.45-2.8-6.45-7.1a30.4,30.4,0,0,1,.6-5.31c1.5-7.75,4-12.85,11.45-12.85a13.91,13.91,0,0,1,6.1,1.7l.2-.8c.15-.65.45-.8,1.1-.8h5.55c1,0,1,.4.85,1.15Zm-13-11.2a16.91,16.91,0,0,0-.4,3c0,2.16.7,2.61,2.2,2.61a14.73,14.73,0,0,0,4.85-1.45l1.75-9a12.26,12.26,0,0,0-3.75-.7C1515.06,62.77,1513.86,64.23,1513.11,68.23Z"/><path class="cls-2" d="M1543.36,58.12h.1a17,17,0,0,1,8.3-2.75c7,0,6.5,5.3,5.6,9.9l-2.75,14.16a1.18,1.18,0,0,1-1.25,1.1h-5.65c-.85,0-1-.45-.85-1.1l2.55-13c.55-3.16-.25-3.81-2.25-3.81a17.23,17.23,0,0,0-5,1.4l-3,15.41a1.21,1.21,0,0,1-1.31,1.1h-5.59c-.81,0-1-.45-.86-1.1l4.36-22.51a1.22,1.22,0,0,1,1.29-1.1h5.61c1,0,1,.6.85,1.1Z"/><path class="cls-2" d="M1578.91,56.07v0l.2-1.1,1.7-8.55c.15-.65.4-1.15,1.25-1.15h5.6c.7,0,.9.35.9.75a1.1,1.1,0,0,1,0,.4l-6.45,33.06a1.12,1.12,0,0,1-1.25,1.1h-5.65c-.65,0-.85-.25-.85-.65a1.54,1.54,0,0,1,0-.4c.06-.4.21-.85.25-1.25h-.09a15.16,15.16,0,0,1-7.56,2.7c-5,0-6.55-2.85-6.45-7.2a42.66,42.66,0,0,1,1-7.6c1.55-6.71,4.35-10.86,12.16-10.86A19.4,19.4,0,0,1,1578.91,56.07Zm-4.31,6c-2.75,0-4.09.65-5.15,4.25a25.23,25.23,0,0,0-.8,5.16c0,2,.75,2.45,2.16,2.45a15,15,0,0,0,4.9-1.45l1.9-9.91A10.67,10.67,0,0,0,1574.6,62Z"/><path class="cls-2" d="M1611.15,72.38c-.35,1.75.5,1.8,2,2,1,.1,1.1.3,1,1l-.5,3.65a1.32,1.32,0,0,1-1,1.1,12.39,12.39,0,0,1-4.15.65c-4.35,0-6.4-1.9-5.5-6.55l5.4-27.91a1.23,1.23,0,0,1,1.3-1.1h5.6c1,0,1,.6.9,1.1Z"/><path class="cls-2" d="M1618.6,66.18c1.35-5.06,4.45-10.71,13.85-10.71,4.7,0,8.9,2.15,8.9,6.7,0,7.85-9.45,9.1-15.6,9.35a3.73,3.73,0,0,0-.2,1.26c0,1.9,1.75,2,4.1,2a60.4,60.4,0,0,0,6.95-.45c.71-.1,1.25,0,1.25.85v2.4c0,1.35-.29,1.7-1.75,2.25a31,31,0,0,1-8.9,1.15c-5.7,0-9.55-2.35-9.55-8.4A25.41,25.41,0,0,1,1618.6,66.18Zm12.45-4.7c-3,0-3.9,2.75-4.55,5,3-.2,6.75-.9,6.75-3.45C1633.25,62.12,1632.45,61.48,1631.05,61.48Z"/><path class="cls-2" d="M1665.1,56.47c1.25.45,1.86.8,1.3,2.1l-1.09,2.6c-.36.95-.5,1.06-1.71.9-2.15-.25-5.4-.55-6.85-.59-2.3-.06-3,.54-3.1,1.75-.1,1,1.45,1.34,2.7,1.54,4.15.6,8.3,1.75,8.3,6.71,0,7.8-6.35,9.5-12.7,9.5a28.42,28.42,0,0,1-7.75-1.1c-1.55-.6-1.8-1.15-1.2-2.5l1-2.4c.4-1,.7-1.1,1.75-.9a47.3,47.3,0,0,0,7,.65c2.4,0,3.7-.45,3.8-2,.1-1.21-.85-1.46-2.35-1.75-4.5-.75-8.55-2-8.55-6.91,0-6.75,5.7-8.75,11.9-8.75A25.34,25.34,0,0,1,1665.1,56.47Z"/><path class="cls-2" d="M1689.45,56.47c1.25.45,1.86.8,1.3,2.1l-1.1,2.6c-.35.95-.5,1.06-1.7.9-2.15-.25-5.4-.55-6.85-.59-2.3-.06-3,.54-3.1,1.75-.1,1,1.45,1.34,2.7,1.54,4.15.6,8.3,1.75,8.3,6.71,0,7.8-6.35,9.5-12.7,9.5a28.42,28.42,0,0,1-7.75-1.1c-1.55-.6-1.8-1.15-1.2-2.5l1-2.4c.4-1,.7-1.1,1.75-.9a47.3,47.3,0,0,0,7,.65c2.4,0,3.7-.45,3.8-2,.1-1.21-.85-1.46-2.35-1.75-4.5-.75-8.55-2-8.55-6.91,0-6.75,5.7-8.75,11.9-8.75A25.34,25.34,0,0,1,1689.45,56.47Z"/><path class="cls-2" d="M1717.21,64.32a18.78,18.78,0,0,1-.36,3.5c-1,6.16-2.89,13.11-13.55,13.11-7.85,0-10.1-4.3-10.1-9.3a23.4,23.4,0,0,1,.4-3.81c1-5.34,3.5-12.5,13.46-12.5C1714.71,55.32,1717.21,59.27,1717.21,64.32Zm-15.76,3.81a17.34,17.34,0,0,0-.35,3c0,2.3.85,3.2,2.85,3.2,3.36,0,4.3-2.35,5-6.15a17.62,17.62,0,0,0,.36-3c0-2.2-.91-3.1-3.06-3.1C1703.1,62,1702.1,64.48,1701.45,68.13Z"/><path class="cls-2" d="M1731,58.12h.1a17,17,0,0,1,8.3-2.75c7,0,6.5,5.3,5.6,9.9l-2.75,14.16a1.18,1.18,0,0,1-1.25,1.1h-5.65c-.85,0-.95-.45-.85-1.1l2.55-13c.55-3.16-.25-3.81-2.25-3.81a17.23,17.23,0,0,0-5,1.4l-3,15.41a1.2,1.2,0,0,1-1.3,1.1H1720c-.8,0-1-.45-.85-1.1l4.35-22.51a1.23,1.23,0,0,1,1.3-1.1h5.6c1,0,1,.6.85,1.1Z"/><path class="cls-2" d="M1787.55,62.42c0,.56,0,1.2,0,1.85a35.05,35.05,0,0,1-.8,5.91C1785.25,77.08,1782,81,1774.5,81a20.38,20.38,0,0,1-5.2-.75l-1.75,9a1.23,1.23,0,0,1-1.3,1.1h-5.55c-.75,0-1-.4-.85-1.1l6.2-32.26a1.3,1.3,0,0,1,1.3-1.15h5.6c1,0,1,.4.9,1l-.2,1.35a0,0,0,0,0,0,.05,14.74,14.74,0,0,1,7.65-2.75C1785.9,55.42,1787.45,58.22,1787.55,62.42Zm-15.1,1.6c-.7,3.3-1.3,6.5-2,9.81a16.45,16.45,0,0,0,4,.55c3.9,0,4.9-5.9,4.9-8.81,0-2-.35-2.95-2.15-2.95A13.94,13.94,0,0,0,1772.45,64Z"/><path class="cls-2" d="M1798.8,72.38c-.35,1.75.5,1.8,2,2,1,.1,1.1.3,1,1l-.5,3.65a1.32,1.32,0,0,1-1,1.1,12.39,12.39,0,0,1-4.15.65c-4.35,0-6.4-1.9-5.5-6.55l5.4-27.91a1.23,1.23,0,0,1,1.3-1.1h5.6c1,0,1,.6.9,1.1Z"/><path class="cls-2" d="M1826.85,79.43a1.15,1.15,0,0,1-1.25,1.1H1820c-.85,0-1-.4-.8-1l.25-1.25-.05,0c-2.85,1.85-5.2,2.75-7.6,2.75-5,0-6.45-2.8-6.45-7.1a30.4,30.4,0,0,1,.6-5.31c1.5-7.75,4-12.85,11.45-12.85a13.91,13.91,0,0,1,6.1,1.7l.2-.8c.15-.65.45-.8,1.1-.8h5.55c1,0,1,.4.85,1.15Zm-13-11.2a16.91,16.91,0,0,0-.4,3c0,2.16.7,2.61,2.2,2.61a14.73,14.73,0,0,0,4.85-1.45l1.75-9a12.26,12.26,0,0,0-3.75-.7C1815.8,62.77,1814.6,64.23,1813.85,68.23Z"/><path class="cls-2" d="M1844.1,58.12h.1a17,17,0,0,1,8.3-2.75c7,0,6.5,5.3,5.6,9.9l-2.75,14.16a1.18,1.18,0,0,1-1.25,1.1h-5.65c-.85,0-1-.45-.85-1.1l2.55-13c.55-3.16-.25-3.81-2.25-3.81a17.23,17.23,0,0,0-5,1.4l-3,15.41a1.2,1.2,0,0,1-1.3,1.1h-5.6c-.8,0-1-.45-.85-1.1l4.35-22.51a1.23,1.23,0,0,1,1.3-1.1h5.6c1,0,1,.6.85,1.1Z"/><path class="cls-2" d="M1882.15,56.47c1.25.45,1.85.8,1.3,2.1l-1.1,2.6c-.35.95-.5,1.06-1.7.9-2.15-.25-5.4-.55-6.85-.59-2.3-.06-3,.54-3.1,1.75-.1,1,1.45,1.34,2.7,1.54,4.15.6,8.3,1.75,8.3,6.71,0,7.8-6.35,9.5-12.7,9.5a28.42,28.42,0,0,1-7.75-1.1c-1.55-.6-1.8-1.15-1.2-2.5l1-2.4c.4-1,.7-1.1,1.75-.9a47.3,47.3,0,0,0,7,.65c2.4,0,3.7-.45,3.8-2,.1-1.21-.85-1.46-2.35-1.75-4.5-.75-8.55-2-8.55-6.91,0-6.75,5.7-8.75,11.9-8.75A25.34,25.34,0,0,1,1882.15,56.47Z"/></g><path class="cls-2" d="M383.67,59.24a.81.81,0,0,1-1.06-.14l-.7-.72c-.42-.45-.39-.53.11-1.06a2.92,2.92,0,0,0,.92-2.06,2.5,2.5,0,0,0-.64-1.65c-.47-.53-.58-.83.08-1.31l1.82-1.39c.55-.42.89-.19,1.33.22a4,4,0,0,1,1.15,2.68A6.6,6.6,0,0,1,383.67,59.24Zm.72-13c-2,0-2.23-1.09-2.23-2.12s.45-2.09,2.23-2.09,2.23.86,2.23,2.09C386.62,45.2,386.29,46.26,384.39,46.26Z"/><path class="cls-2" d="M284.33,65.47a1.4,1.4,0,0,1-.8-.25l-13.47-9.47a1.4,1.4,0,0,1,1.61-2.28l13.47,9.47a1.39,1.39,0,0,1,.33,1.94A1.37,1.37,0,0,1,284.33,65.47Z"/><path class="cls-2" d="M149,36.34a1.64,1.64,0,0,1,0-.73,1.75,1.75,0,0,1,2.1-1.33L206.8,46.73a1.76,1.76,0,1,1-.77,3.43L150.38,37.7A1.73,1.73,0,0,1,149,36.34Z"/><path class="cls-2" d="M384.64,68.35a17.09,17.09,0,1,1,17.09-17.09A17.11,17.11,0,0,1,384.64,68.35Zm0-31.39a14.31,14.31,0,1,0,14.3,14.3A14.32,14.32,0,0,0,384.64,37Z"/><path class="cls-2" d="M97.4,38.48a28.42,28.42,0,0,1-.35-8.71,27.86,27.86,0,0,1,31-24.48,27.79,27.79,0,0,1,24.07,22.18,28.73,28.73,0,0,1,.36,8.71,27.93,27.93,0,0,1-55.11,2.3Zm51.31-10.32a24.45,24.45,0,0,0-39.09-14.31,24,24,0,0,0-9.08,16.3,25.24,25.24,0,0,0,.3,7.64,24.41,24.41,0,0,0,48.18-2A25.23,25.23,0,0,0,148.71,28.16Z"/><path class="cls-2" d="M257.77,63.15a17.09,17.09,0,1,1,17.09-17.09A17.11,17.11,0,0,1,257.77,63.15Zm0-31.39a14.31,14.31,0,1,0,14.3,14.3A14.32,14.32,0,0,0,257.77,31.76Z"/><path class="cls-2" d="M256.75,46.53h-4.27v-2h4.27V40h2.14v4.55h4.27v2h-4.27v4.55h-2.14Z"/><path class="cls-2" d="M492.2,87a27.11,27.11,0,1,1-21.07-46.32,1.7,1.7,0,1,1,.25,3.4A23.7,23.7,0,1,0,496.78,66a1.7,1.7,0,1,1,3.4-.26,26.88,26.88,0,0,1-6.49,19.7C493.21,86,492.71,86.49,492.2,87Z"/><path class="cls-2" d="M202.25,113.13c-.59,0-1.18,0-1.78-.07a22,22,0,0,1-15.09-7.71,1.39,1.39,0,0,1,2.12-1.81A19.36,19.36,0,1,0,217,78.41a19.4,19.4,0,0,0-27.3-2.16,1.39,1.39,0,1,1-1.8-2.12,22.15,22.15,0,1,1,14.39,39Z"/><path class="cls-2" d="M347.84,109.05a31,31,0,0,1-3.48-.21l.31-2.77c5.15.58,8.81-.18,10.58-2.18A6.08,6.08,0,0,0,356.44,99l0-.18c0-.09-.94-9.28-2.31-19-1.05-7.38-16-13.89-21.63-15.78l.88-2.64c.9.3,22,7.45,23.51,18,1.31,9.29,2.23,18.11,2.32,19a8.81,8.81,0,0,1-1.84,7.32C355.39,107.94,352.2,109.05,347.84,109.05Z"/><path class="cls-2" d="M291,109.05c-4.36,0-7.55-1.11-9.5-3.31a8.89,8.89,0,0,1-1.84-7.32c.1-.91,1-9.73,2.33-19,1.49-10.58,22.42-17.73,23.31-18l.89,2.64c-5.61,1.89-20.4,8.41-21.45,15.78-1.37,9.7-2.3,18.89-2.31,19l0,.18a6.09,6.09,0,0,0,1.21,5c1.78,2,5.43,2.73,10.56,2.16l.31,2.77A30.85,30.85,0,0,1,291,109.05Z"/><rect class="cls-2" x="302.86" y="63.67" width="2.79" height="12.14" transform="translate(-4.73 114.05) rotate(-21.07)"/><rect class="cls-2" x="328.37" y="68.35" width="12.14" height="2.79" transform="translate(149.14 356.76) rotate(-68.93)"/><path class="cls-2" d="M319.35,54.79a14.64,14.64,0,0,1-11.06-4.4c-5.81-6.09-5.4-16.23-5.38-16.65V27a13.66,13.66,0,0,1,13.65-13.65h5.57A13.67,13.67,0,0,1,335.79,27V33.8c0,.36.43,10.5-5.38,16.59A14.66,14.66,0,0,1,319.35,54.79Zm-2.79-38.63A10.87,10.87,0,0,0,305.7,27V33.8c0,.16-.37,9.46,4.61,14.67a13.31,13.31,0,0,0,18.08,0c5-5.24,4.62-14.51,4.61-14.6V27a10.87,10.87,0,0,0-10.87-10.86Z"/><path class="cls-2" d="M327.34,33.67c-1.95,0-3.89-.73-7.2-2.08L318,30.71c-6.47-2.62-6.59-2.67-13.06.36l-1.18-2.52c7.35-3.45,8.22-3.28,15.29-.42l2.19.88c6.3,2.56,6.42,2.61,12.79-.46l1.2,2.51C331.47,32.85,329.4,33.67,327.34,33.67Z"/><rect class="cls-2" x="309.78" y="50.99" width="2.79" height="8.45"/><rect class="cls-2" x="326.13" y="50.99" width="2.79" height="8.45"/><path class="cls-2" d="M312.44,72.12l-8.5-9.4,4.93-5.82,10.48,1.86,10.48-1.86,4.93,5.82-8.5,9.4-6.91-3.51Zm6.91-6.63,6.27,3.18,5.44-6-2.32-2.73-9.39,1.66L310,59.93l-2.32,2.73,5.43,6Z"/><path class="cls-2" d="M346.1,113.21H292.79V74H346.1Zm-50.53-2.78h47.74V76.8H295.57Z"/><path class="cls-2" d="M336.44,118.41h-34a1.39,1.39,0,1,1,0-2.78h34a1.39,1.39,0,0,1,0,2.78Z"/><path class="cls-2" d="M449.39,73.79a1.73,1.73,0,0,1-.9.46l-39.43,7.2a1.7,1.7,0,1,1-.61-3.35l39.43-7.2a1.71,1.71,0,0,1,2,1.37A1.75,1.75,0,0,1,449.39,73.79Z"/><path class="cls-2" d="M359.29,69.1a1.39,1.39,0,0,1-.72-2.59c1.35-.81,11.92-7.79,12-7.86A1.39,1.39,0,0,1,372.13,61c-.44.29-10.72,7.09-12.13,7.93A1.41,1.41,0,0,1,359.29,69.1Z"/><path class="cls-2" d="M223,88a1.39,1.39,0,0,1-.32-2.75L239,81.36a1.39,1.39,0,1,1,.65,2.71L223.36,88A1.86,1.86,0,0,1,223,88Z"/><path class="cls-2" d="M468.43,70.89v2.35c0,.25-.19.32-.4.21l-9.4-4.76a.51.51,0,0,1-.37-.54V66.53a.53.53,0,0,1,.35-.54L468,61.21c.28-.14.37,0,.37.26V63.7a.52.52,0,0,1-.35.53l-5.8,3v.09l5.83,3A.48.48,0,0,1,468.43,70.89Z"/><path class="cls-2" d="M473.54,76a.5.5,0,0,1-.49.37h-2.21c-.34,0-.46-.19-.39-.49.88-3.71,3.09-13,4-16.64a.45.45,0,0,1,.49-.4h2.16c.3,0,.42.23.37.56Z"/><path class="cls-2" d="M485.75,67.36v-.09l-5.83-3c-.18-.12-.35-.21-.35-.53V61.47c0-.21.1-.4.4-.26L489.39,66a.54.54,0,0,1,.33.54v1.62a.52.52,0,0,1-.35.54L480,73.45c-.23.11-.42,0-.42-.21V70.89a.5.5,0,0,1,.35-.53Z"/><path class="cls-2" d="M117.66,40.31c0,.81.23,1.17,1,1.23l.72.05c.33,0,.53.14.53.53v1.79a.51.51,0,0,1-.47.53,16.54,16.54,0,0,1-2.4.13,3,3,0,0,1-3.32-3.23V36.63c0-1.22,0-2-1.14-2.28a.55.55,0,0,1-.47-.53V32.34c0-.28.17-.41.42-.47,1.19-.33,1.19-1.11,1.19-2.34V25.21a3.2,3.2,0,0,1,3.43-3.32,22.51,22.51,0,0,1,2.29.17c.39,0,.47.23.47.56v1.81c0,.42-.2.53-.53.53l-.75.06c-.78.05-1,.44-1,1.25v3.65c0,.95-.28,2.73-1.84,3.23v.08c1.76.65,1.81,1.9,1.81,3.13Z"/><path class="cls-2" d="M132.15,36.36c0-1.23.06-2.48,1.81-3.13v-.08c-1.56-.5-1.83-2.28-1.83-3.23V26.27c0-.81-.2-1.2-1-1.25L130.4,25c-.34,0-.5-.11-.5-.53V22.62a.49.49,0,0,1,.44-.56,14.9,14.9,0,0,1,2.29-.14,3.17,3.17,0,0,1,3.42,3.29v4.32c0,1.23,0,2,1.2,2.34.25.06.42.19.42.47v1.48a.55.55,0,0,1-.45.53c-1.17.33-1.17,1.06-1.17,2.28v4.71a3,3,0,0,1-3.28,3.23,16.87,16.87,0,0,1-2.43-.13.48.48,0,0,1-.44-.53V42.12c0-.39.16-.5.5-.53l.72-.05c.81-.06,1-.42,1-1.23Z"/><path class="cls-2" d="M197.52,101.79c.36.64.3.8-.17,1l-1.59.92c-.5.28-.69.31-1.11-.22a18.15,18.15,0,0,1,0-22.43c.42-.53.61-.5,1.08-.22l1.62.92c.47.25.56.44.17,1.06a18.1,18.1,0,0,0-2.45,9.33A19.23,19.23,0,0,0,197.52,101.79Z"/><path class="cls-2" d="M205.9,82.87c-.36-.62-.27-.81.17-1.06l1.62-.92c.5-.28.69-.31,1.11.22a18.26,18.26,0,0,1,0,22.43c-.42.53-.61.5-1.11.22l-1.62-.92c-.44-.25-.5-.41-.17-1a18.94,18.94,0,0,0,2.48-9.59A17.83,17.83,0,0,0,205.9,82.87Z"/></svg>