<svg xmlns="http://www.w3.org/2000/svg" viewBox="0 0 296.4 296.4"><defs><style>.cls-1{fill:#f39753;}.cls-2{fill:#fff;}.cls-3,.cls-4{fill:none;stroke:#fff;stroke-width:2px;}.cls-4{stroke-miterlimit:10;}</style></defs><title>icon</title><g id="Layer_2" data-name="Layer 2"><g id="Layer_1-2" data-name="Layer 1"><circle class="cls-1" cx="148.2" cy="148.2" r="148.2"/><path class="cls-2" d="M208.2,127.2a1.26,1.26,0,0,1-1.3-1.3V83.8H68.1a1.3,1.3,0,1,1-.2-2.6H208.3a1.26,1.26,0,0,1,1.3,1.3h0v43.3A1.5,1.5,0,0,1,208.2,127.2Z"/><path class="cls-2" d="M190.9,187.4H52.1a1.26,1.26,0,0,1-1.3-1.3V114a1.26,1.26,0,0,1,1.3-1.3,1.32,1.32,0,0,1,1.3,1.3h0v70.9H190.9a1.32,1.32,0,0,1,1.2,1.4A1.51,1.51,0,0,1,190.9,187.4Z"/><path class="cls-2" d="M248.2,244.1H201a1.26,1.26,0,0,1-1.3-1.3v-82a1.26,1.26,0,0,1,1.3-1.3,1.32,1.32,0,0,1,1.3,1.3v80.7h44.6V160.8a1.32,1.32,0,0,1,1.4-1.2,1.38,1.38,0,0,1,1.2,1.2v82A1.32,1.32,0,0,1,248.2,244.1Z"/><path class="cls-2" d="M254.4,161.8H224.6a1.32,1.32,0,0,1-1.2-1.4,1.38,1.38,0,0,1,1.2-1.2h28.5v-10H196v10h11.3a1.32,1.32,0,0,1,1.2,1.4,1.38,1.38,0,0,1-1.2,1.2H194.8a1.26,1.26,0,0,1-1.3-1.3V147.9a1.26,1.26,0,0,1,1.3-1.3h59.6a1.26,1.26,0,0,1,1.3,1.3v12.6C255.8,161.3,255.2,161.8,254.4,161.8Z"/><path class="cls-2" d="M243.6,196.8H205.7a1.26,1.26,0,0,1-1.3-1.3V168.2a1.26,1.26,0,0,1,1.3-1.3h37.9a1.26,1.26,0,0,1,1.3,1.3v27.3A1.32,1.32,0,0,1,243.6,196.8ZM207,194.2h35.3V169.6H207Z"/><path class="cls-2" d="M237.5,179h-26a1.32,1.32,0,0,1-1.2-1.4,1.38,1.38,0,0,1,1.2-1.2h26a1.3,1.3,0,0,1,.2,2.6Z"/><path class="cls-2" d="M230.6,187.5H218.5a1.3,1.3,0,1,1-.2-2.6h12.3a1.32,1.32,0,0,1,1.2,1.4,1.49,1.49,0,0,1-1.2,1.2Z"/><path class="cls-2" d="M203.4,149.1a1.26,1.26,0,0,1-1.3-1.3h0V135.7a9.78,9.78,0,0,1,7.6-9.7l9.6-2.9a1.3,1.3,0,1,1,.7,2.5l-9.7,2.8h0a7.39,7.39,0,0,0-5.7,7.2v12.1A1.4,1.4,0,0,1,203.4,149.1Z"/><path class="cls-2" d="M245.8,149.1a1.26,1.26,0,0,1-1.3-1.3V135.7a7.48,7.48,0,0,0-5.7-7.2h-.1l-9.7-2.8a1.42,1.42,0,0,1-.9-1.6c.1-.6,1-1,1.6-.9l9.6,2.8a9.76,9.76,0,0,1,7.6,9.7v12.1A1.06,1.06,0,0,1,245.8,149.1Z"/><path class="cls-2" d="M219.9,125.5a1.26,1.26,0,0,1-1.3-1.3V118a1.3,1.3,0,1,1,2.6,0v6.2A1.4,1.4,0,0,1,219.9,125.5Z"/><path class="cls-2" d="M229.4,125.5a1.26,1.26,0,0,1-1.3-1.3V118a1.26,1.26,0,0,1,1.3-1.3,1.32,1.32,0,0,1,1.3,1.3h0v6.2A1.32,1.32,0,0,1,229.4,125.5Z"/><path class="cls-2" d="M211.5,148.4a1.26,1.26,0,0,1-1.3-1.3v-4.8a1.3,1.3,0,0,1,2.6,0h0v4.8A1.26,1.26,0,0,1,211.5,148.4Z"/><path class="cls-2" d="M237.4,148.4a1.26,1.26,0,0,1-1.3-1.3v-4.8a1.26,1.26,0,0,1,1.3-1.3,1.32,1.32,0,0,1,1.3,1.3v4.8A1.32,1.32,0,0,1,237.4,148.4Z"/><path class="cls-2" d="M225.8,120.9h-2.4a4.6,4.6,0,0,1-3.4-1.4l-3.8-3.8a6.93,6.93,0,0,1-2-4.7v-5.1a1.3,1.3,0,1,1,2.6-.2V111a5.19,5.19,0,0,0,1.1,2.9l3.8,3.8a2.36,2.36,0,0,0,1.6.7h2.4a2.57,2.57,0,0,0,1.6-.7l3.7-3.8a3.91,3.91,0,0,0,1.1-2.9v-4.9a1.32,1.32,0,0,1,1.4-1.2,1.38,1.38,0,0,1,1.2,1.2V111a7,7,0,0,1-1.9,4.7l-3.7,3.8A4.58,4.58,0,0,1,225.8,120.9Z"/><path class="cls-2" d="M216.6,107.2a4,4,0,0,1-2.5-.9,1.38,1.38,0,0,1-.3-.4,9.29,9.29,0,0,1,14.9-11,1.28,1.28,0,0,1-2,1.6h0a6.56,6.56,0,0,0-9.4-.4,6.71,6.71,0,0,0-1.4,8c1,.6,2.1-.1,4.3-1.7,2-1.4,4.3-3.1,7.2-3.1h0a1.32,1.32,0,0,1,1.2,1.4,1.38,1.38,0,0,1-1.2,1.2h0c-2,0-3.8,1.3-5.6,2.6C220.2,105.8,218.5,107.2,216.6,107.2Z"/><path class="cls-2" d="M233.2,107.1c-2.5,0-5.7-1.2-9.9-3.2a1.25,1.25,0,0,1-.7-1.7h0a1.25,1.25,0,0,1,1.7-.7c2.4,1.1,6.7,3.1,9.1,3.1a5.38,5.38,0,0,0-4-9,5.66,5.66,0,0,0-1.8.3,1.35,1.35,0,0,1-1.7-.9,1.21,1.21,0,0,1,.9-1.6h0a8.12,8.12,0,0,1,10.3,5.1,7.68,7.68,0,0,1-2,8.4,1.61,1.61,0,0,1-.7.4A1.8,1.8,0,0,0,233.2,107.1Z"/><path class="cls-2" d="M230.9,94.9a1.45,1.45,0,0,1-.7-.2,1.41,1.41,0,0,1-.5-1.8h0a3.55,3.55,0,0,0-1.1-4.8,3.46,3.46,0,0,0-4.8,1.1,2.9,2.9,0,0,0-.5,1.8,3.4,3.4,0,0,0,.1,1,1.35,1.35,0,0,1-1,1.6h0a1.27,1.27,0,0,1-1.6-1h0a6.05,6.05,0,1,1,11.7-3.1,5.86,5.86,0,0,1-.7,4.8A1,1,0,0,1,230.9,94.9Z"/><path class="cls-2" d="M224.5,128.6a22.42,22.42,0,0,1-5.2-.6c-2.7-.8-3.2-2-3.2-3a1.25,1.25,0,1,1,2.5-.1c.5.4,2.5,1,5.8,1s5.4-.7,5.8-1a1.27,1.27,0,0,1,1.4-1.2,1.3,1.3,0,0,1,1.2,1.3C233,128.4,227,128.6,224.5,128.6Z"/><path class="cls-2" d="M200.1,192.7H48.2a1.26,1.26,0,0,1-1.3-1.3v-5.2a1.26,1.26,0,0,1,1.3-1.3H200a1.32,1.32,0,0,1,1.2,1.4,1.38,1.38,0,0,1-1.2,1.2H49.6v2.6H200.2a1.32,1.32,0,0,1,1.2,1.4,1.61,1.61,0,0,1-1.3,1.2Z"/><path class="cls-2" d="M130,210.7a1.26,1.26,0,0,1-1.3-1.3h0v-18a1.27,1.27,0,0,1,1.2-1.4,1.32,1.32,0,0,1,1.4,1.2v18.2a1.32,1.32,0,0,1-1.3,1.3Z"/><path class="cls-2" d="M130.1,220a5.9,5.9,0,1,1,5.9-5.9h0A5.91,5.91,0,0,1,130.1,220Zm0-9.3a3.3,3.3,0,1,0,3.3,3.3h0A3.27,3.27,0,0,0,130.1,210.7Z"/><path class="cls-2" d="M99.1,95.4h-26a1.3,1.3,0,1,1,0-2.6h26a1.26,1.26,0,0,1,1.3,1.3,1.21,1.21,0,0,1-1.3,1.3Z"/><path class="cls-2" d="M83.7,100.7H73.1a1.26,1.26,0,0,1-1.3-1.3,1.32,1.32,0,0,1,1.3-1.3H83.7A1.26,1.26,0,0,1,85,99.4a1.32,1.32,0,0,1-1.3,1.3Z"/><rect class="cls-3" x="71.7" y="149.7" width="14.4" height="14.4"/><line class="cls-3" x1="71.7" y1="164.1" x2="86.1" y2="149.7"/><line class="cls-3" x1="71.7" y1="149.7" x2="86.1" y2="164.1"/><line class="cls-4" x1="90.6" y1="151.3" x2="131.2" y2="151.3"/><line class="cls-4" x1="90.6" y1="157.3" x2="133.3" y2="157.3"/><line class="cls-4" x1="90.6" y1="163.2" x2="133.3" y2="163.2"/><path class="cls-4" d="M169.5,131.6a21,21,0,1,1-4.2-29.4,20.95,20.95,0,0,1,4.2,29.4Z"/><polyline class="cls-4" points="146.8 124.1 143.3 121.2 139.7 118.4 143.3 115.7 146.8 112.9"/><polyline class="cls-4" points="158.7 124.1 162.3 121.2 165.8 118.4 162.3 115.7 158.7 112.9"/><line class="cls-4" x1="155.5" y1="109.7" x2="150.4" y2="127.1"/></g></g></svg>