<svg width="20" height="20" viewBox="0 0 20 20" fill="none" xmlns="http://www.w3.org/2000/svg">
<path d="M14.2423 2.35002C13.4758 1.71967 12.5784 1.26837 11.6153 1.02905C10.6523 0.789732 9.64794 0.768424 8.6756 0.966683C7.38092 1.2282 6.19309 1.86841 5.26284 2.80608C4.33258 3.74376 3.70183 4.93663 3.4506 6.23335C3.26714 7.20562 3.30048 8.20639 3.54824 9.16429C3.796 10.1222 4.25207 11.0136 4.88394 11.775C5.47034 12.4367 5.80646 13.2829 5.83394 14.1667V16.6667C5.83394 17.3297 6.09733 17.9656 6.56617 18.4345C7.03501 18.9033 7.67089 19.1667 8.33394 19.1667H11.6673C12.3303 19.1667 12.9662 18.9033 13.435 18.4345C13.9039 17.9656 14.1673 17.3297 14.1673 16.6667V14.325C14.1952 13.3493 14.5537 12.412 15.1839 11.6667C16.2882 10.3007 16.8087 8.55403 16.6324 6.80637C16.4561 5.05871 15.5971 3.45126 14.2423 2.33335V2.35002ZM12.5006 16.6667C12.5006 16.8877 12.4128 17.0997 12.2565 17.2559C12.1002 17.4122 11.8883 17.5 11.6673 17.5H8.33394C8.11292 17.5 7.90096 17.4122 7.74468 17.2559C7.5884 17.0997 7.5006 16.8877 7.5006 16.6667V15.8333H12.5006V16.6667ZM13.8923 10.6333C13.0544 11.6272 12.5655 12.8684 12.5006 14.1667H10.8339V11.6667C10.8339 11.4457 10.7461 11.2337 10.5899 11.0774C10.4336 10.9211 10.2216 10.8333 10.0006 10.8333C9.77959 10.8333 9.56763 10.9211 9.41135 11.0774C9.25507 11.2337 9.16727 11.4457 9.16727 11.6667V14.1667H7.5006C7.47862 12.8901 7.00639 11.6623 6.16727 10.7C5.61364 10.0367 5.24135 9.2412 5.08669 8.39114C4.93204 7.54108 5.00031 6.66545 5.28484 5.84962C5.56937 5.0338 6.06045 4.30564 6.7102 3.73612C7.35995 3.16661 8.1462 2.77518 8.99227 2.60002C9.7194 2.4503 10.4707 2.46439 11.1917 2.64124C11.9127 2.8181 12.5853 3.15329 13.1606 3.62248C13.736 4.09167 14.1996 4.68308 14.5178 5.35378C14.8361 6.02448 15.001 6.75764 15.0006 7.50002C15.0068 8.64157 14.6148 9.74957 13.8923 10.6333Z" fill="#333E48"/>
</svg>
