<svg width="20" height="20" viewBox="0 0 20 20" fill="none" xmlns="http://www.w3.org/2000/svg">
<path d="M12.2491 5.24994C12.0965 5.40572 12.0109 5.61515 12.0109 5.83328C12.0109 6.0514 12.0965 6.26083 12.2491 6.41661L13.5825 7.74994C13.7383 7.90263 13.9477 7.98816 14.1658 7.98816C14.3839 7.98816 14.5934 7.90263 14.7491 7.74994L17.8908 4.60828C18.3098 5.53427 18.4367 6.56597 18.2545 7.5659C18.0723 8.56582 17.5897 9.48648 16.871 10.2052C16.1524 10.9239 15.2317 11.4065 14.2318 11.5887C13.2318 11.7708 12.2001 11.644 11.2741 11.2249L5.51581 16.9833C5.18429 17.3148 4.73465 17.501 4.26581 17.501C3.79697 17.501 3.34733 17.3148 3.01581 16.9833C2.68429 16.6518 2.49805 16.2021 2.49805 15.7333C2.49805 15.2644 2.68429 14.8148 3.01581 14.4833L8.77415 8.72494C8.35512 7.79895 8.22824 6.76725 8.41043 5.76732C8.59262 4.7674 9.07522 3.84674 9.79391 3.12804C10.5126 2.40935 11.4333 1.92675 12.4332 1.74456C13.4331 1.56237 14.4648 1.68925 15.3908 2.10828L12.2575 5.24161L12.2491 5.24994Z" stroke="#333E48" stroke-width="1.66667" stroke-linecap="round" stroke-linejoin="round"/>
</svg>
