<svg width="20" height="20" viewBox="0 0 20 20" fill="none" xmlns="http://www.w3.org/2000/svg">
<path d="M19.166 17.5001V15.8334C19.1655 15.0948 18.9196 14.3774 18.4672 13.7937C18.0147 13.2099 17.3811 12.793 16.666 12.6084" stroke="#333E48" stroke-width="1.66667" stroke-linecap="round" stroke-linejoin="round"/>
<path d="M14.1673 17.5V15.8333C14.1673 14.9493 13.8161 14.1014 13.191 13.4763C12.5659 12.8512 11.718 12.5 10.834 12.5H4.16732C3.28326 12.5 2.43542 12.8512 1.8103 13.4763C1.18517 14.1014 0.833984 14.9493 0.833984 15.8333V17.5" stroke="#333E48" stroke-width="1.66667" stroke-linecap="round" stroke-linejoin="round"/>
<path d="M13.334 2.6084C14.051 2.79198 14.6865 3.20898 15.1403 3.79366C15.5942 4.37833 15.8405 5.09742 15.8405 5.83757C15.8405 6.57771 15.5942 7.2968 15.1403 7.88147C14.6865 8.46615 14.051 8.88315 13.334 9.06673" stroke="#333E48" stroke-width="1.66667" stroke-linecap="round" stroke-linejoin="round"/>
<path d="M7.49935 9.16667C9.3403 9.16667 10.8327 7.67428 10.8327 5.83333C10.8327 3.99238 9.3403 2.5 7.49935 2.5C5.6584 2.5 4.16602 3.99238 4.16602 5.83333C4.16602 7.67428 5.6584 9.16667 7.49935 9.16667Z" stroke="#333E48" stroke-width="1.66667" stroke-linecap="round" stroke-linejoin="round"/>
</svg>
